G04 #@! TF.GenerationSoftware,KiCad,Pcbnew,7.0.8*
G04 #@! TF.CreationDate,2023-10-01T22:59:48-07:00*
G04 #@! TF.ProjectId,babelfish,62616265-6c66-4697-9368-2e6b69636164,REV1*
G04 #@! TF.SameCoordinates,Original*
G04 #@! TF.FileFunction,Legend,Top*
G04 #@! TF.FilePolarity,Positive*
%FSLAX46Y46*%
G04 Gerber Fmt 4.6, Leading zero omitted, Abs format (unit mm)*
G04 Created by KiCad (PCBNEW 7.0.8) date 2023-10-01 22:59:48*
%MOMM*%
%LPD*%
G01*
G04 APERTURE LIST*
G04 Aperture macros list*
%AMRoundRect*
0 Rectangle with rounded corners*
0 $1 Rounding radius*
0 $2 $3 $4 $5 $6 $7 $8 $9 X,Y pos of 4 corners*
0 Add a 4 corners polygon primitive as box body*
4,1,4,$2,$3,$4,$5,$6,$7,$8,$9,$2,$3,0*
0 Add four circle primitives for the rounded corners*
1,1,$1+$1,$2,$3*
1,1,$1+$1,$4,$5*
1,1,$1+$1,$6,$7*
1,1,$1+$1,$8,$9*
0 Add four rect primitives between the rounded corners*
20,1,$1+$1,$2,$3,$4,$5,0*
20,1,$1+$1,$4,$5,$6,$7,0*
20,1,$1+$1,$6,$7,$8,$9,0*
20,1,$1+$1,$8,$9,$2,$3,0*%
G04 Aperture macros list end*
%ADD10C,0.150000*%
%ADD11C,0.125000*%
%ADD12C,0.152400*%
%ADD13C,0.300000*%
%ADD14C,0.254000*%
%ADD15C,0.120000*%
%ADD16C,0.200000*%
%ADD17C,0.059995*%
%ADD18O,1.731496X0.343002*%
%ADD19R,0.622301X1.104902*%
%ADD20RoundRect,0.135000X-0.135000X-0.185000X0.135000X-0.185000X0.135000X0.185000X-0.135000X0.185000X0*%
%ADD21RoundRect,0.150000X-0.150000X0.512500X-0.150000X-0.512500X0.150000X-0.512500X0.150000X0.512500X0*%
%ADD22RoundRect,0.250000X0.475000X-0.250000X0.475000X0.250000X-0.475000X0.250000X-0.475000X-0.250000X0*%
%ADD23RoundRect,0.135000X0.185000X-0.135000X0.185000X0.135000X-0.185000X0.135000X-0.185000X-0.135000X0*%
%ADD24RoundRect,0.250000X0.250000X0.475000X-0.250000X0.475000X-0.250000X-0.475000X0.250000X-0.475000X0*%
%ADD25C,1.500000*%
%ADD26R,1.700000X1.700000*%
%ADD27O,1.700000X1.700000*%
%ADD28C,2.700000*%
%ADD29RoundRect,0.140000X-0.170000X0.140000X-0.170000X-0.140000X0.170000X-0.140000X0.170000X0.140000X0*%
%ADD30RoundRect,0.218750X0.256250X-0.218750X0.256250X0.218750X-0.256250X0.218750X-0.256250X-0.218750X0*%
%ADD31RoundRect,0.140000X0.140000X0.170000X-0.140000X0.170000X-0.140000X-0.170000X0.140000X-0.170000X0*%
%ADD32RoundRect,0.140000X-0.140000X-0.170000X0.140000X-0.170000X0.140000X0.170000X-0.140000X0.170000X0*%
%ADD33RoundRect,0.135000X0.135000X0.185000X-0.135000X0.185000X-0.135000X-0.185000X0.135000X-0.185000X0*%
%ADD34RoundRect,0.135000X-0.185000X0.135000X-0.185000X-0.135000X0.185000X-0.135000X0.185000X0.135000X0*%
%ADD35C,0.649987*%
%ADD36O,1.000000X2.100000*%
%ADD37O,1.000000X1.800000*%
%ADD38R,0.600000X1.240005*%
%ADD39R,0.300000X1.240005*%
%ADD40RoundRect,0.250000X-0.250000X-0.475000X0.250000X-0.475000X0.250000X0.475000X-0.250000X0.475000X0*%
%ADD41C,2.100000*%
%ADD42C,2.500000*%
%ADD43C,1.750000*%
%ADD44R,0.600000X1.070003*%
%ADD45RoundRect,0.140000X0.170000X-0.140000X0.170000X0.140000X-0.170000X0.140000X-0.170000X-0.140000X0*%
%ADD46O,1.599949X1.600000*%
%ADD47O,1.200000X2.200000*%
%ADD48RoundRect,0.200000X-0.275000X0.200000X-0.275000X-0.200000X0.275000X-0.200000X0.275000X0.200000X0*%
%ADD49RoundRect,0.150000X0.512500X0.150000X-0.512500X0.150000X-0.512500X-0.150000X0.512500X-0.150000X0*%
%ADD50R,0.350013X0.600000*%
%ADD51R,2.400051X1.600000*%
%ADD52RoundRect,0.150000X0.150000X-0.512500X0.150000X0.512500X-0.150000X0.512500X-0.150000X-0.512500X0*%
%ADD53RoundRect,0.050000X-0.387500X-0.050000X0.387500X-0.050000X0.387500X0.050000X-0.387500X0.050000X0*%
%ADD54RoundRect,0.050000X-0.050000X-0.387500X0.050000X-0.387500X0.050000X0.387500X-0.050000X0.387500X0*%
%ADD55RoundRect,0.144000X-1.456000X-1.456000X1.456000X-1.456000X1.456000X1.456000X-1.456000X1.456000X0*%
%ADD56C,3.100000*%
%ADD57RoundRect,0.250000X-0.475000X0.250000X-0.475000X-0.250000X0.475000X-0.250000X0.475000X0.250000X0*%
%ADD58R,1.400000X1.200000*%
%ADD59O,0.602007X1.970993*%
%ADD60RoundRect,0.150000X0.150000X-0.650000X0.150000X0.650000X-0.150000X0.650000X-0.150000X-0.650000X0*%
%ADD61R,1.529997X1.359995*%
%ADD62R,1.070003X0.600000*%
%ADD63R,1.574803X1.574803*%
%ADD64C,1.574803*%
%ADD65C,5.000000*%
G04 APERTURE END LIST*
D10*
X84900414Y-98477255D02*
X84150414Y-98477255D01*
X84150414Y-98477255D02*
X84150414Y-98191541D01*
X84150414Y-98191541D02*
X84186128Y-98120112D01*
X84186128Y-98120112D02*
X84221842Y-98084398D01*
X84221842Y-98084398D02*
X84293271Y-98048684D01*
X84293271Y-98048684D02*
X84400414Y-98048684D01*
X84400414Y-98048684D02*
X84471842Y-98084398D01*
X84471842Y-98084398D02*
X84507557Y-98120112D01*
X84507557Y-98120112D02*
X84543271Y-98191541D01*
X84543271Y-98191541D02*
X84543271Y-98477255D01*
X84150414Y-97798684D02*
X84900414Y-97620112D01*
X84900414Y-97620112D02*
X84364700Y-97477255D01*
X84364700Y-97477255D02*
X84900414Y-97334398D01*
X84900414Y-97334398D02*
X84150414Y-97155827D01*
X84900414Y-96441541D02*
X84543271Y-96691541D01*
X84900414Y-96870112D02*
X84150414Y-96870112D01*
X84150414Y-96870112D02*
X84150414Y-96584398D01*
X84150414Y-96584398D02*
X84186128Y-96512969D01*
X84186128Y-96512969D02*
X84221842Y-96477255D01*
X84221842Y-96477255D02*
X84293271Y-96441541D01*
X84293271Y-96441541D02*
X84400414Y-96441541D01*
X84400414Y-96441541D02*
X84471842Y-96477255D01*
X84471842Y-96477255D02*
X84507557Y-96512969D01*
X84507557Y-96512969D02*
X84543271Y-96584398D01*
X84543271Y-96584398D02*
X84543271Y-96870112D01*
D11*
X89698241Y-84002309D02*
X90007765Y-84002309D01*
X90007765Y-84002309D02*
X89841098Y-84192785D01*
X89841098Y-84192785D02*
X89912527Y-84192785D01*
X89912527Y-84192785D02*
X89960146Y-84216595D01*
X89960146Y-84216595D02*
X89983955Y-84240404D01*
X89983955Y-84240404D02*
X90007765Y-84288023D01*
X90007765Y-84288023D02*
X90007765Y-84407071D01*
X90007765Y-84407071D02*
X89983955Y-84454690D01*
X89983955Y-84454690D02*
X89960146Y-84478500D01*
X89960146Y-84478500D02*
X89912527Y-84502309D01*
X89912527Y-84502309D02*
X89769670Y-84502309D01*
X89769670Y-84502309D02*
X89722051Y-84478500D01*
X89722051Y-84478500D02*
X89698241Y-84454690D01*
X90150622Y-84002309D02*
X90317288Y-84502309D01*
X90317288Y-84502309D02*
X90483955Y-84002309D01*
X90603002Y-84002309D02*
X90912526Y-84002309D01*
X90912526Y-84002309D02*
X90745859Y-84192785D01*
X90745859Y-84192785D02*
X90817288Y-84192785D01*
X90817288Y-84192785D02*
X90864907Y-84216595D01*
X90864907Y-84216595D02*
X90888716Y-84240404D01*
X90888716Y-84240404D02*
X90912526Y-84288023D01*
X90912526Y-84288023D02*
X90912526Y-84407071D01*
X90912526Y-84407071D02*
X90888716Y-84454690D01*
X90888716Y-84454690D02*
X90864907Y-84478500D01*
X90864907Y-84478500D02*
X90817288Y-84502309D01*
X90817288Y-84502309D02*
X90674431Y-84502309D01*
X90674431Y-84502309D02*
X90626812Y-84478500D01*
X90626812Y-84478500D02*
X90603002Y-84454690D01*
D10*
X87937030Y-72107557D02*
X88044173Y-72143271D01*
X88044173Y-72143271D02*
X88079887Y-72178985D01*
X88079887Y-72178985D02*
X88115601Y-72250414D01*
X88115601Y-72250414D02*
X88115601Y-72357557D01*
X88115601Y-72357557D02*
X88079887Y-72428985D01*
X88079887Y-72428985D02*
X88044173Y-72464700D01*
X88044173Y-72464700D02*
X87972744Y-72500414D01*
X87972744Y-72500414D02*
X87687030Y-72500414D01*
X87687030Y-72500414D02*
X87687030Y-71750414D01*
X87687030Y-71750414D02*
X87937030Y-71750414D01*
X87937030Y-71750414D02*
X88008459Y-71786128D01*
X88008459Y-71786128D02*
X88044173Y-71821842D01*
X88044173Y-71821842D02*
X88079887Y-71893271D01*
X88079887Y-71893271D02*
X88079887Y-71964700D01*
X88079887Y-71964700D02*
X88044173Y-72036128D01*
X88044173Y-72036128D02*
X88008459Y-72071842D01*
X88008459Y-72071842D02*
X87937030Y-72107557D01*
X87937030Y-72107557D02*
X87687030Y-72107557D01*
X88579887Y-71750414D02*
X88722744Y-71750414D01*
X88722744Y-71750414D02*
X88794173Y-71786128D01*
X88794173Y-71786128D02*
X88865601Y-71857557D01*
X88865601Y-71857557D02*
X88901316Y-72000414D01*
X88901316Y-72000414D02*
X88901316Y-72250414D01*
X88901316Y-72250414D02*
X88865601Y-72393271D01*
X88865601Y-72393271D02*
X88794173Y-72464700D01*
X88794173Y-72464700D02*
X88722744Y-72500414D01*
X88722744Y-72500414D02*
X88579887Y-72500414D01*
X88579887Y-72500414D02*
X88508459Y-72464700D01*
X88508459Y-72464700D02*
X88437030Y-72393271D01*
X88437030Y-72393271D02*
X88401316Y-72250414D01*
X88401316Y-72250414D02*
X88401316Y-72000414D01*
X88401316Y-72000414D02*
X88437030Y-71857557D01*
X88437030Y-71857557D02*
X88508459Y-71786128D01*
X88508459Y-71786128D02*
X88579887Y-71750414D01*
X89365601Y-71750414D02*
X89508458Y-71750414D01*
X89508458Y-71750414D02*
X89579887Y-71786128D01*
X89579887Y-71786128D02*
X89651315Y-71857557D01*
X89651315Y-71857557D02*
X89687030Y-72000414D01*
X89687030Y-72000414D02*
X89687030Y-72250414D01*
X89687030Y-72250414D02*
X89651315Y-72393271D01*
X89651315Y-72393271D02*
X89579887Y-72464700D01*
X89579887Y-72464700D02*
X89508458Y-72500414D01*
X89508458Y-72500414D02*
X89365601Y-72500414D01*
X89365601Y-72500414D02*
X89294173Y-72464700D01*
X89294173Y-72464700D02*
X89222744Y-72393271D01*
X89222744Y-72393271D02*
X89187030Y-72250414D01*
X89187030Y-72250414D02*
X89187030Y-72000414D01*
X89187030Y-72000414D02*
X89222744Y-71857557D01*
X89222744Y-71857557D02*
X89294173Y-71786128D01*
X89294173Y-71786128D02*
X89365601Y-71750414D01*
X89901315Y-71750414D02*
X90329887Y-71750414D01*
X90115601Y-72500414D02*
X90115601Y-71750414D01*
X85700414Y-97512969D02*
X85700414Y-97370112D01*
X85700414Y-97370112D02*
X85736128Y-97298683D01*
X85736128Y-97298683D02*
X85807557Y-97227255D01*
X85807557Y-97227255D02*
X85950414Y-97191540D01*
X85950414Y-97191540D02*
X86200414Y-97191540D01*
X86200414Y-97191540D02*
X86343271Y-97227255D01*
X86343271Y-97227255D02*
X86414700Y-97298683D01*
X86414700Y-97298683D02*
X86450414Y-97370112D01*
X86450414Y-97370112D02*
X86450414Y-97512969D01*
X86450414Y-97512969D02*
X86414700Y-97584398D01*
X86414700Y-97584398D02*
X86343271Y-97655826D01*
X86343271Y-97655826D02*
X86200414Y-97691540D01*
X86200414Y-97691540D02*
X85950414Y-97691540D01*
X85950414Y-97691540D02*
X85807557Y-97655826D01*
X85807557Y-97655826D02*
X85736128Y-97584398D01*
X85736128Y-97584398D02*
X85700414Y-97512969D01*
X86450414Y-96870112D02*
X85700414Y-96870112D01*
X86450414Y-96441541D02*
X86021842Y-96762969D01*
X85700414Y-96441541D02*
X86128985Y-96870112D01*
D11*
X83165383Y-83228500D02*
X83236811Y-83252309D01*
X83236811Y-83252309D02*
X83355859Y-83252309D01*
X83355859Y-83252309D02*
X83403478Y-83228500D01*
X83403478Y-83228500D02*
X83427287Y-83204690D01*
X83427287Y-83204690D02*
X83451097Y-83157071D01*
X83451097Y-83157071D02*
X83451097Y-83109452D01*
X83451097Y-83109452D02*
X83427287Y-83061833D01*
X83427287Y-83061833D02*
X83403478Y-83038023D01*
X83403478Y-83038023D02*
X83355859Y-83014214D01*
X83355859Y-83014214D02*
X83260621Y-82990404D01*
X83260621Y-82990404D02*
X83213002Y-82966595D01*
X83213002Y-82966595D02*
X83189192Y-82942785D01*
X83189192Y-82942785D02*
X83165383Y-82895166D01*
X83165383Y-82895166D02*
X83165383Y-82847547D01*
X83165383Y-82847547D02*
X83189192Y-82799928D01*
X83189192Y-82799928D02*
X83213002Y-82776119D01*
X83213002Y-82776119D02*
X83260621Y-82752309D01*
X83260621Y-82752309D02*
X83379668Y-82752309D01*
X83379668Y-82752309D02*
X83451097Y-82776119D01*
X83617763Y-82752309D02*
X83736811Y-83252309D01*
X83736811Y-83252309D02*
X83832049Y-82895166D01*
X83832049Y-82895166D02*
X83927287Y-83252309D01*
X83927287Y-83252309D02*
X84046335Y-82752309D01*
X84236811Y-83252309D02*
X84236811Y-82752309D01*
X84236811Y-82752309D02*
X84355859Y-82752309D01*
X84355859Y-82752309D02*
X84427287Y-82776119D01*
X84427287Y-82776119D02*
X84474906Y-82823738D01*
X84474906Y-82823738D02*
X84498716Y-82871357D01*
X84498716Y-82871357D02*
X84522525Y-82966595D01*
X84522525Y-82966595D02*
X84522525Y-83038023D01*
X84522525Y-83038023D02*
X84498716Y-83133261D01*
X84498716Y-83133261D02*
X84474906Y-83180880D01*
X84474906Y-83180880D02*
X84427287Y-83228500D01*
X84427287Y-83228500D02*
X84355859Y-83252309D01*
X84355859Y-83252309D02*
X84236811Y-83252309D01*
D10*
X88972743Y-75800414D02*
X88722743Y-75443271D01*
X88544172Y-75800414D02*
X88544172Y-75050414D01*
X88544172Y-75050414D02*
X88829886Y-75050414D01*
X88829886Y-75050414D02*
X88901315Y-75086128D01*
X88901315Y-75086128D02*
X88937029Y-75121842D01*
X88937029Y-75121842D02*
X88972743Y-75193271D01*
X88972743Y-75193271D02*
X88972743Y-75300414D01*
X88972743Y-75300414D02*
X88937029Y-75371842D01*
X88937029Y-75371842D02*
X88901315Y-75407557D01*
X88901315Y-75407557D02*
X88829886Y-75443271D01*
X88829886Y-75443271D02*
X88544172Y-75443271D01*
X89258458Y-75764700D02*
X89365601Y-75800414D01*
X89365601Y-75800414D02*
X89544172Y-75800414D01*
X89544172Y-75800414D02*
X89615601Y-75764700D01*
X89615601Y-75764700D02*
X89651315Y-75728985D01*
X89651315Y-75728985D02*
X89687029Y-75657557D01*
X89687029Y-75657557D02*
X89687029Y-75586128D01*
X89687029Y-75586128D02*
X89651315Y-75514700D01*
X89651315Y-75514700D02*
X89615601Y-75478985D01*
X89615601Y-75478985D02*
X89544172Y-75443271D01*
X89544172Y-75443271D02*
X89401315Y-75407557D01*
X89401315Y-75407557D02*
X89329886Y-75371842D01*
X89329886Y-75371842D02*
X89294172Y-75336128D01*
X89294172Y-75336128D02*
X89258458Y-75264700D01*
X89258458Y-75264700D02*
X89258458Y-75193271D01*
X89258458Y-75193271D02*
X89294172Y-75121842D01*
X89294172Y-75121842D02*
X89329886Y-75086128D01*
X89329886Y-75086128D02*
X89401315Y-75050414D01*
X89401315Y-75050414D02*
X89579886Y-75050414D01*
X89579886Y-75050414D02*
X89687029Y-75086128D01*
X89901315Y-75050414D02*
X90329887Y-75050414D01*
X90115601Y-75800414D02*
X90115601Y-75050414D01*
D11*
X89864906Y-81526119D02*
X89817287Y-81502309D01*
X89817287Y-81502309D02*
X89745858Y-81502309D01*
X89745858Y-81502309D02*
X89674430Y-81526119D01*
X89674430Y-81526119D02*
X89626811Y-81573738D01*
X89626811Y-81573738D02*
X89603001Y-81621357D01*
X89603001Y-81621357D02*
X89579192Y-81716595D01*
X89579192Y-81716595D02*
X89579192Y-81788023D01*
X89579192Y-81788023D02*
X89603001Y-81883261D01*
X89603001Y-81883261D02*
X89626811Y-81930880D01*
X89626811Y-81930880D02*
X89674430Y-81978500D01*
X89674430Y-81978500D02*
X89745858Y-82002309D01*
X89745858Y-82002309D02*
X89793477Y-82002309D01*
X89793477Y-82002309D02*
X89864906Y-81978500D01*
X89864906Y-81978500D02*
X89888715Y-81954690D01*
X89888715Y-81954690D02*
X89888715Y-81788023D01*
X89888715Y-81788023D02*
X89793477Y-81788023D01*
X90103001Y-82002309D02*
X90103001Y-81502309D01*
X90103001Y-81502309D02*
X90388715Y-82002309D01*
X90388715Y-82002309D02*
X90388715Y-81502309D01*
X90626811Y-82002309D02*
X90626811Y-81502309D01*
X90626811Y-81502309D02*
X90745859Y-81502309D01*
X90745859Y-81502309D02*
X90817287Y-81526119D01*
X90817287Y-81526119D02*
X90864906Y-81573738D01*
X90864906Y-81573738D02*
X90888716Y-81621357D01*
X90888716Y-81621357D02*
X90912525Y-81716595D01*
X90912525Y-81716595D02*
X90912525Y-81788023D01*
X90912525Y-81788023D02*
X90888716Y-81883261D01*
X90888716Y-81883261D02*
X90864906Y-81930880D01*
X90864906Y-81930880D02*
X90817287Y-81978500D01*
X90817287Y-81978500D02*
X90745859Y-82002309D01*
X90745859Y-82002309D02*
X90626811Y-82002309D01*
X83507763Y-80704690D02*
X83483954Y-80728500D01*
X83483954Y-80728500D02*
X83412525Y-80752309D01*
X83412525Y-80752309D02*
X83364906Y-80752309D01*
X83364906Y-80752309D02*
X83293478Y-80728500D01*
X83293478Y-80728500D02*
X83245859Y-80680880D01*
X83245859Y-80680880D02*
X83222049Y-80633261D01*
X83222049Y-80633261D02*
X83198240Y-80538023D01*
X83198240Y-80538023D02*
X83198240Y-80466595D01*
X83198240Y-80466595D02*
X83222049Y-80371357D01*
X83222049Y-80371357D02*
X83245859Y-80323738D01*
X83245859Y-80323738D02*
X83293478Y-80276119D01*
X83293478Y-80276119D02*
X83364906Y-80252309D01*
X83364906Y-80252309D02*
X83412525Y-80252309D01*
X83412525Y-80252309D02*
X83483954Y-80276119D01*
X83483954Y-80276119D02*
X83507763Y-80299928D01*
X83960144Y-80752309D02*
X83722049Y-80752309D01*
X83722049Y-80752309D02*
X83722049Y-80252309D01*
X84126811Y-80752309D02*
X84126811Y-80252309D01*
X84412525Y-80752309D02*
X84198240Y-80466595D01*
X84412525Y-80252309D02*
X84126811Y-80538023D01*
D10*
X87836128Y-98298683D02*
X87836128Y-97941541D01*
X88050414Y-98370112D02*
X87300414Y-98120112D01*
X87300414Y-98120112D02*
X88050414Y-97870112D01*
X87300414Y-97620112D02*
X87907557Y-97620112D01*
X87907557Y-97620112D02*
X87978985Y-97584398D01*
X87978985Y-97584398D02*
X88014700Y-97548684D01*
X88014700Y-97548684D02*
X88050414Y-97477255D01*
X88050414Y-97477255D02*
X88050414Y-97334398D01*
X88050414Y-97334398D02*
X88014700Y-97262969D01*
X88014700Y-97262969D02*
X87978985Y-97227255D01*
X87978985Y-97227255D02*
X87907557Y-97191541D01*
X87907557Y-97191541D02*
X87300414Y-97191541D01*
X87300414Y-96905827D02*
X88050414Y-96405827D01*
X87300414Y-96405827D02*
X88050414Y-96905827D01*
X127032968Y-111286960D02*
X127223444Y-111820294D01*
X127223444Y-111820294D02*
X127413921Y-111286960D01*
X127871064Y-111020294D02*
X127947254Y-111020294D01*
X127947254Y-111020294D02*
X128023445Y-111058389D01*
X128023445Y-111058389D02*
X128061540Y-111096484D01*
X128061540Y-111096484D02*
X128099635Y-111172675D01*
X128099635Y-111172675D02*
X128137730Y-111325056D01*
X128137730Y-111325056D02*
X128137730Y-111515532D01*
X128137730Y-111515532D02*
X128099635Y-111667913D01*
X128099635Y-111667913D02*
X128061540Y-111744103D01*
X128061540Y-111744103D02*
X128023445Y-111782199D01*
X128023445Y-111782199D02*
X127947254Y-111820294D01*
X127947254Y-111820294D02*
X127871064Y-111820294D01*
X127871064Y-111820294D02*
X127794873Y-111782199D01*
X127794873Y-111782199D02*
X127756778Y-111744103D01*
X127756778Y-111744103D02*
X127718683Y-111667913D01*
X127718683Y-111667913D02*
X127680587Y-111515532D01*
X127680587Y-111515532D02*
X127680587Y-111325056D01*
X127680587Y-111325056D02*
X127718683Y-111172675D01*
X127718683Y-111172675D02*
X127756778Y-111096484D01*
X127756778Y-111096484D02*
X127794873Y-111058389D01*
X127794873Y-111058389D02*
X127871064Y-111020294D01*
X128480588Y-111744103D02*
X128518683Y-111782199D01*
X128518683Y-111782199D02*
X128480588Y-111820294D01*
X128480588Y-111820294D02*
X128442492Y-111782199D01*
X128442492Y-111782199D02*
X128480588Y-111744103D01*
X128480588Y-111744103D02*
X128480588Y-111820294D01*
X128823444Y-111096484D02*
X128861540Y-111058389D01*
X128861540Y-111058389D02*
X128937730Y-111020294D01*
X128937730Y-111020294D02*
X129128206Y-111020294D01*
X129128206Y-111020294D02*
X129204397Y-111058389D01*
X129204397Y-111058389D02*
X129242492Y-111096484D01*
X129242492Y-111096484D02*
X129280587Y-111172675D01*
X129280587Y-111172675D02*
X129280587Y-111248865D01*
X129280587Y-111248865D02*
X129242492Y-111363151D01*
X129242492Y-111363151D02*
X128785349Y-111820294D01*
X128785349Y-111820294D02*
X129280587Y-111820294D01*
X127604397Y-112727341D02*
X127566302Y-112689246D01*
X127566302Y-112689246D02*
X127490111Y-112651151D01*
X127490111Y-112651151D02*
X127413921Y-112651151D01*
X127413921Y-112651151D02*
X127337730Y-112689246D01*
X127337730Y-112689246D02*
X127299635Y-112727341D01*
X127299635Y-112727341D02*
X127261540Y-112803532D01*
X127261540Y-112803532D02*
X127261540Y-112879722D01*
X127261540Y-112879722D02*
X127299635Y-112955913D01*
X127299635Y-112955913D02*
X127337730Y-112994008D01*
X127337730Y-112994008D02*
X127413921Y-113032103D01*
X127413921Y-113032103D02*
X127490111Y-113032103D01*
X127490111Y-113032103D02*
X127566302Y-112994008D01*
X127566302Y-112994008D02*
X127604397Y-112955913D01*
X127604397Y-112651151D02*
X127604397Y-112955913D01*
X127604397Y-112955913D02*
X127642492Y-112994008D01*
X127642492Y-112994008D02*
X127680587Y-112994008D01*
X127680587Y-112994008D02*
X127756778Y-112955913D01*
X127756778Y-112955913D02*
X127794873Y-112879722D01*
X127794873Y-112879722D02*
X127794873Y-112689246D01*
X127794873Y-112689246D02*
X127718683Y-112574960D01*
X127718683Y-112574960D02*
X127604397Y-112498770D01*
X127604397Y-112498770D02*
X127452016Y-112460675D01*
X127452016Y-112460675D02*
X127299635Y-112498770D01*
X127299635Y-112498770D02*
X127185349Y-112574960D01*
X127185349Y-112574960D02*
X127109159Y-112689246D01*
X127109159Y-112689246D02*
X127071063Y-112841627D01*
X127071063Y-112841627D02*
X127109159Y-112994008D01*
X127109159Y-112994008D02*
X127185349Y-113108294D01*
X127185349Y-113108294D02*
X127299635Y-113184484D01*
X127299635Y-113184484D02*
X127452016Y-113222579D01*
X127452016Y-113222579D02*
X127604397Y-113184484D01*
X127604397Y-113184484D02*
X127718683Y-113108294D01*
X128061539Y-112574960D02*
X128252015Y-113108294D01*
X128252015Y-113108294D02*
X128442492Y-112574960D01*
X128671063Y-112574960D02*
X128861539Y-113108294D01*
X128861539Y-113108294D02*
X129052016Y-112574960D01*
X129699635Y-112574960D02*
X129699635Y-113108294D01*
X129356778Y-112574960D02*
X129356778Y-112994008D01*
X129356778Y-112994008D02*
X129394873Y-113070199D01*
X129394873Y-113070199D02*
X129471063Y-113108294D01*
X129471063Y-113108294D02*
X129585349Y-113108294D01*
X129585349Y-113108294D02*
X129661540Y-113070199D01*
X129661540Y-113070199D02*
X129699635Y-113032103D01*
X130080588Y-113108294D02*
X130080588Y-112308294D01*
X130156778Y-112803532D02*
X130385350Y-113108294D01*
X130385350Y-112574960D02*
X130080588Y-112879722D01*
D12*
X97903943Y-81098679D02*
X97903943Y-86251079D01*
X94361143Y-81098679D02*
X97903943Y-81098679D01*
X97903943Y-86251079D02*
X94361143Y-86251079D01*
X94361143Y-86251079D02*
X94361143Y-81098679D01*
D13*
X95012527Y-81642875D02*
G75*
G03*
X95012527Y-81642875I-150114J0D01*
G01*
D12*
X97935465Y-87698705D02*
X97935465Y-92851105D01*
X94392665Y-87698705D02*
X97935465Y-87698705D01*
X97935465Y-92851105D02*
X94392665Y-92851105D01*
X94392665Y-92851105D02*
X94392665Y-87698705D01*
D13*
X95044049Y-88242901D02*
G75*
G03*
X95044049Y-88242901I-150114J0D01*
G01*
D12*
X97935465Y-94298679D02*
X97935465Y-99451079D01*
X94392665Y-94298679D02*
X97935465Y-94298679D01*
X97935465Y-99451079D02*
X94392665Y-99451079D01*
X94392665Y-99451079D02*
X94392665Y-94298679D01*
D13*
X95044049Y-94842875D02*
G75*
G03*
X95044049Y-94842875I-150114J0D01*
G01*
D12*
X94737288Y-101223800D02*
X94737288Y-106376200D01*
X91194488Y-101223800D02*
X94737288Y-101223800D01*
X94737288Y-106376200D02*
X91194488Y-106376200D01*
X91194488Y-106376200D02*
X91194488Y-101223800D01*
D13*
X91845872Y-101767996D02*
G75*
G03*
X91845872Y-101767996I-150114J0D01*
G01*
D14*
X122963145Y-98399644D02*
X125762231Y-98399644D01*
X122963145Y-99400406D02*
X122963145Y-98399644D01*
X125762231Y-98399644D02*
X125762231Y-99400406D01*
X125762231Y-99400406D02*
X122963145Y-99400406D01*
D15*
X89740359Y-94547500D02*
X90047641Y-94547500D01*
X89740359Y-95307500D02*
X90047641Y-95307500D01*
X91940000Y-91109300D02*
X91940000Y-89309300D01*
X91940000Y-91109300D02*
X91940000Y-91909300D01*
X88820000Y-91109300D02*
X88820000Y-90309300D01*
X88820000Y-91109300D02*
X88820000Y-91909300D01*
X120865000Y-96011252D02*
X120865000Y-95488748D01*
X122335000Y-96011252D02*
X122335000Y-95488748D01*
X98291377Y-79190415D02*
X98291377Y-78883133D01*
X99051377Y-79190415D02*
X99051377Y-78883133D01*
X118011252Y-82185000D02*
X117488748Y-82185000D01*
X118011252Y-80715000D02*
X117488748Y-80715000D01*
X89930000Y-113430000D02*
X89930000Y-112100000D01*
X91260000Y-113430000D02*
X89930000Y-113430000D01*
X92530000Y-113430000D02*
X97670000Y-113430000D01*
X92530000Y-113430000D02*
X92530000Y-110770000D01*
X97670000Y-113430000D02*
X97670000Y-110770000D01*
X92530000Y-110770000D02*
X97670000Y-110770000D01*
X99060000Y-106740994D02*
X99060000Y-106956666D01*
X98340000Y-106740994D02*
X98340000Y-106956666D01*
X83815000Y-95872500D02*
X85285000Y-95872500D01*
X85285000Y-95872500D02*
X85285000Y-93587500D01*
X83815000Y-93587500D02*
X83815000Y-95872500D01*
X106303336Y-89799000D02*
X106087664Y-89799000D01*
X106303336Y-89079000D02*
X106087664Y-89079000D01*
X117222164Y-84990000D02*
X117437836Y-84990000D01*
X117222164Y-85710000D02*
X117437836Y-85710000D01*
X117843641Y-102130000D02*
X117536359Y-102130000D01*
X117843641Y-101370000D02*
X117536359Y-101370000D01*
X116580000Y-94456359D02*
X116580000Y-94763641D01*
X115820000Y-94456359D02*
X115820000Y-94763641D01*
X85365000Y-95872500D02*
X86835000Y-95872500D01*
X86835000Y-95872500D02*
X86835000Y-93587500D01*
X85365000Y-93587500D02*
X85365000Y-95872500D01*
X106360000Y-111400994D02*
X106360000Y-111616666D01*
X105640000Y-111400994D02*
X105640000Y-111616666D01*
X120038748Y-86165000D02*
X120561252Y-86165000D01*
X120038748Y-87635000D02*
X120561252Y-87635000D01*
D16*
X89370000Y-85005000D02*
G75*
G03*
X89370000Y-85005000I-100000J0D01*
G01*
D15*
X126689979Y-85373692D02*
X126689979Y-85066410D01*
X127449979Y-85373692D02*
X127449979Y-85066410D01*
X121563641Y-89880000D02*
X121256359Y-89880000D01*
X121563641Y-89120000D02*
X121256359Y-89120000D01*
X117554141Y-91502600D02*
X117246859Y-91502600D01*
X117554141Y-90742600D02*
X117246859Y-90742600D01*
X102857600Y-81079159D02*
X102857600Y-81386441D01*
X102097600Y-81079159D02*
X102097600Y-81386441D01*
X118260000Y-86672164D02*
X118260000Y-86887836D01*
X117540000Y-86672164D02*
X117540000Y-86887836D01*
D12*
X121536195Y-82708750D02*
X120494590Y-82708750D01*
X118463805Y-82708750D02*
X119505410Y-82708750D01*
X121536195Y-84461150D02*
X121536195Y-82708750D01*
X120455398Y-84461150D02*
X119544602Y-84461150D01*
X118463805Y-84461150D02*
X118463805Y-82708750D01*
D17*
X118570002Y-84984950D02*
G75*
G03*
X118570002Y-84984950I-29997J0D01*
G01*
D15*
X111515500Y-82527836D02*
X111515500Y-82312164D01*
X112235500Y-82527836D02*
X112235500Y-82312164D01*
X85072500Y-91087742D02*
X85072500Y-91562258D01*
X84027500Y-91087742D02*
X84027500Y-91562258D01*
G36*
X93689925Y-107325087D02*
G01*
X93769300Y-107512412D01*
X93672463Y-107721962D01*
X93563719Y-107788638D01*
X93431163Y-107810862D01*
X93205737Y-107734662D01*
X93124775Y-107539400D01*
X93224787Y-107339375D01*
X93335516Y-107278653D01*
X93467675Y-107258413D01*
X93689925Y-107325087D01*
G37*
G36*
X93667700Y-108256950D02*
G01*
X93647856Y-108436338D01*
X93588325Y-108691925D01*
X93528794Y-108934416D01*
X93508950Y-109074513D01*
X93543875Y-109163413D01*
X93670875Y-109131663D01*
X93699450Y-109118963D01*
X93756600Y-109277713D01*
X93635553Y-109355500D01*
X93488312Y-109423763D01*
X93335516Y-109471387D01*
X93197800Y-109487263D01*
X92993012Y-109414238D01*
X92918400Y-109203100D01*
X92937847Y-109028475D01*
X92996187Y-108780825D01*
X93054528Y-108548653D01*
X93073975Y-108420463D01*
X92991425Y-108198213D01*
X92966025Y-108163287D01*
X92975550Y-108109312D01*
X93120189Y-108081090D01*
X93333972Y-108064157D01*
X93616900Y-108058512D01*
X93667700Y-108256950D01*
G37*
G36*
X91823025Y-107283812D02*
G01*
X91813004Y-107423612D01*
X91782941Y-107627109D01*
X91732835Y-107894305D01*
X91662687Y-108225200D01*
X91592540Y-108549546D01*
X91542434Y-108797097D01*
X91512371Y-108967852D01*
X91502350Y-109061812D01*
X91540450Y-109172937D01*
X91676975Y-109131663D01*
X91711900Y-109115788D01*
X91788100Y-109271362D01*
X91670625Y-109353912D01*
X91521400Y-109423763D01*
X91363841Y-109471387D01*
X91221362Y-109487263D01*
X91000700Y-109409475D01*
X90914975Y-109185638D01*
X90924996Y-109079970D01*
X90955059Y-108909016D01*
X91005165Y-108672776D01*
X91075312Y-108371250D01*
X91145460Y-108058612D01*
X91195566Y-107789034D01*
X91225629Y-107562518D01*
X91235650Y-107379062D01*
X91216600Y-107201262D01*
X91413450Y-107155401D01*
X91606067Y-107127885D01*
X91794450Y-107118712D01*
X91823025Y-107283812D01*
G37*
G36*
X90566916Y-108069228D02*
G01*
X90738762Y-108149000D01*
X90849491Y-108273222D01*
X90886400Y-108433163D01*
X90807025Y-108664937D01*
X90613350Y-108820513D01*
X90387925Y-108907031D01*
X90194250Y-108950688D01*
X90114875Y-108960212D01*
X90184725Y-109117375D01*
X90324425Y-109169762D01*
X90492700Y-109136425D01*
X90638750Y-109068163D01*
X90692725Y-109036412D01*
X90794325Y-109172937D01*
X90759400Y-109207862D01*
X90668912Y-109282475D01*
X90519687Y-109379313D01*
X90321250Y-109453925D01*
X90102175Y-109484192D01*
X90079950Y-109487263D01*
X89840634Y-109447972D01*
X89662437Y-109330100D01*
X89551709Y-109137616D01*
X89514800Y-108874487D01*
X89528369Y-108750662D01*
X90102175Y-108750662D01*
X90286325Y-108599850D01*
X90378400Y-108368075D01*
X90324425Y-108274412D01*
X90178375Y-108398238D01*
X90125987Y-108548256D01*
X90102175Y-108750662D01*
X89528369Y-108750662D01*
X89541435Y-108631424D01*
X89621339Y-108427165D01*
X89754512Y-108261712D01*
X89926844Y-108140004D01*
X90124224Y-108066979D01*
X90346650Y-108042638D01*
X90566916Y-108069228D01*
G37*
G36*
X94698781Y-108061291D02*
G01*
X94832925Y-108117250D01*
X94918650Y-108210119D01*
X94947225Y-108339500D01*
X94903569Y-108497853D01*
X94772600Y-108677637D01*
X94894044Y-108857025D01*
X94934525Y-109020537D01*
X94888884Y-109201909D01*
X94751962Y-109352325D01*
X94639250Y-109409924D01*
X94553922Y-109453528D01*
X94324925Y-109487263D01*
X94102278Y-109466625D01*
X93923288Y-109404713D01*
X93766125Y-109247550D01*
X93862962Y-109057050D01*
X94061400Y-108922112D01*
X94200306Y-109049906D01*
X94324925Y-109274538D01*
X94417000Y-109214213D01*
X94391600Y-109131663D01*
X94353500Y-109071337D01*
X94309050Y-109009425D01*
X94261425Y-108950688D01*
X94118550Y-108776062D01*
X94004250Y-108597072D01*
X93966150Y-108441100D01*
X93985344Y-108331562D01*
X94502725Y-108331562D01*
X94639250Y-108528412D01*
X94721800Y-108437925D01*
X94759900Y-108331562D01*
X94718625Y-108258538D01*
X94620200Y-108233137D01*
X94532888Y-108260125D01*
X94502725Y-108331562D01*
X93985344Y-108331562D01*
X93989169Y-108309734D01*
X94058225Y-108204563D01*
X94180639Y-108114604D01*
X94336214Y-108060629D01*
X94524950Y-108042638D01*
X94698781Y-108061291D01*
G37*
G36*
X87043063Y-108065656D02*
G01*
X87212925Y-108134713D01*
X87254200Y-108052162D01*
X87494706Y-108079944D01*
X87759025Y-108163287D01*
X87697113Y-108389109D01*
X87644725Y-108653825D01*
X87609006Y-108895125D01*
X87597100Y-109050700D01*
X87632025Y-109163413D01*
X87790775Y-109118963D01*
X87847925Y-109277713D01*
X87732434Y-109353516D01*
X87589163Y-109422175D01*
X87441128Y-109470991D01*
X87311350Y-109487263D01*
X87143075Y-109442812D01*
X87051000Y-109309463D01*
X86908125Y-109390145D01*
X86814859Y-109442812D01*
X86608088Y-109487263D01*
X86437828Y-109452338D01*
X86311225Y-109347563D01*
X86232644Y-109177700D01*
X86206450Y-108947512D01*
X86209986Y-108907825D01*
X86803350Y-108907825D01*
X86825575Y-109109437D01*
X86908125Y-109150713D01*
X87025600Y-109103088D01*
X87044650Y-108853674D01*
X87084867Y-108596499D01*
X87146250Y-108331562D01*
X87036712Y-108302988D01*
X86925588Y-108372837D01*
X86850975Y-108547463D01*
X86815256Y-108737566D01*
X86803350Y-108907825D01*
X86209986Y-108907825D01*
X86226911Y-108717854D01*
X86288294Y-108507246D01*
X86390600Y-108315688D01*
X86526419Y-108163993D01*
X86688344Y-108072976D01*
X86876375Y-108042638D01*
X87043063Y-108065656D01*
G37*
G36*
X92878316Y-107142922D02*
G01*
X92989838Y-107206025D01*
X93064847Y-107304450D01*
X93089850Y-107431450D01*
X93057306Y-107583453D01*
X92959675Y-107756887D01*
X92816006Y-107929925D01*
X92654875Y-108072320D01*
X92645350Y-108080738D01*
X92966025Y-108080738D01*
X92915225Y-108325212D01*
X92635825Y-108302988D01*
X92617271Y-108568298D01*
X92590184Y-108827656D01*
X92554565Y-109081061D01*
X92510412Y-109328513D01*
X92446031Y-109613910D01*
X92382001Y-109818168D01*
X92318325Y-109941288D01*
X92161956Y-109930572D01*
X92010350Y-109904775D01*
X91807150Y-109839688D01*
X91879822Y-109580925D01*
X91936972Y-109346504D01*
X91978600Y-109136425D01*
X92004000Y-108973805D01*
X92029400Y-108782809D01*
X92054800Y-108563437D01*
X92080200Y-108315688D01*
X91870650Y-108337912D01*
X91857950Y-108215675D01*
X91873825Y-108080738D01*
X92102425Y-108080738D01*
X92134932Y-107826737D01*
X92654875Y-107826737D01*
X92755284Y-107733472D01*
X92834263Y-107631475D01*
X92902525Y-107442562D01*
X92823150Y-107360012D01*
X92745186Y-107411871D01*
X92689094Y-107567446D01*
X92654875Y-107826737D01*
X92134932Y-107826737D01*
X92138408Y-107799574D01*
X92182858Y-107586849D01*
X92235775Y-107442562D01*
X92358012Y-107263175D01*
X92502475Y-107163162D01*
X92743775Y-107121888D01*
X92878316Y-107142922D01*
G37*
G36*
X88838525Y-107252062D02*
G01*
X88828802Y-107395334D01*
X88799631Y-107593375D01*
X88751014Y-107846184D01*
X88682950Y-108153763D01*
X88859956Y-108070419D01*
X89022675Y-108042638D01*
X89168725Y-108075181D01*
X89295725Y-108172813D01*
X89383831Y-108356566D01*
X89413200Y-108647475D01*
X89392210Y-108866374D01*
X89329239Y-109063753D01*
X89224288Y-109239613D01*
X89088644Y-109377196D01*
X88933599Y-109459746D01*
X88759150Y-109487263D01*
X88594844Y-109465037D01*
X88571825Y-109455605D01*
X88432125Y-109398363D01*
X88231394Y-109440696D01*
X88052536Y-109466096D01*
X87895550Y-109474563D01*
X87879675Y-109366613D01*
X87891284Y-109217586D01*
X87896452Y-109185638D01*
X88467050Y-109185638D01*
X88571825Y-109214213D01*
X88669853Y-109156269D01*
X88748038Y-108982438D01*
X88799234Y-108759791D01*
X88816300Y-108555400D01*
X88797250Y-108408953D01*
X88740100Y-108360138D01*
X88625800Y-108395063D01*
X88564681Y-108664739D01*
X88517850Y-108886394D01*
X88485306Y-109060027D01*
X88467050Y-109185638D01*
X87896452Y-109185638D01*
X87926109Y-109002281D01*
X87984152Y-108720698D01*
X88065412Y-108372837D01*
X88146673Y-108022397D01*
X88204716Y-107733075D01*
X88239541Y-107504872D01*
X88251150Y-107337787D01*
X88244800Y-107204437D01*
X88445531Y-107156813D01*
X88637089Y-107128237D01*
X88819475Y-107118712D01*
X88838525Y-107252062D01*
G37*
G36*
X96033075Y-107286987D02*
G01*
X96022955Y-107427481D01*
X95992594Y-107626713D01*
X95941992Y-107884681D01*
X95871150Y-108201387D01*
X96115228Y-108084706D01*
X96301363Y-108045812D01*
X96438284Y-108066847D01*
X96534725Y-108129950D01*
X96610925Y-108339500D01*
X96593463Y-108500631D01*
X96541075Y-108733200D01*
X96488688Y-108955053D01*
X96471225Y-109084037D01*
X96496625Y-109166588D01*
X96661725Y-109122137D01*
X96718875Y-109280888D01*
X96601797Y-109352325D01*
X96447413Y-109420588D01*
X96284297Y-109470594D01*
X96141025Y-109487263D01*
X95998150Y-109454807D01*
X95912425Y-109357440D01*
X95883850Y-109195162D01*
X95900519Y-109030063D01*
X95950525Y-108801462D01*
X96000531Y-108589134D01*
X96017200Y-108472850D01*
X95969575Y-108404587D01*
X95807650Y-108468088D01*
X95745142Y-108748281D01*
X95700494Y-108982437D01*
X95673705Y-109170556D01*
X95664775Y-109312638D01*
X95667950Y-109388838D01*
X95459458Y-109436463D01*
X95265783Y-109465038D01*
X95086925Y-109474563D01*
X95067875Y-109372963D01*
X95079682Y-109238223D01*
X95115103Y-109030856D01*
X95174138Y-108750861D01*
X95256787Y-108398238D01*
X95324796Y-108107408D01*
X95377692Y-107857217D01*
X95415474Y-107647668D01*
X95438143Y-107478757D01*
X95445700Y-107350487D01*
X95433000Y-107204437D01*
X95634083Y-107156813D01*
X95826700Y-107128237D01*
X96010850Y-107118712D01*
X96033075Y-107286987D01*
G37*
G36*
X85589992Y-107214852D02*
G01*
X85806908Y-107274668D01*
X85961848Y-107374363D01*
X86054812Y-107513936D01*
X86085800Y-107693387D01*
X86046509Y-107903731D01*
X85928637Y-108071212D01*
X85752822Y-108193450D01*
X85539700Y-108268062D01*
X85741312Y-108320053D01*
X85908000Y-108425225D01*
X86019919Y-108584372D01*
X86057225Y-108798287D01*
X86032531Y-108985789D01*
X85958447Y-109150360D01*
X85834975Y-109292000D01*
X85673756Y-109400479D01*
X85486431Y-109465567D01*
X85273000Y-109487263D01*
X85123775Y-109474205D01*
X85069800Y-109469482D01*
X85019000Y-109465037D01*
X84765000Y-109398363D01*
X84566562Y-109450750D01*
X84339550Y-109468212D01*
X84241125Y-109461863D01*
X84252039Y-109331688D01*
X84278025Y-109172937D01*
X84879300Y-109172937D01*
X85069800Y-109214213D01*
X85123775Y-109201450D01*
X85230931Y-109176113D01*
X85346025Y-109061812D01*
X85415081Y-108899491D01*
X85438100Y-108717325D01*
X85421034Y-108554606D01*
X85369837Y-108450625D01*
X85165050Y-108376013D01*
X85123775Y-108379108D01*
X85038050Y-108385537D01*
X84981694Y-108638347D01*
X84936450Y-108853850D01*
X84902319Y-109032047D01*
X84879300Y-109172937D01*
X84278025Y-109172937D01*
X84284781Y-109131662D01*
X84339352Y-108861788D01*
X84415750Y-108522063D01*
X84492148Y-108188092D01*
X84501622Y-108144237D01*
X85095200Y-108144237D01*
X85123775Y-108144237D01*
X85248394Y-108118044D01*
X85342850Y-108039462D01*
X85450006Y-107848566D01*
X85485725Y-107637825D01*
X85447625Y-107472328D01*
X85333325Y-107417162D01*
X85228550Y-107429862D01*
X85212322Y-107564271D01*
X85167872Y-107802396D01*
X85095200Y-108144237D01*
X84501622Y-108144237D01*
X84546719Y-107935481D01*
X84579461Y-107764230D01*
X84590375Y-107674337D01*
X84553862Y-107499712D01*
X84479250Y-107385413D01*
X84444325Y-107350487D01*
X84457025Y-107271113D01*
X84588391Y-107251666D01*
X84823737Y-107225075D01*
X85089247Y-107202453D01*
X85311100Y-107194913D01*
X85589992Y-107214852D01*
G37*
X117260000Y-86672164D02*
X117260000Y-86887836D01*
X116540000Y-86672164D02*
X116540000Y-86887836D01*
X96060677Y-80609974D02*
X97860677Y-80609974D01*
X96060677Y-80609974D02*
X95260677Y-80609974D01*
X96060677Y-77489974D02*
X96860677Y-77489974D01*
X96060677Y-77489974D02*
X95260677Y-77489974D01*
X86965000Y-95872500D02*
X88435000Y-95872500D01*
X88435000Y-95872500D02*
X88435000Y-93587500D01*
X86965000Y-93587500D02*
X86965000Y-95872500D01*
X87773241Y-101963200D02*
X87465959Y-101963200D01*
X87773241Y-101203200D02*
X87465959Y-101203200D01*
X126780000Y-100636359D02*
X126780000Y-100943641D01*
X126020000Y-100636359D02*
X126020000Y-100943641D01*
X104272164Y-110668830D02*
X104487836Y-110668830D01*
X104272164Y-111388830D02*
X104487836Y-111388830D01*
X117472164Y-89240000D02*
X117687836Y-89240000D01*
X117472164Y-89960000D02*
X117687836Y-89960000D01*
D14*
X123269750Y-82799988D02*
X123373891Y-82799988D01*
X123269750Y-86099937D02*
X123269750Y-82799988D01*
X123269750Y-86099937D02*
X123373891Y-86099937D01*
X126166118Y-82799988D02*
X126269750Y-82799988D01*
X126166118Y-86099937D02*
X126269750Y-86099937D01*
X126269750Y-86099937D02*
X126269750Y-82799988D01*
D17*
X123300078Y-85949924D02*
G75*
G03*
X123300078Y-85949924I-29972J0D01*
G01*
D14*
X123945239Y-86549873D02*
G75*
G03*
X123945239Y-86549873I-165100J0D01*
G01*
D15*
X123772164Y-101240000D02*
X123987836Y-101240000D01*
X123772164Y-101960000D02*
X123987836Y-101960000D01*
X114145500Y-83362559D02*
X114145500Y-83669841D01*
X113385500Y-83362559D02*
X113385500Y-83669841D01*
X85524800Y-104272500D02*
X85524800Y-106072500D01*
X85524800Y-104272500D02*
X85524800Y-103472500D01*
X88644800Y-104272500D02*
X88644800Y-105072500D01*
X88644800Y-104272500D02*
X88644800Y-103472500D01*
X108415500Y-92536500D02*
X108415500Y-91886500D01*
X109065500Y-85316500D02*
X108415500Y-85316500D01*
X109065500Y-92536500D02*
X108415500Y-92536500D01*
X114985500Y-85316500D02*
X115635500Y-85316500D01*
X114985500Y-92536500D02*
X115635500Y-92536500D01*
X115635500Y-85316500D02*
X115635500Y-85966500D01*
X115635500Y-92536500D02*
X115635500Y-91886500D01*
X86950959Y-106505000D02*
X87258241Y-106505000D01*
X86950959Y-107265000D02*
X87258241Y-107265000D01*
X123772164Y-95740000D02*
X123987836Y-95740000D01*
X123772164Y-96460000D02*
X123987836Y-96460000D01*
X112738868Y-95437862D02*
X112431586Y-95437862D01*
X112738868Y-94677862D02*
X112431586Y-94677862D01*
X86622500Y-91087742D02*
X86622500Y-91562258D01*
X85577500Y-91087742D02*
X85577500Y-91562258D01*
X112919141Y-78780000D02*
X112611859Y-78780000D01*
X112919141Y-78020000D02*
X112611859Y-78020000D01*
X123029979Y-83422215D02*
X123029979Y-83637887D01*
X122309979Y-83422215D02*
X122309979Y-83637887D01*
X106689600Y-85656036D02*
X106689600Y-85440364D01*
X107409600Y-85656036D02*
X107409600Y-85440364D01*
X126733620Y-87710051D02*
X126426338Y-87710051D01*
X126733620Y-86950051D02*
X126426338Y-86950051D01*
X113195400Y-83362559D02*
X113195400Y-83669841D01*
X112435400Y-83362559D02*
X112435400Y-83669841D01*
X88222500Y-91087742D02*
X88222500Y-91562258D01*
X87177500Y-91087742D02*
X87177500Y-91562258D01*
X119706359Y-101370000D02*
X120013641Y-101370000D01*
X119706359Y-102130000D02*
X120013641Y-102130000D01*
X113865227Y-96035698D02*
X113865227Y-95820026D01*
X114585227Y-96035698D02*
X114585227Y-95820026D01*
X91043641Y-94180000D02*
X90736359Y-94180000D01*
X91043641Y-93420000D02*
X90736359Y-93420000D01*
X88774000Y-97600000D02*
X88774000Y-99400000D01*
X88774000Y-97600000D02*
X88774000Y-96800000D01*
X91894000Y-97600000D02*
X91894000Y-98400000D01*
X91894000Y-97600000D02*
X91894000Y-96800000D01*
X93749577Y-78406333D02*
X93749577Y-78713615D01*
X92989577Y-78406333D02*
X92989577Y-78713615D01*
X90193559Y-99832500D02*
X90500841Y-99832500D01*
X90193559Y-100592500D02*
X90500841Y-100592500D01*
X122085000Y-79188748D02*
X122085000Y-79711252D01*
X120615000Y-79188748D02*
X120615000Y-79711252D01*
X113625151Y-96422830D02*
X113625151Y-95612830D01*
X113625151Y-95612830D02*
X112975151Y-95612830D01*
D12*
X109643147Y-97232957D02*
X109643147Y-95581954D01*
X109643147Y-95581954D02*
X109643147Y-95581954D01*
X99428778Y-105043003D02*
X109481204Y-105043003D01*
X99428778Y-108085827D02*
X99428778Y-105043003D01*
X109481204Y-105043003D02*
X109481204Y-108085827D01*
X109481204Y-108085827D02*
X99428778Y-108085827D01*
D13*
X99398095Y-109231420D02*
G75*
G03*
X99398095Y-109231420I-150114J0D01*
G01*
D17*
X99535001Y-109564415D02*
G75*
G03*
X99535001Y-109564415I-29972J0D01*
G01*
D13*
X100160096Y-107333529D02*
G75*
G03*
X100160096Y-107333529I-150114J0D01*
G01*
D15*
X120865000Y-99511252D02*
X120865000Y-98988748D01*
X122335000Y-99511252D02*
X122335000Y-98988748D01*
X100372164Y-110668830D02*
X100587836Y-110668830D01*
X100372164Y-111388830D02*
X100587836Y-111388830D01*
X110487391Y-94697798D02*
X110703063Y-94697798D01*
X110487391Y-95417798D02*
X110703063Y-95417798D01*
X110565500Y-82526836D02*
X110565500Y-82311164D01*
X111285500Y-82526836D02*
X111285500Y-82311164D01*
X105673600Y-85656036D02*
X105673600Y-85440364D01*
X106393600Y-85656036D02*
X106393600Y-85440364D01*
X128135000Y-77888748D02*
X128135000Y-78411252D01*
X126665000Y-77888748D02*
X126665000Y-78411252D01*
X99060000Y-104640994D02*
X99060000Y-104856666D01*
X98340000Y-104640994D02*
X98340000Y-104856666D01*
X114345500Y-83857836D02*
X114345500Y-83642164D01*
X115065500Y-83857836D02*
X115065500Y-83642164D01*
X124813620Y-87710051D02*
X124506338Y-87710051D01*
X124813620Y-86950051D02*
X124506338Y-86950051D01*
X103211252Y-86735000D02*
X102688748Y-86735000D01*
X103211252Y-85265000D02*
X102688748Y-85265000D01*
X90569241Y-88878200D02*
X90261959Y-88878200D01*
X90569241Y-88118200D02*
X90261959Y-88118200D01*
X117554141Y-92467800D02*
X117246859Y-92467800D01*
X117554141Y-91707800D02*
X117246859Y-91707800D01*
X103461000Y-81754800D02*
X103721000Y-81754800D01*
X103721000Y-81754800D02*
X103721000Y-83429800D01*
X108911000Y-81754800D02*
X108651000Y-81754800D01*
X103461000Y-79029800D02*
X103461000Y-81754800D01*
X103461000Y-79029800D02*
X103461000Y-76304800D01*
X108911000Y-79029800D02*
X108911000Y-81754800D01*
X108911000Y-79029800D02*
X108911000Y-76304800D01*
X103461000Y-76304800D02*
X103721000Y-76304800D01*
X108911000Y-76304800D02*
X108651000Y-76304800D01*
D12*
X91458852Y-70673800D02*
X91458852Y-71366789D01*
X91458852Y-73826200D02*
X91458852Y-73133211D01*
X95611252Y-70673800D02*
X91458852Y-70673800D01*
X95611252Y-70673800D02*
X95611252Y-71366789D01*
X95611252Y-73826200D02*
X91458852Y-73826200D01*
X95611252Y-73826200D02*
X95611252Y-73133211D01*
D17*
X91065049Y-73700013D02*
G75*
G03*
X91065049Y-73700013I-29997J0D01*
G01*
D14*
X94348362Y-72250000D02*
G75*
G03*
X94348362Y-72250000I-813310J0D01*
G01*
D12*
X91458852Y-73923800D02*
X91458852Y-74616789D01*
X91458852Y-77076200D02*
X91458852Y-76383211D01*
X95611252Y-73923800D02*
X91458852Y-73923800D01*
X95611252Y-73923800D02*
X95611252Y-74616789D01*
X95611252Y-77076200D02*
X91458852Y-77076200D01*
X95611252Y-77076200D02*
X95611252Y-76383211D01*
D17*
X91065049Y-76950013D02*
G75*
G03*
X91065049Y-76950013I-29997J0D01*
G01*
D14*
X94348362Y-75500000D02*
G75*
G03*
X94348362Y-75500000I-813310J0D01*
G01*
G36*
X97203242Y-75361304D02*
G01*
X97007502Y-75361304D01*
X96577490Y-74029653D01*
X96771689Y-74029653D01*
X97203242Y-75361304D01*
G37*
G36*
X96745694Y-77342029D02*
G01*
X96551244Y-77342029D01*
X96976603Y-76029493D01*
X97168014Y-76029493D01*
X96745694Y-77342029D01*
G37*
G36*
X97973873Y-75361304D02*
G01*
X97778133Y-75361304D01*
X97348121Y-74029653D01*
X97542320Y-74029653D01*
X97973873Y-75361304D01*
G37*
G36*
X97505263Y-77342029D02*
G01*
X97310814Y-77342029D01*
X97736172Y-76029493D01*
X97927584Y-76029493D01*
X97505263Y-77342029D01*
G37*
G36*
X98690192Y-77342029D02*
G01*
X98497261Y-77342029D01*
X98073421Y-76029493D01*
X98264833Y-76029493D01*
X98690192Y-77342029D01*
G37*
G36*
X98312951Y-75361304D02*
G01*
X98115669Y-75361304D01*
X98547223Y-74029653D01*
X98741422Y-74029653D01*
X98312951Y-75361304D01*
G37*
G36*
X99505969Y-77342029D02*
G01*
X98770706Y-77342029D01*
X98770706Y-77179481D01*
X99505969Y-77179481D01*
X99505969Y-77342029D01*
G37*
G36*
X99640312Y-73380687D02*
G01*
X98883317Y-73380687D01*
X98883317Y-73213335D01*
X99640312Y-73213335D01*
X99640312Y-73380687D01*
G37*
G36*
X100265538Y-77342029D02*
G01*
X99530275Y-77342029D01*
X99530275Y-77179481D01*
X100265538Y-77179481D01*
X100265538Y-77342029D01*
G37*
G36*
X100364462Y-73380687D02*
G01*
X100165829Y-73380687D01*
X99729462Y-72029357D01*
X99926531Y-72029357D01*
X100364462Y-73380687D01*
G37*
G36*
X101025108Y-77342029D02*
G01*
X100289845Y-77342029D01*
X100289845Y-77179481D01*
X101025108Y-77179481D01*
X101025108Y-77342029D01*
G37*
G36*
X101204351Y-73380687D02*
G01*
X100447356Y-73380687D01*
X100447356Y-73213335D01*
X101204351Y-73213335D01*
X101204351Y-73380687D01*
G37*
G36*
X101736065Y-76621957D02*
G01*
X101098026Y-76621957D01*
X101098026Y-76467005D01*
X101736065Y-76467005D01*
X101736065Y-76621957D01*
G37*
G36*
X101736065Y-76918189D02*
G01*
X101098026Y-76918189D01*
X101098026Y-76763237D01*
X101736065Y-76763237D01*
X101736065Y-76918189D01*
G37*
G36*
X101827029Y-75361304D02*
G01*
X101631288Y-75361304D01*
X101201276Y-74029653D01*
X101395475Y-74029653D01*
X101827029Y-75361304D01*
G37*
G36*
X99179562Y-78157691D02*
G01*
X99175818Y-78239313D01*
X99165334Y-78329920D01*
X99151107Y-78422025D01*
X99136130Y-78506642D01*
X99028300Y-78506642D01*
X99013324Y-78422025D01*
X98999096Y-78329920D01*
X98987864Y-78239313D01*
X98983371Y-78157691D01*
X98983371Y-78058847D01*
X99179562Y-78058847D01*
X99179562Y-78157691D01*
G37*
G36*
X99928383Y-78157691D02*
G01*
X99924639Y-78239313D01*
X99914155Y-78329920D01*
X99899928Y-78422025D01*
X99884951Y-78506642D01*
X99777121Y-78506642D01*
X99762145Y-78422025D01*
X99747917Y-78329920D01*
X99736685Y-78239313D01*
X99732192Y-78157691D01*
X99732192Y-78058847D01*
X99928383Y-78058847D01*
X99928383Y-78157691D01*
G37*
G36*
X103149432Y-74885054D02*
G01*
X103191046Y-74985236D01*
X103149432Y-75088500D01*
X103053873Y-75123950D01*
X103001470Y-75114702D01*
X102957544Y-75087730D01*
X102926719Y-75044575D01*
X102915160Y-74985236D01*
X102926719Y-74927439D01*
X102957544Y-74885054D01*
X103001470Y-74858852D01*
X103053873Y-74849605D01*
X103149432Y-74885054D01*
G37*
G36*
X100814227Y-74370850D02*
G01*
X100879923Y-74391079D01*
X100938106Y-74423831D01*
X100987811Y-74468142D01*
X101028077Y-74523243D01*
X101057939Y-74588361D01*
X101076434Y-74662149D01*
X101082599Y-74743258D01*
X101076434Y-74825523D01*
X101057939Y-74899696D01*
X101028270Y-74965007D01*
X100988582Y-75020685D01*
X100939454Y-75065767D01*
X100881464Y-75099289D01*
X100815383Y-75120096D01*
X100741980Y-75127032D01*
X100738898Y-75126741D01*
X100668578Y-75120096D01*
X100602496Y-75099289D01*
X100544313Y-75065767D01*
X100494608Y-75020685D01*
X100454342Y-74965007D01*
X100424480Y-74899696D01*
X100405985Y-74825523D01*
X100399935Y-74744799D01*
X100592478Y-74744799D01*
X100601147Y-74832651D01*
X100627156Y-74902008D01*
X100672431Y-74947090D01*
X100738898Y-74962117D01*
X100803823Y-74947090D01*
X100850639Y-74902008D01*
X100878960Y-74832651D01*
X100888400Y-74744799D01*
X100879730Y-74657140D01*
X100853722Y-74588361D01*
X100808447Y-74543857D01*
X100741980Y-74529022D01*
X100677054Y-74543857D01*
X100630239Y-74588361D01*
X100601918Y-74657140D01*
X100592478Y-74744799D01*
X100399935Y-74744799D01*
X100399820Y-74743258D01*
X100406178Y-74662149D01*
X100425251Y-74588361D01*
X100455691Y-74523243D01*
X100496149Y-74468142D01*
X100546047Y-74423831D01*
X100604808Y-74391079D01*
X100670697Y-74370850D01*
X100741980Y-74364107D01*
X100814227Y-74370850D01*
G37*
G36*
X103401267Y-70147734D02*
G01*
X103489109Y-70190861D01*
X103558606Y-70262739D01*
X103598194Y-70335219D01*
X103626471Y-70423275D01*
X103643438Y-70526909D01*
X103649093Y-70646121D01*
X103643339Y-70765332D01*
X103626075Y-70868966D01*
X103597301Y-70957023D01*
X103557018Y-71029502D01*
X103487168Y-71101380D01*
X103400385Y-71144507D01*
X103296668Y-71158883D01*
X103295081Y-71158668D01*
X103190394Y-71144507D01*
X103102288Y-71101380D01*
X103032350Y-71029502D01*
X102992414Y-70957023D01*
X102963889Y-70868966D01*
X102946773Y-70765332D01*
X102941068Y-70646121D01*
X103139506Y-70646121D01*
X103140895Y-70715375D01*
X103145062Y-70780264D01*
X103167287Y-70889008D01*
X103214118Y-70962033D01*
X103295081Y-70989021D01*
X103375250Y-70962033D01*
X103422875Y-70888214D01*
X103445100Y-70779471D01*
X103449267Y-70715177D01*
X103450656Y-70646121D01*
X103449267Y-70576866D01*
X103445100Y-70511977D01*
X103422875Y-70403233D01*
X103376043Y-70330208D01*
X103295081Y-70303221D01*
X103214118Y-70330208D01*
X103167287Y-70404027D01*
X103145062Y-70512771D01*
X103140895Y-70577064D01*
X103139506Y-70646121D01*
X102941068Y-70646121D01*
X102946922Y-70526909D01*
X102964484Y-70423275D01*
X102993754Y-70335219D01*
X103034731Y-70262739D01*
X103105286Y-70190861D01*
X103192070Y-70147734D01*
X103295081Y-70133358D01*
X103401267Y-70147734D01*
G37*
G36*
X104028811Y-72375596D02*
G01*
X104095478Y-72396124D01*
X104154521Y-72429360D01*
X104204961Y-72474326D01*
X104245821Y-72530241D01*
X104276125Y-72596321D01*
X104294893Y-72671200D01*
X104301149Y-72753507D01*
X104294893Y-72836988D01*
X104276125Y-72912257D01*
X104246017Y-72978534D01*
X104205743Y-73035034D01*
X104155889Y-73080783D01*
X104097042Y-73114800D01*
X104029984Y-73135915D01*
X103955497Y-73142953D01*
X103952368Y-73142658D01*
X103881009Y-73135915D01*
X103813951Y-73114800D01*
X103754908Y-73080783D01*
X103704468Y-73035034D01*
X103663608Y-72978534D01*
X103633304Y-72912257D01*
X103614536Y-72836988D01*
X103608397Y-72755071D01*
X103803785Y-72755071D01*
X103812582Y-72844222D01*
X103838976Y-72914603D01*
X103884919Y-72960352D01*
X103952368Y-72975601D01*
X104018254Y-72960352D01*
X104065761Y-72914603D01*
X104094501Y-72844222D01*
X104104080Y-72755071D01*
X104095283Y-72666117D01*
X104068889Y-72596321D01*
X104022946Y-72551160D01*
X103955497Y-72536106D01*
X103889611Y-72551160D01*
X103842104Y-72596321D01*
X103813364Y-72666117D01*
X103803785Y-72755071D01*
X103608397Y-72755071D01*
X103608280Y-72753507D01*
X103614731Y-72671200D01*
X103634086Y-72596321D01*
X103664976Y-72530241D01*
X103706032Y-72474326D01*
X103756668Y-72429360D01*
X103816297Y-72396124D01*
X103883160Y-72375596D01*
X103955497Y-72368754D01*
X104028811Y-72375596D01*
G37*
G36*
X105752332Y-70380016D02*
G01*
X105820000Y-70400852D01*
X105879928Y-70434586D01*
X105931125Y-70480227D01*
X105972598Y-70536980D01*
X106003356Y-70604052D01*
X106022406Y-70680053D01*
X106028756Y-70763596D01*
X106022406Y-70848328D01*
X106003356Y-70924727D01*
X105972796Y-70991997D01*
X105931918Y-71049346D01*
X105881317Y-71095780D01*
X105821587Y-71130308D01*
X105753523Y-71151739D01*
X105677918Y-71158883D01*
X105674743Y-71158583D01*
X105602314Y-71151739D01*
X105534250Y-71130308D01*
X105474321Y-71095780D01*
X105423125Y-71049346D01*
X105381651Y-70991997D01*
X105350893Y-70924727D01*
X105331843Y-70848328D01*
X105325612Y-70765183D01*
X105523931Y-70765183D01*
X105532861Y-70855671D01*
X105559650Y-70927108D01*
X105606282Y-70973543D01*
X105674743Y-70989021D01*
X105741617Y-70973543D01*
X105789837Y-70927108D01*
X105819007Y-70855671D01*
X105828731Y-70765183D01*
X105819801Y-70674894D01*
X105793012Y-70604052D01*
X105746379Y-70558213D01*
X105677918Y-70542933D01*
X105611045Y-70558213D01*
X105562825Y-70604052D01*
X105533654Y-70674894D01*
X105523931Y-70765183D01*
X105325612Y-70765183D01*
X105325493Y-70763596D01*
X105332042Y-70680053D01*
X105351687Y-70604052D01*
X105383040Y-70536980D01*
X105424712Y-70480227D01*
X105476107Y-70434586D01*
X105536631Y-70400852D01*
X105604496Y-70380016D01*
X105677918Y-70373071D01*
X105752332Y-70380016D01*
G37*
D15*
X125742143Y-81690051D02*
X125957815Y-81690051D01*
X125742143Y-82410051D02*
X125957815Y-82410051D01*
D12*
X125211404Y-79736157D02*
X125211404Y-78694552D01*
X125211404Y-76663767D02*
X125211404Y-77705372D01*
X123459004Y-79736157D02*
X125211404Y-79736157D01*
X123459004Y-78655360D02*
X123459004Y-77744564D01*
X123459004Y-76663767D02*
X125211404Y-76663767D01*
D17*
X122965201Y-76739967D02*
G75*
G03*
X122965201Y-76739967I-29997J0D01*
G01*
D15*
X123997815Y-82410051D02*
X123782143Y-82410051D01*
X123997815Y-81690051D02*
X123782143Y-81690051D01*
X116786359Y-78020000D02*
X117093641Y-78020000D01*
X116786359Y-78780000D02*
X117093641Y-78780000D01*
X102857600Y-82986759D02*
X102857600Y-83294041D01*
X102097600Y-82986759D02*
X102097600Y-83294041D01*
X113047664Y-93729000D02*
X113263336Y-93729000D01*
X113047664Y-94449000D02*
X113263336Y-94449000D01*
X115560000Y-94461164D02*
X115560000Y-94676836D01*
X114840000Y-94461164D02*
X114840000Y-94676836D01*
%LPC*%
D18*
X93266655Y-81399796D03*
X93266655Y-82049784D03*
X93266655Y-82699771D03*
X93266655Y-83350012D03*
X93266655Y-84000000D03*
X93266655Y-84649987D03*
X93266655Y-85299974D03*
X93266655Y-85949962D03*
X98998177Y-85949962D03*
X98998177Y-85299974D03*
X98998177Y-84649987D03*
X98998177Y-84000000D03*
X98998177Y-83350012D03*
X98998177Y-82699771D03*
X98998177Y-82049784D03*
X98998177Y-81399796D03*
X93298177Y-87999822D03*
X93298177Y-88649810D03*
X93298177Y-89299797D03*
X93298177Y-89950038D03*
X93298177Y-90600026D03*
X93298177Y-91250013D03*
X93298177Y-91900000D03*
X93298177Y-92549988D03*
X99029699Y-92549988D03*
X99029699Y-91900000D03*
X99029699Y-91250013D03*
X99029699Y-90600026D03*
X99029699Y-89950038D03*
X99029699Y-89299797D03*
X99029699Y-88649810D03*
X99029699Y-87999822D03*
X93298177Y-94599796D03*
X93298177Y-95249784D03*
X93298177Y-95899771D03*
X93298177Y-96550012D03*
X93298177Y-97200000D03*
X93298177Y-97849987D03*
X93298177Y-98499974D03*
X93298177Y-99149962D03*
X99029699Y-99149962D03*
X99029699Y-98499974D03*
X99029699Y-97849987D03*
X99029699Y-97200000D03*
X99029699Y-96550012D03*
X99029699Y-95899771D03*
X99029699Y-95249784D03*
X99029699Y-94599796D03*
X90100000Y-101524917D03*
X90100000Y-102174905D03*
X90100000Y-102824892D03*
X90100000Y-103475133D03*
X90100000Y-104125121D03*
X90100000Y-104775108D03*
X90100000Y-105425095D03*
X90100000Y-106075083D03*
X95831522Y-106075083D03*
X95831522Y-105425095D03*
X95831522Y-104775108D03*
X95831522Y-104125121D03*
X95831522Y-103475133D03*
X95831522Y-102824892D03*
X95831522Y-102174905D03*
X95831522Y-101524917D03*
D19*
X123400585Y-100200000D03*
X124349785Y-100200000D03*
X125300000Y-100200000D03*
X125300000Y-97600050D03*
X123400585Y-97600050D03*
D20*
X89384000Y-94927500D03*
X90404000Y-94927500D03*
D21*
X91330000Y-89971800D03*
X89430000Y-89971800D03*
X90380000Y-92246800D03*
D22*
X121600000Y-96700000D03*
X121600000Y-94800000D03*
D23*
X98671377Y-79546774D03*
X98671377Y-78526774D03*
D24*
X118700000Y-81450000D03*
X116800000Y-81450000D03*
D25*
X126500000Y-93000000D03*
D26*
X91260000Y-112100000D03*
D27*
X93800000Y-112100000D03*
X96340000Y-112100000D03*
D28*
X85750000Y-73000000D03*
D29*
X98700000Y-106368830D03*
X98700000Y-107328830D03*
D30*
X84550000Y-95175000D03*
X84550000Y-93600000D03*
D31*
X106675500Y-89439000D03*
X105715500Y-89439000D03*
D32*
X116850000Y-85350000D03*
X117810000Y-85350000D03*
D33*
X118200000Y-101750000D03*
X117180000Y-101750000D03*
D34*
X116200000Y-94100000D03*
X116200000Y-95120000D03*
D30*
X86100000Y-95175000D03*
X86100000Y-93600000D03*
D35*
X118605383Y-75669213D03*
X112815442Y-75669213D03*
D36*
X120025500Y-76169086D03*
X111385419Y-76169086D03*
D37*
X111385419Y-71989000D03*
X120025500Y-71989000D03*
D38*
X118905358Y-76789101D03*
X118105510Y-76789101D03*
D39*
X116955396Y-76789101D03*
X115955396Y-76789101D03*
X115455523Y-76789101D03*
X114455523Y-76789101D03*
D38*
X112505561Y-76789101D03*
X113305409Y-76789101D03*
D39*
X113955396Y-76789101D03*
X114955396Y-76789101D03*
X116455523Y-76789101D03*
X117455523Y-76789101D03*
D29*
X106000000Y-111028830D03*
X106000000Y-111988830D03*
D40*
X119350000Y-86900000D03*
X121250000Y-86900000D03*
D41*
X88340000Y-78570000D03*
D42*
X85800000Y-85040000D03*
D43*
X88340000Y-83710000D03*
X85800000Y-82440000D03*
X88340000Y-81170000D03*
X85800000Y-79900000D03*
D23*
X127069979Y-85730051D03*
X127069979Y-84710051D03*
D33*
X121920000Y-89500000D03*
X120900000Y-89500000D03*
X117910500Y-91122600D03*
X116890500Y-91122600D03*
D25*
X124750000Y-92000000D03*
D28*
X85750000Y-111250000D03*
D34*
X102477600Y-80722800D03*
X102477600Y-81742800D03*
D29*
X117900000Y-86300000D03*
X117900000Y-87260000D03*
D44*
X119050038Y-84820154D03*
X120949962Y-84820154D03*
X120000000Y-82350000D03*
D45*
X111875500Y-82900000D03*
X111875500Y-81940000D03*
D46*
X128999975Y-73542990D03*
X127000000Y-73543066D03*
X125000000Y-73543066D03*
D47*
X122849886Y-73543066D03*
X131150114Y-73543066D03*
D48*
X84550000Y-90500000D03*
X84550000Y-92150000D03*
D29*
X116900000Y-86300000D03*
X116900000Y-87260000D03*
D49*
X97198177Y-79999974D03*
X97198177Y-78099974D03*
X94923177Y-79049974D03*
D30*
X87700000Y-95175000D03*
X87700000Y-93600000D03*
D33*
X88129600Y-101583200D03*
X87109600Y-101583200D03*
D34*
X126400000Y-100280000D03*
X126400000Y-101300000D03*
D32*
X103900000Y-111028830D03*
X104860000Y-111028830D03*
X117100000Y-89600000D03*
X118060000Y-89600000D03*
D50*
X123780139Y-85849848D03*
X124440032Y-85850102D03*
X125099926Y-85850102D03*
X125760073Y-85850102D03*
X125760073Y-83050000D03*
X125099926Y-83050000D03*
X124440032Y-83050000D03*
X123780139Y-83050000D03*
D51*
X124769979Y-84450051D03*
D25*
X124750000Y-90000000D03*
D32*
X123400000Y-101600000D03*
X124360000Y-101600000D03*
D34*
X113765500Y-83006200D03*
X113765500Y-84026200D03*
D52*
X86134800Y-105410000D03*
X88034800Y-105410000D03*
X87084800Y-103135000D03*
D53*
X108588000Y-86326500D03*
X108588000Y-86726500D03*
X108588000Y-87126500D03*
X108588000Y-87526500D03*
X108588000Y-87926500D03*
X108588000Y-88326500D03*
X108588000Y-88726500D03*
X108588000Y-89126500D03*
X108588000Y-89526500D03*
X108588000Y-89926500D03*
X108588000Y-90326500D03*
X108588000Y-90726500D03*
X108588000Y-91126500D03*
X108588000Y-91526500D03*
D54*
X109425500Y-92364000D03*
X109825500Y-92364000D03*
X110225500Y-92364000D03*
X110625500Y-92364000D03*
X111025500Y-92364000D03*
X111425500Y-92364000D03*
X111825500Y-92364000D03*
X112225500Y-92364000D03*
X112625500Y-92364000D03*
X113025500Y-92364000D03*
X113425500Y-92364000D03*
X113825500Y-92364000D03*
X114225500Y-92364000D03*
X114625500Y-92364000D03*
D53*
X115463000Y-91526500D03*
X115463000Y-91126500D03*
X115463000Y-90726500D03*
X115463000Y-90326500D03*
X115463000Y-89926500D03*
X115463000Y-89526500D03*
X115463000Y-89126500D03*
X115463000Y-88726500D03*
X115463000Y-88326500D03*
X115463000Y-87926500D03*
X115463000Y-87526500D03*
X115463000Y-87126500D03*
X115463000Y-86726500D03*
X115463000Y-86326500D03*
D54*
X114625500Y-85489000D03*
X114225500Y-85489000D03*
X113825500Y-85489000D03*
X113425500Y-85489000D03*
X113025500Y-85489000D03*
X112625500Y-85489000D03*
X112225500Y-85489000D03*
X111825500Y-85489000D03*
X111425500Y-85489000D03*
X111025500Y-85489000D03*
X110625500Y-85489000D03*
X110225500Y-85489000D03*
X109825500Y-85489000D03*
X109425500Y-85489000D03*
D55*
X112025500Y-88926500D03*
D20*
X86594600Y-106885000D03*
X87614600Y-106885000D03*
D32*
X123400000Y-96100000D03*
X124360000Y-96100000D03*
D25*
X115300000Y-103740000D03*
X117800000Y-103740000D03*
X119800000Y-103740000D03*
X122300000Y-103740000D03*
D56*
X111800000Y-106450000D03*
X125800000Y-106450000D03*
D33*
X113095227Y-95057862D03*
X112075227Y-95057862D03*
D48*
X86100000Y-90500000D03*
X86100000Y-92150000D03*
D33*
X113275500Y-78400000D03*
X112255500Y-78400000D03*
D29*
X122669979Y-83050051D03*
X122669979Y-84010051D03*
D45*
X107049600Y-86028200D03*
X107049600Y-85068200D03*
D33*
X127089979Y-87330051D03*
X126069979Y-87330051D03*
D34*
X112815400Y-83006200D03*
X112815400Y-84026200D03*
D48*
X87700000Y-90500000D03*
X87700000Y-92150000D03*
D20*
X119350000Y-101750000D03*
X120370000Y-101750000D03*
D45*
X114225227Y-96407862D03*
X114225227Y-95447862D03*
D33*
X91400000Y-93800000D03*
X90380000Y-93800000D03*
D52*
X89384000Y-98737500D03*
X91284000Y-98737500D03*
X90334000Y-96462500D03*
D34*
X93369577Y-78049974D03*
X93369577Y-79069974D03*
D20*
X89837200Y-100212500D03*
X90857200Y-100212500D03*
D57*
X121350000Y-78500000D03*
X121350000Y-80400000D03*
D58*
X112775227Y-96357798D03*
X110575075Y-96357798D03*
X110575075Y-98107862D03*
X112775227Y-98107862D03*
D59*
X100009982Y-109300000D03*
X101279985Y-109300000D03*
X102549987Y-109300000D03*
X103819990Y-109300000D03*
X105089992Y-109300000D03*
X106359995Y-109300000D03*
X107629997Y-109300000D03*
X108900000Y-109300000D03*
X108900000Y-103828830D03*
X107629997Y-103828830D03*
X106359995Y-103828830D03*
X105089992Y-103828830D03*
X103819990Y-103828830D03*
X102549987Y-103828830D03*
X101279985Y-103828830D03*
X100009982Y-103828830D03*
D22*
X121600000Y-100200000D03*
X121600000Y-98300000D03*
D25*
X126500000Y-89000000D03*
D32*
X100000000Y-111028830D03*
X100960000Y-111028830D03*
X110115227Y-95057798D03*
X111075227Y-95057798D03*
D45*
X110925500Y-82899000D03*
X110925500Y-81939000D03*
X106033600Y-86028200D03*
X106033600Y-85068200D03*
D28*
X134750000Y-73000000D03*
D57*
X127400000Y-77200000D03*
X127400000Y-79100000D03*
D29*
X98700000Y-104268830D03*
X98700000Y-105228830D03*
D45*
X114705500Y-84230000D03*
X114705500Y-83270000D03*
D33*
X125169979Y-87330051D03*
X124149979Y-87330051D03*
D24*
X103900000Y-86000000D03*
X102000000Y-86000000D03*
D28*
X134750000Y-111250000D03*
D33*
X90925600Y-88498200D03*
X89905600Y-88498200D03*
X117910500Y-92087800D03*
X116890500Y-92087800D03*
D60*
X104281000Y-82629800D03*
X105551000Y-82629800D03*
X106821000Y-82629800D03*
X108091000Y-82629800D03*
X108091000Y-75429800D03*
X106821000Y-75429800D03*
X105551000Y-75429800D03*
X104281000Y-75429800D03*
D61*
X91500000Y-72250000D03*
X95570104Y-72250000D03*
X91500000Y-75500000D03*
X95570104Y-75500000D03*
D32*
X125369979Y-82050051D03*
X126329979Y-82050051D03*
D62*
X123100000Y-77250000D03*
X123100000Y-79149924D03*
X125570154Y-78199962D03*
D31*
X124369979Y-82050051D03*
X123409979Y-82050051D03*
D25*
X126500000Y-91000000D03*
D20*
X116430000Y-78400000D03*
X117450000Y-78400000D03*
D34*
X102477600Y-82630400D03*
X102477600Y-83650400D03*
D32*
X112675500Y-94089000D03*
X113635500Y-94089000D03*
D29*
X115200000Y-94089000D03*
X115200000Y-95049000D03*
D63*
X130160020Y-86600076D03*
D64*
X130160020Y-89360045D03*
X130160020Y-92120015D03*
X130160020Y-94879985D03*
X130160020Y-97639954D03*
X133000000Y-87980061D03*
X133000000Y-90740030D03*
X133000000Y-93500000D03*
X133000000Y-96259969D03*
D65*
X131579883Y-79619888D03*
X131579883Y-104619888D03*
%LPD*%
M02*
