M48
; DRILL file {KiCad 7.0.8} date 2023 October 01, Sunday 21:37:31
; FORMAT={-:-/ absolute / metric / decimal}
; #@! TF.CreationDate,2023-10-01T21:37:31-07:00
; #@! TF.GenerationSoftware,Kicad,Pcbnew,7.0.8
; #@! TF.FileFunction,Plated,1,4,PTH
FMAT,2
METRIC
; #@! TA.AperFunction,Plated,PTH,ViaDrill
T1C0.350
; #@! TA.AperFunction,Plated,PTH,ComponentDrill
T2C0.350
; #@! TA.AperFunction,Plated,PTH,ComponentDrill
T3C0.600
; #@! TA.AperFunction,Plated,PTH,ComponentDrill
T4C0.700
; #@! TA.AperFunction,Plated,PTH,ComponentDrill
T5C0.900
; #@! TA.AperFunction,Plated,PTH,ComponentDrill
T6C1.000
; #@! TA.AperFunction,Plated,PTH,ComponentDrill
T7C1.100
; #@! TA.AperFunction,Plated,PTH,ComponentDrill
T8C1.400
; #@! TA.AperFunction,Plated,PTH,ComponentDrill
T9C2.100
; #@! TA.AperFunction,Plated,PTH,ComponentDrill
T10C3.250
%
G90
G05
T1
X85.3Y-89.2
X85.3Y-98.1
X86.0Y-104.0
X86.3Y-99.5
X86.6Y-89.2
X86.9Y-98.1
X88.3Y-99.5
X89.4Y-96.0
X90.4Y-90.9
X91.3Y-94.7
X91.8Y-82.1
X91.8Y-102.3
X91.8Y-103.4
X91.826Y-104.35
X91.826Y-105.35
X91.9Y-88.4
X92.1Y-78.1
X92.6Y-93.2
X92.7Y-104.05
X93.3Y-93.825
X93.3Y-105.6
X93.6Y-70.7
X93.6Y-73.9
X93.9Y-102.85
X94.1Y-101.9
X94.1Y-105.0
X94.976Y-84.5
X95.0Y-85.6
X95.0Y-89.9
X95.0Y-95.5
X95.0Y-96.4
X95.0Y-97.4
X95.0Y-98.4
X95.026Y-90.8
X95.026Y-91.8
X95.5Y-100.6
X95.9Y-87.4
X96.3Y-91.4
X96.4Y-100.6
X96.5Y-98.0
X96.9Y-94.9
X97.1Y-84.6
X97.1Y-85.5
X97.2Y-96.0
X97.3Y-76.5
X97.3Y-91.4
X97.5Y-88.3
X98.1Y-102.1
X99.4Y-80.5
X100.0Y-105.8
X100.0Y-106.7
X100.3Y-102.3
X100.4Y-81.4
X100.9Y-95.3
X101.0Y-83.8
X101.2Y-87.4
X101.2Y-105.8
X101.3Y-89.4
X101.5Y-88.1
X102.179Y-89.421
X102.478Y-79.814
X102.5Y-84.6
X102.5Y-99.3
X103.3Y-92.4
X103.8Y-99.2
X104.3Y-73.9
X104.5Y-96.6
X105.0Y-84.8
X105.0Y-112.5
X105.025Y-86.039
X105.3Y-92.9
X105.3Y-93.8
X105.7Y-90.3
X105.8Y-98.4
X106.884Y-99.8
X106.9Y-87.0
X107.1Y-81.3
X107.2Y-111.724
X107.5Y-89.8
X108.3Y-101.5
X108.5Y-85.4
X108.5Y-111.2
X110.59Y-102.05
X110.8Y-93.41
X110.925Y-81.025
X110.925Y-83.589
X111.3Y-78.4
X111.4Y-101.47
X111.6Y-91.3
X111.875Y-81.025
X111.875Y-83.789
X113.425Y-79.175
X114.4Y-91.177
X115.2Y-96.1
X115.225Y-82.3
X115.425Y-84.189
X115.5Y-92.4
X116.05Y-101.75
X116.2Y-96.1
X116.8Y-80.1
X116.8Y-88.8
X116.9Y-83.75
X116.9Y-88.0
X117.5Y-93.3
X117.7Y-88.8
X117.8Y-79.55
X117.85Y-84.45
X117.9Y-88.0
X118.35Y-78.2
X118.9Y-89.6
X119.7Y-88.3
X119.8Y-83.65
X120.0Y-89.4
X120.1Y-98.9
X120.1Y-100.7
X120.4Y-96.7
X120.5Y-88.3
X121.3Y-81.8
X121.3Y-88.3
X121.4Y-83.3
X121.6Y-93.7
X123.1Y-76.3
X123.37Y-87.33
X123.57Y-80.93
X123.979Y-95.121
X124.07Y-84.13
X124.37Y-80.93
X124.4Y-98.8
X124.77Y-84.83
X125.07Y-80.93
X125.37Y-84.13
X126.1Y-102.4
X127.5Y-94.0
X127.8Y-80.4
X127.8Y-82.08
X127.8Y-83.1
X127.8Y-83.93
X127.8Y-101.3
X127.95Y-86.65
T2
X110.75Y-87.651
X110.75Y-88.926
X110.75Y-90.201
X112.025Y-87.651
X112.025Y-88.926
X112.025Y-90.201
X113.3Y-87.651
X113.3Y-88.926
X113.3Y-90.201
T5
X115.3Y-103.74
X117.8Y-103.74
X119.8Y-103.74
X122.3Y-103.74
T6
X91.26Y-112.1
X93.8Y-112.1
X96.34Y-112.1
X125.0Y-73.543
X127.0Y-73.543
X129.0Y-73.543
T7
X130.16Y-86.6
X130.16Y-89.36
X130.16Y-92.12
X130.16Y-94.88
X130.16Y-97.64
X133.0Y-87.98
X133.0Y-90.74
X133.0Y-93.5
X133.0Y-96.26
T8
X85.8Y-79.9
X85.8Y-82.44
X88.34Y-81.17
X88.34Y-83.71
T9
X111.8Y-106.45
X125.8Y-106.45
T10
X131.58Y-79.62
X131.58Y-104.62
T3
X111.385Y-72.389G85X111.385Y-71.589
G05
X111.385Y-76.719G85X111.385Y-75.619
G05
X120.025Y-72.389G85X120.025Y-71.589
G05
X120.025Y-76.719G85X120.025Y-75.619
G05
T4
X122.85Y-73.993G85X122.85Y-73.093
G05
X131.15Y-73.993G85X131.15Y-73.093
G05
T0
M30
