%TF.GenerationSoftware,KiCad,Pcbnew,7.0.8*%
%TF.CreationDate,2023-10-01T21:37:42-07:00*%
%TF.ProjectId,babelfish,62616265-6c66-4697-9368-2e6b69636164,REV1*%
%TF.SameCoordinates,Original*%
%TF.FileFunction,Drillmap*%
%TF.FilePolarity,Positive*%
%FSLAX45Y45*%
G04 Gerber Fmt 4.5, Leading zero omitted, Abs format (unit mm)*
G04 Created by KiCad (PCBNEW 7.0.8) date 2023-10-01 21:37:42*
%MOMM*%
%LPD*%
G01*
G04 APERTURE LIST*
%ADD10C,0.050000*%
%ADD11C,0.200000*%
%ADD12C,0.064998*%
%ADD13C,0.210000*%
%ADD14C,0.250000*%
%ADD15C,0.270000*%
G04 APERTURE END LIST*
D10*
X8225000Y-6950000D02*
X13825000Y-6950000D01*
X13825000Y-11475000D01*
X8225000Y-11475000D01*
X8225000Y-6950000D01*
D11*
D12*
X11249045Y-7534422D02*
X11314043Y-7599421D01*
X11314043Y-7534422D02*
X11249045Y-7599421D01*
X11828039Y-7534422D02*
X11893038Y-7599421D01*
X11893038Y-7534422D02*
X11828039Y-7599421D01*
D13*
X8939000Y-7857000D02*
G75*
G03*
X8939000Y-7857000I-105000J0D01*
G01*
D14*
X8580000Y-8379000D02*
X8580000Y-8629000D01*
X8455000Y-8504000D02*
X8705000Y-8504000D01*
D15*
X8670460Y-7395460D02*
X8670460Y-7204540D01*
X8479540Y-7204540D01*
X8479540Y-7395460D01*
X8670460Y-7395460D01*
X8670460Y-11220460D02*
X8670460Y-11029540D01*
X8479540Y-11029540D01*
X8479540Y-11220460D01*
X8670460Y-11220460D01*
X13570460Y-7395460D02*
X13570460Y-7204540D01*
X13379540Y-7204540D01*
X13379540Y-7395460D01*
X13570460Y-7395460D01*
X13570460Y-11220460D02*
X13570460Y-11029540D01*
X13379540Y-11029540D01*
X13379540Y-11220460D01*
X13570460Y-11220460D01*
D11*
X8483277Y-11788984D02*
X8483277Y-11588984D01*
X8483277Y-11588984D02*
X8530896Y-11588984D01*
X8530896Y-11588984D02*
X8559467Y-11598508D01*
X8559467Y-11598508D02*
X8578515Y-11617555D01*
X8578515Y-11617555D02*
X8588039Y-11636603D01*
X8588039Y-11636603D02*
X8597563Y-11674698D01*
X8597563Y-11674698D02*
X8597563Y-11703269D01*
X8597563Y-11703269D02*
X8588039Y-11741365D01*
X8588039Y-11741365D02*
X8578515Y-11760412D01*
X8578515Y-11760412D02*
X8559467Y-11779460D01*
X8559467Y-11779460D02*
X8530896Y-11788984D01*
X8530896Y-11788984D02*
X8483277Y-11788984D01*
X8683277Y-11788984D02*
X8683277Y-11655650D01*
X8683277Y-11693746D02*
X8692801Y-11674698D01*
X8692801Y-11674698D02*
X8702324Y-11665174D01*
X8702324Y-11665174D02*
X8721372Y-11655650D01*
X8721372Y-11655650D02*
X8740420Y-11655650D01*
X8807086Y-11788984D02*
X8807086Y-11655650D01*
X8807086Y-11588984D02*
X8797563Y-11598508D01*
X8797563Y-11598508D02*
X8807086Y-11608031D01*
X8807086Y-11608031D02*
X8816610Y-11598508D01*
X8816610Y-11598508D02*
X8807086Y-11588984D01*
X8807086Y-11588984D02*
X8807086Y-11608031D01*
X8930896Y-11788984D02*
X8911848Y-11779460D01*
X8911848Y-11779460D02*
X8902324Y-11760412D01*
X8902324Y-11760412D02*
X8902324Y-11588984D01*
X9035658Y-11788984D02*
X9016610Y-11779460D01*
X9016610Y-11779460D02*
X9007086Y-11760412D01*
X9007086Y-11760412D02*
X9007086Y-11588984D01*
X9264229Y-11788984D02*
X9264229Y-11588984D01*
X9264229Y-11588984D02*
X9330896Y-11731841D01*
X9330896Y-11731841D02*
X9397563Y-11588984D01*
X9397563Y-11588984D02*
X9397563Y-11788984D01*
X9578515Y-11788984D02*
X9578515Y-11684222D01*
X9578515Y-11684222D02*
X9568991Y-11665174D01*
X9568991Y-11665174D02*
X9549944Y-11655650D01*
X9549944Y-11655650D02*
X9511848Y-11655650D01*
X9511848Y-11655650D02*
X9492801Y-11665174D01*
X9578515Y-11779460D02*
X9559467Y-11788984D01*
X9559467Y-11788984D02*
X9511848Y-11788984D01*
X9511848Y-11788984D02*
X9492801Y-11779460D01*
X9492801Y-11779460D02*
X9483277Y-11760412D01*
X9483277Y-11760412D02*
X9483277Y-11741365D01*
X9483277Y-11741365D02*
X9492801Y-11722317D01*
X9492801Y-11722317D02*
X9511848Y-11712793D01*
X9511848Y-11712793D02*
X9559467Y-11712793D01*
X9559467Y-11712793D02*
X9578515Y-11703269D01*
X9673753Y-11655650D02*
X9673753Y-11855650D01*
X9673753Y-11665174D02*
X9692801Y-11655650D01*
X9692801Y-11655650D02*
X9730896Y-11655650D01*
X9730896Y-11655650D02*
X9749944Y-11665174D01*
X9749944Y-11665174D02*
X9759467Y-11674698D01*
X9759467Y-11674698D02*
X9768991Y-11693746D01*
X9768991Y-11693746D02*
X9768991Y-11750888D01*
X9768991Y-11750888D02*
X9759467Y-11769936D01*
X9759467Y-11769936D02*
X9749944Y-11779460D01*
X9749944Y-11779460D02*
X9730896Y-11788984D01*
X9730896Y-11788984D02*
X9692801Y-11788984D01*
X9692801Y-11788984D02*
X9673753Y-11779460D01*
X9854705Y-11769936D02*
X9864229Y-11779460D01*
X9864229Y-11779460D02*
X9854705Y-11788984D01*
X9854705Y-11788984D02*
X9845182Y-11779460D01*
X9845182Y-11779460D02*
X9854705Y-11769936D01*
X9854705Y-11769936D02*
X9854705Y-11788984D01*
X9854705Y-11665174D02*
X9864229Y-11674698D01*
X9864229Y-11674698D02*
X9854705Y-11684222D01*
X9854705Y-11684222D02*
X9845182Y-11674698D01*
X9845182Y-11674698D02*
X9854705Y-11665174D01*
X9854705Y-11665174D02*
X9854705Y-11684222D01*
D12*
X8157501Y-12085001D02*
X8222500Y-12149999D01*
X8222500Y-12085001D02*
X8157501Y-12149999D01*
D11*
X8521372Y-12008984D02*
X8540420Y-12008984D01*
X8540420Y-12008984D02*
X8559467Y-12018508D01*
X8559467Y-12018508D02*
X8568991Y-12028031D01*
X8568991Y-12028031D02*
X8578515Y-12047079D01*
X8578515Y-12047079D02*
X8588039Y-12085174D01*
X8588039Y-12085174D02*
X8588039Y-12132793D01*
X8588039Y-12132793D02*
X8578515Y-12170888D01*
X8578515Y-12170888D02*
X8568991Y-12189936D01*
X8568991Y-12189936D02*
X8559467Y-12199460D01*
X8559467Y-12199460D02*
X8540420Y-12208984D01*
X8540420Y-12208984D02*
X8521372Y-12208984D01*
X8521372Y-12208984D02*
X8502324Y-12199460D01*
X8502324Y-12199460D02*
X8492801Y-12189936D01*
X8492801Y-12189936D02*
X8483277Y-12170888D01*
X8483277Y-12170888D02*
X8473753Y-12132793D01*
X8473753Y-12132793D02*
X8473753Y-12085174D01*
X8473753Y-12085174D02*
X8483277Y-12047079D01*
X8483277Y-12047079D02*
X8492801Y-12028031D01*
X8492801Y-12028031D02*
X8502324Y-12018508D01*
X8502324Y-12018508D02*
X8521372Y-12008984D01*
X8673753Y-12189936D02*
X8683277Y-12199460D01*
X8683277Y-12199460D02*
X8673753Y-12208984D01*
X8673753Y-12208984D02*
X8664229Y-12199460D01*
X8664229Y-12199460D02*
X8673753Y-12189936D01*
X8673753Y-12189936D02*
X8673753Y-12208984D01*
X8854705Y-12008984D02*
X8816610Y-12008984D01*
X8816610Y-12008984D02*
X8797563Y-12018508D01*
X8797563Y-12018508D02*
X8788039Y-12028031D01*
X8788039Y-12028031D02*
X8768991Y-12056603D01*
X8768991Y-12056603D02*
X8759467Y-12094698D01*
X8759467Y-12094698D02*
X8759467Y-12170888D01*
X8759467Y-12170888D02*
X8768991Y-12189936D01*
X8768991Y-12189936D02*
X8778515Y-12199460D01*
X8778515Y-12199460D02*
X8797563Y-12208984D01*
X8797563Y-12208984D02*
X8835658Y-12208984D01*
X8835658Y-12208984D02*
X8854705Y-12199460D01*
X8854705Y-12199460D02*
X8864229Y-12189936D01*
X8864229Y-12189936D02*
X8873753Y-12170888D01*
X8873753Y-12170888D02*
X8873753Y-12123269D01*
X8873753Y-12123269D02*
X8864229Y-12104222D01*
X8864229Y-12104222D02*
X8854705Y-12094698D01*
X8854705Y-12094698D02*
X8835658Y-12085174D01*
X8835658Y-12085174D02*
X8797563Y-12085174D01*
X8797563Y-12085174D02*
X8778515Y-12094698D01*
X8778515Y-12094698D02*
X8768991Y-12104222D01*
X8768991Y-12104222D02*
X8759467Y-12123269D01*
X9054705Y-12008984D02*
X8959467Y-12008984D01*
X8959467Y-12008984D02*
X8949944Y-12104222D01*
X8949944Y-12104222D02*
X8959467Y-12094698D01*
X8959467Y-12094698D02*
X8978515Y-12085174D01*
X8978515Y-12085174D02*
X9026134Y-12085174D01*
X9026134Y-12085174D02*
X9045182Y-12094698D01*
X9045182Y-12094698D02*
X9054705Y-12104222D01*
X9054705Y-12104222D02*
X9064229Y-12123269D01*
X9064229Y-12123269D02*
X9064229Y-12170888D01*
X9064229Y-12170888D02*
X9054705Y-12189936D01*
X9054705Y-12189936D02*
X9045182Y-12199460D01*
X9045182Y-12199460D02*
X9026134Y-12208984D01*
X9026134Y-12208984D02*
X8978515Y-12208984D01*
X8978515Y-12208984D02*
X8959467Y-12199460D01*
X8959467Y-12199460D02*
X8949944Y-12189936D01*
X9188039Y-12008984D02*
X9207086Y-12008984D01*
X9207086Y-12008984D02*
X9226134Y-12018508D01*
X9226134Y-12018508D02*
X9235658Y-12028031D01*
X9235658Y-12028031D02*
X9245182Y-12047079D01*
X9245182Y-12047079D02*
X9254705Y-12085174D01*
X9254705Y-12085174D02*
X9254705Y-12132793D01*
X9254705Y-12132793D02*
X9245182Y-12170888D01*
X9245182Y-12170888D02*
X9235658Y-12189936D01*
X9235658Y-12189936D02*
X9226134Y-12199460D01*
X9226134Y-12199460D02*
X9207086Y-12208984D01*
X9207086Y-12208984D02*
X9188039Y-12208984D01*
X9188039Y-12208984D02*
X9168991Y-12199460D01*
X9168991Y-12199460D02*
X9159467Y-12189936D01*
X9159467Y-12189936D02*
X9149944Y-12170888D01*
X9149944Y-12170888D02*
X9140420Y-12132793D01*
X9140420Y-12132793D02*
X9140420Y-12085174D01*
X9140420Y-12085174D02*
X9149944Y-12047079D01*
X9149944Y-12047079D02*
X9159467Y-12028031D01*
X9159467Y-12028031D02*
X9168991Y-12018508D01*
X9168991Y-12018508D02*
X9188039Y-12008984D01*
X9340420Y-12208984D02*
X9340420Y-12075650D01*
X9340420Y-12094698D02*
X9349944Y-12085174D01*
X9349944Y-12085174D02*
X9368991Y-12075650D01*
X9368991Y-12075650D02*
X9397563Y-12075650D01*
X9397563Y-12075650D02*
X9416610Y-12085174D01*
X9416610Y-12085174D02*
X9426134Y-12104222D01*
X9426134Y-12104222D02*
X9426134Y-12208984D01*
X9426134Y-12104222D02*
X9435658Y-12085174D01*
X9435658Y-12085174D02*
X9454705Y-12075650D01*
X9454705Y-12075650D02*
X9483277Y-12075650D01*
X9483277Y-12075650D02*
X9502325Y-12085174D01*
X9502325Y-12085174D02*
X9511848Y-12104222D01*
X9511848Y-12104222D02*
X9511848Y-12208984D01*
X9607086Y-12208984D02*
X9607086Y-12075650D01*
X9607086Y-12094698D02*
X9616610Y-12085174D01*
X9616610Y-12085174D02*
X9635658Y-12075650D01*
X9635658Y-12075650D02*
X9664229Y-12075650D01*
X9664229Y-12075650D02*
X9683277Y-12085174D01*
X9683277Y-12085174D02*
X9692801Y-12104222D01*
X9692801Y-12104222D02*
X9692801Y-12208984D01*
X9692801Y-12104222D02*
X9702325Y-12085174D01*
X9702325Y-12085174D02*
X9721372Y-12075650D01*
X9721372Y-12075650D02*
X9749944Y-12075650D01*
X9749944Y-12075650D02*
X9768991Y-12085174D01*
X9768991Y-12085174D02*
X9778515Y-12104222D01*
X9778515Y-12104222D02*
X9778515Y-12208984D01*
X10168991Y-11999460D02*
X9997563Y-12256603D01*
X10426134Y-12008984D02*
X10445182Y-12008984D01*
X10445182Y-12008984D02*
X10464229Y-12018508D01*
X10464229Y-12018508D02*
X10473753Y-12028031D01*
X10473753Y-12028031D02*
X10483277Y-12047079D01*
X10483277Y-12047079D02*
X10492801Y-12085174D01*
X10492801Y-12085174D02*
X10492801Y-12132793D01*
X10492801Y-12132793D02*
X10483277Y-12170888D01*
X10483277Y-12170888D02*
X10473753Y-12189936D01*
X10473753Y-12189936D02*
X10464229Y-12199460D01*
X10464229Y-12199460D02*
X10445182Y-12208984D01*
X10445182Y-12208984D02*
X10426134Y-12208984D01*
X10426134Y-12208984D02*
X10407087Y-12199460D01*
X10407087Y-12199460D02*
X10397563Y-12189936D01*
X10397563Y-12189936D02*
X10388039Y-12170888D01*
X10388039Y-12170888D02*
X10378515Y-12132793D01*
X10378515Y-12132793D02*
X10378515Y-12085174D01*
X10378515Y-12085174D02*
X10388039Y-12047079D01*
X10388039Y-12047079D02*
X10397563Y-12028031D01*
X10397563Y-12028031D02*
X10407087Y-12018508D01*
X10407087Y-12018508D02*
X10426134Y-12008984D01*
X10578515Y-12189936D02*
X10588039Y-12199460D01*
X10588039Y-12199460D02*
X10578515Y-12208984D01*
X10578515Y-12208984D02*
X10568991Y-12199460D01*
X10568991Y-12199460D02*
X10578515Y-12189936D01*
X10578515Y-12189936D02*
X10578515Y-12208984D01*
X10711848Y-12008984D02*
X10730896Y-12008984D01*
X10730896Y-12008984D02*
X10749944Y-12018508D01*
X10749944Y-12018508D02*
X10759468Y-12028031D01*
X10759468Y-12028031D02*
X10768991Y-12047079D01*
X10768991Y-12047079D02*
X10778515Y-12085174D01*
X10778515Y-12085174D02*
X10778515Y-12132793D01*
X10778515Y-12132793D02*
X10768991Y-12170888D01*
X10768991Y-12170888D02*
X10759468Y-12189936D01*
X10759468Y-12189936D02*
X10749944Y-12199460D01*
X10749944Y-12199460D02*
X10730896Y-12208984D01*
X10730896Y-12208984D02*
X10711848Y-12208984D01*
X10711848Y-12208984D02*
X10692801Y-12199460D01*
X10692801Y-12199460D02*
X10683277Y-12189936D01*
X10683277Y-12189936D02*
X10673753Y-12170888D01*
X10673753Y-12170888D02*
X10664229Y-12132793D01*
X10664229Y-12132793D02*
X10664229Y-12085174D01*
X10664229Y-12085174D02*
X10673753Y-12047079D01*
X10673753Y-12047079D02*
X10683277Y-12028031D01*
X10683277Y-12028031D02*
X10692801Y-12018508D01*
X10692801Y-12018508D02*
X10711848Y-12008984D01*
X10854706Y-12028031D02*
X10864229Y-12018508D01*
X10864229Y-12018508D02*
X10883277Y-12008984D01*
X10883277Y-12008984D02*
X10930896Y-12008984D01*
X10930896Y-12008984D02*
X10949944Y-12018508D01*
X10949944Y-12018508D02*
X10959468Y-12028031D01*
X10959468Y-12028031D02*
X10968991Y-12047079D01*
X10968991Y-12047079D02*
X10968991Y-12066127D01*
X10968991Y-12066127D02*
X10959468Y-12094698D01*
X10959468Y-12094698D02*
X10845182Y-12208984D01*
X10845182Y-12208984D02*
X10968991Y-12208984D01*
X11149944Y-12008984D02*
X11054706Y-12008984D01*
X11054706Y-12008984D02*
X11045182Y-12104222D01*
X11045182Y-12104222D02*
X11054706Y-12094698D01*
X11054706Y-12094698D02*
X11073753Y-12085174D01*
X11073753Y-12085174D02*
X11121372Y-12085174D01*
X11121372Y-12085174D02*
X11140420Y-12094698D01*
X11140420Y-12094698D02*
X11149944Y-12104222D01*
X11149944Y-12104222D02*
X11159468Y-12123269D01*
X11159468Y-12123269D02*
X11159468Y-12170888D01*
X11159468Y-12170888D02*
X11149944Y-12189936D01*
X11149944Y-12189936D02*
X11140420Y-12199460D01*
X11140420Y-12199460D02*
X11121372Y-12208984D01*
X11121372Y-12208984D02*
X11073753Y-12208984D01*
X11073753Y-12208984D02*
X11054706Y-12199460D01*
X11054706Y-12199460D02*
X11045182Y-12189936D01*
X11330896Y-12008984D02*
X11292801Y-12008984D01*
X11292801Y-12008984D02*
X11273753Y-12018508D01*
X11273753Y-12018508D02*
X11264229Y-12028031D01*
X11264229Y-12028031D02*
X11245182Y-12056603D01*
X11245182Y-12056603D02*
X11235658Y-12094698D01*
X11235658Y-12094698D02*
X11235658Y-12170888D01*
X11235658Y-12170888D02*
X11245182Y-12189936D01*
X11245182Y-12189936D02*
X11254706Y-12199460D01*
X11254706Y-12199460D02*
X11273753Y-12208984D01*
X11273753Y-12208984D02*
X11311848Y-12208984D01*
X11311848Y-12208984D02*
X11330896Y-12199460D01*
X11330896Y-12199460D02*
X11340420Y-12189936D01*
X11340420Y-12189936D02*
X11349944Y-12170888D01*
X11349944Y-12170888D02*
X11349944Y-12123269D01*
X11349944Y-12123269D02*
X11340420Y-12104222D01*
X11340420Y-12104222D02*
X11330896Y-12094698D01*
X11330896Y-12094698D02*
X11311848Y-12085174D01*
X11311848Y-12085174D02*
X11273753Y-12085174D01*
X11273753Y-12085174D02*
X11254706Y-12094698D01*
X11254706Y-12094698D02*
X11245182Y-12104222D01*
X11245182Y-12104222D02*
X11235658Y-12123269D01*
X11426134Y-12008984D02*
X11426134Y-12047079D01*
X11502325Y-12008984D02*
X11502325Y-12047079D01*
X11797563Y-12285174D02*
X11788039Y-12275650D01*
X11788039Y-12275650D02*
X11768991Y-12247079D01*
X11768991Y-12247079D02*
X11759468Y-12228031D01*
X11759468Y-12228031D02*
X11749944Y-12199460D01*
X11749944Y-12199460D02*
X11740420Y-12151841D01*
X11740420Y-12151841D02*
X11740420Y-12113746D01*
X11740420Y-12113746D02*
X11749944Y-12066127D01*
X11749944Y-12066127D02*
X11759468Y-12037555D01*
X11759468Y-12037555D02*
X11768991Y-12018508D01*
X11768991Y-12018508D02*
X11788039Y-11989936D01*
X11788039Y-11989936D02*
X11797563Y-11980412D01*
X11864229Y-12028031D02*
X11873753Y-12018508D01*
X11873753Y-12018508D02*
X11892801Y-12008984D01*
X11892801Y-12008984D02*
X11940420Y-12008984D01*
X11940420Y-12008984D02*
X11959468Y-12018508D01*
X11959468Y-12018508D02*
X11968991Y-12028031D01*
X11968991Y-12028031D02*
X11978515Y-12047079D01*
X11978515Y-12047079D02*
X11978515Y-12066127D01*
X11978515Y-12066127D02*
X11968991Y-12094698D01*
X11968991Y-12094698D02*
X11854706Y-12208984D01*
X11854706Y-12208984D02*
X11978515Y-12208984D01*
X12216610Y-12208984D02*
X12216610Y-12008984D01*
X12302325Y-12208984D02*
X12302325Y-12104222D01*
X12302325Y-12104222D02*
X12292801Y-12085174D01*
X12292801Y-12085174D02*
X12273753Y-12075650D01*
X12273753Y-12075650D02*
X12245182Y-12075650D01*
X12245182Y-12075650D02*
X12226134Y-12085174D01*
X12226134Y-12085174D02*
X12216610Y-12094698D01*
X12426134Y-12208984D02*
X12407087Y-12199460D01*
X12407087Y-12199460D02*
X12397563Y-12189936D01*
X12397563Y-12189936D02*
X12388039Y-12170888D01*
X12388039Y-12170888D02*
X12388039Y-12113746D01*
X12388039Y-12113746D02*
X12397563Y-12094698D01*
X12397563Y-12094698D02*
X12407087Y-12085174D01*
X12407087Y-12085174D02*
X12426134Y-12075650D01*
X12426134Y-12075650D02*
X12454706Y-12075650D01*
X12454706Y-12075650D02*
X12473753Y-12085174D01*
X12473753Y-12085174D02*
X12483277Y-12094698D01*
X12483277Y-12094698D02*
X12492801Y-12113746D01*
X12492801Y-12113746D02*
X12492801Y-12170888D01*
X12492801Y-12170888D02*
X12483277Y-12189936D01*
X12483277Y-12189936D02*
X12473753Y-12199460D01*
X12473753Y-12199460D02*
X12454706Y-12208984D01*
X12454706Y-12208984D02*
X12426134Y-12208984D01*
X12607087Y-12208984D02*
X12588039Y-12199460D01*
X12588039Y-12199460D02*
X12578515Y-12180412D01*
X12578515Y-12180412D02*
X12578515Y-12008984D01*
X12759468Y-12199460D02*
X12740420Y-12208984D01*
X12740420Y-12208984D02*
X12702325Y-12208984D01*
X12702325Y-12208984D02*
X12683277Y-12199460D01*
X12683277Y-12199460D02*
X12673753Y-12180412D01*
X12673753Y-12180412D02*
X12673753Y-12104222D01*
X12673753Y-12104222D02*
X12683277Y-12085174D01*
X12683277Y-12085174D02*
X12702325Y-12075650D01*
X12702325Y-12075650D02*
X12740420Y-12075650D01*
X12740420Y-12075650D02*
X12759468Y-12085174D01*
X12759468Y-12085174D02*
X12768991Y-12104222D01*
X12768991Y-12104222D02*
X12768991Y-12123269D01*
X12768991Y-12123269D02*
X12673753Y-12142317D01*
X12845182Y-12199460D02*
X12864230Y-12208984D01*
X12864230Y-12208984D02*
X12902325Y-12208984D01*
X12902325Y-12208984D02*
X12921372Y-12199460D01*
X12921372Y-12199460D02*
X12930896Y-12180412D01*
X12930896Y-12180412D02*
X12930896Y-12170888D01*
X12930896Y-12170888D02*
X12921372Y-12151841D01*
X12921372Y-12151841D02*
X12902325Y-12142317D01*
X12902325Y-12142317D02*
X12873753Y-12142317D01*
X12873753Y-12142317D02*
X12854706Y-12132793D01*
X12854706Y-12132793D02*
X12845182Y-12113746D01*
X12845182Y-12113746D02*
X12845182Y-12104222D01*
X12845182Y-12104222D02*
X12854706Y-12085174D01*
X12854706Y-12085174D02*
X12873753Y-12075650D01*
X12873753Y-12075650D02*
X12902325Y-12075650D01*
X12902325Y-12075650D02*
X12921372Y-12085174D01*
X12997563Y-12285174D02*
X13007087Y-12275650D01*
X13007087Y-12275650D02*
X13026134Y-12247079D01*
X13026134Y-12247079D02*
X13035658Y-12228031D01*
X13035658Y-12228031D02*
X13045182Y-12199460D01*
X13045182Y-12199460D02*
X13054706Y-12151841D01*
X13054706Y-12151841D02*
X13054706Y-12113746D01*
X13054706Y-12113746D02*
X13045182Y-12066127D01*
X13045182Y-12066127D02*
X13035658Y-12037555D01*
X13035658Y-12037555D02*
X13026134Y-12018508D01*
X13026134Y-12018508D02*
X13007087Y-11989936D01*
X13007087Y-11989936D02*
X12997563Y-11980412D01*
X13359468Y-12285174D02*
X13349944Y-12275650D01*
X13349944Y-12275650D02*
X13330896Y-12247079D01*
X13330896Y-12247079D02*
X13321372Y-12228031D01*
X13321372Y-12228031D02*
X13311849Y-12199460D01*
X13311849Y-12199460D02*
X13302325Y-12151841D01*
X13302325Y-12151841D02*
X13302325Y-12113746D01*
X13302325Y-12113746D02*
X13311849Y-12066127D01*
X13311849Y-12066127D02*
X13321372Y-12037555D01*
X13321372Y-12037555D02*
X13330896Y-12018508D01*
X13330896Y-12018508D02*
X13349944Y-11989936D01*
X13349944Y-11989936D02*
X13359468Y-11980412D01*
X13435658Y-12075650D02*
X13435658Y-12208984D01*
X13435658Y-12094698D02*
X13445182Y-12085174D01*
X13445182Y-12085174D02*
X13464230Y-12075650D01*
X13464230Y-12075650D02*
X13492801Y-12075650D01*
X13492801Y-12075650D02*
X13511849Y-12085174D01*
X13511849Y-12085174D02*
X13521372Y-12104222D01*
X13521372Y-12104222D02*
X13521372Y-12208984D01*
X13645182Y-12208984D02*
X13626134Y-12199460D01*
X13626134Y-12199460D02*
X13616611Y-12189936D01*
X13616611Y-12189936D02*
X13607087Y-12170888D01*
X13607087Y-12170888D02*
X13607087Y-12113746D01*
X13607087Y-12113746D02*
X13616611Y-12094698D01*
X13616611Y-12094698D02*
X13626134Y-12085174D01*
X13626134Y-12085174D02*
X13645182Y-12075650D01*
X13645182Y-12075650D02*
X13673753Y-12075650D01*
X13673753Y-12075650D02*
X13692801Y-12085174D01*
X13692801Y-12085174D02*
X13702325Y-12094698D01*
X13702325Y-12094698D02*
X13711849Y-12113746D01*
X13711849Y-12113746D02*
X13711849Y-12170888D01*
X13711849Y-12170888D02*
X13702325Y-12189936D01*
X13702325Y-12189936D02*
X13692801Y-12199460D01*
X13692801Y-12199460D02*
X13673753Y-12208984D01*
X13673753Y-12208984D02*
X13645182Y-12208984D01*
X13768992Y-12075650D02*
X13845182Y-12075650D01*
X13797563Y-12008984D02*
X13797563Y-12180412D01*
X13797563Y-12180412D02*
X13807087Y-12199460D01*
X13807087Y-12199460D02*
X13826134Y-12208984D01*
X13826134Y-12208984D02*
X13845182Y-12208984D01*
X14064230Y-12075650D02*
X14064230Y-12275650D01*
X14064230Y-12085174D02*
X14083277Y-12075650D01*
X14083277Y-12075650D02*
X14121373Y-12075650D01*
X14121373Y-12075650D02*
X14140420Y-12085174D01*
X14140420Y-12085174D02*
X14149944Y-12094698D01*
X14149944Y-12094698D02*
X14159468Y-12113746D01*
X14159468Y-12113746D02*
X14159468Y-12170888D01*
X14159468Y-12170888D02*
X14149944Y-12189936D01*
X14149944Y-12189936D02*
X14140420Y-12199460D01*
X14140420Y-12199460D02*
X14121373Y-12208984D01*
X14121373Y-12208984D02*
X14083277Y-12208984D01*
X14083277Y-12208984D02*
X14064230Y-12199460D01*
X14273753Y-12208984D02*
X14254706Y-12199460D01*
X14254706Y-12199460D02*
X14245182Y-12180412D01*
X14245182Y-12180412D02*
X14245182Y-12008984D01*
X14435658Y-12208984D02*
X14435658Y-12104222D01*
X14435658Y-12104222D02*
X14426134Y-12085174D01*
X14426134Y-12085174D02*
X14407087Y-12075650D01*
X14407087Y-12075650D02*
X14368992Y-12075650D01*
X14368992Y-12075650D02*
X14349944Y-12085174D01*
X14435658Y-12199460D02*
X14416611Y-12208984D01*
X14416611Y-12208984D02*
X14368992Y-12208984D01*
X14368992Y-12208984D02*
X14349944Y-12199460D01*
X14349944Y-12199460D02*
X14340420Y-12180412D01*
X14340420Y-12180412D02*
X14340420Y-12161365D01*
X14340420Y-12161365D02*
X14349944Y-12142317D01*
X14349944Y-12142317D02*
X14368992Y-12132793D01*
X14368992Y-12132793D02*
X14416611Y-12132793D01*
X14416611Y-12132793D02*
X14435658Y-12123269D01*
X14502325Y-12075650D02*
X14578515Y-12075650D01*
X14530896Y-12008984D02*
X14530896Y-12180412D01*
X14530896Y-12180412D02*
X14540420Y-12199460D01*
X14540420Y-12199460D02*
X14559468Y-12208984D01*
X14559468Y-12208984D02*
X14578515Y-12208984D01*
X14721373Y-12199460D02*
X14702325Y-12208984D01*
X14702325Y-12208984D02*
X14664230Y-12208984D01*
X14664230Y-12208984D02*
X14645182Y-12199460D01*
X14645182Y-12199460D02*
X14635658Y-12180412D01*
X14635658Y-12180412D02*
X14635658Y-12104222D01*
X14635658Y-12104222D02*
X14645182Y-12085174D01*
X14645182Y-12085174D02*
X14664230Y-12075650D01*
X14664230Y-12075650D02*
X14702325Y-12075650D01*
X14702325Y-12075650D02*
X14721373Y-12085174D01*
X14721373Y-12085174D02*
X14730896Y-12104222D01*
X14730896Y-12104222D02*
X14730896Y-12123269D01*
X14730896Y-12123269D02*
X14635658Y-12142317D01*
X14902325Y-12208984D02*
X14902325Y-12008984D01*
X14902325Y-12199460D02*
X14883277Y-12208984D01*
X14883277Y-12208984D02*
X14845182Y-12208984D01*
X14845182Y-12208984D02*
X14826134Y-12199460D01*
X14826134Y-12199460D02*
X14816611Y-12189936D01*
X14816611Y-12189936D02*
X14807087Y-12170888D01*
X14807087Y-12170888D02*
X14807087Y-12113746D01*
X14807087Y-12113746D02*
X14816611Y-12094698D01*
X14816611Y-12094698D02*
X14826134Y-12085174D01*
X14826134Y-12085174D02*
X14845182Y-12075650D01*
X14845182Y-12075650D02*
X14883277Y-12075650D01*
X14883277Y-12075650D02*
X14902325Y-12085174D01*
X14978515Y-12285174D02*
X14988039Y-12275650D01*
X14988039Y-12275650D02*
X15007087Y-12247079D01*
X15007087Y-12247079D02*
X15016611Y-12228031D01*
X15016611Y-12228031D02*
X15026134Y-12199460D01*
X15026134Y-12199460D02*
X15035658Y-12151841D01*
X15035658Y-12151841D02*
X15035658Y-12113746D01*
X15035658Y-12113746D02*
X15026134Y-12066127D01*
X15026134Y-12066127D02*
X15016611Y-12037555D01*
X15016611Y-12037555D02*
X15007087Y-12018508D01*
X15007087Y-12018508D02*
X14988039Y-11989936D01*
X14988039Y-11989936D02*
X14978515Y-11980412D01*
X8222500Y-12381500D02*
G75*
G03*
X8222500Y-12381500I-100000J0D01*
G01*
X8473753Y-12292031D02*
X8483277Y-12282508D01*
X8483277Y-12282508D02*
X8502324Y-12272984D01*
X8502324Y-12272984D02*
X8549944Y-12272984D01*
X8549944Y-12272984D02*
X8568991Y-12282508D01*
X8568991Y-12282508D02*
X8578515Y-12292031D01*
X8578515Y-12292031D02*
X8588039Y-12311079D01*
X8588039Y-12311079D02*
X8588039Y-12330127D01*
X8588039Y-12330127D02*
X8578515Y-12358698D01*
X8578515Y-12358698D02*
X8464229Y-12472984D01*
X8464229Y-12472984D02*
X8588039Y-12472984D01*
X8673753Y-12453936D02*
X8683277Y-12463460D01*
X8683277Y-12463460D02*
X8673753Y-12472984D01*
X8673753Y-12472984D02*
X8664229Y-12463460D01*
X8664229Y-12463460D02*
X8673753Y-12453936D01*
X8673753Y-12453936D02*
X8673753Y-12472984D01*
X8873753Y-12472984D02*
X8759467Y-12472984D01*
X8816610Y-12472984D02*
X8816610Y-12272984D01*
X8816610Y-12272984D02*
X8797563Y-12301555D01*
X8797563Y-12301555D02*
X8778515Y-12320603D01*
X8778515Y-12320603D02*
X8759467Y-12330127D01*
X8997563Y-12272984D02*
X9016610Y-12272984D01*
X9016610Y-12272984D02*
X9035658Y-12282508D01*
X9035658Y-12282508D02*
X9045182Y-12292031D01*
X9045182Y-12292031D02*
X9054705Y-12311079D01*
X9054705Y-12311079D02*
X9064229Y-12349174D01*
X9064229Y-12349174D02*
X9064229Y-12396793D01*
X9064229Y-12396793D02*
X9054705Y-12434888D01*
X9054705Y-12434888D02*
X9045182Y-12453936D01*
X9045182Y-12453936D02*
X9035658Y-12463460D01*
X9035658Y-12463460D02*
X9016610Y-12472984D01*
X9016610Y-12472984D02*
X8997563Y-12472984D01*
X8997563Y-12472984D02*
X8978515Y-12463460D01*
X8978515Y-12463460D02*
X8968991Y-12453936D01*
X8968991Y-12453936D02*
X8959467Y-12434888D01*
X8959467Y-12434888D02*
X8949944Y-12396793D01*
X8949944Y-12396793D02*
X8949944Y-12349174D01*
X8949944Y-12349174D02*
X8959467Y-12311079D01*
X8959467Y-12311079D02*
X8968991Y-12292031D01*
X8968991Y-12292031D02*
X8978515Y-12282508D01*
X8978515Y-12282508D02*
X8997563Y-12272984D01*
X9188039Y-12272984D02*
X9207086Y-12272984D01*
X9207086Y-12272984D02*
X9226134Y-12282508D01*
X9226134Y-12282508D02*
X9235658Y-12292031D01*
X9235658Y-12292031D02*
X9245182Y-12311079D01*
X9245182Y-12311079D02*
X9254705Y-12349174D01*
X9254705Y-12349174D02*
X9254705Y-12396793D01*
X9254705Y-12396793D02*
X9245182Y-12434888D01*
X9245182Y-12434888D02*
X9235658Y-12453936D01*
X9235658Y-12453936D02*
X9226134Y-12463460D01*
X9226134Y-12463460D02*
X9207086Y-12472984D01*
X9207086Y-12472984D02*
X9188039Y-12472984D01*
X9188039Y-12472984D02*
X9168991Y-12463460D01*
X9168991Y-12463460D02*
X9159467Y-12453936D01*
X9159467Y-12453936D02*
X9149944Y-12434888D01*
X9149944Y-12434888D02*
X9140420Y-12396793D01*
X9140420Y-12396793D02*
X9140420Y-12349174D01*
X9140420Y-12349174D02*
X9149944Y-12311079D01*
X9149944Y-12311079D02*
X9159467Y-12292031D01*
X9159467Y-12292031D02*
X9168991Y-12282508D01*
X9168991Y-12282508D02*
X9188039Y-12272984D01*
X9340420Y-12472984D02*
X9340420Y-12339650D01*
X9340420Y-12358698D02*
X9349944Y-12349174D01*
X9349944Y-12349174D02*
X9368991Y-12339650D01*
X9368991Y-12339650D02*
X9397563Y-12339650D01*
X9397563Y-12339650D02*
X9416610Y-12349174D01*
X9416610Y-12349174D02*
X9426134Y-12368222D01*
X9426134Y-12368222D02*
X9426134Y-12472984D01*
X9426134Y-12368222D02*
X9435658Y-12349174D01*
X9435658Y-12349174D02*
X9454705Y-12339650D01*
X9454705Y-12339650D02*
X9483277Y-12339650D01*
X9483277Y-12339650D02*
X9502325Y-12349174D01*
X9502325Y-12349174D02*
X9511848Y-12368222D01*
X9511848Y-12368222D02*
X9511848Y-12472984D01*
X9607086Y-12472984D02*
X9607086Y-12339650D01*
X9607086Y-12358698D02*
X9616610Y-12349174D01*
X9616610Y-12349174D02*
X9635658Y-12339650D01*
X9635658Y-12339650D02*
X9664229Y-12339650D01*
X9664229Y-12339650D02*
X9683277Y-12349174D01*
X9683277Y-12349174D02*
X9692801Y-12368222D01*
X9692801Y-12368222D02*
X9692801Y-12472984D01*
X9692801Y-12368222D02*
X9702325Y-12349174D01*
X9702325Y-12349174D02*
X9721372Y-12339650D01*
X9721372Y-12339650D02*
X9749944Y-12339650D01*
X9749944Y-12339650D02*
X9768991Y-12349174D01*
X9768991Y-12349174D02*
X9778515Y-12368222D01*
X9778515Y-12368222D02*
X9778515Y-12472984D01*
X10168991Y-12263460D02*
X9997563Y-12520603D01*
X10426134Y-12272984D02*
X10445182Y-12272984D01*
X10445182Y-12272984D02*
X10464229Y-12282508D01*
X10464229Y-12282508D02*
X10473753Y-12292031D01*
X10473753Y-12292031D02*
X10483277Y-12311079D01*
X10483277Y-12311079D02*
X10492801Y-12349174D01*
X10492801Y-12349174D02*
X10492801Y-12396793D01*
X10492801Y-12396793D02*
X10483277Y-12434888D01*
X10483277Y-12434888D02*
X10473753Y-12453936D01*
X10473753Y-12453936D02*
X10464229Y-12463460D01*
X10464229Y-12463460D02*
X10445182Y-12472984D01*
X10445182Y-12472984D02*
X10426134Y-12472984D01*
X10426134Y-12472984D02*
X10407087Y-12463460D01*
X10407087Y-12463460D02*
X10397563Y-12453936D01*
X10397563Y-12453936D02*
X10388039Y-12434888D01*
X10388039Y-12434888D02*
X10378515Y-12396793D01*
X10378515Y-12396793D02*
X10378515Y-12349174D01*
X10378515Y-12349174D02*
X10388039Y-12311079D01*
X10388039Y-12311079D02*
X10397563Y-12292031D01*
X10397563Y-12292031D02*
X10407087Y-12282508D01*
X10407087Y-12282508D02*
X10426134Y-12272984D01*
X10578515Y-12453936D02*
X10588039Y-12463460D01*
X10588039Y-12463460D02*
X10578515Y-12472984D01*
X10578515Y-12472984D02*
X10568991Y-12463460D01*
X10568991Y-12463460D02*
X10578515Y-12453936D01*
X10578515Y-12453936D02*
X10578515Y-12472984D01*
X10711848Y-12272984D02*
X10730896Y-12272984D01*
X10730896Y-12272984D02*
X10749944Y-12282508D01*
X10749944Y-12282508D02*
X10759468Y-12292031D01*
X10759468Y-12292031D02*
X10768991Y-12311079D01*
X10768991Y-12311079D02*
X10778515Y-12349174D01*
X10778515Y-12349174D02*
X10778515Y-12396793D01*
X10778515Y-12396793D02*
X10768991Y-12434888D01*
X10768991Y-12434888D02*
X10759468Y-12453936D01*
X10759468Y-12453936D02*
X10749944Y-12463460D01*
X10749944Y-12463460D02*
X10730896Y-12472984D01*
X10730896Y-12472984D02*
X10711848Y-12472984D01*
X10711848Y-12472984D02*
X10692801Y-12463460D01*
X10692801Y-12463460D02*
X10683277Y-12453936D01*
X10683277Y-12453936D02*
X10673753Y-12434888D01*
X10673753Y-12434888D02*
X10664229Y-12396793D01*
X10664229Y-12396793D02*
X10664229Y-12349174D01*
X10664229Y-12349174D02*
X10673753Y-12311079D01*
X10673753Y-12311079D02*
X10683277Y-12292031D01*
X10683277Y-12292031D02*
X10692801Y-12282508D01*
X10692801Y-12282508D02*
X10711848Y-12272984D01*
X10892801Y-12358698D02*
X10873753Y-12349174D01*
X10873753Y-12349174D02*
X10864229Y-12339650D01*
X10864229Y-12339650D02*
X10854706Y-12320603D01*
X10854706Y-12320603D02*
X10854706Y-12311079D01*
X10854706Y-12311079D02*
X10864229Y-12292031D01*
X10864229Y-12292031D02*
X10873753Y-12282508D01*
X10873753Y-12282508D02*
X10892801Y-12272984D01*
X10892801Y-12272984D02*
X10930896Y-12272984D01*
X10930896Y-12272984D02*
X10949944Y-12282508D01*
X10949944Y-12282508D02*
X10959468Y-12292031D01*
X10959468Y-12292031D02*
X10968991Y-12311079D01*
X10968991Y-12311079D02*
X10968991Y-12320603D01*
X10968991Y-12320603D02*
X10959468Y-12339650D01*
X10959468Y-12339650D02*
X10949944Y-12349174D01*
X10949944Y-12349174D02*
X10930896Y-12358698D01*
X10930896Y-12358698D02*
X10892801Y-12358698D01*
X10892801Y-12358698D02*
X10873753Y-12368222D01*
X10873753Y-12368222D02*
X10864229Y-12377746D01*
X10864229Y-12377746D02*
X10854706Y-12396793D01*
X10854706Y-12396793D02*
X10854706Y-12434888D01*
X10854706Y-12434888D02*
X10864229Y-12453936D01*
X10864229Y-12453936D02*
X10873753Y-12463460D01*
X10873753Y-12463460D02*
X10892801Y-12472984D01*
X10892801Y-12472984D02*
X10930896Y-12472984D01*
X10930896Y-12472984D02*
X10949944Y-12463460D01*
X10949944Y-12463460D02*
X10959468Y-12453936D01*
X10959468Y-12453936D02*
X10968991Y-12434888D01*
X10968991Y-12434888D02*
X10968991Y-12396793D01*
X10968991Y-12396793D02*
X10959468Y-12377746D01*
X10959468Y-12377746D02*
X10949944Y-12368222D01*
X10949944Y-12368222D02*
X10930896Y-12358698D01*
X11045182Y-12292031D02*
X11054706Y-12282508D01*
X11054706Y-12282508D02*
X11073753Y-12272984D01*
X11073753Y-12272984D02*
X11121372Y-12272984D01*
X11121372Y-12272984D02*
X11140420Y-12282508D01*
X11140420Y-12282508D02*
X11149944Y-12292031D01*
X11149944Y-12292031D02*
X11159468Y-12311079D01*
X11159468Y-12311079D02*
X11159468Y-12330127D01*
X11159468Y-12330127D02*
X11149944Y-12358698D01*
X11149944Y-12358698D02*
X11035658Y-12472984D01*
X11035658Y-12472984D02*
X11159468Y-12472984D01*
X11226134Y-12272984D02*
X11359467Y-12272984D01*
X11359467Y-12272984D02*
X11273753Y-12472984D01*
X11426134Y-12272984D02*
X11426134Y-12311079D01*
X11502325Y-12272984D02*
X11502325Y-12311079D01*
X11797563Y-12549174D02*
X11788039Y-12539650D01*
X11788039Y-12539650D02*
X11768991Y-12511079D01*
X11768991Y-12511079D02*
X11759468Y-12492031D01*
X11759468Y-12492031D02*
X11749944Y-12463460D01*
X11749944Y-12463460D02*
X11740420Y-12415841D01*
X11740420Y-12415841D02*
X11740420Y-12377746D01*
X11740420Y-12377746D02*
X11749944Y-12330127D01*
X11749944Y-12330127D02*
X11759468Y-12301555D01*
X11759468Y-12301555D02*
X11768991Y-12282508D01*
X11768991Y-12282508D02*
X11788039Y-12253936D01*
X11788039Y-12253936D02*
X11797563Y-12244412D01*
X11978515Y-12472984D02*
X11864229Y-12472984D01*
X11921372Y-12472984D02*
X11921372Y-12272984D01*
X11921372Y-12272984D02*
X11902325Y-12301555D01*
X11902325Y-12301555D02*
X11883277Y-12320603D01*
X11883277Y-12320603D02*
X11864229Y-12330127D01*
X12216610Y-12472984D02*
X12216610Y-12272984D01*
X12302325Y-12472984D02*
X12302325Y-12368222D01*
X12302325Y-12368222D02*
X12292801Y-12349174D01*
X12292801Y-12349174D02*
X12273753Y-12339650D01*
X12273753Y-12339650D02*
X12245182Y-12339650D01*
X12245182Y-12339650D02*
X12226134Y-12349174D01*
X12226134Y-12349174D02*
X12216610Y-12358698D01*
X12426134Y-12472984D02*
X12407087Y-12463460D01*
X12407087Y-12463460D02*
X12397563Y-12453936D01*
X12397563Y-12453936D02*
X12388039Y-12434888D01*
X12388039Y-12434888D02*
X12388039Y-12377746D01*
X12388039Y-12377746D02*
X12397563Y-12358698D01*
X12397563Y-12358698D02*
X12407087Y-12349174D01*
X12407087Y-12349174D02*
X12426134Y-12339650D01*
X12426134Y-12339650D02*
X12454706Y-12339650D01*
X12454706Y-12339650D02*
X12473753Y-12349174D01*
X12473753Y-12349174D02*
X12483277Y-12358698D01*
X12483277Y-12358698D02*
X12492801Y-12377746D01*
X12492801Y-12377746D02*
X12492801Y-12434888D01*
X12492801Y-12434888D02*
X12483277Y-12453936D01*
X12483277Y-12453936D02*
X12473753Y-12463460D01*
X12473753Y-12463460D02*
X12454706Y-12472984D01*
X12454706Y-12472984D02*
X12426134Y-12472984D01*
X12607087Y-12472984D02*
X12588039Y-12463460D01*
X12588039Y-12463460D02*
X12578515Y-12444412D01*
X12578515Y-12444412D02*
X12578515Y-12272984D01*
X12759468Y-12463460D02*
X12740420Y-12472984D01*
X12740420Y-12472984D02*
X12702325Y-12472984D01*
X12702325Y-12472984D02*
X12683277Y-12463460D01*
X12683277Y-12463460D02*
X12673753Y-12444412D01*
X12673753Y-12444412D02*
X12673753Y-12368222D01*
X12673753Y-12368222D02*
X12683277Y-12349174D01*
X12683277Y-12349174D02*
X12702325Y-12339650D01*
X12702325Y-12339650D02*
X12740420Y-12339650D01*
X12740420Y-12339650D02*
X12759468Y-12349174D01*
X12759468Y-12349174D02*
X12768991Y-12368222D01*
X12768991Y-12368222D02*
X12768991Y-12387269D01*
X12768991Y-12387269D02*
X12673753Y-12406317D01*
X12835658Y-12549174D02*
X12845182Y-12539650D01*
X12845182Y-12539650D02*
X12864230Y-12511079D01*
X12864230Y-12511079D02*
X12873753Y-12492031D01*
X12873753Y-12492031D02*
X12883277Y-12463460D01*
X12883277Y-12463460D02*
X12892801Y-12415841D01*
X12892801Y-12415841D02*
X12892801Y-12377746D01*
X12892801Y-12377746D02*
X12883277Y-12330127D01*
X12883277Y-12330127D02*
X12873753Y-12301555D01*
X12873753Y-12301555D02*
X12864230Y-12282508D01*
X12864230Y-12282508D02*
X12845182Y-12253936D01*
X12845182Y-12253936D02*
X12835658Y-12244412D01*
X13197563Y-12549174D02*
X13188039Y-12539650D01*
X13188039Y-12539650D02*
X13168991Y-12511079D01*
X13168991Y-12511079D02*
X13159468Y-12492031D01*
X13159468Y-12492031D02*
X13149944Y-12463460D01*
X13149944Y-12463460D02*
X13140420Y-12415841D01*
X13140420Y-12415841D02*
X13140420Y-12377746D01*
X13140420Y-12377746D02*
X13149944Y-12330127D01*
X13149944Y-12330127D02*
X13159468Y-12301555D01*
X13159468Y-12301555D02*
X13168991Y-12282508D01*
X13168991Y-12282508D02*
X13188039Y-12253936D01*
X13188039Y-12253936D02*
X13197563Y-12244412D01*
X13273753Y-12339650D02*
X13273753Y-12472984D01*
X13273753Y-12358698D02*
X13283277Y-12349174D01*
X13283277Y-12349174D02*
X13302325Y-12339650D01*
X13302325Y-12339650D02*
X13330896Y-12339650D01*
X13330896Y-12339650D02*
X13349944Y-12349174D01*
X13349944Y-12349174D02*
X13359468Y-12368222D01*
X13359468Y-12368222D02*
X13359468Y-12472984D01*
X13483277Y-12472984D02*
X13464230Y-12463460D01*
X13464230Y-12463460D02*
X13454706Y-12453936D01*
X13454706Y-12453936D02*
X13445182Y-12434888D01*
X13445182Y-12434888D02*
X13445182Y-12377746D01*
X13445182Y-12377746D02*
X13454706Y-12358698D01*
X13454706Y-12358698D02*
X13464230Y-12349174D01*
X13464230Y-12349174D02*
X13483277Y-12339650D01*
X13483277Y-12339650D02*
X13511849Y-12339650D01*
X13511849Y-12339650D02*
X13530896Y-12349174D01*
X13530896Y-12349174D02*
X13540420Y-12358698D01*
X13540420Y-12358698D02*
X13549944Y-12377746D01*
X13549944Y-12377746D02*
X13549944Y-12434888D01*
X13549944Y-12434888D02*
X13540420Y-12453936D01*
X13540420Y-12453936D02*
X13530896Y-12463460D01*
X13530896Y-12463460D02*
X13511849Y-12472984D01*
X13511849Y-12472984D02*
X13483277Y-12472984D01*
X13607087Y-12339650D02*
X13683277Y-12339650D01*
X13635658Y-12272984D02*
X13635658Y-12444412D01*
X13635658Y-12444412D02*
X13645182Y-12463460D01*
X13645182Y-12463460D02*
X13664230Y-12472984D01*
X13664230Y-12472984D02*
X13683277Y-12472984D01*
X13902325Y-12339650D02*
X13902325Y-12539650D01*
X13902325Y-12349174D02*
X13921372Y-12339650D01*
X13921372Y-12339650D02*
X13959468Y-12339650D01*
X13959468Y-12339650D02*
X13978515Y-12349174D01*
X13978515Y-12349174D02*
X13988039Y-12358698D01*
X13988039Y-12358698D02*
X13997563Y-12377746D01*
X13997563Y-12377746D02*
X13997563Y-12434888D01*
X13997563Y-12434888D02*
X13988039Y-12453936D01*
X13988039Y-12453936D02*
X13978515Y-12463460D01*
X13978515Y-12463460D02*
X13959468Y-12472984D01*
X13959468Y-12472984D02*
X13921372Y-12472984D01*
X13921372Y-12472984D02*
X13902325Y-12463460D01*
X14111849Y-12472984D02*
X14092801Y-12463460D01*
X14092801Y-12463460D02*
X14083277Y-12444412D01*
X14083277Y-12444412D02*
X14083277Y-12272984D01*
X14273753Y-12472984D02*
X14273753Y-12368222D01*
X14273753Y-12368222D02*
X14264230Y-12349174D01*
X14264230Y-12349174D02*
X14245182Y-12339650D01*
X14245182Y-12339650D02*
X14207087Y-12339650D01*
X14207087Y-12339650D02*
X14188039Y-12349174D01*
X14273753Y-12463460D02*
X14254706Y-12472984D01*
X14254706Y-12472984D02*
X14207087Y-12472984D01*
X14207087Y-12472984D02*
X14188039Y-12463460D01*
X14188039Y-12463460D02*
X14178515Y-12444412D01*
X14178515Y-12444412D02*
X14178515Y-12425365D01*
X14178515Y-12425365D02*
X14188039Y-12406317D01*
X14188039Y-12406317D02*
X14207087Y-12396793D01*
X14207087Y-12396793D02*
X14254706Y-12396793D01*
X14254706Y-12396793D02*
X14273753Y-12387269D01*
X14340420Y-12339650D02*
X14416611Y-12339650D01*
X14368992Y-12272984D02*
X14368992Y-12444412D01*
X14368992Y-12444412D02*
X14378515Y-12463460D01*
X14378515Y-12463460D02*
X14397563Y-12472984D01*
X14397563Y-12472984D02*
X14416611Y-12472984D01*
X14559468Y-12463460D02*
X14540420Y-12472984D01*
X14540420Y-12472984D02*
X14502325Y-12472984D01*
X14502325Y-12472984D02*
X14483277Y-12463460D01*
X14483277Y-12463460D02*
X14473753Y-12444412D01*
X14473753Y-12444412D02*
X14473753Y-12368222D01*
X14473753Y-12368222D02*
X14483277Y-12349174D01*
X14483277Y-12349174D02*
X14502325Y-12339650D01*
X14502325Y-12339650D02*
X14540420Y-12339650D01*
X14540420Y-12339650D02*
X14559468Y-12349174D01*
X14559468Y-12349174D02*
X14568992Y-12368222D01*
X14568992Y-12368222D02*
X14568992Y-12387269D01*
X14568992Y-12387269D02*
X14473753Y-12406317D01*
X14740420Y-12472984D02*
X14740420Y-12272984D01*
X14740420Y-12463460D02*
X14721373Y-12472984D01*
X14721373Y-12472984D02*
X14683277Y-12472984D01*
X14683277Y-12472984D02*
X14664230Y-12463460D01*
X14664230Y-12463460D02*
X14654706Y-12453936D01*
X14654706Y-12453936D02*
X14645182Y-12434888D01*
X14645182Y-12434888D02*
X14645182Y-12377746D01*
X14645182Y-12377746D02*
X14654706Y-12358698D01*
X14654706Y-12358698D02*
X14664230Y-12349174D01*
X14664230Y-12349174D02*
X14683277Y-12339650D01*
X14683277Y-12339650D02*
X14721373Y-12339650D01*
X14721373Y-12339650D02*
X14740420Y-12349174D01*
X14816611Y-12549174D02*
X14826134Y-12539650D01*
X14826134Y-12539650D02*
X14845182Y-12511079D01*
X14845182Y-12511079D02*
X14854706Y-12492031D01*
X14854706Y-12492031D02*
X14864230Y-12463460D01*
X14864230Y-12463460D02*
X14873753Y-12415841D01*
X14873753Y-12415841D02*
X14873753Y-12377746D01*
X14873753Y-12377746D02*
X14864230Y-12330127D01*
X14864230Y-12330127D02*
X14854706Y-12301555D01*
X14854706Y-12301555D02*
X14845182Y-12282508D01*
X14845182Y-12282508D02*
X14826134Y-12253936D01*
X14826134Y-12253936D02*
X14816611Y-12244412D01*
X8122500Y-12601500D02*
X8122500Y-12801500D01*
X8022500Y-12701500D02*
X8222500Y-12701500D01*
X8473753Y-12612031D02*
X8483277Y-12602508D01*
X8483277Y-12602508D02*
X8502324Y-12592984D01*
X8502324Y-12592984D02*
X8549944Y-12592984D01*
X8549944Y-12592984D02*
X8568991Y-12602508D01*
X8568991Y-12602508D02*
X8578515Y-12612031D01*
X8578515Y-12612031D02*
X8588039Y-12631079D01*
X8588039Y-12631079D02*
X8588039Y-12650127D01*
X8588039Y-12650127D02*
X8578515Y-12678698D01*
X8578515Y-12678698D02*
X8464229Y-12792984D01*
X8464229Y-12792984D02*
X8588039Y-12792984D01*
X8673753Y-12773936D02*
X8683277Y-12783460D01*
X8683277Y-12783460D02*
X8673753Y-12792984D01*
X8673753Y-12792984D02*
X8664229Y-12783460D01*
X8664229Y-12783460D02*
X8673753Y-12773936D01*
X8673753Y-12773936D02*
X8673753Y-12792984D01*
X8864229Y-12592984D02*
X8768991Y-12592984D01*
X8768991Y-12592984D02*
X8759467Y-12688222D01*
X8759467Y-12688222D02*
X8768991Y-12678698D01*
X8768991Y-12678698D02*
X8788039Y-12669174D01*
X8788039Y-12669174D02*
X8835658Y-12669174D01*
X8835658Y-12669174D02*
X8854705Y-12678698D01*
X8854705Y-12678698D02*
X8864229Y-12688222D01*
X8864229Y-12688222D02*
X8873753Y-12707269D01*
X8873753Y-12707269D02*
X8873753Y-12754888D01*
X8873753Y-12754888D02*
X8864229Y-12773936D01*
X8864229Y-12773936D02*
X8854705Y-12783460D01*
X8854705Y-12783460D02*
X8835658Y-12792984D01*
X8835658Y-12792984D02*
X8788039Y-12792984D01*
X8788039Y-12792984D02*
X8768991Y-12783460D01*
X8768991Y-12783460D02*
X8759467Y-12773936D01*
X8997563Y-12592984D02*
X9016610Y-12592984D01*
X9016610Y-12592984D02*
X9035658Y-12602508D01*
X9035658Y-12602508D02*
X9045182Y-12612031D01*
X9045182Y-12612031D02*
X9054705Y-12631079D01*
X9054705Y-12631079D02*
X9064229Y-12669174D01*
X9064229Y-12669174D02*
X9064229Y-12716793D01*
X9064229Y-12716793D02*
X9054705Y-12754888D01*
X9054705Y-12754888D02*
X9045182Y-12773936D01*
X9045182Y-12773936D02*
X9035658Y-12783460D01*
X9035658Y-12783460D02*
X9016610Y-12792984D01*
X9016610Y-12792984D02*
X8997563Y-12792984D01*
X8997563Y-12792984D02*
X8978515Y-12783460D01*
X8978515Y-12783460D02*
X8968991Y-12773936D01*
X8968991Y-12773936D02*
X8959467Y-12754888D01*
X8959467Y-12754888D02*
X8949944Y-12716793D01*
X8949944Y-12716793D02*
X8949944Y-12669174D01*
X8949944Y-12669174D02*
X8959467Y-12631079D01*
X8959467Y-12631079D02*
X8968991Y-12612031D01*
X8968991Y-12612031D02*
X8978515Y-12602508D01*
X8978515Y-12602508D02*
X8997563Y-12592984D01*
X9188039Y-12592984D02*
X9207086Y-12592984D01*
X9207086Y-12592984D02*
X9226134Y-12602508D01*
X9226134Y-12602508D02*
X9235658Y-12612031D01*
X9235658Y-12612031D02*
X9245182Y-12631079D01*
X9245182Y-12631079D02*
X9254705Y-12669174D01*
X9254705Y-12669174D02*
X9254705Y-12716793D01*
X9254705Y-12716793D02*
X9245182Y-12754888D01*
X9245182Y-12754888D02*
X9235658Y-12773936D01*
X9235658Y-12773936D02*
X9226134Y-12783460D01*
X9226134Y-12783460D02*
X9207086Y-12792984D01*
X9207086Y-12792984D02*
X9188039Y-12792984D01*
X9188039Y-12792984D02*
X9168991Y-12783460D01*
X9168991Y-12783460D02*
X9159467Y-12773936D01*
X9159467Y-12773936D02*
X9149944Y-12754888D01*
X9149944Y-12754888D02*
X9140420Y-12716793D01*
X9140420Y-12716793D02*
X9140420Y-12669174D01*
X9140420Y-12669174D02*
X9149944Y-12631079D01*
X9149944Y-12631079D02*
X9159467Y-12612031D01*
X9159467Y-12612031D02*
X9168991Y-12602508D01*
X9168991Y-12602508D02*
X9188039Y-12592984D01*
X9340420Y-12792984D02*
X9340420Y-12659650D01*
X9340420Y-12678698D02*
X9349944Y-12669174D01*
X9349944Y-12669174D02*
X9368991Y-12659650D01*
X9368991Y-12659650D02*
X9397563Y-12659650D01*
X9397563Y-12659650D02*
X9416610Y-12669174D01*
X9416610Y-12669174D02*
X9426134Y-12688222D01*
X9426134Y-12688222D02*
X9426134Y-12792984D01*
X9426134Y-12688222D02*
X9435658Y-12669174D01*
X9435658Y-12669174D02*
X9454705Y-12659650D01*
X9454705Y-12659650D02*
X9483277Y-12659650D01*
X9483277Y-12659650D02*
X9502325Y-12669174D01*
X9502325Y-12669174D02*
X9511848Y-12688222D01*
X9511848Y-12688222D02*
X9511848Y-12792984D01*
X9607086Y-12792984D02*
X9607086Y-12659650D01*
X9607086Y-12678698D02*
X9616610Y-12669174D01*
X9616610Y-12669174D02*
X9635658Y-12659650D01*
X9635658Y-12659650D02*
X9664229Y-12659650D01*
X9664229Y-12659650D02*
X9683277Y-12669174D01*
X9683277Y-12669174D02*
X9692801Y-12688222D01*
X9692801Y-12688222D02*
X9692801Y-12792984D01*
X9692801Y-12688222D02*
X9702325Y-12669174D01*
X9702325Y-12669174D02*
X9721372Y-12659650D01*
X9721372Y-12659650D02*
X9749944Y-12659650D01*
X9749944Y-12659650D02*
X9768991Y-12669174D01*
X9768991Y-12669174D02*
X9778515Y-12688222D01*
X9778515Y-12688222D02*
X9778515Y-12792984D01*
X10168991Y-12583460D02*
X9997563Y-12840603D01*
X10426134Y-12592984D02*
X10445182Y-12592984D01*
X10445182Y-12592984D02*
X10464229Y-12602508D01*
X10464229Y-12602508D02*
X10473753Y-12612031D01*
X10473753Y-12612031D02*
X10483277Y-12631079D01*
X10483277Y-12631079D02*
X10492801Y-12669174D01*
X10492801Y-12669174D02*
X10492801Y-12716793D01*
X10492801Y-12716793D02*
X10483277Y-12754888D01*
X10483277Y-12754888D02*
X10473753Y-12773936D01*
X10473753Y-12773936D02*
X10464229Y-12783460D01*
X10464229Y-12783460D02*
X10445182Y-12792984D01*
X10445182Y-12792984D02*
X10426134Y-12792984D01*
X10426134Y-12792984D02*
X10407087Y-12783460D01*
X10407087Y-12783460D02*
X10397563Y-12773936D01*
X10397563Y-12773936D02*
X10388039Y-12754888D01*
X10388039Y-12754888D02*
X10378515Y-12716793D01*
X10378515Y-12716793D02*
X10378515Y-12669174D01*
X10378515Y-12669174D02*
X10388039Y-12631079D01*
X10388039Y-12631079D02*
X10397563Y-12612031D01*
X10397563Y-12612031D02*
X10407087Y-12602508D01*
X10407087Y-12602508D02*
X10426134Y-12592984D01*
X10578515Y-12773936D02*
X10588039Y-12783460D01*
X10588039Y-12783460D02*
X10578515Y-12792984D01*
X10578515Y-12792984D02*
X10568991Y-12783460D01*
X10568991Y-12783460D02*
X10578515Y-12773936D01*
X10578515Y-12773936D02*
X10578515Y-12792984D01*
X10711848Y-12592984D02*
X10730896Y-12592984D01*
X10730896Y-12592984D02*
X10749944Y-12602508D01*
X10749944Y-12602508D02*
X10759468Y-12612031D01*
X10759468Y-12612031D02*
X10768991Y-12631079D01*
X10768991Y-12631079D02*
X10778515Y-12669174D01*
X10778515Y-12669174D02*
X10778515Y-12716793D01*
X10778515Y-12716793D02*
X10768991Y-12754888D01*
X10768991Y-12754888D02*
X10759468Y-12773936D01*
X10759468Y-12773936D02*
X10749944Y-12783460D01*
X10749944Y-12783460D02*
X10730896Y-12792984D01*
X10730896Y-12792984D02*
X10711848Y-12792984D01*
X10711848Y-12792984D02*
X10692801Y-12783460D01*
X10692801Y-12783460D02*
X10683277Y-12773936D01*
X10683277Y-12773936D02*
X10673753Y-12754888D01*
X10673753Y-12754888D02*
X10664229Y-12716793D01*
X10664229Y-12716793D02*
X10664229Y-12669174D01*
X10664229Y-12669174D02*
X10673753Y-12631079D01*
X10673753Y-12631079D02*
X10683277Y-12612031D01*
X10683277Y-12612031D02*
X10692801Y-12602508D01*
X10692801Y-12602508D02*
X10711848Y-12592984D01*
X10873753Y-12792984D02*
X10911848Y-12792984D01*
X10911848Y-12792984D02*
X10930896Y-12783460D01*
X10930896Y-12783460D02*
X10940420Y-12773936D01*
X10940420Y-12773936D02*
X10959468Y-12745365D01*
X10959468Y-12745365D02*
X10968991Y-12707269D01*
X10968991Y-12707269D02*
X10968991Y-12631079D01*
X10968991Y-12631079D02*
X10959468Y-12612031D01*
X10959468Y-12612031D02*
X10949944Y-12602508D01*
X10949944Y-12602508D02*
X10930896Y-12592984D01*
X10930896Y-12592984D02*
X10892801Y-12592984D01*
X10892801Y-12592984D02*
X10873753Y-12602508D01*
X10873753Y-12602508D02*
X10864229Y-12612031D01*
X10864229Y-12612031D02*
X10854706Y-12631079D01*
X10854706Y-12631079D02*
X10854706Y-12678698D01*
X10854706Y-12678698D02*
X10864229Y-12697746D01*
X10864229Y-12697746D02*
X10873753Y-12707269D01*
X10873753Y-12707269D02*
X10892801Y-12716793D01*
X10892801Y-12716793D02*
X10930896Y-12716793D01*
X10930896Y-12716793D02*
X10949944Y-12707269D01*
X10949944Y-12707269D02*
X10959468Y-12697746D01*
X10959468Y-12697746D02*
X10968991Y-12678698D01*
X11083277Y-12678698D02*
X11064229Y-12669174D01*
X11064229Y-12669174D02*
X11054706Y-12659650D01*
X11054706Y-12659650D02*
X11045182Y-12640603D01*
X11045182Y-12640603D02*
X11045182Y-12631079D01*
X11045182Y-12631079D02*
X11054706Y-12612031D01*
X11054706Y-12612031D02*
X11064229Y-12602508D01*
X11064229Y-12602508D02*
X11083277Y-12592984D01*
X11083277Y-12592984D02*
X11121372Y-12592984D01*
X11121372Y-12592984D02*
X11140420Y-12602508D01*
X11140420Y-12602508D02*
X11149944Y-12612031D01*
X11149944Y-12612031D02*
X11159468Y-12631079D01*
X11159468Y-12631079D02*
X11159468Y-12640603D01*
X11159468Y-12640603D02*
X11149944Y-12659650D01*
X11149944Y-12659650D02*
X11140420Y-12669174D01*
X11140420Y-12669174D02*
X11121372Y-12678698D01*
X11121372Y-12678698D02*
X11083277Y-12678698D01*
X11083277Y-12678698D02*
X11064229Y-12688222D01*
X11064229Y-12688222D02*
X11054706Y-12697746D01*
X11054706Y-12697746D02*
X11045182Y-12716793D01*
X11045182Y-12716793D02*
X11045182Y-12754888D01*
X11045182Y-12754888D02*
X11054706Y-12773936D01*
X11054706Y-12773936D02*
X11064229Y-12783460D01*
X11064229Y-12783460D02*
X11083277Y-12792984D01*
X11083277Y-12792984D02*
X11121372Y-12792984D01*
X11121372Y-12792984D02*
X11140420Y-12783460D01*
X11140420Y-12783460D02*
X11149944Y-12773936D01*
X11149944Y-12773936D02*
X11159468Y-12754888D01*
X11159468Y-12754888D02*
X11159468Y-12716793D01*
X11159468Y-12716793D02*
X11149944Y-12697746D01*
X11149944Y-12697746D02*
X11140420Y-12688222D01*
X11140420Y-12688222D02*
X11121372Y-12678698D01*
X11330896Y-12659650D02*
X11330896Y-12792984D01*
X11283277Y-12583460D02*
X11235658Y-12726317D01*
X11235658Y-12726317D02*
X11359467Y-12726317D01*
X11426134Y-12592984D02*
X11426134Y-12631079D01*
X11502325Y-12592984D02*
X11502325Y-12631079D01*
X11797563Y-12869174D02*
X11788039Y-12859650D01*
X11788039Y-12859650D02*
X11768991Y-12831079D01*
X11768991Y-12831079D02*
X11759468Y-12812031D01*
X11759468Y-12812031D02*
X11749944Y-12783460D01*
X11749944Y-12783460D02*
X11740420Y-12735841D01*
X11740420Y-12735841D02*
X11740420Y-12697746D01*
X11740420Y-12697746D02*
X11749944Y-12650127D01*
X11749944Y-12650127D02*
X11759468Y-12621555D01*
X11759468Y-12621555D02*
X11768991Y-12602508D01*
X11768991Y-12602508D02*
X11788039Y-12573936D01*
X11788039Y-12573936D02*
X11797563Y-12564412D01*
X11978515Y-12792984D02*
X11864229Y-12792984D01*
X11921372Y-12792984D02*
X11921372Y-12592984D01*
X11921372Y-12592984D02*
X11902325Y-12621555D01*
X11902325Y-12621555D02*
X11883277Y-12640603D01*
X11883277Y-12640603D02*
X11864229Y-12650127D01*
X12216610Y-12792984D02*
X12216610Y-12592984D01*
X12302325Y-12792984D02*
X12302325Y-12688222D01*
X12302325Y-12688222D02*
X12292801Y-12669174D01*
X12292801Y-12669174D02*
X12273753Y-12659650D01*
X12273753Y-12659650D02*
X12245182Y-12659650D01*
X12245182Y-12659650D02*
X12226134Y-12669174D01*
X12226134Y-12669174D02*
X12216610Y-12678698D01*
X12426134Y-12792984D02*
X12407087Y-12783460D01*
X12407087Y-12783460D02*
X12397563Y-12773936D01*
X12397563Y-12773936D02*
X12388039Y-12754888D01*
X12388039Y-12754888D02*
X12388039Y-12697746D01*
X12388039Y-12697746D02*
X12397563Y-12678698D01*
X12397563Y-12678698D02*
X12407087Y-12669174D01*
X12407087Y-12669174D02*
X12426134Y-12659650D01*
X12426134Y-12659650D02*
X12454706Y-12659650D01*
X12454706Y-12659650D02*
X12473753Y-12669174D01*
X12473753Y-12669174D02*
X12483277Y-12678698D01*
X12483277Y-12678698D02*
X12492801Y-12697746D01*
X12492801Y-12697746D02*
X12492801Y-12754888D01*
X12492801Y-12754888D02*
X12483277Y-12773936D01*
X12483277Y-12773936D02*
X12473753Y-12783460D01*
X12473753Y-12783460D02*
X12454706Y-12792984D01*
X12454706Y-12792984D02*
X12426134Y-12792984D01*
X12607087Y-12792984D02*
X12588039Y-12783460D01*
X12588039Y-12783460D02*
X12578515Y-12764412D01*
X12578515Y-12764412D02*
X12578515Y-12592984D01*
X12759468Y-12783460D02*
X12740420Y-12792984D01*
X12740420Y-12792984D02*
X12702325Y-12792984D01*
X12702325Y-12792984D02*
X12683277Y-12783460D01*
X12683277Y-12783460D02*
X12673753Y-12764412D01*
X12673753Y-12764412D02*
X12673753Y-12688222D01*
X12673753Y-12688222D02*
X12683277Y-12669174D01*
X12683277Y-12669174D02*
X12702325Y-12659650D01*
X12702325Y-12659650D02*
X12740420Y-12659650D01*
X12740420Y-12659650D02*
X12759468Y-12669174D01*
X12759468Y-12669174D02*
X12768991Y-12688222D01*
X12768991Y-12688222D02*
X12768991Y-12707269D01*
X12768991Y-12707269D02*
X12673753Y-12726317D01*
X12835658Y-12869174D02*
X12845182Y-12859650D01*
X12845182Y-12859650D02*
X12864230Y-12831079D01*
X12864230Y-12831079D02*
X12873753Y-12812031D01*
X12873753Y-12812031D02*
X12883277Y-12783460D01*
X12883277Y-12783460D02*
X12892801Y-12735841D01*
X12892801Y-12735841D02*
X12892801Y-12697746D01*
X12892801Y-12697746D02*
X12883277Y-12650127D01*
X12883277Y-12650127D02*
X12873753Y-12621555D01*
X12873753Y-12621555D02*
X12864230Y-12602508D01*
X12864230Y-12602508D02*
X12845182Y-12573936D01*
X12845182Y-12573936D02*
X12835658Y-12564412D01*
X13197563Y-12869174D02*
X13188039Y-12859650D01*
X13188039Y-12859650D02*
X13168991Y-12831079D01*
X13168991Y-12831079D02*
X13159468Y-12812031D01*
X13159468Y-12812031D02*
X13149944Y-12783460D01*
X13149944Y-12783460D02*
X13140420Y-12735841D01*
X13140420Y-12735841D02*
X13140420Y-12697746D01*
X13140420Y-12697746D02*
X13149944Y-12650127D01*
X13149944Y-12650127D02*
X13159468Y-12621555D01*
X13159468Y-12621555D02*
X13168991Y-12602508D01*
X13168991Y-12602508D02*
X13188039Y-12573936D01*
X13188039Y-12573936D02*
X13197563Y-12564412D01*
X13273753Y-12659650D02*
X13273753Y-12792984D01*
X13273753Y-12678698D02*
X13283277Y-12669174D01*
X13283277Y-12669174D02*
X13302325Y-12659650D01*
X13302325Y-12659650D02*
X13330896Y-12659650D01*
X13330896Y-12659650D02*
X13349944Y-12669174D01*
X13349944Y-12669174D02*
X13359468Y-12688222D01*
X13359468Y-12688222D02*
X13359468Y-12792984D01*
X13483277Y-12792984D02*
X13464230Y-12783460D01*
X13464230Y-12783460D02*
X13454706Y-12773936D01*
X13454706Y-12773936D02*
X13445182Y-12754888D01*
X13445182Y-12754888D02*
X13445182Y-12697746D01*
X13445182Y-12697746D02*
X13454706Y-12678698D01*
X13454706Y-12678698D02*
X13464230Y-12669174D01*
X13464230Y-12669174D02*
X13483277Y-12659650D01*
X13483277Y-12659650D02*
X13511849Y-12659650D01*
X13511849Y-12659650D02*
X13530896Y-12669174D01*
X13530896Y-12669174D02*
X13540420Y-12678698D01*
X13540420Y-12678698D02*
X13549944Y-12697746D01*
X13549944Y-12697746D02*
X13549944Y-12754888D01*
X13549944Y-12754888D02*
X13540420Y-12773936D01*
X13540420Y-12773936D02*
X13530896Y-12783460D01*
X13530896Y-12783460D02*
X13511849Y-12792984D01*
X13511849Y-12792984D02*
X13483277Y-12792984D01*
X13607087Y-12659650D02*
X13683277Y-12659650D01*
X13635658Y-12592984D02*
X13635658Y-12764412D01*
X13635658Y-12764412D02*
X13645182Y-12783460D01*
X13645182Y-12783460D02*
X13664230Y-12792984D01*
X13664230Y-12792984D02*
X13683277Y-12792984D01*
X13902325Y-12659650D02*
X13902325Y-12859650D01*
X13902325Y-12669174D02*
X13921372Y-12659650D01*
X13921372Y-12659650D02*
X13959468Y-12659650D01*
X13959468Y-12659650D02*
X13978515Y-12669174D01*
X13978515Y-12669174D02*
X13988039Y-12678698D01*
X13988039Y-12678698D02*
X13997563Y-12697746D01*
X13997563Y-12697746D02*
X13997563Y-12754888D01*
X13997563Y-12754888D02*
X13988039Y-12773936D01*
X13988039Y-12773936D02*
X13978515Y-12783460D01*
X13978515Y-12783460D02*
X13959468Y-12792984D01*
X13959468Y-12792984D02*
X13921372Y-12792984D01*
X13921372Y-12792984D02*
X13902325Y-12783460D01*
X14111849Y-12792984D02*
X14092801Y-12783460D01*
X14092801Y-12783460D02*
X14083277Y-12764412D01*
X14083277Y-12764412D02*
X14083277Y-12592984D01*
X14273753Y-12792984D02*
X14273753Y-12688222D01*
X14273753Y-12688222D02*
X14264230Y-12669174D01*
X14264230Y-12669174D02*
X14245182Y-12659650D01*
X14245182Y-12659650D02*
X14207087Y-12659650D01*
X14207087Y-12659650D02*
X14188039Y-12669174D01*
X14273753Y-12783460D02*
X14254706Y-12792984D01*
X14254706Y-12792984D02*
X14207087Y-12792984D01*
X14207087Y-12792984D02*
X14188039Y-12783460D01*
X14188039Y-12783460D02*
X14178515Y-12764412D01*
X14178515Y-12764412D02*
X14178515Y-12745365D01*
X14178515Y-12745365D02*
X14188039Y-12726317D01*
X14188039Y-12726317D02*
X14207087Y-12716793D01*
X14207087Y-12716793D02*
X14254706Y-12716793D01*
X14254706Y-12716793D02*
X14273753Y-12707269D01*
X14340420Y-12659650D02*
X14416611Y-12659650D01*
X14368992Y-12592984D02*
X14368992Y-12764412D01*
X14368992Y-12764412D02*
X14378515Y-12783460D01*
X14378515Y-12783460D02*
X14397563Y-12792984D01*
X14397563Y-12792984D02*
X14416611Y-12792984D01*
X14559468Y-12783460D02*
X14540420Y-12792984D01*
X14540420Y-12792984D02*
X14502325Y-12792984D01*
X14502325Y-12792984D02*
X14483277Y-12783460D01*
X14483277Y-12783460D02*
X14473753Y-12764412D01*
X14473753Y-12764412D02*
X14473753Y-12688222D01*
X14473753Y-12688222D02*
X14483277Y-12669174D01*
X14483277Y-12669174D02*
X14502325Y-12659650D01*
X14502325Y-12659650D02*
X14540420Y-12659650D01*
X14540420Y-12659650D02*
X14559468Y-12669174D01*
X14559468Y-12669174D02*
X14568992Y-12688222D01*
X14568992Y-12688222D02*
X14568992Y-12707269D01*
X14568992Y-12707269D02*
X14473753Y-12726317D01*
X14740420Y-12792984D02*
X14740420Y-12592984D01*
X14740420Y-12783460D02*
X14721373Y-12792984D01*
X14721373Y-12792984D02*
X14683277Y-12792984D01*
X14683277Y-12792984D02*
X14664230Y-12783460D01*
X14664230Y-12783460D02*
X14654706Y-12773936D01*
X14654706Y-12773936D02*
X14645182Y-12754888D01*
X14645182Y-12754888D02*
X14645182Y-12697746D01*
X14645182Y-12697746D02*
X14654706Y-12678698D01*
X14654706Y-12678698D02*
X14664230Y-12669174D01*
X14664230Y-12669174D02*
X14683277Y-12659650D01*
X14683277Y-12659650D02*
X14721373Y-12659650D01*
X14721373Y-12659650D02*
X14740420Y-12669174D01*
X14816611Y-12869174D02*
X14826134Y-12859650D01*
X14826134Y-12859650D02*
X14845182Y-12831079D01*
X14845182Y-12831079D02*
X14854706Y-12812031D01*
X14854706Y-12812031D02*
X14864230Y-12783460D01*
X14864230Y-12783460D02*
X14873753Y-12735841D01*
X14873753Y-12735841D02*
X14873753Y-12697746D01*
X14873753Y-12697746D02*
X14864230Y-12650127D01*
X14864230Y-12650127D02*
X14854706Y-12621555D01*
X14854706Y-12621555D02*
X14845182Y-12602508D01*
X14845182Y-12602508D02*
X14826134Y-12573936D01*
X14826134Y-12573936D02*
X14816611Y-12564412D01*
X8193211Y-13092211D02*
X8193211Y-12950789D01*
X8051789Y-12950789D01*
X8051789Y-13092211D01*
X8193211Y-13092211D01*
X8473753Y-12932031D02*
X8483277Y-12922508D01*
X8483277Y-12922508D02*
X8502324Y-12912984D01*
X8502324Y-12912984D02*
X8549944Y-12912984D01*
X8549944Y-12912984D02*
X8568991Y-12922508D01*
X8568991Y-12922508D02*
X8578515Y-12932031D01*
X8578515Y-12932031D02*
X8588039Y-12951079D01*
X8588039Y-12951079D02*
X8588039Y-12970127D01*
X8588039Y-12970127D02*
X8578515Y-12998698D01*
X8578515Y-12998698D02*
X8464229Y-13112984D01*
X8464229Y-13112984D02*
X8588039Y-13112984D01*
X8673753Y-13093936D02*
X8683277Y-13103460D01*
X8683277Y-13103460D02*
X8673753Y-13112984D01*
X8673753Y-13112984D02*
X8664229Y-13103460D01*
X8664229Y-13103460D02*
X8673753Y-13093936D01*
X8673753Y-13093936D02*
X8673753Y-13112984D01*
X8749944Y-12912984D02*
X8883277Y-12912984D01*
X8883277Y-12912984D02*
X8797563Y-13112984D01*
X8997563Y-12912984D02*
X9016610Y-12912984D01*
X9016610Y-12912984D02*
X9035658Y-12922508D01*
X9035658Y-12922508D02*
X9045182Y-12932031D01*
X9045182Y-12932031D02*
X9054705Y-12951079D01*
X9054705Y-12951079D02*
X9064229Y-12989174D01*
X9064229Y-12989174D02*
X9064229Y-13036793D01*
X9064229Y-13036793D02*
X9054705Y-13074888D01*
X9054705Y-13074888D02*
X9045182Y-13093936D01*
X9045182Y-13093936D02*
X9035658Y-13103460D01*
X9035658Y-13103460D02*
X9016610Y-13112984D01*
X9016610Y-13112984D02*
X8997563Y-13112984D01*
X8997563Y-13112984D02*
X8978515Y-13103460D01*
X8978515Y-13103460D02*
X8968991Y-13093936D01*
X8968991Y-13093936D02*
X8959467Y-13074888D01*
X8959467Y-13074888D02*
X8949944Y-13036793D01*
X8949944Y-13036793D02*
X8949944Y-12989174D01*
X8949944Y-12989174D02*
X8959467Y-12951079D01*
X8959467Y-12951079D02*
X8968991Y-12932031D01*
X8968991Y-12932031D02*
X8978515Y-12922508D01*
X8978515Y-12922508D02*
X8997563Y-12912984D01*
X9188039Y-12912984D02*
X9207086Y-12912984D01*
X9207086Y-12912984D02*
X9226134Y-12922508D01*
X9226134Y-12922508D02*
X9235658Y-12932031D01*
X9235658Y-12932031D02*
X9245182Y-12951079D01*
X9245182Y-12951079D02*
X9254705Y-12989174D01*
X9254705Y-12989174D02*
X9254705Y-13036793D01*
X9254705Y-13036793D02*
X9245182Y-13074888D01*
X9245182Y-13074888D02*
X9235658Y-13093936D01*
X9235658Y-13093936D02*
X9226134Y-13103460D01*
X9226134Y-13103460D02*
X9207086Y-13112984D01*
X9207086Y-13112984D02*
X9188039Y-13112984D01*
X9188039Y-13112984D02*
X9168991Y-13103460D01*
X9168991Y-13103460D02*
X9159467Y-13093936D01*
X9159467Y-13093936D02*
X9149944Y-13074888D01*
X9149944Y-13074888D02*
X9140420Y-13036793D01*
X9140420Y-13036793D02*
X9140420Y-12989174D01*
X9140420Y-12989174D02*
X9149944Y-12951079D01*
X9149944Y-12951079D02*
X9159467Y-12932031D01*
X9159467Y-12932031D02*
X9168991Y-12922508D01*
X9168991Y-12922508D02*
X9188039Y-12912984D01*
X9340420Y-13112984D02*
X9340420Y-12979650D01*
X9340420Y-12998698D02*
X9349944Y-12989174D01*
X9349944Y-12989174D02*
X9368991Y-12979650D01*
X9368991Y-12979650D02*
X9397563Y-12979650D01*
X9397563Y-12979650D02*
X9416610Y-12989174D01*
X9416610Y-12989174D02*
X9426134Y-13008222D01*
X9426134Y-13008222D02*
X9426134Y-13112984D01*
X9426134Y-13008222D02*
X9435658Y-12989174D01*
X9435658Y-12989174D02*
X9454705Y-12979650D01*
X9454705Y-12979650D02*
X9483277Y-12979650D01*
X9483277Y-12979650D02*
X9502325Y-12989174D01*
X9502325Y-12989174D02*
X9511848Y-13008222D01*
X9511848Y-13008222D02*
X9511848Y-13112984D01*
X9607086Y-13112984D02*
X9607086Y-12979650D01*
X9607086Y-12998698D02*
X9616610Y-12989174D01*
X9616610Y-12989174D02*
X9635658Y-12979650D01*
X9635658Y-12979650D02*
X9664229Y-12979650D01*
X9664229Y-12979650D02*
X9683277Y-12989174D01*
X9683277Y-12989174D02*
X9692801Y-13008222D01*
X9692801Y-13008222D02*
X9692801Y-13112984D01*
X9692801Y-13008222D02*
X9702325Y-12989174D01*
X9702325Y-12989174D02*
X9721372Y-12979650D01*
X9721372Y-12979650D02*
X9749944Y-12979650D01*
X9749944Y-12979650D02*
X9768991Y-12989174D01*
X9768991Y-12989174D02*
X9778515Y-13008222D01*
X9778515Y-13008222D02*
X9778515Y-13112984D01*
X10168991Y-12903460D02*
X9997563Y-13160603D01*
X10426134Y-12912984D02*
X10445182Y-12912984D01*
X10445182Y-12912984D02*
X10464229Y-12922508D01*
X10464229Y-12922508D02*
X10473753Y-12932031D01*
X10473753Y-12932031D02*
X10483277Y-12951079D01*
X10483277Y-12951079D02*
X10492801Y-12989174D01*
X10492801Y-12989174D02*
X10492801Y-13036793D01*
X10492801Y-13036793D02*
X10483277Y-13074888D01*
X10483277Y-13074888D02*
X10473753Y-13093936D01*
X10473753Y-13093936D02*
X10464229Y-13103460D01*
X10464229Y-13103460D02*
X10445182Y-13112984D01*
X10445182Y-13112984D02*
X10426134Y-13112984D01*
X10426134Y-13112984D02*
X10407087Y-13103460D01*
X10407087Y-13103460D02*
X10397563Y-13093936D01*
X10397563Y-13093936D02*
X10388039Y-13074888D01*
X10388039Y-13074888D02*
X10378515Y-13036793D01*
X10378515Y-13036793D02*
X10378515Y-12989174D01*
X10378515Y-12989174D02*
X10388039Y-12951079D01*
X10388039Y-12951079D02*
X10397563Y-12932031D01*
X10397563Y-12932031D02*
X10407087Y-12922508D01*
X10407087Y-12922508D02*
X10426134Y-12912984D01*
X10578515Y-13093936D02*
X10588039Y-13103460D01*
X10588039Y-13103460D02*
X10578515Y-13112984D01*
X10578515Y-13112984D02*
X10568991Y-13103460D01*
X10568991Y-13103460D02*
X10578515Y-13093936D01*
X10578515Y-13093936D02*
X10578515Y-13112984D01*
X10778515Y-13112984D02*
X10664229Y-13112984D01*
X10721372Y-13112984D02*
X10721372Y-12912984D01*
X10721372Y-12912984D02*
X10702325Y-12941555D01*
X10702325Y-12941555D02*
X10683277Y-12960603D01*
X10683277Y-12960603D02*
X10664229Y-12970127D01*
X10902325Y-12912984D02*
X10921372Y-12912984D01*
X10921372Y-12912984D02*
X10940420Y-12922508D01*
X10940420Y-12922508D02*
X10949944Y-12932031D01*
X10949944Y-12932031D02*
X10959468Y-12951079D01*
X10959468Y-12951079D02*
X10968991Y-12989174D01*
X10968991Y-12989174D02*
X10968991Y-13036793D01*
X10968991Y-13036793D02*
X10959468Y-13074888D01*
X10959468Y-13074888D02*
X10949944Y-13093936D01*
X10949944Y-13093936D02*
X10940420Y-13103460D01*
X10940420Y-13103460D02*
X10921372Y-13112984D01*
X10921372Y-13112984D02*
X10902325Y-13112984D01*
X10902325Y-13112984D02*
X10883277Y-13103460D01*
X10883277Y-13103460D02*
X10873753Y-13093936D01*
X10873753Y-13093936D02*
X10864229Y-13074888D01*
X10864229Y-13074888D02*
X10854706Y-13036793D01*
X10854706Y-13036793D02*
X10854706Y-12989174D01*
X10854706Y-12989174D02*
X10864229Y-12951079D01*
X10864229Y-12951079D02*
X10873753Y-12932031D01*
X10873753Y-12932031D02*
X10883277Y-12922508D01*
X10883277Y-12922508D02*
X10902325Y-12912984D01*
X11140420Y-12912984D02*
X11102325Y-12912984D01*
X11102325Y-12912984D02*
X11083277Y-12922508D01*
X11083277Y-12922508D02*
X11073753Y-12932031D01*
X11073753Y-12932031D02*
X11054706Y-12960603D01*
X11054706Y-12960603D02*
X11045182Y-12998698D01*
X11045182Y-12998698D02*
X11045182Y-13074888D01*
X11045182Y-13074888D02*
X11054706Y-13093936D01*
X11054706Y-13093936D02*
X11064229Y-13103460D01*
X11064229Y-13103460D02*
X11083277Y-13112984D01*
X11083277Y-13112984D02*
X11121372Y-13112984D01*
X11121372Y-13112984D02*
X11140420Y-13103460D01*
X11140420Y-13103460D02*
X11149944Y-13093936D01*
X11149944Y-13093936D02*
X11159468Y-13074888D01*
X11159468Y-13074888D02*
X11159468Y-13027269D01*
X11159468Y-13027269D02*
X11149944Y-13008222D01*
X11149944Y-13008222D02*
X11140420Y-12998698D01*
X11140420Y-12998698D02*
X11121372Y-12989174D01*
X11121372Y-12989174D02*
X11083277Y-12989174D01*
X11083277Y-12989174D02*
X11064229Y-12998698D01*
X11064229Y-12998698D02*
X11054706Y-13008222D01*
X11054706Y-13008222D02*
X11045182Y-13027269D01*
X11226134Y-12912984D02*
X11349944Y-12912984D01*
X11349944Y-12912984D02*
X11283277Y-12989174D01*
X11283277Y-12989174D02*
X11311848Y-12989174D01*
X11311848Y-12989174D02*
X11330896Y-12998698D01*
X11330896Y-12998698D02*
X11340420Y-13008222D01*
X11340420Y-13008222D02*
X11349944Y-13027269D01*
X11349944Y-13027269D02*
X11349944Y-13074888D01*
X11349944Y-13074888D02*
X11340420Y-13093936D01*
X11340420Y-13093936D02*
X11330896Y-13103460D01*
X11330896Y-13103460D02*
X11311848Y-13112984D01*
X11311848Y-13112984D02*
X11254706Y-13112984D01*
X11254706Y-13112984D02*
X11235658Y-13103460D01*
X11235658Y-13103460D02*
X11226134Y-13093936D01*
X11426134Y-12912984D02*
X11426134Y-12951079D01*
X11502325Y-12912984D02*
X11502325Y-12951079D01*
X11797563Y-13189174D02*
X11788039Y-13179650D01*
X11788039Y-13179650D02*
X11768991Y-13151079D01*
X11768991Y-13151079D02*
X11759468Y-13132031D01*
X11759468Y-13132031D02*
X11749944Y-13103460D01*
X11749944Y-13103460D02*
X11740420Y-13055841D01*
X11740420Y-13055841D02*
X11740420Y-13017746D01*
X11740420Y-13017746D02*
X11749944Y-12970127D01*
X11749944Y-12970127D02*
X11759468Y-12941555D01*
X11759468Y-12941555D02*
X11768991Y-12922508D01*
X11768991Y-12922508D02*
X11788039Y-12893936D01*
X11788039Y-12893936D02*
X11797563Y-12884412D01*
X11959468Y-12979650D02*
X11959468Y-13112984D01*
X11911848Y-12903460D02*
X11864229Y-13046317D01*
X11864229Y-13046317D02*
X11988039Y-13046317D01*
X12216610Y-13112984D02*
X12216610Y-12912984D01*
X12302325Y-13112984D02*
X12302325Y-13008222D01*
X12302325Y-13008222D02*
X12292801Y-12989174D01*
X12292801Y-12989174D02*
X12273753Y-12979650D01*
X12273753Y-12979650D02*
X12245182Y-12979650D01*
X12245182Y-12979650D02*
X12226134Y-12989174D01*
X12226134Y-12989174D02*
X12216610Y-12998698D01*
X12426134Y-13112984D02*
X12407087Y-13103460D01*
X12407087Y-13103460D02*
X12397563Y-13093936D01*
X12397563Y-13093936D02*
X12388039Y-13074888D01*
X12388039Y-13074888D02*
X12388039Y-13017746D01*
X12388039Y-13017746D02*
X12397563Y-12998698D01*
X12397563Y-12998698D02*
X12407087Y-12989174D01*
X12407087Y-12989174D02*
X12426134Y-12979650D01*
X12426134Y-12979650D02*
X12454706Y-12979650D01*
X12454706Y-12979650D02*
X12473753Y-12989174D01*
X12473753Y-12989174D02*
X12483277Y-12998698D01*
X12483277Y-12998698D02*
X12492801Y-13017746D01*
X12492801Y-13017746D02*
X12492801Y-13074888D01*
X12492801Y-13074888D02*
X12483277Y-13093936D01*
X12483277Y-13093936D02*
X12473753Y-13103460D01*
X12473753Y-13103460D02*
X12454706Y-13112984D01*
X12454706Y-13112984D02*
X12426134Y-13112984D01*
X12607087Y-13112984D02*
X12588039Y-13103460D01*
X12588039Y-13103460D02*
X12578515Y-13084412D01*
X12578515Y-13084412D02*
X12578515Y-12912984D01*
X12759468Y-13103460D02*
X12740420Y-13112984D01*
X12740420Y-13112984D02*
X12702325Y-13112984D01*
X12702325Y-13112984D02*
X12683277Y-13103460D01*
X12683277Y-13103460D02*
X12673753Y-13084412D01*
X12673753Y-13084412D02*
X12673753Y-13008222D01*
X12673753Y-13008222D02*
X12683277Y-12989174D01*
X12683277Y-12989174D02*
X12702325Y-12979650D01*
X12702325Y-12979650D02*
X12740420Y-12979650D01*
X12740420Y-12979650D02*
X12759468Y-12989174D01*
X12759468Y-12989174D02*
X12768991Y-13008222D01*
X12768991Y-13008222D02*
X12768991Y-13027269D01*
X12768991Y-13027269D02*
X12673753Y-13046317D01*
X12845182Y-13103460D02*
X12864230Y-13112984D01*
X12864230Y-13112984D02*
X12902325Y-13112984D01*
X12902325Y-13112984D02*
X12921372Y-13103460D01*
X12921372Y-13103460D02*
X12930896Y-13084412D01*
X12930896Y-13084412D02*
X12930896Y-13074888D01*
X12930896Y-13074888D02*
X12921372Y-13055841D01*
X12921372Y-13055841D02*
X12902325Y-13046317D01*
X12902325Y-13046317D02*
X12873753Y-13046317D01*
X12873753Y-13046317D02*
X12854706Y-13036793D01*
X12854706Y-13036793D02*
X12845182Y-13017746D01*
X12845182Y-13017746D02*
X12845182Y-13008222D01*
X12845182Y-13008222D02*
X12854706Y-12989174D01*
X12854706Y-12989174D02*
X12873753Y-12979650D01*
X12873753Y-12979650D02*
X12902325Y-12979650D01*
X12902325Y-12979650D02*
X12921372Y-12989174D01*
X12997563Y-13189174D02*
X13007087Y-13179650D01*
X13007087Y-13179650D02*
X13026134Y-13151079D01*
X13026134Y-13151079D02*
X13035658Y-13132031D01*
X13035658Y-13132031D02*
X13045182Y-13103460D01*
X13045182Y-13103460D02*
X13054706Y-13055841D01*
X13054706Y-13055841D02*
X13054706Y-13017746D01*
X13054706Y-13017746D02*
X13045182Y-12970127D01*
X13045182Y-12970127D02*
X13035658Y-12941555D01*
X13035658Y-12941555D02*
X13026134Y-12922508D01*
X13026134Y-12922508D02*
X13007087Y-12893936D01*
X13007087Y-12893936D02*
X12997563Y-12884412D01*
X13359468Y-13189174D02*
X13349944Y-13179650D01*
X13349944Y-13179650D02*
X13330896Y-13151079D01*
X13330896Y-13151079D02*
X13321372Y-13132031D01*
X13321372Y-13132031D02*
X13311849Y-13103460D01*
X13311849Y-13103460D02*
X13302325Y-13055841D01*
X13302325Y-13055841D02*
X13302325Y-13017746D01*
X13302325Y-13017746D02*
X13311849Y-12970127D01*
X13311849Y-12970127D02*
X13321372Y-12941555D01*
X13321372Y-12941555D02*
X13330896Y-12922508D01*
X13330896Y-12922508D02*
X13349944Y-12893936D01*
X13349944Y-12893936D02*
X13359468Y-12884412D01*
X13435658Y-12979650D02*
X13435658Y-13112984D01*
X13435658Y-12998698D02*
X13445182Y-12989174D01*
X13445182Y-12989174D02*
X13464230Y-12979650D01*
X13464230Y-12979650D02*
X13492801Y-12979650D01*
X13492801Y-12979650D02*
X13511849Y-12989174D01*
X13511849Y-12989174D02*
X13521372Y-13008222D01*
X13521372Y-13008222D02*
X13521372Y-13112984D01*
X13645182Y-13112984D02*
X13626134Y-13103460D01*
X13626134Y-13103460D02*
X13616611Y-13093936D01*
X13616611Y-13093936D02*
X13607087Y-13074888D01*
X13607087Y-13074888D02*
X13607087Y-13017746D01*
X13607087Y-13017746D02*
X13616611Y-12998698D01*
X13616611Y-12998698D02*
X13626134Y-12989174D01*
X13626134Y-12989174D02*
X13645182Y-12979650D01*
X13645182Y-12979650D02*
X13673753Y-12979650D01*
X13673753Y-12979650D02*
X13692801Y-12989174D01*
X13692801Y-12989174D02*
X13702325Y-12998698D01*
X13702325Y-12998698D02*
X13711849Y-13017746D01*
X13711849Y-13017746D02*
X13711849Y-13074888D01*
X13711849Y-13074888D02*
X13702325Y-13093936D01*
X13702325Y-13093936D02*
X13692801Y-13103460D01*
X13692801Y-13103460D02*
X13673753Y-13112984D01*
X13673753Y-13112984D02*
X13645182Y-13112984D01*
X13768992Y-12979650D02*
X13845182Y-12979650D01*
X13797563Y-12912984D02*
X13797563Y-13084412D01*
X13797563Y-13084412D02*
X13807087Y-13103460D01*
X13807087Y-13103460D02*
X13826134Y-13112984D01*
X13826134Y-13112984D02*
X13845182Y-13112984D01*
X14064230Y-12979650D02*
X14064230Y-13179650D01*
X14064230Y-12989174D02*
X14083277Y-12979650D01*
X14083277Y-12979650D02*
X14121373Y-12979650D01*
X14121373Y-12979650D02*
X14140420Y-12989174D01*
X14140420Y-12989174D02*
X14149944Y-12998698D01*
X14149944Y-12998698D02*
X14159468Y-13017746D01*
X14159468Y-13017746D02*
X14159468Y-13074888D01*
X14159468Y-13074888D02*
X14149944Y-13093936D01*
X14149944Y-13093936D02*
X14140420Y-13103460D01*
X14140420Y-13103460D02*
X14121373Y-13112984D01*
X14121373Y-13112984D02*
X14083277Y-13112984D01*
X14083277Y-13112984D02*
X14064230Y-13103460D01*
X14273753Y-13112984D02*
X14254706Y-13103460D01*
X14254706Y-13103460D02*
X14245182Y-13084412D01*
X14245182Y-13084412D02*
X14245182Y-12912984D01*
X14435658Y-13112984D02*
X14435658Y-13008222D01*
X14435658Y-13008222D02*
X14426134Y-12989174D01*
X14426134Y-12989174D02*
X14407087Y-12979650D01*
X14407087Y-12979650D02*
X14368992Y-12979650D01*
X14368992Y-12979650D02*
X14349944Y-12989174D01*
X14435658Y-13103460D02*
X14416611Y-13112984D01*
X14416611Y-13112984D02*
X14368992Y-13112984D01*
X14368992Y-13112984D02*
X14349944Y-13103460D01*
X14349944Y-13103460D02*
X14340420Y-13084412D01*
X14340420Y-13084412D02*
X14340420Y-13065365D01*
X14340420Y-13065365D02*
X14349944Y-13046317D01*
X14349944Y-13046317D02*
X14368992Y-13036793D01*
X14368992Y-13036793D02*
X14416611Y-13036793D01*
X14416611Y-13036793D02*
X14435658Y-13027269D01*
X14502325Y-12979650D02*
X14578515Y-12979650D01*
X14530896Y-12912984D02*
X14530896Y-13084412D01*
X14530896Y-13084412D02*
X14540420Y-13103460D01*
X14540420Y-13103460D02*
X14559468Y-13112984D01*
X14559468Y-13112984D02*
X14578515Y-13112984D01*
X14721373Y-13103460D02*
X14702325Y-13112984D01*
X14702325Y-13112984D02*
X14664230Y-13112984D01*
X14664230Y-13112984D02*
X14645182Y-13103460D01*
X14645182Y-13103460D02*
X14635658Y-13084412D01*
X14635658Y-13084412D02*
X14635658Y-13008222D01*
X14635658Y-13008222D02*
X14645182Y-12989174D01*
X14645182Y-12989174D02*
X14664230Y-12979650D01*
X14664230Y-12979650D02*
X14702325Y-12979650D01*
X14702325Y-12979650D02*
X14721373Y-12989174D01*
X14721373Y-12989174D02*
X14730896Y-13008222D01*
X14730896Y-13008222D02*
X14730896Y-13027269D01*
X14730896Y-13027269D02*
X14635658Y-13046317D01*
X14902325Y-13112984D02*
X14902325Y-12912984D01*
X14902325Y-13103460D02*
X14883277Y-13112984D01*
X14883277Y-13112984D02*
X14845182Y-13112984D01*
X14845182Y-13112984D02*
X14826134Y-13103460D01*
X14826134Y-13103460D02*
X14816611Y-13093936D01*
X14816611Y-13093936D02*
X14807087Y-13074888D01*
X14807087Y-13074888D02*
X14807087Y-13017746D01*
X14807087Y-13017746D02*
X14816611Y-12998698D01*
X14816611Y-12998698D02*
X14826134Y-12989174D01*
X14826134Y-12989174D02*
X14845182Y-12979650D01*
X14845182Y-12979650D02*
X14883277Y-12979650D01*
X14883277Y-12979650D02*
X14902325Y-12989174D01*
X14978515Y-13189174D02*
X14988039Y-13179650D01*
X14988039Y-13179650D02*
X15007087Y-13151079D01*
X15007087Y-13151079D02*
X15016611Y-13132031D01*
X15016611Y-13132031D02*
X15026134Y-13103460D01*
X15026134Y-13103460D02*
X15035658Y-13055841D01*
X15035658Y-13055841D02*
X15035658Y-13017746D01*
X15035658Y-13017746D02*
X15026134Y-12970127D01*
X15026134Y-12970127D02*
X15016611Y-12941555D01*
X15016611Y-12941555D02*
X15007087Y-12922508D01*
X15007087Y-12922508D02*
X14988039Y-12893936D01*
X14988039Y-12893936D02*
X14978515Y-12884412D01*
M02*
