G04 #@! TF.GenerationSoftware,KiCad,Pcbnew,7.0.8*
G04 #@! TF.CreationDate,2023-10-01T21:36:48-07:00*
G04 #@! TF.ProjectId,babelfish,62616265-6c66-4697-9368-2e6b69636164,REV1*
G04 #@! TF.SameCoordinates,Original*
G04 #@! TF.FileFunction,Copper,L4,Bot*
G04 #@! TF.FilePolarity,Positive*
%FSLAX46Y46*%
G04 Gerber Fmt 4.6, Leading zero omitted, Abs format (unit mm)*
G04 Created by KiCad (PCBNEW 7.0.8) date 2023-10-01 21:36:48*
%MOMM*%
%LPD*%
G01*
G04 APERTURE LIST*
G04 #@! TA.AperFunction,ComponentPad*
%ADD10R,1.700000X1.700000*%
G04 #@! TD*
G04 #@! TA.AperFunction,ComponentPad*
%ADD11O,1.700000X1.700000*%
G04 #@! TD*
G04 #@! TA.AperFunction,ComponentPad*
%ADD12O,1.000000X2.100000*%
G04 #@! TD*
G04 #@! TA.AperFunction,ComponentPad*
%ADD13O,1.000000X1.800000*%
G04 #@! TD*
G04 #@! TA.AperFunction,ComponentPad*
%ADD14C,1.750000*%
G04 #@! TD*
G04 #@! TA.AperFunction,ComponentPad*
%ADD15O,1.599949X1.600000*%
G04 #@! TD*
G04 #@! TA.AperFunction,ComponentPad*
%ADD16O,1.200000X2.200000*%
G04 #@! TD*
G04 #@! TA.AperFunction,ComponentPad*
%ADD17C,0.600000*%
G04 #@! TD*
G04 #@! TA.AperFunction,ComponentPad*
%ADD18C,1.500000*%
G04 #@! TD*
G04 #@! TA.AperFunction,ComponentPad*
%ADD19C,3.100000*%
G04 #@! TD*
G04 #@! TA.AperFunction,ComponentPad*
%ADD20R,1.574803X1.574803*%
G04 #@! TD*
G04 #@! TA.AperFunction,ComponentPad*
%ADD21C,1.574803*%
G04 #@! TD*
G04 #@! TA.AperFunction,ComponentPad*
%ADD22C,5.000000*%
G04 #@! TD*
G04 #@! TA.AperFunction,ViaPad*
%ADD23C,0.600000*%
G04 #@! TD*
G04 #@! TA.AperFunction,Conductor*
%ADD24C,0.150000*%
G04 #@! TD*
G04 #@! TA.AperFunction,Conductor*
%ADD25C,0.300000*%
G04 #@! TD*
G04 #@! TA.AperFunction,Conductor*
%ADD26C,0.400000*%
G04 #@! TD*
G04 APERTURE END LIST*
D10*
X91260000Y-112100000D03*
D11*
X93800000Y-112100000D03*
X96340000Y-112100000D03*
D12*
X120025500Y-76169086D03*
X111385419Y-76169086D03*
D13*
X111385419Y-71989000D03*
X120025500Y-71989000D03*
D14*
X88340000Y-83710000D03*
X85800000Y-82440000D03*
X88340000Y-81170000D03*
X85800000Y-79900000D03*
D15*
X128999975Y-73542990D03*
X127000000Y-73543066D03*
X125000000Y-73543066D03*
D16*
X122849886Y-73543066D03*
X131150114Y-73543066D03*
D17*
X110750500Y-87651500D03*
X110750500Y-88926500D03*
X110750500Y-90201500D03*
X112025500Y-87651500D03*
X112025500Y-88926500D03*
X112025500Y-90201500D03*
X113300500Y-87651500D03*
X113300500Y-88926500D03*
X113300500Y-90201500D03*
D18*
X115300000Y-103740000D03*
X117800000Y-103740000D03*
X119800000Y-103740000D03*
X122300000Y-103740000D03*
D19*
X111800000Y-106450000D03*
X125800000Y-106450000D03*
D20*
X130160020Y-86600076D03*
D21*
X130160020Y-89360045D03*
X130160020Y-92120015D03*
X130160020Y-94879985D03*
X130160020Y-97639954D03*
X133000000Y-87980061D03*
X133000000Y-90740030D03*
X133000000Y-93500000D03*
X133000000Y-96259969D03*
D22*
X131579883Y-79619888D03*
X131579883Y-104619888D03*
D23*
X116800000Y-88800000D03*
X120000000Y-89400000D03*
X117700000Y-88800000D03*
X86900000Y-98100000D03*
X85300000Y-98100000D03*
X102500000Y-84600000D03*
X123100000Y-76300000D03*
X127800000Y-80400000D03*
X121300000Y-81800000D03*
X105000000Y-112500000D03*
X125369979Y-84130051D03*
X127500000Y-94000000D03*
X116800000Y-80100000D03*
X91825905Y-104350013D03*
X115200000Y-96100000D03*
X100000000Y-106700000D03*
X93600000Y-70700000D03*
X95000000Y-97400000D03*
X105700000Y-90300000D03*
X120100000Y-98900000D03*
X95000000Y-85600000D03*
X118900000Y-89600000D03*
X95025905Y-91800013D03*
X127800000Y-83100000D03*
X95000000Y-98400000D03*
X121600000Y-93700000D03*
X117900000Y-88000000D03*
X116050000Y-101750000D03*
X110800000Y-93410000D03*
X111300000Y-78400000D03*
X117800000Y-79550000D03*
X101200000Y-105800000D03*
X115225000Y-82300000D03*
X116900000Y-88000000D03*
X91825905Y-105350013D03*
X124069979Y-84130051D03*
X105000000Y-84800000D03*
X113425000Y-79175000D03*
X111875000Y-81025000D03*
X110925000Y-81025000D03*
X124769979Y-84830051D03*
X127800000Y-82080051D03*
X108500000Y-85400000D03*
X93600000Y-73900000D03*
X127800000Y-83930051D03*
X123369979Y-87330051D03*
X120100000Y-100700000D03*
X124400000Y-98800000D03*
X95025905Y-90800013D03*
X94975905Y-84500000D03*
X117850000Y-84450000D03*
X100000000Y-105800000D03*
X107100000Y-81300000D03*
X127950000Y-86650000D03*
X118350000Y-78200000D03*
X121400000Y-83300000D03*
X88300000Y-99500000D03*
X97500000Y-88300000D03*
X86000000Y-104000000D03*
X116200000Y-96100000D03*
X107500000Y-89800000D03*
X104300000Y-73900000D03*
X90400000Y-90900000D03*
X127800000Y-101300000D03*
X119800000Y-83650000D03*
X111875500Y-83789000D03*
X120500000Y-88300000D03*
X111600000Y-91300000D03*
X116900000Y-83750000D03*
X105025500Y-86039000D03*
X121300000Y-88300000D03*
X100300000Y-102300000D03*
X94100000Y-101900000D03*
X96900000Y-94900000D03*
X119700000Y-88300000D03*
X102477600Y-79814000D03*
X99400000Y-80500000D03*
X110925500Y-83589000D03*
X115425500Y-84189000D03*
X120400000Y-96700000D03*
X123979122Y-95120878D03*
X125069979Y-80930051D03*
X123569979Y-80930051D03*
X126100000Y-102400000D03*
X124369979Y-80930051D03*
X97300000Y-76500000D03*
X117500000Y-93300000D03*
X115500000Y-92400000D03*
X114400000Y-91177000D03*
X110590000Y-102050000D03*
X111400000Y-101470000D03*
X92600000Y-93200000D03*
X85300000Y-89200000D03*
X93300000Y-93824500D03*
X103300000Y-92400000D03*
X86600000Y-89200000D03*
X105300000Y-92900000D03*
X102179122Y-89420878D03*
X105300000Y-93800000D03*
X89400000Y-96000000D03*
X91300000Y-94700000D03*
X86300000Y-99500000D03*
X92100000Y-78100000D03*
X101200000Y-87400000D03*
X101500000Y-88100000D03*
X95900500Y-87400250D03*
X95000000Y-89900000D03*
X91800000Y-103400000D03*
X95000000Y-96400000D03*
X96500000Y-98000000D03*
X97200000Y-96000000D03*
X93900000Y-102850000D03*
X92700000Y-104050000D03*
X101000000Y-83800000D03*
X106900000Y-87000000D03*
X91800000Y-82100000D03*
X102500000Y-99300000D03*
X100400000Y-81400000D03*
X105800000Y-98400000D03*
X97100000Y-84600000D03*
X97300000Y-91400000D03*
X97100000Y-85500000D03*
X96300000Y-91400000D03*
X103800000Y-99200000D03*
X91900000Y-88400000D03*
X101300000Y-89400000D03*
X104500000Y-96600000D03*
X95000000Y-95500000D03*
X107200000Y-111724500D03*
X100900000Y-95300000D03*
X106884495Y-99800000D03*
X94100000Y-105000000D03*
X95500000Y-100600000D03*
X96400000Y-100600000D03*
X93300000Y-105600000D03*
X108500000Y-111200000D03*
X91800000Y-102300000D03*
X108300000Y-101500000D03*
X98100000Y-102100000D03*
D24*
X120000000Y-89400000D02*
X119675000Y-89075000D01*
X119675000Y-89075000D02*
X118625000Y-89075000D01*
X118625000Y-89075000D02*
X118375000Y-89325000D01*
X118375000Y-89325000D02*
X117325000Y-89325000D01*
X117325000Y-89325000D02*
X116800000Y-88800000D01*
D25*
X121400000Y-83300000D02*
X120500000Y-83300000D01*
X120500000Y-83300000D02*
X118900000Y-81700000D01*
X118900000Y-81700000D02*
X118900000Y-78750000D01*
X118900000Y-78750000D02*
X118350000Y-78200000D01*
D24*
X121400000Y-83300000D02*
X121400000Y-83600000D01*
X124450000Y-86650000D02*
X127950000Y-86650000D01*
X121400000Y-83600000D02*
X124450000Y-86650000D01*
D26*
X112025500Y-90201500D02*
X111375500Y-89551500D01*
X112000500Y-88926500D02*
X111375500Y-89551500D01*
X112025500Y-90201500D02*
X113300500Y-88926500D01*
D25*
X111363000Y-89589000D02*
X111375500Y-89589000D01*
X111375500Y-89589000D02*
X111375500Y-89551500D01*
D26*
X112025500Y-88926500D02*
X113300500Y-90201500D01*
X110750500Y-90201500D02*
X111363000Y-89589000D01*
X111375500Y-89551500D02*
X110750500Y-88926500D01*
X112025500Y-88926500D02*
X113300500Y-87651500D01*
X110750500Y-87651500D02*
X112025500Y-88926500D01*
X113300500Y-88926500D02*
X112025500Y-87651500D01*
X110750500Y-88926500D02*
X112025500Y-87651500D01*
D24*
X111650500Y-84314000D02*
X115300500Y-84314000D01*
X110925500Y-83589000D02*
X111650500Y-84314000D01*
X115300500Y-84314000D02*
X115425500Y-84189000D01*
X97410344Y-113170344D02*
X122329656Y-113170344D01*
X128000000Y-104300000D02*
X126100000Y-102400000D01*
X128000000Y-107500000D02*
X128000000Y-104300000D01*
X96340000Y-112100000D02*
X97410344Y-113170344D01*
X122329656Y-113170344D02*
X128000000Y-107500000D01*
X116100000Y-87300000D02*
X116100000Y-91900000D01*
X104600000Y-76500000D02*
X110400500Y-82300500D01*
X112694037Y-86100000D02*
X114900000Y-86100000D01*
X97300000Y-76500000D02*
X104600000Y-76500000D01*
X110400500Y-82300500D02*
X110400500Y-83806463D01*
X116100000Y-91900000D02*
X117500000Y-93300000D01*
X110400500Y-83806463D02*
X112694037Y-86100000D01*
X114900000Y-86100000D02*
X116100000Y-87300000D01*
X110100500Y-83930727D02*
X110100500Y-82600500D01*
X84300000Y-80940000D02*
X85800000Y-82440000D01*
X110100500Y-82600500D02*
X104695000Y-77195000D01*
X115500000Y-92400000D02*
X115500000Y-87400000D01*
X85705000Y-77195000D02*
X84300000Y-78600000D01*
X104695000Y-77195000D02*
X85705000Y-77195000D01*
X114600000Y-86500000D02*
X112669773Y-86500000D01*
X112669773Y-86500000D02*
X110100500Y-83930727D01*
X115500000Y-87400000D02*
X114600000Y-86500000D01*
X84300000Y-78600000D02*
X84300000Y-80940000D01*
X114400000Y-91177000D02*
X114500000Y-91077000D01*
X85900000Y-80000000D02*
X85800000Y-79900000D01*
X104475000Y-77575000D02*
X91279544Y-77575000D01*
X114500000Y-87000000D02*
X114412132Y-86912132D01*
X88854544Y-80000000D02*
X85900000Y-80000000D01*
X114412132Y-86912132D02*
X112657641Y-86912132D01*
X112657641Y-86912132D02*
X109800500Y-84054991D01*
X109800500Y-84054991D02*
X109800500Y-82900500D01*
X109800500Y-82900500D02*
X104475000Y-77575000D01*
X91279544Y-77575000D02*
X88854544Y-80000000D01*
X114500000Y-91077000D02*
X114500000Y-87000000D01*
X127640000Y-99425000D02*
X115623528Y-99425000D01*
X112998528Y-102050000D02*
X110590000Y-102050000D01*
X128374974Y-99425000D02*
X127640000Y-99425000D01*
X115623528Y-99425000D02*
X112998528Y-102050000D01*
X130160020Y-97639954D02*
X128374974Y-99425000D01*
X116697132Y-97927132D02*
X113154264Y-101470000D01*
X111400000Y-101470000D02*
X111310000Y-101470000D01*
X127112873Y-97927132D02*
X116697132Y-97927132D01*
X130160020Y-94879985D02*
X127112873Y-97927132D01*
X113154264Y-101470000D02*
X111400000Y-101470000D01*
X92630344Y-113470344D02*
X91260000Y-112100000D01*
X134500000Y-106200000D02*
X132200000Y-108500000D01*
X133000000Y-87980061D02*
X134500000Y-89480061D01*
X122529656Y-113470344D02*
X92630344Y-113470344D01*
X132200000Y-108500000D02*
X127500000Y-108500000D01*
X134500000Y-89480061D02*
X134500000Y-106200000D01*
X127500000Y-108500000D02*
X122529656Y-113470344D01*
X89857537Y-93200000D02*
X92600000Y-93200000D01*
X85857537Y-89200000D02*
X89857537Y-93200000D01*
X85300000Y-89200000D02*
X85857537Y-89200000D01*
X105300000Y-92900000D02*
X103800000Y-92900000D01*
X86600000Y-89200000D02*
X89442463Y-89200000D01*
X103800000Y-92900000D02*
X103300000Y-92400000D01*
X93300000Y-93057537D02*
X93300000Y-93824500D01*
X89442463Y-89200000D02*
X93300000Y-93057537D01*
X102179122Y-89420878D02*
X102179122Y-92021585D01*
X103957537Y-93800000D02*
X105300000Y-93800000D01*
X102179122Y-92021585D02*
X103957537Y-93800000D01*
X86700000Y-87600000D02*
X90800000Y-83500000D01*
X91200000Y-94700000D02*
X91300000Y-94700000D01*
X84400000Y-101500000D02*
X86300000Y-99600000D01*
X86300000Y-99500000D02*
X86400000Y-99500000D01*
X84400000Y-88500000D02*
X85300000Y-87600000D01*
X84400000Y-102300000D02*
X84400000Y-88500000D01*
X90800000Y-83500000D02*
X90800000Y-79300000D01*
X89600000Y-107900000D02*
X86400000Y-107900000D01*
X89400000Y-96500000D02*
X89400000Y-96000000D01*
X89400000Y-96500000D02*
X91200000Y-94700000D01*
X84400000Y-105900000D02*
X84400000Y-102300000D01*
X86300000Y-99600000D02*
X86300000Y-99500000D01*
X86400000Y-107900000D02*
X84400000Y-105900000D01*
X86400000Y-99500000D02*
X89400000Y-96500000D01*
X90800000Y-79300000D02*
X92000000Y-78100000D01*
X93800000Y-112100000D02*
X89600000Y-107900000D01*
X84400000Y-102300000D02*
X84400000Y-101500000D01*
X92000000Y-78100000D02*
X92100000Y-78100000D01*
X85300000Y-87600000D02*
X86700000Y-87600000D01*
X101600000Y-87400000D02*
X108200000Y-94000000D01*
X108200000Y-94000000D02*
X118700000Y-94000000D01*
X101200000Y-87400000D02*
X101600000Y-87400000D01*
X123339955Y-89360045D02*
X130160020Y-89360045D01*
X118700000Y-94000000D02*
X123339955Y-89360045D01*
X118900000Y-94300000D02*
X122459970Y-90740030D01*
X107800000Y-94300000D02*
X118900000Y-94300000D01*
X95900500Y-87400250D02*
X95900500Y-88999500D01*
X101500000Y-88100000D02*
X101600000Y-88100000D01*
X95900500Y-88999500D02*
X95000000Y-89900000D01*
X101600000Y-88100000D02*
X107800000Y-94300000D01*
X122459970Y-90740030D02*
X133000000Y-90740030D01*
X113300000Y-100900000D02*
X121500000Y-92700000D01*
X129500000Y-93500000D02*
X133000000Y-93500000D01*
X91800000Y-103400000D02*
X95200000Y-100000000D01*
X98233273Y-100900000D02*
X113300000Y-100900000D01*
X121500000Y-92700000D02*
X128700000Y-92700000D01*
X95200000Y-100000000D02*
X97333273Y-100000000D01*
X97333273Y-100000000D02*
X98233273Y-100900000D01*
X128700000Y-92700000D02*
X129500000Y-93500000D01*
X95800000Y-98042463D02*
X95800000Y-97200000D01*
X121579985Y-92120015D02*
X113100000Y-100600000D01*
X113100000Y-100600000D02*
X98357537Y-100600000D01*
X95800000Y-97200000D02*
X95000000Y-96400000D01*
X98357537Y-100600000D02*
X95800000Y-98042463D01*
X130160020Y-92120015D02*
X121579985Y-92120015D01*
X96500000Y-98000000D02*
X96500000Y-96700000D01*
X96500000Y-96700000D02*
X97200000Y-96000000D01*
X92700000Y-104050000D02*
X93900000Y-102850000D01*
X101000000Y-83800000D02*
X101000000Y-86300000D01*
X101700000Y-87000000D02*
X106900000Y-87000000D01*
X101000000Y-86300000D02*
X101700000Y-87000000D01*
X95200000Y-93400000D02*
X91375000Y-89575000D01*
X91375000Y-89575000D02*
X91375000Y-82525000D01*
X91375000Y-82525000D02*
X91800000Y-82100000D01*
X96600000Y-93400000D02*
X95200000Y-93400000D01*
X102500000Y-99300000D02*
X96600000Y-93400000D01*
X105800000Y-98400000D02*
X105200000Y-98400000D01*
X105200000Y-98400000D02*
X100400000Y-93600000D01*
X100400000Y-93600000D02*
X100400000Y-81400000D01*
X97100000Y-84600000D02*
X97625000Y-85125000D01*
X96900000Y-91000000D02*
X97300000Y-91400000D01*
X97625000Y-85125000D02*
X97625000Y-85717463D01*
X96900000Y-86442463D02*
X96900000Y-91000000D01*
X97625000Y-85717463D02*
X96900000Y-86442463D01*
X96425000Y-91275000D02*
X96425000Y-86175000D01*
X96300000Y-91400000D02*
X96425000Y-91275000D01*
X96425000Y-86175000D02*
X97100000Y-85500000D01*
X103800000Y-99200000D02*
X97500000Y-92900000D01*
X93800000Y-91316571D02*
X93800000Y-90300000D01*
X93800000Y-90300000D02*
X91900000Y-88400000D01*
X97500000Y-92900000D02*
X95383429Y-92900000D01*
X95383429Y-92900000D02*
X93800000Y-91316571D01*
X104500000Y-96500000D02*
X101300000Y-93300000D01*
X104500000Y-96600000D02*
X104500000Y-96500000D01*
X101300000Y-93300000D02*
X101300000Y-89400000D01*
X90975000Y-105665835D02*
X90975000Y-99525000D01*
X107200000Y-111724500D02*
X107175500Y-111700000D01*
X90975000Y-99525000D02*
X95000000Y-95500000D01*
X107175500Y-111700000D02*
X98000000Y-111700000D01*
X92500000Y-106200000D02*
X91509165Y-106200000D01*
X91509165Y-106200000D02*
X90975000Y-105665835D01*
X98000000Y-111700000D02*
X92500000Y-106200000D01*
X105400000Y-99800000D02*
X100900000Y-95300000D01*
X106884495Y-99800000D02*
X105400000Y-99800000D01*
X94100000Y-105000000D02*
X95500000Y-103600000D01*
X95500000Y-103600000D02*
X95500000Y-100600000D01*
X94242463Y-105600000D02*
X93300000Y-105600000D01*
X96400000Y-103442463D02*
X94242463Y-105600000D01*
X96400000Y-100600000D02*
X96400000Y-103442463D01*
X98116715Y-111200000D02*
X92791728Y-105875013D01*
X108500000Y-111200000D02*
X98116715Y-111200000D01*
X91275000Y-105541571D02*
X91275000Y-102825000D01*
X91275000Y-102825000D02*
X91800000Y-102300000D01*
X91608442Y-105875013D02*
X91275000Y-105541571D01*
X92791728Y-105875013D02*
X91608442Y-105875013D01*
X108300000Y-101500000D02*
X98700000Y-101500000D01*
X98700000Y-101500000D02*
X98100000Y-102100000D01*
M02*
