%TF.GenerationSoftware,KiCad,Pcbnew,7.0.8*%
%TF.CreationDate,2023-10-01T21:37:42-07:00*%
%TF.ProjectId,babelfish,62616265-6c66-4697-9368-2e6b69636164,REV1*%
%TF.SameCoordinates,Original*%
%TF.FileFunction,Drillmap*%
%TF.FilePolarity,Positive*%
%FSLAX45Y45*%
G04 Gerber Fmt 4.5, Leading zero omitted, Abs format (unit mm)*
G04 Created by KiCad (PCBNEW 7.0.8) date 2023-10-01 21:37:42*
%MOMM*%
%LPD*%
G01*
G04 APERTURE LIST*
%ADD10C,0.050000*%
%ADD11C,0.200000*%
%ADD12C,0.035000*%
%ADD13C,0.060000*%
%ADD14C,0.070002*%
%ADD15C,0.090000*%
%ADD16C,0.100000*%
%ADD17C,0.110002*%
%ADD18C,0.140000*%
%ADD19C,0.210000*%
%ADD20C,0.325003*%
G04 APERTURE END LIST*
D10*
X8225000Y-6950000D02*
X13825000Y-6950000D01*
X13825000Y-11475000D01*
X8225000Y-11475000D01*
X8225000Y-6950000D01*
D11*
D12*
X8512500Y-8902500D02*
X8547500Y-8937500D01*
X8547500Y-8902500D02*
X8512500Y-8937500D01*
X8512500Y-9792500D02*
X8547500Y-9827500D01*
X8547500Y-9792500D02*
X8512500Y-9827500D01*
X8582500Y-10382500D02*
X8617500Y-10417500D01*
X8617500Y-10382500D02*
X8582500Y-10417500D01*
X8612500Y-9932500D02*
X8647500Y-9967500D01*
X8647500Y-9932500D02*
X8612500Y-9967500D01*
X8642500Y-8902500D02*
X8677500Y-8937500D01*
X8677500Y-8902500D02*
X8642500Y-8937500D01*
X8672500Y-9792500D02*
X8707500Y-9827500D01*
X8707500Y-9792500D02*
X8672500Y-9827500D01*
X8812500Y-9932500D02*
X8847500Y-9967500D01*
X8847500Y-9932500D02*
X8812500Y-9967500D01*
X8922500Y-9582500D02*
X8957500Y-9617500D01*
X8957500Y-9582500D02*
X8922500Y-9617500D01*
X9022500Y-9072500D02*
X9057500Y-9107500D01*
X9057500Y-9072500D02*
X9022500Y-9107500D01*
X9112500Y-9452500D02*
X9147500Y-9487500D01*
X9147500Y-9452500D02*
X9112500Y-9487500D01*
X9162500Y-8192500D02*
X9197500Y-8227500D01*
X9197500Y-8192500D02*
X9162500Y-8227500D01*
X9162500Y-10212500D02*
X9197500Y-10247500D01*
X9197500Y-10212500D02*
X9162500Y-10247500D01*
X9162500Y-10322500D02*
X9197500Y-10357500D01*
X9197500Y-10322500D02*
X9162500Y-10357500D01*
X9165091Y-10417501D02*
X9200091Y-10452501D01*
X9200091Y-10417501D02*
X9165091Y-10452501D01*
X9165091Y-10517501D02*
X9200091Y-10552501D01*
X9200091Y-10517501D02*
X9165091Y-10552501D01*
X9172500Y-8822500D02*
X9207500Y-8857500D01*
X9207500Y-8822500D02*
X9172500Y-8857500D01*
X9192500Y-7792500D02*
X9227500Y-7827500D01*
X9227500Y-7792500D02*
X9192500Y-7827500D01*
X9242500Y-9302500D02*
X9277500Y-9337500D01*
X9277500Y-9302500D02*
X9242500Y-9337500D01*
X9252500Y-10387500D02*
X9287500Y-10422500D01*
X9287500Y-10387500D02*
X9252500Y-10422500D01*
X9312500Y-9364950D02*
X9347500Y-9399950D01*
X9347500Y-9364950D02*
X9312500Y-9399950D01*
X9312500Y-10542500D02*
X9347500Y-10577500D01*
X9347500Y-10542500D02*
X9312500Y-10577500D01*
X9342500Y-7052500D02*
X9377500Y-7087500D01*
X9377500Y-7052500D02*
X9342500Y-7087500D01*
X9342500Y-7372500D02*
X9377500Y-7407500D01*
X9377500Y-7372500D02*
X9342500Y-7407500D01*
X9372500Y-10267500D02*
X9407500Y-10302500D01*
X9407500Y-10267500D02*
X9372500Y-10302500D01*
X9392500Y-10172500D02*
X9427500Y-10207500D01*
X9427500Y-10172500D02*
X9392500Y-10207500D01*
X9392500Y-10482500D02*
X9427500Y-10517500D01*
X9427500Y-10482500D02*
X9392500Y-10517500D01*
X9480091Y-8432500D02*
X9515091Y-8467500D01*
X9515091Y-8432500D02*
X9480091Y-8467500D01*
X9482500Y-8542500D02*
X9517500Y-8577500D01*
X9517500Y-8542500D02*
X9482500Y-8577500D01*
X9482500Y-8972500D02*
X9517500Y-9007500D01*
X9517500Y-8972500D02*
X9482500Y-9007500D01*
X9482500Y-9532500D02*
X9517500Y-9567500D01*
X9517500Y-9532500D02*
X9482500Y-9567500D01*
X9482500Y-9622500D02*
X9517500Y-9657500D01*
X9517500Y-9622500D02*
X9482500Y-9657500D01*
X9482500Y-9722500D02*
X9517500Y-9757500D01*
X9517500Y-9722500D02*
X9482500Y-9757500D01*
X9482500Y-9822500D02*
X9517500Y-9857500D01*
X9517500Y-9822500D02*
X9482500Y-9857500D01*
X9485091Y-9062501D02*
X9520091Y-9097501D01*
X9520091Y-9062501D02*
X9485091Y-9097501D01*
X9485091Y-9162501D02*
X9520091Y-9197501D01*
X9520091Y-9162501D02*
X9485091Y-9197501D01*
X9532500Y-10042500D02*
X9567500Y-10077500D01*
X9567500Y-10042500D02*
X9532500Y-10077500D01*
X9572550Y-8722525D02*
X9607550Y-8757525D01*
X9607550Y-8722525D02*
X9572550Y-8757525D01*
X9612500Y-9122500D02*
X9647500Y-9157500D01*
X9647500Y-9122500D02*
X9612500Y-9157500D01*
X9622500Y-10042500D02*
X9657500Y-10077500D01*
X9657500Y-10042500D02*
X9622500Y-10077500D01*
X9632500Y-9782500D02*
X9667500Y-9817500D01*
X9667500Y-9782500D02*
X9632500Y-9817500D01*
X9672500Y-9472500D02*
X9707500Y-9507500D01*
X9707500Y-9472500D02*
X9672500Y-9507500D01*
X9692500Y-8442500D02*
X9727500Y-8477500D01*
X9727500Y-8442500D02*
X9692500Y-8477500D01*
X9692500Y-8532500D02*
X9727500Y-8567500D01*
X9727500Y-8532500D02*
X9692500Y-8567500D01*
X9702500Y-9582500D02*
X9737500Y-9617500D01*
X9737500Y-9582500D02*
X9702500Y-9617500D01*
X9712500Y-7632500D02*
X9747500Y-7667500D01*
X9747500Y-7632500D02*
X9712500Y-7667500D01*
X9712500Y-9122500D02*
X9747500Y-9157500D01*
X9747500Y-9122500D02*
X9712500Y-9157500D01*
X9732500Y-8812500D02*
X9767500Y-8847500D01*
X9767500Y-8812500D02*
X9732500Y-8847500D01*
X9792500Y-10192500D02*
X9827500Y-10227500D01*
X9827500Y-10192500D02*
X9792500Y-10227500D01*
X9922500Y-8032500D02*
X9957500Y-8067500D01*
X9957500Y-8032500D02*
X9922500Y-8067500D01*
X9982500Y-10562500D02*
X10017500Y-10597500D01*
X10017500Y-10562500D02*
X9982500Y-10597500D01*
X9982500Y-10652500D02*
X10017500Y-10687500D01*
X10017500Y-10652500D02*
X9982500Y-10687500D01*
X10012500Y-10212500D02*
X10047500Y-10247500D01*
X10047500Y-10212500D02*
X10012500Y-10247500D01*
X10022500Y-8122500D02*
X10057500Y-8157500D01*
X10057500Y-8122500D02*
X10022500Y-8157500D01*
X10072500Y-9512500D02*
X10107500Y-9547500D01*
X10107500Y-9512500D02*
X10072500Y-9547500D01*
X10082500Y-8362500D02*
X10117500Y-8397500D01*
X10117500Y-8362500D02*
X10082500Y-8397500D01*
X10102500Y-8722500D02*
X10137500Y-8757500D01*
X10137500Y-8722500D02*
X10102500Y-8757500D01*
X10102500Y-10562500D02*
X10137500Y-10597500D01*
X10137500Y-10562500D02*
X10102500Y-10597500D01*
X10112500Y-8922500D02*
X10147500Y-8957500D01*
X10147500Y-8922500D02*
X10112500Y-8957500D01*
X10132500Y-8792500D02*
X10167500Y-8827500D01*
X10167500Y-8792500D02*
X10132500Y-8827500D01*
X10200412Y-8924588D02*
X10235412Y-8959588D01*
X10235412Y-8924588D02*
X10200412Y-8959588D01*
X10230260Y-7963900D02*
X10265260Y-7998900D01*
X10265260Y-7963900D02*
X10230260Y-7998900D01*
X10232500Y-8442500D02*
X10267500Y-8477500D01*
X10267500Y-8442500D02*
X10232500Y-8477500D01*
X10232500Y-9912500D02*
X10267500Y-9947500D01*
X10267500Y-9912500D02*
X10232500Y-9947500D01*
X10312500Y-9222500D02*
X10347500Y-9257500D01*
X10347500Y-9222500D02*
X10312500Y-9257500D01*
X10362500Y-9902500D02*
X10397500Y-9937500D01*
X10397500Y-9902500D02*
X10362500Y-9937500D01*
X10412500Y-7372500D02*
X10447500Y-7407500D01*
X10447500Y-7372500D02*
X10412500Y-7407500D01*
X10432500Y-9642500D02*
X10467500Y-9677500D01*
X10467500Y-9642500D02*
X10432500Y-9677500D01*
X10482500Y-8462500D02*
X10517500Y-8497500D01*
X10517500Y-8462500D02*
X10482500Y-8497500D01*
X10482500Y-11232500D02*
X10517500Y-11267500D01*
X10517500Y-11232500D02*
X10482500Y-11267500D01*
X10485050Y-8586400D02*
X10520050Y-8621400D01*
X10520050Y-8586400D02*
X10485050Y-8621400D01*
X10512500Y-9272500D02*
X10547500Y-9307500D01*
X10547500Y-9272500D02*
X10512500Y-9307500D01*
X10512500Y-9362500D02*
X10547500Y-9397500D01*
X10547500Y-9362500D02*
X10512500Y-9397500D01*
X10552500Y-9012500D02*
X10587500Y-9047500D01*
X10587500Y-9012500D02*
X10552500Y-9047500D01*
X10562500Y-9822500D02*
X10597500Y-9857500D01*
X10597500Y-9822500D02*
X10562500Y-9857500D01*
X10670950Y-9962500D02*
X10705950Y-9997500D01*
X10705950Y-9962500D02*
X10670950Y-9997500D01*
X10672500Y-8682500D02*
X10707500Y-8717500D01*
X10707500Y-8682500D02*
X10672500Y-8717500D01*
X10692500Y-8112500D02*
X10727500Y-8147500D01*
X10727500Y-8112500D02*
X10692500Y-8147500D01*
X10702500Y-11154950D02*
X10737500Y-11189950D01*
X10737500Y-11154950D02*
X10702500Y-11189950D01*
X10732500Y-8962500D02*
X10767500Y-8997500D01*
X10767500Y-8962500D02*
X10732500Y-8997500D01*
X10812500Y-10132500D02*
X10847500Y-10167500D01*
X10847500Y-10132500D02*
X10812500Y-10167500D01*
X10832500Y-8522500D02*
X10867500Y-8557500D01*
X10867500Y-8522500D02*
X10832500Y-8557500D01*
X10832500Y-11102500D02*
X10867500Y-11137500D01*
X10867500Y-11102500D02*
X10832500Y-11137500D01*
X11041500Y-10187500D02*
X11076500Y-10222500D01*
X11076500Y-10187500D02*
X11041500Y-10222500D01*
X11062500Y-9323500D02*
X11097500Y-9358500D01*
X11097500Y-9323500D02*
X11062500Y-9358500D01*
X11075000Y-8085000D02*
X11110000Y-8120000D01*
X11110000Y-8085000D02*
X11075000Y-8120000D01*
X11075050Y-8341400D02*
X11110050Y-8376400D01*
X11110050Y-8341400D02*
X11075050Y-8376400D01*
X11112500Y-7822500D02*
X11147500Y-7857500D01*
X11147500Y-7822500D02*
X11112500Y-7857500D01*
X11122500Y-10129500D02*
X11157500Y-10164500D01*
X11157500Y-10129500D02*
X11122500Y-10164500D01*
X11142500Y-9112500D02*
X11177500Y-9147500D01*
X11177500Y-9112500D02*
X11142500Y-9147500D01*
X11170000Y-8085000D02*
X11205000Y-8120000D01*
X11205000Y-8085000D02*
X11170000Y-8120000D01*
X11170050Y-8361400D02*
X11205050Y-8396400D01*
X11205050Y-8361400D02*
X11170050Y-8396400D01*
X11325000Y-7900000D02*
X11360000Y-7935000D01*
X11360000Y-7900000D02*
X11325000Y-7935000D01*
X11422500Y-9100200D02*
X11457500Y-9135200D01*
X11457500Y-9100200D02*
X11422500Y-9135200D01*
X11502500Y-9592500D02*
X11537500Y-9627500D01*
X11537500Y-9592500D02*
X11502500Y-9627500D01*
X11505000Y-8212500D02*
X11540000Y-8247500D01*
X11540000Y-8212500D02*
X11505000Y-8247500D01*
X11525050Y-8401400D02*
X11560050Y-8436400D01*
X11560050Y-8401400D02*
X11525050Y-8436400D01*
X11532500Y-9222500D02*
X11567500Y-9257500D01*
X11567500Y-9222500D02*
X11532500Y-9257500D01*
X11587500Y-10157500D02*
X11622500Y-10192500D01*
X11622500Y-10157500D02*
X11587500Y-10192500D01*
X11602500Y-9592500D02*
X11637500Y-9627500D01*
X11637500Y-9592500D02*
X11602500Y-9627500D01*
X11662500Y-7992500D02*
X11697500Y-8027500D01*
X11697500Y-7992500D02*
X11662500Y-8027500D01*
X11662500Y-8862500D02*
X11697500Y-8897500D01*
X11697500Y-8862500D02*
X11662500Y-8897500D01*
X11672500Y-8357500D02*
X11707500Y-8392500D01*
X11707500Y-8357500D02*
X11672500Y-8392500D01*
X11672500Y-8782500D02*
X11707500Y-8817500D01*
X11707500Y-8782500D02*
X11672500Y-8817500D01*
X11732500Y-9312500D02*
X11767500Y-9347500D01*
X11767500Y-9312500D02*
X11732500Y-9347500D01*
X11752500Y-8862500D02*
X11787500Y-8897500D01*
X11787500Y-8862500D02*
X11752500Y-8897500D01*
X11762500Y-7937500D02*
X11797500Y-7972500D01*
X11797500Y-7937500D02*
X11762500Y-7972500D01*
X11767500Y-8427500D02*
X11802500Y-8462500D01*
X11802500Y-8427500D02*
X11767500Y-8462500D01*
X11772500Y-8782500D02*
X11807500Y-8817500D01*
X11807500Y-8782500D02*
X11772500Y-8817500D01*
X11817500Y-7802500D02*
X11852500Y-7837500D01*
X11852500Y-7802500D02*
X11817500Y-7837500D01*
X11872500Y-8942500D02*
X11907500Y-8977500D01*
X11907500Y-8942500D02*
X11872500Y-8977500D01*
X11952500Y-8812500D02*
X11987500Y-8847500D01*
X11987500Y-8812500D02*
X11952500Y-8847500D01*
X11962500Y-8347500D02*
X11997500Y-8382500D01*
X11997500Y-8347500D02*
X11962500Y-8382500D01*
X11982500Y-8922500D02*
X12017500Y-8957500D01*
X12017500Y-8922500D02*
X11982500Y-8957500D01*
X11992500Y-9872500D02*
X12027500Y-9907500D01*
X12027500Y-9872500D02*
X11992500Y-9907500D01*
X11992500Y-10052500D02*
X12027500Y-10087500D01*
X12027500Y-10052500D02*
X11992500Y-10087500D01*
X12022500Y-9652500D02*
X12057500Y-9687500D01*
X12057500Y-9652500D02*
X12022500Y-9687500D01*
X12032500Y-8812500D02*
X12067500Y-8847500D01*
X12067500Y-8812500D02*
X12032500Y-8847500D01*
X12112500Y-8162500D02*
X12147500Y-8197500D01*
X12147500Y-8162500D02*
X12112500Y-8197500D01*
X12112500Y-8812500D02*
X12147500Y-8847500D01*
X12147500Y-8812500D02*
X12112500Y-8847500D01*
X12122500Y-8312500D02*
X12157500Y-8347500D01*
X12157500Y-8312500D02*
X12122500Y-8347500D01*
X12142500Y-9352500D02*
X12177500Y-9387500D01*
X12177500Y-9352500D02*
X12142500Y-9387500D01*
X12292500Y-7612500D02*
X12327500Y-7647500D01*
X12327500Y-7612500D02*
X12292500Y-7647500D01*
X12319498Y-8715505D02*
X12354498Y-8750505D01*
X12354498Y-8715505D02*
X12319498Y-8750505D01*
X12339498Y-8075505D02*
X12374498Y-8110505D01*
X12374498Y-8075505D02*
X12339498Y-8110505D01*
X12380412Y-9494588D02*
X12415412Y-9529588D01*
X12415412Y-9494588D02*
X12380412Y-9529588D01*
X12389498Y-8395505D02*
X12424498Y-8430505D01*
X12424498Y-8395505D02*
X12389498Y-8430505D01*
X12419498Y-8075505D02*
X12454498Y-8110505D01*
X12454498Y-8075505D02*
X12419498Y-8110505D01*
X12422500Y-9862500D02*
X12457500Y-9897500D01*
X12457500Y-9862500D02*
X12422500Y-9897500D01*
X12459498Y-8465505D02*
X12494498Y-8500505D01*
X12494498Y-8465505D02*
X12459498Y-8500505D01*
X12489498Y-8075505D02*
X12524498Y-8110505D01*
X12524498Y-8075505D02*
X12489498Y-8110505D01*
X12519498Y-8395505D02*
X12554498Y-8430505D01*
X12554498Y-8395505D02*
X12519498Y-8430505D01*
X12592500Y-10222500D02*
X12627500Y-10257500D01*
X12627500Y-10222500D02*
X12592500Y-10257500D01*
X12732500Y-9382500D02*
X12767500Y-9417500D01*
X12767500Y-9382500D02*
X12732500Y-9417500D01*
X12762500Y-8022500D02*
X12797500Y-8057500D01*
X12797500Y-8022500D02*
X12762500Y-8057500D01*
X12762500Y-8190505D02*
X12797500Y-8225505D01*
X12797500Y-8190505D02*
X12762500Y-8225505D01*
X12762500Y-8292500D02*
X12797500Y-8327500D01*
X12797500Y-8292500D02*
X12762500Y-8327500D01*
X12762500Y-8375505D02*
X12797500Y-8410505D01*
X12797500Y-8375505D02*
X12762500Y-8410505D01*
X12762500Y-10112500D02*
X12797500Y-10147500D01*
X12797500Y-10112500D02*
X12762500Y-10147500D01*
X12777500Y-8647500D02*
X12812500Y-8682500D01*
X12812500Y-8647500D02*
X12777500Y-8682500D01*
X11092550Y-8765150D02*
G75*
G03*
X11092550Y-8765150I-17500J0D01*
G01*
X11092550Y-8892650D02*
G75*
G03*
X11092550Y-8892650I-17500J0D01*
G01*
X11092550Y-9020150D02*
G75*
G03*
X11092550Y-9020150I-17500J0D01*
G01*
X11220050Y-8765150D02*
G75*
G03*
X11220050Y-8765150I-17500J0D01*
G01*
X11220050Y-8892650D02*
G75*
G03*
X11220050Y-8892650I-17500J0D01*
G01*
X11220050Y-9020150D02*
G75*
G03*
X11220050Y-9020150I-17500J0D01*
G01*
X11347550Y-8765150D02*
G75*
G03*
X11347550Y-8765150I-17500J0D01*
G01*
X11347550Y-8892650D02*
G75*
G03*
X11347550Y-8892650I-17500J0D01*
G01*
X11347550Y-9020150D02*
G75*
G03*
X11347550Y-9020150I-17500J0D01*
G01*
D13*
X11138542Y-7168900D02*
X11138542Y-7228900D01*
X11108542Y-7198900D02*
X11168542Y-7198900D01*
D11*
X11168542Y-7238900D02*
X11168542Y-7158900D01*
X11168542Y-7158900D02*
G75*
G03*
X11108542Y-7158900I-30000J0D01*
G01*
X11108542Y-7158900D02*
X11108542Y-7238900D01*
X11108542Y-7238900D02*
G75*
G03*
X11168542Y-7238900I30000J0D01*
G01*
D13*
X11138542Y-7586909D02*
X11138542Y-7646909D01*
X11108542Y-7616909D02*
X11168542Y-7616909D01*
D11*
X11168542Y-7671909D02*
X11168542Y-7561909D01*
X11168542Y-7561909D02*
G75*
G03*
X11108542Y-7561909I-30000J0D01*
G01*
X11108542Y-7561909D02*
X11108542Y-7671909D01*
X11108542Y-7671909D02*
G75*
G03*
X11168542Y-7671909I30000J0D01*
G01*
D13*
X12002550Y-7168900D02*
X12002550Y-7228900D01*
X11972550Y-7198900D02*
X12032550Y-7198900D01*
D11*
X12032550Y-7238900D02*
X12032550Y-7158900D01*
X12032550Y-7158900D02*
G75*
G03*
X11972550Y-7158900I-30000J0D01*
G01*
X11972550Y-7158900D02*
X11972550Y-7238900D01*
X11972550Y-7238900D02*
G75*
G03*
X12032550Y-7238900I30000J0D01*
G01*
D13*
X12002550Y-7586909D02*
X12002550Y-7646909D01*
X11972550Y-7616909D02*
X12032550Y-7616909D01*
D11*
X12032550Y-7671909D02*
X12032550Y-7561909D01*
X12032550Y-7561909D02*
G75*
G03*
X11972550Y-7561909I-30000J0D01*
G01*
X11972550Y-7561909D02*
X11972550Y-7671909D01*
X11972550Y-7671909D02*
G75*
G03*
X12032550Y-7671909I30000J0D01*
G01*
D14*
X12309738Y-7379056D02*
X12309738Y-7329557D01*
X12260239Y-7329557D01*
X12260239Y-7379056D01*
X12309738Y-7379056D01*
D11*
X12319990Y-7399305D02*
X12319990Y-7309308D01*
X12319990Y-7309308D02*
G75*
G03*
X12249987Y-7309308I-35001J0D01*
G01*
X12249987Y-7309308D02*
X12249987Y-7399305D01*
X12249987Y-7399305D02*
G75*
G03*
X12319990Y-7399305I35001J0D01*
G01*
D14*
X13139761Y-7379056D02*
X13139761Y-7329557D01*
X13090262Y-7329557D01*
X13090262Y-7379056D01*
X13139761Y-7379056D01*
D11*
X13150013Y-7399305D02*
X13150013Y-7309308D01*
X13150013Y-7309308D02*
G75*
G03*
X13080010Y-7309308I-35001J0D01*
G01*
X13080010Y-7309308D02*
X13080010Y-7399305D01*
X13080010Y-7399305D02*
G75*
G03*
X13150013Y-7399305I35001J0D01*
G01*
D15*
X11530000Y-10419000D02*
X11575000Y-10374000D01*
X11530000Y-10329000D01*
X11485000Y-10374000D01*
X11530000Y-10419000D01*
X11780000Y-10419000D02*
X11825000Y-10374000D01*
X11780000Y-10329000D01*
X11735000Y-10374000D01*
X11780000Y-10419000D01*
X11980000Y-10419000D02*
X12025000Y-10374000D01*
X11980000Y-10329000D01*
X11935000Y-10374000D01*
X11980000Y-10419000D01*
X12230000Y-10419000D02*
X12275000Y-10374000D01*
X12230000Y-10329000D01*
X12185000Y-10374000D01*
X12230000Y-10419000D01*
D16*
X9076000Y-11160000D02*
X9176000Y-11260000D01*
X9176000Y-11160000D02*
X9076000Y-11260000D01*
X9176000Y-11210000D02*
G75*
G03*
X9176000Y-11210000I-50000J0D01*
G01*
X9330000Y-11160000D02*
X9430000Y-11260000D01*
X9430000Y-11160000D02*
X9330000Y-11260000D01*
X9430000Y-11210000D02*
G75*
G03*
X9430000Y-11210000I-50000J0D01*
G01*
X9584000Y-11160000D02*
X9684000Y-11260000D01*
X9684000Y-11160000D02*
X9584000Y-11260000D01*
X9684000Y-11210000D02*
G75*
G03*
X9684000Y-11210000I-50000J0D01*
G01*
X12450000Y-7304307D02*
X12550000Y-7404307D01*
X12550000Y-7304307D02*
X12450000Y-7404307D01*
X12550000Y-7354307D02*
G75*
G03*
X12550000Y-7354307I-50000J0D01*
G01*
X12650000Y-7304307D02*
X12750000Y-7404307D01*
X12750000Y-7304307D02*
X12650000Y-7404307D01*
X12750000Y-7354307D02*
G75*
G03*
X12750000Y-7354307I-50000J0D01*
G01*
X12849997Y-7304299D02*
X12949997Y-7404299D01*
X12949997Y-7304299D02*
X12849997Y-7404299D01*
X12949997Y-7354299D02*
G75*
G03*
X12949997Y-7354299I-50000J0D01*
G01*
D17*
X12961001Y-8605006D02*
X13071003Y-8715009D01*
X13071003Y-8605006D02*
X12961001Y-8715009D01*
X13016002Y-8605006D02*
X13016002Y-8715009D01*
X12961001Y-8660008D02*
X13071003Y-8660008D01*
X12961001Y-8881003D02*
X13071003Y-8991006D01*
X13071003Y-8881003D02*
X12961001Y-8991006D01*
X13016002Y-8881003D02*
X13016002Y-8991006D01*
X12961001Y-8936005D02*
X13071003Y-8936005D01*
X12961001Y-9157000D02*
X13071003Y-9267003D01*
X13071003Y-9157000D02*
X12961001Y-9267003D01*
X13016002Y-9157000D02*
X13016002Y-9267003D01*
X12961001Y-9212002D02*
X13071003Y-9212002D01*
X12961001Y-9432997D02*
X13071003Y-9543000D01*
X13071003Y-9432997D02*
X12961001Y-9543000D01*
X13016002Y-9432997D02*
X13016002Y-9543000D01*
X12961001Y-9487999D02*
X13071003Y-9487999D01*
X12961001Y-9708994D02*
X13071003Y-9818997D01*
X13071003Y-9708994D02*
X12961001Y-9818997D01*
X13016002Y-9708994D02*
X13016002Y-9818997D01*
X12961001Y-9763995D02*
X13071003Y-9763995D01*
X13244999Y-8743005D02*
X13355001Y-8853007D01*
X13355001Y-8743005D02*
X13244999Y-8853007D01*
X13300000Y-8743005D02*
X13300000Y-8853007D01*
X13244999Y-8798006D02*
X13355001Y-8798006D01*
X13244999Y-9019002D02*
X13355001Y-9129004D01*
X13355001Y-9019002D02*
X13244999Y-9129004D01*
X13300000Y-9019002D02*
X13300000Y-9129004D01*
X13244999Y-9074003D02*
X13355001Y-9074003D01*
X13244999Y-9294999D02*
X13355001Y-9405001D01*
X13355001Y-9294999D02*
X13244999Y-9405001D01*
X13300000Y-9294999D02*
X13300000Y-9405001D01*
X13244999Y-9350000D02*
X13355001Y-9350000D01*
X13244999Y-9570996D02*
X13355001Y-9680998D01*
X13355001Y-9570996D02*
X13244999Y-9680998D01*
X13300000Y-9570996D02*
X13300000Y-9680998D01*
X13244999Y-9625997D02*
X13355001Y-9625997D01*
D18*
X8510000Y-7920000D02*
X8650000Y-8060000D01*
X8650000Y-7920000D02*
X8510000Y-8060000D01*
X8629498Y-8039498D02*
X8629498Y-7940502D01*
X8530502Y-7940502D01*
X8530502Y-8039498D01*
X8629498Y-8039498D01*
X8510000Y-8174000D02*
X8650000Y-8314000D01*
X8650000Y-8174000D02*
X8510000Y-8314000D01*
X8629498Y-8293498D02*
X8629498Y-8194502D01*
X8530502Y-8194502D01*
X8530502Y-8293498D01*
X8629498Y-8293498D01*
X8764000Y-8047000D02*
X8904000Y-8187000D01*
X8904000Y-8047000D02*
X8764000Y-8187000D01*
X8883498Y-8166498D02*
X8883498Y-8067502D01*
X8784502Y-8067502D01*
X8784502Y-8166498D01*
X8883498Y-8166498D01*
X8764000Y-8301000D02*
X8904000Y-8441000D01*
X8904000Y-8301000D02*
X8764000Y-8441000D01*
X8883498Y-8420498D02*
X8883498Y-8321502D01*
X8784502Y-8321502D01*
X8784502Y-8420498D01*
X8883498Y-8420498D01*
D19*
X11075000Y-10540000D02*
X11285000Y-10750000D01*
X11285000Y-10540000D02*
X11075000Y-10750000D01*
X11180000Y-10750000D02*
X11285000Y-10645000D01*
X11180000Y-10540000D01*
X11075000Y-10645000D01*
X11180000Y-10750000D01*
X12475000Y-10540000D02*
X12685000Y-10750000D01*
X12685000Y-10540000D02*
X12475000Y-10750000D01*
X12580000Y-10750000D02*
X12685000Y-10645000D01*
X12580000Y-10540000D01*
X12475000Y-10645000D01*
X12580000Y-10750000D01*
D20*
X13157988Y-7799487D02*
X13157988Y-8124491D01*
X12995486Y-7961989D02*
X13320490Y-7961989D01*
X13320490Y-7961989D02*
G75*
G03*
X13320490Y-7961989I-162502J0D01*
G01*
X13157988Y-10299487D02*
X13157988Y-10624491D01*
X12995486Y-10461989D02*
X13320490Y-10461989D01*
X13320490Y-10461989D02*
G75*
G03*
X13320490Y-10461989I-162502J0D01*
G01*
D11*
X8483277Y-11788984D02*
X8483277Y-11588984D01*
X8483277Y-11588984D02*
X8530896Y-11588984D01*
X8530896Y-11588984D02*
X8559467Y-11598508D01*
X8559467Y-11598508D02*
X8578515Y-11617555D01*
X8578515Y-11617555D02*
X8588039Y-11636603D01*
X8588039Y-11636603D02*
X8597563Y-11674698D01*
X8597563Y-11674698D02*
X8597563Y-11703269D01*
X8597563Y-11703269D02*
X8588039Y-11741365D01*
X8588039Y-11741365D02*
X8578515Y-11760412D01*
X8578515Y-11760412D02*
X8559467Y-11779460D01*
X8559467Y-11779460D02*
X8530896Y-11788984D01*
X8530896Y-11788984D02*
X8483277Y-11788984D01*
X8683277Y-11788984D02*
X8683277Y-11655650D01*
X8683277Y-11693746D02*
X8692801Y-11674698D01*
X8692801Y-11674698D02*
X8702324Y-11665174D01*
X8702324Y-11665174D02*
X8721372Y-11655650D01*
X8721372Y-11655650D02*
X8740420Y-11655650D01*
X8807086Y-11788984D02*
X8807086Y-11655650D01*
X8807086Y-11588984D02*
X8797563Y-11598508D01*
X8797563Y-11598508D02*
X8807086Y-11608031D01*
X8807086Y-11608031D02*
X8816610Y-11598508D01*
X8816610Y-11598508D02*
X8807086Y-11588984D01*
X8807086Y-11588984D02*
X8807086Y-11608031D01*
X8930896Y-11788984D02*
X8911848Y-11779460D01*
X8911848Y-11779460D02*
X8902324Y-11760412D01*
X8902324Y-11760412D02*
X8902324Y-11588984D01*
X9035658Y-11788984D02*
X9016610Y-11779460D01*
X9016610Y-11779460D02*
X9007086Y-11760412D01*
X9007086Y-11760412D02*
X9007086Y-11588984D01*
X9264229Y-11788984D02*
X9264229Y-11588984D01*
X9264229Y-11588984D02*
X9330896Y-11731841D01*
X9330896Y-11731841D02*
X9397563Y-11588984D01*
X9397563Y-11588984D02*
X9397563Y-11788984D01*
X9578515Y-11788984D02*
X9578515Y-11684222D01*
X9578515Y-11684222D02*
X9568991Y-11665174D01*
X9568991Y-11665174D02*
X9549944Y-11655650D01*
X9549944Y-11655650D02*
X9511848Y-11655650D01*
X9511848Y-11655650D02*
X9492801Y-11665174D01*
X9578515Y-11779460D02*
X9559467Y-11788984D01*
X9559467Y-11788984D02*
X9511848Y-11788984D01*
X9511848Y-11788984D02*
X9492801Y-11779460D01*
X9492801Y-11779460D02*
X9483277Y-11760412D01*
X9483277Y-11760412D02*
X9483277Y-11741365D01*
X9483277Y-11741365D02*
X9492801Y-11722317D01*
X9492801Y-11722317D02*
X9511848Y-11712793D01*
X9511848Y-11712793D02*
X9559467Y-11712793D01*
X9559467Y-11712793D02*
X9578515Y-11703269D01*
X9673753Y-11655650D02*
X9673753Y-11855650D01*
X9673753Y-11665174D02*
X9692801Y-11655650D01*
X9692801Y-11655650D02*
X9730896Y-11655650D01*
X9730896Y-11655650D02*
X9749944Y-11665174D01*
X9749944Y-11665174D02*
X9759467Y-11674698D01*
X9759467Y-11674698D02*
X9768991Y-11693746D01*
X9768991Y-11693746D02*
X9768991Y-11750888D01*
X9768991Y-11750888D02*
X9759467Y-11769936D01*
X9759467Y-11769936D02*
X9749944Y-11779460D01*
X9749944Y-11779460D02*
X9730896Y-11788984D01*
X9730896Y-11788984D02*
X9692801Y-11788984D01*
X9692801Y-11788984D02*
X9673753Y-11779460D01*
X9854705Y-11769936D02*
X9864229Y-11779460D01*
X9864229Y-11779460D02*
X9854705Y-11788984D01*
X9854705Y-11788984D02*
X9845182Y-11779460D01*
X9845182Y-11779460D02*
X9854705Y-11769936D01*
X9854705Y-11769936D02*
X9854705Y-11788984D01*
X9854705Y-11665174D02*
X9864229Y-11674698D01*
X9864229Y-11674698D02*
X9854705Y-11684222D01*
X9854705Y-11684222D02*
X9845182Y-11674698D01*
X9845182Y-11674698D02*
X9854705Y-11665174D01*
X9854705Y-11665174D02*
X9854705Y-11684222D01*
D12*
X8187500Y-12100000D02*
X8222500Y-12135000D01*
X8222500Y-12100000D02*
X8187500Y-12135000D01*
D11*
X8521372Y-12008984D02*
X8540420Y-12008984D01*
X8540420Y-12008984D02*
X8559467Y-12018508D01*
X8559467Y-12018508D02*
X8568991Y-12028031D01*
X8568991Y-12028031D02*
X8578515Y-12047079D01*
X8578515Y-12047079D02*
X8588039Y-12085174D01*
X8588039Y-12085174D02*
X8588039Y-12132793D01*
X8588039Y-12132793D02*
X8578515Y-12170888D01*
X8578515Y-12170888D02*
X8568991Y-12189936D01*
X8568991Y-12189936D02*
X8559467Y-12199460D01*
X8559467Y-12199460D02*
X8540420Y-12208984D01*
X8540420Y-12208984D02*
X8521372Y-12208984D01*
X8521372Y-12208984D02*
X8502324Y-12199460D01*
X8502324Y-12199460D02*
X8492801Y-12189936D01*
X8492801Y-12189936D02*
X8483277Y-12170888D01*
X8483277Y-12170888D02*
X8473753Y-12132793D01*
X8473753Y-12132793D02*
X8473753Y-12085174D01*
X8473753Y-12085174D02*
X8483277Y-12047079D01*
X8483277Y-12047079D02*
X8492801Y-12028031D01*
X8492801Y-12028031D02*
X8502324Y-12018508D01*
X8502324Y-12018508D02*
X8521372Y-12008984D01*
X8673753Y-12189936D02*
X8683277Y-12199460D01*
X8683277Y-12199460D02*
X8673753Y-12208984D01*
X8673753Y-12208984D02*
X8664229Y-12199460D01*
X8664229Y-12199460D02*
X8673753Y-12189936D01*
X8673753Y-12189936D02*
X8673753Y-12208984D01*
X8749944Y-12008984D02*
X8873753Y-12008984D01*
X8873753Y-12008984D02*
X8807086Y-12085174D01*
X8807086Y-12085174D02*
X8835658Y-12085174D01*
X8835658Y-12085174D02*
X8854705Y-12094698D01*
X8854705Y-12094698D02*
X8864229Y-12104222D01*
X8864229Y-12104222D02*
X8873753Y-12123269D01*
X8873753Y-12123269D02*
X8873753Y-12170888D01*
X8873753Y-12170888D02*
X8864229Y-12189936D01*
X8864229Y-12189936D02*
X8854705Y-12199460D01*
X8854705Y-12199460D02*
X8835658Y-12208984D01*
X8835658Y-12208984D02*
X8778515Y-12208984D01*
X8778515Y-12208984D02*
X8759467Y-12199460D01*
X8759467Y-12199460D02*
X8749944Y-12189936D01*
X9054705Y-12008984D02*
X8959467Y-12008984D01*
X8959467Y-12008984D02*
X8949944Y-12104222D01*
X8949944Y-12104222D02*
X8959467Y-12094698D01*
X8959467Y-12094698D02*
X8978515Y-12085174D01*
X8978515Y-12085174D02*
X9026134Y-12085174D01*
X9026134Y-12085174D02*
X9045182Y-12094698D01*
X9045182Y-12094698D02*
X9054705Y-12104222D01*
X9054705Y-12104222D02*
X9064229Y-12123269D01*
X9064229Y-12123269D02*
X9064229Y-12170888D01*
X9064229Y-12170888D02*
X9054705Y-12189936D01*
X9054705Y-12189936D02*
X9045182Y-12199460D01*
X9045182Y-12199460D02*
X9026134Y-12208984D01*
X9026134Y-12208984D02*
X8978515Y-12208984D01*
X8978515Y-12208984D02*
X8959467Y-12199460D01*
X8959467Y-12199460D02*
X8949944Y-12189936D01*
X9188039Y-12008984D02*
X9207086Y-12008984D01*
X9207086Y-12008984D02*
X9226134Y-12018508D01*
X9226134Y-12018508D02*
X9235658Y-12028031D01*
X9235658Y-12028031D02*
X9245182Y-12047079D01*
X9245182Y-12047079D02*
X9254705Y-12085174D01*
X9254705Y-12085174D02*
X9254705Y-12132793D01*
X9254705Y-12132793D02*
X9245182Y-12170888D01*
X9245182Y-12170888D02*
X9235658Y-12189936D01*
X9235658Y-12189936D02*
X9226134Y-12199460D01*
X9226134Y-12199460D02*
X9207086Y-12208984D01*
X9207086Y-12208984D02*
X9188039Y-12208984D01*
X9188039Y-12208984D02*
X9168991Y-12199460D01*
X9168991Y-12199460D02*
X9159467Y-12189936D01*
X9159467Y-12189936D02*
X9149944Y-12170888D01*
X9149944Y-12170888D02*
X9140420Y-12132793D01*
X9140420Y-12132793D02*
X9140420Y-12085174D01*
X9140420Y-12085174D02*
X9149944Y-12047079D01*
X9149944Y-12047079D02*
X9159467Y-12028031D01*
X9159467Y-12028031D02*
X9168991Y-12018508D01*
X9168991Y-12018508D02*
X9188039Y-12008984D01*
X9340420Y-12208984D02*
X9340420Y-12075650D01*
X9340420Y-12094698D02*
X9349944Y-12085174D01*
X9349944Y-12085174D02*
X9368991Y-12075650D01*
X9368991Y-12075650D02*
X9397563Y-12075650D01*
X9397563Y-12075650D02*
X9416610Y-12085174D01*
X9416610Y-12085174D02*
X9426134Y-12104222D01*
X9426134Y-12104222D02*
X9426134Y-12208984D01*
X9426134Y-12104222D02*
X9435658Y-12085174D01*
X9435658Y-12085174D02*
X9454705Y-12075650D01*
X9454705Y-12075650D02*
X9483277Y-12075650D01*
X9483277Y-12075650D02*
X9502325Y-12085174D01*
X9502325Y-12085174D02*
X9511848Y-12104222D01*
X9511848Y-12104222D02*
X9511848Y-12208984D01*
X9607086Y-12208984D02*
X9607086Y-12075650D01*
X9607086Y-12094698D02*
X9616610Y-12085174D01*
X9616610Y-12085174D02*
X9635658Y-12075650D01*
X9635658Y-12075650D02*
X9664229Y-12075650D01*
X9664229Y-12075650D02*
X9683277Y-12085174D01*
X9683277Y-12085174D02*
X9692801Y-12104222D01*
X9692801Y-12104222D02*
X9692801Y-12208984D01*
X9692801Y-12104222D02*
X9702325Y-12085174D01*
X9702325Y-12085174D02*
X9721372Y-12075650D01*
X9721372Y-12075650D02*
X9749944Y-12075650D01*
X9749944Y-12075650D02*
X9768991Y-12085174D01*
X9768991Y-12085174D02*
X9778515Y-12104222D01*
X9778515Y-12104222D02*
X9778515Y-12208984D01*
X10168991Y-11999460D02*
X9997563Y-12256603D01*
X10426134Y-12008984D02*
X10445182Y-12008984D01*
X10445182Y-12008984D02*
X10464229Y-12018508D01*
X10464229Y-12018508D02*
X10473753Y-12028031D01*
X10473753Y-12028031D02*
X10483277Y-12047079D01*
X10483277Y-12047079D02*
X10492801Y-12085174D01*
X10492801Y-12085174D02*
X10492801Y-12132793D01*
X10492801Y-12132793D02*
X10483277Y-12170888D01*
X10483277Y-12170888D02*
X10473753Y-12189936D01*
X10473753Y-12189936D02*
X10464229Y-12199460D01*
X10464229Y-12199460D02*
X10445182Y-12208984D01*
X10445182Y-12208984D02*
X10426134Y-12208984D01*
X10426134Y-12208984D02*
X10407087Y-12199460D01*
X10407087Y-12199460D02*
X10397563Y-12189936D01*
X10397563Y-12189936D02*
X10388039Y-12170888D01*
X10388039Y-12170888D02*
X10378515Y-12132793D01*
X10378515Y-12132793D02*
X10378515Y-12085174D01*
X10378515Y-12085174D02*
X10388039Y-12047079D01*
X10388039Y-12047079D02*
X10397563Y-12028031D01*
X10397563Y-12028031D02*
X10407087Y-12018508D01*
X10407087Y-12018508D02*
X10426134Y-12008984D01*
X10578515Y-12189936D02*
X10588039Y-12199460D01*
X10588039Y-12199460D02*
X10578515Y-12208984D01*
X10578515Y-12208984D02*
X10568991Y-12199460D01*
X10568991Y-12199460D02*
X10578515Y-12189936D01*
X10578515Y-12189936D02*
X10578515Y-12208984D01*
X10711848Y-12008984D02*
X10730896Y-12008984D01*
X10730896Y-12008984D02*
X10749944Y-12018508D01*
X10749944Y-12018508D02*
X10759468Y-12028031D01*
X10759468Y-12028031D02*
X10768991Y-12047079D01*
X10768991Y-12047079D02*
X10778515Y-12085174D01*
X10778515Y-12085174D02*
X10778515Y-12132793D01*
X10778515Y-12132793D02*
X10768991Y-12170888D01*
X10768991Y-12170888D02*
X10759468Y-12189936D01*
X10759468Y-12189936D02*
X10749944Y-12199460D01*
X10749944Y-12199460D02*
X10730896Y-12208984D01*
X10730896Y-12208984D02*
X10711848Y-12208984D01*
X10711848Y-12208984D02*
X10692801Y-12199460D01*
X10692801Y-12199460D02*
X10683277Y-12189936D01*
X10683277Y-12189936D02*
X10673753Y-12170888D01*
X10673753Y-12170888D02*
X10664229Y-12132793D01*
X10664229Y-12132793D02*
X10664229Y-12085174D01*
X10664229Y-12085174D02*
X10673753Y-12047079D01*
X10673753Y-12047079D02*
X10683277Y-12028031D01*
X10683277Y-12028031D02*
X10692801Y-12018508D01*
X10692801Y-12018508D02*
X10711848Y-12008984D01*
X10968991Y-12208984D02*
X10854706Y-12208984D01*
X10911848Y-12208984D02*
X10911848Y-12008984D01*
X10911848Y-12008984D02*
X10892801Y-12037555D01*
X10892801Y-12037555D02*
X10873753Y-12056603D01*
X10873753Y-12056603D02*
X10854706Y-12066127D01*
X11035658Y-12008984D02*
X11159468Y-12008984D01*
X11159468Y-12008984D02*
X11092801Y-12085174D01*
X11092801Y-12085174D02*
X11121372Y-12085174D01*
X11121372Y-12085174D02*
X11140420Y-12094698D01*
X11140420Y-12094698D02*
X11149944Y-12104222D01*
X11149944Y-12104222D02*
X11159468Y-12123269D01*
X11159468Y-12123269D02*
X11159468Y-12170888D01*
X11159468Y-12170888D02*
X11149944Y-12189936D01*
X11149944Y-12189936D02*
X11140420Y-12199460D01*
X11140420Y-12199460D02*
X11121372Y-12208984D01*
X11121372Y-12208984D02*
X11064229Y-12208984D01*
X11064229Y-12208984D02*
X11045182Y-12199460D01*
X11045182Y-12199460D02*
X11035658Y-12189936D01*
X11273753Y-12094698D02*
X11254706Y-12085174D01*
X11254706Y-12085174D02*
X11245182Y-12075650D01*
X11245182Y-12075650D02*
X11235658Y-12056603D01*
X11235658Y-12056603D02*
X11235658Y-12047079D01*
X11235658Y-12047079D02*
X11245182Y-12028031D01*
X11245182Y-12028031D02*
X11254706Y-12018508D01*
X11254706Y-12018508D02*
X11273753Y-12008984D01*
X11273753Y-12008984D02*
X11311848Y-12008984D01*
X11311848Y-12008984D02*
X11330896Y-12018508D01*
X11330896Y-12018508D02*
X11340420Y-12028031D01*
X11340420Y-12028031D02*
X11349944Y-12047079D01*
X11349944Y-12047079D02*
X11349944Y-12056603D01*
X11349944Y-12056603D02*
X11340420Y-12075650D01*
X11340420Y-12075650D02*
X11330896Y-12085174D01*
X11330896Y-12085174D02*
X11311848Y-12094698D01*
X11311848Y-12094698D02*
X11273753Y-12094698D01*
X11273753Y-12094698D02*
X11254706Y-12104222D01*
X11254706Y-12104222D02*
X11245182Y-12113746D01*
X11245182Y-12113746D02*
X11235658Y-12132793D01*
X11235658Y-12132793D02*
X11235658Y-12170888D01*
X11235658Y-12170888D02*
X11245182Y-12189936D01*
X11245182Y-12189936D02*
X11254706Y-12199460D01*
X11254706Y-12199460D02*
X11273753Y-12208984D01*
X11273753Y-12208984D02*
X11311848Y-12208984D01*
X11311848Y-12208984D02*
X11330896Y-12199460D01*
X11330896Y-12199460D02*
X11340420Y-12189936D01*
X11340420Y-12189936D02*
X11349944Y-12170888D01*
X11349944Y-12170888D02*
X11349944Y-12132793D01*
X11349944Y-12132793D02*
X11340420Y-12113746D01*
X11340420Y-12113746D02*
X11330896Y-12104222D01*
X11330896Y-12104222D02*
X11311848Y-12094698D01*
X11426134Y-12008984D02*
X11426134Y-12047079D01*
X11502325Y-12008984D02*
X11502325Y-12047079D01*
X11797563Y-12285174D02*
X11788039Y-12275650D01*
X11788039Y-12275650D02*
X11768991Y-12247079D01*
X11768991Y-12247079D02*
X11759468Y-12228031D01*
X11759468Y-12228031D02*
X11749944Y-12199460D01*
X11749944Y-12199460D02*
X11740420Y-12151841D01*
X11740420Y-12151841D02*
X11740420Y-12113746D01*
X11740420Y-12113746D02*
X11749944Y-12066127D01*
X11749944Y-12066127D02*
X11759468Y-12037555D01*
X11759468Y-12037555D02*
X11768991Y-12018508D01*
X11768991Y-12018508D02*
X11788039Y-11989936D01*
X11788039Y-11989936D02*
X11797563Y-11980412D01*
X11978515Y-12208984D02*
X11864229Y-12208984D01*
X11921372Y-12208984D02*
X11921372Y-12008984D01*
X11921372Y-12008984D02*
X11902325Y-12037555D01*
X11902325Y-12037555D02*
X11883277Y-12056603D01*
X11883277Y-12056603D02*
X11864229Y-12066127D01*
X12045182Y-12008984D02*
X12168991Y-12008984D01*
X12168991Y-12008984D02*
X12102325Y-12085174D01*
X12102325Y-12085174D02*
X12130896Y-12085174D01*
X12130896Y-12085174D02*
X12149944Y-12094698D01*
X12149944Y-12094698D02*
X12159468Y-12104222D01*
X12159468Y-12104222D02*
X12168991Y-12123269D01*
X12168991Y-12123269D02*
X12168991Y-12170888D01*
X12168991Y-12170888D02*
X12159468Y-12189936D01*
X12159468Y-12189936D02*
X12149944Y-12199460D01*
X12149944Y-12199460D02*
X12130896Y-12208984D01*
X12130896Y-12208984D02*
X12073753Y-12208984D01*
X12073753Y-12208984D02*
X12054706Y-12199460D01*
X12054706Y-12199460D02*
X12045182Y-12189936D01*
X12264229Y-12208984D02*
X12302325Y-12208984D01*
X12302325Y-12208984D02*
X12321372Y-12199460D01*
X12321372Y-12199460D02*
X12330896Y-12189936D01*
X12330896Y-12189936D02*
X12349944Y-12161365D01*
X12349944Y-12161365D02*
X12359468Y-12123269D01*
X12359468Y-12123269D02*
X12359468Y-12047079D01*
X12359468Y-12047079D02*
X12349944Y-12028031D01*
X12349944Y-12028031D02*
X12340420Y-12018508D01*
X12340420Y-12018508D02*
X12321372Y-12008984D01*
X12321372Y-12008984D02*
X12283277Y-12008984D01*
X12283277Y-12008984D02*
X12264229Y-12018508D01*
X12264229Y-12018508D02*
X12254706Y-12028031D01*
X12254706Y-12028031D02*
X12245182Y-12047079D01*
X12245182Y-12047079D02*
X12245182Y-12094698D01*
X12245182Y-12094698D02*
X12254706Y-12113746D01*
X12254706Y-12113746D02*
X12264229Y-12123269D01*
X12264229Y-12123269D02*
X12283277Y-12132793D01*
X12283277Y-12132793D02*
X12321372Y-12132793D01*
X12321372Y-12132793D02*
X12340420Y-12123269D01*
X12340420Y-12123269D02*
X12349944Y-12113746D01*
X12349944Y-12113746D02*
X12359468Y-12094698D01*
X12597563Y-12208984D02*
X12597563Y-12008984D01*
X12683277Y-12208984D02*
X12683277Y-12104222D01*
X12683277Y-12104222D02*
X12673753Y-12085174D01*
X12673753Y-12085174D02*
X12654706Y-12075650D01*
X12654706Y-12075650D02*
X12626134Y-12075650D01*
X12626134Y-12075650D02*
X12607087Y-12085174D01*
X12607087Y-12085174D02*
X12597563Y-12094698D01*
X12807087Y-12208984D02*
X12788039Y-12199460D01*
X12788039Y-12199460D02*
X12778515Y-12189936D01*
X12778515Y-12189936D02*
X12768991Y-12170888D01*
X12768991Y-12170888D02*
X12768991Y-12113746D01*
X12768991Y-12113746D02*
X12778515Y-12094698D01*
X12778515Y-12094698D02*
X12788039Y-12085174D01*
X12788039Y-12085174D02*
X12807087Y-12075650D01*
X12807087Y-12075650D02*
X12835658Y-12075650D01*
X12835658Y-12075650D02*
X12854706Y-12085174D01*
X12854706Y-12085174D02*
X12864230Y-12094698D01*
X12864230Y-12094698D02*
X12873753Y-12113746D01*
X12873753Y-12113746D02*
X12873753Y-12170888D01*
X12873753Y-12170888D02*
X12864230Y-12189936D01*
X12864230Y-12189936D02*
X12854706Y-12199460D01*
X12854706Y-12199460D02*
X12835658Y-12208984D01*
X12835658Y-12208984D02*
X12807087Y-12208984D01*
X12988039Y-12208984D02*
X12968991Y-12199460D01*
X12968991Y-12199460D02*
X12959468Y-12180412D01*
X12959468Y-12180412D02*
X12959468Y-12008984D01*
X13140420Y-12199460D02*
X13121372Y-12208984D01*
X13121372Y-12208984D02*
X13083277Y-12208984D01*
X13083277Y-12208984D02*
X13064230Y-12199460D01*
X13064230Y-12199460D02*
X13054706Y-12180412D01*
X13054706Y-12180412D02*
X13054706Y-12104222D01*
X13054706Y-12104222D02*
X13064230Y-12085174D01*
X13064230Y-12085174D02*
X13083277Y-12075650D01*
X13083277Y-12075650D02*
X13121372Y-12075650D01*
X13121372Y-12075650D02*
X13140420Y-12085174D01*
X13140420Y-12085174D02*
X13149944Y-12104222D01*
X13149944Y-12104222D02*
X13149944Y-12123269D01*
X13149944Y-12123269D02*
X13054706Y-12142317D01*
X13226134Y-12199460D02*
X13245182Y-12208984D01*
X13245182Y-12208984D02*
X13283277Y-12208984D01*
X13283277Y-12208984D02*
X13302325Y-12199460D01*
X13302325Y-12199460D02*
X13311849Y-12180412D01*
X13311849Y-12180412D02*
X13311849Y-12170888D01*
X13311849Y-12170888D02*
X13302325Y-12151841D01*
X13302325Y-12151841D02*
X13283277Y-12142317D01*
X13283277Y-12142317D02*
X13254706Y-12142317D01*
X13254706Y-12142317D02*
X13235658Y-12132793D01*
X13235658Y-12132793D02*
X13226134Y-12113746D01*
X13226134Y-12113746D02*
X13226134Y-12104222D01*
X13226134Y-12104222D02*
X13235658Y-12085174D01*
X13235658Y-12085174D02*
X13254706Y-12075650D01*
X13254706Y-12075650D02*
X13283277Y-12075650D01*
X13283277Y-12075650D02*
X13302325Y-12085174D01*
X13378515Y-12285174D02*
X13388039Y-12275650D01*
X13388039Y-12275650D02*
X13407087Y-12247079D01*
X13407087Y-12247079D02*
X13416611Y-12228031D01*
X13416611Y-12228031D02*
X13426134Y-12199460D01*
X13426134Y-12199460D02*
X13435658Y-12151841D01*
X13435658Y-12151841D02*
X13435658Y-12113746D01*
X13435658Y-12113746D02*
X13426134Y-12066127D01*
X13426134Y-12066127D02*
X13416611Y-12037555D01*
X13416611Y-12037555D02*
X13407087Y-12018508D01*
X13407087Y-12018508D02*
X13388039Y-11989936D01*
X13388039Y-11989936D02*
X13378515Y-11980412D01*
D12*
X8222500Y-12381500D02*
G75*
G03*
X8222500Y-12381500I-17500J0D01*
G01*
D11*
X8521372Y-12272984D02*
X8540420Y-12272984D01*
X8540420Y-12272984D02*
X8559467Y-12282508D01*
X8559467Y-12282508D02*
X8568991Y-12292031D01*
X8568991Y-12292031D02*
X8578515Y-12311079D01*
X8578515Y-12311079D02*
X8588039Y-12349174D01*
X8588039Y-12349174D02*
X8588039Y-12396793D01*
X8588039Y-12396793D02*
X8578515Y-12434888D01*
X8578515Y-12434888D02*
X8568991Y-12453936D01*
X8568991Y-12453936D02*
X8559467Y-12463460D01*
X8559467Y-12463460D02*
X8540420Y-12472984D01*
X8540420Y-12472984D02*
X8521372Y-12472984D01*
X8521372Y-12472984D02*
X8502324Y-12463460D01*
X8502324Y-12463460D02*
X8492801Y-12453936D01*
X8492801Y-12453936D02*
X8483277Y-12434888D01*
X8483277Y-12434888D02*
X8473753Y-12396793D01*
X8473753Y-12396793D02*
X8473753Y-12349174D01*
X8473753Y-12349174D02*
X8483277Y-12311079D01*
X8483277Y-12311079D02*
X8492801Y-12292031D01*
X8492801Y-12292031D02*
X8502324Y-12282508D01*
X8502324Y-12282508D02*
X8521372Y-12272984D01*
X8673753Y-12453936D02*
X8683277Y-12463460D01*
X8683277Y-12463460D02*
X8673753Y-12472984D01*
X8673753Y-12472984D02*
X8664229Y-12463460D01*
X8664229Y-12463460D02*
X8673753Y-12453936D01*
X8673753Y-12453936D02*
X8673753Y-12472984D01*
X8749944Y-12272984D02*
X8873753Y-12272984D01*
X8873753Y-12272984D02*
X8807086Y-12349174D01*
X8807086Y-12349174D02*
X8835658Y-12349174D01*
X8835658Y-12349174D02*
X8854705Y-12358698D01*
X8854705Y-12358698D02*
X8864229Y-12368222D01*
X8864229Y-12368222D02*
X8873753Y-12387269D01*
X8873753Y-12387269D02*
X8873753Y-12434888D01*
X8873753Y-12434888D02*
X8864229Y-12453936D01*
X8864229Y-12453936D02*
X8854705Y-12463460D01*
X8854705Y-12463460D02*
X8835658Y-12472984D01*
X8835658Y-12472984D02*
X8778515Y-12472984D01*
X8778515Y-12472984D02*
X8759467Y-12463460D01*
X8759467Y-12463460D02*
X8749944Y-12453936D01*
X9054705Y-12272984D02*
X8959467Y-12272984D01*
X8959467Y-12272984D02*
X8949944Y-12368222D01*
X8949944Y-12368222D02*
X8959467Y-12358698D01*
X8959467Y-12358698D02*
X8978515Y-12349174D01*
X8978515Y-12349174D02*
X9026134Y-12349174D01*
X9026134Y-12349174D02*
X9045182Y-12358698D01*
X9045182Y-12358698D02*
X9054705Y-12368222D01*
X9054705Y-12368222D02*
X9064229Y-12387269D01*
X9064229Y-12387269D02*
X9064229Y-12434888D01*
X9064229Y-12434888D02*
X9054705Y-12453936D01*
X9054705Y-12453936D02*
X9045182Y-12463460D01*
X9045182Y-12463460D02*
X9026134Y-12472984D01*
X9026134Y-12472984D02*
X8978515Y-12472984D01*
X8978515Y-12472984D02*
X8959467Y-12463460D01*
X8959467Y-12463460D02*
X8949944Y-12453936D01*
X9188039Y-12272984D02*
X9207086Y-12272984D01*
X9207086Y-12272984D02*
X9226134Y-12282508D01*
X9226134Y-12282508D02*
X9235658Y-12292031D01*
X9235658Y-12292031D02*
X9245182Y-12311079D01*
X9245182Y-12311079D02*
X9254705Y-12349174D01*
X9254705Y-12349174D02*
X9254705Y-12396793D01*
X9254705Y-12396793D02*
X9245182Y-12434888D01*
X9245182Y-12434888D02*
X9235658Y-12453936D01*
X9235658Y-12453936D02*
X9226134Y-12463460D01*
X9226134Y-12463460D02*
X9207086Y-12472984D01*
X9207086Y-12472984D02*
X9188039Y-12472984D01*
X9188039Y-12472984D02*
X9168991Y-12463460D01*
X9168991Y-12463460D02*
X9159467Y-12453936D01*
X9159467Y-12453936D02*
X9149944Y-12434888D01*
X9149944Y-12434888D02*
X9140420Y-12396793D01*
X9140420Y-12396793D02*
X9140420Y-12349174D01*
X9140420Y-12349174D02*
X9149944Y-12311079D01*
X9149944Y-12311079D02*
X9159467Y-12292031D01*
X9159467Y-12292031D02*
X9168991Y-12282508D01*
X9168991Y-12282508D02*
X9188039Y-12272984D01*
X9340420Y-12472984D02*
X9340420Y-12339650D01*
X9340420Y-12358698D02*
X9349944Y-12349174D01*
X9349944Y-12349174D02*
X9368991Y-12339650D01*
X9368991Y-12339650D02*
X9397563Y-12339650D01*
X9397563Y-12339650D02*
X9416610Y-12349174D01*
X9416610Y-12349174D02*
X9426134Y-12368222D01*
X9426134Y-12368222D02*
X9426134Y-12472984D01*
X9426134Y-12368222D02*
X9435658Y-12349174D01*
X9435658Y-12349174D02*
X9454705Y-12339650D01*
X9454705Y-12339650D02*
X9483277Y-12339650D01*
X9483277Y-12339650D02*
X9502325Y-12349174D01*
X9502325Y-12349174D02*
X9511848Y-12368222D01*
X9511848Y-12368222D02*
X9511848Y-12472984D01*
X9607086Y-12472984D02*
X9607086Y-12339650D01*
X9607086Y-12358698D02*
X9616610Y-12349174D01*
X9616610Y-12349174D02*
X9635658Y-12339650D01*
X9635658Y-12339650D02*
X9664229Y-12339650D01*
X9664229Y-12339650D02*
X9683277Y-12349174D01*
X9683277Y-12349174D02*
X9692801Y-12368222D01*
X9692801Y-12368222D02*
X9692801Y-12472984D01*
X9692801Y-12368222D02*
X9702325Y-12349174D01*
X9702325Y-12349174D02*
X9721372Y-12339650D01*
X9721372Y-12339650D02*
X9749944Y-12339650D01*
X9749944Y-12339650D02*
X9768991Y-12349174D01*
X9768991Y-12349174D02*
X9778515Y-12368222D01*
X9778515Y-12368222D02*
X9778515Y-12472984D01*
X10168991Y-12263460D02*
X9997563Y-12520603D01*
X10426134Y-12272984D02*
X10445182Y-12272984D01*
X10445182Y-12272984D02*
X10464229Y-12282508D01*
X10464229Y-12282508D02*
X10473753Y-12292031D01*
X10473753Y-12292031D02*
X10483277Y-12311079D01*
X10483277Y-12311079D02*
X10492801Y-12349174D01*
X10492801Y-12349174D02*
X10492801Y-12396793D01*
X10492801Y-12396793D02*
X10483277Y-12434888D01*
X10483277Y-12434888D02*
X10473753Y-12453936D01*
X10473753Y-12453936D02*
X10464229Y-12463460D01*
X10464229Y-12463460D02*
X10445182Y-12472984D01*
X10445182Y-12472984D02*
X10426134Y-12472984D01*
X10426134Y-12472984D02*
X10407087Y-12463460D01*
X10407087Y-12463460D02*
X10397563Y-12453936D01*
X10397563Y-12453936D02*
X10388039Y-12434888D01*
X10388039Y-12434888D02*
X10378515Y-12396793D01*
X10378515Y-12396793D02*
X10378515Y-12349174D01*
X10378515Y-12349174D02*
X10388039Y-12311079D01*
X10388039Y-12311079D02*
X10397563Y-12292031D01*
X10397563Y-12292031D02*
X10407087Y-12282508D01*
X10407087Y-12282508D02*
X10426134Y-12272984D01*
X10578515Y-12453936D02*
X10588039Y-12463460D01*
X10588039Y-12463460D02*
X10578515Y-12472984D01*
X10578515Y-12472984D02*
X10568991Y-12463460D01*
X10568991Y-12463460D02*
X10578515Y-12453936D01*
X10578515Y-12453936D02*
X10578515Y-12472984D01*
X10711848Y-12272984D02*
X10730896Y-12272984D01*
X10730896Y-12272984D02*
X10749944Y-12282508D01*
X10749944Y-12282508D02*
X10759468Y-12292031D01*
X10759468Y-12292031D02*
X10768991Y-12311079D01*
X10768991Y-12311079D02*
X10778515Y-12349174D01*
X10778515Y-12349174D02*
X10778515Y-12396793D01*
X10778515Y-12396793D02*
X10768991Y-12434888D01*
X10768991Y-12434888D02*
X10759468Y-12453936D01*
X10759468Y-12453936D02*
X10749944Y-12463460D01*
X10749944Y-12463460D02*
X10730896Y-12472984D01*
X10730896Y-12472984D02*
X10711848Y-12472984D01*
X10711848Y-12472984D02*
X10692801Y-12463460D01*
X10692801Y-12463460D02*
X10683277Y-12453936D01*
X10683277Y-12453936D02*
X10673753Y-12434888D01*
X10673753Y-12434888D02*
X10664229Y-12396793D01*
X10664229Y-12396793D02*
X10664229Y-12349174D01*
X10664229Y-12349174D02*
X10673753Y-12311079D01*
X10673753Y-12311079D02*
X10683277Y-12292031D01*
X10683277Y-12292031D02*
X10692801Y-12282508D01*
X10692801Y-12282508D02*
X10711848Y-12272984D01*
X10968991Y-12472984D02*
X10854706Y-12472984D01*
X10911848Y-12472984D02*
X10911848Y-12272984D01*
X10911848Y-12272984D02*
X10892801Y-12301555D01*
X10892801Y-12301555D02*
X10873753Y-12320603D01*
X10873753Y-12320603D02*
X10854706Y-12330127D01*
X11035658Y-12272984D02*
X11159468Y-12272984D01*
X11159468Y-12272984D02*
X11092801Y-12349174D01*
X11092801Y-12349174D02*
X11121372Y-12349174D01*
X11121372Y-12349174D02*
X11140420Y-12358698D01*
X11140420Y-12358698D02*
X11149944Y-12368222D01*
X11149944Y-12368222D02*
X11159468Y-12387269D01*
X11159468Y-12387269D02*
X11159468Y-12434888D01*
X11159468Y-12434888D02*
X11149944Y-12453936D01*
X11149944Y-12453936D02*
X11140420Y-12463460D01*
X11140420Y-12463460D02*
X11121372Y-12472984D01*
X11121372Y-12472984D02*
X11064229Y-12472984D01*
X11064229Y-12472984D02*
X11045182Y-12463460D01*
X11045182Y-12463460D02*
X11035658Y-12453936D01*
X11273753Y-12358698D02*
X11254706Y-12349174D01*
X11254706Y-12349174D02*
X11245182Y-12339650D01*
X11245182Y-12339650D02*
X11235658Y-12320603D01*
X11235658Y-12320603D02*
X11235658Y-12311079D01*
X11235658Y-12311079D02*
X11245182Y-12292031D01*
X11245182Y-12292031D02*
X11254706Y-12282508D01*
X11254706Y-12282508D02*
X11273753Y-12272984D01*
X11273753Y-12272984D02*
X11311848Y-12272984D01*
X11311848Y-12272984D02*
X11330896Y-12282508D01*
X11330896Y-12282508D02*
X11340420Y-12292031D01*
X11340420Y-12292031D02*
X11349944Y-12311079D01*
X11349944Y-12311079D02*
X11349944Y-12320603D01*
X11349944Y-12320603D02*
X11340420Y-12339650D01*
X11340420Y-12339650D02*
X11330896Y-12349174D01*
X11330896Y-12349174D02*
X11311848Y-12358698D01*
X11311848Y-12358698D02*
X11273753Y-12358698D01*
X11273753Y-12358698D02*
X11254706Y-12368222D01*
X11254706Y-12368222D02*
X11245182Y-12377746D01*
X11245182Y-12377746D02*
X11235658Y-12396793D01*
X11235658Y-12396793D02*
X11235658Y-12434888D01*
X11235658Y-12434888D02*
X11245182Y-12453936D01*
X11245182Y-12453936D02*
X11254706Y-12463460D01*
X11254706Y-12463460D02*
X11273753Y-12472984D01*
X11273753Y-12472984D02*
X11311848Y-12472984D01*
X11311848Y-12472984D02*
X11330896Y-12463460D01*
X11330896Y-12463460D02*
X11340420Y-12453936D01*
X11340420Y-12453936D02*
X11349944Y-12434888D01*
X11349944Y-12434888D02*
X11349944Y-12396793D01*
X11349944Y-12396793D02*
X11340420Y-12377746D01*
X11340420Y-12377746D02*
X11330896Y-12368222D01*
X11330896Y-12368222D02*
X11311848Y-12358698D01*
X11426134Y-12272984D02*
X11426134Y-12311079D01*
X11502325Y-12272984D02*
X11502325Y-12311079D01*
X11797563Y-12549174D02*
X11788039Y-12539650D01*
X11788039Y-12539650D02*
X11768991Y-12511079D01*
X11768991Y-12511079D02*
X11759468Y-12492031D01*
X11759468Y-12492031D02*
X11749944Y-12463460D01*
X11749944Y-12463460D02*
X11740420Y-12415841D01*
X11740420Y-12415841D02*
X11740420Y-12377746D01*
X11740420Y-12377746D02*
X11749944Y-12330127D01*
X11749944Y-12330127D02*
X11759468Y-12301555D01*
X11759468Y-12301555D02*
X11768991Y-12282508D01*
X11768991Y-12282508D02*
X11788039Y-12253936D01*
X11788039Y-12253936D02*
X11797563Y-12244412D01*
X11883277Y-12472984D02*
X11921372Y-12472984D01*
X11921372Y-12472984D02*
X11940420Y-12463460D01*
X11940420Y-12463460D02*
X11949944Y-12453936D01*
X11949944Y-12453936D02*
X11968991Y-12425365D01*
X11968991Y-12425365D02*
X11978515Y-12387269D01*
X11978515Y-12387269D02*
X11978515Y-12311079D01*
X11978515Y-12311079D02*
X11968991Y-12292031D01*
X11968991Y-12292031D02*
X11959468Y-12282508D01*
X11959468Y-12282508D02*
X11940420Y-12272984D01*
X11940420Y-12272984D02*
X11902325Y-12272984D01*
X11902325Y-12272984D02*
X11883277Y-12282508D01*
X11883277Y-12282508D02*
X11873753Y-12292031D01*
X11873753Y-12292031D02*
X11864229Y-12311079D01*
X11864229Y-12311079D02*
X11864229Y-12358698D01*
X11864229Y-12358698D02*
X11873753Y-12377746D01*
X11873753Y-12377746D02*
X11883277Y-12387269D01*
X11883277Y-12387269D02*
X11902325Y-12396793D01*
X11902325Y-12396793D02*
X11940420Y-12396793D01*
X11940420Y-12396793D02*
X11959468Y-12387269D01*
X11959468Y-12387269D02*
X11968991Y-12377746D01*
X11968991Y-12377746D02*
X11978515Y-12358698D01*
X12216610Y-12472984D02*
X12216610Y-12272984D01*
X12302325Y-12472984D02*
X12302325Y-12368222D01*
X12302325Y-12368222D02*
X12292801Y-12349174D01*
X12292801Y-12349174D02*
X12273753Y-12339650D01*
X12273753Y-12339650D02*
X12245182Y-12339650D01*
X12245182Y-12339650D02*
X12226134Y-12349174D01*
X12226134Y-12349174D02*
X12216610Y-12358698D01*
X12426134Y-12472984D02*
X12407087Y-12463460D01*
X12407087Y-12463460D02*
X12397563Y-12453936D01*
X12397563Y-12453936D02*
X12388039Y-12434888D01*
X12388039Y-12434888D02*
X12388039Y-12377746D01*
X12388039Y-12377746D02*
X12397563Y-12358698D01*
X12397563Y-12358698D02*
X12407087Y-12349174D01*
X12407087Y-12349174D02*
X12426134Y-12339650D01*
X12426134Y-12339650D02*
X12454706Y-12339650D01*
X12454706Y-12339650D02*
X12473753Y-12349174D01*
X12473753Y-12349174D02*
X12483277Y-12358698D01*
X12483277Y-12358698D02*
X12492801Y-12377746D01*
X12492801Y-12377746D02*
X12492801Y-12434888D01*
X12492801Y-12434888D02*
X12483277Y-12453936D01*
X12483277Y-12453936D02*
X12473753Y-12463460D01*
X12473753Y-12463460D02*
X12454706Y-12472984D01*
X12454706Y-12472984D02*
X12426134Y-12472984D01*
X12607087Y-12472984D02*
X12588039Y-12463460D01*
X12588039Y-12463460D02*
X12578515Y-12444412D01*
X12578515Y-12444412D02*
X12578515Y-12272984D01*
X12759468Y-12463460D02*
X12740420Y-12472984D01*
X12740420Y-12472984D02*
X12702325Y-12472984D01*
X12702325Y-12472984D02*
X12683277Y-12463460D01*
X12683277Y-12463460D02*
X12673753Y-12444412D01*
X12673753Y-12444412D02*
X12673753Y-12368222D01*
X12673753Y-12368222D02*
X12683277Y-12349174D01*
X12683277Y-12349174D02*
X12702325Y-12339650D01*
X12702325Y-12339650D02*
X12740420Y-12339650D01*
X12740420Y-12339650D02*
X12759468Y-12349174D01*
X12759468Y-12349174D02*
X12768991Y-12368222D01*
X12768991Y-12368222D02*
X12768991Y-12387269D01*
X12768991Y-12387269D02*
X12673753Y-12406317D01*
X12845182Y-12463460D02*
X12864230Y-12472984D01*
X12864230Y-12472984D02*
X12902325Y-12472984D01*
X12902325Y-12472984D02*
X12921372Y-12463460D01*
X12921372Y-12463460D02*
X12930896Y-12444412D01*
X12930896Y-12444412D02*
X12930896Y-12434888D01*
X12930896Y-12434888D02*
X12921372Y-12415841D01*
X12921372Y-12415841D02*
X12902325Y-12406317D01*
X12902325Y-12406317D02*
X12873753Y-12406317D01*
X12873753Y-12406317D02*
X12854706Y-12396793D01*
X12854706Y-12396793D02*
X12845182Y-12377746D01*
X12845182Y-12377746D02*
X12845182Y-12368222D01*
X12845182Y-12368222D02*
X12854706Y-12349174D01*
X12854706Y-12349174D02*
X12873753Y-12339650D01*
X12873753Y-12339650D02*
X12902325Y-12339650D01*
X12902325Y-12339650D02*
X12921372Y-12349174D01*
X12997563Y-12549174D02*
X13007087Y-12539650D01*
X13007087Y-12539650D02*
X13026134Y-12511079D01*
X13026134Y-12511079D02*
X13035658Y-12492031D01*
X13035658Y-12492031D02*
X13045182Y-12463460D01*
X13045182Y-12463460D02*
X13054706Y-12415841D01*
X13054706Y-12415841D02*
X13054706Y-12377746D01*
X13054706Y-12377746D02*
X13045182Y-12330127D01*
X13045182Y-12330127D02*
X13035658Y-12301555D01*
X13035658Y-12301555D02*
X13026134Y-12282508D01*
X13026134Y-12282508D02*
X13007087Y-12253936D01*
X13007087Y-12253936D02*
X12997563Y-12244412D01*
D13*
X8192500Y-12615500D02*
X8192500Y-12675500D01*
X8162500Y-12645500D02*
X8222500Y-12645500D01*
D11*
X8521372Y-12536984D02*
X8540420Y-12536984D01*
X8540420Y-12536984D02*
X8559467Y-12546508D01*
X8559467Y-12546508D02*
X8568991Y-12556031D01*
X8568991Y-12556031D02*
X8578515Y-12575079D01*
X8578515Y-12575079D02*
X8588039Y-12613174D01*
X8588039Y-12613174D02*
X8588039Y-12660793D01*
X8588039Y-12660793D02*
X8578515Y-12698888D01*
X8578515Y-12698888D02*
X8568991Y-12717936D01*
X8568991Y-12717936D02*
X8559467Y-12727460D01*
X8559467Y-12727460D02*
X8540420Y-12736984D01*
X8540420Y-12736984D02*
X8521372Y-12736984D01*
X8521372Y-12736984D02*
X8502324Y-12727460D01*
X8502324Y-12727460D02*
X8492801Y-12717936D01*
X8492801Y-12717936D02*
X8483277Y-12698888D01*
X8483277Y-12698888D02*
X8473753Y-12660793D01*
X8473753Y-12660793D02*
X8473753Y-12613174D01*
X8473753Y-12613174D02*
X8483277Y-12575079D01*
X8483277Y-12575079D02*
X8492801Y-12556031D01*
X8492801Y-12556031D02*
X8502324Y-12546508D01*
X8502324Y-12546508D02*
X8521372Y-12536984D01*
X8673753Y-12717936D02*
X8683277Y-12727460D01*
X8683277Y-12727460D02*
X8673753Y-12736984D01*
X8673753Y-12736984D02*
X8664229Y-12727460D01*
X8664229Y-12727460D02*
X8673753Y-12717936D01*
X8673753Y-12717936D02*
X8673753Y-12736984D01*
X8854705Y-12536984D02*
X8816610Y-12536984D01*
X8816610Y-12536984D02*
X8797563Y-12546508D01*
X8797563Y-12546508D02*
X8788039Y-12556031D01*
X8788039Y-12556031D02*
X8768991Y-12584603D01*
X8768991Y-12584603D02*
X8759467Y-12622698D01*
X8759467Y-12622698D02*
X8759467Y-12698888D01*
X8759467Y-12698888D02*
X8768991Y-12717936D01*
X8768991Y-12717936D02*
X8778515Y-12727460D01*
X8778515Y-12727460D02*
X8797563Y-12736984D01*
X8797563Y-12736984D02*
X8835658Y-12736984D01*
X8835658Y-12736984D02*
X8854705Y-12727460D01*
X8854705Y-12727460D02*
X8864229Y-12717936D01*
X8864229Y-12717936D02*
X8873753Y-12698888D01*
X8873753Y-12698888D02*
X8873753Y-12651269D01*
X8873753Y-12651269D02*
X8864229Y-12632222D01*
X8864229Y-12632222D02*
X8854705Y-12622698D01*
X8854705Y-12622698D02*
X8835658Y-12613174D01*
X8835658Y-12613174D02*
X8797563Y-12613174D01*
X8797563Y-12613174D02*
X8778515Y-12622698D01*
X8778515Y-12622698D02*
X8768991Y-12632222D01*
X8768991Y-12632222D02*
X8759467Y-12651269D01*
X8997563Y-12536984D02*
X9016610Y-12536984D01*
X9016610Y-12536984D02*
X9035658Y-12546508D01*
X9035658Y-12546508D02*
X9045182Y-12556031D01*
X9045182Y-12556031D02*
X9054705Y-12575079D01*
X9054705Y-12575079D02*
X9064229Y-12613174D01*
X9064229Y-12613174D02*
X9064229Y-12660793D01*
X9064229Y-12660793D02*
X9054705Y-12698888D01*
X9054705Y-12698888D02*
X9045182Y-12717936D01*
X9045182Y-12717936D02*
X9035658Y-12727460D01*
X9035658Y-12727460D02*
X9016610Y-12736984D01*
X9016610Y-12736984D02*
X8997563Y-12736984D01*
X8997563Y-12736984D02*
X8978515Y-12727460D01*
X8978515Y-12727460D02*
X8968991Y-12717936D01*
X8968991Y-12717936D02*
X8959467Y-12698888D01*
X8959467Y-12698888D02*
X8949944Y-12660793D01*
X8949944Y-12660793D02*
X8949944Y-12613174D01*
X8949944Y-12613174D02*
X8959467Y-12575079D01*
X8959467Y-12575079D02*
X8968991Y-12556031D01*
X8968991Y-12556031D02*
X8978515Y-12546508D01*
X8978515Y-12546508D02*
X8997563Y-12536984D01*
X9188039Y-12536984D02*
X9207086Y-12536984D01*
X9207086Y-12536984D02*
X9226134Y-12546508D01*
X9226134Y-12546508D02*
X9235658Y-12556031D01*
X9235658Y-12556031D02*
X9245182Y-12575079D01*
X9245182Y-12575079D02*
X9254705Y-12613174D01*
X9254705Y-12613174D02*
X9254705Y-12660793D01*
X9254705Y-12660793D02*
X9245182Y-12698888D01*
X9245182Y-12698888D02*
X9235658Y-12717936D01*
X9235658Y-12717936D02*
X9226134Y-12727460D01*
X9226134Y-12727460D02*
X9207086Y-12736984D01*
X9207086Y-12736984D02*
X9188039Y-12736984D01*
X9188039Y-12736984D02*
X9168991Y-12727460D01*
X9168991Y-12727460D02*
X9159467Y-12717936D01*
X9159467Y-12717936D02*
X9149944Y-12698888D01*
X9149944Y-12698888D02*
X9140420Y-12660793D01*
X9140420Y-12660793D02*
X9140420Y-12613174D01*
X9140420Y-12613174D02*
X9149944Y-12575079D01*
X9149944Y-12575079D02*
X9159467Y-12556031D01*
X9159467Y-12556031D02*
X9168991Y-12546508D01*
X9168991Y-12546508D02*
X9188039Y-12536984D01*
X9340420Y-12736984D02*
X9340420Y-12603650D01*
X9340420Y-12622698D02*
X9349944Y-12613174D01*
X9349944Y-12613174D02*
X9368991Y-12603650D01*
X9368991Y-12603650D02*
X9397563Y-12603650D01*
X9397563Y-12603650D02*
X9416610Y-12613174D01*
X9416610Y-12613174D02*
X9426134Y-12632222D01*
X9426134Y-12632222D02*
X9426134Y-12736984D01*
X9426134Y-12632222D02*
X9435658Y-12613174D01*
X9435658Y-12613174D02*
X9454705Y-12603650D01*
X9454705Y-12603650D02*
X9483277Y-12603650D01*
X9483277Y-12603650D02*
X9502325Y-12613174D01*
X9502325Y-12613174D02*
X9511848Y-12632222D01*
X9511848Y-12632222D02*
X9511848Y-12736984D01*
X9607086Y-12736984D02*
X9607086Y-12603650D01*
X9607086Y-12622698D02*
X9616610Y-12613174D01*
X9616610Y-12613174D02*
X9635658Y-12603650D01*
X9635658Y-12603650D02*
X9664229Y-12603650D01*
X9664229Y-12603650D02*
X9683277Y-12613174D01*
X9683277Y-12613174D02*
X9692801Y-12632222D01*
X9692801Y-12632222D02*
X9692801Y-12736984D01*
X9692801Y-12632222D02*
X9702325Y-12613174D01*
X9702325Y-12613174D02*
X9721372Y-12603650D01*
X9721372Y-12603650D02*
X9749944Y-12603650D01*
X9749944Y-12603650D02*
X9768991Y-12613174D01*
X9768991Y-12613174D02*
X9778515Y-12632222D01*
X9778515Y-12632222D02*
X9778515Y-12736984D01*
X10168991Y-12527460D02*
X9997563Y-12784603D01*
X10426134Y-12536984D02*
X10445182Y-12536984D01*
X10445182Y-12536984D02*
X10464229Y-12546508D01*
X10464229Y-12546508D02*
X10473753Y-12556031D01*
X10473753Y-12556031D02*
X10483277Y-12575079D01*
X10483277Y-12575079D02*
X10492801Y-12613174D01*
X10492801Y-12613174D02*
X10492801Y-12660793D01*
X10492801Y-12660793D02*
X10483277Y-12698888D01*
X10483277Y-12698888D02*
X10473753Y-12717936D01*
X10473753Y-12717936D02*
X10464229Y-12727460D01*
X10464229Y-12727460D02*
X10445182Y-12736984D01*
X10445182Y-12736984D02*
X10426134Y-12736984D01*
X10426134Y-12736984D02*
X10407087Y-12727460D01*
X10407087Y-12727460D02*
X10397563Y-12717936D01*
X10397563Y-12717936D02*
X10388039Y-12698888D01*
X10388039Y-12698888D02*
X10378515Y-12660793D01*
X10378515Y-12660793D02*
X10378515Y-12613174D01*
X10378515Y-12613174D02*
X10388039Y-12575079D01*
X10388039Y-12575079D02*
X10397563Y-12556031D01*
X10397563Y-12556031D02*
X10407087Y-12546508D01*
X10407087Y-12546508D02*
X10426134Y-12536984D01*
X10578515Y-12717936D02*
X10588039Y-12727460D01*
X10588039Y-12727460D02*
X10578515Y-12736984D01*
X10578515Y-12736984D02*
X10568991Y-12727460D01*
X10568991Y-12727460D02*
X10578515Y-12717936D01*
X10578515Y-12717936D02*
X10578515Y-12736984D01*
X10711848Y-12536984D02*
X10730896Y-12536984D01*
X10730896Y-12536984D02*
X10749944Y-12546508D01*
X10749944Y-12546508D02*
X10759468Y-12556031D01*
X10759468Y-12556031D02*
X10768991Y-12575079D01*
X10768991Y-12575079D02*
X10778515Y-12613174D01*
X10778515Y-12613174D02*
X10778515Y-12660793D01*
X10778515Y-12660793D02*
X10768991Y-12698888D01*
X10768991Y-12698888D02*
X10759468Y-12717936D01*
X10759468Y-12717936D02*
X10749944Y-12727460D01*
X10749944Y-12727460D02*
X10730896Y-12736984D01*
X10730896Y-12736984D02*
X10711848Y-12736984D01*
X10711848Y-12736984D02*
X10692801Y-12727460D01*
X10692801Y-12727460D02*
X10683277Y-12717936D01*
X10683277Y-12717936D02*
X10673753Y-12698888D01*
X10673753Y-12698888D02*
X10664229Y-12660793D01*
X10664229Y-12660793D02*
X10664229Y-12613174D01*
X10664229Y-12613174D02*
X10673753Y-12575079D01*
X10673753Y-12575079D02*
X10683277Y-12556031D01*
X10683277Y-12556031D02*
X10692801Y-12546508D01*
X10692801Y-12546508D02*
X10711848Y-12536984D01*
X10854706Y-12556031D02*
X10864229Y-12546508D01*
X10864229Y-12546508D02*
X10883277Y-12536984D01*
X10883277Y-12536984D02*
X10930896Y-12536984D01*
X10930896Y-12536984D02*
X10949944Y-12546508D01*
X10949944Y-12546508D02*
X10959468Y-12556031D01*
X10959468Y-12556031D02*
X10968991Y-12575079D01*
X10968991Y-12575079D02*
X10968991Y-12594127D01*
X10968991Y-12594127D02*
X10959468Y-12622698D01*
X10959468Y-12622698D02*
X10845182Y-12736984D01*
X10845182Y-12736984D02*
X10968991Y-12736984D01*
X11035658Y-12536984D02*
X11159468Y-12536984D01*
X11159468Y-12536984D02*
X11092801Y-12613174D01*
X11092801Y-12613174D02*
X11121372Y-12613174D01*
X11121372Y-12613174D02*
X11140420Y-12622698D01*
X11140420Y-12622698D02*
X11149944Y-12632222D01*
X11149944Y-12632222D02*
X11159468Y-12651269D01*
X11159468Y-12651269D02*
X11159468Y-12698888D01*
X11159468Y-12698888D02*
X11149944Y-12717936D01*
X11149944Y-12717936D02*
X11140420Y-12727460D01*
X11140420Y-12727460D02*
X11121372Y-12736984D01*
X11121372Y-12736984D02*
X11064229Y-12736984D01*
X11064229Y-12736984D02*
X11045182Y-12727460D01*
X11045182Y-12727460D02*
X11035658Y-12717936D01*
X11330896Y-12536984D02*
X11292801Y-12536984D01*
X11292801Y-12536984D02*
X11273753Y-12546508D01*
X11273753Y-12546508D02*
X11264229Y-12556031D01*
X11264229Y-12556031D02*
X11245182Y-12584603D01*
X11245182Y-12584603D02*
X11235658Y-12622698D01*
X11235658Y-12622698D02*
X11235658Y-12698888D01*
X11235658Y-12698888D02*
X11245182Y-12717936D01*
X11245182Y-12717936D02*
X11254706Y-12727460D01*
X11254706Y-12727460D02*
X11273753Y-12736984D01*
X11273753Y-12736984D02*
X11311848Y-12736984D01*
X11311848Y-12736984D02*
X11330896Y-12727460D01*
X11330896Y-12727460D02*
X11340420Y-12717936D01*
X11340420Y-12717936D02*
X11349944Y-12698888D01*
X11349944Y-12698888D02*
X11349944Y-12651269D01*
X11349944Y-12651269D02*
X11340420Y-12632222D01*
X11340420Y-12632222D02*
X11330896Y-12622698D01*
X11330896Y-12622698D02*
X11311848Y-12613174D01*
X11311848Y-12613174D02*
X11273753Y-12613174D01*
X11273753Y-12613174D02*
X11254706Y-12622698D01*
X11254706Y-12622698D02*
X11245182Y-12632222D01*
X11245182Y-12632222D02*
X11235658Y-12651269D01*
X11426134Y-12536984D02*
X11426134Y-12575079D01*
X11502325Y-12536984D02*
X11502325Y-12575079D01*
X11797563Y-12813174D02*
X11788039Y-12803650D01*
X11788039Y-12803650D02*
X11768991Y-12775079D01*
X11768991Y-12775079D02*
X11759468Y-12756031D01*
X11759468Y-12756031D02*
X11749944Y-12727460D01*
X11749944Y-12727460D02*
X11740420Y-12679841D01*
X11740420Y-12679841D02*
X11740420Y-12641746D01*
X11740420Y-12641746D02*
X11749944Y-12594127D01*
X11749944Y-12594127D02*
X11759468Y-12565555D01*
X11759468Y-12565555D02*
X11768991Y-12546508D01*
X11768991Y-12546508D02*
X11788039Y-12517936D01*
X11788039Y-12517936D02*
X11797563Y-12508412D01*
X11911848Y-12536984D02*
X11930896Y-12536984D01*
X11930896Y-12536984D02*
X11949944Y-12546508D01*
X11949944Y-12546508D02*
X11959468Y-12556031D01*
X11959468Y-12556031D02*
X11968991Y-12575079D01*
X11968991Y-12575079D02*
X11978515Y-12613174D01*
X11978515Y-12613174D02*
X11978515Y-12660793D01*
X11978515Y-12660793D02*
X11968991Y-12698888D01*
X11968991Y-12698888D02*
X11959468Y-12717936D01*
X11959468Y-12717936D02*
X11949944Y-12727460D01*
X11949944Y-12727460D02*
X11930896Y-12736984D01*
X11930896Y-12736984D02*
X11911848Y-12736984D01*
X11911848Y-12736984D02*
X11892801Y-12727460D01*
X11892801Y-12727460D02*
X11883277Y-12717936D01*
X11883277Y-12717936D02*
X11873753Y-12698888D01*
X11873753Y-12698888D02*
X11864229Y-12660793D01*
X11864229Y-12660793D02*
X11864229Y-12613174D01*
X11864229Y-12613174D02*
X11873753Y-12575079D01*
X11873753Y-12575079D02*
X11883277Y-12556031D01*
X11883277Y-12556031D02*
X11892801Y-12546508D01*
X11892801Y-12546508D02*
X11911848Y-12536984D01*
X12216610Y-12736984D02*
X12216610Y-12536984D01*
X12302325Y-12736984D02*
X12302325Y-12632222D01*
X12302325Y-12632222D02*
X12292801Y-12613174D01*
X12292801Y-12613174D02*
X12273753Y-12603650D01*
X12273753Y-12603650D02*
X12245182Y-12603650D01*
X12245182Y-12603650D02*
X12226134Y-12613174D01*
X12226134Y-12613174D02*
X12216610Y-12622698D01*
X12426134Y-12736984D02*
X12407087Y-12727460D01*
X12407087Y-12727460D02*
X12397563Y-12717936D01*
X12397563Y-12717936D02*
X12388039Y-12698888D01*
X12388039Y-12698888D02*
X12388039Y-12641746D01*
X12388039Y-12641746D02*
X12397563Y-12622698D01*
X12397563Y-12622698D02*
X12407087Y-12613174D01*
X12407087Y-12613174D02*
X12426134Y-12603650D01*
X12426134Y-12603650D02*
X12454706Y-12603650D01*
X12454706Y-12603650D02*
X12473753Y-12613174D01*
X12473753Y-12613174D02*
X12483277Y-12622698D01*
X12483277Y-12622698D02*
X12492801Y-12641746D01*
X12492801Y-12641746D02*
X12492801Y-12698888D01*
X12492801Y-12698888D02*
X12483277Y-12717936D01*
X12483277Y-12717936D02*
X12473753Y-12727460D01*
X12473753Y-12727460D02*
X12454706Y-12736984D01*
X12454706Y-12736984D02*
X12426134Y-12736984D01*
X12607087Y-12736984D02*
X12588039Y-12727460D01*
X12588039Y-12727460D02*
X12578515Y-12708412D01*
X12578515Y-12708412D02*
X12578515Y-12536984D01*
X12759468Y-12727460D02*
X12740420Y-12736984D01*
X12740420Y-12736984D02*
X12702325Y-12736984D01*
X12702325Y-12736984D02*
X12683277Y-12727460D01*
X12683277Y-12727460D02*
X12673753Y-12708412D01*
X12673753Y-12708412D02*
X12673753Y-12632222D01*
X12673753Y-12632222D02*
X12683277Y-12613174D01*
X12683277Y-12613174D02*
X12702325Y-12603650D01*
X12702325Y-12603650D02*
X12740420Y-12603650D01*
X12740420Y-12603650D02*
X12759468Y-12613174D01*
X12759468Y-12613174D02*
X12768991Y-12632222D01*
X12768991Y-12632222D02*
X12768991Y-12651269D01*
X12768991Y-12651269D02*
X12673753Y-12670317D01*
X12845182Y-12727460D02*
X12864230Y-12736984D01*
X12864230Y-12736984D02*
X12902325Y-12736984D01*
X12902325Y-12736984D02*
X12921372Y-12727460D01*
X12921372Y-12727460D02*
X12930896Y-12708412D01*
X12930896Y-12708412D02*
X12930896Y-12698888D01*
X12930896Y-12698888D02*
X12921372Y-12679841D01*
X12921372Y-12679841D02*
X12902325Y-12670317D01*
X12902325Y-12670317D02*
X12873753Y-12670317D01*
X12873753Y-12670317D02*
X12854706Y-12660793D01*
X12854706Y-12660793D02*
X12845182Y-12641746D01*
X12845182Y-12641746D02*
X12845182Y-12632222D01*
X12845182Y-12632222D02*
X12854706Y-12613174D01*
X12854706Y-12613174D02*
X12873753Y-12603650D01*
X12873753Y-12603650D02*
X12902325Y-12603650D01*
X12902325Y-12603650D02*
X12921372Y-12613174D01*
X13168992Y-12660793D02*
X13321373Y-12660793D01*
X13245182Y-12736984D02*
X13245182Y-12584603D01*
X13654706Y-12603650D02*
X13654706Y-12736984D01*
X13607087Y-12527460D02*
X13559468Y-12670317D01*
X13559468Y-12670317D02*
X13683277Y-12670317D01*
X13902325Y-12727460D02*
X13921373Y-12736984D01*
X13921373Y-12736984D02*
X13959468Y-12736984D01*
X13959468Y-12736984D02*
X13978515Y-12727460D01*
X13978515Y-12727460D02*
X13988039Y-12708412D01*
X13988039Y-12708412D02*
X13988039Y-12698888D01*
X13988039Y-12698888D02*
X13978515Y-12679841D01*
X13978515Y-12679841D02*
X13959468Y-12670317D01*
X13959468Y-12670317D02*
X13930896Y-12670317D01*
X13930896Y-12670317D02*
X13911849Y-12660793D01*
X13911849Y-12660793D02*
X13902325Y-12641746D01*
X13902325Y-12641746D02*
X13902325Y-12632222D01*
X13902325Y-12632222D02*
X13911849Y-12613174D01*
X13911849Y-12613174D02*
X13930896Y-12603650D01*
X13930896Y-12603650D02*
X13959468Y-12603650D01*
X13959468Y-12603650D02*
X13978515Y-12613174D01*
X14102325Y-12736984D02*
X14083277Y-12727460D01*
X14083277Y-12727460D02*
X14073754Y-12708412D01*
X14073754Y-12708412D02*
X14073754Y-12536984D01*
X14207087Y-12736984D02*
X14188039Y-12727460D01*
X14188039Y-12727460D02*
X14178515Y-12717936D01*
X14178515Y-12717936D02*
X14168992Y-12698888D01*
X14168992Y-12698888D02*
X14168992Y-12641746D01*
X14168992Y-12641746D02*
X14178515Y-12622698D01*
X14178515Y-12622698D02*
X14188039Y-12613174D01*
X14188039Y-12613174D02*
X14207087Y-12603650D01*
X14207087Y-12603650D02*
X14235658Y-12603650D01*
X14235658Y-12603650D02*
X14254706Y-12613174D01*
X14254706Y-12613174D02*
X14264230Y-12622698D01*
X14264230Y-12622698D02*
X14273754Y-12641746D01*
X14273754Y-12641746D02*
X14273754Y-12698888D01*
X14273754Y-12698888D02*
X14264230Y-12717936D01*
X14264230Y-12717936D02*
X14254706Y-12727460D01*
X14254706Y-12727460D02*
X14235658Y-12736984D01*
X14235658Y-12736984D02*
X14207087Y-12736984D01*
X14330896Y-12603650D02*
X14407087Y-12603650D01*
X14359468Y-12536984D02*
X14359468Y-12708412D01*
X14359468Y-12708412D02*
X14368992Y-12727460D01*
X14368992Y-12727460D02*
X14388039Y-12736984D01*
X14388039Y-12736984D02*
X14407087Y-12736984D01*
X14464230Y-12727460D02*
X14483277Y-12736984D01*
X14483277Y-12736984D02*
X14521373Y-12736984D01*
X14521373Y-12736984D02*
X14540420Y-12727460D01*
X14540420Y-12727460D02*
X14549944Y-12708412D01*
X14549944Y-12708412D02*
X14549944Y-12698888D01*
X14549944Y-12698888D02*
X14540420Y-12679841D01*
X14540420Y-12679841D02*
X14521373Y-12670317D01*
X14521373Y-12670317D02*
X14492801Y-12670317D01*
X14492801Y-12670317D02*
X14473754Y-12660793D01*
X14473754Y-12660793D02*
X14464230Y-12641746D01*
X14464230Y-12641746D02*
X14464230Y-12632222D01*
X14464230Y-12632222D02*
X14473754Y-12613174D01*
X14473754Y-12613174D02*
X14492801Y-12603650D01*
X14492801Y-12603650D02*
X14521373Y-12603650D01*
X14521373Y-12603650D02*
X14540420Y-12613174D01*
X14616611Y-12813174D02*
X14626135Y-12803650D01*
X14626135Y-12803650D02*
X14645182Y-12775079D01*
X14645182Y-12775079D02*
X14654706Y-12756031D01*
X14654706Y-12756031D02*
X14664230Y-12727460D01*
X14664230Y-12727460D02*
X14673754Y-12679841D01*
X14673754Y-12679841D02*
X14673754Y-12641746D01*
X14673754Y-12641746D02*
X14664230Y-12594127D01*
X14664230Y-12594127D02*
X14654706Y-12565555D01*
X14654706Y-12565555D02*
X14645182Y-12546508D01*
X14645182Y-12546508D02*
X14626135Y-12517936D01*
X14626135Y-12517936D02*
X14616611Y-12508412D01*
D14*
X8212249Y-12934250D02*
X8212249Y-12884750D01*
X8162749Y-12884750D01*
X8162749Y-12934250D01*
X8212249Y-12934250D01*
D11*
X8521372Y-12800984D02*
X8540420Y-12800984D01*
X8540420Y-12800984D02*
X8559467Y-12810508D01*
X8559467Y-12810508D02*
X8568991Y-12820031D01*
X8568991Y-12820031D02*
X8578515Y-12839079D01*
X8578515Y-12839079D02*
X8588039Y-12877174D01*
X8588039Y-12877174D02*
X8588039Y-12924793D01*
X8588039Y-12924793D02*
X8578515Y-12962888D01*
X8578515Y-12962888D02*
X8568991Y-12981936D01*
X8568991Y-12981936D02*
X8559467Y-12991460D01*
X8559467Y-12991460D02*
X8540420Y-13000984D01*
X8540420Y-13000984D02*
X8521372Y-13000984D01*
X8521372Y-13000984D02*
X8502324Y-12991460D01*
X8502324Y-12991460D02*
X8492801Y-12981936D01*
X8492801Y-12981936D02*
X8483277Y-12962888D01*
X8483277Y-12962888D02*
X8473753Y-12924793D01*
X8473753Y-12924793D02*
X8473753Y-12877174D01*
X8473753Y-12877174D02*
X8483277Y-12839079D01*
X8483277Y-12839079D02*
X8492801Y-12820031D01*
X8492801Y-12820031D02*
X8502324Y-12810508D01*
X8502324Y-12810508D02*
X8521372Y-12800984D01*
X8673753Y-12981936D02*
X8683277Y-12991460D01*
X8683277Y-12991460D02*
X8673753Y-13000984D01*
X8673753Y-13000984D02*
X8664229Y-12991460D01*
X8664229Y-12991460D02*
X8673753Y-12981936D01*
X8673753Y-12981936D02*
X8673753Y-13000984D01*
X8749944Y-12800984D02*
X8883277Y-12800984D01*
X8883277Y-12800984D02*
X8797563Y-13000984D01*
X8997563Y-12800984D02*
X9016610Y-12800984D01*
X9016610Y-12800984D02*
X9035658Y-12810508D01*
X9035658Y-12810508D02*
X9045182Y-12820031D01*
X9045182Y-12820031D02*
X9054705Y-12839079D01*
X9054705Y-12839079D02*
X9064229Y-12877174D01*
X9064229Y-12877174D02*
X9064229Y-12924793D01*
X9064229Y-12924793D02*
X9054705Y-12962888D01*
X9054705Y-12962888D02*
X9045182Y-12981936D01*
X9045182Y-12981936D02*
X9035658Y-12991460D01*
X9035658Y-12991460D02*
X9016610Y-13000984D01*
X9016610Y-13000984D02*
X8997563Y-13000984D01*
X8997563Y-13000984D02*
X8978515Y-12991460D01*
X8978515Y-12991460D02*
X8968991Y-12981936D01*
X8968991Y-12981936D02*
X8959467Y-12962888D01*
X8959467Y-12962888D02*
X8949944Y-12924793D01*
X8949944Y-12924793D02*
X8949944Y-12877174D01*
X8949944Y-12877174D02*
X8959467Y-12839079D01*
X8959467Y-12839079D02*
X8968991Y-12820031D01*
X8968991Y-12820031D02*
X8978515Y-12810508D01*
X8978515Y-12810508D02*
X8997563Y-12800984D01*
X9188039Y-12800984D02*
X9207086Y-12800984D01*
X9207086Y-12800984D02*
X9226134Y-12810508D01*
X9226134Y-12810508D02*
X9235658Y-12820031D01*
X9235658Y-12820031D02*
X9245182Y-12839079D01*
X9245182Y-12839079D02*
X9254705Y-12877174D01*
X9254705Y-12877174D02*
X9254705Y-12924793D01*
X9254705Y-12924793D02*
X9245182Y-12962888D01*
X9245182Y-12962888D02*
X9235658Y-12981936D01*
X9235658Y-12981936D02*
X9226134Y-12991460D01*
X9226134Y-12991460D02*
X9207086Y-13000984D01*
X9207086Y-13000984D02*
X9188039Y-13000984D01*
X9188039Y-13000984D02*
X9168991Y-12991460D01*
X9168991Y-12991460D02*
X9159467Y-12981936D01*
X9159467Y-12981936D02*
X9149944Y-12962888D01*
X9149944Y-12962888D02*
X9140420Y-12924793D01*
X9140420Y-12924793D02*
X9140420Y-12877174D01*
X9140420Y-12877174D02*
X9149944Y-12839079D01*
X9149944Y-12839079D02*
X9159467Y-12820031D01*
X9159467Y-12820031D02*
X9168991Y-12810508D01*
X9168991Y-12810508D02*
X9188039Y-12800984D01*
X9340420Y-13000984D02*
X9340420Y-12867650D01*
X9340420Y-12886698D02*
X9349944Y-12877174D01*
X9349944Y-12877174D02*
X9368991Y-12867650D01*
X9368991Y-12867650D02*
X9397563Y-12867650D01*
X9397563Y-12867650D02*
X9416610Y-12877174D01*
X9416610Y-12877174D02*
X9426134Y-12896222D01*
X9426134Y-12896222D02*
X9426134Y-13000984D01*
X9426134Y-12896222D02*
X9435658Y-12877174D01*
X9435658Y-12877174D02*
X9454705Y-12867650D01*
X9454705Y-12867650D02*
X9483277Y-12867650D01*
X9483277Y-12867650D02*
X9502325Y-12877174D01*
X9502325Y-12877174D02*
X9511848Y-12896222D01*
X9511848Y-12896222D02*
X9511848Y-13000984D01*
X9607086Y-13000984D02*
X9607086Y-12867650D01*
X9607086Y-12886698D02*
X9616610Y-12877174D01*
X9616610Y-12877174D02*
X9635658Y-12867650D01*
X9635658Y-12867650D02*
X9664229Y-12867650D01*
X9664229Y-12867650D02*
X9683277Y-12877174D01*
X9683277Y-12877174D02*
X9692801Y-12896222D01*
X9692801Y-12896222D02*
X9692801Y-13000984D01*
X9692801Y-12896222D02*
X9702325Y-12877174D01*
X9702325Y-12877174D02*
X9721372Y-12867650D01*
X9721372Y-12867650D02*
X9749944Y-12867650D01*
X9749944Y-12867650D02*
X9768991Y-12877174D01*
X9768991Y-12877174D02*
X9778515Y-12896222D01*
X9778515Y-12896222D02*
X9778515Y-13000984D01*
X10168991Y-12791460D02*
X9997563Y-13048603D01*
X10426134Y-12800984D02*
X10445182Y-12800984D01*
X10445182Y-12800984D02*
X10464229Y-12810508D01*
X10464229Y-12810508D02*
X10473753Y-12820031D01*
X10473753Y-12820031D02*
X10483277Y-12839079D01*
X10483277Y-12839079D02*
X10492801Y-12877174D01*
X10492801Y-12877174D02*
X10492801Y-12924793D01*
X10492801Y-12924793D02*
X10483277Y-12962888D01*
X10483277Y-12962888D02*
X10473753Y-12981936D01*
X10473753Y-12981936D02*
X10464229Y-12991460D01*
X10464229Y-12991460D02*
X10445182Y-13000984D01*
X10445182Y-13000984D02*
X10426134Y-13000984D01*
X10426134Y-13000984D02*
X10407087Y-12991460D01*
X10407087Y-12991460D02*
X10397563Y-12981936D01*
X10397563Y-12981936D02*
X10388039Y-12962888D01*
X10388039Y-12962888D02*
X10378515Y-12924793D01*
X10378515Y-12924793D02*
X10378515Y-12877174D01*
X10378515Y-12877174D02*
X10388039Y-12839079D01*
X10388039Y-12839079D02*
X10397563Y-12820031D01*
X10397563Y-12820031D02*
X10407087Y-12810508D01*
X10407087Y-12810508D02*
X10426134Y-12800984D01*
X10578515Y-12981936D02*
X10588039Y-12991460D01*
X10588039Y-12991460D02*
X10578515Y-13000984D01*
X10578515Y-13000984D02*
X10568991Y-12991460D01*
X10568991Y-12991460D02*
X10578515Y-12981936D01*
X10578515Y-12981936D02*
X10578515Y-13000984D01*
X10711848Y-12800984D02*
X10730896Y-12800984D01*
X10730896Y-12800984D02*
X10749944Y-12810508D01*
X10749944Y-12810508D02*
X10759468Y-12820031D01*
X10759468Y-12820031D02*
X10768991Y-12839079D01*
X10768991Y-12839079D02*
X10778515Y-12877174D01*
X10778515Y-12877174D02*
X10778515Y-12924793D01*
X10778515Y-12924793D02*
X10768991Y-12962888D01*
X10768991Y-12962888D02*
X10759468Y-12981936D01*
X10759468Y-12981936D02*
X10749944Y-12991460D01*
X10749944Y-12991460D02*
X10730896Y-13000984D01*
X10730896Y-13000984D02*
X10711848Y-13000984D01*
X10711848Y-13000984D02*
X10692801Y-12991460D01*
X10692801Y-12991460D02*
X10683277Y-12981936D01*
X10683277Y-12981936D02*
X10673753Y-12962888D01*
X10673753Y-12962888D02*
X10664229Y-12924793D01*
X10664229Y-12924793D02*
X10664229Y-12877174D01*
X10664229Y-12877174D02*
X10673753Y-12839079D01*
X10673753Y-12839079D02*
X10683277Y-12820031D01*
X10683277Y-12820031D02*
X10692801Y-12810508D01*
X10692801Y-12810508D02*
X10711848Y-12800984D01*
X10854706Y-12820031D02*
X10864229Y-12810508D01*
X10864229Y-12810508D02*
X10883277Y-12800984D01*
X10883277Y-12800984D02*
X10930896Y-12800984D01*
X10930896Y-12800984D02*
X10949944Y-12810508D01*
X10949944Y-12810508D02*
X10959468Y-12820031D01*
X10959468Y-12820031D02*
X10968991Y-12839079D01*
X10968991Y-12839079D02*
X10968991Y-12858127D01*
X10968991Y-12858127D02*
X10959468Y-12886698D01*
X10959468Y-12886698D02*
X10845182Y-13000984D01*
X10845182Y-13000984D02*
X10968991Y-13000984D01*
X11035658Y-12800984D02*
X11168991Y-12800984D01*
X11168991Y-12800984D02*
X11083277Y-13000984D01*
X11330896Y-12800984D02*
X11292801Y-12800984D01*
X11292801Y-12800984D02*
X11273753Y-12810508D01*
X11273753Y-12810508D02*
X11264229Y-12820031D01*
X11264229Y-12820031D02*
X11245182Y-12848603D01*
X11245182Y-12848603D02*
X11235658Y-12886698D01*
X11235658Y-12886698D02*
X11235658Y-12962888D01*
X11235658Y-12962888D02*
X11245182Y-12981936D01*
X11245182Y-12981936D02*
X11254706Y-12991460D01*
X11254706Y-12991460D02*
X11273753Y-13000984D01*
X11273753Y-13000984D02*
X11311848Y-13000984D01*
X11311848Y-13000984D02*
X11330896Y-12991460D01*
X11330896Y-12991460D02*
X11340420Y-12981936D01*
X11340420Y-12981936D02*
X11349944Y-12962888D01*
X11349944Y-12962888D02*
X11349944Y-12915269D01*
X11349944Y-12915269D02*
X11340420Y-12896222D01*
X11340420Y-12896222D02*
X11330896Y-12886698D01*
X11330896Y-12886698D02*
X11311848Y-12877174D01*
X11311848Y-12877174D02*
X11273753Y-12877174D01*
X11273753Y-12877174D02*
X11254706Y-12886698D01*
X11254706Y-12886698D02*
X11245182Y-12896222D01*
X11245182Y-12896222D02*
X11235658Y-12915269D01*
X11426134Y-12800984D02*
X11426134Y-12839079D01*
X11502325Y-12800984D02*
X11502325Y-12839079D01*
X11797563Y-13077174D02*
X11788039Y-13067650D01*
X11788039Y-13067650D02*
X11768991Y-13039079D01*
X11768991Y-13039079D02*
X11759468Y-13020031D01*
X11759468Y-13020031D02*
X11749944Y-12991460D01*
X11749944Y-12991460D02*
X11740420Y-12943841D01*
X11740420Y-12943841D02*
X11740420Y-12905746D01*
X11740420Y-12905746D02*
X11749944Y-12858127D01*
X11749944Y-12858127D02*
X11759468Y-12829555D01*
X11759468Y-12829555D02*
X11768991Y-12810508D01*
X11768991Y-12810508D02*
X11788039Y-12781936D01*
X11788039Y-12781936D02*
X11797563Y-12772412D01*
X11911848Y-12800984D02*
X11930896Y-12800984D01*
X11930896Y-12800984D02*
X11949944Y-12810508D01*
X11949944Y-12810508D02*
X11959468Y-12820031D01*
X11959468Y-12820031D02*
X11968991Y-12839079D01*
X11968991Y-12839079D02*
X11978515Y-12877174D01*
X11978515Y-12877174D02*
X11978515Y-12924793D01*
X11978515Y-12924793D02*
X11968991Y-12962888D01*
X11968991Y-12962888D02*
X11959468Y-12981936D01*
X11959468Y-12981936D02*
X11949944Y-12991460D01*
X11949944Y-12991460D02*
X11930896Y-13000984D01*
X11930896Y-13000984D02*
X11911848Y-13000984D01*
X11911848Y-13000984D02*
X11892801Y-12991460D01*
X11892801Y-12991460D02*
X11883277Y-12981936D01*
X11883277Y-12981936D02*
X11873753Y-12962888D01*
X11873753Y-12962888D02*
X11864229Y-12924793D01*
X11864229Y-12924793D02*
X11864229Y-12877174D01*
X11864229Y-12877174D02*
X11873753Y-12839079D01*
X11873753Y-12839079D02*
X11883277Y-12820031D01*
X11883277Y-12820031D02*
X11892801Y-12810508D01*
X11892801Y-12810508D02*
X11911848Y-12800984D01*
X12216610Y-13000984D02*
X12216610Y-12800984D01*
X12302325Y-13000984D02*
X12302325Y-12896222D01*
X12302325Y-12896222D02*
X12292801Y-12877174D01*
X12292801Y-12877174D02*
X12273753Y-12867650D01*
X12273753Y-12867650D02*
X12245182Y-12867650D01*
X12245182Y-12867650D02*
X12226134Y-12877174D01*
X12226134Y-12877174D02*
X12216610Y-12886698D01*
X12426134Y-13000984D02*
X12407087Y-12991460D01*
X12407087Y-12991460D02*
X12397563Y-12981936D01*
X12397563Y-12981936D02*
X12388039Y-12962888D01*
X12388039Y-12962888D02*
X12388039Y-12905746D01*
X12388039Y-12905746D02*
X12397563Y-12886698D01*
X12397563Y-12886698D02*
X12407087Y-12877174D01*
X12407087Y-12877174D02*
X12426134Y-12867650D01*
X12426134Y-12867650D02*
X12454706Y-12867650D01*
X12454706Y-12867650D02*
X12473753Y-12877174D01*
X12473753Y-12877174D02*
X12483277Y-12886698D01*
X12483277Y-12886698D02*
X12492801Y-12905746D01*
X12492801Y-12905746D02*
X12492801Y-12962888D01*
X12492801Y-12962888D02*
X12483277Y-12981936D01*
X12483277Y-12981936D02*
X12473753Y-12991460D01*
X12473753Y-12991460D02*
X12454706Y-13000984D01*
X12454706Y-13000984D02*
X12426134Y-13000984D01*
X12607087Y-13000984D02*
X12588039Y-12991460D01*
X12588039Y-12991460D02*
X12578515Y-12972412D01*
X12578515Y-12972412D02*
X12578515Y-12800984D01*
X12759468Y-12991460D02*
X12740420Y-13000984D01*
X12740420Y-13000984D02*
X12702325Y-13000984D01*
X12702325Y-13000984D02*
X12683277Y-12991460D01*
X12683277Y-12991460D02*
X12673753Y-12972412D01*
X12673753Y-12972412D02*
X12673753Y-12896222D01*
X12673753Y-12896222D02*
X12683277Y-12877174D01*
X12683277Y-12877174D02*
X12702325Y-12867650D01*
X12702325Y-12867650D02*
X12740420Y-12867650D01*
X12740420Y-12867650D02*
X12759468Y-12877174D01*
X12759468Y-12877174D02*
X12768991Y-12896222D01*
X12768991Y-12896222D02*
X12768991Y-12915269D01*
X12768991Y-12915269D02*
X12673753Y-12934317D01*
X12845182Y-12991460D02*
X12864230Y-13000984D01*
X12864230Y-13000984D02*
X12902325Y-13000984D01*
X12902325Y-13000984D02*
X12921372Y-12991460D01*
X12921372Y-12991460D02*
X12930896Y-12972412D01*
X12930896Y-12972412D02*
X12930896Y-12962888D01*
X12930896Y-12962888D02*
X12921372Y-12943841D01*
X12921372Y-12943841D02*
X12902325Y-12934317D01*
X12902325Y-12934317D02*
X12873753Y-12934317D01*
X12873753Y-12934317D02*
X12854706Y-12924793D01*
X12854706Y-12924793D02*
X12845182Y-12905746D01*
X12845182Y-12905746D02*
X12845182Y-12896222D01*
X12845182Y-12896222D02*
X12854706Y-12877174D01*
X12854706Y-12877174D02*
X12873753Y-12867650D01*
X12873753Y-12867650D02*
X12902325Y-12867650D01*
X12902325Y-12867650D02*
X12921372Y-12877174D01*
X13168992Y-12924793D02*
X13321373Y-12924793D01*
X13245182Y-13000984D02*
X13245182Y-12848603D01*
X13559468Y-12820031D02*
X13568992Y-12810508D01*
X13568992Y-12810508D02*
X13588039Y-12800984D01*
X13588039Y-12800984D02*
X13635658Y-12800984D01*
X13635658Y-12800984D02*
X13654706Y-12810508D01*
X13654706Y-12810508D02*
X13664230Y-12820031D01*
X13664230Y-12820031D02*
X13673753Y-12839079D01*
X13673753Y-12839079D02*
X13673753Y-12858127D01*
X13673753Y-12858127D02*
X13664230Y-12886698D01*
X13664230Y-12886698D02*
X13549944Y-13000984D01*
X13549944Y-13000984D02*
X13673753Y-13000984D01*
X13902325Y-12991460D02*
X13921373Y-13000984D01*
X13921373Y-13000984D02*
X13959468Y-13000984D01*
X13959468Y-13000984D02*
X13978515Y-12991460D01*
X13978515Y-12991460D02*
X13988039Y-12972412D01*
X13988039Y-12972412D02*
X13988039Y-12962888D01*
X13988039Y-12962888D02*
X13978515Y-12943841D01*
X13978515Y-12943841D02*
X13959468Y-12934317D01*
X13959468Y-12934317D02*
X13930896Y-12934317D01*
X13930896Y-12934317D02*
X13911849Y-12924793D01*
X13911849Y-12924793D02*
X13902325Y-12905746D01*
X13902325Y-12905746D02*
X13902325Y-12896222D01*
X13902325Y-12896222D02*
X13911849Y-12877174D01*
X13911849Y-12877174D02*
X13930896Y-12867650D01*
X13930896Y-12867650D02*
X13959468Y-12867650D01*
X13959468Y-12867650D02*
X13978515Y-12877174D01*
X14102325Y-13000984D02*
X14083277Y-12991460D01*
X14083277Y-12991460D02*
X14073754Y-12972412D01*
X14073754Y-12972412D02*
X14073754Y-12800984D01*
X14207087Y-13000984D02*
X14188039Y-12991460D01*
X14188039Y-12991460D02*
X14178515Y-12981936D01*
X14178515Y-12981936D02*
X14168992Y-12962888D01*
X14168992Y-12962888D02*
X14168992Y-12905746D01*
X14168992Y-12905746D02*
X14178515Y-12886698D01*
X14178515Y-12886698D02*
X14188039Y-12877174D01*
X14188039Y-12877174D02*
X14207087Y-12867650D01*
X14207087Y-12867650D02*
X14235658Y-12867650D01*
X14235658Y-12867650D02*
X14254706Y-12877174D01*
X14254706Y-12877174D02*
X14264230Y-12886698D01*
X14264230Y-12886698D02*
X14273754Y-12905746D01*
X14273754Y-12905746D02*
X14273754Y-12962888D01*
X14273754Y-12962888D02*
X14264230Y-12981936D01*
X14264230Y-12981936D02*
X14254706Y-12991460D01*
X14254706Y-12991460D02*
X14235658Y-13000984D01*
X14235658Y-13000984D02*
X14207087Y-13000984D01*
X14330896Y-12867650D02*
X14407087Y-12867650D01*
X14359468Y-12800984D02*
X14359468Y-12972412D01*
X14359468Y-12972412D02*
X14368992Y-12991460D01*
X14368992Y-12991460D02*
X14388039Y-13000984D01*
X14388039Y-13000984D02*
X14407087Y-13000984D01*
X14464230Y-12991460D02*
X14483277Y-13000984D01*
X14483277Y-13000984D02*
X14521373Y-13000984D01*
X14521373Y-13000984D02*
X14540420Y-12991460D01*
X14540420Y-12991460D02*
X14549944Y-12972412D01*
X14549944Y-12972412D02*
X14549944Y-12962888D01*
X14549944Y-12962888D02*
X14540420Y-12943841D01*
X14540420Y-12943841D02*
X14521373Y-12934317D01*
X14521373Y-12934317D02*
X14492801Y-12934317D01*
X14492801Y-12934317D02*
X14473754Y-12924793D01*
X14473754Y-12924793D02*
X14464230Y-12905746D01*
X14464230Y-12905746D02*
X14464230Y-12896222D01*
X14464230Y-12896222D02*
X14473754Y-12877174D01*
X14473754Y-12877174D02*
X14492801Y-12867650D01*
X14492801Y-12867650D02*
X14521373Y-12867650D01*
X14521373Y-12867650D02*
X14540420Y-12877174D01*
X14616611Y-13077174D02*
X14626135Y-13067650D01*
X14626135Y-13067650D02*
X14645182Y-13039079D01*
X14645182Y-13039079D02*
X14654706Y-13020031D01*
X14654706Y-13020031D02*
X14664230Y-12991460D01*
X14664230Y-12991460D02*
X14673754Y-12943841D01*
X14673754Y-12943841D02*
X14673754Y-12905746D01*
X14673754Y-12905746D02*
X14664230Y-12858127D01*
X14664230Y-12858127D02*
X14654706Y-12829555D01*
X14654706Y-12829555D02*
X14645182Y-12810508D01*
X14645182Y-12810508D02*
X14626135Y-12781936D01*
X14626135Y-12781936D02*
X14616611Y-12772412D01*
D15*
X8177500Y-13218500D02*
X8222500Y-13173500D01*
X8177500Y-13128500D01*
X8132500Y-13173500D01*
X8177500Y-13218500D01*
D11*
X8521372Y-13064984D02*
X8540420Y-13064984D01*
X8540420Y-13064984D02*
X8559467Y-13074508D01*
X8559467Y-13074508D02*
X8568991Y-13084031D01*
X8568991Y-13084031D02*
X8578515Y-13103079D01*
X8578515Y-13103079D02*
X8588039Y-13141174D01*
X8588039Y-13141174D02*
X8588039Y-13188793D01*
X8588039Y-13188793D02*
X8578515Y-13226888D01*
X8578515Y-13226888D02*
X8568991Y-13245936D01*
X8568991Y-13245936D02*
X8559467Y-13255460D01*
X8559467Y-13255460D02*
X8540420Y-13264984D01*
X8540420Y-13264984D02*
X8521372Y-13264984D01*
X8521372Y-13264984D02*
X8502324Y-13255460D01*
X8502324Y-13255460D02*
X8492801Y-13245936D01*
X8492801Y-13245936D02*
X8483277Y-13226888D01*
X8483277Y-13226888D02*
X8473753Y-13188793D01*
X8473753Y-13188793D02*
X8473753Y-13141174D01*
X8473753Y-13141174D02*
X8483277Y-13103079D01*
X8483277Y-13103079D02*
X8492801Y-13084031D01*
X8492801Y-13084031D02*
X8502324Y-13074508D01*
X8502324Y-13074508D02*
X8521372Y-13064984D01*
X8673753Y-13245936D02*
X8683277Y-13255460D01*
X8683277Y-13255460D02*
X8673753Y-13264984D01*
X8673753Y-13264984D02*
X8664229Y-13255460D01*
X8664229Y-13255460D02*
X8673753Y-13245936D01*
X8673753Y-13245936D02*
X8673753Y-13264984D01*
X8778515Y-13264984D02*
X8816610Y-13264984D01*
X8816610Y-13264984D02*
X8835658Y-13255460D01*
X8835658Y-13255460D02*
X8845182Y-13245936D01*
X8845182Y-13245936D02*
X8864229Y-13217365D01*
X8864229Y-13217365D02*
X8873753Y-13179269D01*
X8873753Y-13179269D02*
X8873753Y-13103079D01*
X8873753Y-13103079D02*
X8864229Y-13084031D01*
X8864229Y-13084031D02*
X8854705Y-13074508D01*
X8854705Y-13074508D02*
X8835658Y-13064984D01*
X8835658Y-13064984D02*
X8797563Y-13064984D01*
X8797563Y-13064984D02*
X8778515Y-13074508D01*
X8778515Y-13074508D02*
X8768991Y-13084031D01*
X8768991Y-13084031D02*
X8759467Y-13103079D01*
X8759467Y-13103079D02*
X8759467Y-13150698D01*
X8759467Y-13150698D02*
X8768991Y-13169746D01*
X8768991Y-13169746D02*
X8778515Y-13179269D01*
X8778515Y-13179269D02*
X8797563Y-13188793D01*
X8797563Y-13188793D02*
X8835658Y-13188793D01*
X8835658Y-13188793D02*
X8854705Y-13179269D01*
X8854705Y-13179269D02*
X8864229Y-13169746D01*
X8864229Y-13169746D02*
X8873753Y-13150698D01*
X8997563Y-13064984D02*
X9016610Y-13064984D01*
X9016610Y-13064984D02*
X9035658Y-13074508D01*
X9035658Y-13074508D02*
X9045182Y-13084031D01*
X9045182Y-13084031D02*
X9054705Y-13103079D01*
X9054705Y-13103079D02*
X9064229Y-13141174D01*
X9064229Y-13141174D02*
X9064229Y-13188793D01*
X9064229Y-13188793D02*
X9054705Y-13226888D01*
X9054705Y-13226888D02*
X9045182Y-13245936D01*
X9045182Y-13245936D02*
X9035658Y-13255460D01*
X9035658Y-13255460D02*
X9016610Y-13264984D01*
X9016610Y-13264984D02*
X8997563Y-13264984D01*
X8997563Y-13264984D02*
X8978515Y-13255460D01*
X8978515Y-13255460D02*
X8968991Y-13245936D01*
X8968991Y-13245936D02*
X8959467Y-13226888D01*
X8959467Y-13226888D02*
X8949944Y-13188793D01*
X8949944Y-13188793D02*
X8949944Y-13141174D01*
X8949944Y-13141174D02*
X8959467Y-13103079D01*
X8959467Y-13103079D02*
X8968991Y-13084031D01*
X8968991Y-13084031D02*
X8978515Y-13074508D01*
X8978515Y-13074508D02*
X8997563Y-13064984D01*
X9188039Y-13064984D02*
X9207086Y-13064984D01*
X9207086Y-13064984D02*
X9226134Y-13074508D01*
X9226134Y-13074508D02*
X9235658Y-13084031D01*
X9235658Y-13084031D02*
X9245182Y-13103079D01*
X9245182Y-13103079D02*
X9254705Y-13141174D01*
X9254705Y-13141174D02*
X9254705Y-13188793D01*
X9254705Y-13188793D02*
X9245182Y-13226888D01*
X9245182Y-13226888D02*
X9235658Y-13245936D01*
X9235658Y-13245936D02*
X9226134Y-13255460D01*
X9226134Y-13255460D02*
X9207086Y-13264984D01*
X9207086Y-13264984D02*
X9188039Y-13264984D01*
X9188039Y-13264984D02*
X9168991Y-13255460D01*
X9168991Y-13255460D02*
X9159467Y-13245936D01*
X9159467Y-13245936D02*
X9149944Y-13226888D01*
X9149944Y-13226888D02*
X9140420Y-13188793D01*
X9140420Y-13188793D02*
X9140420Y-13141174D01*
X9140420Y-13141174D02*
X9149944Y-13103079D01*
X9149944Y-13103079D02*
X9159467Y-13084031D01*
X9159467Y-13084031D02*
X9168991Y-13074508D01*
X9168991Y-13074508D02*
X9188039Y-13064984D01*
X9340420Y-13264984D02*
X9340420Y-13131650D01*
X9340420Y-13150698D02*
X9349944Y-13141174D01*
X9349944Y-13141174D02*
X9368991Y-13131650D01*
X9368991Y-13131650D02*
X9397563Y-13131650D01*
X9397563Y-13131650D02*
X9416610Y-13141174D01*
X9416610Y-13141174D02*
X9426134Y-13160222D01*
X9426134Y-13160222D02*
X9426134Y-13264984D01*
X9426134Y-13160222D02*
X9435658Y-13141174D01*
X9435658Y-13141174D02*
X9454705Y-13131650D01*
X9454705Y-13131650D02*
X9483277Y-13131650D01*
X9483277Y-13131650D02*
X9502325Y-13141174D01*
X9502325Y-13141174D02*
X9511848Y-13160222D01*
X9511848Y-13160222D02*
X9511848Y-13264984D01*
X9607086Y-13264984D02*
X9607086Y-13131650D01*
X9607086Y-13150698D02*
X9616610Y-13141174D01*
X9616610Y-13141174D02*
X9635658Y-13131650D01*
X9635658Y-13131650D02*
X9664229Y-13131650D01*
X9664229Y-13131650D02*
X9683277Y-13141174D01*
X9683277Y-13141174D02*
X9692801Y-13160222D01*
X9692801Y-13160222D02*
X9692801Y-13264984D01*
X9692801Y-13160222D02*
X9702325Y-13141174D01*
X9702325Y-13141174D02*
X9721372Y-13131650D01*
X9721372Y-13131650D02*
X9749944Y-13131650D01*
X9749944Y-13131650D02*
X9768991Y-13141174D01*
X9768991Y-13141174D02*
X9778515Y-13160222D01*
X9778515Y-13160222D02*
X9778515Y-13264984D01*
X10168991Y-13055460D02*
X9997563Y-13312603D01*
X10426134Y-13064984D02*
X10445182Y-13064984D01*
X10445182Y-13064984D02*
X10464229Y-13074508D01*
X10464229Y-13074508D02*
X10473753Y-13084031D01*
X10473753Y-13084031D02*
X10483277Y-13103079D01*
X10483277Y-13103079D02*
X10492801Y-13141174D01*
X10492801Y-13141174D02*
X10492801Y-13188793D01*
X10492801Y-13188793D02*
X10483277Y-13226888D01*
X10483277Y-13226888D02*
X10473753Y-13245936D01*
X10473753Y-13245936D02*
X10464229Y-13255460D01*
X10464229Y-13255460D02*
X10445182Y-13264984D01*
X10445182Y-13264984D02*
X10426134Y-13264984D01*
X10426134Y-13264984D02*
X10407087Y-13255460D01*
X10407087Y-13255460D02*
X10397563Y-13245936D01*
X10397563Y-13245936D02*
X10388039Y-13226888D01*
X10388039Y-13226888D02*
X10378515Y-13188793D01*
X10378515Y-13188793D02*
X10378515Y-13141174D01*
X10378515Y-13141174D02*
X10388039Y-13103079D01*
X10388039Y-13103079D02*
X10397563Y-13084031D01*
X10397563Y-13084031D02*
X10407087Y-13074508D01*
X10407087Y-13074508D02*
X10426134Y-13064984D01*
X10578515Y-13245936D02*
X10588039Y-13255460D01*
X10588039Y-13255460D02*
X10578515Y-13264984D01*
X10578515Y-13264984D02*
X10568991Y-13255460D01*
X10568991Y-13255460D02*
X10578515Y-13245936D01*
X10578515Y-13245936D02*
X10578515Y-13264984D01*
X10711848Y-13064984D02*
X10730896Y-13064984D01*
X10730896Y-13064984D02*
X10749944Y-13074508D01*
X10749944Y-13074508D02*
X10759468Y-13084031D01*
X10759468Y-13084031D02*
X10768991Y-13103079D01*
X10768991Y-13103079D02*
X10778515Y-13141174D01*
X10778515Y-13141174D02*
X10778515Y-13188793D01*
X10778515Y-13188793D02*
X10768991Y-13226888D01*
X10768991Y-13226888D02*
X10759468Y-13245936D01*
X10759468Y-13245936D02*
X10749944Y-13255460D01*
X10749944Y-13255460D02*
X10730896Y-13264984D01*
X10730896Y-13264984D02*
X10711848Y-13264984D01*
X10711848Y-13264984D02*
X10692801Y-13255460D01*
X10692801Y-13255460D02*
X10683277Y-13245936D01*
X10683277Y-13245936D02*
X10673753Y-13226888D01*
X10673753Y-13226888D02*
X10664229Y-13188793D01*
X10664229Y-13188793D02*
X10664229Y-13141174D01*
X10664229Y-13141174D02*
X10673753Y-13103079D01*
X10673753Y-13103079D02*
X10683277Y-13084031D01*
X10683277Y-13084031D02*
X10692801Y-13074508D01*
X10692801Y-13074508D02*
X10711848Y-13064984D01*
X10845182Y-13064984D02*
X10968991Y-13064984D01*
X10968991Y-13064984D02*
X10902325Y-13141174D01*
X10902325Y-13141174D02*
X10930896Y-13141174D01*
X10930896Y-13141174D02*
X10949944Y-13150698D01*
X10949944Y-13150698D02*
X10959468Y-13160222D01*
X10959468Y-13160222D02*
X10968991Y-13179269D01*
X10968991Y-13179269D02*
X10968991Y-13226888D01*
X10968991Y-13226888D02*
X10959468Y-13245936D01*
X10959468Y-13245936D02*
X10949944Y-13255460D01*
X10949944Y-13255460D02*
X10930896Y-13264984D01*
X10930896Y-13264984D02*
X10873753Y-13264984D01*
X10873753Y-13264984D02*
X10854706Y-13255460D01*
X10854706Y-13255460D02*
X10845182Y-13245936D01*
X11149944Y-13064984D02*
X11054706Y-13064984D01*
X11054706Y-13064984D02*
X11045182Y-13160222D01*
X11045182Y-13160222D02*
X11054706Y-13150698D01*
X11054706Y-13150698D02*
X11073753Y-13141174D01*
X11073753Y-13141174D02*
X11121372Y-13141174D01*
X11121372Y-13141174D02*
X11140420Y-13150698D01*
X11140420Y-13150698D02*
X11149944Y-13160222D01*
X11149944Y-13160222D02*
X11159468Y-13179269D01*
X11159468Y-13179269D02*
X11159468Y-13226888D01*
X11159468Y-13226888D02*
X11149944Y-13245936D01*
X11149944Y-13245936D02*
X11140420Y-13255460D01*
X11140420Y-13255460D02*
X11121372Y-13264984D01*
X11121372Y-13264984D02*
X11073753Y-13264984D01*
X11073753Y-13264984D02*
X11054706Y-13255460D01*
X11054706Y-13255460D02*
X11045182Y-13245936D01*
X11330896Y-13131650D02*
X11330896Y-13264984D01*
X11283277Y-13055460D02*
X11235658Y-13198317D01*
X11235658Y-13198317D02*
X11359467Y-13198317D01*
X11426134Y-13064984D02*
X11426134Y-13103079D01*
X11502325Y-13064984D02*
X11502325Y-13103079D01*
X11797563Y-13341174D02*
X11788039Y-13331650D01*
X11788039Y-13331650D02*
X11768991Y-13303079D01*
X11768991Y-13303079D02*
X11759468Y-13284031D01*
X11759468Y-13284031D02*
X11749944Y-13255460D01*
X11749944Y-13255460D02*
X11740420Y-13207841D01*
X11740420Y-13207841D02*
X11740420Y-13169746D01*
X11740420Y-13169746D02*
X11749944Y-13122127D01*
X11749944Y-13122127D02*
X11759468Y-13093555D01*
X11759468Y-13093555D02*
X11768991Y-13074508D01*
X11768991Y-13074508D02*
X11788039Y-13045936D01*
X11788039Y-13045936D02*
X11797563Y-13036412D01*
X11959468Y-13131650D02*
X11959468Y-13264984D01*
X11911848Y-13055460D02*
X11864229Y-13198317D01*
X11864229Y-13198317D02*
X11988039Y-13198317D01*
X12216610Y-13264984D02*
X12216610Y-13064984D01*
X12302325Y-13264984D02*
X12302325Y-13160222D01*
X12302325Y-13160222D02*
X12292801Y-13141174D01*
X12292801Y-13141174D02*
X12273753Y-13131650D01*
X12273753Y-13131650D02*
X12245182Y-13131650D01*
X12245182Y-13131650D02*
X12226134Y-13141174D01*
X12226134Y-13141174D02*
X12216610Y-13150698D01*
X12426134Y-13264984D02*
X12407087Y-13255460D01*
X12407087Y-13255460D02*
X12397563Y-13245936D01*
X12397563Y-13245936D02*
X12388039Y-13226888D01*
X12388039Y-13226888D02*
X12388039Y-13169746D01*
X12388039Y-13169746D02*
X12397563Y-13150698D01*
X12397563Y-13150698D02*
X12407087Y-13141174D01*
X12407087Y-13141174D02*
X12426134Y-13131650D01*
X12426134Y-13131650D02*
X12454706Y-13131650D01*
X12454706Y-13131650D02*
X12473753Y-13141174D01*
X12473753Y-13141174D02*
X12483277Y-13150698D01*
X12483277Y-13150698D02*
X12492801Y-13169746D01*
X12492801Y-13169746D02*
X12492801Y-13226888D01*
X12492801Y-13226888D02*
X12483277Y-13245936D01*
X12483277Y-13245936D02*
X12473753Y-13255460D01*
X12473753Y-13255460D02*
X12454706Y-13264984D01*
X12454706Y-13264984D02*
X12426134Y-13264984D01*
X12607087Y-13264984D02*
X12588039Y-13255460D01*
X12588039Y-13255460D02*
X12578515Y-13236412D01*
X12578515Y-13236412D02*
X12578515Y-13064984D01*
X12759468Y-13255460D02*
X12740420Y-13264984D01*
X12740420Y-13264984D02*
X12702325Y-13264984D01*
X12702325Y-13264984D02*
X12683277Y-13255460D01*
X12683277Y-13255460D02*
X12673753Y-13236412D01*
X12673753Y-13236412D02*
X12673753Y-13160222D01*
X12673753Y-13160222D02*
X12683277Y-13141174D01*
X12683277Y-13141174D02*
X12702325Y-13131650D01*
X12702325Y-13131650D02*
X12740420Y-13131650D01*
X12740420Y-13131650D02*
X12759468Y-13141174D01*
X12759468Y-13141174D02*
X12768991Y-13160222D01*
X12768991Y-13160222D02*
X12768991Y-13179269D01*
X12768991Y-13179269D02*
X12673753Y-13198317D01*
X12845182Y-13255460D02*
X12864230Y-13264984D01*
X12864230Y-13264984D02*
X12902325Y-13264984D01*
X12902325Y-13264984D02*
X12921372Y-13255460D01*
X12921372Y-13255460D02*
X12930896Y-13236412D01*
X12930896Y-13236412D02*
X12930896Y-13226888D01*
X12930896Y-13226888D02*
X12921372Y-13207841D01*
X12921372Y-13207841D02*
X12902325Y-13198317D01*
X12902325Y-13198317D02*
X12873753Y-13198317D01*
X12873753Y-13198317D02*
X12854706Y-13188793D01*
X12854706Y-13188793D02*
X12845182Y-13169746D01*
X12845182Y-13169746D02*
X12845182Y-13160222D01*
X12845182Y-13160222D02*
X12854706Y-13141174D01*
X12854706Y-13141174D02*
X12873753Y-13131650D01*
X12873753Y-13131650D02*
X12902325Y-13131650D01*
X12902325Y-13131650D02*
X12921372Y-13141174D01*
X12997563Y-13341174D02*
X13007087Y-13331650D01*
X13007087Y-13331650D02*
X13026134Y-13303079D01*
X13026134Y-13303079D02*
X13035658Y-13284031D01*
X13035658Y-13284031D02*
X13045182Y-13255460D01*
X13045182Y-13255460D02*
X13054706Y-13207841D01*
X13054706Y-13207841D02*
X13054706Y-13169746D01*
X13054706Y-13169746D02*
X13045182Y-13122127D01*
X13045182Y-13122127D02*
X13035658Y-13093555D01*
X13035658Y-13093555D02*
X13026134Y-13074508D01*
X13026134Y-13074508D02*
X13007087Y-13045936D01*
X13007087Y-13045936D02*
X12997563Y-13036412D01*
D16*
X8122500Y-13387500D02*
X8222500Y-13487500D01*
X8222500Y-13387500D02*
X8122500Y-13487500D01*
X8222500Y-13437500D02*
G75*
G03*
X8222500Y-13437500I-50000J0D01*
G01*
D11*
X8588039Y-13528984D02*
X8473753Y-13528984D01*
X8530896Y-13528984D02*
X8530896Y-13328984D01*
X8530896Y-13328984D02*
X8511848Y-13357555D01*
X8511848Y-13357555D02*
X8492801Y-13376603D01*
X8492801Y-13376603D02*
X8473753Y-13386127D01*
X8673753Y-13509936D02*
X8683277Y-13519460D01*
X8683277Y-13519460D02*
X8673753Y-13528984D01*
X8673753Y-13528984D02*
X8664229Y-13519460D01*
X8664229Y-13519460D02*
X8673753Y-13509936D01*
X8673753Y-13509936D02*
X8673753Y-13528984D01*
X8807086Y-13328984D02*
X8826134Y-13328984D01*
X8826134Y-13328984D02*
X8845182Y-13338508D01*
X8845182Y-13338508D02*
X8854705Y-13348031D01*
X8854705Y-13348031D02*
X8864229Y-13367079D01*
X8864229Y-13367079D02*
X8873753Y-13405174D01*
X8873753Y-13405174D02*
X8873753Y-13452793D01*
X8873753Y-13452793D02*
X8864229Y-13490888D01*
X8864229Y-13490888D02*
X8854705Y-13509936D01*
X8854705Y-13509936D02*
X8845182Y-13519460D01*
X8845182Y-13519460D02*
X8826134Y-13528984D01*
X8826134Y-13528984D02*
X8807086Y-13528984D01*
X8807086Y-13528984D02*
X8788039Y-13519460D01*
X8788039Y-13519460D02*
X8778515Y-13509936D01*
X8778515Y-13509936D02*
X8768991Y-13490888D01*
X8768991Y-13490888D02*
X8759467Y-13452793D01*
X8759467Y-13452793D02*
X8759467Y-13405174D01*
X8759467Y-13405174D02*
X8768991Y-13367079D01*
X8768991Y-13367079D02*
X8778515Y-13348031D01*
X8778515Y-13348031D02*
X8788039Y-13338508D01*
X8788039Y-13338508D02*
X8807086Y-13328984D01*
X8997563Y-13328984D02*
X9016610Y-13328984D01*
X9016610Y-13328984D02*
X9035658Y-13338508D01*
X9035658Y-13338508D02*
X9045182Y-13348031D01*
X9045182Y-13348031D02*
X9054705Y-13367079D01*
X9054705Y-13367079D02*
X9064229Y-13405174D01*
X9064229Y-13405174D02*
X9064229Y-13452793D01*
X9064229Y-13452793D02*
X9054705Y-13490888D01*
X9054705Y-13490888D02*
X9045182Y-13509936D01*
X9045182Y-13509936D02*
X9035658Y-13519460D01*
X9035658Y-13519460D02*
X9016610Y-13528984D01*
X9016610Y-13528984D02*
X8997563Y-13528984D01*
X8997563Y-13528984D02*
X8978515Y-13519460D01*
X8978515Y-13519460D02*
X8968991Y-13509936D01*
X8968991Y-13509936D02*
X8959467Y-13490888D01*
X8959467Y-13490888D02*
X8949944Y-13452793D01*
X8949944Y-13452793D02*
X8949944Y-13405174D01*
X8949944Y-13405174D02*
X8959467Y-13367079D01*
X8959467Y-13367079D02*
X8968991Y-13348031D01*
X8968991Y-13348031D02*
X8978515Y-13338508D01*
X8978515Y-13338508D02*
X8997563Y-13328984D01*
X9188039Y-13328984D02*
X9207086Y-13328984D01*
X9207086Y-13328984D02*
X9226134Y-13338508D01*
X9226134Y-13338508D02*
X9235658Y-13348031D01*
X9235658Y-13348031D02*
X9245182Y-13367079D01*
X9245182Y-13367079D02*
X9254705Y-13405174D01*
X9254705Y-13405174D02*
X9254705Y-13452793D01*
X9254705Y-13452793D02*
X9245182Y-13490888D01*
X9245182Y-13490888D02*
X9235658Y-13509936D01*
X9235658Y-13509936D02*
X9226134Y-13519460D01*
X9226134Y-13519460D02*
X9207086Y-13528984D01*
X9207086Y-13528984D02*
X9188039Y-13528984D01*
X9188039Y-13528984D02*
X9168991Y-13519460D01*
X9168991Y-13519460D02*
X9159467Y-13509936D01*
X9159467Y-13509936D02*
X9149944Y-13490888D01*
X9149944Y-13490888D02*
X9140420Y-13452793D01*
X9140420Y-13452793D02*
X9140420Y-13405174D01*
X9140420Y-13405174D02*
X9149944Y-13367079D01*
X9149944Y-13367079D02*
X9159467Y-13348031D01*
X9159467Y-13348031D02*
X9168991Y-13338508D01*
X9168991Y-13338508D02*
X9188039Y-13328984D01*
X9340420Y-13528984D02*
X9340420Y-13395650D01*
X9340420Y-13414698D02*
X9349944Y-13405174D01*
X9349944Y-13405174D02*
X9368991Y-13395650D01*
X9368991Y-13395650D02*
X9397563Y-13395650D01*
X9397563Y-13395650D02*
X9416610Y-13405174D01*
X9416610Y-13405174D02*
X9426134Y-13424222D01*
X9426134Y-13424222D02*
X9426134Y-13528984D01*
X9426134Y-13424222D02*
X9435658Y-13405174D01*
X9435658Y-13405174D02*
X9454705Y-13395650D01*
X9454705Y-13395650D02*
X9483277Y-13395650D01*
X9483277Y-13395650D02*
X9502325Y-13405174D01*
X9502325Y-13405174D02*
X9511848Y-13424222D01*
X9511848Y-13424222D02*
X9511848Y-13528984D01*
X9607086Y-13528984D02*
X9607086Y-13395650D01*
X9607086Y-13414698D02*
X9616610Y-13405174D01*
X9616610Y-13405174D02*
X9635658Y-13395650D01*
X9635658Y-13395650D02*
X9664229Y-13395650D01*
X9664229Y-13395650D02*
X9683277Y-13405174D01*
X9683277Y-13405174D02*
X9692801Y-13424222D01*
X9692801Y-13424222D02*
X9692801Y-13528984D01*
X9692801Y-13424222D02*
X9702325Y-13405174D01*
X9702325Y-13405174D02*
X9721372Y-13395650D01*
X9721372Y-13395650D02*
X9749944Y-13395650D01*
X9749944Y-13395650D02*
X9768991Y-13405174D01*
X9768991Y-13405174D02*
X9778515Y-13424222D01*
X9778515Y-13424222D02*
X9778515Y-13528984D01*
X10168991Y-13319460D02*
X9997563Y-13576603D01*
X10426134Y-13328984D02*
X10445182Y-13328984D01*
X10445182Y-13328984D02*
X10464229Y-13338508D01*
X10464229Y-13338508D02*
X10473753Y-13348031D01*
X10473753Y-13348031D02*
X10483277Y-13367079D01*
X10483277Y-13367079D02*
X10492801Y-13405174D01*
X10492801Y-13405174D02*
X10492801Y-13452793D01*
X10492801Y-13452793D02*
X10483277Y-13490888D01*
X10483277Y-13490888D02*
X10473753Y-13509936D01*
X10473753Y-13509936D02*
X10464229Y-13519460D01*
X10464229Y-13519460D02*
X10445182Y-13528984D01*
X10445182Y-13528984D02*
X10426134Y-13528984D01*
X10426134Y-13528984D02*
X10407087Y-13519460D01*
X10407087Y-13519460D02*
X10397563Y-13509936D01*
X10397563Y-13509936D02*
X10388039Y-13490888D01*
X10388039Y-13490888D02*
X10378515Y-13452793D01*
X10378515Y-13452793D02*
X10378515Y-13405174D01*
X10378515Y-13405174D02*
X10388039Y-13367079D01*
X10388039Y-13367079D02*
X10397563Y-13348031D01*
X10397563Y-13348031D02*
X10407087Y-13338508D01*
X10407087Y-13338508D02*
X10426134Y-13328984D01*
X10578515Y-13509936D02*
X10588039Y-13519460D01*
X10588039Y-13519460D02*
X10578515Y-13528984D01*
X10578515Y-13528984D02*
X10568991Y-13519460D01*
X10568991Y-13519460D02*
X10578515Y-13509936D01*
X10578515Y-13509936D02*
X10578515Y-13528984D01*
X10711848Y-13328984D02*
X10730896Y-13328984D01*
X10730896Y-13328984D02*
X10749944Y-13338508D01*
X10749944Y-13338508D02*
X10759468Y-13348031D01*
X10759468Y-13348031D02*
X10768991Y-13367079D01*
X10768991Y-13367079D02*
X10778515Y-13405174D01*
X10778515Y-13405174D02*
X10778515Y-13452793D01*
X10778515Y-13452793D02*
X10768991Y-13490888D01*
X10768991Y-13490888D02*
X10759468Y-13509936D01*
X10759468Y-13509936D02*
X10749944Y-13519460D01*
X10749944Y-13519460D02*
X10730896Y-13528984D01*
X10730896Y-13528984D02*
X10711848Y-13528984D01*
X10711848Y-13528984D02*
X10692801Y-13519460D01*
X10692801Y-13519460D02*
X10683277Y-13509936D01*
X10683277Y-13509936D02*
X10673753Y-13490888D01*
X10673753Y-13490888D02*
X10664229Y-13452793D01*
X10664229Y-13452793D02*
X10664229Y-13405174D01*
X10664229Y-13405174D02*
X10673753Y-13367079D01*
X10673753Y-13367079D02*
X10683277Y-13348031D01*
X10683277Y-13348031D02*
X10692801Y-13338508D01*
X10692801Y-13338508D02*
X10711848Y-13328984D01*
X10845182Y-13328984D02*
X10968991Y-13328984D01*
X10968991Y-13328984D02*
X10902325Y-13405174D01*
X10902325Y-13405174D02*
X10930896Y-13405174D01*
X10930896Y-13405174D02*
X10949944Y-13414698D01*
X10949944Y-13414698D02*
X10959468Y-13424222D01*
X10959468Y-13424222D02*
X10968991Y-13443269D01*
X10968991Y-13443269D02*
X10968991Y-13490888D01*
X10968991Y-13490888D02*
X10959468Y-13509936D01*
X10959468Y-13509936D02*
X10949944Y-13519460D01*
X10949944Y-13519460D02*
X10930896Y-13528984D01*
X10930896Y-13528984D02*
X10873753Y-13528984D01*
X10873753Y-13528984D02*
X10854706Y-13519460D01*
X10854706Y-13519460D02*
X10845182Y-13509936D01*
X11064229Y-13528984D02*
X11102325Y-13528984D01*
X11102325Y-13528984D02*
X11121372Y-13519460D01*
X11121372Y-13519460D02*
X11130896Y-13509936D01*
X11130896Y-13509936D02*
X11149944Y-13481365D01*
X11149944Y-13481365D02*
X11159468Y-13443269D01*
X11159468Y-13443269D02*
X11159468Y-13367079D01*
X11159468Y-13367079D02*
X11149944Y-13348031D01*
X11149944Y-13348031D02*
X11140420Y-13338508D01*
X11140420Y-13338508D02*
X11121372Y-13328984D01*
X11121372Y-13328984D02*
X11083277Y-13328984D01*
X11083277Y-13328984D02*
X11064229Y-13338508D01*
X11064229Y-13338508D02*
X11054706Y-13348031D01*
X11054706Y-13348031D02*
X11045182Y-13367079D01*
X11045182Y-13367079D02*
X11045182Y-13414698D01*
X11045182Y-13414698D02*
X11054706Y-13433746D01*
X11054706Y-13433746D02*
X11064229Y-13443269D01*
X11064229Y-13443269D02*
X11083277Y-13452793D01*
X11083277Y-13452793D02*
X11121372Y-13452793D01*
X11121372Y-13452793D02*
X11140420Y-13443269D01*
X11140420Y-13443269D02*
X11149944Y-13433746D01*
X11149944Y-13433746D02*
X11159468Y-13414698D01*
X11330896Y-13395650D02*
X11330896Y-13528984D01*
X11283277Y-13319460D02*
X11235658Y-13462317D01*
X11235658Y-13462317D02*
X11359467Y-13462317D01*
X11426134Y-13328984D02*
X11426134Y-13367079D01*
X11502325Y-13328984D02*
X11502325Y-13367079D01*
X11797563Y-13605174D02*
X11788039Y-13595650D01*
X11788039Y-13595650D02*
X11768991Y-13567079D01*
X11768991Y-13567079D02*
X11759468Y-13548031D01*
X11759468Y-13548031D02*
X11749944Y-13519460D01*
X11749944Y-13519460D02*
X11740420Y-13471841D01*
X11740420Y-13471841D02*
X11740420Y-13433746D01*
X11740420Y-13433746D02*
X11749944Y-13386127D01*
X11749944Y-13386127D02*
X11759468Y-13357555D01*
X11759468Y-13357555D02*
X11768991Y-13338508D01*
X11768991Y-13338508D02*
X11788039Y-13309936D01*
X11788039Y-13309936D02*
X11797563Y-13300412D01*
X11959468Y-13328984D02*
X11921372Y-13328984D01*
X11921372Y-13328984D02*
X11902325Y-13338508D01*
X11902325Y-13338508D02*
X11892801Y-13348031D01*
X11892801Y-13348031D02*
X11873753Y-13376603D01*
X11873753Y-13376603D02*
X11864229Y-13414698D01*
X11864229Y-13414698D02*
X11864229Y-13490888D01*
X11864229Y-13490888D02*
X11873753Y-13509936D01*
X11873753Y-13509936D02*
X11883277Y-13519460D01*
X11883277Y-13519460D02*
X11902325Y-13528984D01*
X11902325Y-13528984D02*
X11940420Y-13528984D01*
X11940420Y-13528984D02*
X11959468Y-13519460D01*
X11959468Y-13519460D02*
X11968991Y-13509936D01*
X11968991Y-13509936D02*
X11978515Y-13490888D01*
X11978515Y-13490888D02*
X11978515Y-13443269D01*
X11978515Y-13443269D02*
X11968991Y-13424222D01*
X11968991Y-13424222D02*
X11959468Y-13414698D01*
X11959468Y-13414698D02*
X11940420Y-13405174D01*
X11940420Y-13405174D02*
X11902325Y-13405174D01*
X11902325Y-13405174D02*
X11883277Y-13414698D01*
X11883277Y-13414698D02*
X11873753Y-13424222D01*
X11873753Y-13424222D02*
X11864229Y-13443269D01*
X12216610Y-13528984D02*
X12216610Y-13328984D01*
X12302325Y-13528984D02*
X12302325Y-13424222D01*
X12302325Y-13424222D02*
X12292801Y-13405174D01*
X12292801Y-13405174D02*
X12273753Y-13395650D01*
X12273753Y-13395650D02*
X12245182Y-13395650D01*
X12245182Y-13395650D02*
X12226134Y-13405174D01*
X12226134Y-13405174D02*
X12216610Y-13414698D01*
X12426134Y-13528984D02*
X12407087Y-13519460D01*
X12407087Y-13519460D02*
X12397563Y-13509936D01*
X12397563Y-13509936D02*
X12388039Y-13490888D01*
X12388039Y-13490888D02*
X12388039Y-13433746D01*
X12388039Y-13433746D02*
X12397563Y-13414698D01*
X12397563Y-13414698D02*
X12407087Y-13405174D01*
X12407087Y-13405174D02*
X12426134Y-13395650D01*
X12426134Y-13395650D02*
X12454706Y-13395650D01*
X12454706Y-13395650D02*
X12473753Y-13405174D01*
X12473753Y-13405174D02*
X12483277Y-13414698D01*
X12483277Y-13414698D02*
X12492801Y-13433746D01*
X12492801Y-13433746D02*
X12492801Y-13490888D01*
X12492801Y-13490888D02*
X12483277Y-13509936D01*
X12483277Y-13509936D02*
X12473753Y-13519460D01*
X12473753Y-13519460D02*
X12454706Y-13528984D01*
X12454706Y-13528984D02*
X12426134Y-13528984D01*
X12607087Y-13528984D02*
X12588039Y-13519460D01*
X12588039Y-13519460D02*
X12578515Y-13500412D01*
X12578515Y-13500412D02*
X12578515Y-13328984D01*
X12759468Y-13519460D02*
X12740420Y-13528984D01*
X12740420Y-13528984D02*
X12702325Y-13528984D01*
X12702325Y-13528984D02*
X12683277Y-13519460D01*
X12683277Y-13519460D02*
X12673753Y-13500412D01*
X12673753Y-13500412D02*
X12673753Y-13424222D01*
X12673753Y-13424222D02*
X12683277Y-13405174D01*
X12683277Y-13405174D02*
X12702325Y-13395650D01*
X12702325Y-13395650D02*
X12740420Y-13395650D01*
X12740420Y-13395650D02*
X12759468Y-13405174D01*
X12759468Y-13405174D02*
X12768991Y-13424222D01*
X12768991Y-13424222D02*
X12768991Y-13443269D01*
X12768991Y-13443269D02*
X12673753Y-13462317D01*
X12845182Y-13519460D02*
X12864230Y-13528984D01*
X12864230Y-13528984D02*
X12902325Y-13528984D01*
X12902325Y-13528984D02*
X12921372Y-13519460D01*
X12921372Y-13519460D02*
X12930896Y-13500412D01*
X12930896Y-13500412D02*
X12930896Y-13490888D01*
X12930896Y-13490888D02*
X12921372Y-13471841D01*
X12921372Y-13471841D02*
X12902325Y-13462317D01*
X12902325Y-13462317D02*
X12873753Y-13462317D01*
X12873753Y-13462317D02*
X12854706Y-13452793D01*
X12854706Y-13452793D02*
X12845182Y-13433746D01*
X12845182Y-13433746D02*
X12845182Y-13424222D01*
X12845182Y-13424222D02*
X12854706Y-13405174D01*
X12854706Y-13405174D02*
X12873753Y-13395650D01*
X12873753Y-13395650D02*
X12902325Y-13395650D01*
X12902325Y-13395650D02*
X12921372Y-13405174D01*
X12997563Y-13605174D02*
X13007087Y-13595650D01*
X13007087Y-13595650D02*
X13026134Y-13567079D01*
X13026134Y-13567079D02*
X13035658Y-13548031D01*
X13035658Y-13548031D02*
X13045182Y-13519460D01*
X13045182Y-13519460D02*
X13054706Y-13471841D01*
X13054706Y-13471841D02*
X13054706Y-13433746D01*
X13054706Y-13433746D02*
X13045182Y-13386127D01*
X13045182Y-13386127D02*
X13035658Y-13357555D01*
X13035658Y-13357555D02*
X13026134Y-13338508D01*
X13026134Y-13338508D02*
X13007087Y-13309936D01*
X13007087Y-13309936D02*
X12997563Y-13300412D01*
D17*
X8112498Y-13646499D02*
X8222500Y-13756501D01*
X8222500Y-13646499D02*
X8112498Y-13756501D01*
X8167499Y-13646499D02*
X8167499Y-13756501D01*
X8112498Y-13701500D02*
X8222500Y-13701500D01*
D11*
X8588039Y-13792984D02*
X8473753Y-13792984D01*
X8530896Y-13792984D02*
X8530896Y-13592984D01*
X8530896Y-13592984D02*
X8511848Y-13621555D01*
X8511848Y-13621555D02*
X8492801Y-13640603D01*
X8492801Y-13640603D02*
X8473753Y-13650127D01*
X8673753Y-13773936D02*
X8683277Y-13783460D01*
X8683277Y-13783460D02*
X8673753Y-13792984D01*
X8673753Y-13792984D02*
X8664229Y-13783460D01*
X8664229Y-13783460D02*
X8673753Y-13773936D01*
X8673753Y-13773936D02*
X8673753Y-13792984D01*
X8873753Y-13792984D02*
X8759467Y-13792984D01*
X8816610Y-13792984D02*
X8816610Y-13592984D01*
X8816610Y-13592984D02*
X8797563Y-13621555D01*
X8797563Y-13621555D02*
X8778515Y-13640603D01*
X8778515Y-13640603D02*
X8759467Y-13650127D01*
X8997563Y-13592984D02*
X9016610Y-13592984D01*
X9016610Y-13592984D02*
X9035658Y-13602508D01*
X9035658Y-13602508D02*
X9045182Y-13612031D01*
X9045182Y-13612031D02*
X9054705Y-13631079D01*
X9054705Y-13631079D02*
X9064229Y-13669174D01*
X9064229Y-13669174D02*
X9064229Y-13716793D01*
X9064229Y-13716793D02*
X9054705Y-13754888D01*
X9054705Y-13754888D02*
X9045182Y-13773936D01*
X9045182Y-13773936D02*
X9035658Y-13783460D01*
X9035658Y-13783460D02*
X9016610Y-13792984D01*
X9016610Y-13792984D02*
X8997563Y-13792984D01*
X8997563Y-13792984D02*
X8978515Y-13783460D01*
X8978515Y-13783460D02*
X8968991Y-13773936D01*
X8968991Y-13773936D02*
X8959467Y-13754888D01*
X8959467Y-13754888D02*
X8949944Y-13716793D01*
X8949944Y-13716793D02*
X8949944Y-13669174D01*
X8949944Y-13669174D02*
X8959467Y-13631079D01*
X8959467Y-13631079D02*
X8968991Y-13612031D01*
X8968991Y-13612031D02*
X8978515Y-13602508D01*
X8978515Y-13602508D02*
X8997563Y-13592984D01*
X9188039Y-13592984D02*
X9207086Y-13592984D01*
X9207086Y-13592984D02*
X9226134Y-13602508D01*
X9226134Y-13602508D02*
X9235658Y-13612031D01*
X9235658Y-13612031D02*
X9245182Y-13631079D01*
X9245182Y-13631079D02*
X9254705Y-13669174D01*
X9254705Y-13669174D02*
X9254705Y-13716793D01*
X9254705Y-13716793D02*
X9245182Y-13754888D01*
X9245182Y-13754888D02*
X9235658Y-13773936D01*
X9235658Y-13773936D02*
X9226134Y-13783460D01*
X9226134Y-13783460D02*
X9207086Y-13792984D01*
X9207086Y-13792984D02*
X9188039Y-13792984D01*
X9188039Y-13792984D02*
X9168991Y-13783460D01*
X9168991Y-13783460D02*
X9159467Y-13773936D01*
X9159467Y-13773936D02*
X9149944Y-13754888D01*
X9149944Y-13754888D02*
X9140420Y-13716793D01*
X9140420Y-13716793D02*
X9140420Y-13669174D01*
X9140420Y-13669174D02*
X9149944Y-13631079D01*
X9149944Y-13631079D02*
X9159467Y-13612031D01*
X9159467Y-13612031D02*
X9168991Y-13602508D01*
X9168991Y-13602508D02*
X9188039Y-13592984D01*
X9340420Y-13792984D02*
X9340420Y-13659650D01*
X9340420Y-13678698D02*
X9349944Y-13669174D01*
X9349944Y-13669174D02*
X9368991Y-13659650D01*
X9368991Y-13659650D02*
X9397563Y-13659650D01*
X9397563Y-13659650D02*
X9416610Y-13669174D01*
X9416610Y-13669174D02*
X9426134Y-13688222D01*
X9426134Y-13688222D02*
X9426134Y-13792984D01*
X9426134Y-13688222D02*
X9435658Y-13669174D01*
X9435658Y-13669174D02*
X9454705Y-13659650D01*
X9454705Y-13659650D02*
X9483277Y-13659650D01*
X9483277Y-13659650D02*
X9502325Y-13669174D01*
X9502325Y-13669174D02*
X9511848Y-13688222D01*
X9511848Y-13688222D02*
X9511848Y-13792984D01*
X9607086Y-13792984D02*
X9607086Y-13659650D01*
X9607086Y-13678698D02*
X9616610Y-13669174D01*
X9616610Y-13669174D02*
X9635658Y-13659650D01*
X9635658Y-13659650D02*
X9664229Y-13659650D01*
X9664229Y-13659650D02*
X9683277Y-13669174D01*
X9683277Y-13669174D02*
X9692801Y-13688222D01*
X9692801Y-13688222D02*
X9692801Y-13792984D01*
X9692801Y-13688222D02*
X9702325Y-13669174D01*
X9702325Y-13669174D02*
X9721372Y-13659650D01*
X9721372Y-13659650D02*
X9749944Y-13659650D01*
X9749944Y-13659650D02*
X9768991Y-13669174D01*
X9768991Y-13669174D02*
X9778515Y-13688222D01*
X9778515Y-13688222D02*
X9778515Y-13792984D01*
X10168991Y-13583460D02*
X9997563Y-13840603D01*
X10426134Y-13592984D02*
X10445182Y-13592984D01*
X10445182Y-13592984D02*
X10464229Y-13602508D01*
X10464229Y-13602508D02*
X10473753Y-13612031D01*
X10473753Y-13612031D02*
X10483277Y-13631079D01*
X10483277Y-13631079D02*
X10492801Y-13669174D01*
X10492801Y-13669174D02*
X10492801Y-13716793D01*
X10492801Y-13716793D02*
X10483277Y-13754888D01*
X10483277Y-13754888D02*
X10473753Y-13773936D01*
X10473753Y-13773936D02*
X10464229Y-13783460D01*
X10464229Y-13783460D02*
X10445182Y-13792984D01*
X10445182Y-13792984D02*
X10426134Y-13792984D01*
X10426134Y-13792984D02*
X10407087Y-13783460D01*
X10407087Y-13783460D02*
X10397563Y-13773936D01*
X10397563Y-13773936D02*
X10388039Y-13754888D01*
X10388039Y-13754888D02*
X10378515Y-13716793D01*
X10378515Y-13716793D02*
X10378515Y-13669174D01*
X10378515Y-13669174D02*
X10388039Y-13631079D01*
X10388039Y-13631079D02*
X10397563Y-13612031D01*
X10397563Y-13612031D02*
X10407087Y-13602508D01*
X10407087Y-13602508D02*
X10426134Y-13592984D01*
X10578515Y-13773936D02*
X10588039Y-13783460D01*
X10588039Y-13783460D02*
X10578515Y-13792984D01*
X10578515Y-13792984D02*
X10568991Y-13783460D01*
X10568991Y-13783460D02*
X10578515Y-13773936D01*
X10578515Y-13773936D02*
X10578515Y-13792984D01*
X10711848Y-13592984D02*
X10730896Y-13592984D01*
X10730896Y-13592984D02*
X10749944Y-13602508D01*
X10749944Y-13602508D02*
X10759468Y-13612031D01*
X10759468Y-13612031D02*
X10768991Y-13631079D01*
X10768991Y-13631079D02*
X10778515Y-13669174D01*
X10778515Y-13669174D02*
X10778515Y-13716793D01*
X10778515Y-13716793D02*
X10768991Y-13754888D01*
X10768991Y-13754888D02*
X10759468Y-13773936D01*
X10759468Y-13773936D02*
X10749944Y-13783460D01*
X10749944Y-13783460D02*
X10730896Y-13792984D01*
X10730896Y-13792984D02*
X10711848Y-13792984D01*
X10711848Y-13792984D02*
X10692801Y-13783460D01*
X10692801Y-13783460D02*
X10683277Y-13773936D01*
X10683277Y-13773936D02*
X10673753Y-13754888D01*
X10673753Y-13754888D02*
X10664229Y-13716793D01*
X10664229Y-13716793D02*
X10664229Y-13669174D01*
X10664229Y-13669174D02*
X10673753Y-13631079D01*
X10673753Y-13631079D02*
X10683277Y-13612031D01*
X10683277Y-13612031D02*
X10692801Y-13602508D01*
X10692801Y-13602508D02*
X10711848Y-13592984D01*
X10949944Y-13659650D02*
X10949944Y-13792984D01*
X10902325Y-13583460D02*
X10854706Y-13726317D01*
X10854706Y-13726317D02*
X10978515Y-13726317D01*
X11035658Y-13592984D02*
X11159468Y-13592984D01*
X11159468Y-13592984D02*
X11092801Y-13669174D01*
X11092801Y-13669174D02*
X11121372Y-13669174D01*
X11121372Y-13669174D02*
X11140420Y-13678698D01*
X11140420Y-13678698D02*
X11149944Y-13688222D01*
X11149944Y-13688222D02*
X11159468Y-13707269D01*
X11159468Y-13707269D02*
X11159468Y-13754888D01*
X11159468Y-13754888D02*
X11149944Y-13773936D01*
X11149944Y-13773936D02*
X11140420Y-13783460D01*
X11140420Y-13783460D02*
X11121372Y-13792984D01*
X11121372Y-13792984D02*
X11064229Y-13792984D01*
X11064229Y-13792984D02*
X11045182Y-13783460D01*
X11045182Y-13783460D02*
X11035658Y-13773936D01*
X11226134Y-13592984D02*
X11349944Y-13592984D01*
X11349944Y-13592984D02*
X11283277Y-13669174D01*
X11283277Y-13669174D02*
X11311848Y-13669174D01*
X11311848Y-13669174D02*
X11330896Y-13678698D01*
X11330896Y-13678698D02*
X11340420Y-13688222D01*
X11340420Y-13688222D02*
X11349944Y-13707269D01*
X11349944Y-13707269D02*
X11349944Y-13754888D01*
X11349944Y-13754888D02*
X11340420Y-13773936D01*
X11340420Y-13773936D02*
X11330896Y-13783460D01*
X11330896Y-13783460D02*
X11311848Y-13792984D01*
X11311848Y-13792984D02*
X11254706Y-13792984D01*
X11254706Y-13792984D02*
X11235658Y-13783460D01*
X11235658Y-13783460D02*
X11226134Y-13773936D01*
X11426134Y-13592984D02*
X11426134Y-13631079D01*
X11502325Y-13592984D02*
X11502325Y-13631079D01*
X11797563Y-13869174D02*
X11788039Y-13859650D01*
X11788039Y-13859650D02*
X11768991Y-13831079D01*
X11768991Y-13831079D02*
X11759468Y-13812031D01*
X11759468Y-13812031D02*
X11749944Y-13783460D01*
X11749944Y-13783460D02*
X11740420Y-13735841D01*
X11740420Y-13735841D02*
X11740420Y-13697746D01*
X11740420Y-13697746D02*
X11749944Y-13650127D01*
X11749944Y-13650127D02*
X11759468Y-13621555D01*
X11759468Y-13621555D02*
X11768991Y-13602508D01*
X11768991Y-13602508D02*
X11788039Y-13573936D01*
X11788039Y-13573936D02*
X11797563Y-13564412D01*
X11883277Y-13792984D02*
X11921372Y-13792984D01*
X11921372Y-13792984D02*
X11940420Y-13783460D01*
X11940420Y-13783460D02*
X11949944Y-13773936D01*
X11949944Y-13773936D02*
X11968991Y-13745365D01*
X11968991Y-13745365D02*
X11978515Y-13707269D01*
X11978515Y-13707269D02*
X11978515Y-13631079D01*
X11978515Y-13631079D02*
X11968991Y-13612031D01*
X11968991Y-13612031D02*
X11959468Y-13602508D01*
X11959468Y-13602508D02*
X11940420Y-13592984D01*
X11940420Y-13592984D02*
X11902325Y-13592984D01*
X11902325Y-13592984D02*
X11883277Y-13602508D01*
X11883277Y-13602508D02*
X11873753Y-13612031D01*
X11873753Y-13612031D02*
X11864229Y-13631079D01*
X11864229Y-13631079D02*
X11864229Y-13678698D01*
X11864229Y-13678698D02*
X11873753Y-13697746D01*
X11873753Y-13697746D02*
X11883277Y-13707269D01*
X11883277Y-13707269D02*
X11902325Y-13716793D01*
X11902325Y-13716793D02*
X11940420Y-13716793D01*
X11940420Y-13716793D02*
X11959468Y-13707269D01*
X11959468Y-13707269D02*
X11968991Y-13697746D01*
X11968991Y-13697746D02*
X11978515Y-13678698D01*
X12216610Y-13792984D02*
X12216610Y-13592984D01*
X12302325Y-13792984D02*
X12302325Y-13688222D01*
X12302325Y-13688222D02*
X12292801Y-13669174D01*
X12292801Y-13669174D02*
X12273753Y-13659650D01*
X12273753Y-13659650D02*
X12245182Y-13659650D01*
X12245182Y-13659650D02*
X12226134Y-13669174D01*
X12226134Y-13669174D02*
X12216610Y-13678698D01*
X12426134Y-13792984D02*
X12407087Y-13783460D01*
X12407087Y-13783460D02*
X12397563Y-13773936D01*
X12397563Y-13773936D02*
X12388039Y-13754888D01*
X12388039Y-13754888D02*
X12388039Y-13697746D01*
X12388039Y-13697746D02*
X12397563Y-13678698D01*
X12397563Y-13678698D02*
X12407087Y-13669174D01*
X12407087Y-13669174D02*
X12426134Y-13659650D01*
X12426134Y-13659650D02*
X12454706Y-13659650D01*
X12454706Y-13659650D02*
X12473753Y-13669174D01*
X12473753Y-13669174D02*
X12483277Y-13678698D01*
X12483277Y-13678698D02*
X12492801Y-13697746D01*
X12492801Y-13697746D02*
X12492801Y-13754888D01*
X12492801Y-13754888D02*
X12483277Y-13773936D01*
X12483277Y-13773936D02*
X12473753Y-13783460D01*
X12473753Y-13783460D02*
X12454706Y-13792984D01*
X12454706Y-13792984D02*
X12426134Y-13792984D01*
X12607087Y-13792984D02*
X12588039Y-13783460D01*
X12588039Y-13783460D02*
X12578515Y-13764412D01*
X12578515Y-13764412D02*
X12578515Y-13592984D01*
X12759468Y-13783460D02*
X12740420Y-13792984D01*
X12740420Y-13792984D02*
X12702325Y-13792984D01*
X12702325Y-13792984D02*
X12683277Y-13783460D01*
X12683277Y-13783460D02*
X12673753Y-13764412D01*
X12673753Y-13764412D02*
X12673753Y-13688222D01*
X12673753Y-13688222D02*
X12683277Y-13669174D01*
X12683277Y-13669174D02*
X12702325Y-13659650D01*
X12702325Y-13659650D02*
X12740420Y-13659650D01*
X12740420Y-13659650D02*
X12759468Y-13669174D01*
X12759468Y-13669174D02*
X12768991Y-13688222D01*
X12768991Y-13688222D02*
X12768991Y-13707269D01*
X12768991Y-13707269D02*
X12673753Y-13726317D01*
X12845182Y-13783460D02*
X12864230Y-13792984D01*
X12864230Y-13792984D02*
X12902325Y-13792984D01*
X12902325Y-13792984D02*
X12921372Y-13783460D01*
X12921372Y-13783460D02*
X12930896Y-13764412D01*
X12930896Y-13764412D02*
X12930896Y-13754888D01*
X12930896Y-13754888D02*
X12921372Y-13735841D01*
X12921372Y-13735841D02*
X12902325Y-13726317D01*
X12902325Y-13726317D02*
X12873753Y-13726317D01*
X12873753Y-13726317D02*
X12854706Y-13716793D01*
X12854706Y-13716793D02*
X12845182Y-13697746D01*
X12845182Y-13697746D02*
X12845182Y-13688222D01*
X12845182Y-13688222D02*
X12854706Y-13669174D01*
X12854706Y-13669174D02*
X12873753Y-13659650D01*
X12873753Y-13659650D02*
X12902325Y-13659650D01*
X12902325Y-13659650D02*
X12921372Y-13669174D01*
X12997563Y-13869174D02*
X13007087Y-13859650D01*
X13007087Y-13859650D02*
X13026134Y-13831079D01*
X13026134Y-13831079D02*
X13035658Y-13812031D01*
X13035658Y-13812031D02*
X13045182Y-13783460D01*
X13045182Y-13783460D02*
X13054706Y-13735841D01*
X13054706Y-13735841D02*
X13054706Y-13697746D01*
X13054706Y-13697746D02*
X13045182Y-13650127D01*
X13045182Y-13650127D02*
X13035658Y-13621555D01*
X13035658Y-13621555D02*
X13026134Y-13602508D01*
X13026134Y-13602508D02*
X13007087Y-13573936D01*
X13007087Y-13573936D02*
X12997563Y-13564412D01*
D18*
X8082500Y-13895500D02*
X8222500Y-14035500D01*
X8222500Y-13895500D02*
X8082500Y-14035500D01*
X8201998Y-14014998D02*
X8201998Y-13916002D01*
X8103002Y-13916002D01*
X8103002Y-14014998D01*
X8201998Y-14014998D01*
D11*
X8588039Y-14056984D02*
X8473753Y-14056984D01*
X8530896Y-14056984D02*
X8530896Y-13856984D01*
X8530896Y-13856984D02*
X8511848Y-13885555D01*
X8511848Y-13885555D02*
X8492801Y-13904603D01*
X8492801Y-13904603D02*
X8473753Y-13914127D01*
X8673753Y-14037936D02*
X8683277Y-14047460D01*
X8683277Y-14047460D02*
X8673753Y-14056984D01*
X8673753Y-14056984D02*
X8664229Y-14047460D01*
X8664229Y-14047460D02*
X8673753Y-14037936D01*
X8673753Y-14037936D02*
X8673753Y-14056984D01*
X8854705Y-13923650D02*
X8854705Y-14056984D01*
X8807086Y-13847460D02*
X8759467Y-13990317D01*
X8759467Y-13990317D02*
X8883277Y-13990317D01*
X8997563Y-13856984D02*
X9016610Y-13856984D01*
X9016610Y-13856984D02*
X9035658Y-13866508D01*
X9035658Y-13866508D02*
X9045182Y-13876031D01*
X9045182Y-13876031D02*
X9054705Y-13895079D01*
X9054705Y-13895079D02*
X9064229Y-13933174D01*
X9064229Y-13933174D02*
X9064229Y-13980793D01*
X9064229Y-13980793D02*
X9054705Y-14018888D01*
X9054705Y-14018888D02*
X9045182Y-14037936D01*
X9045182Y-14037936D02*
X9035658Y-14047460D01*
X9035658Y-14047460D02*
X9016610Y-14056984D01*
X9016610Y-14056984D02*
X8997563Y-14056984D01*
X8997563Y-14056984D02*
X8978515Y-14047460D01*
X8978515Y-14047460D02*
X8968991Y-14037936D01*
X8968991Y-14037936D02*
X8959467Y-14018888D01*
X8959467Y-14018888D02*
X8949944Y-13980793D01*
X8949944Y-13980793D02*
X8949944Y-13933174D01*
X8949944Y-13933174D02*
X8959467Y-13895079D01*
X8959467Y-13895079D02*
X8968991Y-13876031D01*
X8968991Y-13876031D02*
X8978515Y-13866508D01*
X8978515Y-13866508D02*
X8997563Y-13856984D01*
X9188039Y-13856984D02*
X9207086Y-13856984D01*
X9207086Y-13856984D02*
X9226134Y-13866508D01*
X9226134Y-13866508D02*
X9235658Y-13876031D01*
X9235658Y-13876031D02*
X9245182Y-13895079D01*
X9245182Y-13895079D02*
X9254705Y-13933174D01*
X9254705Y-13933174D02*
X9254705Y-13980793D01*
X9254705Y-13980793D02*
X9245182Y-14018888D01*
X9245182Y-14018888D02*
X9235658Y-14037936D01*
X9235658Y-14037936D02*
X9226134Y-14047460D01*
X9226134Y-14047460D02*
X9207086Y-14056984D01*
X9207086Y-14056984D02*
X9188039Y-14056984D01*
X9188039Y-14056984D02*
X9168991Y-14047460D01*
X9168991Y-14047460D02*
X9159467Y-14037936D01*
X9159467Y-14037936D02*
X9149944Y-14018888D01*
X9149944Y-14018888D02*
X9140420Y-13980793D01*
X9140420Y-13980793D02*
X9140420Y-13933174D01*
X9140420Y-13933174D02*
X9149944Y-13895079D01*
X9149944Y-13895079D02*
X9159467Y-13876031D01*
X9159467Y-13876031D02*
X9168991Y-13866508D01*
X9168991Y-13866508D02*
X9188039Y-13856984D01*
X9340420Y-14056984D02*
X9340420Y-13923650D01*
X9340420Y-13942698D02*
X9349944Y-13933174D01*
X9349944Y-13933174D02*
X9368991Y-13923650D01*
X9368991Y-13923650D02*
X9397563Y-13923650D01*
X9397563Y-13923650D02*
X9416610Y-13933174D01*
X9416610Y-13933174D02*
X9426134Y-13952222D01*
X9426134Y-13952222D02*
X9426134Y-14056984D01*
X9426134Y-13952222D02*
X9435658Y-13933174D01*
X9435658Y-13933174D02*
X9454705Y-13923650D01*
X9454705Y-13923650D02*
X9483277Y-13923650D01*
X9483277Y-13923650D02*
X9502325Y-13933174D01*
X9502325Y-13933174D02*
X9511848Y-13952222D01*
X9511848Y-13952222D02*
X9511848Y-14056984D01*
X9607086Y-14056984D02*
X9607086Y-13923650D01*
X9607086Y-13942698D02*
X9616610Y-13933174D01*
X9616610Y-13933174D02*
X9635658Y-13923650D01*
X9635658Y-13923650D02*
X9664229Y-13923650D01*
X9664229Y-13923650D02*
X9683277Y-13933174D01*
X9683277Y-13933174D02*
X9692801Y-13952222D01*
X9692801Y-13952222D02*
X9692801Y-14056984D01*
X9692801Y-13952222D02*
X9702325Y-13933174D01*
X9702325Y-13933174D02*
X9721372Y-13923650D01*
X9721372Y-13923650D02*
X9749944Y-13923650D01*
X9749944Y-13923650D02*
X9768991Y-13933174D01*
X9768991Y-13933174D02*
X9778515Y-13952222D01*
X9778515Y-13952222D02*
X9778515Y-14056984D01*
X10168991Y-13847460D02*
X9997563Y-14104603D01*
X10426134Y-13856984D02*
X10445182Y-13856984D01*
X10445182Y-13856984D02*
X10464229Y-13866508D01*
X10464229Y-13866508D02*
X10473753Y-13876031D01*
X10473753Y-13876031D02*
X10483277Y-13895079D01*
X10483277Y-13895079D02*
X10492801Y-13933174D01*
X10492801Y-13933174D02*
X10492801Y-13980793D01*
X10492801Y-13980793D02*
X10483277Y-14018888D01*
X10483277Y-14018888D02*
X10473753Y-14037936D01*
X10473753Y-14037936D02*
X10464229Y-14047460D01*
X10464229Y-14047460D02*
X10445182Y-14056984D01*
X10445182Y-14056984D02*
X10426134Y-14056984D01*
X10426134Y-14056984D02*
X10407087Y-14047460D01*
X10407087Y-14047460D02*
X10397563Y-14037936D01*
X10397563Y-14037936D02*
X10388039Y-14018888D01*
X10388039Y-14018888D02*
X10378515Y-13980793D01*
X10378515Y-13980793D02*
X10378515Y-13933174D01*
X10378515Y-13933174D02*
X10388039Y-13895079D01*
X10388039Y-13895079D02*
X10397563Y-13876031D01*
X10397563Y-13876031D02*
X10407087Y-13866508D01*
X10407087Y-13866508D02*
X10426134Y-13856984D01*
X10578515Y-14037936D02*
X10588039Y-14047460D01*
X10588039Y-14047460D02*
X10578515Y-14056984D01*
X10578515Y-14056984D02*
X10568991Y-14047460D01*
X10568991Y-14047460D02*
X10578515Y-14037936D01*
X10578515Y-14037936D02*
X10578515Y-14056984D01*
X10711848Y-13856984D02*
X10730896Y-13856984D01*
X10730896Y-13856984D02*
X10749944Y-13866508D01*
X10749944Y-13866508D02*
X10759468Y-13876031D01*
X10759468Y-13876031D02*
X10768991Y-13895079D01*
X10768991Y-13895079D02*
X10778515Y-13933174D01*
X10778515Y-13933174D02*
X10778515Y-13980793D01*
X10778515Y-13980793D02*
X10768991Y-14018888D01*
X10768991Y-14018888D02*
X10759468Y-14037936D01*
X10759468Y-14037936D02*
X10749944Y-14047460D01*
X10749944Y-14047460D02*
X10730896Y-14056984D01*
X10730896Y-14056984D02*
X10711848Y-14056984D01*
X10711848Y-14056984D02*
X10692801Y-14047460D01*
X10692801Y-14047460D02*
X10683277Y-14037936D01*
X10683277Y-14037936D02*
X10673753Y-14018888D01*
X10673753Y-14018888D02*
X10664229Y-13980793D01*
X10664229Y-13980793D02*
X10664229Y-13933174D01*
X10664229Y-13933174D02*
X10673753Y-13895079D01*
X10673753Y-13895079D02*
X10683277Y-13876031D01*
X10683277Y-13876031D02*
X10692801Y-13866508D01*
X10692801Y-13866508D02*
X10711848Y-13856984D01*
X10959468Y-13856984D02*
X10864229Y-13856984D01*
X10864229Y-13856984D02*
X10854706Y-13952222D01*
X10854706Y-13952222D02*
X10864229Y-13942698D01*
X10864229Y-13942698D02*
X10883277Y-13933174D01*
X10883277Y-13933174D02*
X10930896Y-13933174D01*
X10930896Y-13933174D02*
X10949944Y-13942698D01*
X10949944Y-13942698D02*
X10959468Y-13952222D01*
X10959468Y-13952222D02*
X10968991Y-13971269D01*
X10968991Y-13971269D02*
X10968991Y-14018888D01*
X10968991Y-14018888D02*
X10959468Y-14037936D01*
X10959468Y-14037936D02*
X10949944Y-14047460D01*
X10949944Y-14047460D02*
X10930896Y-14056984D01*
X10930896Y-14056984D02*
X10883277Y-14056984D01*
X10883277Y-14056984D02*
X10864229Y-14047460D01*
X10864229Y-14047460D02*
X10854706Y-14037936D01*
X11149944Y-13856984D02*
X11054706Y-13856984D01*
X11054706Y-13856984D02*
X11045182Y-13952222D01*
X11045182Y-13952222D02*
X11054706Y-13942698D01*
X11054706Y-13942698D02*
X11073753Y-13933174D01*
X11073753Y-13933174D02*
X11121372Y-13933174D01*
X11121372Y-13933174D02*
X11140420Y-13942698D01*
X11140420Y-13942698D02*
X11149944Y-13952222D01*
X11149944Y-13952222D02*
X11159468Y-13971269D01*
X11159468Y-13971269D02*
X11159468Y-14018888D01*
X11159468Y-14018888D02*
X11149944Y-14037936D01*
X11149944Y-14037936D02*
X11140420Y-14047460D01*
X11140420Y-14047460D02*
X11121372Y-14056984D01*
X11121372Y-14056984D02*
X11073753Y-14056984D01*
X11073753Y-14056984D02*
X11054706Y-14047460D01*
X11054706Y-14047460D02*
X11045182Y-14037936D01*
X11349944Y-14056984D02*
X11235658Y-14056984D01*
X11292801Y-14056984D02*
X11292801Y-13856984D01*
X11292801Y-13856984D02*
X11273753Y-13885555D01*
X11273753Y-13885555D02*
X11254706Y-13904603D01*
X11254706Y-13904603D02*
X11235658Y-13914127D01*
X11426134Y-13856984D02*
X11426134Y-13895079D01*
X11502325Y-13856984D02*
X11502325Y-13895079D01*
X11797563Y-14133174D02*
X11788039Y-14123650D01*
X11788039Y-14123650D02*
X11768991Y-14095079D01*
X11768991Y-14095079D02*
X11759468Y-14076031D01*
X11759468Y-14076031D02*
X11749944Y-14047460D01*
X11749944Y-14047460D02*
X11740420Y-13999841D01*
X11740420Y-13999841D02*
X11740420Y-13961746D01*
X11740420Y-13961746D02*
X11749944Y-13914127D01*
X11749944Y-13914127D02*
X11759468Y-13885555D01*
X11759468Y-13885555D02*
X11768991Y-13866508D01*
X11768991Y-13866508D02*
X11788039Y-13837936D01*
X11788039Y-13837936D02*
X11797563Y-13828412D01*
X11959468Y-13923650D02*
X11959468Y-14056984D01*
X11911848Y-13847460D02*
X11864229Y-13990317D01*
X11864229Y-13990317D02*
X11988039Y-13990317D01*
X12216610Y-14056984D02*
X12216610Y-13856984D01*
X12302325Y-14056984D02*
X12302325Y-13952222D01*
X12302325Y-13952222D02*
X12292801Y-13933174D01*
X12292801Y-13933174D02*
X12273753Y-13923650D01*
X12273753Y-13923650D02*
X12245182Y-13923650D01*
X12245182Y-13923650D02*
X12226134Y-13933174D01*
X12226134Y-13933174D02*
X12216610Y-13942698D01*
X12426134Y-14056984D02*
X12407087Y-14047460D01*
X12407087Y-14047460D02*
X12397563Y-14037936D01*
X12397563Y-14037936D02*
X12388039Y-14018888D01*
X12388039Y-14018888D02*
X12388039Y-13961746D01*
X12388039Y-13961746D02*
X12397563Y-13942698D01*
X12397563Y-13942698D02*
X12407087Y-13933174D01*
X12407087Y-13933174D02*
X12426134Y-13923650D01*
X12426134Y-13923650D02*
X12454706Y-13923650D01*
X12454706Y-13923650D02*
X12473753Y-13933174D01*
X12473753Y-13933174D02*
X12483277Y-13942698D01*
X12483277Y-13942698D02*
X12492801Y-13961746D01*
X12492801Y-13961746D02*
X12492801Y-14018888D01*
X12492801Y-14018888D02*
X12483277Y-14037936D01*
X12483277Y-14037936D02*
X12473753Y-14047460D01*
X12473753Y-14047460D02*
X12454706Y-14056984D01*
X12454706Y-14056984D02*
X12426134Y-14056984D01*
X12607087Y-14056984D02*
X12588039Y-14047460D01*
X12588039Y-14047460D02*
X12578515Y-14028412D01*
X12578515Y-14028412D02*
X12578515Y-13856984D01*
X12759468Y-14047460D02*
X12740420Y-14056984D01*
X12740420Y-14056984D02*
X12702325Y-14056984D01*
X12702325Y-14056984D02*
X12683277Y-14047460D01*
X12683277Y-14047460D02*
X12673753Y-14028412D01*
X12673753Y-14028412D02*
X12673753Y-13952222D01*
X12673753Y-13952222D02*
X12683277Y-13933174D01*
X12683277Y-13933174D02*
X12702325Y-13923650D01*
X12702325Y-13923650D02*
X12740420Y-13923650D01*
X12740420Y-13923650D02*
X12759468Y-13933174D01*
X12759468Y-13933174D02*
X12768991Y-13952222D01*
X12768991Y-13952222D02*
X12768991Y-13971269D01*
X12768991Y-13971269D02*
X12673753Y-13990317D01*
X12845182Y-14047460D02*
X12864230Y-14056984D01*
X12864230Y-14056984D02*
X12902325Y-14056984D01*
X12902325Y-14056984D02*
X12921372Y-14047460D01*
X12921372Y-14047460D02*
X12930896Y-14028412D01*
X12930896Y-14028412D02*
X12930896Y-14018888D01*
X12930896Y-14018888D02*
X12921372Y-13999841D01*
X12921372Y-13999841D02*
X12902325Y-13990317D01*
X12902325Y-13990317D02*
X12873753Y-13990317D01*
X12873753Y-13990317D02*
X12854706Y-13980793D01*
X12854706Y-13980793D02*
X12845182Y-13961746D01*
X12845182Y-13961746D02*
X12845182Y-13952222D01*
X12845182Y-13952222D02*
X12854706Y-13933174D01*
X12854706Y-13933174D02*
X12873753Y-13923650D01*
X12873753Y-13923650D02*
X12902325Y-13923650D01*
X12902325Y-13923650D02*
X12921372Y-13933174D01*
X12997563Y-14133174D02*
X13007087Y-14123650D01*
X13007087Y-14123650D02*
X13026134Y-14095079D01*
X13026134Y-14095079D02*
X13035658Y-14076031D01*
X13035658Y-14076031D02*
X13045182Y-14047460D01*
X13045182Y-14047460D02*
X13054706Y-13999841D01*
X13054706Y-13999841D02*
X13054706Y-13961746D01*
X13054706Y-13961746D02*
X13045182Y-13914127D01*
X13045182Y-13914127D02*
X13035658Y-13885555D01*
X13035658Y-13885555D02*
X13026134Y-13866508D01*
X13026134Y-13866508D02*
X13007087Y-13837936D01*
X13007087Y-13837936D02*
X12997563Y-13828412D01*
X8022500Y-14129500D02*
X8222500Y-14329500D01*
X8222500Y-14129500D02*
X8022500Y-14329500D01*
X8122500Y-14329500D02*
X8222500Y-14229500D01*
X8122500Y-14129500D01*
X8022500Y-14229500D01*
X8122500Y-14329500D01*
X8473753Y-14140031D02*
X8483277Y-14130508D01*
X8483277Y-14130508D02*
X8502324Y-14120984D01*
X8502324Y-14120984D02*
X8549944Y-14120984D01*
X8549944Y-14120984D02*
X8568991Y-14130508D01*
X8568991Y-14130508D02*
X8578515Y-14140031D01*
X8578515Y-14140031D02*
X8588039Y-14159079D01*
X8588039Y-14159079D02*
X8588039Y-14178127D01*
X8588039Y-14178127D02*
X8578515Y-14206698D01*
X8578515Y-14206698D02*
X8464229Y-14320984D01*
X8464229Y-14320984D02*
X8588039Y-14320984D01*
X8673753Y-14301936D02*
X8683277Y-14311460D01*
X8683277Y-14311460D02*
X8673753Y-14320984D01*
X8673753Y-14320984D02*
X8664229Y-14311460D01*
X8664229Y-14311460D02*
X8673753Y-14301936D01*
X8673753Y-14301936D02*
X8673753Y-14320984D01*
X8873753Y-14320984D02*
X8759467Y-14320984D01*
X8816610Y-14320984D02*
X8816610Y-14120984D01*
X8816610Y-14120984D02*
X8797563Y-14149555D01*
X8797563Y-14149555D02*
X8778515Y-14168603D01*
X8778515Y-14168603D02*
X8759467Y-14178127D01*
X8997563Y-14120984D02*
X9016610Y-14120984D01*
X9016610Y-14120984D02*
X9035658Y-14130508D01*
X9035658Y-14130508D02*
X9045182Y-14140031D01*
X9045182Y-14140031D02*
X9054705Y-14159079D01*
X9054705Y-14159079D02*
X9064229Y-14197174D01*
X9064229Y-14197174D02*
X9064229Y-14244793D01*
X9064229Y-14244793D02*
X9054705Y-14282888D01*
X9054705Y-14282888D02*
X9045182Y-14301936D01*
X9045182Y-14301936D02*
X9035658Y-14311460D01*
X9035658Y-14311460D02*
X9016610Y-14320984D01*
X9016610Y-14320984D02*
X8997563Y-14320984D01*
X8997563Y-14320984D02*
X8978515Y-14311460D01*
X8978515Y-14311460D02*
X8968991Y-14301936D01*
X8968991Y-14301936D02*
X8959467Y-14282888D01*
X8959467Y-14282888D02*
X8949944Y-14244793D01*
X8949944Y-14244793D02*
X8949944Y-14197174D01*
X8949944Y-14197174D02*
X8959467Y-14159079D01*
X8959467Y-14159079D02*
X8968991Y-14140031D01*
X8968991Y-14140031D02*
X8978515Y-14130508D01*
X8978515Y-14130508D02*
X8997563Y-14120984D01*
X9188039Y-14120984D02*
X9207086Y-14120984D01*
X9207086Y-14120984D02*
X9226134Y-14130508D01*
X9226134Y-14130508D02*
X9235658Y-14140031D01*
X9235658Y-14140031D02*
X9245182Y-14159079D01*
X9245182Y-14159079D02*
X9254705Y-14197174D01*
X9254705Y-14197174D02*
X9254705Y-14244793D01*
X9254705Y-14244793D02*
X9245182Y-14282888D01*
X9245182Y-14282888D02*
X9235658Y-14301936D01*
X9235658Y-14301936D02*
X9226134Y-14311460D01*
X9226134Y-14311460D02*
X9207086Y-14320984D01*
X9207086Y-14320984D02*
X9188039Y-14320984D01*
X9188039Y-14320984D02*
X9168991Y-14311460D01*
X9168991Y-14311460D02*
X9159467Y-14301936D01*
X9159467Y-14301936D02*
X9149944Y-14282888D01*
X9149944Y-14282888D02*
X9140420Y-14244793D01*
X9140420Y-14244793D02*
X9140420Y-14197174D01*
X9140420Y-14197174D02*
X9149944Y-14159079D01*
X9149944Y-14159079D02*
X9159467Y-14140031D01*
X9159467Y-14140031D02*
X9168991Y-14130508D01*
X9168991Y-14130508D02*
X9188039Y-14120984D01*
X9340420Y-14320984D02*
X9340420Y-14187650D01*
X9340420Y-14206698D02*
X9349944Y-14197174D01*
X9349944Y-14197174D02*
X9368991Y-14187650D01*
X9368991Y-14187650D02*
X9397563Y-14187650D01*
X9397563Y-14187650D02*
X9416610Y-14197174D01*
X9416610Y-14197174D02*
X9426134Y-14216222D01*
X9426134Y-14216222D02*
X9426134Y-14320984D01*
X9426134Y-14216222D02*
X9435658Y-14197174D01*
X9435658Y-14197174D02*
X9454705Y-14187650D01*
X9454705Y-14187650D02*
X9483277Y-14187650D01*
X9483277Y-14187650D02*
X9502325Y-14197174D01*
X9502325Y-14197174D02*
X9511848Y-14216222D01*
X9511848Y-14216222D02*
X9511848Y-14320984D01*
X9607086Y-14320984D02*
X9607086Y-14187650D01*
X9607086Y-14206698D02*
X9616610Y-14197174D01*
X9616610Y-14197174D02*
X9635658Y-14187650D01*
X9635658Y-14187650D02*
X9664229Y-14187650D01*
X9664229Y-14187650D02*
X9683277Y-14197174D01*
X9683277Y-14197174D02*
X9692801Y-14216222D01*
X9692801Y-14216222D02*
X9692801Y-14320984D01*
X9692801Y-14216222D02*
X9702325Y-14197174D01*
X9702325Y-14197174D02*
X9721372Y-14187650D01*
X9721372Y-14187650D02*
X9749944Y-14187650D01*
X9749944Y-14187650D02*
X9768991Y-14197174D01*
X9768991Y-14197174D02*
X9778515Y-14216222D01*
X9778515Y-14216222D02*
X9778515Y-14320984D01*
X10168991Y-14111460D02*
X9997563Y-14368603D01*
X10426134Y-14120984D02*
X10445182Y-14120984D01*
X10445182Y-14120984D02*
X10464229Y-14130508D01*
X10464229Y-14130508D02*
X10473753Y-14140031D01*
X10473753Y-14140031D02*
X10483277Y-14159079D01*
X10483277Y-14159079D02*
X10492801Y-14197174D01*
X10492801Y-14197174D02*
X10492801Y-14244793D01*
X10492801Y-14244793D02*
X10483277Y-14282888D01*
X10483277Y-14282888D02*
X10473753Y-14301936D01*
X10473753Y-14301936D02*
X10464229Y-14311460D01*
X10464229Y-14311460D02*
X10445182Y-14320984D01*
X10445182Y-14320984D02*
X10426134Y-14320984D01*
X10426134Y-14320984D02*
X10407087Y-14311460D01*
X10407087Y-14311460D02*
X10397563Y-14301936D01*
X10397563Y-14301936D02*
X10388039Y-14282888D01*
X10388039Y-14282888D02*
X10378515Y-14244793D01*
X10378515Y-14244793D02*
X10378515Y-14197174D01*
X10378515Y-14197174D02*
X10388039Y-14159079D01*
X10388039Y-14159079D02*
X10397563Y-14140031D01*
X10397563Y-14140031D02*
X10407087Y-14130508D01*
X10407087Y-14130508D02*
X10426134Y-14120984D01*
X10578515Y-14301936D02*
X10588039Y-14311460D01*
X10588039Y-14311460D02*
X10578515Y-14320984D01*
X10578515Y-14320984D02*
X10568991Y-14311460D01*
X10568991Y-14311460D02*
X10578515Y-14301936D01*
X10578515Y-14301936D02*
X10578515Y-14320984D01*
X10711848Y-14120984D02*
X10730896Y-14120984D01*
X10730896Y-14120984D02*
X10749944Y-14130508D01*
X10749944Y-14130508D02*
X10759468Y-14140031D01*
X10759468Y-14140031D02*
X10768991Y-14159079D01*
X10768991Y-14159079D02*
X10778515Y-14197174D01*
X10778515Y-14197174D02*
X10778515Y-14244793D01*
X10778515Y-14244793D02*
X10768991Y-14282888D01*
X10768991Y-14282888D02*
X10759468Y-14301936D01*
X10759468Y-14301936D02*
X10749944Y-14311460D01*
X10749944Y-14311460D02*
X10730896Y-14320984D01*
X10730896Y-14320984D02*
X10711848Y-14320984D01*
X10711848Y-14320984D02*
X10692801Y-14311460D01*
X10692801Y-14311460D02*
X10683277Y-14301936D01*
X10683277Y-14301936D02*
X10673753Y-14282888D01*
X10673753Y-14282888D02*
X10664229Y-14244793D01*
X10664229Y-14244793D02*
X10664229Y-14197174D01*
X10664229Y-14197174D02*
X10673753Y-14159079D01*
X10673753Y-14159079D02*
X10683277Y-14140031D01*
X10683277Y-14140031D02*
X10692801Y-14130508D01*
X10692801Y-14130508D02*
X10711848Y-14120984D01*
X10892801Y-14206698D02*
X10873753Y-14197174D01*
X10873753Y-14197174D02*
X10864229Y-14187650D01*
X10864229Y-14187650D02*
X10854706Y-14168603D01*
X10854706Y-14168603D02*
X10854706Y-14159079D01*
X10854706Y-14159079D02*
X10864229Y-14140031D01*
X10864229Y-14140031D02*
X10873753Y-14130508D01*
X10873753Y-14130508D02*
X10892801Y-14120984D01*
X10892801Y-14120984D02*
X10930896Y-14120984D01*
X10930896Y-14120984D02*
X10949944Y-14130508D01*
X10949944Y-14130508D02*
X10959468Y-14140031D01*
X10959468Y-14140031D02*
X10968991Y-14159079D01*
X10968991Y-14159079D02*
X10968991Y-14168603D01*
X10968991Y-14168603D02*
X10959468Y-14187650D01*
X10959468Y-14187650D02*
X10949944Y-14197174D01*
X10949944Y-14197174D02*
X10930896Y-14206698D01*
X10930896Y-14206698D02*
X10892801Y-14206698D01*
X10892801Y-14206698D02*
X10873753Y-14216222D01*
X10873753Y-14216222D02*
X10864229Y-14225746D01*
X10864229Y-14225746D02*
X10854706Y-14244793D01*
X10854706Y-14244793D02*
X10854706Y-14282888D01*
X10854706Y-14282888D02*
X10864229Y-14301936D01*
X10864229Y-14301936D02*
X10873753Y-14311460D01*
X10873753Y-14311460D02*
X10892801Y-14320984D01*
X10892801Y-14320984D02*
X10930896Y-14320984D01*
X10930896Y-14320984D02*
X10949944Y-14311460D01*
X10949944Y-14311460D02*
X10959468Y-14301936D01*
X10959468Y-14301936D02*
X10968991Y-14282888D01*
X10968991Y-14282888D02*
X10968991Y-14244793D01*
X10968991Y-14244793D02*
X10959468Y-14225746D01*
X10959468Y-14225746D02*
X10949944Y-14216222D01*
X10949944Y-14216222D02*
X10930896Y-14206698D01*
X11045182Y-14140031D02*
X11054706Y-14130508D01*
X11054706Y-14130508D02*
X11073753Y-14120984D01*
X11073753Y-14120984D02*
X11121372Y-14120984D01*
X11121372Y-14120984D02*
X11140420Y-14130508D01*
X11140420Y-14130508D02*
X11149944Y-14140031D01*
X11149944Y-14140031D02*
X11159468Y-14159079D01*
X11159468Y-14159079D02*
X11159468Y-14178127D01*
X11159468Y-14178127D02*
X11149944Y-14206698D01*
X11149944Y-14206698D02*
X11035658Y-14320984D01*
X11035658Y-14320984D02*
X11159468Y-14320984D01*
X11226134Y-14120984D02*
X11359467Y-14120984D01*
X11359467Y-14120984D02*
X11273753Y-14320984D01*
X11426134Y-14120984D02*
X11426134Y-14159079D01*
X11502325Y-14120984D02*
X11502325Y-14159079D01*
X11797563Y-14397174D02*
X11788039Y-14387650D01*
X11788039Y-14387650D02*
X11768991Y-14359079D01*
X11768991Y-14359079D02*
X11759468Y-14340031D01*
X11759468Y-14340031D02*
X11749944Y-14311460D01*
X11749944Y-14311460D02*
X11740420Y-14263841D01*
X11740420Y-14263841D02*
X11740420Y-14225746D01*
X11740420Y-14225746D02*
X11749944Y-14178127D01*
X11749944Y-14178127D02*
X11759468Y-14149555D01*
X11759468Y-14149555D02*
X11768991Y-14130508D01*
X11768991Y-14130508D02*
X11788039Y-14101936D01*
X11788039Y-14101936D02*
X11797563Y-14092412D01*
X11864229Y-14140031D02*
X11873753Y-14130508D01*
X11873753Y-14130508D02*
X11892801Y-14120984D01*
X11892801Y-14120984D02*
X11940420Y-14120984D01*
X11940420Y-14120984D02*
X11959468Y-14130508D01*
X11959468Y-14130508D02*
X11968991Y-14140031D01*
X11968991Y-14140031D02*
X11978515Y-14159079D01*
X11978515Y-14159079D02*
X11978515Y-14178127D01*
X11978515Y-14178127D02*
X11968991Y-14206698D01*
X11968991Y-14206698D02*
X11854706Y-14320984D01*
X11854706Y-14320984D02*
X11978515Y-14320984D01*
X12216610Y-14320984D02*
X12216610Y-14120984D01*
X12302325Y-14320984D02*
X12302325Y-14216222D01*
X12302325Y-14216222D02*
X12292801Y-14197174D01*
X12292801Y-14197174D02*
X12273753Y-14187650D01*
X12273753Y-14187650D02*
X12245182Y-14187650D01*
X12245182Y-14187650D02*
X12226134Y-14197174D01*
X12226134Y-14197174D02*
X12216610Y-14206698D01*
X12426134Y-14320984D02*
X12407087Y-14311460D01*
X12407087Y-14311460D02*
X12397563Y-14301936D01*
X12397563Y-14301936D02*
X12388039Y-14282888D01*
X12388039Y-14282888D02*
X12388039Y-14225746D01*
X12388039Y-14225746D02*
X12397563Y-14206698D01*
X12397563Y-14206698D02*
X12407087Y-14197174D01*
X12407087Y-14197174D02*
X12426134Y-14187650D01*
X12426134Y-14187650D02*
X12454706Y-14187650D01*
X12454706Y-14187650D02*
X12473753Y-14197174D01*
X12473753Y-14197174D02*
X12483277Y-14206698D01*
X12483277Y-14206698D02*
X12492801Y-14225746D01*
X12492801Y-14225746D02*
X12492801Y-14282888D01*
X12492801Y-14282888D02*
X12483277Y-14301936D01*
X12483277Y-14301936D02*
X12473753Y-14311460D01*
X12473753Y-14311460D02*
X12454706Y-14320984D01*
X12454706Y-14320984D02*
X12426134Y-14320984D01*
X12607087Y-14320984D02*
X12588039Y-14311460D01*
X12588039Y-14311460D02*
X12578515Y-14292412D01*
X12578515Y-14292412D02*
X12578515Y-14120984D01*
X12759468Y-14311460D02*
X12740420Y-14320984D01*
X12740420Y-14320984D02*
X12702325Y-14320984D01*
X12702325Y-14320984D02*
X12683277Y-14311460D01*
X12683277Y-14311460D02*
X12673753Y-14292412D01*
X12673753Y-14292412D02*
X12673753Y-14216222D01*
X12673753Y-14216222D02*
X12683277Y-14197174D01*
X12683277Y-14197174D02*
X12702325Y-14187650D01*
X12702325Y-14187650D02*
X12740420Y-14187650D01*
X12740420Y-14187650D02*
X12759468Y-14197174D01*
X12759468Y-14197174D02*
X12768991Y-14216222D01*
X12768991Y-14216222D02*
X12768991Y-14235269D01*
X12768991Y-14235269D02*
X12673753Y-14254317D01*
X12845182Y-14311460D02*
X12864230Y-14320984D01*
X12864230Y-14320984D02*
X12902325Y-14320984D01*
X12902325Y-14320984D02*
X12921372Y-14311460D01*
X12921372Y-14311460D02*
X12930896Y-14292412D01*
X12930896Y-14292412D02*
X12930896Y-14282888D01*
X12930896Y-14282888D02*
X12921372Y-14263841D01*
X12921372Y-14263841D02*
X12902325Y-14254317D01*
X12902325Y-14254317D02*
X12873753Y-14254317D01*
X12873753Y-14254317D02*
X12854706Y-14244793D01*
X12854706Y-14244793D02*
X12845182Y-14225746D01*
X12845182Y-14225746D02*
X12845182Y-14216222D01*
X12845182Y-14216222D02*
X12854706Y-14197174D01*
X12854706Y-14197174D02*
X12873753Y-14187650D01*
X12873753Y-14187650D02*
X12902325Y-14187650D01*
X12902325Y-14187650D02*
X12921372Y-14197174D01*
X12997563Y-14397174D02*
X13007087Y-14387650D01*
X13007087Y-14387650D02*
X13026134Y-14359079D01*
X13026134Y-14359079D02*
X13035658Y-14340031D01*
X13035658Y-14340031D02*
X13045182Y-14311460D01*
X13045182Y-14311460D02*
X13054706Y-14263841D01*
X13054706Y-14263841D02*
X13054706Y-14225746D01*
X13054706Y-14225746D02*
X13045182Y-14178127D01*
X13045182Y-14178127D02*
X13035658Y-14149555D01*
X13035658Y-14149555D02*
X13026134Y-14130508D01*
X13026134Y-14130508D02*
X13007087Y-14101936D01*
X13007087Y-14101936D02*
X12997563Y-14092412D01*
X8122500Y-14449500D02*
X8122500Y-14649500D01*
X8022500Y-14549500D02*
X8222500Y-14549500D01*
X8222500Y-14549500D02*
G75*
G03*
X8222500Y-14549500I-100000J0D01*
G01*
X8464229Y-14440984D02*
X8588039Y-14440984D01*
X8588039Y-14440984D02*
X8521372Y-14517174D01*
X8521372Y-14517174D02*
X8549944Y-14517174D01*
X8549944Y-14517174D02*
X8568991Y-14526698D01*
X8568991Y-14526698D02*
X8578515Y-14536222D01*
X8578515Y-14536222D02*
X8588039Y-14555269D01*
X8588039Y-14555269D02*
X8588039Y-14602888D01*
X8588039Y-14602888D02*
X8578515Y-14621936D01*
X8578515Y-14621936D02*
X8568991Y-14631460D01*
X8568991Y-14631460D02*
X8549944Y-14640984D01*
X8549944Y-14640984D02*
X8492801Y-14640984D01*
X8492801Y-14640984D02*
X8473753Y-14631460D01*
X8473753Y-14631460D02*
X8464229Y-14621936D01*
X8673753Y-14621936D02*
X8683277Y-14631460D01*
X8683277Y-14631460D02*
X8673753Y-14640984D01*
X8673753Y-14640984D02*
X8664229Y-14631460D01*
X8664229Y-14631460D02*
X8673753Y-14621936D01*
X8673753Y-14621936D02*
X8673753Y-14640984D01*
X8759467Y-14460031D02*
X8768991Y-14450508D01*
X8768991Y-14450508D02*
X8788039Y-14440984D01*
X8788039Y-14440984D02*
X8835658Y-14440984D01*
X8835658Y-14440984D02*
X8854705Y-14450508D01*
X8854705Y-14450508D02*
X8864229Y-14460031D01*
X8864229Y-14460031D02*
X8873753Y-14479079D01*
X8873753Y-14479079D02*
X8873753Y-14498127D01*
X8873753Y-14498127D02*
X8864229Y-14526698D01*
X8864229Y-14526698D02*
X8749944Y-14640984D01*
X8749944Y-14640984D02*
X8873753Y-14640984D01*
X9054705Y-14440984D02*
X8959467Y-14440984D01*
X8959467Y-14440984D02*
X8949944Y-14536222D01*
X8949944Y-14536222D02*
X8959467Y-14526698D01*
X8959467Y-14526698D02*
X8978515Y-14517174D01*
X8978515Y-14517174D02*
X9026134Y-14517174D01*
X9026134Y-14517174D02*
X9045182Y-14526698D01*
X9045182Y-14526698D02*
X9054705Y-14536222D01*
X9054705Y-14536222D02*
X9064229Y-14555269D01*
X9064229Y-14555269D02*
X9064229Y-14602888D01*
X9064229Y-14602888D02*
X9054705Y-14621936D01*
X9054705Y-14621936D02*
X9045182Y-14631460D01*
X9045182Y-14631460D02*
X9026134Y-14640984D01*
X9026134Y-14640984D02*
X8978515Y-14640984D01*
X8978515Y-14640984D02*
X8959467Y-14631460D01*
X8959467Y-14631460D02*
X8949944Y-14621936D01*
X9188039Y-14440984D02*
X9207086Y-14440984D01*
X9207086Y-14440984D02*
X9226134Y-14450508D01*
X9226134Y-14450508D02*
X9235658Y-14460031D01*
X9235658Y-14460031D02*
X9245182Y-14479079D01*
X9245182Y-14479079D02*
X9254705Y-14517174D01*
X9254705Y-14517174D02*
X9254705Y-14564793D01*
X9254705Y-14564793D02*
X9245182Y-14602888D01*
X9245182Y-14602888D02*
X9235658Y-14621936D01*
X9235658Y-14621936D02*
X9226134Y-14631460D01*
X9226134Y-14631460D02*
X9207086Y-14640984D01*
X9207086Y-14640984D02*
X9188039Y-14640984D01*
X9188039Y-14640984D02*
X9168991Y-14631460D01*
X9168991Y-14631460D02*
X9159467Y-14621936D01*
X9159467Y-14621936D02*
X9149944Y-14602888D01*
X9149944Y-14602888D02*
X9140420Y-14564793D01*
X9140420Y-14564793D02*
X9140420Y-14517174D01*
X9140420Y-14517174D02*
X9149944Y-14479079D01*
X9149944Y-14479079D02*
X9159467Y-14460031D01*
X9159467Y-14460031D02*
X9168991Y-14450508D01*
X9168991Y-14450508D02*
X9188039Y-14440984D01*
X9340420Y-14640984D02*
X9340420Y-14507650D01*
X9340420Y-14526698D02*
X9349944Y-14517174D01*
X9349944Y-14517174D02*
X9368991Y-14507650D01*
X9368991Y-14507650D02*
X9397563Y-14507650D01*
X9397563Y-14507650D02*
X9416610Y-14517174D01*
X9416610Y-14517174D02*
X9426134Y-14536222D01*
X9426134Y-14536222D02*
X9426134Y-14640984D01*
X9426134Y-14536222D02*
X9435658Y-14517174D01*
X9435658Y-14517174D02*
X9454705Y-14507650D01*
X9454705Y-14507650D02*
X9483277Y-14507650D01*
X9483277Y-14507650D02*
X9502325Y-14517174D01*
X9502325Y-14517174D02*
X9511848Y-14536222D01*
X9511848Y-14536222D02*
X9511848Y-14640984D01*
X9607086Y-14640984D02*
X9607086Y-14507650D01*
X9607086Y-14526698D02*
X9616610Y-14517174D01*
X9616610Y-14517174D02*
X9635658Y-14507650D01*
X9635658Y-14507650D02*
X9664229Y-14507650D01*
X9664229Y-14507650D02*
X9683277Y-14517174D01*
X9683277Y-14517174D02*
X9692801Y-14536222D01*
X9692801Y-14536222D02*
X9692801Y-14640984D01*
X9692801Y-14536222D02*
X9702325Y-14517174D01*
X9702325Y-14517174D02*
X9721372Y-14507650D01*
X9721372Y-14507650D02*
X9749944Y-14507650D01*
X9749944Y-14507650D02*
X9768991Y-14517174D01*
X9768991Y-14517174D02*
X9778515Y-14536222D01*
X9778515Y-14536222D02*
X9778515Y-14640984D01*
X10168991Y-14431460D02*
X9997563Y-14688603D01*
X10426134Y-14440984D02*
X10445182Y-14440984D01*
X10445182Y-14440984D02*
X10464229Y-14450508D01*
X10464229Y-14450508D02*
X10473753Y-14460031D01*
X10473753Y-14460031D02*
X10483277Y-14479079D01*
X10483277Y-14479079D02*
X10492801Y-14517174D01*
X10492801Y-14517174D02*
X10492801Y-14564793D01*
X10492801Y-14564793D02*
X10483277Y-14602888D01*
X10483277Y-14602888D02*
X10473753Y-14621936D01*
X10473753Y-14621936D02*
X10464229Y-14631460D01*
X10464229Y-14631460D02*
X10445182Y-14640984D01*
X10445182Y-14640984D02*
X10426134Y-14640984D01*
X10426134Y-14640984D02*
X10407087Y-14631460D01*
X10407087Y-14631460D02*
X10397563Y-14621936D01*
X10397563Y-14621936D02*
X10388039Y-14602888D01*
X10388039Y-14602888D02*
X10378515Y-14564793D01*
X10378515Y-14564793D02*
X10378515Y-14517174D01*
X10378515Y-14517174D02*
X10388039Y-14479079D01*
X10388039Y-14479079D02*
X10397563Y-14460031D01*
X10397563Y-14460031D02*
X10407087Y-14450508D01*
X10407087Y-14450508D02*
X10426134Y-14440984D01*
X10578515Y-14621936D02*
X10588039Y-14631460D01*
X10588039Y-14631460D02*
X10578515Y-14640984D01*
X10578515Y-14640984D02*
X10568991Y-14631460D01*
X10568991Y-14631460D02*
X10578515Y-14621936D01*
X10578515Y-14621936D02*
X10578515Y-14640984D01*
X10778515Y-14640984D02*
X10664229Y-14640984D01*
X10721372Y-14640984D02*
X10721372Y-14440984D01*
X10721372Y-14440984D02*
X10702325Y-14469555D01*
X10702325Y-14469555D02*
X10683277Y-14488603D01*
X10683277Y-14488603D02*
X10664229Y-14498127D01*
X10854706Y-14460031D02*
X10864229Y-14450508D01*
X10864229Y-14450508D02*
X10883277Y-14440984D01*
X10883277Y-14440984D02*
X10930896Y-14440984D01*
X10930896Y-14440984D02*
X10949944Y-14450508D01*
X10949944Y-14450508D02*
X10959468Y-14460031D01*
X10959468Y-14460031D02*
X10968991Y-14479079D01*
X10968991Y-14479079D02*
X10968991Y-14498127D01*
X10968991Y-14498127D02*
X10959468Y-14526698D01*
X10959468Y-14526698D02*
X10845182Y-14640984D01*
X10845182Y-14640984D02*
X10968991Y-14640984D01*
X11083277Y-14526698D02*
X11064229Y-14517174D01*
X11064229Y-14517174D02*
X11054706Y-14507650D01*
X11054706Y-14507650D02*
X11045182Y-14488603D01*
X11045182Y-14488603D02*
X11045182Y-14479079D01*
X11045182Y-14479079D02*
X11054706Y-14460031D01*
X11054706Y-14460031D02*
X11064229Y-14450508D01*
X11064229Y-14450508D02*
X11083277Y-14440984D01*
X11083277Y-14440984D02*
X11121372Y-14440984D01*
X11121372Y-14440984D02*
X11140420Y-14450508D01*
X11140420Y-14450508D02*
X11149944Y-14460031D01*
X11149944Y-14460031D02*
X11159468Y-14479079D01*
X11159468Y-14479079D02*
X11159468Y-14488603D01*
X11159468Y-14488603D02*
X11149944Y-14507650D01*
X11149944Y-14507650D02*
X11140420Y-14517174D01*
X11140420Y-14517174D02*
X11121372Y-14526698D01*
X11121372Y-14526698D02*
X11083277Y-14526698D01*
X11083277Y-14526698D02*
X11064229Y-14536222D01*
X11064229Y-14536222D02*
X11054706Y-14545746D01*
X11054706Y-14545746D02*
X11045182Y-14564793D01*
X11045182Y-14564793D02*
X11045182Y-14602888D01*
X11045182Y-14602888D02*
X11054706Y-14621936D01*
X11054706Y-14621936D02*
X11064229Y-14631460D01*
X11064229Y-14631460D02*
X11083277Y-14640984D01*
X11083277Y-14640984D02*
X11121372Y-14640984D01*
X11121372Y-14640984D02*
X11140420Y-14631460D01*
X11140420Y-14631460D02*
X11149944Y-14621936D01*
X11149944Y-14621936D02*
X11159468Y-14602888D01*
X11159468Y-14602888D02*
X11159468Y-14564793D01*
X11159468Y-14564793D02*
X11149944Y-14545746D01*
X11149944Y-14545746D02*
X11140420Y-14536222D01*
X11140420Y-14536222D02*
X11121372Y-14526698D01*
X11283277Y-14440984D02*
X11302325Y-14440984D01*
X11302325Y-14440984D02*
X11321372Y-14450508D01*
X11321372Y-14450508D02*
X11330896Y-14460031D01*
X11330896Y-14460031D02*
X11340420Y-14479079D01*
X11340420Y-14479079D02*
X11349944Y-14517174D01*
X11349944Y-14517174D02*
X11349944Y-14564793D01*
X11349944Y-14564793D02*
X11340420Y-14602888D01*
X11340420Y-14602888D02*
X11330896Y-14621936D01*
X11330896Y-14621936D02*
X11321372Y-14631460D01*
X11321372Y-14631460D02*
X11302325Y-14640984D01*
X11302325Y-14640984D02*
X11283277Y-14640984D01*
X11283277Y-14640984D02*
X11264229Y-14631460D01*
X11264229Y-14631460D02*
X11254706Y-14621936D01*
X11254706Y-14621936D02*
X11245182Y-14602888D01*
X11245182Y-14602888D02*
X11235658Y-14564793D01*
X11235658Y-14564793D02*
X11235658Y-14517174D01*
X11235658Y-14517174D02*
X11245182Y-14479079D01*
X11245182Y-14479079D02*
X11254706Y-14460031D01*
X11254706Y-14460031D02*
X11264229Y-14450508D01*
X11264229Y-14450508D02*
X11283277Y-14440984D01*
X11426134Y-14440984D02*
X11426134Y-14479079D01*
X11502325Y-14440984D02*
X11502325Y-14479079D01*
X11797563Y-14717174D02*
X11788039Y-14707650D01*
X11788039Y-14707650D02*
X11768991Y-14679079D01*
X11768991Y-14679079D02*
X11759468Y-14660031D01*
X11759468Y-14660031D02*
X11749944Y-14631460D01*
X11749944Y-14631460D02*
X11740420Y-14583841D01*
X11740420Y-14583841D02*
X11740420Y-14545746D01*
X11740420Y-14545746D02*
X11749944Y-14498127D01*
X11749944Y-14498127D02*
X11759468Y-14469555D01*
X11759468Y-14469555D02*
X11768991Y-14450508D01*
X11768991Y-14450508D02*
X11788039Y-14421936D01*
X11788039Y-14421936D02*
X11797563Y-14412412D01*
X11864229Y-14460031D02*
X11873753Y-14450508D01*
X11873753Y-14450508D02*
X11892801Y-14440984D01*
X11892801Y-14440984D02*
X11940420Y-14440984D01*
X11940420Y-14440984D02*
X11959468Y-14450508D01*
X11959468Y-14450508D02*
X11968991Y-14460031D01*
X11968991Y-14460031D02*
X11978515Y-14479079D01*
X11978515Y-14479079D02*
X11978515Y-14498127D01*
X11978515Y-14498127D02*
X11968991Y-14526698D01*
X11968991Y-14526698D02*
X11854706Y-14640984D01*
X11854706Y-14640984D02*
X11978515Y-14640984D01*
X12216610Y-14640984D02*
X12216610Y-14440984D01*
X12302325Y-14640984D02*
X12302325Y-14536222D01*
X12302325Y-14536222D02*
X12292801Y-14517174D01*
X12292801Y-14517174D02*
X12273753Y-14507650D01*
X12273753Y-14507650D02*
X12245182Y-14507650D01*
X12245182Y-14507650D02*
X12226134Y-14517174D01*
X12226134Y-14517174D02*
X12216610Y-14526698D01*
X12426134Y-14640984D02*
X12407087Y-14631460D01*
X12407087Y-14631460D02*
X12397563Y-14621936D01*
X12397563Y-14621936D02*
X12388039Y-14602888D01*
X12388039Y-14602888D02*
X12388039Y-14545746D01*
X12388039Y-14545746D02*
X12397563Y-14526698D01*
X12397563Y-14526698D02*
X12407087Y-14517174D01*
X12407087Y-14517174D02*
X12426134Y-14507650D01*
X12426134Y-14507650D02*
X12454706Y-14507650D01*
X12454706Y-14507650D02*
X12473753Y-14517174D01*
X12473753Y-14517174D02*
X12483277Y-14526698D01*
X12483277Y-14526698D02*
X12492801Y-14545746D01*
X12492801Y-14545746D02*
X12492801Y-14602888D01*
X12492801Y-14602888D02*
X12483277Y-14621936D01*
X12483277Y-14621936D02*
X12473753Y-14631460D01*
X12473753Y-14631460D02*
X12454706Y-14640984D01*
X12454706Y-14640984D02*
X12426134Y-14640984D01*
X12607087Y-14640984D02*
X12588039Y-14631460D01*
X12588039Y-14631460D02*
X12578515Y-14612412D01*
X12578515Y-14612412D02*
X12578515Y-14440984D01*
X12759468Y-14631460D02*
X12740420Y-14640984D01*
X12740420Y-14640984D02*
X12702325Y-14640984D01*
X12702325Y-14640984D02*
X12683277Y-14631460D01*
X12683277Y-14631460D02*
X12673753Y-14612412D01*
X12673753Y-14612412D02*
X12673753Y-14536222D01*
X12673753Y-14536222D02*
X12683277Y-14517174D01*
X12683277Y-14517174D02*
X12702325Y-14507650D01*
X12702325Y-14507650D02*
X12740420Y-14507650D01*
X12740420Y-14507650D02*
X12759468Y-14517174D01*
X12759468Y-14517174D02*
X12768991Y-14536222D01*
X12768991Y-14536222D02*
X12768991Y-14555269D01*
X12768991Y-14555269D02*
X12673753Y-14574317D01*
X12845182Y-14631460D02*
X12864230Y-14640984D01*
X12864230Y-14640984D02*
X12902325Y-14640984D01*
X12902325Y-14640984D02*
X12921372Y-14631460D01*
X12921372Y-14631460D02*
X12930896Y-14612412D01*
X12930896Y-14612412D02*
X12930896Y-14602888D01*
X12930896Y-14602888D02*
X12921372Y-14583841D01*
X12921372Y-14583841D02*
X12902325Y-14574317D01*
X12902325Y-14574317D02*
X12873753Y-14574317D01*
X12873753Y-14574317D02*
X12854706Y-14564793D01*
X12854706Y-14564793D02*
X12845182Y-14545746D01*
X12845182Y-14545746D02*
X12845182Y-14536222D01*
X12845182Y-14536222D02*
X12854706Y-14517174D01*
X12854706Y-14517174D02*
X12873753Y-14507650D01*
X12873753Y-14507650D02*
X12902325Y-14507650D01*
X12902325Y-14507650D02*
X12921372Y-14517174D01*
X12997563Y-14717174D02*
X13007087Y-14707650D01*
X13007087Y-14707650D02*
X13026134Y-14679079D01*
X13026134Y-14679079D02*
X13035658Y-14660031D01*
X13035658Y-14660031D02*
X13045182Y-14631460D01*
X13045182Y-14631460D02*
X13054706Y-14583841D01*
X13054706Y-14583841D02*
X13054706Y-14545746D01*
X13054706Y-14545746D02*
X13045182Y-14498127D01*
X13045182Y-14498127D02*
X13035658Y-14469555D01*
X13035658Y-14469555D02*
X13026134Y-14450508D01*
X13026134Y-14450508D02*
X13007087Y-14421936D01*
X13007087Y-14421936D02*
X12997563Y-14412412D01*
M02*
