%TF.GenerationSoftware,KiCad,Pcbnew,7.0.2-0*%
%TF.CreationDate,2023-04-30T22:27:09-07:00*%
%TF.ProjectId,babelfish,62616265-6c66-4697-9368-2e6b69636164,REV1*%
%TF.SameCoordinates,Original*%
%TF.FileFunction,Drillmap*%
%TF.FilePolarity,Positive*%
%FSLAX45Y45*%
G04 Gerber Fmt 4.5, Leading zero omitted, Abs format (unit mm)*
G04 Created by KiCad (PCBNEW 7.0.2-0) date 2023-04-30 22:27:09*
%MOMM*%
%LPD*%
G01*
G04 APERTURE LIST*
%ADD10C,0.050000*%
%ADD11C,0.200000*%
%ADD12C,0.035000*%
%ADD13C,0.060000*%
%ADD14C,0.090000*%
%ADD15C,0.100000*%
%ADD16C,0.210000*%
G04 APERTURE END LIST*
D10*
X8200000Y-6935000D02*
X13900000Y-6935000D01*
X13900000Y-10800000D01*
X8200000Y-10800000D01*
X8200000Y-6935000D01*
D11*
D12*
X9177500Y-7562500D02*
X9212500Y-7597500D01*
X9212500Y-7562500D02*
X9177500Y-7597500D01*
X9332500Y-9199500D02*
X9367500Y-9234500D01*
X9367500Y-9199500D02*
X9332500Y-9234500D01*
X9332500Y-9909500D02*
X9367500Y-9944500D01*
X9367500Y-9909500D02*
X9332500Y-9944500D01*
X9397500Y-9654500D02*
X9432500Y-9689500D01*
X9432500Y-9654500D02*
X9397500Y-9689500D01*
X9517050Y-8485500D02*
X9552050Y-8520500D01*
X9552050Y-8485500D02*
X9517050Y-8520500D01*
X9517050Y-8561700D02*
X9552050Y-8596700D01*
X9552050Y-8561700D02*
X9517050Y-8596700D01*
X9547500Y-8297500D02*
X9582500Y-8332500D01*
X9582500Y-8297500D02*
X9547500Y-8332500D01*
X9547500Y-9904500D02*
X9582500Y-9939500D01*
X9582500Y-9904500D02*
X9547500Y-9939500D01*
X9572500Y-9099500D02*
X9607500Y-9134500D01*
X9607500Y-9099500D02*
X9572500Y-9134500D01*
X9717500Y-7692500D02*
X9752500Y-7727500D01*
X9752500Y-7692500D02*
X9717500Y-7727500D01*
X9772500Y-9297500D02*
X9807500Y-9332500D01*
X9807500Y-9297500D02*
X9772500Y-9332500D01*
X9842500Y-8377500D02*
X9877500Y-8412500D01*
X9877500Y-8377500D02*
X9842500Y-8412500D01*
X9917500Y-8917500D02*
X9952500Y-8952500D01*
X9952500Y-8917500D02*
X9917500Y-8952500D01*
X9966630Y-8477880D02*
X10001630Y-8512880D01*
X10001630Y-8477880D02*
X9966630Y-8512880D01*
X10017500Y-9062500D02*
X10052500Y-9097500D01*
X10052500Y-9062500D02*
X10017500Y-9097500D01*
X10057500Y-9157500D02*
X10092500Y-9192500D01*
X10092500Y-9157500D02*
X10057500Y-9192500D01*
X10077500Y-9607500D02*
X10112500Y-9642500D01*
X10112500Y-9607500D02*
X10077500Y-9642500D01*
X10092500Y-8002500D02*
X10127500Y-8037500D01*
X10127500Y-8002500D02*
X10092500Y-8037500D01*
X10167500Y-9297500D02*
X10202500Y-9332500D01*
X10202500Y-9297500D02*
X10167500Y-9332500D01*
X10212500Y-8002500D02*
X10247500Y-8037500D01*
X10247500Y-8002500D02*
X10212500Y-8037500D01*
X10279050Y-8477880D02*
X10314050Y-8512880D01*
X10314050Y-8477880D02*
X10279050Y-8512880D01*
X10487500Y-9342500D02*
X10522500Y-9377500D01*
X10522500Y-9342500D02*
X10487500Y-9377500D01*
X10562500Y-8127500D02*
X10597500Y-8162500D01*
X10597500Y-8127500D02*
X10562500Y-8162500D01*
X10622500Y-7917500D02*
X10657500Y-7952500D01*
X10657500Y-7917500D02*
X10622500Y-7952500D01*
X10657500Y-8057500D02*
X10692500Y-8092500D01*
X10692500Y-8057500D02*
X10657500Y-8092500D01*
X10737500Y-9097500D02*
X10772500Y-9132500D01*
X10772500Y-9097500D02*
X10737500Y-9132500D01*
X10747500Y-9782500D02*
X10782500Y-9817500D01*
X10782500Y-9782500D02*
X10747500Y-9817500D01*
X10832500Y-8057500D02*
X10867500Y-8092500D01*
X10867500Y-8057500D02*
X10832500Y-8092500D01*
X10837500Y-9587500D02*
X10872500Y-9622500D01*
X10872500Y-9587500D02*
X10837500Y-9622500D01*
X10877500Y-9087500D02*
X10912500Y-9122500D01*
X10912500Y-9087500D02*
X10877500Y-9122500D01*
X10942500Y-9587500D02*
X10977500Y-9622500D01*
X10977500Y-9587500D02*
X10942500Y-9622500D01*
X10997500Y-9492500D02*
X11032500Y-9527500D01*
X11032500Y-9492500D02*
X10997500Y-9527500D01*
X11007500Y-8192500D02*
X11042500Y-8227500D01*
X11042500Y-8192500D02*
X11007500Y-8227500D01*
X11107500Y-8097500D02*
X11142500Y-8132500D01*
X11142500Y-8097500D02*
X11107500Y-8132500D01*
X11193450Y-8015600D02*
X11228450Y-8050600D01*
X11228450Y-8015600D02*
X11193450Y-8050600D01*
X11252500Y-9982500D02*
X11287500Y-10017500D01*
X11287500Y-9982500D02*
X11252500Y-10017500D01*
X11252500Y-10382500D02*
X11287500Y-10417500D01*
X11287500Y-10382500D02*
X11252500Y-10417500D01*
X11377500Y-8012500D02*
X11412500Y-8047500D01*
X11412500Y-8012500D02*
X11377500Y-8047500D01*
X11472500Y-8647500D02*
X11507500Y-8682500D01*
X11507500Y-8647500D02*
X11472500Y-8682500D01*
X11472500Y-8737500D02*
X11507500Y-8772500D01*
X11507500Y-8737500D02*
X11472500Y-8772500D01*
X11472500Y-8887500D02*
X11507500Y-8922500D01*
X11507500Y-8887500D02*
X11472500Y-8922500D01*
X11498250Y-7761600D02*
X11533250Y-7796600D01*
X11533250Y-7761600D02*
X11498250Y-7796600D01*
X11574450Y-7710800D02*
X11609450Y-7745800D01*
X11609450Y-7710800D02*
X11574450Y-7745800D01*
X11574450Y-7812400D02*
X11609450Y-7847400D01*
X11609450Y-7812400D02*
X11574450Y-7847400D01*
X11650650Y-7761600D02*
X11685650Y-7796600D01*
X11685650Y-7761600D02*
X11650650Y-7796600D01*
X11657500Y-8052500D02*
X11692500Y-8087500D01*
X11692500Y-8052500D02*
X11657500Y-8087500D01*
X11692500Y-9462500D02*
X11727500Y-9497500D01*
X11727500Y-9462500D02*
X11692500Y-9497500D01*
X11797500Y-7307500D02*
X11832500Y-7342500D01*
X11832500Y-7307500D02*
X11797500Y-7342500D01*
X11822500Y-9272500D02*
X11857500Y-9307500D01*
X11857500Y-9272500D02*
X11822500Y-9307500D01*
X12222500Y-9021420D02*
X12257500Y-9056420D01*
X12257500Y-9021420D02*
X12222500Y-9056420D01*
X12222500Y-9271420D02*
X12257500Y-9306420D01*
X12257500Y-9271420D02*
X12222500Y-9306420D01*
X12302500Y-7907500D02*
X12337500Y-7942500D01*
X12337500Y-7907500D02*
X12302500Y-7942500D01*
X10580000Y-8756250D02*
G75*
G03*
X10580000Y-8756250I-17500J0D01*
G01*
X10580000Y-8883750D02*
G75*
G03*
X10580000Y-8883750I-17500J0D01*
G01*
X10580000Y-9011250D02*
G75*
G03*
X10580000Y-9011250I-17500J0D01*
G01*
X10707500Y-8756250D02*
G75*
G03*
X10707500Y-8756250I-17500J0D01*
G01*
X10707500Y-8883750D02*
G75*
G03*
X10707500Y-8883750I-17500J0D01*
G01*
X10707500Y-9011250D02*
G75*
G03*
X10707500Y-9011250I-17500J0D01*
G01*
X10835000Y-8756250D02*
G75*
G03*
X10835000Y-8756250I-17500J0D01*
G01*
X10835000Y-8883750D02*
G75*
G03*
X10835000Y-8883750I-17500J0D01*
G01*
X10835000Y-9011250D02*
G75*
G03*
X10835000Y-9011250I-17500J0D01*
G01*
D13*
X10625992Y-7160000D02*
X10625992Y-7220000D01*
X10595992Y-7190000D02*
X10655992Y-7190000D01*
D11*
X10655992Y-7230000D02*
X10655992Y-7150000D01*
X10655992Y-7150000D02*
G75*
G03*
X10595992Y-7150000I-30000J0D01*
G01*
X10595992Y-7150000D02*
X10595992Y-7230000D01*
X10595992Y-7230000D02*
G75*
G03*
X10655992Y-7230000I30000J0D01*
G01*
D13*
X10625992Y-7578009D02*
X10625992Y-7638009D01*
X10595992Y-7608009D02*
X10655992Y-7608009D01*
D11*
X10655992Y-7663009D02*
X10655992Y-7553009D01*
X10655992Y-7553009D02*
G75*
G03*
X10595992Y-7553009I-30000J0D01*
G01*
X10595992Y-7553009D02*
X10595992Y-7663009D01*
X10595992Y-7663009D02*
G75*
G03*
X10655992Y-7663009I30000J0D01*
G01*
D13*
X11490000Y-7160000D02*
X11490000Y-7220000D01*
X11460000Y-7190000D02*
X11520000Y-7190000D01*
D11*
X11520000Y-7230000D02*
X11520000Y-7150000D01*
X11520000Y-7150000D02*
G75*
G03*
X11460000Y-7150000I-30000J0D01*
G01*
X11460000Y-7150000D02*
X11460000Y-7230000D01*
X11460000Y-7230000D02*
G75*
G03*
X11520000Y-7230000I30000J0D01*
G01*
D13*
X11490000Y-7578009D02*
X11490000Y-7638009D01*
X11460000Y-7608009D02*
X11520000Y-7608009D01*
D11*
X11520000Y-7663009D02*
X11520000Y-7553009D01*
X11520000Y-7553009D02*
G75*
G03*
X11460000Y-7553009I-30000J0D01*
G01*
X11460000Y-7553009D02*
X11460000Y-7663009D01*
X11460000Y-7663009D02*
G75*
G03*
X11520000Y-7663009I30000J0D01*
G01*
D14*
X12775740Y-8835980D02*
X12775740Y-8772340D01*
X12712100Y-8772340D01*
X12712100Y-8835980D01*
X12775740Y-8835980D01*
X12775740Y-9085980D02*
X12775740Y-9022340D01*
X12712100Y-9022340D01*
X12712100Y-9085980D01*
X12775740Y-9085980D01*
X12775740Y-9285980D02*
X12775740Y-9222340D01*
X12712100Y-9222340D01*
X12712100Y-9285980D01*
X12775740Y-9285980D01*
X12775740Y-9535980D02*
X12775740Y-9472340D01*
X12712100Y-9472340D01*
X12712100Y-9535980D01*
X12775740Y-9535980D01*
D15*
X8524750Y-7422700D02*
X8574750Y-7372700D01*
X8524750Y-7322700D01*
X8474750Y-7372700D01*
X8524750Y-7422700D01*
X8524750Y-7676700D02*
X8574750Y-7626700D01*
X8524750Y-7576700D01*
X8474750Y-7626700D01*
X8524750Y-7676700D01*
X8524750Y-7930700D02*
X8574750Y-7880700D01*
X8524750Y-7830700D01*
X8474750Y-7880700D01*
X8524750Y-7930700D01*
X8524750Y-8184700D02*
X8574750Y-8134700D01*
X8524750Y-8084700D01*
X8474750Y-8134700D01*
X8524750Y-8184700D01*
X8524750Y-8438700D02*
X8574750Y-8388700D01*
X8524750Y-8338700D01*
X8474750Y-8388700D01*
X8524750Y-8438700D01*
X8778750Y-7422700D02*
X8828750Y-7372700D01*
X8778750Y-7322700D01*
X8728750Y-7372700D01*
X8778750Y-7422700D01*
X8778750Y-7676700D02*
X8828750Y-7626700D01*
X8778750Y-7576700D01*
X8728750Y-7626700D01*
X8778750Y-7676700D01*
X8778750Y-7930700D02*
X8828750Y-7880700D01*
X8778750Y-7830700D01*
X8728750Y-7880700D01*
X8778750Y-7930700D01*
X8778750Y-8184700D02*
X8828750Y-8134700D01*
X8778750Y-8084700D01*
X8728750Y-8134700D01*
X8778750Y-8184700D01*
X8778750Y-8438700D02*
X8828750Y-8388700D01*
X8778750Y-8338700D01*
X8728750Y-8388700D01*
X8778750Y-8438700D01*
X10370000Y-10161000D02*
X10420000Y-10111000D01*
X10370000Y-10061000D01*
X10320000Y-10111000D01*
X10370000Y-10161000D01*
X10370000Y-10415000D02*
X10420000Y-10365000D01*
X10370000Y-10315000D01*
X10320000Y-10365000D01*
X10370000Y-10415000D01*
X10624000Y-10161000D02*
X10674000Y-10111000D01*
X10624000Y-10061000D01*
X10574000Y-10111000D01*
X10624000Y-10161000D01*
X10624000Y-10415000D02*
X10674000Y-10365000D01*
X10624000Y-10315000D01*
X10574000Y-10365000D01*
X10624000Y-10415000D01*
X10878000Y-10161000D02*
X10928000Y-10111000D01*
X10878000Y-10061000D01*
X10828000Y-10111000D01*
X10878000Y-10161000D01*
X10878000Y-10415000D02*
X10928000Y-10365000D01*
X10878000Y-10315000D01*
X10828000Y-10365000D01*
X10878000Y-10415000D01*
X12200000Y-7350000D02*
X12250000Y-7300000D01*
X12200000Y-7250000D01*
X12150000Y-7300000D01*
X12200000Y-7350000D01*
X12454000Y-7350000D02*
X12504000Y-7300000D01*
X12454000Y-7250000D01*
X12404000Y-7300000D01*
X12454000Y-7350000D01*
X12708000Y-7350000D02*
X12758000Y-7300000D01*
X12708000Y-7250000D01*
X12658000Y-7300000D01*
X12708000Y-7350000D01*
X12962000Y-7350000D02*
X13012000Y-7300000D01*
X12962000Y-7250000D01*
X12912000Y-7300000D01*
X12962000Y-7350000D01*
D16*
X12909920Y-8349160D02*
X13119920Y-8559160D01*
X13119920Y-8349160D02*
X12909920Y-8559160D01*
X13119920Y-8454160D02*
G75*
G03*
X13119920Y-8454160I-105000J0D01*
G01*
X12909920Y-9749160D02*
X13119920Y-9959160D01*
X13119920Y-9749160D02*
X12909920Y-9959160D01*
X13119920Y-9854160D02*
G75*
G03*
X13119920Y-9854160I-105000J0D01*
G01*
D11*
X8445119Y-11115024D02*
X8445119Y-10915024D01*
X8445119Y-10915024D02*
X8492738Y-10915024D01*
X8492738Y-10915024D02*
X8521310Y-10924548D01*
X8521310Y-10924548D02*
X8540357Y-10943595D01*
X8540357Y-10943595D02*
X8549881Y-10962643D01*
X8549881Y-10962643D02*
X8559405Y-11000738D01*
X8559405Y-11000738D02*
X8559405Y-11029310D01*
X8559405Y-11029310D02*
X8549881Y-11067405D01*
X8549881Y-11067405D02*
X8540357Y-11086452D01*
X8540357Y-11086452D02*
X8521310Y-11105500D01*
X8521310Y-11105500D02*
X8492738Y-11115024D01*
X8492738Y-11115024D02*
X8445119Y-11115024D01*
X8645119Y-11115024D02*
X8645119Y-10981690D01*
X8645119Y-11019786D02*
X8654643Y-11000738D01*
X8654643Y-11000738D02*
X8664167Y-10991214D01*
X8664167Y-10991214D02*
X8683214Y-10981690D01*
X8683214Y-10981690D02*
X8702262Y-10981690D01*
X8768929Y-11115024D02*
X8768929Y-10981690D01*
X8768929Y-10915024D02*
X8759405Y-10924548D01*
X8759405Y-10924548D02*
X8768929Y-10934071D01*
X8768929Y-10934071D02*
X8778452Y-10924548D01*
X8778452Y-10924548D02*
X8768929Y-10915024D01*
X8768929Y-10915024D02*
X8768929Y-10934071D01*
X8892738Y-11115024D02*
X8873690Y-11105500D01*
X8873690Y-11105500D02*
X8864167Y-11086452D01*
X8864167Y-11086452D02*
X8864167Y-10915024D01*
X8997500Y-11115024D02*
X8978452Y-11105500D01*
X8978452Y-11105500D02*
X8968929Y-11086452D01*
X8968929Y-11086452D02*
X8968929Y-10915024D01*
X9226071Y-11115024D02*
X9226071Y-10915024D01*
X9226071Y-10915024D02*
X9292738Y-11057881D01*
X9292738Y-11057881D02*
X9359405Y-10915024D01*
X9359405Y-10915024D02*
X9359405Y-11115024D01*
X9540357Y-11115024D02*
X9540357Y-11010262D01*
X9540357Y-11010262D02*
X9530833Y-10991214D01*
X9530833Y-10991214D02*
X9511786Y-10981690D01*
X9511786Y-10981690D02*
X9473690Y-10981690D01*
X9473690Y-10981690D02*
X9454643Y-10991214D01*
X9540357Y-11105500D02*
X9521310Y-11115024D01*
X9521310Y-11115024D02*
X9473690Y-11115024D01*
X9473690Y-11115024D02*
X9454643Y-11105500D01*
X9454643Y-11105500D02*
X9445119Y-11086452D01*
X9445119Y-11086452D02*
X9445119Y-11067405D01*
X9445119Y-11067405D02*
X9454643Y-11048357D01*
X9454643Y-11048357D02*
X9473690Y-11038833D01*
X9473690Y-11038833D02*
X9521310Y-11038833D01*
X9521310Y-11038833D02*
X9540357Y-11029310D01*
X9635595Y-10981690D02*
X9635595Y-11181690D01*
X9635595Y-10991214D02*
X9654643Y-10981690D01*
X9654643Y-10981690D02*
X9692738Y-10981690D01*
X9692738Y-10981690D02*
X9711786Y-10991214D01*
X9711786Y-10991214D02*
X9721310Y-11000738D01*
X9721310Y-11000738D02*
X9730833Y-11019786D01*
X9730833Y-11019786D02*
X9730833Y-11076929D01*
X9730833Y-11076929D02*
X9721310Y-11095976D01*
X9721310Y-11095976D02*
X9711786Y-11105500D01*
X9711786Y-11105500D02*
X9692738Y-11115024D01*
X9692738Y-11115024D02*
X9654643Y-11115024D01*
X9654643Y-11115024D02*
X9635595Y-11105500D01*
X9816548Y-11095976D02*
X9826071Y-11105500D01*
X9826071Y-11105500D02*
X9816548Y-11115024D01*
X9816548Y-11115024D02*
X9807024Y-11105500D01*
X9807024Y-11105500D02*
X9816548Y-11095976D01*
X9816548Y-11095976D02*
X9816548Y-11115024D01*
X9816548Y-10991214D02*
X9826071Y-11000738D01*
X9826071Y-11000738D02*
X9816548Y-11010262D01*
X9816548Y-11010262D02*
X9807024Y-11000738D01*
X9807024Y-11000738D02*
X9816548Y-10991214D01*
X9816548Y-10991214D02*
X9816548Y-11010262D01*
D12*
X8162500Y-11425000D02*
X8197500Y-11460000D01*
X8197500Y-11425000D02*
X8162500Y-11460000D01*
D11*
X8483214Y-11335024D02*
X8502262Y-11335024D01*
X8502262Y-11335024D02*
X8521310Y-11344548D01*
X8521310Y-11344548D02*
X8530833Y-11354071D01*
X8530833Y-11354071D02*
X8540357Y-11373119D01*
X8540357Y-11373119D02*
X8549881Y-11411214D01*
X8549881Y-11411214D02*
X8549881Y-11458833D01*
X8549881Y-11458833D02*
X8540357Y-11496928D01*
X8540357Y-11496928D02*
X8530833Y-11515976D01*
X8530833Y-11515976D02*
X8521310Y-11525500D01*
X8521310Y-11525500D02*
X8502262Y-11535024D01*
X8502262Y-11535024D02*
X8483214Y-11535024D01*
X8483214Y-11535024D02*
X8464167Y-11525500D01*
X8464167Y-11525500D02*
X8454643Y-11515976D01*
X8454643Y-11515976D02*
X8445119Y-11496928D01*
X8445119Y-11496928D02*
X8435595Y-11458833D01*
X8435595Y-11458833D02*
X8435595Y-11411214D01*
X8435595Y-11411214D02*
X8445119Y-11373119D01*
X8445119Y-11373119D02*
X8454643Y-11354071D01*
X8454643Y-11354071D02*
X8464167Y-11344548D01*
X8464167Y-11344548D02*
X8483214Y-11335024D01*
X8635595Y-11515976D02*
X8645119Y-11525500D01*
X8645119Y-11525500D02*
X8635595Y-11535024D01*
X8635595Y-11535024D02*
X8626071Y-11525500D01*
X8626071Y-11525500D02*
X8635595Y-11515976D01*
X8635595Y-11515976D02*
X8635595Y-11535024D01*
X8711786Y-11335024D02*
X8835595Y-11335024D01*
X8835595Y-11335024D02*
X8768929Y-11411214D01*
X8768929Y-11411214D02*
X8797500Y-11411214D01*
X8797500Y-11411214D02*
X8816548Y-11420738D01*
X8816548Y-11420738D02*
X8826071Y-11430262D01*
X8826071Y-11430262D02*
X8835595Y-11449309D01*
X8835595Y-11449309D02*
X8835595Y-11496928D01*
X8835595Y-11496928D02*
X8826071Y-11515976D01*
X8826071Y-11515976D02*
X8816548Y-11525500D01*
X8816548Y-11525500D02*
X8797500Y-11535024D01*
X8797500Y-11535024D02*
X8740357Y-11535024D01*
X8740357Y-11535024D02*
X8721310Y-11525500D01*
X8721310Y-11525500D02*
X8711786Y-11515976D01*
X9016548Y-11335024D02*
X8921310Y-11335024D01*
X8921310Y-11335024D02*
X8911786Y-11430262D01*
X8911786Y-11430262D02*
X8921310Y-11420738D01*
X8921310Y-11420738D02*
X8940357Y-11411214D01*
X8940357Y-11411214D02*
X8987976Y-11411214D01*
X8987976Y-11411214D02*
X9007024Y-11420738D01*
X9007024Y-11420738D02*
X9016548Y-11430262D01*
X9016548Y-11430262D02*
X9026071Y-11449309D01*
X9026071Y-11449309D02*
X9026071Y-11496928D01*
X9026071Y-11496928D02*
X9016548Y-11515976D01*
X9016548Y-11515976D02*
X9007024Y-11525500D01*
X9007024Y-11525500D02*
X8987976Y-11535024D01*
X8987976Y-11535024D02*
X8940357Y-11535024D01*
X8940357Y-11535024D02*
X8921310Y-11525500D01*
X8921310Y-11525500D02*
X8911786Y-11515976D01*
X9149881Y-11335024D02*
X9168929Y-11335024D01*
X9168929Y-11335024D02*
X9187976Y-11344548D01*
X9187976Y-11344548D02*
X9197500Y-11354071D01*
X9197500Y-11354071D02*
X9207024Y-11373119D01*
X9207024Y-11373119D02*
X9216548Y-11411214D01*
X9216548Y-11411214D02*
X9216548Y-11458833D01*
X9216548Y-11458833D02*
X9207024Y-11496928D01*
X9207024Y-11496928D02*
X9197500Y-11515976D01*
X9197500Y-11515976D02*
X9187976Y-11525500D01*
X9187976Y-11525500D02*
X9168929Y-11535024D01*
X9168929Y-11535024D02*
X9149881Y-11535024D01*
X9149881Y-11535024D02*
X9130833Y-11525500D01*
X9130833Y-11525500D02*
X9121310Y-11515976D01*
X9121310Y-11515976D02*
X9111786Y-11496928D01*
X9111786Y-11496928D02*
X9102262Y-11458833D01*
X9102262Y-11458833D02*
X9102262Y-11411214D01*
X9102262Y-11411214D02*
X9111786Y-11373119D01*
X9111786Y-11373119D02*
X9121310Y-11354071D01*
X9121310Y-11354071D02*
X9130833Y-11344548D01*
X9130833Y-11344548D02*
X9149881Y-11335024D01*
X9302262Y-11535024D02*
X9302262Y-11401690D01*
X9302262Y-11420738D02*
X9311786Y-11411214D01*
X9311786Y-11411214D02*
X9330833Y-11401690D01*
X9330833Y-11401690D02*
X9359405Y-11401690D01*
X9359405Y-11401690D02*
X9378452Y-11411214D01*
X9378452Y-11411214D02*
X9387976Y-11430262D01*
X9387976Y-11430262D02*
X9387976Y-11535024D01*
X9387976Y-11430262D02*
X9397500Y-11411214D01*
X9397500Y-11411214D02*
X9416548Y-11401690D01*
X9416548Y-11401690D02*
X9445119Y-11401690D01*
X9445119Y-11401690D02*
X9464167Y-11411214D01*
X9464167Y-11411214D02*
X9473691Y-11430262D01*
X9473691Y-11430262D02*
X9473691Y-11535024D01*
X9568929Y-11535024D02*
X9568929Y-11401690D01*
X9568929Y-11420738D02*
X9578452Y-11411214D01*
X9578452Y-11411214D02*
X9597500Y-11401690D01*
X9597500Y-11401690D02*
X9626072Y-11401690D01*
X9626072Y-11401690D02*
X9645119Y-11411214D01*
X9645119Y-11411214D02*
X9654643Y-11430262D01*
X9654643Y-11430262D02*
X9654643Y-11535024D01*
X9654643Y-11430262D02*
X9664167Y-11411214D01*
X9664167Y-11411214D02*
X9683214Y-11401690D01*
X9683214Y-11401690D02*
X9711786Y-11401690D01*
X9711786Y-11401690D02*
X9730833Y-11411214D01*
X9730833Y-11411214D02*
X9740357Y-11430262D01*
X9740357Y-11430262D02*
X9740357Y-11535024D01*
X10130833Y-11325500D02*
X9959405Y-11582643D01*
X10387976Y-11335024D02*
X10407024Y-11335024D01*
X10407024Y-11335024D02*
X10426072Y-11344548D01*
X10426072Y-11344548D02*
X10435595Y-11354071D01*
X10435595Y-11354071D02*
X10445119Y-11373119D01*
X10445119Y-11373119D02*
X10454643Y-11411214D01*
X10454643Y-11411214D02*
X10454643Y-11458833D01*
X10454643Y-11458833D02*
X10445119Y-11496928D01*
X10445119Y-11496928D02*
X10435595Y-11515976D01*
X10435595Y-11515976D02*
X10426072Y-11525500D01*
X10426072Y-11525500D02*
X10407024Y-11535024D01*
X10407024Y-11535024D02*
X10387976Y-11535024D01*
X10387976Y-11535024D02*
X10368929Y-11525500D01*
X10368929Y-11525500D02*
X10359405Y-11515976D01*
X10359405Y-11515976D02*
X10349881Y-11496928D01*
X10349881Y-11496928D02*
X10340357Y-11458833D01*
X10340357Y-11458833D02*
X10340357Y-11411214D01*
X10340357Y-11411214D02*
X10349881Y-11373119D01*
X10349881Y-11373119D02*
X10359405Y-11354071D01*
X10359405Y-11354071D02*
X10368929Y-11344548D01*
X10368929Y-11344548D02*
X10387976Y-11335024D01*
X10540357Y-11515976D02*
X10549881Y-11525500D01*
X10549881Y-11525500D02*
X10540357Y-11535024D01*
X10540357Y-11535024D02*
X10530834Y-11525500D01*
X10530834Y-11525500D02*
X10540357Y-11515976D01*
X10540357Y-11515976D02*
X10540357Y-11535024D01*
X10673691Y-11335024D02*
X10692738Y-11335024D01*
X10692738Y-11335024D02*
X10711786Y-11344548D01*
X10711786Y-11344548D02*
X10721310Y-11354071D01*
X10721310Y-11354071D02*
X10730834Y-11373119D01*
X10730834Y-11373119D02*
X10740357Y-11411214D01*
X10740357Y-11411214D02*
X10740357Y-11458833D01*
X10740357Y-11458833D02*
X10730834Y-11496928D01*
X10730834Y-11496928D02*
X10721310Y-11515976D01*
X10721310Y-11515976D02*
X10711786Y-11525500D01*
X10711786Y-11525500D02*
X10692738Y-11535024D01*
X10692738Y-11535024D02*
X10673691Y-11535024D01*
X10673691Y-11535024D02*
X10654643Y-11525500D01*
X10654643Y-11525500D02*
X10645119Y-11515976D01*
X10645119Y-11515976D02*
X10635595Y-11496928D01*
X10635595Y-11496928D02*
X10626072Y-11458833D01*
X10626072Y-11458833D02*
X10626072Y-11411214D01*
X10626072Y-11411214D02*
X10635595Y-11373119D01*
X10635595Y-11373119D02*
X10645119Y-11354071D01*
X10645119Y-11354071D02*
X10654643Y-11344548D01*
X10654643Y-11344548D02*
X10673691Y-11335024D01*
X10930834Y-11535024D02*
X10816548Y-11535024D01*
X10873691Y-11535024D02*
X10873691Y-11335024D01*
X10873691Y-11335024D02*
X10854643Y-11363595D01*
X10854643Y-11363595D02*
X10835595Y-11382643D01*
X10835595Y-11382643D02*
X10816548Y-11392167D01*
X10997500Y-11335024D02*
X11121310Y-11335024D01*
X11121310Y-11335024D02*
X11054643Y-11411214D01*
X11054643Y-11411214D02*
X11083215Y-11411214D01*
X11083215Y-11411214D02*
X11102262Y-11420738D01*
X11102262Y-11420738D02*
X11111786Y-11430262D01*
X11111786Y-11430262D02*
X11121310Y-11449309D01*
X11121310Y-11449309D02*
X11121310Y-11496928D01*
X11121310Y-11496928D02*
X11111786Y-11515976D01*
X11111786Y-11515976D02*
X11102262Y-11525500D01*
X11102262Y-11525500D02*
X11083215Y-11535024D01*
X11083215Y-11535024D02*
X11026072Y-11535024D01*
X11026072Y-11535024D02*
X11007024Y-11525500D01*
X11007024Y-11525500D02*
X10997500Y-11515976D01*
X11235595Y-11420738D02*
X11216548Y-11411214D01*
X11216548Y-11411214D02*
X11207024Y-11401690D01*
X11207024Y-11401690D02*
X11197500Y-11382643D01*
X11197500Y-11382643D02*
X11197500Y-11373119D01*
X11197500Y-11373119D02*
X11207024Y-11354071D01*
X11207024Y-11354071D02*
X11216548Y-11344548D01*
X11216548Y-11344548D02*
X11235595Y-11335024D01*
X11235595Y-11335024D02*
X11273691Y-11335024D01*
X11273691Y-11335024D02*
X11292738Y-11344548D01*
X11292738Y-11344548D02*
X11302262Y-11354071D01*
X11302262Y-11354071D02*
X11311786Y-11373119D01*
X11311786Y-11373119D02*
X11311786Y-11382643D01*
X11311786Y-11382643D02*
X11302262Y-11401690D01*
X11302262Y-11401690D02*
X11292738Y-11411214D01*
X11292738Y-11411214D02*
X11273691Y-11420738D01*
X11273691Y-11420738D02*
X11235595Y-11420738D01*
X11235595Y-11420738D02*
X11216548Y-11430262D01*
X11216548Y-11430262D02*
X11207024Y-11439786D01*
X11207024Y-11439786D02*
X11197500Y-11458833D01*
X11197500Y-11458833D02*
X11197500Y-11496928D01*
X11197500Y-11496928D02*
X11207024Y-11515976D01*
X11207024Y-11515976D02*
X11216548Y-11525500D01*
X11216548Y-11525500D02*
X11235595Y-11535024D01*
X11235595Y-11535024D02*
X11273691Y-11535024D01*
X11273691Y-11535024D02*
X11292738Y-11525500D01*
X11292738Y-11525500D02*
X11302262Y-11515976D01*
X11302262Y-11515976D02*
X11311786Y-11496928D01*
X11311786Y-11496928D02*
X11311786Y-11458833D01*
X11311786Y-11458833D02*
X11302262Y-11439786D01*
X11302262Y-11439786D02*
X11292738Y-11430262D01*
X11292738Y-11430262D02*
X11273691Y-11420738D01*
X11387976Y-11335024D02*
X11387976Y-11373119D01*
X11464167Y-11335024D02*
X11464167Y-11373119D01*
X11759405Y-11611214D02*
X11749881Y-11601690D01*
X11749881Y-11601690D02*
X11730834Y-11573119D01*
X11730834Y-11573119D02*
X11721310Y-11554071D01*
X11721310Y-11554071D02*
X11711786Y-11525500D01*
X11711786Y-11525500D02*
X11702262Y-11477881D01*
X11702262Y-11477881D02*
X11702262Y-11439786D01*
X11702262Y-11439786D02*
X11711786Y-11392167D01*
X11711786Y-11392167D02*
X11721310Y-11363595D01*
X11721310Y-11363595D02*
X11730834Y-11344548D01*
X11730834Y-11344548D02*
X11749881Y-11315976D01*
X11749881Y-11315976D02*
X11759405Y-11306452D01*
X11930834Y-11335024D02*
X11835595Y-11335024D01*
X11835595Y-11335024D02*
X11826072Y-11430262D01*
X11826072Y-11430262D02*
X11835595Y-11420738D01*
X11835595Y-11420738D02*
X11854643Y-11411214D01*
X11854643Y-11411214D02*
X11902262Y-11411214D01*
X11902262Y-11411214D02*
X11921310Y-11420738D01*
X11921310Y-11420738D02*
X11930834Y-11430262D01*
X11930834Y-11430262D02*
X11940357Y-11449309D01*
X11940357Y-11449309D02*
X11940357Y-11496928D01*
X11940357Y-11496928D02*
X11930834Y-11515976D01*
X11930834Y-11515976D02*
X11921310Y-11525500D01*
X11921310Y-11525500D02*
X11902262Y-11535024D01*
X11902262Y-11535024D02*
X11854643Y-11535024D01*
X11854643Y-11535024D02*
X11835595Y-11525500D01*
X11835595Y-11525500D02*
X11826072Y-11515976D01*
X12016548Y-11354071D02*
X12026072Y-11344548D01*
X12026072Y-11344548D02*
X12045119Y-11335024D01*
X12045119Y-11335024D02*
X12092738Y-11335024D01*
X12092738Y-11335024D02*
X12111786Y-11344548D01*
X12111786Y-11344548D02*
X12121310Y-11354071D01*
X12121310Y-11354071D02*
X12130834Y-11373119D01*
X12130834Y-11373119D02*
X12130834Y-11392167D01*
X12130834Y-11392167D02*
X12121310Y-11420738D01*
X12121310Y-11420738D02*
X12007024Y-11535024D01*
X12007024Y-11535024D02*
X12130834Y-11535024D01*
X12368929Y-11535024D02*
X12368929Y-11335024D01*
X12454643Y-11535024D02*
X12454643Y-11430262D01*
X12454643Y-11430262D02*
X12445119Y-11411214D01*
X12445119Y-11411214D02*
X12426072Y-11401690D01*
X12426072Y-11401690D02*
X12397500Y-11401690D01*
X12397500Y-11401690D02*
X12378453Y-11411214D01*
X12378453Y-11411214D02*
X12368929Y-11420738D01*
X12578453Y-11535024D02*
X12559405Y-11525500D01*
X12559405Y-11525500D02*
X12549881Y-11515976D01*
X12549881Y-11515976D02*
X12540357Y-11496928D01*
X12540357Y-11496928D02*
X12540357Y-11439786D01*
X12540357Y-11439786D02*
X12549881Y-11420738D01*
X12549881Y-11420738D02*
X12559405Y-11411214D01*
X12559405Y-11411214D02*
X12578453Y-11401690D01*
X12578453Y-11401690D02*
X12607024Y-11401690D01*
X12607024Y-11401690D02*
X12626072Y-11411214D01*
X12626072Y-11411214D02*
X12635596Y-11420738D01*
X12635596Y-11420738D02*
X12645119Y-11439786D01*
X12645119Y-11439786D02*
X12645119Y-11496928D01*
X12645119Y-11496928D02*
X12635596Y-11515976D01*
X12635596Y-11515976D02*
X12626072Y-11525500D01*
X12626072Y-11525500D02*
X12607024Y-11535024D01*
X12607024Y-11535024D02*
X12578453Y-11535024D01*
X12759405Y-11535024D02*
X12740357Y-11525500D01*
X12740357Y-11525500D02*
X12730834Y-11506452D01*
X12730834Y-11506452D02*
X12730834Y-11335024D01*
X12911786Y-11525500D02*
X12892738Y-11535024D01*
X12892738Y-11535024D02*
X12854643Y-11535024D01*
X12854643Y-11535024D02*
X12835596Y-11525500D01*
X12835596Y-11525500D02*
X12826072Y-11506452D01*
X12826072Y-11506452D02*
X12826072Y-11430262D01*
X12826072Y-11430262D02*
X12835596Y-11411214D01*
X12835596Y-11411214D02*
X12854643Y-11401690D01*
X12854643Y-11401690D02*
X12892738Y-11401690D01*
X12892738Y-11401690D02*
X12911786Y-11411214D01*
X12911786Y-11411214D02*
X12921310Y-11430262D01*
X12921310Y-11430262D02*
X12921310Y-11449309D01*
X12921310Y-11449309D02*
X12826072Y-11468357D01*
X12997500Y-11525500D02*
X13016548Y-11535024D01*
X13016548Y-11535024D02*
X13054643Y-11535024D01*
X13054643Y-11535024D02*
X13073691Y-11525500D01*
X13073691Y-11525500D02*
X13083215Y-11506452D01*
X13083215Y-11506452D02*
X13083215Y-11496928D01*
X13083215Y-11496928D02*
X13073691Y-11477881D01*
X13073691Y-11477881D02*
X13054643Y-11468357D01*
X13054643Y-11468357D02*
X13026072Y-11468357D01*
X13026072Y-11468357D02*
X13007024Y-11458833D01*
X13007024Y-11458833D02*
X12997500Y-11439786D01*
X12997500Y-11439786D02*
X12997500Y-11430262D01*
X12997500Y-11430262D02*
X13007024Y-11411214D01*
X13007024Y-11411214D02*
X13026072Y-11401690D01*
X13026072Y-11401690D02*
X13054643Y-11401690D01*
X13054643Y-11401690D02*
X13073691Y-11411214D01*
X13149881Y-11611214D02*
X13159405Y-11601690D01*
X13159405Y-11601690D02*
X13178453Y-11573119D01*
X13178453Y-11573119D02*
X13187977Y-11554071D01*
X13187977Y-11554071D02*
X13197500Y-11525500D01*
X13197500Y-11525500D02*
X13207024Y-11477881D01*
X13207024Y-11477881D02*
X13207024Y-11439786D01*
X13207024Y-11439786D02*
X13197500Y-11392167D01*
X13197500Y-11392167D02*
X13187977Y-11363595D01*
X13187977Y-11363595D02*
X13178453Y-11344548D01*
X13178453Y-11344548D02*
X13159405Y-11315976D01*
X13159405Y-11315976D02*
X13149881Y-11306452D01*
D12*
X8197500Y-11706500D02*
G75*
G03*
X8197500Y-11706500I-17500J0D01*
G01*
D11*
X8483214Y-11599024D02*
X8502262Y-11599024D01*
X8502262Y-11599024D02*
X8521310Y-11608548D01*
X8521310Y-11608548D02*
X8530833Y-11618071D01*
X8530833Y-11618071D02*
X8540357Y-11637119D01*
X8540357Y-11637119D02*
X8549881Y-11675214D01*
X8549881Y-11675214D02*
X8549881Y-11722833D01*
X8549881Y-11722833D02*
X8540357Y-11760928D01*
X8540357Y-11760928D02*
X8530833Y-11779976D01*
X8530833Y-11779976D02*
X8521310Y-11789500D01*
X8521310Y-11789500D02*
X8502262Y-11799024D01*
X8502262Y-11799024D02*
X8483214Y-11799024D01*
X8483214Y-11799024D02*
X8464167Y-11789500D01*
X8464167Y-11789500D02*
X8454643Y-11779976D01*
X8454643Y-11779976D02*
X8445119Y-11760928D01*
X8445119Y-11760928D02*
X8435595Y-11722833D01*
X8435595Y-11722833D02*
X8435595Y-11675214D01*
X8435595Y-11675214D02*
X8445119Y-11637119D01*
X8445119Y-11637119D02*
X8454643Y-11618071D01*
X8454643Y-11618071D02*
X8464167Y-11608548D01*
X8464167Y-11608548D02*
X8483214Y-11599024D01*
X8635595Y-11779976D02*
X8645119Y-11789500D01*
X8645119Y-11789500D02*
X8635595Y-11799024D01*
X8635595Y-11799024D02*
X8626071Y-11789500D01*
X8626071Y-11789500D02*
X8635595Y-11779976D01*
X8635595Y-11779976D02*
X8635595Y-11799024D01*
X8711786Y-11599024D02*
X8835595Y-11599024D01*
X8835595Y-11599024D02*
X8768929Y-11675214D01*
X8768929Y-11675214D02*
X8797500Y-11675214D01*
X8797500Y-11675214D02*
X8816548Y-11684738D01*
X8816548Y-11684738D02*
X8826071Y-11694262D01*
X8826071Y-11694262D02*
X8835595Y-11713309D01*
X8835595Y-11713309D02*
X8835595Y-11760928D01*
X8835595Y-11760928D02*
X8826071Y-11779976D01*
X8826071Y-11779976D02*
X8816548Y-11789500D01*
X8816548Y-11789500D02*
X8797500Y-11799024D01*
X8797500Y-11799024D02*
X8740357Y-11799024D01*
X8740357Y-11799024D02*
X8721310Y-11789500D01*
X8721310Y-11789500D02*
X8711786Y-11779976D01*
X9016548Y-11599024D02*
X8921310Y-11599024D01*
X8921310Y-11599024D02*
X8911786Y-11694262D01*
X8911786Y-11694262D02*
X8921310Y-11684738D01*
X8921310Y-11684738D02*
X8940357Y-11675214D01*
X8940357Y-11675214D02*
X8987976Y-11675214D01*
X8987976Y-11675214D02*
X9007024Y-11684738D01*
X9007024Y-11684738D02*
X9016548Y-11694262D01*
X9016548Y-11694262D02*
X9026071Y-11713309D01*
X9026071Y-11713309D02*
X9026071Y-11760928D01*
X9026071Y-11760928D02*
X9016548Y-11779976D01*
X9016548Y-11779976D02*
X9007024Y-11789500D01*
X9007024Y-11789500D02*
X8987976Y-11799024D01*
X8987976Y-11799024D02*
X8940357Y-11799024D01*
X8940357Y-11799024D02*
X8921310Y-11789500D01*
X8921310Y-11789500D02*
X8911786Y-11779976D01*
X9149881Y-11599024D02*
X9168929Y-11599024D01*
X9168929Y-11599024D02*
X9187976Y-11608548D01*
X9187976Y-11608548D02*
X9197500Y-11618071D01*
X9197500Y-11618071D02*
X9207024Y-11637119D01*
X9207024Y-11637119D02*
X9216548Y-11675214D01*
X9216548Y-11675214D02*
X9216548Y-11722833D01*
X9216548Y-11722833D02*
X9207024Y-11760928D01*
X9207024Y-11760928D02*
X9197500Y-11779976D01*
X9197500Y-11779976D02*
X9187976Y-11789500D01*
X9187976Y-11789500D02*
X9168929Y-11799024D01*
X9168929Y-11799024D02*
X9149881Y-11799024D01*
X9149881Y-11799024D02*
X9130833Y-11789500D01*
X9130833Y-11789500D02*
X9121310Y-11779976D01*
X9121310Y-11779976D02*
X9111786Y-11760928D01*
X9111786Y-11760928D02*
X9102262Y-11722833D01*
X9102262Y-11722833D02*
X9102262Y-11675214D01*
X9102262Y-11675214D02*
X9111786Y-11637119D01*
X9111786Y-11637119D02*
X9121310Y-11618071D01*
X9121310Y-11618071D02*
X9130833Y-11608548D01*
X9130833Y-11608548D02*
X9149881Y-11599024D01*
X9302262Y-11799024D02*
X9302262Y-11665690D01*
X9302262Y-11684738D02*
X9311786Y-11675214D01*
X9311786Y-11675214D02*
X9330833Y-11665690D01*
X9330833Y-11665690D02*
X9359405Y-11665690D01*
X9359405Y-11665690D02*
X9378452Y-11675214D01*
X9378452Y-11675214D02*
X9387976Y-11694262D01*
X9387976Y-11694262D02*
X9387976Y-11799024D01*
X9387976Y-11694262D02*
X9397500Y-11675214D01*
X9397500Y-11675214D02*
X9416548Y-11665690D01*
X9416548Y-11665690D02*
X9445119Y-11665690D01*
X9445119Y-11665690D02*
X9464167Y-11675214D01*
X9464167Y-11675214D02*
X9473691Y-11694262D01*
X9473691Y-11694262D02*
X9473691Y-11799024D01*
X9568929Y-11799024D02*
X9568929Y-11665690D01*
X9568929Y-11684738D02*
X9578452Y-11675214D01*
X9578452Y-11675214D02*
X9597500Y-11665690D01*
X9597500Y-11665690D02*
X9626072Y-11665690D01*
X9626072Y-11665690D02*
X9645119Y-11675214D01*
X9645119Y-11675214D02*
X9654643Y-11694262D01*
X9654643Y-11694262D02*
X9654643Y-11799024D01*
X9654643Y-11694262D02*
X9664167Y-11675214D01*
X9664167Y-11675214D02*
X9683214Y-11665690D01*
X9683214Y-11665690D02*
X9711786Y-11665690D01*
X9711786Y-11665690D02*
X9730833Y-11675214D01*
X9730833Y-11675214D02*
X9740357Y-11694262D01*
X9740357Y-11694262D02*
X9740357Y-11799024D01*
X10130833Y-11589500D02*
X9959405Y-11846643D01*
X10387976Y-11599024D02*
X10407024Y-11599024D01*
X10407024Y-11599024D02*
X10426072Y-11608548D01*
X10426072Y-11608548D02*
X10435595Y-11618071D01*
X10435595Y-11618071D02*
X10445119Y-11637119D01*
X10445119Y-11637119D02*
X10454643Y-11675214D01*
X10454643Y-11675214D02*
X10454643Y-11722833D01*
X10454643Y-11722833D02*
X10445119Y-11760928D01*
X10445119Y-11760928D02*
X10435595Y-11779976D01*
X10435595Y-11779976D02*
X10426072Y-11789500D01*
X10426072Y-11789500D02*
X10407024Y-11799024D01*
X10407024Y-11799024D02*
X10387976Y-11799024D01*
X10387976Y-11799024D02*
X10368929Y-11789500D01*
X10368929Y-11789500D02*
X10359405Y-11779976D01*
X10359405Y-11779976D02*
X10349881Y-11760928D01*
X10349881Y-11760928D02*
X10340357Y-11722833D01*
X10340357Y-11722833D02*
X10340357Y-11675214D01*
X10340357Y-11675214D02*
X10349881Y-11637119D01*
X10349881Y-11637119D02*
X10359405Y-11618071D01*
X10359405Y-11618071D02*
X10368929Y-11608548D01*
X10368929Y-11608548D02*
X10387976Y-11599024D01*
X10540357Y-11779976D02*
X10549881Y-11789500D01*
X10549881Y-11789500D02*
X10540357Y-11799024D01*
X10540357Y-11799024D02*
X10530834Y-11789500D01*
X10530834Y-11789500D02*
X10540357Y-11779976D01*
X10540357Y-11779976D02*
X10540357Y-11799024D01*
X10673691Y-11599024D02*
X10692738Y-11599024D01*
X10692738Y-11599024D02*
X10711786Y-11608548D01*
X10711786Y-11608548D02*
X10721310Y-11618071D01*
X10721310Y-11618071D02*
X10730834Y-11637119D01*
X10730834Y-11637119D02*
X10740357Y-11675214D01*
X10740357Y-11675214D02*
X10740357Y-11722833D01*
X10740357Y-11722833D02*
X10730834Y-11760928D01*
X10730834Y-11760928D02*
X10721310Y-11779976D01*
X10721310Y-11779976D02*
X10711786Y-11789500D01*
X10711786Y-11789500D02*
X10692738Y-11799024D01*
X10692738Y-11799024D02*
X10673691Y-11799024D01*
X10673691Y-11799024D02*
X10654643Y-11789500D01*
X10654643Y-11789500D02*
X10645119Y-11779976D01*
X10645119Y-11779976D02*
X10635595Y-11760928D01*
X10635595Y-11760928D02*
X10626072Y-11722833D01*
X10626072Y-11722833D02*
X10626072Y-11675214D01*
X10626072Y-11675214D02*
X10635595Y-11637119D01*
X10635595Y-11637119D02*
X10645119Y-11618071D01*
X10645119Y-11618071D02*
X10654643Y-11608548D01*
X10654643Y-11608548D02*
X10673691Y-11599024D01*
X10930834Y-11799024D02*
X10816548Y-11799024D01*
X10873691Y-11799024D02*
X10873691Y-11599024D01*
X10873691Y-11599024D02*
X10854643Y-11627595D01*
X10854643Y-11627595D02*
X10835595Y-11646643D01*
X10835595Y-11646643D02*
X10816548Y-11656167D01*
X10997500Y-11599024D02*
X11121310Y-11599024D01*
X11121310Y-11599024D02*
X11054643Y-11675214D01*
X11054643Y-11675214D02*
X11083215Y-11675214D01*
X11083215Y-11675214D02*
X11102262Y-11684738D01*
X11102262Y-11684738D02*
X11111786Y-11694262D01*
X11111786Y-11694262D02*
X11121310Y-11713309D01*
X11121310Y-11713309D02*
X11121310Y-11760928D01*
X11121310Y-11760928D02*
X11111786Y-11779976D01*
X11111786Y-11779976D02*
X11102262Y-11789500D01*
X11102262Y-11789500D02*
X11083215Y-11799024D01*
X11083215Y-11799024D02*
X11026072Y-11799024D01*
X11026072Y-11799024D02*
X11007024Y-11789500D01*
X11007024Y-11789500D02*
X10997500Y-11779976D01*
X11235595Y-11684738D02*
X11216548Y-11675214D01*
X11216548Y-11675214D02*
X11207024Y-11665690D01*
X11207024Y-11665690D02*
X11197500Y-11646643D01*
X11197500Y-11646643D02*
X11197500Y-11637119D01*
X11197500Y-11637119D02*
X11207024Y-11618071D01*
X11207024Y-11618071D02*
X11216548Y-11608548D01*
X11216548Y-11608548D02*
X11235595Y-11599024D01*
X11235595Y-11599024D02*
X11273691Y-11599024D01*
X11273691Y-11599024D02*
X11292738Y-11608548D01*
X11292738Y-11608548D02*
X11302262Y-11618071D01*
X11302262Y-11618071D02*
X11311786Y-11637119D01*
X11311786Y-11637119D02*
X11311786Y-11646643D01*
X11311786Y-11646643D02*
X11302262Y-11665690D01*
X11302262Y-11665690D02*
X11292738Y-11675214D01*
X11292738Y-11675214D02*
X11273691Y-11684738D01*
X11273691Y-11684738D02*
X11235595Y-11684738D01*
X11235595Y-11684738D02*
X11216548Y-11694262D01*
X11216548Y-11694262D02*
X11207024Y-11703786D01*
X11207024Y-11703786D02*
X11197500Y-11722833D01*
X11197500Y-11722833D02*
X11197500Y-11760928D01*
X11197500Y-11760928D02*
X11207024Y-11779976D01*
X11207024Y-11779976D02*
X11216548Y-11789500D01*
X11216548Y-11789500D02*
X11235595Y-11799024D01*
X11235595Y-11799024D02*
X11273691Y-11799024D01*
X11273691Y-11799024D02*
X11292738Y-11789500D01*
X11292738Y-11789500D02*
X11302262Y-11779976D01*
X11302262Y-11779976D02*
X11311786Y-11760928D01*
X11311786Y-11760928D02*
X11311786Y-11722833D01*
X11311786Y-11722833D02*
X11302262Y-11703786D01*
X11302262Y-11703786D02*
X11292738Y-11694262D01*
X11292738Y-11694262D02*
X11273691Y-11684738D01*
X11387976Y-11599024D02*
X11387976Y-11637119D01*
X11464167Y-11599024D02*
X11464167Y-11637119D01*
X11759405Y-11875214D02*
X11749881Y-11865690D01*
X11749881Y-11865690D02*
X11730834Y-11837119D01*
X11730834Y-11837119D02*
X11721310Y-11818071D01*
X11721310Y-11818071D02*
X11711786Y-11789500D01*
X11711786Y-11789500D02*
X11702262Y-11741881D01*
X11702262Y-11741881D02*
X11702262Y-11703786D01*
X11702262Y-11703786D02*
X11711786Y-11656167D01*
X11711786Y-11656167D02*
X11721310Y-11627595D01*
X11721310Y-11627595D02*
X11730834Y-11608548D01*
X11730834Y-11608548D02*
X11749881Y-11579976D01*
X11749881Y-11579976D02*
X11759405Y-11570452D01*
X11845119Y-11799024D02*
X11883214Y-11799024D01*
X11883214Y-11799024D02*
X11902262Y-11789500D01*
X11902262Y-11789500D02*
X11911786Y-11779976D01*
X11911786Y-11779976D02*
X11930834Y-11751405D01*
X11930834Y-11751405D02*
X11940357Y-11713309D01*
X11940357Y-11713309D02*
X11940357Y-11637119D01*
X11940357Y-11637119D02*
X11930834Y-11618071D01*
X11930834Y-11618071D02*
X11921310Y-11608548D01*
X11921310Y-11608548D02*
X11902262Y-11599024D01*
X11902262Y-11599024D02*
X11864167Y-11599024D01*
X11864167Y-11599024D02*
X11845119Y-11608548D01*
X11845119Y-11608548D02*
X11835595Y-11618071D01*
X11835595Y-11618071D02*
X11826072Y-11637119D01*
X11826072Y-11637119D02*
X11826072Y-11684738D01*
X11826072Y-11684738D02*
X11835595Y-11703786D01*
X11835595Y-11703786D02*
X11845119Y-11713309D01*
X11845119Y-11713309D02*
X11864167Y-11722833D01*
X11864167Y-11722833D02*
X11902262Y-11722833D01*
X11902262Y-11722833D02*
X11921310Y-11713309D01*
X11921310Y-11713309D02*
X11930834Y-11703786D01*
X11930834Y-11703786D02*
X11940357Y-11684738D01*
X12178453Y-11799024D02*
X12178453Y-11599024D01*
X12264167Y-11799024D02*
X12264167Y-11694262D01*
X12264167Y-11694262D02*
X12254643Y-11675214D01*
X12254643Y-11675214D02*
X12235596Y-11665690D01*
X12235596Y-11665690D02*
X12207024Y-11665690D01*
X12207024Y-11665690D02*
X12187976Y-11675214D01*
X12187976Y-11675214D02*
X12178453Y-11684738D01*
X12387976Y-11799024D02*
X12368929Y-11789500D01*
X12368929Y-11789500D02*
X12359405Y-11779976D01*
X12359405Y-11779976D02*
X12349881Y-11760928D01*
X12349881Y-11760928D02*
X12349881Y-11703786D01*
X12349881Y-11703786D02*
X12359405Y-11684738D01*
X12359405Y-11684738D02*
X12368929Y-11675214D01*
X12368929Y-11675214D02*
X12387976Y-11665690D01*
X12387976Y-11665690D02*
X12416548Y-11665690D01*
X12416548Y-11665690D02*
X12435596Y-11675214D01*
X12435596Y-11675214D02*
X12445119Y-11684738D01*
X12445119Y-11684738D02*
X12454643Y-11703786D01*
X12454643Y-11703786D02*
X12454643Y-11760928D01*
X12454643Y-11760928D02*
X12445119Y-11779976D01*
X12445119Y-11779976D02*
X12435596Y-11789500D01*
X12435596Y-11789500D02*
X12416548Y-11799024D01*
X12416548Y-11799024D02*
X12387976Y-11799024D01*
X12568929Y-11799024D02*
X12549881Y-11789500D01*
X12549881Y-11789500D02*
X12540357Y-11770452D01*
X12540357Y-11770452D02*
X12540357Y-11599024D01*
X12721310Y-11789500D02*
X12702262Y-11799024D01*
X12702262Y-11799024D02*
X12664167Y-11799024D01*
X12664167Y-11799024D02*
X12645119Y-11789500D01*
X12645119Y-11789500D02*
X12635596Y-11770452D01*
X12635596Y-11770452D02*
X12635596Y-11694262D01*
X12635596Y-11694262D02*
X12645119Y-11675214D01*
X12645119Y-11675214D02*
X12664167Y-11665690D01*
X12664167Y-11665690D02*
X12702262Y-11665690D01*
X12702262Y-11665690D02*
X12721310Y-11675214D01*
X12721310Y-11675214D02*
X12730834Y-11694262D01*
X12730834Y-11694262D02*
X12730834Y-11713309D01*
X12730834Y-11713309D02*
X12635596Y-11732357D01*
X12807024Y-11789500D02*
X12826072Y-11799024D01*
X12826072Y-11799024D02*
X12864167Y-11799024D01*
X12864167Y-11799024D02*
X12883215Y-11789500D01*
X12883215Y-11789500D02*
X12892738Y-11770452D01*
X12892738Y-11770452D02*
X12892738Y-11760928D01*
X12892738Y-11760928D02*
X12883215Y-11741881D01*
X12883215Y-11741881D02*
X12864167Y-11732357D01*
X12864167Y-11732357D02*
X12835596Y-11732357D01*
X12835596Y-11732357D02*
X12816548Y-11722833D01*
X12816548Y-11722833D02*
X12807024Y-11703786D01*
X12807024Y-11703786D02*
X12807024Y-11694262D01*
X12807024Y-11694262D02*
X12816548Y-11675214D01*
X12816548Y-11675214D02*
X12835596Y-11665690D01*
X12835596Y-11665690D02*
X12864167Y-11665690D01*
X12864167Y-11665690D02*
X12883215Y-11675214D01*
X12959405Y-11875214D02*
X12968929Y-11865690D01*
X12968929Y-11865690D02*
X12987977Y-11837119D01*
X12987977Y-11837119D02*
X12997500Y-11818071D01*
X12997500Y-11818071D02*
X13007024Y-11789500D01*
X13007024Y-11789500D02*
X13016548Y-11741881D01*
X13016548Y-11741881D02*
X13016548Y-11703786D01*
X13016548Y-11703786D02*
X13007024Y-11656167D01*
X13007024Y-11656167D02*
X12997500Y-11627595D01*
X12997500Y-11627595D02*
X12987977Y-11608548D01*
X12987977Y-11608548D02*
X12968929Y-11579976D01*
X12968929Y-11579976D02*
X12959405Y-11570452D01*
D13*
X8167500Y-11940500D02*
X8167500Y-12000500D01*
X8137500Y-11970500D02*
X8197500Y-11970500D01*
D11*
X8483214Y-11863024D02*
X8502262Y-11863024D01*
X8502262Y-11863024D02*
X8521310Y-11872548D01*
X8521310Y-11872548D02*
X8530833Y-11882071D01*
X8530833Y-11882071D02*
X8540357Y-11901119D01*
X8540357Y-11901119D02*
X8549881Y-11939214D01*
X8549881Y-11939214D02*
X8549881Y-11986833D01*
X8549881Y-11986833D02*
X8540357Y-12024928D01*
X8540357Y-12024928D02*
X8530833Y-12043976D01*
X8530833Y-12043976D02*
X8521310Y-12053500D01*
X8521310Y-12053500D02*
X8502262Y-12063024D01*
X8502262Y-12063024D02*
X8483214Y-12063024D01*
X8483214Y-12063024D02*
X8464167Y-12053500D01*
X8464167Y-12053500D02*
X8454643Y-12043976D01*
X8454643Y-12043976D02*
X8445119Y-12024928D01*
X8445119Y-12024928D02*
X8435595Y-11986833D01*
X8435595Y-11986833D02*
X8435595Y-11939214D01*
X8435595Y-11939214D02*
X8445119Y-11901119D01*
X8445119Y-11901119D02*
X8454643Y-11882071D01*
X8454643Y-11882071D02*
X8464167Y-11872548D01*
X8464167Y-11872548D02*
X8483214Y-11863024D01*
X8635595Y-12043976D02*
X8645119Y-12053500D01*
X8645119Y-12053500D02*
X8635595Y-12063024D01*
X8635595Y-12063024D02*
X8626071Y-12053500D01*
X8626071Y-12053500D02*
X8635595Y-12043976D01*
X8635595Y-12043976D02*
X8635595Y-12063024D01*
X8816548Y-11863024D02*
X8778452Y-11863024D01*
X8778452Y-11863024D02*
X8759405Y-11872548D01*
X8759405Y-11872548D02*
X8749881Y-11882071D01*
X8749881Y-11882071D02*
X8730833Y-11910643D01*
X8730833Y-11910643D02*
X8721310Y-11948738D01*
X8721310Y-11948738D02*
X8721310Y-12024928D01*
X8721310Y-12024928D02*
X8730833Y-12043976D01*
X8730833Y-12043976D02*
X8740357Y-12053500D01*
X8740357Y-12053500D02*
X8759405Y-12063024D01*
X8759405Y-12063024D02*
X8797500Y-12063024D01*
X8797500Y-12063024D02*
X8816548Y-12053500D01*
X8816548Y-12053500D02*
X8826071Y-12043976D01*
X8826071Y-12043976D02*
X8835595Y-12024928D01*
X8835595Y-12024928D02*
X8835595Y-11977309D01*
X8835595Y-11977309D02*
X8826071Y-11958262D01*
X8826071Y-11958262D02*
X8816548Y-11948738D01*
X8816548Y-11948738D02*
X8797500Y-11939214D01*
X8797500Y-11939214D02*
X8759405Y-11939214D01*
X8759405Y-11939214D02*
X8740357Y-11948738D01*
X8740357Y-11948738D02*
X8730833Y-11958262D01*
X8730833Y-11958262D02*
X8721310Y-11977309D01*
X8959405Y-11863024D02*
X8978452Y-11863024D01*
X8978452Y-11863024D02*
X8997500Y-11872548D01*
X8997500Y-11872548D02*
X9007024Y-11882071D01*
X9007024Y-11882071D02*
X9016548Y-11901119D01*
X9016548Y-11901119D02*
X9026071Y-11939214D01*
X9026071Y-11939214D02*
X9026071Y-11986833D01*
X9026071Y-11986833D02*
X9016548Y-12024928D01*
X9016548Y-12024928D02*
X9007024Y-12043976D01*
X9007024Y-12043976D02*
X8997500Y-12053500D01*
X8997500Y-12053500D02*
X8978452Y-12063024D01*
X8978452Y-12063024D02*
X8959405Y-12063024D01*
X8959405Y-12063024D02*
X8940357Y-12053500D01*
X8940357Y-12053500D02*
X8930833Y-12043976D01*
X8930833Y-12043976D02*
X8921310Y-12024928D01*
X8921310Y-12024928D02*
X8911786Y-11986833D01*
X8911786Y-11986833D02*
X8911786Y-11939214D01*
X8911786Y-11939214D02*
X8921310Y-11901119D01*
X8921310Y-11901119D02*
X8930833Y-11882071D01*
X8930833Y-11882071D02*
X8940357Y-11872548D01*
X8940357Y-11872548D02*
X8959405Y-11863024D01*
X9149881Y-11863024D02*
X9168929Y-11863024D01*
X9168929Y-11863024D02*
X9187976Y-11872548D01*
X9187976Y-11872548D02*
X9197500Y-11882071D01*
X9197500Y-11882071D02*
X9207024Y-11901119D01*
X9207024Y-11901119D02*
X9216548Y-11939214D01*
X9216548Y-11939214D02*
X9216548Y-11986833D01*
X9216548Y-11986833D02*
X9207024Y-12024928D01*
X9207024Y-12024928D02*
X9197500Y-12043976D01*
X9197500Y-12043976D02*
X9187976Y-12053500D01*
X9187976Y-12053500D02*
X9168929Y-12063024D01*
X9168929Y-12063024D02*
X9149881Y-12063024D01*
X9149881Y-12063024D02*
X9130833Y-12053500D01*
X9130833Y-12053500D02*
X9121310Y-12043976D01*
X9121310Y-12043976D02*
X9111786Y-12024928D01*
X9111786Y-12024928D02*
X9102262Y-11986833D01*
X9102262Y-11986833D02*
X9102262Y-11939214D01*
X9102262Y-11939214D02*
X9111786Y-11901119D01*
X9111786Y-11901119D02*
X9121310Y-11882071D01*
X9121310Y-11882071D02*
X9130833Y-11872548D01*
X9130833Y-11872548D02*
X9149881Y-11863024D01*
X9302262Y-12063024D02*
X9302262Y-11929690D01*
X9302262Y-11948738D02*
X9311786Y-11939214D01*
X9311786Y-11939214D02*
X9330833Y-11929690D01*
X9330833Y-11929690D02*
X9359405Y-11929690D01*
X9359405Y-11929690D02*
X9378452Y-11939214D01*
X9378452Y-11939214D02*
X9387976Y-11958262D01*
X9387976Y-11958262D02*
X9387976Y-12063024D01*
X9387976Y-11958262D02*
X9397500Y-11939214D01*
X9397500Y-11939214D02*
X9416548Y-11929690D01*
X9416548Y-11929690D02*
X9445119Y-11929690D01*
X9445119Y-11929690D02*
X9464167Y-11939214D01*
X9464167Y-11939214D02*
X9473691Y-11958262D01*
X9473691Y-11958262D02*
X9473691Y-12063024D01*
X9568929Y-12063024D02*
X9568929Y-11929690D01*
X9568929Y-11948738D02*
X9578452Y-11939214D01*
X9578452Y-11939214D02*
X9597500Y-11929690D01*
X9597500Y-11929690D02*
X9626072Y-11929690D01*
X9626072Y-11929690D02*
X9645119Y-11939214D01*
X9645119Y-11939214D02*
X9654643Y-11958262D01*
X9654643Y-11958262D02*
X9654643Y-12063024D01*
X9654643Y-11958262D02*
X9664167Y-11939214D01*
X9664167Y-11939214D02*
X9683214Y-11929690D01*
X9683214Y-11929690D02*
X9711786Y-11929690D01*
X9711786Y-11929690D02*
X9730833Y-11939214D01*
X9730833Y-11939214D02*
X9740357Y-11958262D01*
X9740357Y-11958262D02*
X9740357Y-12063024D01*
X10130833Y-11853500D02*
X9959405Y-12110643D01*
X10387976Y-11863024D02*
X10407024Y-11863024D01*
X10407024Y-11863024D02*
X10426072Y-11872548D01*
X10426072Y-11872548D02*
X10435595Y-11882071D01*
X10435595Y-11882071D02*
X10445119Y-11901119D01*
X10445119Y-11901119D02*
X10454643Y-11939214D01*
X10454643Y-11939214D02*
X10454643Y-11986833D01*
X10454643Y-11986833D02*
X10445119Y-12024928D01*
X10445119Y-12024928D02*
X10435595Y-12043976D01*
X10435595Y-12043976D02*
X10426072Y-12053500D01*
X10426072Y-12053500D02*
X10407024Y-12063024D01*
X10407024Y-12063024D02*
X10387976Y-12063024D01*
X10387976Y-12063024D02*
X10368929Y-12053500D01*
X10368929Y-12053500D02*
X10359405Y-12043976D01*
X10359405Y-12043976D02*
X10349881Y-12024928D01*
X10349881Y-12024928D02*
X10340357Y-11986833D01*
X10340357Y-11986833D02*
X10340357Y-11939214D01*
X10340357Y-11939214D02*
X10349881Y-11901119D01*
X10349881Y-11901119D02*
X10359405Y-11882071D01*
X10359405Y-11882071D02*
X10368929Y-11872548D01*
X10368929Y-11872548D02*
X10387976Y-11863024D01*
X10540357Y-12043976D02*
X10549881Y-12053500D01*
X10549881Y-12053500D02*
X10540357Y-12063024D01*
X10540357Y-12063024D02*
X10530834Y-12053500D01*
X10530834Y-12053500D02*
X10540357Y-12043976D01*
X10540357Y-12043976D02*
X10540357Y-12063024D01*
X10673691Y-11863024D02*
X10692738Y-11863024D01*
X10692738Y-11863024D02*
X10711786Y-11872548D01*
X10711786Y-11872548D02*
X10721310Y-11882071D01*
X10721310Y-11882071D02*
X10730834Y-11901119D01*
X10730834Y-11901119D02*
X10740357Y-11939214D01*
X10740357Y-11939214D02*
X10740357Y-11986833D01*
X10740357Y-11986833D02*
X10730834Y-12024928D01*
X10730834Y-12024928D02*
X10721310Y-12043976D01*
X10721310Y-12043976D02*
X10711786Y-12053500D01*
X10711786Y-12053500D02*
X10692738Y-12063024D01*
X10692738Y-12063024D02*
X10673691Y-12063024D01*
X10673691Y-12063024D02*
X10654643Y-12053500D01*
X10654643Y-12053500D02*
X10645119Y-12043976D01*
X10645119Y-12043976D02*
X10635595Y-12024928D01*
X10635595Y-12024928D02*
X10626072Y-11986833D01*
X10626072Y-11986833D02*
X10626072Y-11939214D01*
X10626072Y-11939214D02*
X10635595Y-11901119D01*
X10635595Y-11901119D02*
X10645119Y-11882071D01*
X10645119Y-11882071D02*
X10654643Y-11872548D01*
X10654643Y-11872548D02*
X10673691Y-11863024D01*
X10816548Y-11882071D02*
X10826072Y-11872548D01*
X10826072Y-11872548D02*
X10845119Y-11863024D01*
X10845119Y-11863024D02*
X10892738Y-11863024D01*
X10892738Y-11863024D02*
X10911786Y-11872548D01*
X10911786Y-11872548D02*
X10921310Y-11882071D01*
X10921310Y-11882071D02*
X10930834Y-11901119D01*
X10930834Y-11901119D02*
X10930834Y-11920167D01*
X10930834Y-11920167D02*
X10921310Y-11948738D01*
X10921310Y-11948738D02*
X10807024Y-12063024D01*
X10807024Y-12063024D02*
X10930834Y-12063024D01*
X10997500Y-11863024D02*
X11121310Y-11863024D01*
X11121310Y-11863024D02*
X11054643Y-11939214D01*
X11054643Y-11939214D02*
X11083215Y-11939214D01*
X11083215Y-11939214D02*
X11102262Y-11948738D01*
X11102262Y-11948738D02*
X11111786Y-11958262D01*
X11111786Y-11958262D02*
X11121310Y-11977309D01*
X11121310Y-11977309D02*
X11121310Y-12024928D01*
X11121310Y-12024928D02*
X11111786Y-12043976D01*
X11111786Y-12043976D02*
X11102262Y-12053500D01*
X11102262Y-12053500D02*
X11083215Y-12063024D01*
X11083215Y-12063024D02*
X11026072Y-12063024D01*
X11026072Y-12063024D02*
X11007024Y-12053500D01*
X11007024Y-12053500D02*
X10997500Y-12043976D01*
X11292738Y-11863024D02*
X11254643Y-11863024D01*
X11254643Y-11863024D02*
X11235595Y-11872548D01*
X11235595Y-11872548D02*
X11226072Y-11882071D01*
X11226072Y-11882071D02*
X11207024Y-11910643D01*
X11207024Y-11910643D02*
X11197500Y-11948738D01*
X11197500Y-11948738D02*
X11197500Y-12024928D01*
X11197500Y-12024928D02*
X11207024Y-12043976D01*
X11207024Y-12043976D02*
X11216548Y-12053500D01*
X11216548Y-12053500D02*
X11235595Y-12063024D01*
X11235595Y-12063024D02*
X11273691Y-12063024D01*
X11273691Y-12063024D02*
X11292738Y-12053500D01*
X11292738Y-12053500D02*
X11302262Y-12043976D01*
X11302262Y-12043976D02*
X11311786Y-12024928D01*
X11311786Y-12024928D02*
X11311786Y-11977309D01*
X11311786Y-11977309D02*
X11302262Y-11958262D01*
X11302262Y-11958262D02*
X11292738Y-11948738D01*
X11292738Y-11948738D02*
X11273691Y-11939214D01*
X11273691Y-11939214D02*
X11235595Y-11939214D01*
X11235595Y-11939214D02*
X11216548Y-11948738D01*
X11216548Y-11948738D02*
X11207024Y-11958262D01*
X11207024Y-11958262D02*
X11197500Y-11977309D01*
X11387976Y-11863024D02*
X11387976Y-11901119D01*
X11464167Y-11863024D02*
X11464167Y-11901119D01*
X11759405Y-12139214D02*
X11749881Y-12129690D01*
X11749881Y-12129690D02*
X11730834Y-12101119D01*
X11730834Y-12101119D02*
X11721310Y-12082071D01*
X11721310Y-12082071D02*
X11711786Y-12053500D01*
X11711786Y-12053500D02*
X11702262Y-12005881D01*
X11702262Y-12005881D02*
X11702262Y-11967786D01*
X11702262Y-11967786D02*
X11711786Y-11920167D01*
X11711786Y-11920167D02*
X11721310Y-11891595D01*
X11721310Y-11891595D02*
X11730834Y-11872548D01*
X11730834Y-11872548D02*
X11749881Y-11843976D01*
X11749881Y-11843976D02*
X11759405Y-11834452D01*
X11873691Y-11863024D02*
X11892738Y-11863024D01*
X11892738Y-11863024D02*
X11911786Y-11872548D01*
X11911786Y-11872548D02*
X11921310Y-11882071D01*
X11921310Y-11882071D02*
X11930834Y-11901119D01*
X11930834Y-11901119D02*
X11940357Y-11939214D01*
X11940357Y-11939214D02*
X11940357Y-11986833D01*
X11940357Y-11986833D02*
X11930834Y-12024928D01*
X11930834Y-12024928D02*
X11921310Y-12043976D01*
X11921310Y-12043976D02*
X11911786Y-12053500D01*
X11911786Y-12053500D02*
X11892738Y-12063024D01*
X11892738Y-12063024D02*
X11873691Y-12063024D01*
X11873691Y-12063024D02*
X11854643Y-12053500D01*
X11854643Y-12053500D02*
X11845119Y-12043976D01*
X11845119Y-12043976D02*
X11835595Y-12024928D01*
X11835595Y-12024928D02*
X11826072Y-11986833D01*
X11826072Y-11986833D02*
X11826072Y-11939214D01*
X11826072Y-11939214D02*
X11835595Y-11901119D01*
X11835595Y-11901119D02*
X11845119Y-11882071D01*
X11845119Y-11882071D02*
X11854643Y-11872548D01*
X11854643Y-11872548D02*
X11873691Y-11863024D01*
X12178453Y-12063024D02*
X12178453Y-11863024D01*
X12264167Y-12063024D02*
X12264167Y-11958262D01*
X12264167Y-11958262D02*
X12254643Y-11939214D01*
X12254643Y-11939214D02*
X12235596Y-11929690D01*
X12235596Y-11929690D02*
X12207024Y-11929690D01*
X12207024Y-11929690D02*
X12187976Y-11939214D01*
X12187976Y-11939214D02*
X12178453Y-11948738D01*
X12387976Y-12063024D02*
X12368929Y-12053500D01*
X12368929Y-12053500D02*
X12359405Y-12043976D01*
X12359405Y-12043976D02*
X12349881Y-12024928D01*
X12349881Y-12024928D02*
X12349881Y-11967786D01*
X12349881Y-11967786D02*
X12359405Y-11948738D01*
X12359405Y-11948738D02*
X12368929Y-11939214D01*
X12368929Y-11939214D02*
X12387976Y-11929690D01*
X12387976Y-11929690D02*
X12416548Y-11929690D01*
X12416548Y-11929690D02*
X12435596Y-11939214D01*
X12435596Y-11939214D02*
X12445119Y-11948738D01*
X12445119Y-11948738D02*
X12454643Y-11967786D01*
X12454643Y-11967786D02*
X12454643Y-12024928D01*
X12454643Y-12024928D02*
X12445119Y-12043976D01*
X12445119Y-12043976D02*
X12435596Y-12053500D01*
X12435596Y-12053500D02*
X12416548Y-12063024D01*
X12416548Y-12063024D02*
X12387976Y-12063024D01*
X12568929Y-12063024D02*
X12549881Y-12053500D01*
X12549881Y-12053500D02*
X12540357Y-12034452D01*
X12540357Y-12034452D02*
X12540357Y-11863024D01*
X12721310Y-12053500D02*
X12702262Y-12063024D01*
X12702262Y-12063024D02*
X12664167Y-12063024D01*
X12664167Y-12063024D02*
X12645119Y-12053500D01*
X12645119Y-12053500D02*
X12635596Y-12034452D01*
X12635596Y-12034452D02*
X12635596Y-11958262D01*
X12635596Y-11958262D02*
X12645119Y-11939214D01*
X12645119Y-11939214D02*
X12664167Y-11929690D01*
X12664167Y-11929690D02*
X12702262Y-11929690D01*
X12702262Y-11929690D02*
X12721310Y-11939214D01*
X12721310Y-11939214D02*
X12730834Y-11958262D01*
X12730834Y-11958262D02*
X12730834Y-11977309D01*
X12730834Y-11977309D02*
X12635596Y-11996357D01*
X12807024Y-12053500D02*
X12826072Y-12063024D01*
X12826072Y-12063024D02*
X12864167Y-12063024D01*
X12864167Y-12063024D02*
X12883215Y-12053500D01*
X12883215Y-12053500D02*
X12892738Y-12034452D01*
X12892738Y-12034452D02*
X12892738Y-12024928D01*
X12892738Y-12024928D02*
X12883215Y-12005881D01*
X12883215Y-12005881D02*
X12864167Y-11996357D01*
X12864167Y-11996357D02*
X12835596Y-11996357D01*
X12835596Y-11996357D02*
X12816548Y-11986833D01*
X12816548Y-11986833D02*
X12807024Y-11967786D01*
X12807024Y-11967786D02*
X12807024Y-11958262D01*
X12807024Y-11958262D02*
X12816548Y-11939214D01*
X12816548Y-11939214D02*
X12835596Y-11929690D01*
X12835596Y-11929690D02*
X12864167Y-11929690D01*
X12864167Y-11929690D02*
X12883215Y-11939214D01*
X13130834Y-11986833D02*
X13283215Y-11986833D01*
X13207024Y-12063024D02*
X13207024Y-11910643D01*
X13616548Y-11929690D02*
X13616548Y-12063024D01*
X13568929Y-11853500D02*
X13521310Y-11996357D01*
X13521310Y-11996357D02*
X13645119Y-11996357D01*
X13864167Y-12053500D02*
X13883215Y-12063024D01*
X13883215Y-12063024D02*
X13921310Y-12063024D01*
X13921310Y-12063024D02*
X13940358Y-12053500D01*
X13940358Y-12053500D02*
X13949881Y-12034452D01*
X13949881Y-12034452D02*
X13949881Y-12024928D01*
X13949881Y-12024928D02*
X13940358Y-12005881D01*
X13940358Y-12005881D02*
X13921310Y-11996357D01*
X13921310Y-11996357D02*
X13892739Y-11996357D01*
X13892739Y-11996357D02*
X13873691Y-11986833D01*
X13873691Y-11986833D02*
X13864167Y-11967786D01*
X13864167Y-11967786D02*
X13864167Y-11958262D01*
X13864167Y-11958262D02*
X13873691Y-11939214D01*
X13873691Y-11939214D02*
X13892739Y-11929690D01*
X13892739Y-11929690D02*
X13921310Y-11929690D01*
X13921310Y-11929690D02*
X13940358Y-11939214D01*
X14064167Y-12063024D02*
X14045120Y-12053500D01*
X14045120Y-12053500D02*
X14035596Y-12034452D01*
X14035596Y-12034452D02*
X14035596Y-11863024D01*
X14168929Y-12063024D02*
X14149881Y-12053500D01*
X14149881Y-12053500D02*
X14140358Y-12043976D01*
X14140358Y-12043976D02*
X14130834Y-12024928D01*
X14130834Y-12024928D02*
X14130834Y-11967786D01*
X14130834Y-11967786D02*
X14140358Y-11948738D01*
X14140358Y-11948738D02*
X14149881Y-11939214D01*
X14149881Y-11939214D02*
X14168929Y-11929690D01*
X14168929Y-11929690D02*
X14197501Y-11929690D01*
X14197501Y-11929690D02*
X14216548Y-11939214D01*
X14216548Y-11939214D02*
X14226072Y-11948738D01*
X14226072Y-11948738D02*
X14235596Y-11967786D01*
X14235596Y-11967786D02*
X14235596Y-12024928D01*
X14235596Y-12024928D02*
X14226072Y-12043976D01*
X14226072Y-12043976D02*
X14216548Y-12053500D01*
X14216548Y-12053500D02*
X14197501Y-12063024D01*
X14197501Y-12063024D02*
X14168929Y-12063024D01*
X14292739Y-11929690D02*
X14368929Y-11929690D01*
X14321310Y-11863024D02*
X14321310Y-12034452D01*
X14321310Y-12034452D02*
X14330834Y-12053500D01*
X14330834Y-12053500D02*
X14349881Y-12063024D01*
X14349881Y-12063024D02*
X14368929Y-12063024D01*
X14426072Y-12053500D02*
X14445120Y-12063024D01*
X14445120Y-12063024D02*
X14483215Y-12063024D01*
X14483215Y-12063024D02*
X14502262Y-12053500D01*
X14502262Y-12053500D02*
X14511786Y-12034452D01*
X14511786Y-12034452D02*
X14511786Y-12024928D01*
X14511786Y-12024928D02*
X14502262Y-12005881D01*
X14502262Y-12005881D02*
X14483215Y-11996357D01*
X14483215Y-11996357D02*
X14454643Y-11996357D01*
X14454643Y-11996357D02*
X14435596Y-11986833D01*
X14435596Y-11986833D02*
X14426072Y-11967786D01*
X14426072Y-11967786D02*
X14426072Y-11958262D01*
X14426072Y-11958262D02*
X14435596Y-11939214D01*
X14435596Y-11939214D02*
X14454643Y-11929690D01*
X14454643Y-11929690D02*
X14483215Y-11929690D01*
X14483215Y-11929690D02*
X14502262Y-11939214D01*
X14578453Y-12139214D02*
X14587977Y-12129690D01*
X14587977Y-12129690D02*
X14607024Y-12101119D01*
X14607024Y-12101119D02*
X14616548Y-12082071D01*
X14616548Y-12082071D02*
X14626072Y-12053500D01*
X14626072Y-12053500D02*
X14635596Y-12005881D01*
X14635596Y-12005881D02*
X14635596Y-11967786D01*
X14635596Y-11967786D02*
X14626072Y-11920167D01*
X14626072Y-11920167D02*
X14616548Y-11891595D01*
X14616548Y-11891595D02*
X14607024Y-11872548D01*
X14607024Y-11872548D02*
X14587977Y-11843976D01*
X14587977Y-11843976D02*
X14578453Y-11834452D01*
D14*
X8184320Y-12266320D02*
X8184320Y-12202680D01*
X8120680Y-12202680D01*
X8120680Y-12266320D01*
X8184320Y-12266320D01*
D11*
X8483214Y-12127024D02*
X8502262Y-12127024D01*
X8502262Y-12127024D02*
X8521310Y-12136548D01*
X8521310Y-12136548D02*
X8530833Y-12146071D01*
X8530833Y-12146071D02*
X8540357Y-12165119D01*
X8540357Y-12165119D02*
X8549881Y-12203214D01*
X8549881Y-12203214D02*
X8549881Y-12250833D01*
X8549881Y-12250833D02*
X8540357Y-12288928D01*
X8540357Y-12288928D02*
X8530833Y-12307976D01*
X8530833Y-12307976D02*
X8521310Y-12317500D01*
X8521310Y-12317500D02*
X8502262Y-12327024D01*
X8502262Y-12327024D02*
X8483214Y-12327024D01*
X8483214Y-12327024D02*
X8464167Y-12317500D01*
X8464167Y-12317500D02*
X8454643Y-12307976D01*
X8454643Y-12307976D02*
X8445119Y-12288928D01*
X8445119Y-12288928D02*
X8435595Y-12250833D01*
X8435595Y-12250833D02*
X8435595Y-12203214D01*
X8435595Y-12203214D02*
X8445119Y-12165119D01*
X8445119Y-12165119D02*
X8454643Y-12146071D01*
X8454643Y-12146071D02*
X8464167Y-12136548D01*
X8464167Y-12136548D02*
X8483214Y-12127024D01*
X8635595Y-12307976D02*
X8645119Y-12317500D01*
X8645119Y-12317500D02*
X8635595Y-12327024D01*
X8635595Y-12327024D02*
X8626071Y-12317500D01*
X8626071Y-12317500D02*
X8635595Y-12307976D01*
X8635595Y-12307976D02*
X8635595Y-12327024D01*
X8740357Y-12327024D02*
X8778452Y-12327024D01*
X8778452Y-12327024D02*
X8797500Y-12317500D01*
X8797500Y-12317500D02*
X8807024Y-12307976D01*
X8807024Y-12307976D02*
X8826071Y-12279405D01*
X8826071Y-12279405D02*
X8835595Y-12241309D01*
X8835595Y-12241309D02*
X8835595Y-12165119D01*
X8835595Y-12165119D02*
X8826071Y-12146071D01*
X8826071Y-12146071D02*
X8816548Y-12136548D01*
X8816548Y-12136548D02*
X8797500Y-12127024D01*
X8797500Y-12127024D02*
X8759405Y-12127024D01*
X8759405Y-12127024D02*
X8740357Y-12136548D01*
X8740357Y-12136548D02*
X8730833Y-12146071D01*
X8730833Y-12146071D02*
X8721310Y-12165119D01*
X8721310Y-12165119D02*
X8721310Y-12212738D01*
X8721310Y-12212738D02*
X8730833Y-12231786D01*
X8730833Y-12231786D02*
X8740357Y-12241309D01*
X8740357Y-12241309D02*
X8759405Y-12250833D01*
X8759405Y-12250833D02*
X8797500Y-12250833D01*
X8797500Y-12250833D02*
X8816548Y-12241309D01*
X8816548Y-12241309D02*
X8826071Y-12231786D01*
X8826071Y-12231786D02*
X8835595Y-12212738D01*
X8959405Y-12127024D02*
X8978452Y-12127024D01*
X8978452Y-12127024D02*
X8997500Y-12136548D01*
X8997500Y-12136548D02*
X9007024Y-12146071D01*
X9007024Y-12146071D02*
X9016548Y-12165119D01*
X9016548Y-12165119D02*
X9026071Y-12203214D01*
X9026071Y-12203214D02*
X9026071Y-12250833D01*
X9026071Y-12250833D02*
X9016548Y-12288928D01*
X9016548Y-12288928D02*
X9007024Y-12307976D01*
X9007024Y-12307976D02*
X8997500Y-12317500D01*
X8997500Y-12317500D02*
X8978452Y-12327024D01*
X8978452Y-12327024D02*
X8959405Y-12327024D01*
X8959405Y-12327024D02*
X8940357Y-12317500D01*
X8940357Y-12317500D02*
X8930833Y-12307976D01*
X8930833Y-12307976D02*
X8921310Y-12288928D01*
X8921310Y-12288928D02*
X8911786Y-12250833D01*
X8911786Y-12250833D02*
X8911786Y-12203214D01*
X8911786Y-12203214D02*
X8921310Y-12165119D01*
X8921310Y-12165119D02*
X8930833Y-12146071D01*
X8930833Y-12146071D02*
X8940357Y-12136548D01*
X8940357Y-12136548D02*
X8959405Y-12127024D01*
X9149881Y-12127024D02*
X9168929Y-12127024D01*
X9168929Y-12127024D02*
X9187976Y-12136548D01*
X9187976Y-12136548D02*
X9197500Y-12146071D01*
X9197500Y-12146071D02*
X9207024Y-12165119D01*
X9207024Y-12165119D02*
X9216548Y-12203214D01*
X9216548Y-12203214D02*
X9216548Y-12250833D01*
X9216548Y-12250833D02*
X9207024Y-12288928D01*
X9207024Y-12288928D02*
X9197500Y-12307976D01*
X9197500Y-12307976D02*
X9187976Y-12317500D01*
X9187976Y-12317500D02*
X9168929Y-12327024D01*
X9168929Y-12327024D02*
X9149881Y-12327024D01*
X9149881Y-12327024D02*
X9130833Y-12317500D01*
X9130833Y-12317500D02*
X9121310Y-12307976D01*
X9121310Y-12307976D02*
X9111786Y-12288928D01*
X9111786Y-12288928D02*
X9102262Y-12250833D01*
X9102262Y-12250833D02*
X9102262Y-12203214D01*
X9102262Y-12203214D02*
X9111786Y-12165119D01*
X9111786Y-12165119D02*
X9121310Y-12146071D01*
X9121310Y-12146071D02*
X9130833Y-12136548D01*
X9130833Y-12136548D02*
X9149881Y-12127024D01*
X9302262Y-12327024D02*
X9302262Y-12193690D01*
X9302262Y-12212738D02*
X9311786Y-12203214D01*
X9311786Y-12203214D02*
X9330833Y-12193690D01*
X9330833Y-12193690D02*
X9359405Y-12193690D01*
X9359405Y-12193690D02*
X9378452Y-12203214D01*
X9378452Y-12203214D02*
X9387976Y-12222262D01*
X9387976Y-12222262D02*
X9387976Y-12327024D01*
X9387976Y-12222262D02*
X9397500Y-12203214D01*
X9397500Y-12203214D02*
X9416548Y-12193690D01*
X9416548Y-12193690D02*
X9445119Y-12193690D01*
X9445119Y-12193690D02*
X9464167Y-12203214D01*
X9464167Y-12203214D02*
X9473691Y-12222262D01*
X9473691Y-12222262D02*
X9473691Y-12327024D01*
X9568929Y-12327024D02*
X9568929Y-12193690D01*
X9568929Y-12212738D02*
X9578452Y-12203214D01*
X9578452Y-12203214D02*
X9597500Y-12193690D01*
X9597500Y-12193690D02*
X9626072Y-12193690D01*
X9626072Y-12193690D02*
X9645119Y-12203214D01*
X9645119Y-12203214D02*
X9654643Y-12222262D01*
X9654643Y-12222262D02*
X9654643Y-12327024D01*
X9654643Y-12222262D02*
X9664167Y-12203214D01*
X9664167Y-12203214D02*
X9683214Y-12193690D01*
X9683214Y-12193690D02*
X9711786Y-12193690D01*
X9711786Y-12193690D02*
X9730833Y-12203214D01*
X9730833Y-12203214D02*
X9740357Y-12222262D01*
X9740357Y-12222262D02*
X9740357Y-12327024D01*
X10130833Y-12117500D02*
X9959405Y-12374643D01*
X10387976Y-12127024D02*
X10407024Y-12127024D01*
X10407024Y-12127024D02*
X10426072Y-12136548D01*
X10426072Y-12136548D02*
X10435595Y-12146071D01*
X10435595Y-12146071D02*
X10445119Y-12165119D01*
X10445119Y-12165119D02*
X10454643Y-12203214D01*
X10454643Y-12203214D02*
X10454643Y-12250833D01*
X10454643Y-12250833D02*
X10445119Y-12288928D01*
X10445119Y-12288928D02*
X10435595Y-12307976D01*
X10435595Y-12307976D02*
X10426072Y-12317500D01*
X10426072Y-12317500D02*
X10407024Y-12327024D01*
X10407024Y-12327024D02*
X10387976Y-12327024D01*
X10387976Y-12327024D02*
X10368929Y-12317500D01*
X10368929Y-12317500D02*
X10359405Y-12307976D01*
X10359405Y-12307976D02*
X10349881Y-12288928D01*
X10349881Y-12288928D02*
X10340357Y-12250833D01*
X10340357Y-12250833D02*
X10340357Y-12203214D01*
X10340357Y-12203214D02*
X10349881Y-12165119D01*
X10349881Y-12165119D02*
X10359405Y-12146071D01*
X10359405Y-12146071D02*
X10368929Y-12136548D01*
X10368929Y-12136548D02*
X10387976Y-12127024D01*
X10540357Y-12307976D02*
X10549881Y-12317500D01*
X10549881Y-12317500D02*
X10540357Y-12327024D01*
X10540357Y-12327024D02*
X10530834Y-12317500D01*
X10530834Y-12317500D02*
X10540357Y-12307976D01*
X10540357Y-12307976D02*
X10540357Y-12327024D01*
X10673691Y-12127024D02*
X10692738Y-12127024D01*
X10692738Y-12127024D02*
X10711786Y-12136548D01*
X10711786Y-12136548D02*
X10721310Y-12146071D01*
X10721310Y-12146071D02*
X10730834Y-12165119D01*
X10730834Y-12165119D02*
X10740357Y-12203214D01*
X10740357Y-12203214D02*
X10740357Y-12250833D01*
X10740357Y-12250833D02*
X10730834Y-12288928D01*
X10730834Y-12288928D02*
X10721310Y-12307976D01*
X10721310Y-12307976D02*
X10711786Y-12317500D01*
X10711786Y-12317500D02*
X10692738Y-12327024D01*
X10692738Y-12327024D02*
X10673691Y-12327024D01*
X10673691Y-12327024D02*
X10654643Y-12317500D01*
X10654643Y-12317500D02*
X10645119Y-12307976D01*
X10645119Y-12307976D02*
X10635595Y-12288928D01*
X10635595Y-12288928D02*
X10626072Y-12250833D01*
X10626072Y-12250833D02*
X10626072Y-12203214D01*
X10626072Y-12203214D02*
X10635595Y-12165119D01*
X10635595Y-12165119D02*
X10645119Y-12146071D01*
X10645119Y-12146071D02*
X10654643Y-12136548D01*
X10654643Y-12136548D02*
X10673691Y-12127024D01*
X10807024Y-12127024D02*
X10930834Y-12127024D01*
X10930834Y-12127024D02*
X10864167Y-12203214D01*
X10864167Y-12203214D02*
X10892738Y-12203214D01*
X10892738Y-12203214D02*
X10911786Y-12212738D01*
X10911786Y-12212738D02*
X10921310Y-12222262D01*
X10921310Y-12222262D02*
X10930834Y-12241309D01*
X10930834Y-12241309D02*
X10930834Y-12288928D01*
X10930834Y-12288928D02*
X10921310Y-12307976D01*
X10921310Y-12307976D02*
X10911786Y-12317500D01*
X10911786Y-12317500D02*
X10892738Y-12327024D01*
X10892738Y-12327024D02*
X10835595Y-12327024D01*
X10835595Y-12327024D02*
X10816548Y-12317500D01*
X10816548Y-12317500D02*
X10807024Y-12307976D01*
X11111786Y-12127024D02*
X11016548Y-12127024D01*
X11016548Y-12127024D02*
X11007024Y-12222262D01*
X11007024Y-12222262D02*
X11016548Y-12212738D01*
X11016548Y-12212738D02*
X11035595Y-12203214D01*
X11035595Y-12203214D02*
X11083215Y-12203214D01*
X11083215Y-12203214D02*
X11102262Y-12212738D01*
X11102262Y-12212738D02*
X11111786Y-12222262D01*
X11111786Y-12222262D02*
X11121310Y-12241309D01*
X11121310Y-12241309D02*
X11121310Y-12288928D01*
X11121310Y-12288928D02*
X11111786Y-12307976D01*
X11111786Y-12307976D02*
X11102262Y-12317500D01*
X11102262Y-12317500D02*
X11083215Y-12327024D01*
X11083215Y-12327024D02*
X11035595Y-12327024D01*
X11035595Y-12327024D02*
X11016548Y-12317500D01*
X11016548Y-12317500D02*
X11007024Y-12307976D01*
X11292738Y-12193690D02*
X11292738Y-12327024D01*
X11245119Y-12117500D02*
X11197500Y-12260357D01*
X11197500Y-12260357D02*
X11321310Y-12260357D01*
X11387976Y-12127024D02*
X11387976Y-12165119D01*
X11464167Y-12127024D02*
X11464167Y-12165119D01*
X11759405Y-12403214D02*
X11749881Y-12393690D01*
X11749881Y-12393690D02*
X11730834Y-12365119D01*
X11730834Y-12365119D02*
X11721310Y-12346071D01*
X11721310Y-12346071D02*
X11711786Y-12317500D01*
X11711786Y-12317500D02*
X11702262Y-12269881D01*
X11702262Y-12269881D02*
X11702262Y-12231786D01*
X11702262Y-12231786D02*
X11711786Y-12184167D01*
X11711786Y-12184167D02*
X11721310Y-12155595D01*
X11721310Y-12155595D02*
X11730834Y-12136548D01*
X11730834Y-12136548D02*
X11749881Y-12107976D01*
X11749881Y-12107976D02*
X11759405Y-12098452D01*
X11921310Y-12193690D02*
X11921310Y-12327024D01*
X11873691Y-12117500D02*
X11826072Y-12260357D01*
X11826072Y-12260357D02*
X11949881Y-12260357D01*
X12178453Y-12327024D02*
X12178453Y-12127024D01*
X12264167Y-12327024D02*
X12264167Y-12222262D01*
X12264167Y-12222262D02*
X12254643Y-12203214D01*
X12254643Y-12203214D02*
X12235596Y-12193690D01*
X12235596Y-12193690D02*
X12207024Y-12193690D01*
X12207024Y-12193690D02*
X12187976Y-12203214D01*
X12187976Y-12203214D02*
X12178453Y-12212738D01*
X12387976Y-12327024D02*
X12368929Y-12317500D01*
X12368929Y-12317500D02*
X12359405Y-12307976D01*
X12359405Y-12307976D02*
X12349881Y-12288928D01*
X12349881Y-12288928D02*
X12349881Y-12231786D01*
X12349881Y-12231786D02*
X12359405Y-12212738D01*
X12359405Y-12212738D02*
X12368929Y-12203214D01*
X12368929Y-12203214D02*
X12387976Y-12193690D01*
X12387976Y-12193690D02*
X12416548Y-12193690D01*
X12416548Y-12193690D02*
X12435596Y-12203214D01*
X12435596Y-12203214D02*
X12445119Y-12212738D01*
X12445119Y-12212738D02*
X12454643Y-12231786D01*
X12454643Y-12231786D02*
X12454643Y-12288928D01*
X12454643Y-12288928D02*
X12445119Y-12307976D01*
X12445119Y-12307976D02*
X12435596Y-12317500D01*
X12435596Y-12317500D02*
X12416548Y-12327024D01*
X12416548Y-12327024D02*
X12387976Y-12327024D01*
X12568929Y-12327024D02*
X12549881Y-12317500D01*
X12549881Y-12317500D02*
X12540357Y-12298452D01*
X12540357Y-12298452D02*
X12540357Y-12127024D01*
X12721310Y-12317500D02*
X12702262Y-12327024D01*
X12702262Y-12327024D02*
X12664167Y-12327024D01*
X12664167Y-12327024D02*
X12645119Y-12317500D01*
X12645119Y-12317500D02*
X12635596Y-12298452D01*
X12635596Y-12298452D02*
X12635596Y-12222262D01*
X12635596Y-12222262D02*
X12645119Y-12203214D01*
X12645119Y-12203214D02*
X12664167Y-12193690D01*
X12664167Y-12193690D02*
X12702262Y-12193690D01*
X12702262Y-12193690D02*
X12721310Y-12203214D01*
X12721310Y-12203214D02*
X12730834Y-12222262D01*
X12730834Y-12222262D02*
X12730834Y-12241309D01*
X12730834Y-12241309D02*
X12635596Y-12260357D01*
X12807024Y-12317500D02*
X12826072Y-12327024D01*
X12826072Y-12327024D02*
X12864167Y-12327024D01*
X12864167Y-12327024D02*
X12883215Y-12317500D01*
X12883215Y-12317500D02*
X12892738Y-12298452D01*
X12892738Y-12298452D02*
X12892738Y-12288928D01*
X12892738Y-12288928D02*
X12883215Y-12269881D01*
X12883215Y-12269881D02*
X12864167Y-12260357D01*
X12864167Y-12260357D02*
X12835596Y-12260357D01*
X12835596Y-12260357D02*
X12816548Y-12250833D01*
X12816548Y-12250833D02*
X12807024Y-12231786D01*
X12807024Y-12231786D02*
X12807024Y-12222262D01*
X12807024Y-12222262D02*
X12816548Y-12203214D01*
X12816548Y-12203214D02*
X12835596Y-12193690D01*
X12835596Y-12193690D02*
X12864167Y-12193690D01*
X12864167Y-12193690D02*
X12883215Y-12203214D01*
X12959405Y-12403214D02*
X12968929Y-12393690D01*
X12968929Y-12393690D02*
X12987977Y-12365119D01*
X12987977Y-12365119D02*
X12997500Y-12346071D01*
X12997500Y-12346071D02*
X13007024Y-12317500D01*
X13007024Y-12317500D02*
X13016548Y-12269881D01*
X13016548Y-12269881D02*
X13016548Y-12231786D01*
X13016548Y-12231786D02*
X13007024Y-12184167D01*
X13007024Y-12184167D02*
X12997500Y-12155595D01*
X12997500Y-12155595D02*
X12987977Y-12136548D01*
X12987977Y-12136548D02*
X12968929Y-12107976D01*
X12968929Y-12107976D02*
X12959405Y-12098452D01*
D15*
X8147500Y-12548500D02*
X8197500Y-12498500D01*
X8147500Y-12448500D01*
X8097500Y-12498500D01*
X8147500Y-12548500D01*
D11*
X8549881Y-12591024D02*
X8435595Y-12591024D01*
X8492738Y-12591024D02*
X8492738Y-12391024D01*
X8492738Y-12391024D02*
X8473690Y-12419595D01*
X8473690Y-12419595D02*
X8454643Y-12438643D01*
X8454643Y-12438643D02*
X8435595Y-12448167D01*
X8635595Y-12571976D02*
X8645119Y-12581500D01*
X8645119Y-12581500D02*
X8635595Y-12591024D01*
X8635595Y-12591024D02*
X8626071Y-12581500D01*
X8626071Y-12581500D02*
X8635595Y-12571976D01*
X8635595Y-12571976D02*
X8635595Y-12591024D01*
X8768929Y-12391024D02*
X8787976Y-12391024D01*
X8787976Y-12391024D02*
X8807024Y-12400548D01*
X8807024Y-12400548D02*
X8816548Y-12410071D01*
X8816548Y-12410071D02*
X8826071Y-12429119D01*
X8826071Y-12429119D02*
X8835595Y-12467214D01*
X8835595Y-12467214D02*
X8835595Y-12514833D01*
X8835595Y-12514833D02*
X8826071Y-12552928D01*
X8826071Y-12552928D02*
X8816548Y-12571976D01*
X8816548Y-12571976D02*
X8807024Y-12581500D01*
X8807024Y-12581500D02*
X8787976Y-12591024D01*
X8787976Y-12591024D02*
X8768929Y-12591024D01*
X8768929Y-12591024D02*
X8749881Y-12581500D01*
X8749881Y-12581500D02*
X8740357Y-12571976D01*
X8740357Y-12571976D02*
X8730833Y-12552928D01*
X8730833Y-12552928D02*
X8721310Y-12514833D01*
X8721310Y-12514833D02*
X8721310Y-12467214D01*
X8721310Y-12467214D02*
X8730833Y-12429119D01*
X8730833Y-12429119D02*
X8740357Y-12410071D01*
X8740357Y-12410071D02*
X8749881Y-12400548D01*
X8749881Y-12400548D02*
X8768929Y-12391024D01*
X8959405Y-12391024D02*
X8978452Y-12391024D01*
X8978452Y-12391024D02*
X8997500Y-12400548D01*
X8997500Y-12400548D02*
X9007024Y-12410071D01*
X9007024Y-12410071D02*
X9016548Y-12429119D01*
X9016548Y-12429119D02*
X9026071Y-12467214D01*
X9026071Y-12467214D02*
X9026071Y-12514833D01*
X9026071Y-12514833D02*
X9016548Y-12552928D01*
X9016548Y-12552928D02*
X9007024Y-12571976D01*
X9007024Y-12571976D02*
X8997500Y-12581500D01*
X8997500Y-12581500D02*
X8978452Y-12591024D01*
X8978452Y-12591024D02*
X8959405Y-12591024D01*
X8959405Y-12591024D02*
X8940357Y-12581500D01*
X8940357Y-12581500D02*
X8930833Y-12571976D01*
X8930833Y-12571976D02*
X8921310Y-12552928D01*
X8921310Y-12552928D02*
X8911786Y-12514833D01*
X8911786Y-12514833D02*
X8911786Y-12467214D01*
X8911786Y-12467214D02*
X8921310Y-12429119D01*
X8921310Y-12429119D02*
X8930833Y-12410071D01*
X8930833Y-12410071D02*
X8940357Y-12400548D01*
X8940357Y-12400548D02*
X8959405Y-12391024D01*
X9149881Y-12391024D02*
X9168929Y-12391024D01*
X9168929Y-12391024D02*
X9187976Y-12400548D01*
X9187976Y-12400548D02*
X9197500Y-12410071D01*
X9197500Y-12410071D02*
X9207024Y-12429119D01*
X9207024Y-12429119D02*
X9216548Y-12467214D01*
X9216548Y-12467214D02*
X9216548Y-12514833D01*
X9216548Y-12514833D02*
X9207024Y-12552928D01*
X9207024Y-12552928D02*
X9197500Y-12571976D01*
X9197500Y-12571976D02*
X9187976Y-12581500D01*
X9187976Y-12581500D02*
X9168929Y-12591024D01*
X9168929Y-12591024D02*
X9149881Y-12591024D01*
X9149881Y-12591024D02*
X9130833Y-12581500D01*
X9130833Y-12581500D02*
X9121310Y-12571976D01*
X9121310Y-12571976D02*
X9111786Y-12552928D01*
X9111786Y-12552928D02*
X9102262Y-12514833D01*
X9102262Y-12514833D02*
X9102262Y-12467214D01*
X9102262Y-12467214D02*
X9111786Y-12429119D01*
X9111786Y-12429119D02*
X9121310Y-12410071D01*
X9121310Y-12410071D02*
X9130833Y-12400548D01*
X9130833Y-12400548D02*
X9149881Y-12391024D01*
X9302262Y-12591024D02*
X9302262Y-12457690D01*
X9302262Y-12476738D02*
X9311786Y-12467214D01*
X9311786Y-12467214D02*
X9330833Y-12457690D01*
X9330833Y-12457690D02*
X9359405Y-12457690D01*
X9359405Y-12457690D02*
X9378452Y-12467214D01*
X9378452Y-12467214D02*
X9387976Y-12486262D01*
X9387976Y-12486262D02*
X9387976Y-12591024D01*
X9387976Y-12486262D02*
X9397500Y-12467214D01*
X9397500Y-12467214D02*
X9416548Y-12457690D01*
X9416548Y-12457690D02*
X9445119Y-12457690D01*
X9445119Y-12457690D02*
X9464167Y-12467214D01*
X9464167Y-12467214D02*
X9473691Y-12486262D01*
X9473691Y-12486262D02*
X9473691Y-12591024D01*
X9568929Y-12591024D02*
X9568929Y-12457690D01*
X9568929Y-12476738D02*
X9578452Y-12467214D01*
X9578452Y-12467214D02*
X9597500Y-12457690D01*
X9597500Y-12457690D02*
X9626072Y-12457690D01*
X9626072Y-12457690D02*
X9645119Y-12467214D01*
X9645119Y-12467214D02*
X9654643Y-12486262D01*
X9654643Y-12486262D02*
X9654643Y-12591024D01*
X9654643Y-12486262D02*
X9664167Y-12467214D01*
X9664167Y-12467214D02*
X9683214Y-12457690D01*
X9683214Y-12457690D02*
X9711786Y-12457690D01*
X9711786Y-12457690D02*
X9730833Y-12467214D01*
X9730833Y-12467214D02*
X9740357Y-12486262D01*
X9740357Y-12486262D02*
X9740357Y-12591024D01*
X10130833Y-12381500D02*
X9959405Y-12638643D01*
X10387976Y-12391024D02*
X10407024Y-12391024D01*
X10407024Y-12391024D02*
X10426072Y-12400548D01*
X10426072Y-12400548D02*
X10435595Y-12410071D01*
X10435595Y-12410071D02*
X10445119Y-12429119D01*
X10445119Y-12429119D02*
X10454643Y-12467214D01*
X10454643Y-12467214D02*
X10454643Y-12514833D01*
X10454643Y-12514833D02*
X10445119Y-12552928D01*
X10445119Y-12552928D02*
X10435595Y-12571976D01*
X10435595Y-12571976D02*
X10426072Y-12581500D01*
X10426072Y-12581500D02*
X10407024Y-12591024D01*
X10407024Y-12591024D02*
X10387976Y-12591024D01*
X10387976Y-12591024D02*
X10368929Y-12581500D01*
X10368929Y-12581500D02*
X10359405Y-12571976D01*
X10359405Y-12571976D02*
X10349881Y-12552928D01*
X10349881Y-12552928D02*
X10340357Y-12514833D01*
X10340357Y-12514833D02*
X10340357Y-12467214D01*
X10340357Y-12467214D02*
X10349881Y-12429119D01*
X10349881Y-12429119D02*
X10359405Y-12410071D01*
X10359405Y-12410071D02*
X10368929Y-12400548D01*
X10368929Y-12400548D02*
X10387976Y-12391024D01*
X10540357Y-12571976D02*
X10549881Y-12581500D01*
X10549881Y-12581500D02*
X10540357Y-12591024D01*
X10540357Y-12591024D02*
X10530834Y-12581500D01*
X10530834Y-12581500D02*
X10540357Y-12571976D01*
X10540357Y-12571976D02*
X10540357Y-12591024D01*
X10673691Y-12391024D02*
X10692738Y-12391024D01*
X10692738Y-12391024D02*
X10711786Y-12400548D01*
X10711786Y-12400548D02*
X10721310Y-12410071D01*
X10721310Y-12410071D02*
X10730834Y-12429119D01*
X10730834Y-12429119D02*
X10740357Y-12467214D01*
X10740357Y-12467214D02*
X10740357Y-12514833D01*
X10740357Y-12514833D02*
X10730834Y-12552928D01*
X10730834Y-12552928D02*
X10721310Y-12571976D01*
X10721310Y-12571976D02*
X10711786Y-12581500D01*
X10711786Y-12581500D02*
X10692738Y-12591024D01*
X10692738Y-12591024D02*
X10673691Y-12591024D01*
X10673691Y-12591024D02*
X10654643Y-12581500D01*
X10654643Y-12581500D02*
X10645119Y-12571976D01*
X10645119Y-12571976D02*
X10635595Y-12552928D01*
X10635595Y-12552928D02*
X10626072Y-12514833D01*
X10626072Y-12514833D02*
X10626072Y-12467214D01*
X10626072Y-12467214D02*
X10635595Y-12429119D01*
X10635595Y-12429119D02*
X10645119Y-12410071D01*
X10645119Y-12410071D02*
X10654643Y-12400548D01*
X10654643Y-12400548D02*
X10673691Y-12391024D01*
X10807024Y-12391024D02*
X10930834Y-12391024D01*
X10930834Y-12391024D02*
X10864167Y-12467214D01*
X10864167Y-12467214D02*
X10892738Y-12467214D01*
X10892738Y-12467214D02*
X10911786Y-12476738D01*
X10911786Y-12476738D02*
X10921310Y-12486262D01*
X10921310Y-12486262D02*
X10930834Y-12505309D01*
X10930834Y-12505309D02*
X10930834Y-12552928D01*
X10930834Y-12552928D02*
X10921310Y-12571976D01*
X10921310Y-12571976D02*
X10911786Y-12581500D01*
X10911786Y-12581500D02*
X10892738Y-12591024D01*
X10892738Y-12591024D02*
X10835595Y-12591024D01*
X10835595Y-12591024D02*
X10816548Y-12581500D01*
X10816548Y-12581500D02*
X10807024Y-12571976D01*
X11026072Y-12591024D02*
X11064167Y-12591024D01*
X11064167Y-12591024D02*
X11083215Y-12581500D01*
X11083215Y-12581500D02*
X11092738Y-12571976D01*
X11092738Y-12571976D02*
X11111786Y-12543405D01*
X11111786Y-12543405D02*
X11121310Y-12505309D01*
X11121310Y-12505309D02*
X11121310Y-12429119D01*
X11121310Y-12429119D02*
X11111786Y-12410071D01*
X11111786Y-12410071D02*
X11102262Y-12400548D01*
X11102262Y-12400548D02*
X11083215Y-12391024D01*
X11083215Y-12391024D02*
X11045119Y-12391024D01*
X11045119Y-12391024D02*
X11026072Y-12400548D01*
X11026072Y-12400548D02*
X11016548Y-12410071D01*
X11016548Y-12410071D02*
X11007024Y-12429119D01*
X11007024Y-12429119D02*
X11007024Y-12476738D01*
X11007024Y-12476738D02*
X11016548Y-12495786D01*
X11016548Y-12495786D02*
X11026072Y-12505309D01*
X11026072Y-12505309D02*
X11045119Y-12514833D01*
X11045119Y-12514833D02*
X11083215Y-12514833D01*
X11083215Y-12514833D02*
X11102262Y-12505309D01*
X11102262Y-12505309D02*
X11111786Y-12495786D01*
X11111786Y-12495786D02*
X11121310Y-12476738D01*
X11292738Y-12457690D02*
X11292738Y-12591024D01*
X11245119Y-12381500D02*
X11197500Y-12524357D01*
X11197500Y-12524357D02*
X11321310Y-12524357D01*
X11387976Y-12391024D02*
X11387976Y-12429119D01*
X11464167Y-12391024D02*
X11464167Y-12429119D01*
X11759405Y-12667214D02*
X11749881Y-12657690D01*
X11749881Y-12657690D02*
X11730834Y-12629119D01*
X11730834Y-12629119D02*
X11721310Y-12610071D01*
X11721310Y-12610071D02*
X11711786Y-12581500D01*
X11711786Y-12581500D02*
X11702262Y-12533881D01*
X11702262Y-12533881D02*
X11702262Y-12495786D01*
X11702262Y-12495786D02*
X11711786Y-12448167D01*
X11711786Y-12448167D02*
X11721310Y-12419595D01*
X11721310Y-12419595D02*
X11730834Y-12400548D01*
X11730834Y-12400548D02*
X11749881Y-12371976D01*
X11749881Y-12371976D02*
X11759405Y-12362452D01*
X11826072Y-12410071D02*
X11835595Y-12400548D01*
X11835595Y-12400548D02*
X11854643Y-12391024D01*
X11854643Y-12391024D02*
X11902262Y-12391024D01*
X11902262Y-12391024D02*
X11921310Y-12400548D01*
X11921310Y-12400548D02*
X11930834Y-12410071D01*
X11930834Y-12410071D02*
X11940357Y-12429119D01*
X11940357Y-12429119D02*
X11940357Y-12448167D01*
X11940357Y-12448167D02*
X11930834Y-12476738D01*
X11930834Y-12476738D02*
X11816548Y-12591024D01*
X11816548Y-12591024D02*
X11940357Y-12591024D01*
X12064167Y-12391024D02*
X12083215Y-12391024D01*
X12083215Y-12391024D02*
X12102262Y-12400548D01*
X12102262Y-12400548D02*
X12111786Y-12410071D01*
X12111786Y-12410071D02*
X12121310Y-12429119D01*
X12121310Y-12429119D02*
X12130834Y-12467214D01*
X12130834Y-12467214D02*
X12130834Y-12514833D01*
X12130834Y-12514833D02*
X12121310Y-12552928D01*
X12121310Y-12552928D02*
X12111786Y-12571976D01*
X12111786Y-12571976D02*
X12102262Y-12581500D01*
X12102262Y-12581500D02*
X12083215Y-12591024D01*
X12083215Y-12591024D02*
X12064167Y-12591024D01*
X12064167Y-12591024D02*
X12045119Y-12581500D01*
X12045119Y-12581500D02*
X12035595Y-12571976D01*
X12035595Y-12571976D02*
X12026072Y-12552928D01*
X12026072Y-12552928D02*
X12016548Y-12514833D01*
X12016548Y-12514833D02*
X12016548Y-12467214D01*
X12016548Y-12467214D02*
X12026072Y-12429119D01*
X12026072Y-12429119D02*
X12035595Y-12410071D01*
X12035595Y-12410071D02*
X12045119Y-12400548D01*
X12045119Y-12400548D02*
X12064167Y-12391024D01*
X12368929Y-12591024D02*
X12368929Y-12391024D01*
X12454643Y-12591024D02*
X12454643Y-12486262D01*
X12454643Y-12486262D02*
X12445119Y-12467214D01*
X12445119Y-12467214D02*
X12426072Y-12457690D01*
X12426072Y-12457690D02*
X12397500Y-12457690D01*
X12397500Y-12457690D02*
X12378453Y-12467214D01*
X12378453Y-12467214D02*
X12368929Y-12476738D01*
X12578453Y-12591024D02*
X12559405Y-12581500D01*
X12559405Y-12581500D02*
X12549881Y-12571976D01*
X12549881Y-12571976D02*
X12540357Y-12552928D01*
X12540357Y-12552928D02*
X12540357Y-12495786D01*
X12540357Y-12495786D02*
X12549881Y-12476738D01*
X12549881Y-12476738D02*
X12559405Y-12467214D01*
X12559405Y-12467214D02*
X12578453Y-12457690D01*
X12578453Y-12457690D02*
X12607024Y-12457690D01*
X12607024Y-12457690D02*
X12626072Y-12467214D01*
X12626072Y-12467214D02*
X12635596Y-12476738D01*
X12635596Y-12476738D02*
X12645119Y-12495786D01*
X12645119Y-12495786D02*
X12645119Y-12552928D01*
X12645119Y-12552928D02*
X12635596Y-12571976D01*
X12635596Y-12571976D02*
X12626072Y-12581500D01*
X12626072Y-12581500D02*
X12607024Y-12591024D01*
X12607024Y-12591024D02*
X12578453Y-12591024D01*
X12759405Y-12591024D02*
X12740357Y-12581500D01*
X12740357Y-12581500D02*
X12730834Y-12562452D01*
X12730834Y-12562452D02*
X12730834Y-12391024D01*
X12911786Y-12581500D02*
X12892738Y-12591024D01*
X12892738Y-12591024D02*
X12854643Y-12591024D01*
X12854643Y-12591024D02*
X12835596Y-12581500D01*
X12835596Y-12581500D02*
X12826072Y-12562452D01*
X12826072Y-12562452D02*
X12826072Y-12486262D01*
X12826072Y-12486262D02*
X12835596Y-12467214D01*
X12835596Y-12467214D02*
X12854643Y-12457690D01*
X12854643Y-12457690D02*
X12892738Y-12457690D01*
X12892738Y-12457690D02*
X12911786Y-12467214D01*
X12911786Y-12467214D02*
X12921310Y-12486262D01*
X12921310Y-12486262D02*
X12921310Y-12505309D01*
X12921310Y-12505309D02*
X12826072Y-12524357D01*
X12997500Y-12581500D02*
X13016548Y-12591024D01*
X13016548Y-12591024D02*
X13054643Y-12591024D01*
X13054643Y-12591024D02*
X13073691Y-12581500D01*
X13073691Y-12581500D02*
X13083215Y-12562452D01*
X13083215Y-12562452D02*
X13083215Y-12552928D01*
X13083215Y-12552928D02*
X13073691Y-12533881D01*
X13073691Y-12533881D02*
X13054643Y-12524357D01*
X13054643Y-12524357D02*
X13026072Y-12524357D01*
X13026072Y-12524357D02*
X13007024Y-12514833D01*
X13007024Y-12514833D02*
X12997500Y-12495786D01*
X12997500Y-12495786D02*
X12997500Y-12486262D01*
X12997500Y-12486262D02*
X13007024Y-12467214D01*
X13007024Y-12467214D02*
X13026072Y-12457690D01*
X13026072Y-12457690D02*
X13054643Y-12457690D01*
X13054643Y-12457690D02*
X13073691Y-12467214D01*
X13149881Y-12667214D02*
X13159405Y-12657690D01*
X13159405Y-12657690D02*
X13178453Y-12629119D01*
X13178453Y-12629119D02*
X13187977Y-12610071D01*
X13187977Y-12610071D02*
X13197500Y-12581500D01*
X13197500Y-12581500D02*
X13207024Y-12533881D01*
X13207024Y-12533881D02*
X13207024Y-12495786D01*
X13207024Y-12495786D02*
X13197500Y-12448167D01*
X13197500Y-12448167D02*
X13187977Y-12419595D01*
X13187977Y-12419595D02*
X13178453Y-12400548D01*
X13178453Y-12400548D02*
X13159405Y-12371976D01*
X13159405Y-12371976D02*
X13149881Y-12362452D01*
X7997500Y-12662500D02*
X8197500Y-12862500D01*
X8197500Y-12662500D02*
X7997500Y-12862500D01*
X8197500Y-12762500D02*
G75*
G03*
X8197500Y-12762500I-100000J0D01*
G01*
X8435595Y-12674071D02*
X8445119Y-12664548D01*
X8445119Y-12664548D02*
X8464167Y-12655024D01*
X8464167Y-12655024D02*
X8511786Y-12655024D01*
X8511786Y-12655024D02*
X8530833Y-12664548D01*
X8530833Y-12664548D02*
X8540357Y-12674071D01*
X8540357Y-12674071D02*
X8549881Y-12693119D01*
X8549881Y-12693119D02*
X8549881Y-12712167D01*
X8549881Y-12712167D02*
X8540357Y-12740738D01*
X8540357Y-12740738D02*
X8426071Y-12855024D01*
X8426071Y-12855024D02*
X8549881Y-12855024D01*
X8635595Y-12835976D02*
X8645119Y-12845500D01*
X8645119Y-12845500D02*
X8635595Y-12855024D01*
X8635595Y-12855024D02*
X8626071Y-12845500D01*
X8626071Y-12845500D02*
X8635595Y-12835976D01*
X8635595Y-12835976D02*
X8635595Y-12855024D01*
X8835595Y-12855024D02*
X8721310Y-12855024D01*
X8778452Y-12855024D02*
X8778452Y-12655024D01*
X8778452Y-12655024D02*
X8759405Y-12683595D01*
X8759405Y-12683595D02*
X8740357Y-12702643D01*
X8740357Y-12702643D02*
X8721310Y-12712167D01*
X8959405Y-12655024D02*
X8978452Y-12655024D01*
X8978452Y-12655024D02*
X8997500Y-12664548D01*
X8997500Y-12664548D02*
X9007024Y-12674071D01*
X9007024Y-12674071D02*
X9016548Y-12693119D01*
X9016548Y-12693119D02*
X9026071Y-12731214D01*
X9026071Y-12731214D02*
X9026071Y-12778833D01*
X9026071Y-12778833D02*
X9016548Y-12816928D01*
X9016548Y-12816928D02*
X9007024Y-12835976D01*
X9007024Y-12835976D02*
X8997500Y-12845500D01*
X8997500Y-12845500D02*
X8978452Y-12855024D01*
X8978452Y-12855024D02*
X8959405Y-12855024D01*
X8959405Y-12855024D02*
X8940357Y-12845500D01*
X8940357Y-12845500D02*
X8930833Y-12835976D01*
X8930833Y-12835976D02*
X8921310Y-12816928D01*
X8921310Y-12816928D02*
X8911786Y-12778833D01*
X8911786Y-12778833D02*
X8911786Y-12731214D01*
X8911786Y-12731214D02*
X8921310Y-12693119D01*
X8921310Y-12693119D02*
X8930833Y-12674071D01*
X8930833Y-12674071D02*
X8940357Y-12664548D01*
X8940357Y-12664548D02*
X8959405Y-12655024D01*
X9149881Y-12655024D02*
X9168929Y-12655024D01*
X9168929Y-12655024D02*
X9187976Y-12664548D01*
X9187976Y-12664548D02*
X9197500Y-12674071D01*
X9197500Y-12674071D02*
X9207024Y-12693119D01*
X9207024Y-12693119D02*
X9216548Y-12731214D01*
X9216548Y-12731214D02*
X9216548Y-12778833D01*
X9216548Y-12778833D02*
X9207024Y-12816928D01*
X9207024Y-12816928D02*
X9197500Y-12835976D01*
X9197500Y-12835976D02*
X9187976Y-12845500D01*
X9187976Y-12845500D02*
X9168929Y-12855024D01*
X9168929Y-12855024D02*
X9149881Y-12855024D01*
X9149881Y-12855024D02*
X9130833Y-12845500D01*
X9130833Y-12845500D02*
X9121310Y-12835976D01*
X9121310Y-12835976D02*
X9111786Y-12816928D01*
X9111786Y-12816928D02*
X9102262Y-12778833D01*
X9102262Y-12778833D02*
X9102262Y-12731214D01*
X9102262Y-12731214D02*
X9111786Y-12693119D01*
X9111786Y-12693119D02*
X9121310Y-12674071D01*
X9121310Y-12674071D02*
X9130833Y-12664548D01*
X9130833Y-12664548D02*
X9149881Y-12655024D01*
X9302262Y-12855024D02*
X9302262Y-12721690D01*
X9302262Y-12740738D02*
X9311786Y-12731214D01*
X9311786Y-12731214D02*
X9330833Y-12721690D01*
X9330833Y-12721690D02*
X9359405Y-12721690D01*
X9359405Y-12721690D02*
X9378452Y-12731214D01*
X9378452Y-12731214D02*
X9387976Y-12750262D01*
X9387976Y-12750262D02*
X9387976Y-12855024D01*
X9387976Y-12750262D02*
X9397500Y-12731214D01*
X9397500Y-12731214D02*
X9416548Y-12721690D01*
X9416548Y-12721690D02*
X9445119Y-12721690D01*
X9445119Y-12721690D02*
X9464167Y-12731214D01*
X9464167Y-12731214D02*
X9473691Y-12750262D01*
X9473691Y-12750262D02*
X9473691Y-12855024D01*
X9568929Y-12855024D02*
X9568929Y-12721690D01*
X9568929Y-12740738D02*
X9578452Y-12731214D01*
X9578452Y-12731214D02*
X9597500Y-12721690D01*
X9597500Y-12721690D02*
X9626072Y-12721690D01*
X9626072Y-12721690D02*
X9645119Y-12731214D01*
X9645119Y-12731214D02*
X9654643Y-12750262D01*
X9654643Y-12750262D02*
X9654643Y-12855024D01*
X9654643Y-12750262D02*
X9664167Y-12731214D01*
X9664167Y-12731214D02*
X9683214Y-12721690D01*
X9683214Y-12721690D02*
X9711786Y-12721690D01*
X9711786Y-12721690D02*
X9730833Y-12731214D01*
X9730833Y-12731214D02*
X9740357Y-12750262D01*
X9740357Y-12750262D02*
X9740357Y-12855024D01*
X10130833Y-12645500D02*
X9959405Y-12902643D01*
X10387976Y-12655024D02*
X10407024Y-12655024D01*
X10407024Y-12655024D02*
X10426072Y-12664548D01*
X10426072Y-12664548D02*
X10435595Y-12674071D01*
X10435595Y-12674071D02*
X10445119Y-12693119D01*
X10445119Y-12693119D02*
X10454643Y-12731214D01*
X10454643Y-12731214D02*
X10454643Y-12778833D01*
X10454643Y-12778833D02*
X10445119Y-12816928D01*
X10445119Y-12816928D02*
X10435595Y-12835976D01*
X10435595Y-12835976D02*
X10426072Y-12845500D01*
X10426072Y-12845500D02*
X10407024Y-12855024D01*
X10407024Y-12855024D02*
X10387976Y-12855024D01*
X10387976Y-12855024D02*
X10368929Y-12845500D01*
X10368929Y-12845500D02*
X10359405Y-12835976D01*
X10359405Y-12835976D02*
X10349881Y-12816928D01*
X10349881Y-12816928D02*
X10340357Y-12778833D01*
X10340357Y-12778833D02*
X10340357Y-12731214D01*
X10340357Y-12731214D02*
X10349881Y-12693119D01*
X10349881Y-12693119D02*
X10359405Y-12674071D01*
X10359405Y-12674071D02*
X10368929Y-12664548D01*
X10368929Y-12664548D02*
X10387976Y-12655024D01*
X10540357Y-12835976D02*
X10549881Y-12845500D01*
X10549881Y-12845500D02*
X10540357Y-12855024D01*
X10540357Y-12855024D02*
X10530834Y-12845500D01*
X10530834Y-12845500D02*
X10540357Y-12835976D01*
X10540357Y-12835976D02*
X10540357Y-12855024D01*
X10673691Y-12655024D02*
X10692738Y-12655024D01*
X10692738Y-12655024D02*
X10711786Y-12664548D01*
X10711786Y-12664548D02*
X10721310Y-12674071D01*
X10721310Y-12674071D02*
X10730834Y-12693119D01*
X10730834Y-12693119D02*
X10740357Y-12731214D01*
X10740357Y-12731214D02*
X10740357Y-12778833D01*
X10740357Y-12778833D02*
X10730834Y-12816928D01*
X10730834Y-12816928D02*
X10721310Y-12835976D01*
X10721310Y-12835976D02*
X10711786Y-12845500D01*
X10711786Y-12845500D02*
X10692738Y-12855024D01*
X10692738Y-12855024D02*
X10673691Y-12855024D01*
X10673691Y-12855024D02*
X10654643Y-12845500D01*
X10654643Y-12845500D02*
X10645119Y-12835976D01*
X10645119Y-12835976D02*
X10635595Y-12816928D01*
X10635595Y-12816928D02*
X10626072Y-12778833D01*
X10626072Y-12778833D02*
X10626072Y-12731214D01*
X10626072Y-12731214D02*
X10635595Y-12693119D01*
X10635595Y-12693119D02*
X10645119Y-12674071D01*
X10645119Y-12674071D02*
X10654643Y-12664548D01*
X10654643Y-12664548D02*
X10673691Y-12655024D01*
X10854643Y-12740738D02*
X10835595Y-12731214D01*
X10835595Y-12731214D02*
X10826072Y-12721690D01*
X10826072Y-12721690D02*
X10816548Y-12702643D01*
X10816548Y-12702643D02*
X10816548Y-12693119D01*
X10816548Y-12693119D02*
X10826072Y-12674071D01*
X10826072Y-12674071D02*
X10835595Y-12664548D01*
X10835595Y-12664548D02*
X10854643Y-12655024D01*
X10854643Y-12655024D02*
X10892738Y-12655024D01*
X10892738Y-12655024D02*
X10911786Y-12664548D01*
X10911786Y-12664548D02*
X10921310Y-12674071D01*
X10921310Y-12674071D02*
X10930834Y-12693119D01*
X10930834Y-12693119D02*
X10930834Y-12702643D01*
X10930834Y-12702643D02*
X10921310Y-12721690D01*
X10921310Y-12721690D02*
X10911786Y-12731214D01*
X10911786Y-12731214D02*
X10892738Y-12740738D01*
X10892738Y-12740738D02*
X10854643Y-12740738D01*
X10854643Y-12740738D02*
X10835595Y-12750262D01*
X10835595Y-12750262D02*
X10826072Y-12759786D01*
X10826072Y-12759786D02*
X10816548Y-12778833D01*
X10816548Y-12778833D02*
X10816548Y-12816928D01*
X10816548Y-12816928D02*
X10826072Y-12835976D01*
X10826072Y-12835976D02*
X10835595Y-12845500D01*
X10835595Y-12845500D02*
X10854643Y-12855024D01*
X10854643Y-12855024D02*
X10892738Y-12855024D01*
X10892738Y-12855024D02*
X10911786Y-12845500D01*
X10911786Y-12845500D02*
X10921310Y-12835976D01*
X10921310Y-12835976D02*
X10930834Y-12816928D01*
X10930834Y-12816928D02*
X10930834Y-12778833D01*
X10930834Y-12778833D02*
X10921310Y-12759786D01*
X10921310Y-12759786D02*
X10911786Y-12750262D01*
X10911786Y-12750262D02*
X10892738Y-12740738D01*
X11007024Y-12674071D02*
X11016548Y-12664548D01*
X11016548Y-12664548D02*
X11035595Y-12655024D01*
X11035595Y-12655024D02*
X11083215Y-12655024D01*
X11083215Y-12655024D02*
X11102262Y-12664548D01*
X11102262Y-12664548D02*
X11111786Y-12674071D01*
X11111786Y-12674071D02*
X11121310Y-12693119D01*
X11121310Y-12693119D02*
X11121310Y-12712167D01*
X11121310Y-12712167D02*
X11111786Y-12740738D01*
X11111786Y-12740738D02*
X10997500Y-12855024D01*
X10997500Y-12855024D02*
X11121310Y-12855024D01*
X11187976Y-12655024D02*
X11321310Y-12655024D01*
X11321310Y-12655024D02*
X11235595Y-12855024D01*
X11387976Y-12655024D02*
X11387976Y-12693119D01*
X11464167Y-12655024D02*
X11464167Y-12693119D01*
X11759405Y-12931214D02*
X11749881Y-12921690D01*
X11749881Y-12921690D02*
X11730834Y-12893119D01*
X11730834Y-12893119D02*
X11721310Y-12874071D01*
X11721310Y-12874071D02*
X11711786Y-12845500D01*
X11711786Y-12845500D02*
X11702262Y-12797881D01*
X11702262Y-12797881D02*
X11702262Y-12759786D01*
X11702262Y-12759786D02*
X11711786Y-12712167D01*
X11711786Y-12712167D02*
X11721310Y-12683595D01*
X11721310Y-12683595D02*
X11730834Y-12664548D01*
X11730834Y-12664548D02*
X11749881Y-12635976D01*
X11749881Y-12635976D02*
X11759405Y-12626452D01*
X11826072Y-12674071D02*
X11835595Y-12664548D01*
X11835595Y-12664548D02*
X11854643Y-12655024D01*
X11854643Y-12655024D02*
X11902262Y-12655024D01*
X11902262Y-12655024D02*
X11921310Y-12664548D01*
X11921310Y-12664548D02*
X11930834Y-12674071D01*
X11930834Y-12674071D02*
X11940357Y-12693119D01*
X11940357Y-12693119D02*
X11940357Y-12712167D01*
X11940357Y-12712167D02*
X11930834Y-12740738D01*
X11930834Y-12740738D02*
X11816548Y-12855024D01*
X11816548Y-12855024D02*
X11940357Y-12855024D01*
X12178453Y-12855024D02*
X12178453Y-12655024D01*
X12264167Y-12855024D02*
X12264167Y-12750262D01*
X12264167Y-12750262D02*
X12254643Y-12731214D01*
X12254643Y-12731214D02*
X12235596Y-12721690D01*
X12235596Y-12721690D02*
X12207024Y-12721690D01*
X12207024Y-12721690D02*
X12187976Y-12731214D01*
X12187976Y-12731214D02*
X12178453Y-12740738D01*
X12387976Y-12855024D02*
X12368929Y-12845500D01*
X12368929Y-12845500D02*
X12359405Y-12835976D01*
X12359405Y-12835976D02*
X12349881Y-12816928D01*
X12349881Y-12816928D02*
X12349881Y-12759786D01*
X12349881Y-12759786D02*
X12359405Y-12740738D01*
X12359405Y-12740738D02*
X12368929Y-12731214D01*
X12368929Y-12731214D02*
X12387976Y-12721690D01*
X12387976Y-12721690D02*
X12416548Y-12721690D01*
X12416548Y-12721690D02*
X12435596Y-12731214D01*
X12435596Y-12731214D02*
X12445119Y-12740738D01*
X12445119Y-12740738D02*
X12454643Y-12759786D01*
X12454643Y-12759786D02*
X12454643Y-12816928D01*
X12454643Y-12816928D02*
X12445119Y-12835976D01*
X12445119Y-12835976D02*
X12435596Y-12845500D01*
X12435596Y-12845500D02*
X12416548Y-12855024D01*
X12416548Y-12855024D02*
X12387976Y-12855024D01*
X12568929Y-12855024D02*
X12549881Y-12845500D01*
X12549881Y-12845500D02*
X12540357Y-12826452D01*
X12540357Y-12826452D02*
X12540357Y-12655024D01*
X12721310Y-12845500D02*
X12702262Y-12855024D01*
X12702262Y-12855024D02*
X12664167Y-12855024D01*
X12664167Y-12855024D02*
X12645119Y-12845500D01*
X12645119Y-12845500D02*
X12635596Y-12826452D01*
X12635596Y-12826452D02*
X12635596Y-12750262D01*
X12635596Y-12750262D02*
X12645119Y-12731214D01*
X12645119Y-12731214D02*
X12664167Y-12721690D01*
X12664167Y-12721690D02*
X12702262Y-12721690D01*
X12702262Y-12721690D02*
X12721310Y-12731214D01*
X12721310Y-12731214D02*
X12730834Y-12750262D01*
X12730834Y-12750262D02*
X12730834Y-12769309D01*
X12730834Y-12769309D02*
X12635596Y-12788357D01*
X12807024Y-12845500D02*
X12826072Y-12855024D01*
X12826072Y-12855024D02*
X12864167Y-12855024D01*
X12864167Y-12855024D02*
X12883215Y-12845500D01*
X12883215Y-12845500D02*
X12892738Y-12826452D01*
X12892738Y-12826452D02*
X12892738Y-12816928D01*
X12892738Y-12816928D02*
X12883215Y-12797881D01*
X12883215Y-12797881D02*
X12864167Y-12788357D01*
X12864167Y-12788357D02*
X12835596Y-12788357D01*
X12835596Y-12788357D02*
X12816548Y-12778833D01*
X12816548Y-12778833D02*
X12807024Y-12759786D01*
X12807024Y-12759786D02*
X12807024Y-12750262D01*
X12807024Y-12750262D02*
X12816548Y-12731214D01*
X12816548Y-12731214D02*
X12835596Y-12721690D01*
X12835596Y-12721690D02*
X12864167Y-12721690D01*
X12864167Y-12721690D02*
X12883215Y-12731214D01*
X12959405Y-12931214D02*
X12968929Y-12921690D01*
X12968929Y-12921690D02*
X12987977Y-12893119D01*
X12987977Y-12893119D02*
X12997500Y-12874071D01*
X12997500Y-12874071D02*
X13007024Y-12845500D01*
X13007024Y-12845500D02*
X13016548Y-12797881D01*
X13016548Y-12797881D02*
X13016548Y-12759786D01*
X13016548Y-12759786D02*
X13007024Y-12712167D01*
X13007024Y-12712167D02*
X12997500Y-12683595D01*
X12997500Y-12683595D02*
X12987977Y-12664548D01*
X12987977Y-12664548D02*
X12968929Y-12635976D01*
X12968929Y-12635976D02*
X12959405Y-12626452D01*
M02*
