G04 #@! TF.GenerationSoftware,KiCad,Pcbnew,7.0.2-0*
G04 #@! TF.CreationDate,2023-04-30T22:25:47-07:00*
G04 #@! TF.ProjectId,babelfish,62616265-6c66-4697-9368-2e6b69636164,REV1*
G04 #@! TF.SameCoordinates,Original*
G04 #@! TF.FileFunction,Copper,L2,Inr*
G04 #@! TF.FilePolarity,Positive*
%FSLAX46Y46*%
G04 Gerber Fmt 4.6, Leading zero omitted, Abs format (unit mm)*
G04 Created by KiCad (PCBNEW 7.0.2-0) date 2023-04-30 22:25:47*
%MOMM*%
%LPD*%
G01*
G04 APERTURE LIST*
G04 #@! TA.AperFunction,ComponentPad*
%ADD10O,1.000000X2.100000*%
G04 #@! TD*
G04 #@! TA.AperFunction,ComponentPad*
%ADD11O,1.000000X1.800000*%
G04 #@! TD*
G04 #@! TA.AperFunction,ComponentPad*
%ADD12R,1.700000X1.700000*%
G04 #@! TD*
G04 #@! TA.AperFunction,ComponentPad*
%ADD13O,1.700000X1.700000*%
G04 #@! TD*
G04 #@! TA.AperFunction,ComponentPad*
%ADD14C,0.600000*%
G04 #@! TD*
G04 #@! TA.AperFunction,ComponentPad*
%ADD15C,1.500000*%
G04 #@! TD*
G04 #@! TA.AperFunction,ComponentPad*
%ADD16C,3.100000*%
G04 #@! TD*
G04 #@! TA.AperFunction,ViaPad*
%ADD17C,0.600000*%
G04 #@! TD*
G04 APERTURE END LIST*
D10*
X114900000Y-76080086D03*
D11*
X114900000Y-71900000D03*
X106259919Y-71900000D03*
D10*
X106259919Y-76080086D03*
D12*
X87787500Y-83887000D03*
D13*
X85247500Y-83887000D03*
X87787500Y-81347000D03*
X85247500Y-81347000D03*
X87787500Y-78807000D03*
X85247500Y-78807000D03*
X87787500Y-76267000D03*
X85247500Y-76267000D03*
X87787500Y-73727000D03*
X85247500Y-73727000D03*
D12*
X103700000Y-103650000D03*
D13*
X103700000Y-101110000D03*
X106240000Y-103650000D03*
X106240000Y-101110000D03*
X108780000Y-103650000D03*
X108780000Y-101110000D03*
D12*
X122000000Y-73000000D03*
D13*
X124540000Y-73000000D03*
X127080000Y-73000000D03*
X129620000Y-73000000D03*
D14*
X105625000Y-87562500D03*
X105625000Y-88837500D03*
X105625000Y-90112500D03*
X106900000Y-87562500D03*
X106900000Y-88837500D03*
X106900000Y-90112500D03*
X108175000Y-87562500D03*
X108175000Y-88837500D03*
X108175000Y-90112500D03*
D15*
X127439200Y-95041600D03*
X127439200Y-92541600D03*
X127439200Y-90541600D03*
X127439200Y-88041600D03*
D16*
X130149200Y-98541600D03*
X130149200Y-84541600D03*
D17*
X108500000Y-80750000D03*
X106400000Y-79350000D03*
X109600000Y-96050000D03*
X107650000Y-98000000D03*
X101100000Y-80200000D03*
X99841300Y-84953800D03*
X112109500Y-80331000D03*
X100950000Y-96250000D03*
X108550000Y-96050000D03*
X115919500Y-77283000D03*
X116681500Y-77791000D03*
X110250000Y-82100000D03*
X102965500Y-84953800D03*
X114900000Y-86650000D03*
X105800000Y-81450000D03*
X99350000Y-89350000D03*
X122400000Y-92889200D03*
X102300000Y-80200000D03*
X112700000Y-100000000D03*
X115919500Y-78299000D03*
X118400000Y-92900000D03*
X114900000Y-89050000D03*
X115157500Y-77791000D03*
X122400000Y-90389200D03*
X95345500Y-85030000D03*
X95345500Y-85792000D03*
X111250000Y-81150000D03*
X105050000Y-93600000D03*
X114900000Y-87550000D03*
X113950000Y-80300000D03*
X106750000Y-80750000D03*
X117100000Y-94800000D03*
X116750000Y-80700000D03*
X100350000Y-90800000D03*
X94150000Y-96720000D03*
X98600000Y-83950000D03*
X95900000Y-91170000D03*
X110150000Y-95100000D03*
X95650000Y-99220000D03*
X97900000Y-93150000D03*
X97350000Y-77100000D03*
X112700000Y-104000000D03*
X95650000Y-83150000D03*
X108950000Y-91050000D03*
X107550000Y-91150000D03*
X100750000Y-91750000D03*
X93500000Y-92170000D03*
X101850000Y-93150000D03*
X93500000Y-99270000D03*
X118150000Y-73250000D03*
X123200000Y-79250000D03*
X91950000Y-75800000D03*
G04 #@! TA.AperFunction,Conductor*
G36*
X105605478Y-70520002D02*
G01*
X105651971Y-70573658D01*
X105662075Y-70643932D01*
X105632581Y-70708512D01*
X105617290Y-70723400D01*
X105543706Y-70783787D01*
X105417742Y-70937276D01*
X105324142Y-71112390D01*
X105266503Y-71302396D01*
X105252222Y-71447401D01*
X105251919Y-71453574D01*
X105251919Y-71646000D01*
X105959919Y-71646000D01*
X105959919Y-72154000D01*
X105251919Y-72154000D01*
X105251919Y-72346425D01*
X105252222Y-72352598D01*
X105266503Y-72497603D01*
X105324142Y-72687609D01*
X105417742Y-72862723D01*
X105543706Y-73016212D01*
X105697195Y-73142176D01*
X105872306Y-73235775D01*
X106005919Y-73276305D01*
X106005919Y-72459650D01*
X106034376Y-72505610D01*
X106123881Y-72573201D01*
X106231759Y-72603895D01*
X106343440Y-72593546D01*
X106443841Y-72543552D01*
X106513919Y-72466681D01*
X106513919Y-73276305D01*
X106647531Y-73235775D01*
X106822642Y-73142176D01*
X106976131Y-73016212D01*
X107102095Y-72862723D01*
X107195695Y-72687609D01*
X107253334Y-72497603D01*
X107267615Y-72352598D01*
X107267919Y-72346425D01*
X107267919Y-72154000D01*
X106559919Y-72154000D01*
X106559919Y-71646000D01*
X107267919Y-71646000D01*
X107267919Y-71453574D01*
X107267615Y-71447401D01*
X107253334Y-71302396D01*
X107195695Y-71112390D01*
X107102095Y-70937276D01*
X106976131Y-70783787D01*
X106902548Y-70723400D01*
X106862579Y-70664723D01*
X106860678Y-70593752D01*
X106897448Y-70533019D01*
X106961216Y-70501807D01*
X106982481Y-70500000D01*
X114177438Y-70500000D01*
X114245559Y-70520002D01*
X114292052Y-70573658D01*
X114302156Y-70643932D01*
X114272662Y-70708512D01*
X114257371Y-70723400D01*
X114183787Y-70783787D01*
X114057823Y-70937276D01*
X113964223Y-71112390D01*
X113906584Y-71302396D01*
X113892303Y-71447401D01*
X113892000Y-71453574D01*
X113892000Y-71646000D01*
X114600000Y-71646000D01*
X114600000Y-72154000D01*
X113892000Y-72154000D01*
X113892000Y-72346425D01*
X113892303Y-72352598D01*
X113906584Y-72497603D01*
X113964223Y-72687609D01*
X114057823Y-72862723D01*
X114183787Y-73016212D01*
X114337276Y-73142176D01*
X114512387Y-73235775D01*
X114646000Y-73276305D01*
X114646000Y-72459650D01*
X114674457Y-72505610D01*
X114763962Y-72573201D01*
X114871840Y-72603895D01*
X114983521Y-72593546D01*
X115083922Y-72543552D01*
X115154000Y-72466681D01*
X115154000Y-73276305D01*
X115240718Y-73250000D01*
X117594750Y-73250000D01*
X117613669Y-73393709D01*
X117669137Y-73527623D01*
X117669139Y-73527625D01*
X117757379Y-73642621D01*
X117850670Y-73714206D01*
X117872376Y-73730862D01*
X118006290Y-73786330D01*
X118023008Y-73788531D01*
X118150000Y-73805250D01*
X118293709Y-73786330D01*
X118427623Y-73730862D01*
X118427623Y-73730861D01*
X118427625Y-73730861D01*
X118542621Y-73642621D01*
X118630861Y-73527625D01*
X118642304Y-73500000D01*
X118686330Y-73393709D01*
X118688542Y-73376909D01*
X118705250Y-73250000D01*
X118686330Y-73106291D01*
X118686330Y-73106290D01*
X118630862Y-72972376D01*
X118567680Y-72890037D01*
X118542621Y-72857379D01*
X118455015Y-72790156D01*
X118427623Y-72769137D01*
X118293709Y-72713669D01*
X118150000Y-72694750D01*
X118006290Y-72713669D01*
X117872376Y-72769137D01*
X117757379Y-72857379D01*
X117669137Y-72972376D01*
X117613669Y-73106290D01*
X117594750Y-73250000D01*
X115240718Y-73250000D01*
X115287612Y-73235775D01*
X115462723Y-73142176D01*
X115616212Y-73016212D01*
X115742176Y-72862723D01*
X115835776Y-72687609D01*
X115893415Y-72497603D01*
X115907696Y-72352598D01*
X115908000Y-72346425D01*
X115908000Y-72154000D01*
X115200000Y-72154000D01*
X115200000Y-71646000D01*
X115908000Y-71646000D01*
X115908000Y-71453574D01*
X115907696Y-71447401D01*
X115893415Y-71302396D01*
X115835776Y-71112390D01*
X115742176Y-70937276D01*
X115616212Y-70783787D01*
X115542629Y-70723400D01*
X115502660Y-70664723D01*
X115500759Y-70593752D01*
X115537529Y-70533019D01*
X115601297Y-70501807D01*
X115622562Y-70500000D01*
X137874000Y-70500000D01*
X137942121Y-70520002D01*
X137988614Y-70573658D01*
X138000000Y-70626000D01*
X138000000Y-106874000D01*
X137979998Y-106942121D01*
X137926342Y-106988614D01*
X137874000Y-107000000D01*
X83126000Y-107000000D01*
X83057879Y-106979998D01*
X83011386Y-106926342D01*
X83000000Y-106874000D01*
X83000000Y-104150000D01*
X84394551Y-104150000D01*
X84414317Y-104401148D01*
X84473127Y-104646111D01*
X84569535Y-104878862D01*
X84701163Y-105093658D01*
X84864775Y-105285224D01*
X85056341Y-105448836D01*
X85271137Y-105580464D01*
X85271139Y-105580464D01*
X85271141Y-105580466D01*
X85503889Y-105676873D01*
X85748852Y-105735683D01*
X85937118Y-105750500D01*
X85939587Y-105750500D01*
X86060413Y-105750500D01*
X86062882Y-105750500D01*
X86251148Y-105735683D01*
X86496111Y-105676873D01*
X86728859Y-105580466D01*
X86943659Y-105448836D01*
X87135224Y-105285224D01*
X87298836Y-105093659D01*
X87430466Y-104878859D01*
X87526873Y-104646111D01*
X87556027Y-104524674D01*
X102599500Y-104524674D01*
X102614034Y-104597740D01*
X102669399Y-104680601D01*
X102752260Y-104735966D01*
X102825326Y-104750500D01*
X102825327Y-104750500D01*
X104574673Y-104750500D01*
X104574674Y-104750500D01*
X104647740Y-104735966D01*
X104730601Y-104680601D01*
X104785966Y-104597740D01*
X104800500Y-104524674D01*
X104800500Y-103650000D01*
X105134785Y-103650000D01*
X105153603Y-103853085D01*
X105195405Y-104000000D01*
X105209418Y-104049250D01*
X105300327Y-104231821D01*
X105423236Y-104394579D01*
X105573959Y-104531981D01*
X105573961Y-104531982D01*
X105573962Y-104531983D01*
X105747359Y-104639346D01*
X105747361Y-104639346D01*
X105747363Y-104639348D01*
X105937544Y-104713024D01*
X106138024Y-104750500D01*
X106138026Y-104750500D01*
X106341974Y-104750500D01*
X106341976Y-104750500D01*
X106542456Y-104713024D01*
X106732637Y-104639348D01*
X106906041Y-104531981D01*
X107056764Y-104394579D01*
X107179673Y-104231821D01*
X107270582Y-104049250D01*
X107326397Y-103853083D01*
X107345215Y-103650000D01*
X107674785Y-103650000D01*
X107693603Y-103853085D01*
X107735405Y-104000000D01*
X107749418Y-104049250D01*
X107840327Y-104231821D01*
X107963236Y-104394579D01*
X108113959Y-104531981D01*
X108113961Y-104531982D01*
X108113962Y-104531983D01*
X108287359Y-104639346D01*
X108287361Y-104639346D01*
X108287363Y-104639348D01*
X108477544Y-104713024D01*
X108678024Y-104750500D01*
X108678026Y-104750500D01*
X108881974Y-104750500D01*
X108881976Y-104750500D01*
X109082456Y-104713024D01*
X109272637Y-104639348D01*
X109446041Y-104531981D01*
X109596764Y-104394579D01*
X109719673Y-104231821D01*
X109810582Y-104049250D01*
X109824595Y-104000000D01*
X112144750Y-104000000D01*
X112163669Y-104143709D01*
X112219137Y-104277623D01*
X112219139Y-104277625D01*
X112307379Y-104392621D01*
X112400670Y-104464206D01*
X112422376Y-104480862D01*
X112556290Y-104536330D01*
X112573008Y-104538531D01*
X112700000Y-104555250D01*
X112843709Y-104536330D01*
X112854209Y-104531981D01*
X112977623Y-104480862D01*
X112977623Y-104480861D01*
X112977625Y-104480861D01*
X113092621Y-104392621D01*
X113180861Y-104277625D01*
X113236330Y-104143709D01*
X113255250Y-104000000D01*
X133394551Y-104000000D01*
X133414317Y-104251148D01*
X133473127Y-104496111D01*
X133569535Y-104728862D01*
X133701163Y-104943658D01*
X133864775Y-105135224D01*
X134056341Y-105298836D01*
X134271137Y-105430464D01*
X134271139Y-105430464D01*
X134271141Y-105430466D01*
X134503889Y-105526873D01*
X134748852Y-105585683D01*
X134937118Y-105600500D01*
X134939587Y-105600500D01*
X135060413Y-105600500D01*
X135062882Y-105600500D01*
X135251148Y-105585683D01*
X135496111Y-105526873D01*
X135728859Y-105430466D01*
X135943659Y-105298836D01*
X136135224Y-105135224D01*
X136298836Y-104943659D01*
X136430466Y-104728859D01*
X136526873Y-104496111D01*
X136585683Y-104251148D01*
X136605449Y-104000000D01*
X136585683Y-103748852D01*
X136526873Y-103503889D01*
X136430466Y-103271141D01*
X136417970Y-103250750D01*
X136298836Y-103056341D01*
X136135224Y-102864775D01*
X135943658Y-102701163D01*
X135728862Y-102569535D01*
X135496111Y-102473127D01*
X135251148Y-102414317D01*
X135065338Y-102399693D01*
X135065330Y-102399692D01*
X135062882Y-102399500D01*
X134937118Y-102399500D01*
X134934670Y-102399692D01*
X134934661Y-102399693D01*
X134748851Y-102414317D01*
X134503888Y-102473127D01*
X134271137Y-102569535D01*
X134056341Y-102701163D01*
X133864775Y-102864775D01*
X133701163Y-103056341D01*
X133569535Y-103271137D01*
X133473127Y-103503888D01*
X133414317Y-103748851D01*
X133394551Y-104000000D01*
X113255250Y-104000000D01*
X113236330Y-103856291D01*
X113235002Y-103853085D01*
X113180862Y-103722376D01*
X113164206Y-103700670D01*
X113092621Y-103607379D01*
X113021034Y-103552448D01*
X112977623Y-103519137D01*
X112843709Y-103463669D01*
X112700000Y-103444750D01*
X112556290Y-103463669D01*
X112422376Y-103519137D01*
X112307379Y-103607379D01*
X112219137Y-103722376D01*
X112163669Y-103856290D01*
X112144750Y-104000000D01*
X109824595Y-104000000D01*
X109866397Y-103853083D01*
X109885215Y-103650000D01*
X109866397Y-103446917D01*
X109810582Y-103250750D01*
X109719673Y-103068179D01*
X109596764Y-102905421D01*
X109446041Y-102768019D01*
X109446038Y-102768017D01*
X109446037Y-102768016D01*
X109272640Y-102660653D01*
X109082456Y-102586976D01*
X109082455Y-102586976D01*
X108881976Y-102549500D01*
X108678024Y-102549500D01*
X108600274Y-102564034D01*
X108477543Y-102586976D01*
X108287359Y-102660653D01*
X108113962Y-102768016D01*
X107963235Y-102905422D01*
X107840328Y-103068177D01*
X107749417Y-103250752D01*
X107693603Y-103446914D01*
X107674785Y-103650000D01*
X107345215Y-103650000D01*
X107326397Y-103446917D01*
X107270582Y-103250750D01*
X107179673Y-103068179D01*
X107056764Y-102905421D01*
X106906041Y-102768019D01*
X106906038Y-102768017D01*
X106906037Y-102768016D01*
X106732640Y-102660653D01*
X106542456Y-102586976D01*
X106341976Y-102549500D01*
X106138024Y-102549500D01*
X106060274Y-102564034D01*
X105937543Y-102586976D01*
X105747359Y-102660653D01*
X105573962Y-102768016D01*
X105423235Y-102905422D01*
X105300328Y-103068177D01*
X105209417Y-103250752D01*
X105153603Y-103446914D01*
X105134785Y-103650000D01*
X104800500Y-103650000D01*
X104800500Y-102775326D01*
X104785966Y-102702260D01*
X104730601Y-102619399D01*
X104647740Y-102564034D01*
X104574674Y-102549500D01*
X102825326Y-102549500D01*
X102752260Y-102564034D01*
X102669399Y-102619399D01*
X102614034Y-102702260D01*
X102599500Y-102775326D01*
X102599500Y-104524674D01*
X87556027Y-104524674D01*
X87585683Y-104401148D01*
X87605449Y-104150000D01*
X87585683Y-103898852D01*
X87526873Y-103653889D01*
X87430466Y-103421141D01*
X87298836Y-103206341D01*
X87135224Y-103014775D01*
X86943658Y-102851163D01*
X86728862Y-102719535D01*
X86496111Y-102623127D01*
X86251148Y-102564317D01*
X86065338Y-102549693D01*
X86065330Y-102549692D01*
X86062882Y-102549500D01*
X85937118Y-102549500D01*
X85934670Y-102549692D01*
X85934661Y-102549693D01*
X85748851Y-102564317D01*
X85503888Y-102623127D01*
X85271137Y-102719535D01*
X85056341Y-102851163D01*
X84864775Y-103014775D01*
X84701163Y-103206341D01*
X84569535Y-103421137D01*
X84473127Y-103653888D01*
X84414317Y-103898851D01*
X84394551Y-104150000D01*
X83000000Y-104150000D01*
X83000000Y-101110000D01*
X102594785Y-101110000D01*
X102613603Y-101313085D01*
X102669417Y-101509247D01*
X102669418Y-101509250D01*
X102760327Y-101691821D01*
X102883236Y-101854579D01*
X103033959Y-101991981D01*
X103033961Y-101991982D01*
X103033962Y-101991983D01*
X103207359Y-102099346D01*
X103207361Y-102099346D01*
X103207363Y-102099348D01*
X103397544Y-102173024D01*
X103598024Y-102210500D01*
X103598026Y-102210500D01*
X103801974Y-102210500D01*
X103801976Y-102210500D01*
X104002456Y-102173024D01*
X104192637Y-102099348D01*
X104366041Y-101991981D01*
X104516764Y-101854579D01*
X104639673Y-101691821D01*
X104730582Y-101509250D01*
X104786397Y-101313083D01*
X104805215Y-101110000D01*
X105134785Y-101110000D01*
X105153603Y-101313085D01*
X105209417Y-101509247D01*
X105209418Y-101509250D01*
X105300327Y-101691821D01*
X105423236Y-101854579D01*
X105573959Y-101991981D01*
X105573961Y-101991982D01*
X105573962Y-101991983D01*
X105747359Y-102099346D01*
X105747361Y-102099346D01*
X105747363Y-102099348D01*
X105937544Y-102173024D01*
X106138024Y-102210500D01*
X106138026Y-102210500D01*
X106341974Y-102210500D01*
X106341976Y-102210500D01*
X106542456Y-102173024D01*
X106732637Y-102099348D01*
X106906041Y-101991981D01*
X107056764Y-101854579D01*
X107179673Y-101691821D01*
X107270582Y-101509250D01*
X107326397Y-101313083D01*
X107345215Y-101110000D01*
X107674785Y-101110000D01*
X107693603Y-101313085D01*
X107749417Y-101509247D01*
X107749418Y-101509250D01*
X107840327Y-101691821D01*
X107963236Y-101854579D01*
X108113959Y-101991981D01*
X108113961Y-101991982D01*
X108113962Y-101991983D01*
X108287359Y-102099346D01*
X108287361Y-102099346D01*
X108287363Y-102099348D01*
X108477544Y-102173024D01*
X108678024Y-102210500D01*
X108678026Y-102210500D01*
X108881974Y-102210500D01*
X108881976Y-102210500D01*
X109082456Y-102173024D01*
X109272637Y-102099348D01*
X109446041Y-101991981D01*
X109596764Y-101854579D01*
X109719673Y-101691821D01*
X109810582Y-101509250D01*
X109866397Y-101313083D01*
X109885215Y-101110000D01*
X109866397Y-100906917D01*
X109810582Y-100710750D01*
X109719673Y-100528179D01*
X109596764Y-100365421D01*
X109446041Y-100228019D01*
X109446038Y-100228017D01*
X109446037Y-100228016D01*
X109272640Y-100120653D01*
X109082456Y-100046976D01*
X109082455Y-100046976D01*
X108881976Y-100009500D01*
X108678024Y-100009500D01*
X108544370Y-100034484D01*
X108477543Y-100046976D01*
X108287359Y-100120653D01*
X108113962Y-100228016D01*
X107963235Y-100365422D01*
X107840328Y-100528177D01*
X107749417Y-100710752D01*
X107693603Y-100906914D01*
X107674785Y-101110000D01*
X107345215Y-101110000D01*
X107326397Y-100906917D01*
X107270582Y-100710750D01*
X107179673Y-100528179D01*
X107056764Y-100365421D01*
X106906041Y-100228019D01*
X106906038Y-100228017D01*
X106906037Y-100228016D01*
X106732640Y-100120653D01*
X106542456Y-100046976D01*
X106341976Y-100009500D01*
X106138024Y-100009500D01*
X106004370Y-100034484D01*
X105937543Y-100046976D01*
X105747359Y-100120653D01*
X105573962Y-100228016D01*
X105423235Y-100365422D01*
X105300328Y-100528177D01*
X105209417Y-100710752D01*
X105153603Y-100906914D01*
X105134785Y-101110000D01*
X104805215Y-101110000D01*
X104786397Y-100906917D01*
X104730582Y-100710750D01*
X104639673Y-100528179D01*
X104516764Y-100365421D01*
X104366041Y-100228019D01*
X104366038Y-100228017D01*
X104366037Y-100228016D01*
X104192640Y-100120653D01*
X104002456Y-100046976D01*
X104002455Y-100046976D01*
X103801976Y-100009500D01*
X103598024Y-100009500D01*
X103464370Y-100034484D01*
X103397543Y-100046976D01*
X103207359Y-100120653D01*
X103033962Y-100228016D01*
X102883235Y-100365422D01*
X102760328Y-100528177D01*
X102669417Y-100710752D01*
X102613603Y-100906914D01*
X102594785Y-101110000D01*
X83000000Y-101110000D01*
X83000000Y-99269999D01*
X92944750Y-99269999D01*
X92963669Y-99413709D01*
X93019137Y-99547623D01*
X93019139Y-99547625D01*
X93107379Y-99662621D01*
X93200670Y-99734206D01*
X93222376Y-99750862D01*
X93356290Y-99806330D01*
X93366879Y-99807724D01*
X93500000Y-99825250D01*
X93643709Y-99806330D01*
X93718744Y-99775250D01*
X93777623Y-99750862D01*
X93777623Y-99750861D01*
X93777625Y-99750861D01*
X93892621Y-99662621D01*
X93980861Y-99547625D01*
X94036330Y-99413709D01*
X94055250Y-99270000D01*
X94048667Y-99219999D01*
X95094750Y-99219999D01*
X95113669Y-99363709D01*
X95169137Y-99497623D01*
X95169139Y-99497625D01*
X95257379Y-99612621D01*
X95322539Y-99662620D01*
X95372376Y-99700862D01*
X95506290Y-99756330D01*
X95523008Y-99758531D01*
X95650000Y-99775250D01*
X95793709Y-99756330D01*
X95927625Y-99700861D01*
X96042621Y-99612621D01*
X96130861Y-99497625D01*
X96186330Y-99363709D01*
X96205250Y-99220000D01*
X96186330Y-99076291D01*
X96151572Y-98992376D01*
X96130862Y-98942376D01*
X96098967Y-98900810D01*
X96042621Y-98827379D01*
X95938438Y-98747436D01*
X95927623Y-98739137D01*
X95793709Y-98683669D01*
X95650000Y-98664750D01*
X95506290Y-98683669D01*
X95372376Y-98739137D01*
X95257379Y-98827379D01*
X95169137Y-98942376D01*
X95113669Y-99076290D01*
X95094750Y-99219999D01*
X94048667Y-99219999D01*
X94036330Y-99126291D01*
X94036330Y-99126290D01*
X93980862Y-98992376D01*
X93910600Y-98900810D01*
X93892621Y-98877379D01*
X93815489Y-98818193D01*
X93777623Y-98789137D01*
X93643709Y-98733669D01*
X93516717Y-98716951D01*
X93500000Y-98714750D01*
X93499999Y-98714750D01*
X93356290Y-98733669D01*
X93222376Y-98789137D01*
X93107379Y-98877379D01*
X93019137Y-98992376D01*
X92963669Y-99126290D01*
X92944750Y-99269999D01*
X83000000Y-99269999D01*
X83000000Y-98545898D01*
X128086685Y-98545898D01*
X128105310Y-98818193D01*
X128106478Y-98826692D01*
X128162011Y-99093928D01*
X128164326Y-99102193D01*
X128255727Y-99359372D01*
X128259149Y-99367248D01*
X128384712Y-99609574D01*
X128389179Y-99616920D01*
X128523864Y-99807725D01*
X129248205Y-99083383D01*
X129271932Y-99127772D01*
X129403145Y-99287655D01*
X129563028Y-99418868D01*
X129607414Y-99442593D01*
X128884372Y-100165635D01*
X128884373Y-100165636D01*
X128956283Y-100224139D01*
X128963292Y-100229086D01*
X129196501Y-100370904D01*
X129204118Y-100374851D01*
X129454459Y-100483589D01*
X129462550Y-100486464D01*
X129725362Y-100560101D01*
X129733780Y-100561850D01*
X130004160Y-100599013D01*
X130012734Y-100599600D01*
X130285666Y-100599600D01*
X130294239Y-100599013D01*
X130564619Y-100561850D01*
X130573037Y-100560101D01*
X130835849Y-100486464D01*
X130843940Y-100483589D01*
X131094281Y-100374851D01*
X131101898Y-100370904D01*
X131335102Y-100229089D01*
X131342122Y-100224134D01*
X131414025Y-100165636D01*
X131414025Y-100165635D01*
X130690984Y-99442593D01*
X130735372Y-99418868D01*
X130895255Y-99287655D01*
X131026468Y-99127772D01*
X131050193Y-99083383D01*
X131774534Y-99807724D01*
X131909220Y-99616920D01*
X131913687Y-99609574D01*
X132039250Y-99367248D01*
X132042672Y-99359372D01*
X132134073Y-99102193D01*
X132136388Y-99093928D01*
X132191921Y-98826692D01*
X132193089Y-98818193D01*
X132211714Y-98545898D01*
X132211714Y-98537301D01*
X132193089Y-98265006D01*
X132191921Y-98256507D01*
X132136388Y-97989271D01*
X132134073Y-97981006D01*
X132042672Y-97723827D01*
X132039250Y-97715951D01*
X131913687Y-97473625D01*
X131909220Y-97466279D01*
X131774534Y-97275474D01*
X131050193Y-97999814D01*
X131026468Y-97955428D01*
X130895255Y-97795545D01*
X130735372Y-97664332D01*
X130690984Y-97640606D01*
X131414026Y-96917564D01*
X131414025Y-96917562D01*
X131342116Y-96859060D01*
X131335107Y-96854113D01*
X131101898Y-96712295D01*
X131094281Y-96708348D01*
X130843940Y-96599610D01*
X130835849Y-96596735D01*
X130573037Y-96523098D01*
X130564619Y-96521349D01*
X130294239Y-96484186D01*
X130285666Y-96483600D01*
X130012734Y-96483600D01*
X130004160Y-96484186D01*
X129733780Y-96521349D01*
X129725362Y-96523098D01*
X129462550Y-96596735D01*
X129454459Y-96599610D01*
X129204118Y-96708348D01*
X129196501Y-96712295D01*
X128963292Y-96854113D01*
X128956279Y-96859063D01*
X128884373Y-96917562D01*
X128884372Y-96917563D01*
X129607415Y-97640606D01*
X129563028Y-97664332D01*
X129403145Y-97795545D01*
X129271932Y-97955428D01*
X129248206Y-97999815D01*
X128523864Y-97275473D01*
X128389179Y-97466280D01*
X128384709Y-97473631D01*
X128259149Y-97715951D01*
X128255727Y-97723827D01*
X128164326Y-97981006D01*
X128162011Y-97989271D01*
X128106478Y-98256507D01*
X128105310Y-98265006D01*
X128086685Y-98537301D01*
X128086685Y-98545898D01*
X83000000Y-98545898D01*
X83000000Y-96720000D01*
X93594750Y-96720000D01*
X93613669Y-96863709D01*
X93669137Y-96997623D01*
X93669139Y-96997625D01*
X93757379Y-97112621D01*
X93850670Y-97184206D01*
X93872376Y-97200862D01*
X94006290Y-97256330D01*
X94023008Y-97258531D01*
X94150000Y-97275250D01*
X94293709Y-97256330D01*
X94427625Y-97200861D01*
X94542621Y-97112621D01*
X94630861Y-96997625D01*
X94686330Y-96863709D01*
X94705250Y-96720000D01*
X94686330Y-96576291D01*
X94686330Y-96576290D01*
X94630862Y-96442376D01*
X94614206Y-96420670D01*
X94542621Y-96327379D01*
X94471034Y-96272448D01*
X94427623Y-96239137D01*
X94293709Y-96183669D01*
X94166717Y-96166951D01*
X94150000Y-96164750D01*
X94149999Y-96164750D01*
X94006290Y-96183669D01*
X93872376Y-96239137D01*
X93757379Y-96327379D01*
X93669137Y-96442376D01*
X93613669Y-96576290D01*
X93594750Y-96720000D01*
X83000000Y-96720000D01*
X83000000Y-95099999D01*
X109594750Y-95099999D01*
X109613669Y-95243709D01*
X109669137Y-95377623D01*
X109669139Y-95377625D01*
X109757379Y-95492621D01*
X109850670Y-95564206D01*
X109872376Y-95580862D01*
X110006290Y-95636330D01*
X110023008Y-95638531D01*
X110150000Y-95655250D01*
X110293709Y-95636330D01*
X110427625Y-95580861D01*
X110542621Y-95492621D01*
X110630861Y-95377625D01*
X110686330Y-95243709D01*
X110705250Y-95100000D01*
X110686330Y-94956291D01*
X110686330Y-94956290D01*
X110630862Y-94822376D01*
X110613692Y-94800000D01*
X116544750Y-94800000D01*
X116563669Y-94943709D01*
X116619137Y-95077623D01*
X116619139Y-95077625D01*
X116707379Y-95192621D01*
X116773958Y-95243709D01*
X116822376Y-95280862D01*
X116956290Y-95336330D01*
X116975209Y-95338820D01*
X117100000Y-95355250D01*
X117243709Y-95336330D01*
X117377625Y-95280861D01*
X117492621Y-95192621D01*
X117580861Y-95077625D01*
X117595783Y-95041600D01*
X126433858Y-95041600D01*
X126453175Y-95237732D01*
X126510385Y-95426325D01*
X126603289Y-95600137D01*
X126728316Y-95752483D01*
X126880661Y-95877509D01*
X126880662Y-95877510D01*
X127054473Y-95970414D01*
X127148770Y-95999018D01*
X127243067Y-96027624D01*
X127439200Y-96046941D01*
X127635332Y-96027624D01*
X127823927Y-95970414D01*
X127997738Y-95877510D01*
X128150083Y-95752483D01*
X128275110Y-95600138D01*
X128368014Y-95426327D01*
X128425224Y-95237732D01*
X128444541Y-95041600D01*
X128425224Y-94845468D01*
X128411431Y-94800000D01*
X128368014Y-94656874D01*
X128368014Y-94656873D01*
X128275110Y-94483062D01*
X128150083Y-94330716D01*
X127997737Y-94205689D01*
X127823925Y-94112785D01*
X127635332Y-94055575D01*
X127439200Y-94036258D01*
X127243067Y-94055575D01*
X127054474Y-94112785D01*
X126880662Y-94205689D01*
X126728316Y-94330716D01*
X126603289Y-94483062D01*
X126510385Y-94656874D01*
X126453175Y-94845467D01*
X126433858Y-95041600D01*
X117595783Y-95041600D01*
X117636330Y-94943709D01*
X117655250Y-94800000D01*
X117636330Y-94656291D01*
X117636330Y-94656290D01*
X117580862Y-94522376D01*
X117550695Y-94483062D01*
X117492621Y-94407379D01*
X117392714Y-94330717D01*
X117377623Y-94319137D01*
X117243709Y-94263669D01*
X117100000Y-94244750D01*
X116956290Y-94263669D01*
X116822376Y-94319137D01*
X116707379Y-94407379D01*
X116619137Y-94522376D01*
X116563669Y-94656290D01*
X116544750Y-94800000D01*
X110613692Y-94800000D01*
X110542621Y-94707379D01*
X110471034Y-94652448D01*
X110427623Y-94619137D01*
X110293709Y-94563669D01*
X110166717Y-94546951D01*
X110150000Y-94544750D01*
X110149999Y-94544750D01*
X110006290Y-94563669D01*
X109872376Y-94619137D01*
X109757379Y-94707379D01*
X109669137Y-94822376D01*
X109613669Y-94956290D01*
X109594750Y-95099999D01*
X83000000Y-95099999D01*
X83000000Y-93149999D01*
X97344750Y-93149999D01*
X97363669Y-93293709D01*
X97419137Y-93427623D01*
X97419139Y-93427625D01*
X97507379Y-93542621D01*
X97600670Y-93614206D01*
X97622376Y-93630862D01*
X97756290Y-93686330D01*
X97773008Y-93688531D01*
X97900000Y-93705250D01*
X98043709Y-93686330D01*
X98177625Y-93630861D01*
X98292621Y-93542621D01*
X98380861Y-93427625D01*
X98436330Y-93293709D01*
X98455250Y-93150000D01*
X98455250Y-93149999D01*
X101294750Y-93149999D01*
X101313669Y-93293709D01*
X101369137Y-93427623D01*
X101369139Y-93427625D01*
X101457379Y-93542621D01*
X101550670Y-93614206D01*
X101572376Y-93630862D01*
X101706290Y-93686330D01*
X101725210Y-93688820D01*
X101850000Y-93705250D01*
X101993709Y-93686330D01*
X102127625Y-93630861D01*
X102242621Y-93542621D01*
X102330861Y-93427625D01*
X102386330Y-93293709D01*
X102405250Y-93150000D01*
X102386330Y-93006291D01*
X102386330Y-93006290D01*
X102330862Y-92872376D01*
X102314206Y-92850670D01*
X102242621Y-92757379D01*
X102171034Y-92702448D01*
X102127623Y-92669137D01*
X101993709Y-92613669D01*
X101866717Y-92596951D01*
X101850000Y-92594750D01*
X101849999Y-92594750D01*
X101706290Y-92613669D01*
X101572376Y-92669137D01*
X101457379Y-92757379D01*
X101369137Y-92872376D01*
X101313669Y-93006290D01*
X101294750Y-93149999D01*
X98455250Y-93149999D01*
X98436330Y-93006291D01*
X98436330Y-93006290D01*
X98380862Y-92872376D01*
X98364206Y-92850670D01*
X98292621Y-92757379D01*
X98221034Y-92702448D01*
X98177623Y-92669137D01*
X98043709Y-92613669D01*
X97900000Y-92594750D01*
X97756290Y-92613669D01*
X97622376Y-92669137D01*
X97507379Y-92757379D01*
X97419137Y-92872376D01*
X97363669Y-93006290D01*
X97344750Y-93149999D01*
X83000000Y-93149999D01*
X83000000Y-92169999D01*
X92944750Y-92169999D01*
X92963669Y-92313709D01*
X93019137Y-92447623D01*
X93019139Y-92447625D01*
X93107379Y-92562621D01*
X93173906Y-92613669D01*
X93222376Y-92650862D01*
X93356290Y-92706330D01*
X93373008Y-92708531D01*
X93500000Y-92725250D01*
X93643709Y-92706330D01*
X93643708Y-92706329D01*
X93777623Y-92650862D01*
X93777623Y-92650861D01*
X93777625Y-92650861D01*
X93892621Y-92562621D01*
X93908751Y-92541600D01*
X126433858Y-92541600D01*
X126453175Y-92737732D01*
X126510385Y-92926325D01*
X126603289Y-93100137D01*
X126728316Y-93252483D01*
X126880661Y-93377509D01*
X126880662Y-93377510D01*
X127054473Y-93470414D01*
X127148770Y-93499019D01*
X127243067Y-93527624D01*
X127439200Y-93546941D01*
X127635332Y-93527624D01*
X127823927Y-93470414D01*
X127997738Y-93377510D01*
X128150083Y-93252483D01*
X128275110Y-93100138D01*
X128368014Y-92926327D01*
X128425224Y-92737732D01*
X128444541Y-92541600D01*
X128425224Y-92345468D01*
X128368014Y-92156873D01*
X128275110Y-91983062D01*
X128275109Y-91983062D01*
X128150083Y-91830716D01*
X127997738Y-91705689D01*
X127898642Y-91652722D01*
X127847994Y-91602970D01*
X127832284Y-91533733D01*
X127856500Y-91466994D01*
X127898642Y-91430478D01*
X127997738Y-91377510D01*
X128150083Y-91252483D01*
X128181936Y-91213670D01*
X128275110Y-91100138D01*
X128368014Y-90926327D01*
X128425224Y-90737732D01*
X128444541Y-90541600D01*
X128425224Y-90345468D01*
X128407639Y-90287500D01*
X128368014Y-90156874D01*
X128368014Y-90156873D01*
X128275110Y-89983062D01*
X128159659Y-89842385D01*
X128150083Y-89830716D01*
X127997737Y-89705689D01*
X127823925Y-89612785D01*
X127635332Y-89555575D01*
X127541039Y-89546288D01*
X127475207Y-89519705D01*
X127437873Y-89466944D01*
X127412680Y-89511392D01*
X127349836Y-89544425D01*
X127337360Y-89546288D01*
X127243067Y-89555575D01*
X127054474Y-89612785D01*
X126880662Y-89705689D01*
X126728316Y-89830716D01*
X126603289Y-89983062D01*
X126510385Y-90156874D01*
X126453175Y-90345467D01*
X126433858Y-90541600D01*
X126453175Y-90737732D01*
X126510385Y-90926325D01*
X126603289Y-91100137D01*
X126728316Y-91252483D01*
X126880662Y-91377510D01*
X126979757Y-91430478D01*
X127030405Y-91480230D01*
X127046115Y-91549467D01*
X127021899Y-91616206D01*
X126979757Y-91652722D01*
X126880662Y-91705689D01*
X126728316Y-91830716D01*
X126603289Y-91983062D01*
X126510385Y-92156874D01*
X126453175Y-92345467D01*
X126433858Y-92541600D01*
X93908751Y-92541600D01*
X93980861Y-92447625D01*
X94036330Y-92313709D01*
X94055250Y-92170000D01*
X94036330Y-92026291D01*
X94036330Y-92026290D01*
X93980862Y-91892376D01*
X93964206Y-91870670D01*
X93892621Y-91777379D01*
X93799195Y-91705690D01*
X93777623Y-91689137D01*
X93643709Y-91633669D01*
X93500000Y-91614750D01*
X93356290Y-91633669D01*
X93222376Y-91689137D01*
X93107379Y-91777379D01*
X93019137Y-91892376D01*
X92963669Y-92026290D01*
X92944750Y-92169999D01*
X83000000Y-92169999D01*
X83000000Y-91169999D01*
X95344750Y-91169999D01*
X95363669Y-91313709D01*
X95419137Y-91447623D01*
X95438130Y-91472375D01*
X95507379Y-91562621D01*
X95577212Y-91616206D01*
X95622376Y-91650862D01*
X95756290Y-91706330D01*
X95773008Y-91708531D01*
X95900000Y-91725250D01*
X96043709Y-91706330D01*
X96177625Y-91650861D01*
X96292621Y-91562621D01*
X96380861Y-91447625D01*
X96387964Y-91430478D01*
X96436330Y-91313709D01*
X96440654Y-91280862D01*
X96455250Y-91170000D01*
X96436330Y-91026291D01*
X96436330Y-91026290D01*
X96380862Y-90892376D01*
X96364206Y-90870670D01*
X96309979Y-90800000D01*
X99794750Y-90800000D01*
X99813669Y-90943709D01*
X99869137Y-91077623D01*
X99902448Y-91121034D01*
X99957379Y-91192621D01*
X100035392Y-91252483D01*
X100072376Y-91280862D01*
X100191624Y-91330255D01*
X100246905Y-91374803D01*
X100269327Y-91442166D01*
X100259816Y-91494881D01*
X100213669Y-91606290D01*
X100194750Y-91750000D01*
X100213669Y-91893709D01*
X100269137Y-92027623D01*
X100269139Y-92027625D01*
X100357379Y-92142621D01*
X100450670Y-92214206D01*
X100472376Y-92230862D01*
X100606290Y-92286330D01*
X100623008Y-92288531D01*
X100750000Y-92305250D01*
X100893709Y-92286330D01*
X101027625Y-92230861D01*
X101142621Y-92142621D01*
X101230861Y-92027625D01*
X101286330Y-91893709D01*
X101305250Y-91750000D01*
X101286330Y-91606291D01*
X101285899Y-91605250D01*
X101230862Y-91472376D01*
X101196521Y-91427623D01*
X101142621Y-91357379D01*
X101027625Y-91269139D01*
X101027624Y-91269138D01*
X100908374Y-91219744D01*
X100853093Y-91175196D01*
X100830672Y-91107833D01*
X100840182Y-91055121D01*
X100886330Y-90943709D01*
X100900359Y-90837147D01*
X105259563Y-90837147D01*
X105272204Y-90845090D01*
X105444062Y-90905226D01*
X105625000Y-90925612D01*
X105805937Y-90905226D01*
X105977797Y-90845089D01*
X105990435Y-90837147D01*
X105990436Y-90837146D01*
X105625000Y-90471710D01*
X105624999Y-90471710D01*
X105259563Y-90837145D01*
X105259563Y-90837147D01*
X100900359Y-90837147D01*
X100905250Y-90800000D01*
X100886330Y-90656291D01*
X100886330Y-90656290D01*
X100830862Y-90522376D01*
X100791984Y-90471710D01*
X100742621Y-90407379D01*
X100667019Y-90349367D01*
X100627623Y-90319137D01*
X100493709Y-90263669D01*
X100350000Y-90244750D01*
X100206290Y-90263669D01*
X100072376Y-90319137D01*
X99957379Y-90407379D01*
X99869137Y-90522376D01*
X99813669Y-90656290D01*
X99794750Y-90800000D01*
X96309979Y-90800000D01*
X96292621Y-90777379D01*
X96221034Y-90722448D01*
X96177623Y-90689137D01*
X96043709Y-90633669D01*
X95900000Y-90614750D01*
X95756290Y-90633669D01*
X95622376Y-90689137D01*
X95507379Y-90777379D01*
X95419137Y-90892376D01*
X95363669Y-91026290D01*
X95344750Y-91169999D01*
X83000000Y-91169999D01*
X83000000Y-90112499D01*
X104811887Y-90112499D01*
X104832273Y-90293435D01*
X104892410Y-90465295D01*
X104900352Y-90477935D01*
X105265788Y-90112499D01*
X105244064Y-90090775D01*
X105446077Y-90090775D01*
X105456475Y-90176413D01*
X105505481Y-90247409D01*
X105581866Y-90287500D01*
X105646247Y-90287500D01*
X105708760Y-90272092D01*
X105773332Y-90214886D01*
X105803923Y-90134225D01*
X105793525Y-90048587D01*
X105744519Y-89977591D01*
X105668134Y-89937500D01*
X105603753Y-89937500D01*
X105541240Y-89952908D01*
X105476668Y-90010114D01*
X105446077Y-90090775D01*
X105244064Y-90090775D01*
X104900351Y-89747063D01*
X104892409Y-89759705D01*
X104832273Y-89931562D01*
X104811887Y-90112499D01*
X83000000Y-90112499D01*
X83000000Y-89474999D01*
X105346710Y-89474999D01*
X105625000Y-89753289D01*
X106262499Y-90390789D01*
X106262501Y-90390789D01*
X106562515Y-90090775D01*
X106721077Y-90090775D01*
X106731475Y-90176413D01*
X106780481Y-90247409D01*
X106856866Y-90287500D01*
X106921247Y-90287500D01*
X106983760Y-90272092D01*
X107048332Y-90214886D01*
X107078923Y-90134225D01*
X107068525Y-90048587D01*
X107019519Y-89977591D01*
X106943134Y-89937500D01*
X106878753Y-89937500D01*
X106816240Y-89952908D01*
X106751668Y-90010114D01*
X106721077Y-90090775D01*
X106562515Y-90090775D01*
X106810905Y-89842385D01*
X106873217Y-89808359D01*
X106944032Y-89813424D01*
X106989095Y-89842385D01*
X107170114Y-90023404D01*
X107204140Y-90085716D01*
X107199075Y-90156531D01*
X107170115Y-90201594D01*
X106534563Y-90837146D01*
X106534563Y-90837147D01*
X106547204Y-90845090D01*
X106719062Y-90905226D01*
X106894902Y-90925038D01*
X106960355Y-90952541D01*
X107000548Y-91011065D01*
X107005717Y-91066691D01*
X106994750Y-91149998D01*
X107013669Y-91293709D01*
X107069137Y-91427623D01*
X107099348Y-91466994D01*
X107157379Y-91542621D01*
X107236027Y-91602970D01*
X107272376Y-91630862D01*
X107406290Y-91686330D01*
X107425209Y-91688820D01*
X107550000Y-91705250D01*
X107693709Y-91686330D01*
X107779340Y-91650861D01*
X107827623Y-91630862D01*
X107827623Y-91630861D01*
X107827625Y-91630861D01*
X107942621Y-91542621D01*
X108030861Y-91427625D01*
X108086330Y-91293709D01*
X108105250Y-91150000D01*
X108093916Y-91063914D01*
X108104855Y-90993768D01*
X108151983Y-90940669D01*
X108204731Y-90922262D01*
X108254629Y-90916640D01*
X108324561Y-90928890D01*
X108376769Y-90977003D01*
X108391545Y-91033690D01*
X108392585Y-91033554D01*
X108393681Y-91041885D01*
X108394677Y-91045703D01*
X108394489Y-91048020D01*
X108413669Y-91193709D01*
X108469137Y-91327623D01*
X108491970Y-91357379D01*
X108557379Y-91442621D01*
X108650670Y-91514206D01*
X108672376Y-91530862D01*
X108806290Y-91586330D01*
X108823008Y-91588531D01*
X108950000Y-91605250D01*
X109093709Y-91586330D01*
X109227623Y-91530862D01*
X109227623Y-91530861D01*
X109227625Y-91530861D01*
X109342621Y-91442621D01*
X109430861Y-91327625D01*
X109486330Y-91193709D01*
X109505250Y-91050000D01*
X109488433Y-90922262D01*
X109486330Y-90906290D01*
X109430862Y-90772376D01*
X109366991Y-90689139D01*
X109342621Y-90657379D01*
X109261002Y-90594750D01*
X109227623Y-90569137D01*
X109093709Y-90513669D01*
X109053281Y-90508347D01*
X108988354Y-90479624D01*
X108949263Y-90420358D01*
X108948418Y-90349367D01*
X108950799Y-90341808D01*
X108967726Y-90293433D01*
X108988112Y-90112500D01*
X108967726Y-89931562D01*
X108907590Y-89759704D01*
X108899647Y-89747063D01*
X108899646Y-89747063D01*
X108264094Y-90382615D01*
X108201782Y-90416640D01*
X108130966Y-90411575D01*
X108085904Y-90382614D01*
X107904885Y-90201595D01*
X107870859Y-90139283D01*
X107874329Y-90090775D01*
X107996077Y-90090775D01*
X108006475Y-90176413D01*
X108055481Y-90247409D01*
X108131866Y-90287500D01*
X108196247Y-90287500D01*
X108258760Y-90272092D01*
X108323332Y-90214886D01*
X108353923Y-90134225D01*
X108343525Y-90048587D01*
X108294519Y-89977591D01*
X108218134Y-89937500D01*
X108153753Y-89937500D01*
X108091240Y-89952908D01*
X108026668Y-90010114D01*
X107996077Y-90090775D01*
X107874329Y-90090775D01*
X107875924Y-90068468D01*
X107904885Y-90023405D01*
X108453288Y-89475001D01*
X108453288Y-89474999D01*
X107904884Y-88926594D01*
X107870859Y-88864282D01*
X107874328Y-88815775D01*
X107996077Y-88815775D01*
X108006475Y-88901413D01*
X108055481Y-88972409D01*
X108131866Y-89012500D01*
X108196247Y-89012500D01*
X108258760Y-88997092D01*
X108323332Y-88939886D01*
X108353923Y-88859225D01*
X108351285Y-88837499D01*
X108534210Y-88837499D01*
X108899646Y-89202936D01*
X108899647Y-89202935D01*
X108907589Y-89190297D01*
X108967726Y-89018437D01*
X108988112Y-88837500D01*
X108967726Y-88656562D01*
X108907590Y-88484704D01*
X108899647Y-88472063D01*
X108899645Y-88472063D01*
X108534210Y-88837499D01*
X108351285Y-88837499D01*
X108343525Y-88773587D01*
X108294519Y-88702591D01*
X108218134Y-88662500D01*
X108153753Y-88662500D01*
X108091240Y-88677908D01*
X108026668Y-88735114D01*
X107996077Y-88815775D01*
X107874328Y-88815775D01*
X107875924Y-88793466D01*
X107904885Y-88748403D01*
X108175000Y-88478289D01*
X108453289Y-88200000D01*
X108453289Y-88199999D01*
X108294889Y-88041599D01*
X126176395Y-88041599D01*
X126195580Y-88260884D01*
X126252550Y-88473505D01*
X126345579Y-88673003D01*
X126388000Y-88733586D01*
X126388002Y-88733586D01*
X126994355Y-88127233D01*
X126995527Y-88142865D01*
X127045087Y-88269141D01*
X127129665Y-88375199D01*
X127241747Y-88451616D01*
X127353822Y-88486186D01*
X126747212Y-89092796D01*
X126747212Y-89092798D01*
X126807795Y-89135220D01*
X127007294Y-89228249D01*
X127219914Y-89285219D01*
X127335990Y-89295374D01*
X127402108Y-89321237D01*
X127440590Y-89374379D01*
X127466712Y-89329446D01*
X127529913Y-89297101D01*
X127542409Y-89295374D01*
X127658485Y-89285219D01*
X127871104Y-89228249D01*
X128070605Y-89135219D01*
X128131186Y-89092798D01*
X128131186Y-89092797D01*
X127522515Y-88484125D01*
X127573338Y-88476465D01*
X127695557Y-88417607D01*
X127794998Y-88325340D01*
X127862825Y-88207860D01*
X127881750Y-88124939D01*
X128490397Y-88733586D01*
X128490398Y-88733586D01*
X128532819Y-88673005D01*
X128625849Y-88473504D01*
X128682819Y-88260884D01*
X128702004Y-88041600D01*
X128682819Y-87822315D01*
X128625849Y-87609695D01*
X128532820Y-87410197D01*
X128490398Y-87349612D01*
X128490396Y-87349612D01*
X127884044Y-87955963D01*
X127882873Y-87940335D01*
X127833313Y-87814059D01*
X127748735Y-87708001D01*
X127636653Y-87631584D01*
X127524575Y-87597013D01*
X128131186Y-86990401D01*
X128131186Y-86990400D01*
X128070603Y-86947979D01*
X127871105Y-86854950D01*
X127658484Y-86797980D01*
X127439199Y-86778795D01*
X127219915Y-86797980D01*
X127007292Y-86854951D01*
X126807798Y-86947978D01*
X126747211Y-86990401D01*
X127355884Y-87599074D01*
X127305062Y-87606735D01*
X127182843Y-87665593D01*
X127083402Y-87757860D01*
X127015575Y-87875340D01*
X126996649Y-87958259D01*
X126388000Y-87349611D01*
X126345578Y-87410198D01*
X126252551Y-87609692D01*
X126195580Y-87822315D01*
X126176395Y-88041599D01*
X108294889Y-88041599D01*
X108175000Y-87921710D01*
X107794066Y-87540775D01*
X107996077Y-87540775D01*
X108006475Y-87626413D01*
X108055481Y-87697409D01*
X108131866Y-87737500D01*
X108196247Y-87737500D01*
X108258760Y-87722092D01*
X108323332Y-87664886D01*
X108353923Y-87584225D01*
X108351285Y-87562499D01*
X108534210Y-87562499D01*
X108899646Y-87927936D01*
X108899647Y-87927935D01*
X108907589Y-87915297D01*
X108967726Y-87743437D01*
X108988112Y-87562500D01*
X108967726Y-87381562D01*
X108907590Y-87209704D01*
X108899647Y-87197063D01*
X108899645Y-87197063D01*
X108534210Y-87562499D01*
X108351285Y-87562499D01*
X108343525Y-87498587D01*
X108294519Y-87427591D01*
X108218134Y-87387500D01*
X108153753Y-87387500D01*
X108091240Y-87402908D01*
X108026668Y-87460114D01*
X107996077Y-87540775D01*
X107794066Y-87540775D01*
X107537501Y-87284210D01*
X107537500Y-87284210D01*
X106989094Y-87832615D01*
X106926782Y-87866640D01*
X106855966Y-87861575D01*
X106810903Y-87832614D01*
X106519065Y-87540775D01*
X106721077Y-87540775D01*
X106731475Y-87626413D01*
X106780481Y-87697409D01*
X106856866Y-87737500D01*
X106921247Y-87737500D01*
X106983760Y-87722092D01*
X107048332Y-87664886D01*
X107078923Y-87584225D01*
X107068525Y-87498587D01*
X107019519Y-87427591D01*
X106943134Y-87387500D01*
X106878753Y-87387500D01*
X106816240Y-87402908D01*
X106751668Y-87460114D01*
X106721077Y-87540775D01*
X106519065Y-87540775D01*
X106262500Y-87284210D01*
X105625001Y-87921710D01*
X105346710Y-88199999D01*
X105625000Y-88478289D01*
X105895114Y-88748404D01*
X105929140Y-88810716D01*
X105924075Y-88881531D01*
X105895115Y-88926594D01*
X105346710Y-89474999D01*
X83000000Y-89474999D01*
X83000000Y-88837499D01*
X104811887Y-88837499D01*
X104832273Y-89018435D01*
X104892410Y-89190295D01*
X104900352Y-89202935D01*
X105265788Y-88837499D01*
X105244064Y-88815775D01*
X105446077Y-88815775D01*
X105456475Y-88901413D01*
X105505481Y-88972409D01*
X105581866Y-89012500D01*
X105646247Y-89012500D01*
X105708760Y-88997092D01*
X105773332Y-88939886D01*
X105803923Y-88859225D01*
X105793525Y-88773587D01*
X105744519Y-88702591D01*
X105668134Y-88662500D01*
X105603753Y-88662500D01*
X105541240Y-88677908D01*
X105476668Y-88735114D01*
X105446077Y-88815775D01*
X105244064Y-88815775D01*
X104900351Y-88472063D01*
X104892409Y-88484705D01*
X104832273Y-88656562D01*
X104811887Y-88837499D01*
X83000000Y-88837499D01*
X83000000Y-87562499D01*
X104811887Y-87562499D01*
X104832273Y-87743435D01*
X104892410Y-87915295D01*
X104900352Y-87927935D01*
X105265788Y-87562499D01*
X105244064Y-87540775D01*
X105446077Y-87540775D01*
X105456475Y-87626413D01*
X105505481Y-87697409D01*
X105581866Y-87737500D01*
X105646247Y-87737500D01*
X105708760Y-87722092D01*
X105773332Y-87664886D01*
X105803923Y-87584225D01*
X105793525Y-87498587D01*
X105744519Y-87427591D01*
X105668134Y-87387500D01*
X105603753Y-87387500D01*
X105541240Y-87402908D01*
X105476668Y-87460114D01*
X105446077Y-87540775D01*
X105244064Y-87540775D01*
X104900351Y-87197063D01*
X104892409Y-87209705D01*
X104832273Y-87381562D01*
X104811887Y-87562499D01*
X83000000Y-87562499D01*
X83000000Y-86837852D01*
X105259563Y-86837852D01*
X105624999Y-87203289D01*
X105625000Y-87203289D01*
X105990436Y-86837852D01*
X105990434Y-86837851D01*
X106534563Y-86837851D01*
X106899999Y-87203288D01*
X107265435Y-86837852D01*
X107265433Y-86837851D01*
X107809563Y-86837851D01*
X108174999Y-87203288D01*
X108540435Y-86837852D01*
X108527795Y-86829910D01*
X108355935Y-86769773D01*
X108175000Y-86749387D01*
X107994062Y-86769773D01*
X107822205Y-86829909D01*
X107809563Y-86837851D01*
X107265433Y-86837851D01*
X107252795Y-86829910D01*
X107080935Y-86769773D01*
X106900000Y-86749387D01*
X106719062Y-86769773D01*
X106547205Y-86829909D01*
X106534563Y-86837851D01*
X105990434Y-86837851D01*
X105977795Y-86829910D01*
X105805935Y-86769773D01*
X105625000Y-86749387D01*
X105444062Y-86769773D01*
X105272205Y-86829909D01*
X105259563Y-86837852D01*
X83000000Y-86837852D01*
X83000000Y-83886999D01*
X84142285Y-83886999D01*
X84161103Y-84090085D01*
X84208455Y-84256507D01*
X84216918Y-84286250D01*
X84307827Y-84468821D01*
X84430736Y-84631579D01*
X84581459Y-84768981D01*
X84581461Y-84768982D01*
X84581462Y-84768983D01*
X84754859Y-84876346D01*
X84754861Y-84876346D01*
X84754863Y-84876348D01*
X84945044Y-84950024D01*
X85145524Y-84987500D01*
X85145526Y-84987500D01*
X85349474Y-84987500D01*
X85349476Y-84987500D01*
X85549956Y-84950024D01*
X85740137Y-84876348D01*
X85913541Y-84768981D01*
X85921556Y-84761674D01*
X86687000Y-84761674D01*
X86701534Y-84834740D01*
X86756899Y-84917601D01*
X86839760Y-84972966D01*
X86912826Y-84987500D01*
X86912827Y-84987500D01*
X88662173Y-84987500D01*
X88662174Y-84987500D01*
X88735240Y-84972966D01*
X88818101Y-84917601D01*
X88873466Y-84834740D01*
X88888000Y-84761674D01*
X88888000Y-84545898D01*
X128086685Y-84545898D01*
X128105310Y-84818193D01*
X128106478Y-84826692D01*
X128162011Y-85093928D01*
X128164326Y-85102193D01*
X128255727Y-85359372D01*
X128259149Y-85367248D01*
X128384712Y-85609574D01*
X128389179Y-85616920D01*
X128523864Y-85807725D01*
X129248205Y-85083383D01*
X129271932Y-85127772D01*
X129403145Y-85287655D01*
X129563028Y-85418868D01*
X129607414Y-85442593D01*
X128884372Y-86165635D01*
X128884373Y-86165636D01*
X128956283Y-86224139D01*
X128963292Y-86229086D01*
X129196501Y-86370904D01*
X129204118Y-86374851D01*
X129454459Y-86483589D01*
X129462550Y-86486464D01*
X129725362Y-86560101D01*
X129733780Y-86561850D01*
X130004160Y-86599013D01*
X130012734Y-86599600D01*
X130285666Y-86599600D01*
X130294239Y-86599013D01*
X130564619Y-86561850D01*
X130573037Y-86560101D01*
X130835849Y-86486464D01*
X130843940Y-86483589D01*
X131094281Y-86374851D01*
X131101898Y-86370904D01*
X131335102Y-86229089D01*
X131342122Y-86224134D01*
X131414025Y-86165636D01*
X131414025Y-86165635D01*
X130690984Y-85442593D01*
X130735372Y-85418868D01*
X130895255Y-85287655D01*
X131026468Y-85127772D01*
X131050194Y-85083383D01*
X131774535Y-85807724D01*
X131909220Y-85616920D01*
X131913687Y-85609574D01*
X132039250Y-85367248D01*
X132042672Y-85359372D01*
X132134073Y-85102193D01*
X132136388Y-85093928D01*
X132191921Y-84826692D01*
X132193089Y-84818193D01*
X132211714Y-84545898D01*
X132211714Y-84537301D01*
X132193089Y-84265006D01*
X132191921Y-84256507D01*
X132136388Y-83989271D01*
X132134073Y-83981006D01*
X132042672Y-83723827D01*
X132039250Y-83715951D01*
X131913687Y-83473625D01*
X131909220Y-83466279D01*
X131774534Y-83275474D01*
X131050193Y-83999814D01*
X131026468Y-83955428D01*
X130895255Y-83795545D01*
X130735372Y-83664332D01*
X130690983Y-83640605D01*
X131414026Y-82917563D01*
X131414025Y-82917562D01*
X131342116Y-82859060D01*
X131335107Y-82854113D01*
X131101898Y-82712295D01*
X131094281Y-82708348D01*
X130843940Y-82599610D01*
X130835849Y-82596735D01*
X130573037Y-82523098D01*
X130564619Y-82521349D01*
X130294239Y-82484186D01*
X130285666Y-82483600D01*
X130012734Y-82483600D01*
X130004160Y-82484186D01*
X129733780Y-82521349D01*
X129725362Y-82523098D01*
X129462550Y-82596735D01*
X129454459Y-82599610D01*
X129204118Y-82708348D01*
X129196501Y-82712295D01*
X128963292Y-82854113D01*
X128956279Y-82859063D01*
X128884373Y-82917562D01*
X128884372Y-82917564D01*
X129607414Y-83640606D01*
X129563028Y-83664332D01*
X129403145Y-83795545D01*
X129271932Y-83955428D01*
X129248206Y-83999815D01*
X128523864Y-83275473D01*
X128389179Y-83466280D01*
X128384709Y-83473631D01*
X128259149Y-83715951D01*
X128255727Y-83723827D01*
X128164326Y-83981006D01*
X128162011Y-83989271D01*
X128106478Y-84256507D01*
X128105310Y-84265006D01*
X128086685Y-84537301D01*
X128086685Y-84545898D01*
X88888000Y-84545898D01*
X88888000Y-83950000D01*
X98044750Y-83950000D01*
X98063669Y-84093709D01*
X98119137Y-84227623D01*
X98119139Y-84227625D01*
X98207379Y-84342621D01*
X98300670Y-84414206D01*
X98322376Y-84430862D01*
X98456290Y-84486330D01*
X98473008Y-84488531D01*
X98600000Y-84505250D01*
X98743709Y-84486330D01*
X98877625Y-84430861D01*
X98992621Y-84342621D01*
X99080861Y-84227625D01*
X99136330Y-84093709D01*
X99155250Y-83950000D01*
X99136330Y-83806291D01*
X99098911Y-83715951D01*
X99080862Y-83672376D01*
X99049006Y-83630861D01*
X98992621Y-83557379D01*
X98901879Y-83487750D01*
X98877623Y-83469137D01*
X98743709Y-83413669D01*
X98616717Y-83396951D01*
X98600000Y-83394750D01*
X98599999Y-83394750D01*
X98456290Y-83413669D01*
X98322376Y-83469137D01*
X98207379Y-83557379D01*
X98119137Y-83672376D01*
X98063669Y-83806290D01*
X98044750Y-83950000D01*
X88888000Y-83950000D01*
X88888000Y-83149999D01*
X95094750Y-83149999D01*
X95113669Y-83293709D01*
X95169137Y-83427623D01*
X95169139Y-83427625D01*
X95257379Y-83542621D01*
X95350670Y-83614206D01*
X95372376Y-83630862D01*
X95506290Y-83686330D01*
X95525209Y-83688820D01*
X95650000Y-83705250D01*
X95793709Y-83686330D01*
X95799542Y-83683914D01*
X95927623Y-83630862D01*
X95927623Y-83630861D01*
X95927625Y-83630861D01*
X96042621Y-83542621D01*
X96130861Y-83427625D01*
X96186330Y-83293709D01*
X96205250Y-83150000D01*
X96186330Y-83006291D01*
X96186330Y-83006290D01*
X96130862Y-82872376D01*
X96093723Y-82823976D01*
X96042621Y-82757379D01*
X95971034Y-82702448D01*
X95927623Y-82669137D01*
X95793709Y-82613669D01*
X95665077Y-82596735D01*
X95650000Y-82594750D01*
X95649999Y-82594750D01*
X95506290Y-82613669D01*
X95372376Y-82669137D01*
X95257379Y-82757379D01*
X95169137Y-82872376D01*
X95113669Y-83006290D01*
X95094750Y-83149999D01*
X88888000Y-83149999D01*
X88888000Y-83012326D01*
X88873466Y-82939260D01*
X88818101Y-82856399D01*
X88735240Y-82801034D01*
X88662174Y-82786500D01*
X86912826Y-82786500D01*
X86839760Y-82801034D01*
X86756899Y-82856399D01*
X86701534Y-82939260D01*
X86687000Y-83012326D01*
X86687000Y-84761674D01*
X85921556Y-84761674D01*
X86064264Y-84631579D01*
X86187173Y-84468821D01*
X86278082Y-84286250D01*
X86333897Y-84090083D01*
X86352715Y-83887000D01*
X86333897Y-83683917D01*
X86278082Y-83487750D01*
X86187173Y-83305179D01*
X86064264Y-83142421D01*
X85913541Y-83005019D01*
X85913538Y-83005017D01*
X85913537Y-83005016D01*
X85740140Y-82897653D01*
X85549956Y-82823976D01*
X85349476Y-82786500D01*
X85145524Y-82786500D01*
X85067774Y-82801034D01*
X84945043Y-82823976D01*
X84754859Y-82897653D01*
X84581462Y-83005016D01*
X84430735Y-83142422D01*
X84307828Y-83305177D01*
X84216917Y-83487752D01*
X84161103Y-83683914D01*
X84142285Y-83886999D01*
X83000000Y-83886999D01*
X83000000Y-81346999D01*
X84142285Y-81346999D01*
X84161103Y-81550085D01*
X84216917Y-81746247D01*
X84216918Y-81746250D01*
X84307827Y-81928821D01*
X84430736Y-82091579D01*
X84581459Y-82228981D01*
X84581461Y-82228982D01*
X84581462Y-82228983D01*
X84754859Y-82336346D01*
X84754861Y-82336346D01*
X84754863Y-82336348D01*
X84945044Y-82410024D01*
X85145524Y-82447500D01*
X85145526Y-82447500D01*
X85349474Y-82447500D01*
X85349476Y-82447500D01*
X85549956Y-82410024D01*
X85740137Y-82336348D01*
X85913541Y-82228981D01*
X86064264Y-82091579D01*
X86187173Y-81928821D01*
X86278082Y-81746250D01*
X86333897Y-81550083D01*
X86352715Y-81347000D01*
X86682285Y-81347000D01*
X86701103Y-81550085D01*
X86756917Y-81746247D01*
X86756918Y-81746250D01*
X86847827Y-81928821D01*
X86970736Y-82091579D01*
X87121459Y-82228981D01*
X87121461Y-82228982D01*
X87121462Y-82228983D01*
X87294859Y-82336346D01*
X87294861Y-82336346D01*
X87294863Y-82336348D01*
X87485044Y-82410024D01*
X87685524Y-82447500D01*
X87685526Y-82447500D01*
X87889474Y-82447500D01*
X87889476Y-82447500D01*
X88089956Y-82410024D01*
X88280137Y-82336348D01*
X88453541Y-82228981D01*
X88604264Y-82091579D01*
X88727173Y-81928821D01*
X88818082Y-81746250D01*
X88873897Y-81550083D01*
X88892715Y-81347000D01*
X88873897Y-81143917D01*
X88818082Y-80947750D01*
X88727173Y-80765179D01*
X88677952Y-80700000D01*
X116194750Y-80700000D01*
X116213669Y-80843709D01*
X116269137Y-80977623D01*
X116269139Y-80977625D01*
X116357379Y-81092621D01*
X116424225Y-81143914D01*
X116472376Y-81180862D01*
X116606290Y-81236330D01*
X116623008Y-81238531D01*
X116750000Y-81255250D01*
X116893709Y-81236330D01*
X117027625Y-81180861D01*
X117142621Y-81092621D01*
X117230861Y-80977625D01*
X117243236Y-80947750D01*
X117286330Y-80843709D01*
X117286329Y-80843708D01*
X117305250Y-80700000D01*
X117286330Y-80556291D01*
X117286330Y-80556290D01*
X117230862Y-80422376D01*
X117214206Y-80400670D01*
X117142621Y-80307379D01*
X117063282Y-80246500D01*
X117027623Y-80219137D01*
X116893709Y-80163669D01*
X116750000Y-80144750D01*
X116606290Y-80163669D01*
X116472376Y-80219137D01*
X116357379Y-80307379D01*
X116269137Y-80422376D01*
X116213669Y-80556290D01*
X116194750Y-80700000D01*
X88677952Y-80700000D01*
X88604264Y-80602421D01*
X88453541Y-80465019D01*
X88453538Y-80465017D01*
X88453537Y-80465016D01*
X88280140Y-80357653D01*
X88089956Y-80283976D01*
X88089955Y-80283976D01*
X87889476Y-80246500D01*
X87685524Y-80246500D01*
X87551870Y-80271484D01*
X87485043Y-80283976D01*
X87294859Y-80357653D01*
X87121462Y-80465016D01*
X86970735Y-80602422D01*
X86847828Y-80765177D01*
X86756917Y-80947752D01*
X86701103Y-81143914D01*
X86682285Y-81347000D01*
X86352715Y-81347000D01*
X86333897Y-81143917D01*
X86278082Y-80947750D01*
X86187173Y-80765179D01*
X86064264Y-80602421D01*
X85913541Y-80465019D01*
X85913538Y-80465017D01*
X85913537Y-80465016D01*
X85740140Y-80357653D01*
X85549956Y-80283976D01*
X85349476Y-80246500D01*
X85145524Y-80246500D01*
X85011870Y-80271484D01*
X84945043Y-80283976D01*
X84754859Y-80357653D01*
X84581462Y-80465016D01*
X84430735Y-80602422D01*
X84307828Y-80765177D01*
X84216917Y-80947752D01*
X84161103Y-81143914D01*
X84142285Y-81346999D01*
X83000000Y-81346999D01*
X83000000Y-78806999D01*
X84142285Y-78806999D01*
X84161103Y-79010085D01*
X84188477Y-79106291D01*
X84216918Y-79206250D01*
X84307827Y-79388821D01*
X84430736Y-79551579D01*
X84581459Y-79688981D01*
X84581461Y-79688982D01*
X84581462Y-79688983D01*
X84754859Y-79796346D01*
X84754861Y-79796346D01*
X84754863Y-79796348D01*
X84945044Y-79870024D01*
X85145524Y-79907500D01*
X85145526Y-79907500D01*
X85349474Y-79907500D01*
X85349476Y-79907500D01*
X85549956Y-79870024D01*
X85740137Y-79796348D01*
X85913541Y-79688981D01*
X86064264Y-79551579D01*
X86187173Y-79388821D01*
X86278082Y-79206250D01*
X86333897Y-79010083D01*
X86352715Y-78807000D01*
X86682285Y-78807000D01*
X86701103Y-79010085D01*
X86728477Y-79106291D01*
X86756918Y-79206250D01*
X86847827Y-79388821D01*
X86970736Y-79551579D01*
X87121459Y-79688981D01*
X87121461Y-79688982D01*
X87121462Y-79688983D01*
X87294859Y-79796346D01*
X87294861Y-79796346D01*
X87294863Y-79796348D01*
X87485044Y-79870024D01*
X87685524Y-79907500D01*
X87685526Y-79907500D01*
X87889474Y-79907500D01*
X87889476Y-79907500D01*
X88089956Y-79870024D01*
X88280137Y-79796348D01*
X88453541Y-79688981D01*
X88604264Y-79551579D01*
X88727173Y-79388821D01*
X88796297Y-79250000D01*
X122644750Y-79250000D01*
X122663669Y-79393709D01*
X122719137Y-79527623D01*
X122752448Y-79571034D01*
X122807379Y-79642621D01*
X122867799Y-79688983D01*
X122922376Y-79730862D01*
X123056290Y-79786330D01*
X123073008Y-79788531D01*
X123200000Y-79805250D01*
X123343709Y-79786330D01*
X123477625Y-79730861D01*
X123592621Y-79642621D01*
X123680861Y-79527625D01*
X123736330Y-79393709D01*
X123755250Y-79250000D01*
X123736330Y-79106291D01*
X123696480Y-79010083D01*
X123680862Y-78972376D01*
X123664206Y-78950670D01*
X123592621Y-78857379D01*
X123521034Y-78802448D01*
X123477623Y-78769137D01*
X123343709Y-78713669D01*
X123216717Y-78696951D01*
X123200000Y-78694750D01*
X123199999Y-78694750D01*
X123056290Y-78713669D01*
X122922376Y-78769137D01*
X122807379Y-78857379D01*
X122719137Y-78972376D01*
X122663669Y-79106290D01*
X122644750Y-79250000D01*
X88796297Y-79250000D01*
X88818082Y-79206250D01*
X88873897Y-79010083D01*
X88892715Y-78807000D01*
X88873897Y-78603917D01*
X88818082Y-78407750D01*
X88727173Y-78225179D01*
X88604264Y-78062421D01*
X88453541Y-77925019D01*
X88453538Y-77925017D01*
X88453537Y-77925016D01*
X88280140Y-77817653D01*
X88089956Y-77743976D01*
X88089955Y-77743976D01*
X87889476Y-77706500D01*
X87685524Y-77706500D01*
X87551870Y-77731484D01*
X87485043Y-77743976D01*
X87294859Y-77817653D01*
X87121462Y-77925016D01*
X86970735Y-78062422D01*
X86847828Y-78225177D01*
X86756917Y-78407752D01*
X86701103Y-78603914D01*
X86682285Y-78807000D01*
X86352715Y-78807000D01*
X86333897Y-78603917D01*
X86278082Y-78407750D01*
X86187173Y-78225179D01*
X86064264Y-78062421D01*
X85913541Y-77925019D01*
X85913538Y-77925017D01*
X85913537Y-77925016D01*
X85740140Y-77817653D01*
X85549956Y-77743976D01*
X85349476Y-77706500D01*
X85145524Y-77706500D01*
X85011870Y-77731484D01*
X84945043Y-77743976D01*
X84754859Y-77817653D01*
X84581462Y-77925016D01*
X84430735Y-78062422D01*
X84307828Y-78225177D01*
X84216917Y-78407752D01*
X84161103Y-78603914D01*
X84142285Y-78806999D01*
X83000000Y-78806999D01*
X83000000Y-73981000D01*
X83910955Y-73981000D01*
X83958677Y-74169451D01*
X84049080Y-74375548D01*
X84172178Y-74563962D01*
X84324596Y-74729533D01*
X84502197Y-74867766D01*
X84700131Y-74974883D01*
X84817174Y-75015064D01*
X84875109Y-75056101D01*
X84901661Y-75121946D01*
X84888400Y-75191693D01*
X84839535Y-75243198D01*
X84821779Y-75251728D01*
X84754862Y-75277651D01*
X84581462Y-75385016D01*
X84532140Y-75429979D01*
X84430787Y-75522375D01*
X84430735Y-75522422D01*
X84307828Y-75685177D01*
X84216917Y-75867752D01*
X84161103Y-76063914D01*
X84142285Y-76267000D01*
X84161103Y-76470085D01*
X84214539Y-76657888D01*
X84216918Y-76666250D01*
X84307827Y-76848821D01*
X84430736Y-77011579D01*
X84581459Y-77148981D01*
X84581461Y-77148982D01*
X84581462Y-77148983D01*
X84754859Y-77256346D01*
X84754861Y-77256346D01*
X84754863Y-77256348D01*
X84945044Y-77330024D01*
X85145524Y-77367500D01*
X85145526Y-77367500D01*
X85349474Y-77367500D01*
X85349476Y-77367500D01*
X85549956Y-77330024D01*
X85740137Y-77256348D01*
X85913541Y-77148981D01*
X86064264Y-77011579D01*
X86187173Y-76848821D01*
X86278082Y-76666250D01*
X86333897Y-76470083D01*
X86352715Y-76267000D01*
X86682285Y-76267000D01*
X86688501Y-76334086D01*
X86701103Y-76470085D01*
X86754539Y-76657888D01*
X86756918Y-76666250D01*
X86847827Y-76848821D01*
X86970736Y-77011579D01*
X87121459Y-77148981D01*
X87121461Y-77148982D01*
X87121462Y-77148983D01*
X87294859Y-77256346D01*
X87294861Y-77256346D01*
X87294863Y-77256348D01*
X87485044Y-77330024D01*
X87685524Y-77367500D01*
X87685526Y-77367500D01*
X87889474Y-77367500D01*
X87889476Y-77367500D01*
X88089956Y-77330024D01*
X88280137Y-77256348D01*
X88453541Y-77148981D01*
X88507271Y-77100000D01*
X96794750Y-77100000D01*
X96813669Y-77243709D01*
X96869137Y-77377623D01*
X96869139Y-77377625D01*
X96957379Y-77492621D01*
X97050670Y-77564206D01*
X97072376Y-77580862D01*
X97206290Y-77636330D01*
X97223008Y-77638531D01*
X97350000Y-77655250D01*
X97493709Y-77636330D01*
X97627625Y-77580861D01*
X97742621Y-77492621D01*
X97830861Y-77377625D01*
X97886330Y-77243709D01*
X97905250Y-77100000D01*
X97886330Y-76956291D01*
X97877089Y-76933981D01*
X97830862Y-76822376D01*
X97806596Y-76790752D01*
X97742621Y-76707379D01*
X97702393Y-76676511D01*
X105251919Y-76676511D01*
X105252222Y-76682684D01*
X105266503Y-76827689D01*
X105324142Y-77017695D01*
X105417742Y-77192809D01*
X105543706Y-77346298D01*
X105697195Y-77472262D01*
X105872306Y-77565861D01*
X106005919Y-77606391D01*
X106005919Y-76789736D01*
X106034376Y-76835696D01*
X106123881Y-76903287D01*
X106231759Y-76933981D01*
X106343440Y-76923632D01*
X106443841Y-76873638D01*
X106513919Y-76796767D01*
X106513919Y-77606391D01*
X106647531Y-77565861D01*
X106822642Y-77472262D01*
X106976131Y-77346298D01*
X107102095Y-77192809D01*
X107195695Y-77017695D01*
X107253334Y-76827689D01*
X107267615Y-76682684D01*
X107267918Y-76676511D01*
X107267918Y-76216887D01*
X107287920Y-76148766D01*
X107341575Y-76102273D01*
X107411849Y-76092169D01*
X107442130Y-76100476D01*
X107539708Y-76140894D01*
X107652222Y-76155707D01*
X107656344Y-76155707D01*
X107723540Y-76155707D01*
X107727662Y-76155707D01*
X107840176Y-76140894D01*
X107980172Y-76082906D01*
X108100389Y-75990660D01*
X108192635Y-75870443D01*
X108250623Y-75730447D01*
X108270402Y-75580213D01*
X112899423Y-75580213D01*
X112919201Y-75730446D01*
X112977190Y-75870444D01*
X113069435Y-75990660D01*
X113189651Y-76082905D01*
X113189652Y-76082905D01*
X113189653Y-76082906D01*
X113329649Y-76140894D01*
X113442163Y-76155707D01*
X113446285Y-76155707D01*
X113513481Y-76155707D01*
X113517603Y-76155707D01*
X113630117Y-76140894D01*
X113717782Y-76104581D01*
X113788372Y-76096993D01*
X113851859Y-76128772D01*
X113888086Y-76189830D01*
X113892000Y-76220991D01*
X113892000Y-76676511D01*
X113892303Y-76682684D01*
X113906584Y-76827689D01*
X113964223Y-77017695D01*
X114057823Y-77192809D01*
X114183787Y-77346298D01*
X114337276Y-77472262D01*
X114512387Y-77565861D01*
X114646000Y-77606391D01*
X114646000Y-76789736D01*
X114674457Y-76835696D01*
X114763962Y-76903287D01*
X114871840Y-76933981D01*
X114983521Y-76923632D01*
X115083922Y-76873638D01*
X115153999Y-76796767D01*
X115153999Y-77606391D01*
X115287612Y-77565861D01*
X115462723Y-77472262D01*
X115616212Y-77346298D01*
X115742176Y-77192809D01*
X115835776Y-77017695D01*
X115893415Y-76827689D01*
X115907696Y-76682684D01*
X115908000Y-76676511D01*
X115908000Y-76334086D01*
X115200000Y-76334086D01*
X115200000Y-75826086D01*
X115908000Y-75826086D01*
X115908000Y-75483660D01*
X115907696Y-75477487D01*
X115893415Y-75332482D01*
X115835776Y-75142476D01*
X115742176Y-74967362D01*
X115616212Y-74813873D01*
X115462723Y-74687909D01*
X115287609Y-74594309D01*
X115153999Y-74553778D01*
X115153999Y-75370434D01*
X115125543Y-75324476D01*
X115036038Y-75256885D01*
X114928160Y-75226191D01*
X114816479Y-75236540D01*
X114716078Y-75286534D01*
X114646000Y-75363404D01*
X114646000Y-74553779D01*
X114645999Y-74553778D01*
X114512390Y-74594309D01*
X114337276Y-74687909D01*
X114183787Y-74813873D01*
X114057824Y-74967360D01*
X114002393Y-75071065D01*
X113952640Y-75121713D01*
X113883404Y-75137422D01*
X113816665Y-75113206D01*
X113814567Y-75111630D01*
X113770115Y-75077520D01*
X113630116Y-75019531D01*
X113521691Y-75005257D01*
X113521687Y-75005256D01*
X113517603Y-75004719D01*
X113442163Y-75004719D01*
X113438079Y-75005256D01*
X113438074Y-75005257D01*
X113329649Y-75019531D01*
X113189651Y-75077520D01*
X113069435Y-75169765D01*
X112977190Y-75289981D01*
X112919201Y-75429979D01*
X112899423Y-75580213D01*
X108270402Y-75580213D01*
X108250623Y-75429979D01*
X108192635Y-75289983D01*
X108192634Y-75289982D01*
X108192634Y-75289981D01*
X108100389Y-75169765D01*
X107980173Y-75077520D01*
X107840175Y-75019531D01*
X107731750Y-75005257D01*
X107731746Y-75005256D01*
X107727662Y-75004719D01*
X107652222Y-75004719D01*
X107648138Y-75005256D01*
X107648133Y-75005257D01*
X107539708Y-75019531D01*
X107399709Y-75077520D01*
X107348231Y-75117021D01*
X107282010Y-75142621D01*
X107212462Y-75128356D01*
X107161666Y-75078754D01*
X107160406Y-75076454D01*
X107102095Y-74967362D01*
X106976131Y-74813873D01*
X106822642Y-74687909D01*
X106647528Y-74594309D01*
X106513919Y-74553778D01*
X106513918Y-75370435D01*
X106485462Y-75324476D01*
X106395957Y-75256885D01*
X106288079Y-75226191D01*
X106176398Y-75236540D01*
X106075997Y-75286534D01*
X106005919Y-75363404D01*
X106005919Y-74553779D01*
X106005918Y-74553778D01*
X105872309Y-74594309D01*
X105697195Y-74687909D01*
X105543706Y-74813873D01*
X105417742Y-74967362D01*
X105324142Y-75142476D01*
X105266503Y-75332482D01*
X105252222Y-75477487D01*
X105251919Y-75483660D01*
X105251919Y-75826086D01*
X105959919Y-75826086D01*
X105959919Y-76334086D01*
X105251919Y-76334086D01*
X105251919Y-76676511D01*
X97702393Y-76676511D01*
X97671034Y-76652448D01*
X97627623Y-76619137D01*
X97493709Y-76563669D01*
X97366717Y-76546951D01*
X97350000Y-76544750D01*
X97349999Y-76544750D01*
X97206290Y-76563669D01*
X97072376Y-76619137D01*
X96957379Y-76707379D01*
X96869137Y-76822376D01*
X96813669Y-76956290D01*
X96794750Y-77100000D01*
X88507271Y-77100000D01*
X88604264Y-77011579D01*
X88727173Y-76848821D01*
X88818082Y-76666250D01*
X88873897Y-76470083D01*
X88892715Y-76267000D01*
X88873897Y-76063917D01*
X88818082Y-75867750D01*
X88784347Y-75800000D01*
X91394750Y-75800000D01*
X91413669Y-75943709D01*
X91469137Y-76077623D01*
X91486675Y-76100478D01*
X91557379Y-76192621D01*
X91650670Y-76264206D01*
X91672376Y-76280862D01*
X91806290Y-76336330D01*
X91823008Y-76338531D01*
X91950000Y-76355250D01*
X92093709Y-76336330D01*
X92227625Y-76280861D01*
X92342621Y-76192621D01*
X92430861Y-76077625D01*
X92486330Y-75943709D01*
X92505250Y-75800000D01*
X92486330Y-75656291D01*
X92457084Y-75585683D01*
X92430862Y-75522376D01*
X92360336Y-75430466D01*
X92342621Y-75407379D01*
X92245014Y-75332482D01*
X92227623Y-75319137D01*
X92093709Y-75263669D01*
X91966717Y-75246951D01*
X91950000Y-75244750D01*
X91949999Y-75244750D01*
X91806290Y-75263669D01*
X91672376Y-75319137D01*
X91557379Y-75407379D01*
X91469137Y-75522376D01*
X91413669Y-75656290D01*
X91394750Y-75800000D01*
X88784347Y-75800000D01*
X88727173Y-75685179D01*
X88604264Y-75522421D01*
X88453541Y-75385019D01*
X88453538Y-75385017D01*
X88453537Y-75385016D01*
X88280140Y-75277653D01*
X88089956Y-75203976D01*
X88024247Y-75191693D01*
X87889476Y-75166500D01*
X87685524Y-75166500D01*
X87551870Y-75191484D01*
X87485043Y-75203976D01*
X87294859Y-75277653D01*
X87121462Y-75385016D01*
X87072140Y-75429979D01*
X86970787Y-75522375D01*
X86970735Y-75522422D01*
X86847828Y-75685177D01*
X86756917Y-75867752D01*
X86701103Y-76063914D01*
X86686548Y-76220991D01*
X86682285Y-76267000D01*
X86352715Y-76267000D01*
X86333897Y-76063917D01*
X86278082Y-75867750D01*
X86187173Y-75685179D01*
X86064264Y-75522421D01*
X85913541Y-75385019D01*
X85913538Y-75385017D01*
X85913537Y-75385016D01*
X85740140Y-75277653D01*
X85704042Y-75263669D01*
X85673220Y-75251728D01*
X85616925Y-75208469D01*
X85592955Y-75141642D01*
X85608919Y-75072463D01*
X85659750Y-75022897D01*
X85677825Y-75015064D01*
X85794868Y-74974883D01*
X85992802Y-74867766D01*
X86170403Y-74729533D01*
X86322821Y-74563962D01*
X86445919Y-74375548D01*
X86540516Y-74159891D01*
X86543598Y-74161243D01*
X86570586Y-74115530D01*
X86634003Y-74083611D01*
X86704609Y-74091044D01*
X86759988Y-74135470D01*
X86769438Y-74151396D01*
X86847825Y-74308818D01*
X86847826Y-74308819D01*
X86847827Y-74308821D01*
X86970736Y-74471579D01*
X87121459Y-74608981D01*
X87121461Y-74608982D01*
X87121462Y-74608983D01*
X87294859Y-74716346D01*
X87294861Y-74716346D01*
X87294863Y-74716348D01*
X87485044Y-74790024D01*
X87685524Y-74827500D01*
X87685526Y-74827500D01*
X87889474Y-74827500D01*
X87889476Y-74827500D01*
X88089956Y-74790024D01*
X88280137Y-74716348D01*
X88453541Y-74608981D01*
X88604264Y-74471579D01*
X88727173Y-74308821D01*
X88818082Y-74126250D01*
X88854004Y-74000000D01*
X93394551Y-74000000D01*
X93414317Y-74251148D01*
X93473127Y-74496111D01*
X93569535Y-74728862D01*
X93701163Y-74943658D01*
X93864775Y-75135224D01*
X94056341Y-75298836D01*
X94271137Y-75430464D01*
X94271139Y-75430464D01*
X94271141Y-75430466D01*
X94503889Y-75526873D01*
X94748852Y-75585683D01*
X94937118Y-75600500D01*
X94939587Y-75600500D01*
X95060413Y-75600500D01*
X95062882Y-75600500D01*
X95251148Y-75585683D01*
X95496111Y-75526873D01*
X95728859Y-75430466D01*
X95943659Y-75298836D01*
X96135224Y-75135224D01*
X96298836Y-74943659D01*
X96430466Y-74728859D01*
X96526873Y-74496111D01*
X96585683Y-74251148D01*
X96605449Y-74000000D01*
X96595585Y-73874672D01*
X120899499Y-73874672D01*
X120909137Y-73923121D01*
X120914034Y-73947740D01*
X120969399Y-74030601D01*
X121052260Y-74085966D01*
X121125326Y-74100500D01*
X121125327Y-74100500D01*
X122874673Y-74100500D01*
X122874674Y-74100500D01*
X122947740Y-74085966D01*
X123030601Y-74030601D01*
X123085966Y-73947740D01*
X123100500Y-73874674D01*
X123100500Y-72999999D01*
X123434785Y-72999999D01*
X123453603Y-73203085D01*
X123503061Y-73376909D01*
X123509418Y-73399250D01*
X123600327Y-73581821D01*
X123723236Y-73744579D01*
X123873959Y-73881981D01*
X123873961Y-73881982D01*
X123873962Y-73881983D01*
X124047359Y-73989346D01*
X124047361Y-73989346D01*
X124047363Y-73989348D01*
X124237544Y-74063024D01*
X124438024Y-74100500D01*
X124438026Y-74100500D01*
X124641974Y-74100500D01*
X124641976Y-74100500D01*
X124842456Y-74063024D01*
X125032637Y-73989348D01*
X125206041Y-73881981D01*
X125356764Y-73744579D01*
X125479673Y-73581821D01*
X125558061Y-73424394D01*
X125606329Y-73372333D01*
X125675084Y-73354630D01*
X125742494Y-73376909D01*
X125787158Y-73432096D01*
X125788805Y-73437042D01*
X125881580Y-73648548D01*
X126004678Y-73836962D01*
X126157096Y-74002533D01*
X126334697Y-74140766D01*
X126532631Y-74247883D01*
X126745485Y-74320955D01*
X126826000Y-74334391D01*
X126826000Y-73433674D01*
X126937685Y-73484680D01*
X127044237Y-73500000D01*
X127115763Y-73500000D01*
X127222315Y-73484680D01*
X127333999Y-73433675D01*
X127333999Y-74334390D01*
X127414514Y-74320955D01*
X127627368Y-74247883D01*
X127825302Y-74140766D01*
X128002903Y-74002533D01*
X128155321Y-73836962D01*
X128278419Y-73648548D01*
X128373016Y-73432891D01*
X128376098Y-73434243D01*
X128403086Y-73388530D01*
X128466503Y-73356611D01*
X128537109Y-73364044D01*
X128592488Y-73408470D01*
X128601938Y-73424396D01*
X128680325Y-73581818D01*
X128680326Y-73581819D01*
X128680327Y-73581821D01*
X128803236Y-73744579D01*
X128953959Y-73881981D01*
X128953961Y-73881982D01*
X128953962Y-73881983D01*
X129127359Y-73989346D01*
X129127361Y-73989346D01*
X129127363Y-73989348D01*
X129317544Y-74063024D01*
X129518024Y-74100500D01*
X129518026Y-74100500D01*
X129721974Y-74100500D01*
X129721976Y-74100500D01*
X129922456Y-74063024D01*
X130085141Y-74000000D01*
X133394551Y-74000000D01*
X133414317Y-74251148D01*
X133473127Y-74496111D01*
X133569535Y-74728862D01*
X133701163Y-74943658D01*
X133864775Y-75135224D01*
X134056341Y-75298836D01*
X134271137Y-75430464D01*
X134271139Y-75430464D01*
X134271141Y-75430466D01*
X134503889Y-75526873D01*
X134748852Y-75585683D01*
X134937118Y-75600500D01*
X134939587Y-75600500D01*
X135060413Y-75600500D01*
X135062882Y-75600500D01*
X135251148Y-75585683D01*
X135496111Y-75526873D01*
X135728859Y-75430466D01*
X135943659Y-75298836D01*
X136135224Y-75135224D01*
X136298836Y-74943659D01*
X136430466Y-74728859D01*
X136526873Y-74496111D01*
X136585683Y-74251148D01*
X136605449Y-74000000D01*
X136585683Y-73748852D01*
X136526873Y-73503889D01*
X136430466Y-73271141D01*
X136417510Y-73249999D01*
X136298836Y-73056341D01*
X136135224Y-72864775D01*
X135943658Y-72701163D01*
X135728862Y-72569535D01*
X135496111Y-72473127D01*
X135251148Y-72414317D01*
X135065338Y-72399693D01*
X135065330Y-72399692D01*
X135062882Y-72399500D01*
X134937118Y-72399500D01*
X134934670Y-72399692D01*
X134934661Y-72399693D01*
X134748851Y-72414317D01*
X134503888Y-72473127D01*
X134271137Y-72569535D01*
X134056341Y-72701163D01*
X133864775Y-72864775D01*
X133701163Y-73056341D01*
X133569535Y-73271137D01*
X133473127Y-73503888D01*
X133414317Y-73748851D01*
X133394551Y-74000000D01*
X130085141Y-74000000D01*
X130112637Y-73989348D01*
X130286041Y-73881981D01*
X130436764Y-73744579D01*
X130559673Y-73581821D01*
X130650582Y-73399250D01*
X130706397Y-73203083D01*
X130725215Y-73000000D01*
X130706397Y-72796917D01*
X130650582Y-72600750D01*
X130559673Y-72418179D01*
X130436764Y-72255421D01*
X130286041Y-72118019D01*
X130286038Y-72118017D01*
X130286037Y-72118016D01*
X130112640Y-72010653D01*
X129922456Y-71936976D01*
X129721976Y-71899500D01*
X129518024Y-71899500D01*
X129440274Y-71914034D01*
X129317543Y-71936976D01*
X129127359Y-72010653D01*
X128953962Y-72118016D01*
X128803235Y-72255422D01*
X128680327Y-72418179D01*
X128601938Y-72575604D01*
X128553669Y-72627667D01*
X128484914Y-72645369D01*
X128417504Y-72623089D01*
X128372840Y-72567902D01*
X128371193Y-72562953D01*
X128278419Y-72351451D01*
X128155321Y-72163037D01*
X128002903Y-71997466D01*
X127825302Y-71859233D01*
X127627368Y-71752116D01*
X127414510Y-71679042D01*
X127334000Y-71665606D01*
X127333999Y-72566325D01*
X127222315Y-72515320D01*
X127115763Y-72500000D01*
X127044237Y-72500000D01*
X126937685Y-72515320D01*
X126826000Y-72566325D01*
X126826000Y-71665606D01*
X126825999Y-71665606D01*
X126745489Y-71679042D01*
X126532631Y-71752116D01*
X126334697Y-71859233D01*
X126157096Y-71997466D01*
X126004678Y-72163037D01*
X125881580Y-72351451D01*
X125786984Y-72567109D01*
X125783905Y-72565758D01*
X125756876Y-72611503D01*
X125693447Y-72643397D01*
X125622843Y-72635936D01*
X125567482Y-72591488D01*
X125558060Y-72575603D01*
X125556864Y-72573201D01*
X125479673Y-72418179D01*
X125356764Y-72255421D01*
X125206041Y-72118019D01*
X125206038Y-72118017D01*
X125206037Y-72118016D01*
X125032640Y-72010653D01*
X124842456Y-71936976D01*
X124641976Y-71899500D01*
X124438024Y-71899500D01*
X124360274Y-71914034D01*
X124237543Y-71936976D01*
X124047359Y-72010653D01*
X123873962Y-72118016D01*
X123723235Y-72255422D01*
X123600328Y-72418177D01*
X123509417Y-72600752D01*
X123453603Y-72796914D01*
X123434785Y-72999999D01*
X123100500Y-72999999D01*
X123100500Y-72125326D01*
X123085966Y-72052260D01*
X123030601Y-71969399D01*
X122947740Y-71914034D01*
X122874674Y-71899500D01*
X121125326Y-71899500D01*
X121052259Y-71914034D01*
X121052260Y-71914034D01*
X120969399Y-71969399D01*
X120914034Y-72052260D01*
X120899499Y-72125327D01*
X120899499Y-73874672D01*
X96595585Y-73874672D01*
X96585683Y-73748852D01*
X96526873Y-73503889D01*
X96430466Y-73271141D01*
X96417510Y-73249999D01*
X96298836Y-73056341D01*
X96135224Y-72864775D01*
X95943658Y-72701163D01*
X95728862Y-72569535D01*
X95496111Y-72473127D01*
X95251148Y-72414317D01*
X95065338Y-72399693D01*
X95065330Y-72399692D01*
X95062882Y-72399500D01*
X94937118Y-72399500D01*
X94934670Y-72399692D01*
X94934661Y-72399693D01*
X94748851Y-72414317D01*
X94503888Y-72473127D01*
X94271137Y-72569535D01*
X94056341Y-72701163D01*
X93864775Y-72864775D01*
X93701163Y-73056341D01*
X93569535Y-73271137D01*
X93473127Y-73503888D01*
X93414317Y-73748851D01*
X93394551Y-74000000D01*
X88854004Y-74000000D01*
X88873897Y-73930083D01*
X88892715Y-73727000D01*
X88873897Y-73523917D01*
X88818082Y-73327750D01*
X88727173Y-73145179D01*
X88604264Y-72982421D01*
X88453541Y-72845019D01*
X88453538Y-72845017D01*
X88453537Y-72845016D01*
X88280140Y-72737653D01*
X88089956Y-72663976D01*
X88089955Y-72663976D01*
X87889476Y-72626500D01*
X87685524Y-72626500D01*
X87551870Y-72651484D01*
X87485043Y-72663976D01*
X87294859Y-72737653D01*
X87121462Y-72845016D01*
X86970735Y-72982422D01*
X86847827Y-73145179D01*
X86769438Y-73302604D01*
X86721169Y-73354667D01*
X86652414Y-73372369D01*
X86585004Y-73350089D01*
X86540340Y-73294902D01*
X86538693Y-73289953D01*
X86445919Y-73078451D01*
X86322821Y-72890037D01*
X86170403Y-72724466D01*
X85992802Y-72586233D01*
X85794868Y-72479116D01*
X85582010Y-72406042D01*
X85501500Y-72392606D01*
X85501500Y-73293325D01*
X85389815Y-73242320D01*
X85283263Y-73227000D01*
X85211737Y-73227000D01*
X85105185Y-73242320D01*
X84993500Y-73293325D01*
X84993500Y-72392607D01*
X84993499Y-72392606D01*
X84912989Y-72406042D01*
X84700131Y-72479116D01*
X84502197Y-72586233D01*
X84324596Y-72724466D01*
X84172178Y-72890037D01*
X84049080Y-73078451D01*
X83958677Y-73284548D01*
X83910955Y-73472999D01*
X83910956Y-73473000D01*
X84816384Y-73473000D01*
X84788007Y-73517156D01*
X84747500Y-73655111D01*
X84747500Y-73798889D01*
X84788007Y-73936844D01*
X84816384Y-73981000D01*
X83910955Y-73981000D01*
X83000000Y-73981000D01*
X83000000Y-70626000D01*
X83020002Y-70557879D01*
X83073658Y-70511386D01*
X83126000Y-70500000D01*
X105537357Y-70500000D01*
X105605478Y-70520002D01*
G37*
G04 #@! TD.AperFunction*
M02*
