M48
; DRILL file {KiCad 7.0.2-0} date 2023 April 30, Sunday 22:26:50
; FORMAT={-:-/ absolute / metric / decimal}
; #@! TF.CreationDate,2023-04-30T22:26:50-07:00
; #@! TF.GenerationSoftware,Kicad,Pcbnew,7.0.2-0
; #@! TF.FileFunction,Plated,1,4,PTH
FMAT,2
METRIC
; #@! TA.AperFunction,Plated,PTH,ViaDrill
T1C0.350
; #@! TA.AperFunction,Plated,PTH,ComponentDrill
T2C0.350
; #@! TA.AperFunction,Plated,PTH,ComponentDrill
T3C0.600
; #@! TA.AperFunction,Plated,PTH,ComponentDrill
T4C0.900
; #@! TA.AperFunction,Plated,PTH,ComponentDrill
T5C1.000
; #@! TA.AperFunction,Plated,PTH,ComponentDrill
T6C2.100
%
G90
G05
T1
X91.95Y-75.8
X93.5Y-92.17
X93.5Y-99.27
X94.15Y-96.72
X95.346Y-85.03
X95.346Y-85.792
X95.65Y-83.15
X95.65Y-99.22
X95.9Y-91.17
X97.35Y-77.1
X97.9Y-93.15
X98.6Y-83.95
X99.35Y-89.35
X99.841Y-84.954
X100.35Y-90.8
X100.75Y-91.75
X100.95Y-96.25
X101.1Y-80.2
X101.85Y-93.15
X102.3Y-80.2
X102.965Y-84.954
X105.05Y-93.6
X105.8Y-81.45
X106.4Y-79.35
X106.75Y-80.75
X107.55Y-91.15
X107.65Y-98.0
X108.5Y-80.75
X108.55Y-96.05
X108.95Y-91.05
X109.6Y-96.05
X110.15Y-95.1
X110.25Y-82.1
X111.25Y-81.15
X112.109Y-80.331
X112.7Y-100.0
X112.7Y-104.0
X113.95Y-80.3
X114.9Y-86.65
X114.9Y-87.55
X114.9Y-89.05
X115.157Y-77.791
X115.919Y-77.283
X115.919Y-78.299
X116.681Y-77.791
X116.75Y-80.7
X117.1Y-94.8
X118.15Y-73.25
X118.4Y-92.9
X122.4Y-90.389
X122.4Y-92.889
X123.2Y-79.25
T2
X105.625Y-87.562
X105.625Y-88.837
X105.625Y-90.112
X106.9Y-87.562
X106.9Y-88.837
X106.9Y-90.112
X108.175Y-87.562
X108.175Y-88.837
X108.175Y-90.112
T4
X127.439Y-88.042
X127.439Y-90.542
X127.439Y-92.542
X127.439Y-95.042
T5
X85.248Y-73.727
X85.248Y-76.267
X85.248Y-78.807
X85.248Y-81.347
X85.248Y-83.887
X87.787Y-73.727
X87.787Y-76.267
X87.787Y-78.807
X87.787Y-81.347
X87.787Y-83.887
X103.7Y-101.11
X103.7Y-103.65
X106.24Y-101.11
X106.24Y-103.65
X108.78Y-101.11
X108.78Y-103.65
X122.0Y-73.0
X124.54Y-73.0
X127.08Y-73.0
X129.62Y-73.0
T6
X130.149Y-84.542
X130.149Y-98.542
T3
X106.26Y-72.3G85X106.26Y-71.5
G05
X106.26Y-76.63G85X106.26Y-75.53
G05
X114.9Y-72.3G85X114.9Y-71.5
G05
X114.9Y-76.63G85X114.9Y-75.53
G05
T0
M30
