G04 #@! TF.GenerationSoftware,KiCad,Pcbnew,7.0.2-0*
G04 #@! TF.CreationDate,2023-04-30T22:25:47-07:00*
G04 #@! TF.ProjectId,babelfish,62616265-6c66-4697-9368-2e6b69636164,REV1*
G04 #@! TF.SameCoordinates,Original*
G04 #@! TF.FileFunction,Legend,Top*
G04 #@! TF.FilePolarity,Positive*
%FSLAX46Y46*%
G04 Gerber Fmt 4.6, Leading zero omitted, Abs format (unit mm)*
G04 Created by KiCad (PCBNEW 7.0.2-0) date 2023-04-30 22:25:47*
%MOMM*%
%LPD*%
G01*
G04 APERTURE LIST*
G04 Aperture macros list*
%AMRoundRect*
0 Rectangle with rounded corners*
0 $1 Rounding radius*
0 $2 $3 $4 $5 $6 $7 $8 $9 X,Y pos of 4 corners*
0 Add a 4 corners polygon primitive as box body*
4,1,4,$2,$3,$4,$5,$6,$7,$8,$9,$2,$3,0*
0 Add four circle primitives for the rounded corners*
1,1,$1+$1,$2,$3*
1,1,$1+$1,$4,$5*
1,1,$1+$1,$6,$7*
1,1,$1+$1,$8,$9*
0 Add four rect primitives between the rounded corners*
20,1,$1+$1,$2,$3,$4,$5,0*
20,1,$1+$1,$4,$5,$6,$7,0*
20,1,$1+$1,$6,$7,$8,$9,0*
20,1,$1+$1,$8,$9,$2,$3,0*%
G04 Aperture macros list end*
%ADD10C,0.150000*%
%ADD11C,0.059995*%
%ADD12C,0.254001*%
%ADD13C,0.120000*%
%ADD14C,0.254000*%
%ADD15C,0.151994*%
%ADD16C,0.152400*%
%ADD17R,0.600000X1.240005*%
%ADD18R,0.300000X1.240005*%
%ADD19C,0.649987*%
%ADD20O,1.000000X2.100000*%
%ADD21O,1.000000X1.800000*%
%ADD22RoundRect,0.135000X-0.185000X0.135000X-0.185000X-0.135000X0.185000X-0.135000X0.185000X0.135000X0*%
%ADD23R,1.700000X1.700000*%
%ADD24O,1.700000X1.700000*%
%ADD25RoundRect,0.150000X0.512500X0.150000X-0.512500X0.150000X-0.512500X-0.150000X0.512500X-0.150000X0*%
%ADD26RoundRect,0.218750X0.218750X0.381250X-0.218750X0.381250X-0.218750X-0.381250X0.218750X-0.381250X0*%
%ADD27RoundRect,0.135000X0.185000X-0.135000X0.185000X0.135000X-0.185000X0.135000X-0.185000X-0.135000X0*%
%ADD28R,2.000000X1.500000*%
%ADD29R,2.000000X3.800000*%
%ADD30RoundRect,0.250000X0.475000X-0.250000X0.475000X0.250000X-0.475000X0.250000X-0.475000X-0.250000X0*%
%ADD31RoundRect,0.112500X0.187500X0.112500X-0.187500X0.112500X-0.187500X-0.112500X0.187500X-0.112500X0*%
%ADD32C,2.700000*%
%ADD33RoundRect,0.140000X0.140000X0.170000X-0.140000X0.170000X-0.140000X-0.170000X0.140000X-0.170000X0*%
%ADD34RoundRect,0.140000X0.170000X-0.140000X0.170000X0.140000X-0.170000X0.140000X-0.170000X-0.140000X0*%
%ADD35RoundRect,0.135000X0.135000X0.185000X-0.135000X0.185000X-0.135000X-0.185000X0.135000X-0.185000X0*%
%ADD36R,1.800000X1.300000*%
%ADD37RoundRect,0.112500X0.112500X-0.187500X0.112500X0.187500X-0.112500X0.187500X-0.112500X-0.187500X0*%
%ADD38RoundRect,0.140000X-0.140000X-0.170000X0.140000X-0.170000X0.140000X0.170000X-0.140000X0.170000X0*%
%ADD39RoundRect,0.050000X-0.387500X-0.050000X0.387500X-0.050000X0.387500X0.050000X-0.387500X0.050000X0*%
%ADD40RoundRect,0.050000X-0.050000X-0.387500X0.050000X-0.387500X0.050000X0.387500X-0.050000X0.387500X0*%
%ADD41RoundRect,0.144000X-1.456000X-1.456000X1.456000X-1.456000X1.456000X1.456000X-1.456000X1.456000X0*%
%ADD42C,1.500000*%
%ADD43C,3.100000*%
%ADD44RoundRect,0.250000X0.250000X0.475000X-0.250000X0.475000X-0.250000X-0.475000X0.250000X-0.475000X0*%
%ADD45R,1.400000X1.200000*%
%ADD46RoundRect,0.150000X0.150000X-0.650000X0.150000X0.650000X-0.150000X0.650000X-0.150000X-0.650000X0*%
%ADD47RoundRect,0.135000X-0.135000X-0.185000X0.135000X-0.185000X0.135000X0.185000X-0.135000X0.185000X0*%
%ADD48RoundRect,0.140000X-0.170000X0.140000X-0.170000X-0.140000X0.170000X-0.140000X0.170000X0.140000X0*%
G04 APERTURE END LIST*
D10*
X101888095Y-106477619D02*
X101888095Y-105477619D01*
X101888095Y-105477619D02*
X102459523Y-106477619D01*
X102459523Y-106477619D02*
X102459523Y-105477619D01*
X103507142Y-106382380D02*
X103459523Y-106430000D01*
X103459523Y-106430000D02*
X103316666Y-106477619D01*
X103316666Y-106477619D02*
X103221428Y-106477619D01*
X103221428Y-106477619D02*
X103078571Y-106430000D01*
X103078571Y-106430000D02*
X102983333Y-106334761D01*
X102983333Y-106334761D02*
X102935714Y-106239523D01*
X102935714Y-106239523D02*
X102888095Y-106049047D01*
X102888095Y-106049047D02*
X102888095Y-105906190D01*
X102888095Y-105906190D02*
X102935714Y-105715714D01*
X102935714Y-105715714D02*
X102983333Y-105620476D01*
X102983333Y-105620476D02*
X103078571Y-105525238D01*
X103078571Y-105525238D02*
X103221428Y-105477619D01*
X103221428Y-105477619D02*
X103316666Y-105477619D01*
X103316666Y-105477619D02*
X103459523Y-105525238D01*
X103459523Y-105525238D02*
X103507142Y-105572857D01*
X105935714Y-105477619D02*
X105459524Y-105477619D01*
X105459524Y-105477619D02*
X105411905Y-105953809D01*
X105411905Y-105953809D02*
X105459524Y-105906190D01*
X105459524Y-105906190D02*
X105554762Y-105858571D01*
X105554762Y-105858571D02*
X105792857Y-105858571D01*
X105792857Y-105858571D02*
X105888095Y-105906190D01*
X105888095Y-105906190D02*
X105935714Y-105953809D01*
X105935714Y-105953809D02*
X105983333Y-106049047D01*
X105983333Y-106049047D02*
X105983333Y-106287142D01*
X105983333Y-106287142D02*
X105935714Y-106382380D01*
X105935714Y-106382380D02*
X105888095Y-106430000D01*
X105888095Y-106430000D02*
X105792857Y-106477619D01*
X105792857Y-106477619D02*
X105554762Y-106477619D01*
X105554762Y-106477619D02*
X105459524Y-106430000D01*
X105459524Y-106430000D02*
X105411905Y-106382380D01*
X106269048Y-105477619D02*
X106602381Y-106477619D01*
X106602381Y-106477619D02*
X106935714Y-105477619D01*
X108650001Y-105477619D02*
X108983334Y-106477619D01*
X108983334Y-106477619D02*
X109316667Y-105477619D01*
X110221429Y-106382380D02*
X110173810Y-106430000D01*
X110173810Y-106430000D02*
X110030953Y-106477619D01*
X110030953Y-106477619D02*
X109935715Y-106477619D01*
X109935715Y-106477619D02*
X109792858Y-106430000D01*
X109792858Y-106430000D02*
X109697620Y-106334761D01*
X109697620Y-106334761D02*
X109650001Y-106239523D01*
X109650001Y-106239523D02*
X109602382Y-106049047D01*
X109602382Y-106049047D02*
X109602382Y-105906190D01*
X109602382Y-105906190D02*
X109650001Y-105715714D01*
X109650001Y-105715714D02*
X109697620Y-105620476D01*
X109697620Y-105620476D02*
X109792858Y-105525238D01*
X109792858Y-105525238D02*
X109935715Y-105477619D01*
X109935715Y-105477619D02*
X110030953Y-105477619D01*
X110030953Y-105477619D02*
X110173810Y-105525238D01*
X110173810Y-105525238D02*
X110221429Y-105572857D01*
X111221429Y-106382380D02*
X111173810Y-106430000D01*
X111173810Y-106430000D02*
X111030953Y-106477619D01*
X111030953Y-106477619D02*
X110935715Y-106477619D01*
X110935715Y-106477619D02*
X110792858Y-106430000D01*
X110792858Y-106430000D02*
X110697620Y-106334761D01*
X110697620Y-106334761D02*
X110650001Y-106239523D01*
X110650001Y-106239523D02*
X110602382Y-106049047D01*
X110602382Y-106049047D02*
X110602382Y-105906190D01*
X110602382Y-105906190D02*
X110650001Y-105715714D01*
X110650001Y-105715714D02*
X110697620Y-105620476D01*
X110697620Y-105620476D02*
X110792858Y-105525238D01*
X110792858Y-105525238D02*
X110935715Y-105477619D01*
X110935715Y-105477619D02*
X111030953Y-105477619D01*
X111030953Y-105477619D02*
X111173810Y-105525238D01*
X111173810Y-105525238D02*
X111221429Y-105572857D01*
X84357142Y-86601428D02*
X84309523Y-86553809D01*
X84309523Y-86553809D02*
X84214285Y-86506190D01*
X84214285Y-86506190D02*
X84119047Y-86506190D01*
X84119047Y-86506190D02*
X84023809Y-86553809D01*
X84023809Y-86553809D02*
X83976190Y-86601428D01*
X83976190Y-86601428D02*
X83928571Y-86696666D01*
X83928571Y-86696666D02*
X83928571Y-86791904D01*
X83928571Y-86791904D02*
X83976190Y-86887142D01*
X83976190Y-86887142D02*
X84023809Y-86934761D01*
X84023809Y-86934761D02*
X84119047Y-86982380D01*
X84119047Y-86982380D02*
X84214285Y-86982380D01*
X84214285Y-86982380D02*
X84309523Y-86934761D01*
X84309523Y-86934761D02*
X84357142Y-86887142D01*
X84357142Y-86506190D02*
X84357142Y-86887142D01*
X84357142Y-86887142D02*
X84404761Y-86934761D01*
X84404761Y-86934761D02*
X84452380Y-86934761D01*
X84452380Y-86934761D02*
X84547619Y-86887142D01*
X84547619Y-86887142D02*
X84595238Y-86791904D01*
X84595238Y-86791904D02*
X84595238Y-86553809D01*
X84595238Y-86553809D02*
X84500000Y-86410952D01*
X84500000Y-86410952D02*
X84357142Y-86315714D01*
X84357142Y-86315714D02*
X84166666Y-86268095D01*
X84166666Y-86268095D02*
X83976190Y-86315714D01*
X83976190Y-86315714D02*
X83833333Y-86410952D01*
X83833333Y-86410952D02*
X83738095Y-86553809D01*
X83738095Y-86553809D02*
X83690476Y-86744285D01*
X83690476Y-86744285D02*
X83738095Y-86934761D01*
X83738095Y-86934761D02*
X83833333Y-87077619D01*
X83833333Y-87077619D02*
X83976190Y-87172857D01*
X83976190Y-87172857D02*
X84166666Y-87220476D01*
X84166666Y-87220476D02*
X84357142Y-87172857D01*
X84357142Y-87172857D02*
X84500000Y-87077619D01*
X84976190Y-87030000D02*
X85119047Y-87077619D01*
X85119047Y-87077619D02*
X85357142Y-87077619D01*
X85357142Y-87077619D02*
X85452380Y-87030000D01*
X85452380Y-87030000D02*
X85499999Y-86982380D01*
X85499999Y-86982380D02*
X85547618Y-86887142D01*
X85547618Y-86887142D02*
X85547618Y-86791904D01*
X85547618Y-86791904D02*
X85499999Y-86696666D01*
X85499999Y-86696666D02*
X85452380Y-86649047D01*
X85452380Y-86649047D02*
X85357142Y-86601428D01*
X85357142Y-86601428D02*
X85166666Y-86553809D01*
X85166666Y-86553809D02*
X85071428Y-86506190D01*
X85071428Y-86506190D02*
X85023809Y-86458571D01*
X85023809Y-86458571D02*
X84976190Y-86363333D01*
X84976190Y-86363333D02*
X84976190Y-86268095D01*
X84976190Y-86268095D02*
X85023809Y-86172857D01*
X85023809Y-86172857D02*
X85071428Y-86125238D01*
X85071428Y-86125238D02*
X85166666Y-86077619D01*
X85166666Y-86077619D02*
X85404761Y-86077619D01*
X85404761Y-86077619D02*
X85547618Y-86125238D01*
X85976190Y-87077619D02*
X85976190Y-86077619D01*
X85976190Y-86553809D02*
X86547618Y-86553809D01*
X86547618Y-87077619D02*
X86547618Y-86077619D01*
X86795238Y-71277619D02*
X87128571Y-72277619D01*
X87128571Y-72277619D02*
X87461904Y-71277619D01*
X88366666Y-72182380D02*
X88319047Y-72230000D01*
X88319047Y-72230000D02*
X88176190Y-72277619D01*
X88176190Y-72277619D02*
X88080952Y-72277619D01*
X88080952Y-72277619D02*
X87938095Y-72230000D01*
X87938095Y-72230000D02*
X87842857Y-72134761D01*
X87842857Y-72134761D02*
X87795238Y-72039523D01*
X87795238Y-72039523D02*
X87747619Y-71849047D01*
X87747619Y-71849047D02*
X87747619Y-71706190D01*
X87747619Y-71706190D02*
X87795238Y-71515714D01*
X87795238Y-71515714D02*
X87842857Y-71420476D01*
X87842857Y-71420476D02*
X87938095Y-71325238D01*
X87938095Y-71325238D02*
X88080952Y-71277619D01*
X88080952Y-71277619D02*
X88176190Y-71277619D01*
X88176190Y-71277619D02*
X88319047Y-71325238D01*
X88319047Y-71325238D02*
X88366666Y-71372857D01*
X89366666Y-72182380D02*
X89319047Y-72230000D01*
X89319047Y-72230000D02*
X89176190Y-72277619D01*
X89176190Y-72277619D02*
X89080952Y-72277619D01*
X89080952Y-72277619D02*
X88938095Y-72230000D01*
X88938095Y-72230000D02*
X88842857Y-72134761D01*
X88842857Y-72134761D02*
X88795238Y-72039523D01*
X88795238Y-72039523D02*
X88747619Y-71849047D01*
X88747619Y-71849047D02*
X88747619Y-71706190D01*
X88747619Y-71706190D02*
X88795238Y-71515714D01*
X88795238Y-71515714D02*
X88842857Y-71420476D01*
X88842857Y-71420476D02*
X88938095Y-71325238D01*
X88938095Y-71325238D02*
X89080952Y-71277619D01*
X89080952Y-71277619D02*
X89176190Y-71277619D01*
X89176190Y-71277619D02*
X89319047Y-71325238D01*
X89319047Y-71325238D02*
X89366666Y-71372857D01*
X120838095Y-75977619D02*
X120838095Y-74977619D01*
X120838095Y-74977619D02*
X121076190Y-74977619D01*
X121076190Y-74977619D02*
X121219047Y-75025238D01*
X121219047Y-75025238D02*
X121314285Y-75120476D01*
X121314285Y-75120476D02*
X121361904Y-75215714D01*
X121361904Y-75215714D02*
X121409523Y-75406190D01*
X121409523Y-75406190D02*
X121409523Y-75549047D01*
X121409523Y-75549047D02*
X121361904Y-75739523D01*
X121361904Y-75739523D02*
X121314285Y-75834761D01*
X121314285Y-75834761D02*
X121219047Y-75930000D01*
X121219047Y-75930000D02*
X121076190Y-75977619D01*
X121076190Y-75977619D02*
X120838095Y-75977619D01*
X122171428Y-75453809D02*
X122314285Y-75501428D01*
X122314285Y-75501428D02*
X122361904Y-75549047D01*
X122361904Y-75549047D02*
X122409523Y-75644285D01*
X122409523Y-75644285D02*
X122409523Y-75787142D01*
X122409523Y-75787142D02*
X122361904Y-75882380D01*
X122361904Y-75882380D02*
X122314285Y-75930000D01*
X122314285Y-75930000D02*
X122219047Y-75977619D01*
X122219047Y-75977619D02*
X121838095Y-75977619D01*
X121838095Y-75977619D02*
X121838095Y-74977619D01*
X121838095Y-74977619D02*
X122171428Y-74977619D01*
X122171428Y-74977619D02*
X122266666Y-75025238D01*
X122266666Y-75025238D02*
X122314285Y-75072857D01*
X122314285Y-75072857D02*
X122361904Y-75168095D01*
X122361904Y-75168095D02*
X122361904Y-75263333D01*
X122361904Y-75263333D02*
X122314285Y-75358571D01*
X122314285Y-75358571D02*
X122266666Y-75406190D01*
X122266666Y-75406190D02*
X122171428Y-75453809D01*
X122171428Y-75453809D02*
X121838095Y-75453809D01*
X123361904Y-75025238D02*
X123266666Y-74977619D01*
X123266666Y-74977619D02*
X123123809Y-74977619D01*
X123123809Y-74977619D02*
X122980952Y-75025238D01*
X122980952Y-75025238D02*
X122885714Y-75120476D01*
X122885714Y-75120476D02*
X122838095Y-75215714D01*
X122838095Y-75215714D02*
X122790476Y-75406190D01*
X122790476Y-75406190D02*
X122790476Y-75549047D01*
X122790476Y-75549047D02*
X122838095Y-75739523D01*
X122838095Y-75739523D02*
X122885714Y-75834761D01*
X122885714Y-75834761D02*
X122980952Y-75930000D01*
X122980952Y-75930000D02*
X123123809Y-75977619D01*
X123123809Y-75977619D02*
X123219047Y-75977619D01*
X123219047Y-75977619D02*
X123361904Y-75930000D01*
X123361904Y-75930000D02*
X123409523Y-75882380D01*
X123409523Y-75882380D02*
X123409523Y-75549047D01*
X123409523Y-75549047D02*
X123219047Y-75549047D01*
X90038095Y-82177619D02*
X90038095Y-82987142D01*
X90038095Y-82987142D02*
X90085714Y-83082380D01*
X90085714Y-83082380D02*
X90133333Y-83130000D01*
X90133333Y-83130000D02*
X90228571Y-83177619D01*
X90228571Y-83177619D02*
X90419047Y-83177619D01*
X90419047Y-83177619D02*
X90514285Y-83130000D01*
X90514285Y-83130000D02*
X90561904Y-83082380D01*
X90561904Y-83082380D02*
X90609523Y-82987142D01*
X90609523Y-82987142D02*
X90609523Y-82177619D01*
X91609523Y-83177619D02*
X91038095Y-83177619D01*
X91323809Y-83177619D02*
X91323809Y-82177619D01*
X91323809Y-82177619D02*
X91228571Y-82320476D01*
X91228571Y-82320476D02*
X91133333Y-82415714D01*
X91133333Y-82415714D02*
X91038095Y-82463333D01*
X84061904Y-71325238D02*
X83966666Y-71277619D01*
X83966666Y-71277619D02*
X83823809Y-71277619D01*
X83823809Y-71277619D02*
X83680952Y-71325238D01*
X83680952Y-71325238D02*
X83585714Y-71420476D01*
X83585714Y-71420476D02*
X83538095Y-71515714D01*
X83538095Y-71515714D02*
X83490476Y-71706190D01*
X83490476Y-71706190D02*
X83490476Y-71849047D01*
X83490476Y-71849047D02*
X83538095Y-72039523D01*
X83538095Y-72039523D02*
X83585714Y-72134761D01*
X83585714Y-72134761D02*
X83680952Y-72230000D01*
X83680952Y-72230000D02*
X83823809Y-72277619D01*
X83823809Y-72277619D02*
X83919047Y-72277619D01*
X83919047Y-72277619D02*
X84061904Y-72230000D01*
X84061904Y-72230000D02*
X84109523Y-72182380D01*
X84109523Y-72182380D02*
X84109523Y-71849047D01*
X84109523Y-71849047D02*
X83919047Y-71849047D01*
X84538095Y-72277619D02*
X84538095Y-71277619D01*
X84538095Y-71277619D02*
X85109523Y-72277619D01*
X85109523Y-72277619D02*
X85109523Y-71277619D01*
X85585714Y-72277619D02*
X85585714Y-71277619D01*
X85585714Y-71277619D02*
X85823809Y-71277619D01*
X85823809Y-71277619D02*
X85966666Y-71325238D01*
X85966666Y-71325238D02*
X86061904Y-71420476D01*
X86061904Y-71420476D02*
X86109523Y-71515714D01*
X86109523Y-71515714D02*
X86157142Y-71706190D01*
X86157142Y-71706190D02*
X86157142Y-71849047D01*
X86157142Y-71849047D02*
X86109523Y-72039523D01*
X86109523Y-72039523D02*
X86061904Y-72134761D01*
X86061904Y-72134761D02*
X85966666Y-72230000D01*
X85966666Y-72230000D02*
X85823809Y-72277619D01*
X85823809Y-72277619D02*
X85585714Y-72277619D01*
X89988095Y-77077619D02*
X89988095Y-77887142D01*
X89988095Y-77887142D02*
X90035714Y-77982380D01*
X90035714Y-77982380D02*
X90083333Y-78030000D01*
X90083333Y-78030000D02*
X90178571Y-78077619D01*
X90178571Y-78077619D02*
X90369047Y-78077619D01*
X90369047Y-78077619D02*
X90464285Y-78030000D01*
X90464285Y-78030000D02*
X90511904Y-77982380D01*
X90511904Y-77982380D02*
X90559523Y-77887142D01*
X90559523Y-77887142D02*
X90559523Y-77077619D01*
X91226190Y-77077619D02*
X91321428Y-77077619D01*
X91321428Y-77077619D02*
X91416666Y-77125238D01*
X91416666Y-77125238D02*
X91464285Y-77172857D01*
X91464285Y-77172857D02*
X91511904Y-77268095D01*
X91511904Y-77268095D02*
X91559523Y-77458571D01*
X91559523Y-77458571D02*
X91559523Y-77696666D01*
X91559523Y-77696666D02*
X91511904Y-77887142D01*
X91511904Y-77887142D02*
X91464285Y-77982380D01*
X91464285Y-77982380D02*
X91416666Y-78030000D01*
X91416666Y-78030000D02*
X91321428Y-78077619D01*
X91321428Y-78077619D02*
X91226190Y-78077619D01*
X91226190Y-78077619D02*
X91130952Y-78030000D01*
X91130952Y-78030000D02*
X91083333Y-77982380D01*
X91083333Y-77982380D02*
X91035714Y-77887142D01*
X91035714Y-77887142D02*
X90988095Y-77696666D01*
X90988095Y-77696666D02*
X90988095Y-77458571D01*
X90988095Y-77458571D02*
X91035714Y-77268095D01*
X91035714Y-77268095D02*
X91083333Y-77172857D01*
X91083333Y-77172857D02*
X91130952Y-77125238D01*
X91130952Y-77125238D02*
X91226190Y-77077619D01*
X117771428Y-97803809D02*
X117914285Y-97851428D01*
X117914285Y-97851428D02*
X117961904Y-97899047D01*
X117961904Y-97899047D02*
X118009523Y-97994285D01*
X118009523Y-97994285D02*
X118009523Y-98137142D01*
X118009523Y-98137142D02*
X117961904Y-98232380D01*
X117961904Y-98232380D02*
X117914285Y-98280000D01*
X117914285Y-98280000D02*
X117819047Y-98327619D01*
X117819047Y-98327619D02*
X117438095Y-98327619D01*
X117438095Y-98327619D02*
X117438095Y-97327619D01*
X117438095Y-97327619D02*
X117771428Y-97327619D01*
X117771428Y-97327619D02*
X117866666Y-97375238D01*
X117866666Y-97375238D02*
X117914285Y-97422857D01*
X117914285Y-97422857D02*
X117961904Y-97518095D01*
X117961904Y-97518095D02*
X117961904Y-97613333D01*
X117961904Y-97613333D02*
X117914285Y-97708571D01*
X117914285Y-97708571D02*
X117866666Y-97756190D01*
X117866666Y-97756190D02*
X117771428Y-97803809D01*
X117771428Y-97803809D02*
X117438095Y-97803809D01*
X118628571Y-97327619D02*
X118819047Y-97327619D01*
X118819047Y-97327619D02*
X118914285Y-97375238D01*
X118914285Y-97375238D02*
X119009523Y-97470476D01*
X119009523Y-97470476D02*
X119057142Y-97660952D01*
X119057142Y-97660952D02*
X119057142Y-97994285D01*
X119057142Y-97994285D02*
X119009523Y-98184761D01*
X119009523Y-98184761D02*
X118914285Y-98280000D01*
X118914285Y-98280000D02*
X118819047Y-98327619D01*
X118819047Y-98327619D02*
X118628571Y-98327619D01*
X118628571Y-98327619D02*
X118533333Y-98280000D01*
X118533333Y-98280000D02*
X118438095Y-98184761D01*
X118438095Y-98184761D02*
X118390476Y-97994285D01*
X118390476Y-97994285D02*
X118390476Y-97660952D01*
X118390476Y-97660952D02*
X118438095Y-97470476D01*
X118438095Y-97470476D02*
X118533333Y-97375238D01*
X118533333Y-97375238D02*
X118628571Y-97327619D01*
X119676190Y-97327619D02*
X119866666Y-97327619D01*
X119866666Y-97327619D02*
X119961904Y-97375238D01*
X119961904Y-97375238D02*
X120057142Y-97470476D01*
X120057142Y-97470476D02*
X120104761Y-97660952D01*
X120104761Y-97660952D02*
X120104761Y-97994285D01*
X120104761Y-97994285D02*
X120057142Y-98184761D01*
X120057142Y-98184761D02*
X119961904Y-98280000D01*
X119961904Y-98280000D02*
X119866666Y-98327619D01*
X119866666Y-98327619D02*
X119676190Y-98327619D01*
X119676190Y-98327619D02*
X119580952Y-98280000D01*
X119580952Y-98280000D02*
X119485714Y-98184761D01*
X119485714Y-98184761D02*
X119438095Y-97994285D01*
X119438095Y-97994285D02*
X119438095Y-97660952D01*
X119438095Y-97660952D02*
X119485714Y-97470476D01*
X119485714Y-97470476D02*
X119580952Y-97375238D01*
X119580952Y-97375238D02*
X119676190Y-97327619D01*
X120390476Y-97327619D02*
X120961904Y-97327619D01*
X120676190Y-98327619D02*
X120676190Y-97327619D01*
X109818067Y-78162720D02*
X109818067Y-78972243D01*
X109818067Y-78972243D02*
X109865686Y-79067481D01*
X109865686Y-79067481D02*
X109913305Y-79115101D01*
X109913305Y-79115101D02*
X110008543Y-79162720D01*
X110008543Y-79162720D02*
X110199019Y-79162720D01*
X110199019Y-79162720D02*
X110294257Y-79115101D01*
X110294257Y-79115101D02*
X110341876Y-79067481D01*
X110341876Y-79067481D02*
X110389495Y-78972243D01*
X110389495Y-78972243D02*
X110389495Y-78162720D01*
X111294257Y-78496053D02*
X111294257Y-79162720D01*
X111056162Y-78115101D02*
X110818067Y-78829386D01*
X110818067Y-78829386D02*
X111437114Y-78829386D01*
X119288095Y-88512619D02*
X119288095Y-89322142D01*
X119288095Y-89322142D02*
X119335714Y-89417380D01*
X119335714Y-89417380D02*
X119383333Y-89465000D01*
X119383333Y-89465000D02*
X119478571Y-89512619D01*
X119478571Y-89512619D02*
X119669047Y-89512619D01*
X119669047Y-89512619D02*
X119764285Y-89465000D01*
X119764285Y-89465000D02*
X119811904Y-89417380D01*
X119811904Y-89417380D02*
X119859523Y-89322142D01*
X119859523Y-89322142D02*
X119859523Y-88512619D01*
X120859523Y-89512619D02*
X120288095Y-89512619D01*
X120573809Y-89512619D02*
X120573809Y-88512619D01*
X120573809Y-88512619D02*
X120478571Y-88655476D01*
X120478571Y-88655476D02*
X120383333Y-88750714D01*
X120383333Y-88750714D02*
X120288095Y-88798333D01*
X96963119Y-79702704D02*
X97772642Y-79702704D01*
X97772642Y-79702704D02*
X97867880Y-79655085D01*
X97867880Y-79655085D02*
X97915500Y-79607466D01*
X97915500Y-79607466D02*
X97963119Y-79512228D01*
X97963119Y-79512228D02*
X97963119Y-79321752D01*
X97963119Y-79321752D02*
X97915500Y-79226514D01*
X97915500Y-79226514D02*
X97867880Y-79178895D01*
X97867880Y-79178895D02*
X97772642Y-79131276D01*
X97772642Y-79131276D02*
X96963119Y-79131276D01*
X97058357Y-78702704D02*
X97010738Y-78655085D01*
X97010738Y-78655085D02*
X96963119Y-78559847D01*
X96963119Y-78559847D02*
X96963119Y-78321752D01*
X96963119Y-78321752D02*
X97010738Y-78226514D01*
X97010738Y-78226514D02*
X97058357Y-78178895D01*
X97058357Y-78178895D02*
X97153595Y-78131276D01*
X97153595Y-78131276D02*
X97248833Y-78131276D01*
X97248833Y-78131276D02*
X97391690Y-78178895D01*
X97391690Y-78178895D02*
X97963119Y-78750323D01*
X97963119Y-78750323D02*
X97963119Y-78131276D01*
D11*
X115079984Y-77200076D02*
G75*
G03*
X115079984Y-77200076I-29997J0D01*
G01*
D12*
X106079959Y-72978562D02*
X106079959Y-74991465D01*
X106079959Y-69270002D02*
X106079959Y-70961443D01*
X115079985Y-72978562D02*
X115079985Y-74991465D01*
X115079985Y-69270002D02*
X115079985Y-70961443D01*
X106079959Y-69270002D02*
X115079985Y-69270002D01*
D13*
X87096800Y-91970359D02*
X87096800Y-92277641D01*
X86336800Y-91970359D02*
X86336800Y-92277641D01*
X89057500Y-85157000D02*
X87787500Y-85157000D01*
X89057500Y-83887000D02*
X89057500Y-85157000D01*
X86744571Y-81727000D02*
X86290429Y-81727000D01*
X86744571Y-80967000D02*
X86290429Y-80967000D01*
X86744571Y-79187000D02*
X86290429Y-79187000D01*
X86744571Y-78427000D02*
X86290429Y-78427000D01*
X86744571Y-76647000D02*
X86290429Y-76647000D01*
X86744571Y-75887000D02*
X86290429Y-75887000D01*
X86744571Y-74107000D02*
X86290429Y-74107000D01*
X86744571Y-73347000D02*
X86290429Y-73347000D01*
X86677500Y-84267000D02*
X86290429Y-84267000D01*
X86677500Y-83507000D02*
X86290429Y-83507000D01*
X84204571Y-84267000D02*
X83807500Y-84267000D01*
X84204571Y-83507000D02*
X83807500Y-83507000D01*
X84204571Y-81727000D02*
X83807500Y-81727000D01*
X84204571Y-80967000D02*
X83807500Y-80967000D01*
X84204571Y-79187000D02*
X83807500Y-79187000D01*
X84204571Y-78427000D02*
X83807500Y-78427000D01*
X84204571Y-76647000D02*
X83807500Y-76647000D01*
X84204571Y-75887000D02*
X83807500Y-75887000D01*
X84204571Y-74107000D02*
X83807500Y-74107000D01*
X84204571Y-73347000D02*
X83807500Y-73347000D01*
X83807500Y-85217000D02*
X83807500Y-72397000D01*
X83807500Y-82617000D02*
X81147500Y-82617000D01*
X83807500Y-80077000D02*
X81147500Y-80077000D01*
X83807500Y-77537000D02*
X81147500Y-77537000D01*
X83807500Y-74997000D02*
X81147500Y-74997000D01*
X83807500Y-72397000D02*
X81147500Y-72397000D01*
X81147500Y-85217000D02*
X83807500Y-85217000D01*
X81147500Y-84267000D02*
X75147500Y-84267000D01*
X81147500Y-84207000D02*
X75147500Y-84207000D01*
X81147500Y-84087000D02*
X75147500Y-84087000D01*
X81147500Y-83967000D02*
X75147500Y-83967000D01*
X81147500Y-83847000D02*
X75147500Y-83847000D01*
X81147500Y-83727000D02*
X75147500Y-83727000D01*
X81147500Y-83607000D02*
X75147500Y-83607000D01*
X81147500Y-81727000D02*
X75147500Y-81727000D01*
X81147500Y-79187000D02*
X75147500Y-79187000D01*
X81147500Y-76647000D02*
X75147500Y-76647000D01*
X81147500Y-74107000D02*
X75147500Y-74107000D01*
X81147500Y-72397000D02*
X81147500Y-85217000D01*
X75147500Y-84267000D02*
X75147500Y-83507000D01*
X75147500Y-83507000D02*
X81147500Y-83507000D01*
X75147500Y-81727000D02*
X75147500Y-80967000D01*
X75147500Y-80967000D02*
X81147500Y-80967000D01*
X75147500Y-79187000D02*
X75147500Y-78427000D01*
X75147500Y-78427000D02*
X81147500Y-78427000D01*
X75147500Y-76647000D02*
X75147500Y-75887000D01*
X75147500Y-75887000D02*
X81147500Y-75887000D01*
X75147500Y-74107000D02*
X75147500Y-73347000D01*
X75147500Y-73347000D02*
X81147500Y-73347000D01*
X89440100Y-101270400D02*
X91240100Y-101270400D01*
X89440100Y-101270400D02*
X88640100Y-101270400D01*
X89440100Y-98150400D02*
X90240100Y-98150400D01*
X89440100Y-98150400D02*
X88640100Y-98150400D01*
X124101922Y-95606800D02*
X123302678Y-95606800D01*
X124101922Y-94486800D02*
X123302678Y-94486800D01*
X91620000Y-96345641D02*
X91620000Y-96038359D01*
X92380000Y-96345641D02*
X92380000Y-96038359D01*
X124150000Y-87960000D02*
X118140000Y-87960000D01*
X121900000Y-81140000D02*
X118140000Y-81140000D01*
X118140000Y-87960000D02*
X118140000Y-86700000D01*
X118140000Y-81140000D02*
X118140000Y-82400000D01*
X112115000Y-82690252D02*
X112115000Y-82167748D01*
X113585000Y-82690252D02*
X113585000Y-82167748D01*
X102370000Y-104980000D02*
X102370000Y-103650000D01*
X103700000Y-104980000D02*
X102370000Y-104980000D01*
X104970000Y-104980000D02*
X110110000Y-104980000D01*
X104970000Y-104980000D02*
X104970000Y-102380000D01*
X110110000Y-104980000D02*
X110110000Y-99780000D01*
X102370000Y-102380000D02*
X102370000Y-99780000D01*
X104970000Y-102380000D02*
X102370000Y-102380000D01*
X102370000Y-99780000D02*
X110110000Y-99780000D01*
X120710000Y-80100000D02*
X120710000Y-78400000D01*
X120710000Y-80100000D02*
X118050000Y-80100000D01*
X120710000Y-78400000D02*
X118050000Y-78400000D01*
X101177836Y-89710000D02*
X100962164Y-89710000D01*
X101177836Y-88990000D02*
X100962164Y-88990000D01*
X110890000Y-83768836D02*
X110890000Y-83553164D01*
X111610000Y-83768836D02*
X111610000Y-83553164D01*
X124082841Y-93039200D02*
X123775559Y-93039200D01*
X124082841Y-92279200D02*
X123775559Y-92279200D01*
X110229141Y-94173000D02*
X109921859Y-94173000D01*
X110229141Y-93413000D02*
X109921859Y-93413000D01*
X120670000Y-74330000D02*
X120670000Y-73000000D01*
X122000000Y-74330000D02*
X120670000Y-74330000D01*
X123270000Y-74330000D02*
X130950000Y-74330000D01*
X123270000Y-74330000D02*
X123270000Y-71670000D01*
X130950000Y-74330000D02*
X130950000Y-71670000D01*
X123270000Y-71670000D02*
X130950000Y-71670000D01*
X113470637Y-91413600D02*
X113163355Y-91413600D01*
X113470637Y-90653600D02*
X113163355Y-90653600D01*
D14*
X122199975Y-105099898D02*
X122199975Y-98899949D01*
X122199975Y-105099898D02*
X116000051Y-105099898D01*
X122199975Y-98899949D02*
X116000051Y-98899949D01*
X120309068Y-105098705D02*
X120309068Y-104539929D01*
X120309068Y-104539929D02*
X117829998Y-104539929D01*
X120288850Y-99459919D02*
X117829998Y-99459919D01*
X120288850Y-98899949D02*
X120288850Y-99459919D01*
X117829998Y-105098705D02*
X117829998Y-105047930D01*
X117829998Y-104539929D02*
X117829998Y-105098705D01*
X117829998Y-99459919D02*
X117829998Y-98899949D01*
X116000051Y-105099898D02*
X116000051Y-98899949D01*
D11*
X123830048Y-105149860D02*
G75*
G03*
X123830048Y-105149860I-29972J0D01*
G01*
D14*
X120581128Y-102000000D02*
G75*
G03*
X120581128Y-102000000I-1481077J0D01*
G01*
X121038583Y-102000000D02*
G75*
G03*
X121038583Y-102000000I-1938532J0D01*
G01*
D13*
X90000000Y-75410000D02*
X91700000Y-75410000D01*
X90000000Y-75410000D02*
X90000000Y-72750000D01*
X91700000Y-75410000D02*
X91700000Y-72750000D01*
X97732100Y-80990159D02*
X97732100Y-81297441D01*
X96972100Y-80990159D02*
X96972100Y-81297441D01*
X113012164Y-85240000D02*
X113227836Y-85240000D01*
X113012164Y-85960000D02*
X113227836Y-85960000D01*
X106390100Y-83133836D02*
X106390100Y-82918164D01*
X107110100Y-83133836D02*
X107110100Y-82918164D01*
G36*
X98259925Y-103345087D02*
G01*
X98339300Y-103532412D01*
X98242463Y-103741962D01*
X98133719Y-103808638D01*
X98001163Y-103830862D01*
X97775737Y-103754662D01*
X97694775Y-103559400D01*
X97794787Y-103359375D01*
X97905516Y-103298653D01*
X98037675Y-103278413D01*
X98259925Y-103345087D01*
G37*
G36*
X98237700Y-104276950D02*
G01*
X98217856Y-104456338D01*
X98158325Y-104711925D01*
X98098794Y-104954416D01*
X98078950Y-105094513D01*
X98113875Y-105183413D01*
X98240875Y-105151663D01*
X98269450Y-105138963D01*
X98326600Y-105297713D01*
X98205553Y-105375500D01*
X98058312Y-105443763D01*
X97905516Y-105491387D01*
X97767800Y-105507263D01*
X97563012Y-105434238D01*
X97488400Y-105223100D01*
X97507847Y-105048475D01*
X97566187Y-104800825D01*
X97624528Y-104568653D01*
X97643975Y-104440463D01*
X97561425Y-104218213D01*
X97536025Y-104183287D01*
X97545550Y-104129312D01*
X97690189Y-104101090D01*
X97903972Y-104084157D01*
X98186900Y-104078512D01*
X98237700Y-104276950D01*
G37*
G36*
X96393025Y-103303812D02*
G01*
X96383004Y-103443612D01*
X96352941Y-103647109D01*
X96302835Y-103914305D01*
X96232687Y-104245200D01*
X96162540Y-104569546D01*
X96112434Y-104817097D01*
X96082371Y-104987852D01*
X96072350Y-105081812D01*
X96110450Y-105192937D01*
X96246975Y-105151663D01*
X96281900Y-105135788D01*
X96358100Y-105291362D01*
X96240625Y-105373912D01*
X96091400Y-105443763D01*
X95933841Y-105491387D01*
X95791362Y-105507263D01*
X95570700Y-105429475D01*
X95484975Y-105205638D01*
X95494996Y-105099970D01*
X95525059Y-104929016D01*
X95575165Y-104692776D01*
X95645312Y-104391250D01*
X95715460Y-104078612D01*
X95765566Y-103809034D01*
X95795629Y-103582518D01*
X95805650Y-103399062D01*
X95786600Y-103221262D01*
X95983450Y-103175401D01*
X96176067Y-103147885D01*
X96364450Y-103138712D01*
X96393025Y-103303812D01*
G37*
G36*
X95136916Y-104089228D02*
G01*
X95308762Y-104169000D01*
X95419491Y-104293222D01*
X95456400Y-104453163D01*
X95377025Y-104684937D01*
X95183350Y-104840513D01*
X94957925Y-104927031D01*
X94764250Y-104970688D01*
X94684875Y-104980212D01*
X94754725Y-105137375D01*
X94894425Y-105189762D01*
X95062700Y-105156425D01*
X95208750Y-105088163D01*
X95262725Y-105056412D01*
X95364325Y-105192937D01*
X95329400Y-105227862D01*
X95238912Y-105302475D01*
X95089687Y-105399313D01*
X94891250Y-105473925D01*
X94672175Y-105504192D01*
X94649950Y-105507263D01*
X94410634Y-105467972D01*
X94232437Y-105350100D01*
X94121709Y-105157616D01*
X94084800Y-104894487D01*
X94098369Y-104770662D01*
X94672175Y-104770662D01*
X94856325Y-104619850D01*
X94948400Y-104388075D01*
X94894425Y-104294412D01*
X94748375Y-104418238D01*
X94695987Y-104568256D01*
X94672175Y-104770662D01*
X94098369Y-104770662D01*
X94111435Y-104651424D01*
X94191339Y-104447165D01*
X94324512Y-104281712D01*
X94496844Y-104160004D01*
X94694224Y-104086979D01*
X94916650Y-104062638D01*
X95136916Y-104089228D01*
G37*
G36*
X99268781Y-104081291D02*
G01*
X99402925Y-104137250D01*
X99488650Y-104230119D01*
X99517225Y-104359500D01*
X99473569Y-104517853D01*
X99342600Y-104697637D01*
X99464044Y-104877025D01*
X99504525Y-105040537D01*
X99458884Y-105221909D01*
X99321962Y-105372325D01*
X99209250Y-105429924D01*
X99123922Y-105473528D01*
X98894925Y-105507263D01*
X98672278Y-105486625D01*
X98493288Y-105424713D01*
X98336125Y-105267550D01*
X98432962Y-105077050D01*
X98631400Y-104942112D01*
X98770306Y-105069906D01*
X98894925Y-105294538D01*
X98987000Y-105234213D01*
X98961600Y-105151663D01*
X98923500Y-105091337D01*
X98879050Y-105029425D01*
X98831425Y-104970688D01*
X98688550Y-104796062D01*
X98574250Y-104617072D01*
X98536150Y-104461100D01*
X98555344Y-104351562D01*
X99072725Y-104351562D01*
X99209250Y-104548412D01*
X99291800Y-104457925D01*
X99329900Y-104351562D01*
X99288625Y-104278538D01*
X99190200Y-104253137D01*
X99102888Y-104280125D01*
X99072725Y-104351562D01*
X98555344Y-104351562D01*
X98559169Y-104329734D01*
X98628225Y-104224563D01*
X98750639Y-104134604D01*
X98906214Y-104080629D01*
X99094950Y-104062638D01*
X99268781Y-104081291D01*
G37*
G36*
X91613063Y-104085656D02*
G01*
X91782925Y-104154713D01*
X91824200Y-104072162D01*
X92064706Y-104099944D01*
X92329025Y-104183287D01*
X92267113Y-104409109D01*
X92214725Y-104673825D01*
X92179006Y-104915125D01*
X92167100Y-105070700D01*
X92202025Y-105183413D01*
X92360775Y-105138963D01*
X92417925Y-105297713D01*
X92302434Y-105373516D01*
X92159163Y-105442175D01*
X92011128Y-105490991D01*
X91881350Y-105507263D01*
X91713075Y-105462812D01*
X91621000Y-105329463D01*
X91478125Y-105410145D01*
X91384859Y-105462812D01*
X91178088Y-105507263D01*
X91007828Y-105472338D01*
X90881225Y-105367563D01*
X90802644Y-105197700D01*
X90776450Y-104967512D01*
X90779986Y-104927825D01*
X91373350Y-104927825D01*
X91395575Y-105129437D01*
X91478125Y-105170713D01*
X91595600Y-105123088D01*
X91614650Y-104873674D01*
X91654867Y-104616499D01*
X91716250Y-104351562D01*
X91606712Y-104322988D01*
X91495588Y-104392837D01*
X91420975Y-104567463D01*
X91385256Y-104757566D01*
X91373350Y-104927825D01*
X90779986Y-104927825D01*
X90796911Y-104737854D01*
X90858294Y-104527246D01*
X90960600Y-104335688D01*
X91096419Y-104183993D01*
X91258344Y-104092976D01*
X91446375Y-104062638D01*
X91613063Y-104085656D01*
G37*
G36*
X97448316Y-103162922D02*
G01*
X97559838Y-103226025D01*
X97634847Y-103324450D01*
X97659850Y-103451450D01*
X97627306Y-103603453D01*
X97529675Y-103776887D01*
X97386006Y-103949925D01*
X97224875Y-104092320D01*
X97215350Y-104100738D01*
X97536025Y-104100738D01*
X97485225Y-104345212D01*
X97205825Y-104322988D01*
X97187271Y-104588298D01*
X97160184Y-104847656D01*
X97124565Y-105101061D01*
X97080412Y-105348513D01*
X97016031Y-105633910D01*
X96952001Y-105838168D01*
X96888325Y-105961288D01*
X96731956Y-105950572D01*
X96580350Y-105924775D01*
X96377150Y-105859688D01*
X96449822Y-105600925D01*
X96506972Y-105366504D01*
X96548600Y-105156425D01*
X96574000Y-104993805D01*
X96599400Y-104802809D01*
X96624800Y-104583437D01*
X96650200Y-104335688D01*
X96440650Y-104357912D01*
X96427950Y-104235675D01*
X96443825Y-104100738D01*
X96672425Y-104100738D01*
X96704932Y-103846737D01*
X97224875Y-103846737D01*
X97325284Y-103753472D01*
X97404263Y-103651475D01*
X97472525Y-103462562D01*
X97393150Y-103380012D01*
X97315186Y-103431871D01*
X97259094Y-103587446D01*
X97224875Y-103846737D01*
X96704932Y-103846737D01*
X96708408Y-103819574D01*
X96752858Y-103606849D01*
X96805775Y-103462562D01*
X96928012Y-103283175D01*
X97072475Y-103183162D01*
X97313775Y-103141888D01*
X97448316Y-103162922D01*
G37*
G36*
X93408525Y-103272062D02*
G01*
X93398802Y-103415334D01*
X93369631Y-103613375D01*
X93321014Y-103866184D01*
X93252950Y-104173763D01*
X93429956Y-104090419D01*
X93592675Y-104062638D01*
X93738725Y-104095181D01*
X93865725Y-104192813D01*
X93953831Y-104376566D01*
X93983200Y-104667475D01*
X93962210Y-104886374D01*
X93899239Y-105083753D01*
X93794288Y-105259613D01*
X93658644Y-105397196D01*
X93503599Y-105479746D01*
X93329150Y-105507263D01*
X93164844Y-105485037D01*
X93141825Y-105475605D01*
X93002125Y-105418363D01*
X92801394Y-105460696D01*
X92622536Y-105486096D01*
X92465550Y-105494563D01*
X92449675Y-105386613D01*
X92461284Y-105237586D01*
X92466452Y-105205638D01*
X93037050Y-105205638D01*
X93141825Y-105234213D01*
X93239853Y-105176269D01*
X93318038Y-105002438D01*
X93369234Y-104779791D01*
X93386300Y-104575400D01*
X93367250Y-104428953D01*
X93310100Y-104380138D01*
X93195800Y-104415063D01*
X93134681Y-104684739D01*
X93087850Y-104906394D01*
X93055306Y-105080027D01*
X93037050Y-105205638D01*
X92466452Y-105205638D01*
X92496109Y-105022281D01*
X92554152Y-104740698D01*
X92635412Y-104392837D01*
X92716673Y-104042397D01*
X92774716Y-103753075D01*
X92809541Y-103524872D01*
X92821150Y-103357787D01*
X92814800Y-103224437D01*
X93015531Y-103176813D01*
X93207089Y-103148237D01*
X93389475Y-103138712D01*
X93408525Y-103272062D01*
G37*
G36*
X100603075Y-103306987D02*
G01*
X100592955Y-103447481D01*
X100562594Y-103646713D01*
X100511992Y-103904681D01*
X100441150Y-104221387D01*
X100685228Y-104104706D01*
X100871363Y-104065812D01*
X101008284Y-104086847D01*
X101104725Y-104149950D01*
X101180925Y-104359500D01*
X101163463Y-104520631D01*
X101111075Y-104753200D01*
X101058688Y-104975053D01*
X101041225Y-105104037D01*
X101066625Y-105186588D01*
X101231725Y-105142137D01*
X101288875Y-105300888D01*
X101171797Y-105372325D01*
X101017413Y-105440588D01*
X100854297Y-105490594D01*
X100711025Y-105507263D01*
X100568150Y-105474807D01*
X100482425Y-105377440D01*
X100453850Y-105215162D01*
X100470519Y-105050063D01*
X100520525Y-104821462D01*
X100570531Y-104609134D01*
X100587200Y-104492850D01*
X100539575Y-104424587D01*
X100377650Y-104488088D01*
X100315142Y-104768281D01*
X100270494Y-105002437D01*
X100243705Y-105190556D01*
X100234775Y-105332638D01*
X100237950Y-105408838D01*
X100029458Y-105456463D01*
X99835783Y-105485038D01*
X99656925Y-105494563D01*
X99637875Y-105392963D01*
X99649682Y-105258223D01*
X99685103Y-105050856D01*
X99744138Y-104770861D01*
X99826787Y-104418238D01*
X99894796Y-104127408D01*
X99947692Y-103877217D01*
X99985474Y-103667668D01*
X100008143Y-103498757D01*
X100015700Y-103370487D01*
X100003000Y-103224437D01*
X100204083Y-103176813D01*
X100396700Y-103148237D01*
X100580850Y-103138712D01*
X100603075Y-103306987D01*
G37*
G36*
X90159992Y-103234852D02*
G01*
X90376908Y-103294668D01*
X90531848Y-103394363D01*
X90624812Y-103533936D01*
X90655800Y-103713387D01*
X90616509Y-103923731D01*
X90498637Y-104091212D01*
X90322822Y-104213450D01*
X90109700Y-104288062D01*
X90311312Y-104340053D01*
X90478000Y-104445225D01*
X90589919Y-104604372D01*
X90627225Y-104818287D01*
X90602531Y-105005789D01*
X90528447Y-105170360D01*
X90404975Y-105312000D01*
X90243756Y-105420479D01*
X90056431Y-105485567D01*
X89843000Y-105507263D01*
X89693775Y-105494205D01*
X89639800Y-105489482D01*
X89589000Y-105485037D01*
X89335000Y-105418363D01*
X89136562Y-105470750D01*
X88909550Y-105488212D01*
X88811125Y-105481863D01*
X88822039Y-105351688D01*
X88848025Y-105192937D01*
X89449300Y-105192937D01*
X89639800Y-105234213D01*
X89693774Y-105221450D01*
X89800931Y-105196113D01*
X89916025Y-105081812D01*
X89985081Y-104919491D01*
X90008100Y-104737325D01*
X89991034Y-104574606D01*
X89939837Y-104470625D01*
X89735050Y-104396013D01*
X89693775Y-104399108D01*
X89608050Y-104405537D01*
X89551694Y-104658347D01*
X89506450Y-104873850D01*
X89472319Y-105052047D01*
X89449300Y-105192937D01*
X88848025Y-105192937D01*
X88854781Y-105151662D01*
X88909352Y-104881788D01*
X88985750Y-104542063D01*
X89062148Y-104208092D01*
X89071622Y-104164237D01*
X89665200Y-104164237D01*
X89693775Y-104164237D01*
X89818394Y-104138044D01*
X89912850Y-104059462D01*
X90020006Y-103868566D01*
X90055725Y-103657825D01*
X90017625Y-103492328D01*
X89903325Y-103437162D01*
X89798550Y-103449862D01*
X89782322Y-103584271D01*
X89737872Y-103822396D01*
X89665200Y-104164237D01*
X89071622Y-104164237D01*
X89116719Y-103955481D01*
X89149461Y-103784230D01*
X89160375Y-103694337D01*
X89123862Y-103519712D01*
X89049250Y-103405413D01*
X89014325Y-103370487D01*
X89027025Y-103291113D01*
X89158391Y-103271666D01*
X89393737Y-103245075D01*
X89659247Y-103222453D01*
X89881100Y-103214913D01*
X90159992Y-103234852D01*
G37*
X113012164Y-86290000D02*
X113227836Y-86290000D01*
X113012164Y-87010000D02*
X113227836Y-87010000D01*
X89389300Y-97765200D02*
X91189300Y-97765200D01*
X89389300Y-97765200D02*
X88589300Y-97765200D01*
X89389300Y-94645200D02*
X90189300Y-94645200D01*
X89389300Y-94645200D02*
X88589300Y-94645200D01*
X86336800Y-89843241D02*
X86336800Y-89535959D01*
X87096800Y-89843241D02*
X87096800Y-89535959D01*
X112222164Y-88690000D02*
X112437836Y-88690000D01*
X112222164Y-89410000D02*
X112437836Y-89410000D01*
X109020000Y-83273559D02*
X109020000Y-83580841D01*
X108260000Y-83273559D02*
X108260000Y-83580841D01*
X89389300Y-90754800D02*
X91189300Y-90754800D01*
X89389300Y-90754800D02*
X88589300Y-90754800D01*
X89389300Y-87634800D02*
X90189300Y-87634800D01*
X89389300Y-87634800D02*
X88589300Y-87634800D01*
G36*
X134284830Y-80652628D02*
G01*
X134157830Y-80652628D01*
X134157830Y-80517690D01*
X134284830Y-80517690D01*
X134284830Y-80652628D01*
G37*
G36*
X134211727Y-81582254D02*
G01*
X134213291Y-81582254D01*
X134289147Y-81238165D01*
X134375169Y-81238165D01*
X134265687Y-81644815D01*
X134156204Y-81644815D01*
X134046721Y-81238165D01*
X134135871Y-81238165D01*
X134211727Y-81582254D01*
G37*
G36*
X134602737Y-81582254D02*
G01*
X134604301Y-81582254D01*
X134680157Y-81238165D01*
X134766179Y-81238165D01*
X134656696Y-81644815D01*
X134547214Y-81644815D01*
X134437731Y-81238165D01*
X134526881Y-81238165D01*
X134602737Y-81582254D01*
G37*
G36*
X134703137Y-80652628D02*
G01*
X134614237Y-80652628D01*
X134614237Y-80156534D01*
X134612649Y-80155740D01*
X134476124Y-80231940D01*
X134476124Y-80154153D01*
X134615030Y-80073190D01*
X134703137Y-80073190D01*
X134703137Y-80652628D01*
G37*
G36*
X135325323Y-81402389D02*
G01*
X135456703Y-81238165D01*
X135556019Y-81238165D01*
X135393359Y-81433670D01*
X135556019Y-81644815D01*
X135455139Y-81644815D01*
X135325323Y-81467297D01*
X135325323Y-81644815D01*
X135239301Y-81644815D01*
X135239301Y-81058300D01*
X135325323Y-81058300D01*
X135325323Y-81402389D01*
G37*
G36*
X134931967Y-81515782D02*
G01*
X134946435Y-81573260D01*
X134999221Y-81588510D01*
X135052398Y-81572869D01*
X135051616Y-81238165D01*
X135137639Y-81238165D01*
X135137639Y-81619790D01*
X135096713Y-81638038D01*
X135051095Y-81648986D01*
X135000785Y-81652635D01*
X134926493Y-81645402D01*
X134880354Y-81623701D01*
X134856307Y-81582254D01*
X134848291Y-81515782D01*
X134848291Y-81238165D01*
X134931967Y-81238165D01*
X134931967Y-81515782D01*
G37*
G36*
X133872279Y-80071702D02*
G01*
X133910974Y-80091049D01*
X133940641Y-80126967D01*
X133962965Y-80183124D01*
X133973328Y-80232557D01*
X133979545Y-80292486D01*
X133981618Y-80362909D01*
X133979545Y-80433332D01*
X133973328Y-80493260D01*
X133962965Y-80542693D01*
X133940641Y-80598851D01*
X133910974Y-80634768D01*
X133872279Y-80654116D01*
X133822868Y-80660565D01*
X133773457Y-80654116D01*
X133748255Y-80641515D01*
X133734762Y-80634768D01*
X133705095Y-80598851D01*
X133682771Y-80542693D01*
X133678361Y-80521659D01*
X133758574Y-80521659D01*
X133783180Y-80577618D01*
X133822868Y-80593890D01*
X133864540Y-80575634D01*
X133878530Y-80549043D01*
X133889543Y-80505784D01*
X133894835Y-80466978D01*
X133898010Y-80419353D01*
X133899068Y-80362909D01*
X133898473Y-80319848D01*
X133896687Y-80282740D01*
X133758574Y-80521659D01*
X133678361Y-80521659D01*
X133672408Y-80493260D01*
X133666190Y-80433332D01*
X133664118Y-80362909D01*
X133746668Y-80362909D01*
X133748255Y-80428790D01*
X133883987Y-80193046D01*
X133860174Y-80145818D01*
X133822868Y-80131928D01*
X133781196Y-80150184D01*
X133767206Y-80176774D01*
X133756193Y-80220034D01*
X133750901Y-80258839D01*
X133747726Y-80306464D01*
X133746668Y-80362909D01*
X133664118Y-80362909D01*
X133666190Y-80292486D01*
X133672408Y-80232557D01*
X133682771Y-80183124D01*
X133705095Y-80126967D01*
X133734762Y-80091049D01*
X133773457Y-80071702D01*
X133822868Y-80065253D01*
X133872279Y-80071702D01*
G37*
G36*
X133891475Y-81154489D02*
G01*
X133933735Y-81173257D01*
X133963921Y-81204538D01*
X133982032Y-81248331D01*
X133988070Y-81304637D01*
X133988070Y-81559575D01*
X133951836Y-81587815D01*
X133910910Y-81604758D01*
X133873895Y-81609341D01*
X133865292Y-81610406D01*
X133816416Y-81600924D01*
X133782398Y-81572478D01*
X133767627Y-81541154D01*
X133758764Y-81497752D01*
X133755810Y-81442272D01*
X133832448Y-81442272D01*
X133834794Y-81494961D01*
X133841832Y-81526339D01*
X133873895Y-81547063D01*
X133906740Y-81528294D01*
X133906740Y-81361724D01*
X133872331Y-81337481D01*
X133841050Y-81358205D01*
X133834598Y-81389583D01*
X133832448Y-81442272D01*
X133755810Y-81442272D01*
X133758634Y-81388356D01*
X133767106Y-81345475D01*
X133781225Y-81313630D01*
X133812995Y-81284011D01*
X133857472Y-81274138D01*
X133911432Y-81293688D01*
X133912996Y-81293688D01*
X133912996Y-81285086D01*
X133894618Y-81232691D01*
X133843396Y-81213922D01*
X133788361Y-81226630D01*
X133749945Y-81264754D01*
X133733218Y-81306983D01*
X133723182Y-81365895D01*
X133719837Y-81441490D01*
X133723399Y-81517085D01*
X133734087Y-81575997D01*
X133751900Y-81618226D01*
X133792369Y-81656350D01*
X133849652Y-81669058D01*
X133898724Y-81662411D01*
X133948969Y-81642469D01*
X133948969Y-81713633D01*
X133896182Y-81729469D01*
X133839486Y-81734747D01*
X133780530Y-81727058D01*
X133731915Y-81703988D01*
X133693639Y-81665539D01*
X133671914Y-81625582D01*
X133656395Y-81574922D01*
X133647085Y-81513558D01*
X133643981Y-81441490D01*
X133647011Y-81370057D01*
X133656102Y-81309035D01*
X133671254Y-81258424D01*
X133692466Y-81218223D01*
X133730090Y-81179340D01*
X133778315Y-81156009D01*
X133837140Y-81148233D01*
X133891475Y-81154489D01*
G37*
X103290000Y-92447500D02*
X103290000Y-91797500D01*
X103940000Y-85227500D02*
X103290000Y-85227500D01*
X103940000Y-92447500D02*
X103290000Y-92447500D01*
X109860000Y-85227500D02*
X110510000Y-85227500D01*
X109860000Y-92447500D02*
X110510000Y-92447500D01*
X110510000Y-85227500D02*
X110510000Y-85877500D01*
X110510000Y-92447500D02*
X110510000Y-91797500D01*
X91620000Y-89483641D02*
X91620000Y-89176359D01*
X92380000Y-89483641D02*
X92380000Y-89176359D01*
D14*
X139996200Y-98762600D02*
X139996200Y-98407600D01*
X140299200Y-98762600D02*
X139996200Y-98762600D01*
X140299200Y-98407600D02*
X140299200Y-98762600D01*
X139987200Y-98340600D02*
X139996200Y-98402600D01*
X139968200Y-98286600D02*
X139987200Y-98340600D01*
X140285200Y-98282600D02*
X140299200Y-98397600D01*
X139939200Y-98233600D02*
X139968200Y-98286600D01*
X139903200Y-98191600D02*
X139939200Y-98233600D01*
X140246200Y-98165600D02*
X140285200Y-98282600D01*
X139856200Y-98154600D02*
X139903200Y-98191600D01*
X139803200Y-98127600D02*
X139856200Y-98154600D01*
X139748200Y-98114600D02*
X139803200Y-98127600D01*
X126299200Y-98111600D02*
X126299200Y-84971600D01*
X128299200Y-98111600D02*
X126300200Y-98111600D01*
X139595200Y-98111600D02*
X139595200Y-97407600D01*
X139694200Y-98111600D02*
X139748200Y-98114600D01*
X139694200Y-98111600D02*
X131994200Y-98111600D01*
X140185200Y-98061600D02*
X140246200Y-98165600D01*
X140113200Y-97977600D02*
X140185200Y-98061600D01*
X140019200Y-97903600D02*
X140113200Y-97977600D01*
X139919200Y-97851600D02*
X140019200Y-97903600D01*
X139810200Y-97819600D02*
X139919200Y-97851600D01*
X139595200Y-97808600D02*
X139694200Y-97808600D01*
X139694200Y-97808600D02*
X139810200Y-97819600D01*
X139595200Y-97407600D02*
X139605200Y-97340600D01*
X139605200Y-97340600D02*
X139622200Y-97285600D01*
X139622200Y-97285600D02*
X139647200Y-97237600D01*
X139647200Y-97237600D02*
X139680200Y-97195600D01*
X139680200Y-97195600D02*
X139720200Y-97161600D01*
X139720200Y-97161600D02*
X139772200Y-97133600D01*
X139772200Y-97133600D02*
X139831200Y-97113600D01*
X139831200Y-97113600D02*
X139892200Y-97104600D01*
X140299200Y-97104600D02*
X139898200Y-97104600D01*
X140299200Y-97104600D02*
X140299200Y-91541600D01*
X133141200Y-96301600D02*
X139102200Y-96058600D01*
X133078200Y-96295600D02*
X133131200Y-96301600D01*
X133031200Y-96281600D02*
X133078200Y-96295600D01*
X132955200Y-96231600D02*
X133031200Y-96281600D01*
X132902200Y-96155600D02*
X132955200Y-96231600D01*
X132881200Y-96065600D02*
X132902200Y-96155600D01*
X139102200Y-96058600D02*
X139146200Y-96050600D01*
X139146200Y-96050600D02*
X139184200Y-96035600D01*
X139184200Y-96035600D02*
X139218200Y-96014600D01*
X139218200Y-96014600D02*
X139245200Y-95990600D01*
X139245200Y-95990600D02*
X139267200Y-95962600D01*
X132893200Y-95973600D02*
X132881200Y-96065600D01*
X139267200Y-95962600D02*
X139283200Y-95929600D01*
X139283200Y-95929600D02*
X139291200Y-95893600D01*
X139291200Y-95893600D02*
X139293200Y-95857600D01*
X132939200Y-95890600D02*
X132893200Y-95973600D01*
X139293200Y-95854600D02*
X139293200Y-93235600D01*
X133012200Y-95832600D02*
X132939200Y-95890600D01*
X133108200Y-95801600D02*
X133012200Y-95832600D01*
X136575200Y-95485600D02*
X133108200Y-95801600D01*
X136575200Y-95485600D02*
X136911200Y-95452600D01*
X136911200Y-95452600D02*
X137049200Y-95439600D01*
X137141200Y-95433600D02*
X137049200Y-95439600D01*
X137187200Y-95433600D02*
X137141200Y-95433600D01*
X138089200Y-95347600D02*
X137187200Y-95433600D01*
X138089200Y-95347600D02*
X138169200Y-95332600D01*
X138169200Y-95332600D02*
X138248200Y-95300600D01*
X138248200Y-95300600D02*
X138317200Y-95254600D01*
X138317200Y-95254600D02*
X138377200Y-95195600D01*
X138377200Y-95195600D02*
X138429200Y-95121600D01*
X138429200Y-95121600D02*
X138468200Y-95037600D01*
X138468200Y-95037600D02*
X138493200Y-94948600D01*
X138493200Y-94948600D02*
X138503200Y-94854600D01*
X138503200Y-94242600D02*
X138503200Y-94847600D01*
X138503200Y-94242600D02*
X138493200Y-94148600D01*
X138493200Y-94148600D02*
X138469200Y-94059600D01*
X138469200Y-94059600D02*
X138431200Y-93975600D01*
X138431200Y-93975600D02*
X138384200Y-93906600D01*
X138384200Y-93906600D02*
X138321200Y-93842600D01*
X138321200Y-93842600D02*
X138253200Y-93794600D01*
X138253200Y-93794600D02*
X138182200Y-93762600D01*
X138182200Y-93762600D02*
X138096200Y-93742600D01*
X137187200Y-93663600D02*
X138089200Y-93742600D01*
X137187200Y-93663600D02*
X137141200Y-93656600D01*
X137141200Y-93656600D02*
X137049200Y-93649600D01*
X136911200Y-93637600D02*
X137049200Y-93649600D01*
X136575200Y-93604600D02*
X136911200Y-93637600D01*
X136575200Y-93604600D02*
X133108200Y-93288600D01*
X132999200Y-93250600D02*
X133098200Y-93286600D01*
X139293200Y-93235600D02*
X139286200Y-93176600D01*
X132930200Y-93189600D02*
X132999200Y-93250600D01*
X139286200Y-93176600D02*
X139260200Y-93117600D01*
X139260200Y-93117600D02*
X139213200Y-93077600D01*
X132889200Y-93106600D02*
X132930200Y-93189600D01*
X139213200Y-93077600D02*
X139161200Y-93044600D01*
X139161200Y-93044600D02*
X139102200Y-93038600D01*
X139102200Y-93038600D02*
X133141200Y-92794600D01*
X132882200Y-93016600D02*
X132889200Y-93106600D01*
X132907200Y-92928600D02*
X132882200Y-93016600D01*
X132964200Y-92855600D02*
X132907200Y-92928600D01*
X133045200Y-92810600D02*
X132964200Y-92855600D01*
X133141200Y-92794600D02*
X133045200Y-92810600D01*
X133035200Y-90267600D02*
X133131200Y-90287600D01*
X132957200Y-90218600D02*
X133035200Y-90267600D01*
X132902200Y-90142600D02*
X132957200Y-90218600D01*
X132881200Y-90053600D02*
X132902200Y-90142600D01*
X139102200Y-90044600D02*
X133141200Y-90287600D01*
X139102200Y-90044600D02*
X139143200Y-90037600D01*
X139143200Y-90037600D02*
X139181200Y-90023600D01*
X139181200Y-90023600D02*
X139216200Y-90003600D01*
X139216200Y-90003600D02*
X139245200Y-89977600D01*
X139245200Y-89977600D02*
X139267200Y-89948600D01*
X132892200Y-89962600D02*
X132881200Y-90053600D01*
X139267200Y-89948600D02*
X139283200Y-89916600D01*
X139283200Y-89916600D02*
X139291200Y-89880600D01*
X132936200Y-89880600D02*
X132892200Y-89962600D01*
X139291200Y-89880600D02*
X139293200Y-89844600D01*
X133007200Y-89821600D02*
X132936200Y-89880600D01*
X133108200Y-89787600D02*
X133007200Y-89821600D01*
X136575200Y-89472600D02*
X133108200Y-89787600D01*
X136575200Y-89472600D02*
X136911200Y-89439600D01*
X136911200Y-89439600D02*
X137049200Y-89426600D01*
X137141200Y-89419600D02*
X137049200Y-89426600D01*
X137187200Y-89419600D02*
X137141200Y-89419600D01*
X137187200Y-89419600D02*
X138089200Y-89333600D01*
X138176200Y-89317600D02*
X138096200Y-89333600D01*
X138254200Y-89283600D02*
X138176200Y-89317600D01*
X138323200Y-89236600D02*
X138254200Y-89283600D01*
X138382200Y-89176600D02*
X138323200Y-89236600D01*
X138433200Y-89101600D02*
X138382200Y-89176600D01*
X138471200Y-89017600D02*
X138433200Y-89101600D01*
X138496200Y-88920600D02*
X138471200Y-89017600D01*
X138503200Y-88834600D02*
X138496200Y-88920600D01*
X138503200Y-88833600D02*
X138503200Y-88228600D01*
X138492200Y-88128600D02*
X138503200Y-88221600D01*
X138467200Y-88038600D02*
X138492200Y-88128600D01*
X138428200Y-87955600D02*
X138467200Y-88038600D01*
X138375200Y-87882600D02*
X138428200Y-87955600D01*
X138316200Y-87823600D02*
X138375200Y-87882600D01*
X138247200Y-87777600D02*
X138316200Y-87823600D01*
X138168200Y-87744600D02*
X138247200Y-87777600D01*
X138089200Y-87728600D02*
X138168200Y-87744600D01*
X137187200Y-87649600D02*
X138089200Y-87728600D01*
X137187200Y-87649600D02*
X137141200Y-87643600D01*
X137141200Y-87643600D02*
X137049200Y-87636600D01*
X136911200Y-87623600D02*
X137049200Y-87636600D01*
X136575200Y-87590600D02*
X136911200Y-87623600D01*
X136575200Y-87590600D02*
X133108200Y-87274600D01*
X133006200Y-87239600D02*
X133098200Y-87272600D01*
X139293200Y-87222600D02*
X139293200Y-89840600D01*
X139293200Y-87222600D02*
X139286200Y-87162600D01*
X132935200Y-87180600D02*
X133006200Y-87239600D01*
X139286200Y-87162600D02*
X139260200Y-87103600D01*
X132893200Y-87104600D02*
X132935200Y-87180600D01*
X139260200Y-87103600D02*
X139213200Y-87064600D01*
X139213200Y-87064600D02*
X139161200Y-87031600D01*
X132882200Y-87056600D02*
X132893200Y-87104600D01*
X139161200Y-87031600D02*
X139102200Y-87017600D01*
X132881200Y-87007600D02*
X132882200Y-87056600D01*
X132889200Y-86958600D02*
X132881200Y-87007600D01*
X132907200Y-86912600D02*
X132889200Y-86958600D01*
X132964200Y-86840600D02*
X132907200Y-86912600D01*
X133044200Y-86795600D02*
X132964200Y-86840600D01*
X133141200Y-86780600D02*
X139102200Y-87017600D01*
X133141200Y-86780600D02*
X133044200Y-86795600D01*
X140299200Y-85978600D02*
X140299200Y-91541600D01*
X140299200Y-85978600D02*
X139898200Y-85978600D01*
X139826200Y-85967600D02*
X139892200Y-85978600D01*
X139772200Y-85949600D02*
X139826200Y-85967600D01*
X139720200Y-85921600D02*
X139772200Y-85949600D01*
X139680200Y-85887600D02*
X139720200Y-85921600D01*
X139645200Y-85841600D02*
X139680200Y-85887600D01*
X139622200Y-85797600D02*
X139645200Y-85841600D01*
X139605200Y-85742600D02*
X139622200Y-85797600D01*
X139595200Y-85675600D02*
X139605200Y-85742600D01*
X139595200Y-85274600D02*
X139694200Y-85274600D01*
X139694200Y-85274600D02*
X139810200Y-85263600D01*
X139810200Y-85263600D02*
X139919200Y-85230600D01*
X139919200Y-85230600D02*
X140019200Y-85179600D01*
X140019200Y-85179600D02*
X140113200Y-85105600D01*
X140113200Y-85105600D02*
X140185200Y-85021600D01*
X140185200Y-85021600D02*
X140246200Y-84917600D01*
X128298200Y-84971600D02*
X126299200Y-84971600D01*
X139595200Y-84971600D02*
X139595200Y-85675600D01*
X139694200Y-84971600D02*
X131994200Y-84971600D01*
X139694200Y-84971600D02*
X139753200Y-84968600D01*
X139753200Y-84968600D02*
X139803200Y-84954600D01*
X139803200Y-84954600D02*
X139856200Y-84928600D01*
X139856200Y-84928600D02*
X139903200Y-84891600D01*
X140246200Y-84917600D02*
X140285200Y-84800600D01*
X139903200Y-84891600D02*
X139939200Y-84848600D01*
X139939200Y-84848600D02*
X139968200Y-84796600D01*
X140285200Y-84800600D02*
X140299200Y-84685600D01*
X139968200Y-84796600D02*
X139987200Y-84742600D01*
X139987200Y-84742600D02*
X139996200Y-84680600D01*
X140299200Y-84675600D02*
X140299200Y-84320600D01*
X139996200Y-84320600D02*
X139996200Y-84675600D01*
X140299200Y-84320600D02*
X139996200Y-84320600D01*
D13*
X106170000Y-94463641D02*
X106170000Y-94156359D01*
X106930000Y-94463641D02*
X106930000Y-94156359D01*
X108298741Y-79745800D02*
X107991459Y-79745800D01*
X108298741Y-78985800D02*
X107991459Y-78985800D01*
X101564100Y-85567036D02*
X101564100Y-85351364D01*
X102284100Y-85567036D02*
X102284100Y-85351364D01*
X108069900Y-83273559D02*
X108069900Y-83580841D01*
X107309900Y-83273559D02*
X107309900Y-83580841D01*
X119615000Y-94100452D02*
X119615000Y-93577948D01*
X121085000Y-94100452D02*
X121085000Y-93577948D01*
X124082841Y-90753200D02*
X123775559Y-90753200D01*
X124082841Y-89993200D02*
X123775559Y-89993200D01*
X106890000Y-96437836D02*
X106890000Y-96222164D01*
X107610000Y-96437836D02*
X107610000Y-96222164D01*
X87096800Y-99086359D02*
X87096800Y-99393641D01*
X86336800Y-99086359D02*
X86336800Y-99393641D01*
X89389300Y-94260000D02*
X91189300Y-94260000D01*
X89389300Y-94260000D02*
X88589300Y-94260000D01*
X89389300Y-91140000D02*
X90189300Y-91140000D01*
X89389300Y-91140000D02*
X88589300Y-91140000D01*
X86336800Y-96853641D02*
X86336800Y-96546359D01*
X87096800Y-96853641D02*
X87096800Y-96546359D01*
X91620000Y-92840441D02*
X91620000Y-92533159D01*
X92380000Y-92840441D02*
X92380000Y-92533159D01*
X119446752Y-77764000D02*
X118924248Y-77764000D01*
X119446752Y-76294000D02*
X118924248Y-76294000D01*
D15*
X106764081Y-95744156D02*
X106764081Y-95236155D01*
X106764081Y-95236155D02*
X106256080Y-95236155D01*
D16*
X106507540Y-98792289D02*
X102446072Y-98792162D01*
X106507540Y-95462343D02*
X106507540Y-98792289D01*
X102446072Y-98792162D02*
X102446072Y-97141159D01*
X102446072Y-97141159D02*
X102446072Y-95490156D01*
X102446072Y-95490156D02*
X106507540Y-95462343D01*
X102446072Y-95490156D02*
X102446072Y-95490156D01*
D11*
X106107997Y-95891096D02*
G75*
G03*
X106107997Y-95891096I-29972J0D01*
G01*
D13*
X104942164Y-94440000D02*
X105157836Y-94440000D01*
X104942164Y-95160000D02*
X105157836Y-95160000D01*
X105450300Y-83133836D02*
X105450300Y-82918164D01*
X106170300Y-83133836D02*
X106170300Y-82918164D01*
X100548100Y-85567036D02*
X100548100Y-85351364D01*
X101268100Y-85567036D02*
X101268100Y-85351364D01*
X109220000Y-83768836D02*
X109220000Y-83553164D01*
X109940000Y-83768836D02*
X109940000Y-83553164D01*
X98085752Y-86146000D02*
X97563248Y-86146000D01*
X98085752Y-84676000D02*
X97563248Y-84676000D01*
X91620000Y-99899641D02*
X91620000Y-99592359D01*
X92380000Y-99899641D02*
X92380000Y-99592359D01*
X113470637Y-92378800D02*
X113163355Y-92378800D01*
X113470637Y-91618800D02*
X113163355Y-91618800D01*
X98335500Y-81665800D02*
X98595500Y-81665800D01*
X98595500Y-81665800D02*
X98595500Y-83340800D01*
X103785500Y-81665800D02*
X103525500Y-81665800D01*
X98335500Y-78940800D02*
X98335500Y-81665800D01*
X98335500Y-78940800D02*
X98335500Y-76215800D01*
X103785500Y-78940800D02*
X103785500Y-81665800D01*
X103785500Y-78940800D02*
X103785500Y-76215800D01*
X98335500Y-76215800D02*
X98595500Y-76215800D01*
X103785500Y-76215800D02*
X103525500Y-76215800D01*
G36*
X127313242Y-78591304D02*
G01*
X127117502Y-78591304D01*
X126687490Y-77259653D01*
X126881689Y-77259653D01*
X127313242Y-78591304D01*
G37*
G36*
X126855694Y-80572029D02*
G01*
X126661244Y-80572029D01*
X127086603Y-79259493D01*
X127278014Y-79259493D01*
X126855694Y-80572029D01*
G37*
G36*
X128083873Y-78591304D02*
G01*
X127888133Y-78591304D01*
X127458121Y-77259653D01*
X127652320Y-77259653D01*
X128083873Y-78591304D01*
G37*
G36*
X127615263Y-80572029D02*
G01*
X127420814Y-80572029D01*
X127846172Y-79259493D01*
X128037584Y-79259493D01*
X127615263Y-80572029D01*
G37*
G36*
X128800192Y-80572029D02*
G01*
X128607261Y-80572029D01*
X128183421Y-79259493D01*
X128374833Y-79259493D01*
X128800192Y-80572029D01*
G37*
G36*
X128422951Y-78591304D02*
G01*
X128225669Y-78591304D01*
X128657223Y-77259653D01*
X128851422Y-77259653D01*
X128422951Y-78591304D01*
G37*
G36*
X129615969Y-80572029D02*
G01*
X128880706Y-80572029D01*
X128880706Y-80409481D01*
X129615969Y-80409481D01*
X129615969Y-80572029D01*
G37*
G36*
X129750312Y-76610687D02*
G01*
X128993317Y-76610687D01*
X128993317Y-76443335D01*
X129750312Y-76443335D01*
X129750312Y-76610687D01*
G37*
G36*
X130375538Y-80572029D02*
G01*
X129640275Y-80572029D01*
X129640275Y-80409481D01*
X130375538Y-80409481D01*
X130375538Y-80572029D01*
G37*
G36*
X130474462Y-76610687D02*
G01*
X130275829Y-76610687D01*
X129839462Y-75259357D01*
X130036531Y-75259357D01*
X130474462Y-76610687D01*
G37*
G36*
X131135108Y-80572029D02*
G01*
X130399845Y-80572029D01*
X130399845Y-80409481D01*
X131135108Y-80409481D01*
X131135108Y-80572029D01*
G37*
G36*
X131314351Y-76610687D02*
G01*
X130557356Y-76610687D01*
X130557356Y-76443335D01*
X131314351Y-76443335D01*
X131314351Y-76610687D01*
G37*
G36*
X131846065Y-79851957D02*
G01*
X131208026Y-79851957D01*
X131208026Y-79697005D01*
X131846065Y-79697005D01*
X131846065Y-79851957D01*
G37*
G36*
X131846065Y-80148189D02*
G01*
X131208026Y-80148189D01*
X131208026Y-79993237D01*
X131846065Y-79993237D01*
X131846065Y-80148189D01*
G37*
G36*
X131937029Y-78591304D02*
G01*
X131741288Y-78591304D01*
X131311276Y-77259653D01*
X131505475Y-77259653D01*
X131937029Y-78591304D01*
G37*
G36*
X129289562Y-81387691D02*
G01*
X129285818Y-81469313D01*
X129275334Y-81559920D01*
X129261107Y-81652025D01*
X129246130Y-81736642D01*
X129138300Y-81736642D01*
X129123324Y-81652025D01*
X129109096Y-81559920D01*
X129097864Y-81469313D01*
X129093371Y-81387691D01*
X129093371Y-81288847D01*
X129289562Y-81288847D01*
X129289562Y-81387691D01*
G37*
G36*
X130038383Y-81387691D02*
G01*
X130034639Y-81469313D01*
X130024155Y-81559920D01*
X130009928Y-81652025D01*
X129994951Y-81736642D01*
X129887121Y-81736642D01*
X129872145Y-81652025D01*
X129857917Y-81559920D01*
X129846685Y-81469313D01*
X129842192Y-81387691D01*
X129842192Y-81288847D01*
X130038383Y-81288847D01*
X130038383Y-81387691D01*
G37*
G36*
X133259432Y-78115054D02*
G01*
X133301046Y-78215236D01*
X133259432Y-78318500D01*
X133163873Y-78353950D01*
X133111470Y-78344702D01*
X133067544Y-78317730D01*
X133036719Y-78274575D01*
X133025160Y-78215236D01*
X133036719Y-78157439D01*
X133067544Y-78115054D01*
X133111470Y-78088852D01*
X133163873Y-78079605D01*
X133259432Y-78115054D01*
G37*
G36*
X130924227Y-77600850D02*
G01*
X130989923Y-77621079D01*
X131048106Y-77653831D01*
X131097811Y-77698142D01*
X131138077Y-77753243D01*
X131167939Y-77818361D01*
X131186434Y-77892149D01*
X131192599Y-77973258D01*
X131186434Y-78055523D01*
X131167939Y-78129696D01*
X131138270Y-78195007D01*
X131098582Y-78250685D01*
X131049454Y-78295767D01*
X130991464Y-78329289D01*
X130925383Y-78350096D01*
X130851980Y-78357032D01*
X130848898Y-78356741D01*
X130778578Y-78350096D01*
X130712496Y-78329289D01*
X130654313Y-78295767D01*
X130604608Y-78250685D01*
X130564342Y-78195007D01*
X130534480Y-78129696D01*
X130515985Y-78055523D01*
X130509935Y-77974799D01*
X130702478Y-77974799D01*
X130711147Y-78062651D01*
X130737156Y-78132008D01*
X130782431Y-78177090D01*
X130848898Y-78192117D01*
X130913823Y-78177090D01*
X130960639Y-78132008D01*
X130988960Y-78062651D01*
X130998400Y-77974799D01*
X130989730Y-77887140D01*
X130963722Y-77818361D01*
X130918447Y-77773857D01*
X130851980Y-77759022D01*
X130787054Y-77773857D01*
X130740239Y-77818361D01*
X130711918Y-77887140D01*
X130702478Y-77974799D01*
X130509935Y-77974799D01*
X130509820Y-77973258D01*
X130516178Y-77892149D01*
X130535251Y-77818361D01*
X130565691Y-77753243D01*
X130606149Y-77698142D01*
X130656047Y-77653831D01*
X130714808Y-77621079D01*
X130780697Y-77600850D01*
X130851980Y-77594107D01*
X130924227Y-77600850D01*
G37*
G36*
X133511267Y-73377734D02*
G01*
X133599109Y-73420861D01*
X133668606Y-73492739D01*
X133708194Y-73565219D01*
X133736471Y-73653275D01*
X133753438Y-73756909D01*
X133759093Y-73876121D01*
X133753339Y-73995332D01*
X133736075Y-74098966D01*
X133707301Y-74187023D01*
X133667018Y-74259502D01*
X133597168Y-74331380D01*
X133510385Y-74374507D01*
X133406668Y-74388883D01*
X133405081Y-74388668D01*
X133300394Y-74374507D01*
X133212288Y-74331380D01*
X133142350Y-74259502D01*
X133102414Y-74187023D01*
X133073889Y-74098966D01*
X133056773Y-73995332D01*
X133051068Y-73876121D01*
X133249506Y-73876121D01*
X133250895Y-73945375D01*
X133255062Y-74010264D01*
X133277287Y-74119008D01*
X133324118Y-74192033D01*
X133405081Y-74219021D01*
X133485250Y-74192033D01*
X133532875Y-74118214D01*
X133555100Y-74009471D01*
X133559267Y-73945177D01*
X133560656Y-73876121D01*
X133559267Y-73806866D01*
X133555100Y-73741977D01*
X133532875Y-73633233D01*
X133486043Y-73560208D01*
X133405081Y-73533221D01*
X133324118Y-73560208D01*
X133277287Y-73634027D01*
X133255062Y-73742771D01*
X133250895Y-73807064D01*
X133249506Y-73876121D01*
X133051068Y-73876121D01*
X133056922Y-73756909D01*
X133074484Y-73653275D01*
X133103754Y-73565219D01*
X133144731Y-73492739D01*
X133215286Y-73420861D01*
X133302070Y-73377734D01*
X133405081Y-73363358D01*
X133511267Y-73377734D01*
G37*
G36*
X134138811Y-75605596D02*
G01*
X134205478Y-75626124D01*
X134264521Y-75659360D01*
X134314961Y-75704326D01*
X134355821Y-75760241D01*
X134386125Y-75826321D01*
X134404893Y-75901200D01*
X134411149Y-75983507D01*
X134404893Y-76066988D01*
X134386125Y-76142257D01*
X134356017Y-76208534D01*
X134315743Y-76265034D01*
X134265889Y-76310783D01*
X134207042Y-76344800D01*
X134139984Y-76365915D01*
X134065497Y-76372953D01*
X134062368Y-76372658D01*
X133991009Y-76365915D01*
X133923951Y-76344800D01*
X133864908Y-76310783D01*
X133814468Y-76265034D01*
X133773608Y-76208534D01*
X133743304Y-76142257D01*
X133724536Y-76066988D01*
X133718397Y-75985071D01*
X133913785Y-75985071D01*
X133922582Y-76074222D01*
X133948976Y-76144603D01*
X133994919Y-76190352D01*
X134062368Y-76205601D01*
X134128254Y-76190352D01*
X134175761Y-76144603D01*
X134204501Y-76074222D01*
X134214080Y-75985071D01*
X134205283Y-75896117D01*
X134178889Y-75826321D01*
X134132946Y-75781160D01*
X134065497Y-75766106D01*
X133999611Y-75781160D01*
X133952104Y-75826321D01*
X133923364Y-75896117D01*
X133913785Y-75985071D01*
X133718397Y-75985071D01*
X133718280Y-75983507D01*
X133724731Y-75901200D01*
X133744086Y-75826321D01*
X133774976Y-75760241D01*
X133816032Y-75704326D01*
X133866668Y-75659360D01*
X133926297Y-75626124D01*
X133993160Y-75605596D01*
X134065497Y-75598754D01*
X134138811Y-75605596D01*
G37*
G36*
X135862332Y-73610016D02*
G01*
X135930000Y-73630852D01*
X135989928Y-73664586D01*
X136041125Y-73710227D01*
X136082598Y-73766980D01*
X136113356Y-73834052D01*
X136132406Y-73910053D01*
X136138756Y-73993596D01*
X136132406Y-74078328D01*
X136113356Y-74154727D01*
X136082796Y-74221997D01*
X136041918Y-74279346D01*
X135991317Y-74325780D01*
X135931587Y-74360308D01*
X135863523Y-74381739D01*
X135787918Y-74388883D01*
X135784743Y-74388583D01*
X135712314Y-74381739D01*
X135644250Y-74360308D01*
X135584321Y-74325780D01*
X135533125Y-74279346D01*
X135491651Y-74221997D01*
X135460893Y-74154727D01*
X135441843Y-74078328D01*
X135435612Y-73995183D01*
X135633931Y-73995183D01*
X135642861Y-74085671D01*
X135669650Y-74157108D01*
X135716282Y-74203543D01*
X135784743Y-74219021D01*
X135851617Y-74203543D01*
X135899837Y-74157108D01*
X135929007Y-74085671D01*
X135938731Y-73995183D01*
X135929801Y-73904894D01*
X135903012Y-73834052D01*
X135856379Y-73788213D01*
X135787918Y-73772933D01*
X135721045Y-73788213D01*
X135672825Y-73834052D01*
X135643654Y-73904894D01*
X135633931Y-73995183D01*
X135435612Y-73995183D01*
X135435493Y-73993596D01*
X135442042Y-73910053D01*
X135461687Y-73834052D01*
X135493040Y-73766980D01*
X135534712Y-73710227D01*
X135586107Y-73664586D01*
X135646631Y-73630852D01*
X135714496Y-73610016D01*
X135787918Y-73603071D01*
X135862332Y-73610016D01*
G37*
X111449859Y-78935000D02*
X111757141Y-78935000D01*
X111449859Y-79695000D02*
X111757141Y-79695000D01*
X97732100Y-82897759D02*
X97732100Y-83205041D01*
X96972100Y-82897759D02*
X96972100Y-83205041D01*
X107897500Y-94204964D02*
X107897500Y-94420636D01*
X107177500Y-94204964D02*
X107177500Y-94420636D01*
X108868800Y-94204964D02*
X108868800Y-94420636D01*
X108148800Y-94204964D02*
X108148800Y-94420636D01*
%LPC*%
D17*
X107380061Y-76700101D03*
X108179909Y-76700101D03*
D18*
X108829896Y-76700101D03*
X109330023Y-76700101D03*
X109829896Y-76700101D03*
X110330023Y-76700101D03*
X110829896Y-76700101D03*
X111330023Y-76700101D03*
X111829896Y-76700101D03*
X112330023Y-76700101D03*
D17*
X112980010Y-76700101D03*
X113779858Y-76700101D03*
D19*
X107689942Y-75580213D03*
X113479883Y-75580213D03*
D20*
X114900000Y-76080086D03*
D21*
X114900000Y-71900000D03*
X106259919Y-71900000D03*
D20*
X106259919Y-76080086D03*
D22*
X86716800Y-91614000D03*
X86716800Y-92634000D03*
D23*
X87787500Y-83887000D03*
D24*
X85247500Y-83887000D03*
X87787500Y-81347000D03*
X85247500Y-81347000D03*
X87787500Y-78807000D03*
X85247500Y-78807000D03*
X87787500Y-76267000D03*
X85247500Y-76267000D03*
X87787500Y-73727000D03*
X85247500Y-73727000D03*
D25*
X90577600Y-100660400D03*
X90577600Y-98760400D03*
X88302600Y-99710400D03*
D26*
X124764800Y-95046800D03*
X122639800Y-95046800D03*
D27*
X92000000Y-96702000D03*
X92000000Y-95682000D03*
D28*
X123200000Y-86850000D03*
X123200000Y-84550000D03*
D29*
X116900000Y-84550000D03*
D28*
X123200000Y-82250000D03*
D30*
X112850000Y-83379000D03*
X112850000Y-81479000D03*
D23*
X103700000Y-103650000D03*
D24*
X103700000Y-101110000D03*
X106240000Y-103650000D03*
X106240000Y-101110000D03*
X108780000Y-103650000D03*
X108780000Y-101110000D03*
D31*
X120150000Y-79250000D03*
X118050000Y-79250000D03*
D32*
X95000000Y-74000000D03*
D33*
X101550000Y-89350000D03*
X100590000Y-89350000D03*
D34*
X111250000Y-84141000D03*
X111250000Y-83181000D03*
D35*
X124439200Y-92659200D03*
X123419200Y-92659200D03*
X110585500Y-93793000D03*
X109565500Y-93793000D03*
D23*
X122000000Y-73000000D03*
D24*
X124540000Y-73000000D03*
X127080000Y-73000000D03*
X129620000Y-73000000D03*
D35*
X113826996Y-91033600D03*
X112806996Y-91033600D03*
D36*
X123500102Y-104000000D03*
X114700000Y-104000000D03*
X123500102Y-100000000D03*
X114700000Y-100000000D03*
D37*
X90850000Y-74850000D03*
X90850000Y-72750000D03*
D32*
X86000000Y-104150000D03*
D22*
X97352100Y-80633800D03*
X97352100Y-81653800D03*
D38*
X112640000Y-85600000D03*
X113600000Y-85600000D03*
D34*
X106750100Y-83506000D03*
X106750100Y-82546000D03*
D38*
X112640000Y-86650000D03*
X113600000Y-86650000D03*
D25*
X90526800Y-97155200D03*
X90526800Y-95255200D03*
X88251800Y-96205200D03*
D27*
X86716800Y-90199600D03*
X86716800Y-89179600D03*
D38*
X111850000Y-89050000D03*
X112810000Y-89050000D03*
D22*
X108640000Y-82917200D03*
X108640000Y-83937200D03*
D25*
X90526800Y-90144800D03*
X90526800Y-88244800D03*
X88251800Y-89194800D03*
D39*
X103462500Y-86237500D03*
X103462500Y-86637500D03*
X103462500Y-87037500D03*
X103462500Y-87437500D03*
X103462500Y-87837500D03*
X103462500Y-88237500D03*
X103462500Y-88637500D03*
X103462500Y-89037500D03*
X103462500Y-89437500D03*
X103462500Y-89837500D03*
X103462500Y-90237500D03*
X103462500Y-90637500D03*
X103462500Y-91037500D03*
X103462500Y-91437500D03*
D40*
X104300000Y-92275000D03*
X104700000Y-92275000D03*
X105100000Y-92275000D03*
X105500000Y-92275000D03*
X105900000Y-92275000D03*
X106300000Y-92275000D03*
X106700000Y-92275000D03*
X107100000Y-92275000D03*
X107500000Y-92275000D03*
X107900000Y-92275000D03*
X108300000Y-92275000D03*
X108700000Y-92275000D03*
X109100000Y-92275000D03*
X109500000Y-92275000D03*
D39*
X110337500Y-91437500D03*
X110337500Y-91037500D03*
X110337500Y-90637500D03*
X110337500Y-90237500D03*
X110337500Y-89837500D03*
X110337500Y-89437500D03*
X110337500Y-89037500D03*
X110337500Y-88637500D03*
X110337500Y-88237500D03*
X110337500Y-87837500D03*
X110337500Y-87437500D03*
X110337500Y-87037500D03*
X110337500Y-86637500D03*
X110337500Y-86237500D03*
D40*
X109500000Y-85400000D03*
X109100000Y-85400000D03*
X108700000Y-85400000D03*
X108300000Y-85400000D03*
X107900000Y-85400000D03*
X107500000Y-85400000D03*
X107100000Y-85400000D03*
X106700000Y-85400000D03*
X106300000Y-85400000D03*
X105900000Y-85400000D03*
X105500000Y-85400000D03*
X105100000Y-85400000D03*
X104700000Y-85400000D03*
X104300000Y-85400000D03*
D41*
X106900000Y-88837500D03*
D27*
X92000000Y-89840000D03*
X92000000Y-88820000D03*
D42*
X127439200Y-95041600D03*
X127439200Y-92541600D03*
X127439200Y-90541600D03*
X127439200Y-88041600D03*
D43*
X130149200Y-98541600D03*
X130149200Y-84541600D03*
D27*
X106550000Y-94820000D03*
X106550000Y-93800000D03*
D35*
X108655100Y-79365800D03*
X107635100Y-79365800D03*
D34*
X101924100Y-85939200D03*
X101924100Y-84979200D03*
D22*
X107689900Y-82917200D03*
X107689900Y-83937200D03*
D30*
X120350000Y-94789200D03*
X120350000Y-92889200D03*
D35*
X124439200Y-90373200D03*
X123419200Y-90373200D03*
D34*
X107250000Y-96810000D03*
X107250000Y-95850000D03*
D22*
X86716800Y-98730000D03*
X86716800Y-99750000D03*
D25*
X90526800Y-93650000D03*
X90526800Y-91750000D03*
X88251800Y-92700000D03*
D27*
X86716800Y-97210000D03*
X86716800Y-96190000D03*
X92000000Y-93196800D03*
X92000000Y-92176800D03*
D44*
X120135500Y-77029000D03*
X118235500Y-77029000D03*
D45*
X105578152Y-96266000D03*
X103378000Y-96266000D03*
X103378000Y-98016064D03*
X105578152Y-98016064D03*
D38*
X104570000Y-94800000D03*
X105530000Y-94800000D03*
D34*
X105810300Y-83506000D03*
X105810300Y-82546000D03*
X100908100Y-85939200D03*
X100908100Y-84979200D03*
D32*
X135000000Y-74000000D03*
D34*
X109580000Y-84141000D03*
X109580000Y-83181000D03*
D44*
X98774500Y-85411000D03*
X96874500Y-85411000D03*
D32*
X135000000Y-104000000D03*
D27*
X92000000Y-100256000D03*
X92000000Y-99236000D03*
D35*
X113826996Y-91998800D03*
X112806996Y-91998800D03*
D46*
X99155500Y-82540800D03*
X100425500Y-82540800D03*
X101695500Y-82540800D03*
X102965500Y-82540800D03*
X102965500Y-75340800D03*
X101695500Y-75340800D03*
X100425500Y-75340800D03*
X99155500Y-75340800D03*
D47*
X111093500Y-79315000D03*
X112113500Y-79315000D03*
D22*
X97352100Y-82541400D03*
X97352100Y-83561400D03*
D48*
X107537500Y-93832800D03*
X107537500Y-94792800D03*
X108508800Y-93832800D03*
X108508800Y-94792800D03*
%LPD*%
M02*
