<?xml version="1.0" standalone="no"?>
<!DOCTYPE svg PUBLIC "-//W3C//DTD SVG 20010904//EN"
 "http://www.w3.org/TR/2001/REC-SVG-20010904/DTD/svg10.dtd">
<svg version="1.0" xmlns="http://www.w3.org/2000/svg"
 width="512.000000pt" height="512.000000pt" viewBox="0 0 512.000000 512.000000"
 preserveAspectRatio="xMidYMid meet">

<g transform="translate(0.000000,512.000000) scale(0.100000,-0.100000)"
fill="#000000" stroke="none">
<path d="M0 5063 l0 -58 70 -43 c66 -41 238 -167 329 -241 24 -19 64 -60 88
-91 25 -30 71 -75 103 -100 141 -108 242 -264 291 -445 19 -71 22 -105 21
-300 0 -131 -6 -279 -16 -365 -45 -409 -48 -470 -36 -600 14 -159 38 -275 105
-519 92 -335 167 -488 344 -700 98 -117 219 -291 474 -675 113 -170 201 -329
263 -473 40 -96 124 -388 124 -435 0 -12 8 -18 24 -18 l24 0 -20 93 c-25 115
-95 328 -141 427 -60 130 -176 330 -275 475 -53 77 -149 219 -214 315 -65 96
-159 224 -209 284 -121 143 -150 187 -225 341 -72 147 -110 275 -175 583 -38
181 -41 213 -46 387 -3 135 0 229 11 325 9 74 23 243 31 375 9 132 19 260 22
285 l6 45 13 -40 c19 -60 16 -232 -7 -532 -25 -319 -22 -494 15 -754 40 -287
83 -426 202 -659 48 -94 105 -187 161 -260 47 -63 110 -154 139 -203 73 -119
158 -240 217 -309 183 -215 435 -706 528 -1031 41 -142 44 -147 69 -147 l27 0
-29 103 c-15 56 -31 111 -34 121 -4 11 20 -12 53 -50 33 -38 85 -89 116 -113
31 -24 57 -48 57 -53 0 -5 22 -8 50 -7 34 2 50 7 50 16 0 7 4 21 10 31 5 9 25
49 43 88 69 143 95 174 228 269 68 49 161 120 206 158 45 38 85 69 89 69 19
-1 13 -20 -16 -50 -48 -51 -35 -67 14 -17 43 42 45 43 80 33 35 -11 36 -10 93
45 55 54 83 70 83 47 0 -6 11 -20 25 -32 14 -12 25 -25 25 -28 0 -24 -59 -59
-142 -85 -94 -29 -308 -134 -429 -211 -84 -53 -178 -148 -236 -237 -65 -101
-65 -97 7 -97 58 0 65 3 118 44 162 126 521 297 857 408 l130 43 205 0 c191
-1 350 -17 421 -44 10 -3 -90 -4 -223 -3 -143 2 -281 -1 -341 -8 -218 -25
-408 -96 -599 -222 -62 -41 -124 -81 -138 -88 -14 -7 -65 -39 -114 -71 -85
-57 -87 -59 -53 -59 23 0 48 10 78 33 24 18 60 42 79 54 19 11 93 58 164 103
129 83 235 134 353 171 123 38 412 68 536 55 65 -7 66 -8 69 -39 2 -24 9 -32
31 -38 25 -7 27 -5 27 20 0 20 -7 30 -27 38 -27 10 -26 11 17 12 69 1 127 -16
220 -63 111 -57 264 -150 315 -191 46 -37 112 -125 94 -125 -6 0 -70 34 -142
75 -71 41 -133 75 -137 75 -4 0 -46 15 -92 34 -135 54 -346 123 -430 140 -151
31 -321 11 -548 -64 -169 -55 -249 -101 -403 -230 l-66 -55 36 -3 c26 -3 39 2
50 17 43 62 353 232 493 270 133 37 261 51 354 41 165 -19 376 -89 414 -138
10 -13 15 -14 21 -4 6 10 24 6 82 -17 135 -53 159 -64 159 -71 0 -4 -13 -13
-30 -20 -36 -15 -31 -27 15 -36 19 -3 39 -12 45 -20 24 -27 -65 -1 -160 49
-52 27 -99 53 -104 58 -6 5 -19 9 -31 9 -11 0 -30 7 -42 15 -84 59 -474 148
-507 115 -7 -7 -1 -10 19 -10 52 0 236 -46 339 -85 186 -70 324 -143 311 -165
-3 -5 52 -8 122 -8 l127 1 -47 24 c-32 16 -47 30 -47 43 0 11 4 20 10 20 13 0
139 -70 146 -81 3 -5 32 -9 66 -9 l60 0 -35 48 c-19 27 -40 58 -46 71 -12 21
-11 21 10 9 31 -18 55 -46 75 -90 11 -24 24 -38 36 -38 16 0 15 7 -14 63 -18
34 -34 66 -36 70 -3 5 28 -17 68 -48 40 -30 75 -53 78 -50 9 8 -29 44 -95 92
-55 39 -65 51 -78 95 -8 28 -13 54 -10 56 8 9 94 -68 137 -124 43 -55 61 -59
35 -7 -27 50 -99 124 -152 154 -51 29 -103 75 -94 84 5 5 29 -7 93 -45 37 -23
38 -23 27 -3 -14 28 -81 80 -125 98 -20 9 -89 49 -154 91 -64 41 -153 93 -197
115 -133 65 -166 70 -482 74 -259 3 -335 10 -304 29 27 17 147 18 200 2 30 -9
62 -16 70 -16 21 1 88 56 78 66 -4 4 -16 -1 -27 -11 -18 -17 -26 -17 -84 -7
-35 7 -76 12 -92 13 l-29 1 30 9 c17 6 75 12 130 15 55 2 138 11 184 20 97 18
162 11 316 -33 108 -31 139 -45 180 -87 17 -17 44 -39 58 -49 15 -10 27 -22
27 -27 0 -19 -32 -10 -113 31 -115 58 -234 95 -378 119 -68 11 -127 20 -131
20 -7 0 -48 -63 -48 -74 0 -4 14 3 31 15 31 22 34 22 138 10 207 -24 425 -120
559 -246 45 -43 82 -73 82 -69 0 20 -44 79 -92 125 -29 28 -45 49 -36 49 24 0
98 -58 116 -91 25 -44 67 -105 152 -216 62 -81 76 -94 78 -75 2 15 -16 48 -60
105 -74 96 -130 174 -147 206 -12 21 -11 21 11 9 13 -7 62 -51 111 -98 86 -83
87 -84 87 -54 0 26 -13 43 -71 99 -39 36 -68 69 -65 72 8 8 71 -26 106 -59
l30 -27 0 79 c0 74 -2 80 -33 112 -82 87 -95 107 -81 126 10 13 17 15 31 6 10
-6 18 -18 18 -27 0 -9 4 -19 8 -23 4 -4 7 1 7 10 0 14 6 17 25 14 23 -5 25 -2
25 32 0 36 -2 38 -62 65 -65 29 -148 98 -148 122 0 9 -6 13 -15 9 -10 -4 -15
1 -15 14 0 26 4 25 48 -10 20 -16 72 -45 115 -64 l77 -35 0 24 c0 15 -6 25
-14 25 -29 0 -154 72 -202 117 -46 43 -94 113 -78 113 3 0 18 -9 33 -19 14
-11 71 -31 126 -46 55 -15 108 -31 118 -36 13 -8 17 -6 17 10 0 22 2 21 -125
51 -152 35 -184 56 -97 63 45 3 45 3 -12 5 -58 2 -59 2 -41 22 24 26 30 26
163 -14 98 -29 112 -31 112 -17 0 12 -15 21 -52 30 -100 26 -158 51 -158 70 0
39 23 42 119 17 l91 -23 0 23 c0 13 -5 24 -10 24 -6 0 -27 8 -48 17 -20 9 -50
20 -67 23 -32 5 -43 32 -26 59 8 12 14 12 44 -2 19 -10 43 -17 52 -17 9 0 25
-5 36 -10 10 -6 19 -7 19 -2 0 14 -23 32 -41 32 -20 0 -89 38 -89 48 0 4 7 16
15 26 15 20 15 20 30 0 8 -10 15 -23 15 -28 0 -6 5 -5 11 1 8 8 20 8 35 3 36
-14 29 4 -13 39 -50 41 -64 68 -50 98 11 25 23 28 61 13 32 -12 35 4 6 35 -20
21 -20 21 0 43 17 17 20 35 20 101 0 69 -3 80 -19 86 -10 3 -51 40 -92 82 -57
60 -70 78 -56 81 24 5 85 -16 127 -45 35 -23 35 -23 38 -2 7 40 -62 67 -221
88 -49 7 -149 32 -224 57 -116 38 -161 48 -317 65 -309 35 -625 22 -854 -35
-31 -8 -117 -24 -190 -37 -123 -20 -134 -21 -150 -6 -8 9 -14 18 -11 20 2 2
78 14 168 26 91 12 172 27 180 32 12 7 5 8 -24 5 -22 -3 -74 -8 -115 -11 -41
-3 -108 -11 -149 -17 -72 -11 -75 -11 -93 12 l-19 24 60 12 c34 7 65 15 70 18
5 3 55 15 112 26 57 11 172 43 254 69 195 64 307 87 490 102 112 9 173 9 245
1 52 -7 124 -14 160 -18 36 -4 110 -22 165 -41 103 -35 384 -166 437 -204 l30
-22 -4 24 c-2 19 -26 36 -123 86 -66 34 -176 85 -245 114 -68 28 -134 57 -145
64 -11 7 -76 21 -144 30 -118 17 -135 17 -335 0 -224 -18 -384 -50 -571 -114
-49 -17 -151 -42 -225 -56 -85 -15 -152 -34 -184 -50 -27 -14 -51 -23 -54 -20
-9 9 98 113 150 146 134 86 402 159 693 189 50 5 122 18 160 29 86 24 210 27
331 6 98 -17 341 -69 389 -84 52 -15 240 -88 274 -106 31 -15 33 -15 29 1 -4
22 -186 101 -318 137 -172 48 -399 89 -521 94 -100 5 -128 2 -215 -20 -54 -14
-146 -30 -204 -37 -89 -10 -326 -54 -410 -76 -50 -14 7 33 88 71 182 87 341
123 577 132 140 5 160 3 300 -25 83 -17 197 -38 255 -47 126 -20 243 -53 358
-101 46 -19 86 -33 88 -31 14 13 -16 39 -77 67 -38 17 -69 34 -69 37 0 2 9 41
21 85 35 138 68 186 109 160 19 -12 20 -10 20 63 l0 76 -47 -27 c-27 -15 -52
-31 -58 -36 -12 -10 -75 -11 -75 0 0 11 149 105 166 105 9 0 14 12 14 34 0 40
5 42 -138 -50 -86 -55 -95 -59 -120 -47 l-27 12 35 28 c19 16 83 59 143 96 59
36 107 73 107 81 0 11 -15 6 -57 -18 -104 -59 -218 -130 -240 -151 -18 -17
-25 -19 -37 -9 -8 7 -25 11 -38 9 -15 -2 -24 3 -26 15 -2 10 3 17 12 17 9 0
80 38 158 85 78 46 161 92 185 102 27 11 43 24 43 35 0 14 -21 6 -110 -38 -61
-30 -128 -65 -148 -78 -20 -13 -48 -27 -62 -31 -14 -4 -38 -17 -53 -27 -16
-11 -29 -19 -31 -17 -1 2 -8 17 -15 34 -11 26 -11 31 4 40 83 50 180 120 262
190 54 47 110 87 126 90 20 5 27 13 27 30 0 22 -2 23 -32 14 -73 -21 -80 5
-13 48 25 15 45 34 45 41 0 17 0 17 -60 -28 -48 -36 -100 -53 -100 -32 0 4 36
36 80 72 104 86 110 122 8 48 -40 -28 -84 -61 -98 -73 -34 -29 -136 -85 -156
-85 -8 0 -14 6 -12 13 6 17 126 116 236 194 90 64 112 86 99 100 -7 7 -142
-88 -272 -192 -95 -76 -116 -88 -140 -79 -12 5 -12 9 1 30 20 30 147 137 297
248 77 58 117 94 117 106 0 16 -11 11 -64 -28 -35 -26 -99 -73 -142 -104 -83
-60 -100 -75 -201 -170 -47 -45 -68 -58 -92 -58 -22 0 -29 4 -25 14 6 16 271
250 361 318 111 83 163 132 163 152 0 16 -4 15 -37 -10 -21 -15 -56 -43 -78
-61 -22 -19 -45 -37 -50 -41 -6 -4 -51 -41 -100 -82 -49 -41 -98 -82 -108 -90
-10 -8 -48 -43 -85 -77 -89 -82 -144 -106 -128 -55 8 23 124 139 183 181 22
16 44 35 48 41 4 7 42 34 83 61 42 28 120 89 174 137 95 85 97 88 97 132 1 31
-2 41 -8 30 -6 -8 -7 -18 -4 -23 7 -11 -106 -127 -167 -171 -47 -35 -80 -50
-80 -38 0 16 93 129 129 157 58 45 119 117 127 150 6 24 -8 14 -81 -63 -48
-50 -91 -90 -95 -87 -10 6 -67 -57 -109 -122 -18 -29 -37 -53 -42 -53 -5 0 -9
-6 -9 -13 0 -17 -70 -91 -78 -83 -2 3 8 24 24 47 16 22 46 69 66 103 21 33 75
97 120 141 96 93 116 119 156 207 16 36 35 68 41 72 6 4 11 20 11 36 l0 29
-37 -40 c-21 -22 -44 -46 -52 -52 -8 -7 -55 -50 -105 -97 -50 -47 -133 -124
-185 -170 -52 -47 -115 -107 -140 -134 -85 -90 -175 -230 -203 -316 -4 -11
-11 -5 -26 19 -19 32 -20 37 -6 70 39 95 187 267 369 431 113 102 203 178 248
213 27 19 62 54 78 77 16 22 36 43 44 47 8 3 15 14 15 26 0 16 -18 3 -83 -59
-46 -43 -121 -108 -167 -144 -112 -86 -347 -315 -425 -415 -34 -44 -75 -105
-90 -134 -25 -51 -28 -54 -41 -36 -22 29 -17 52 19 92 18 21 46 56 62 78 88
118 417 460 532 551 26 21 72 62 101 91 29 28 62 55 73 58 18 6 28 45 11 45
-5 0 -47 -33 -93 -72 -47 -40 -103 -88 -125 -106 -218 -185 -501 -483 -599
-629 -31 -48 -40 -52 -55 -24 -8 17 -1 30 45 83 31 35 67 81 82 103 15 22 49
63 76 92 27 28 47 55 44 60 -6 10 136 163 151 163 5 0 12 9 15 20 3 11 19 28
36 37 17 10 34 25 37 33 3 8 31 36 62 62 86 72 244 208 291 250 26 24 41 46
40 60 0 13 -3 17 -6 11 -2 -7 -9 -13 -15 -13 -6 0 -32 -19 -58 -42 -89 -82
-205 -185 -280 -249 -117 -100 -356 -342 -375 -380 -10 -19 -26 -43 -36 -54
-10 -11 -28 -31 -39 -45 l-21 -25 6 30 c3 17 26 64 51 105 49 84 157 197 440
465 356 337 334 314 333 354 -1 31 -2 33 -8 11 -7 -25 -397 -387 -407 -377 -3
2 6 30 20 61 22 49 34 61 98 103 81 52 281 245 290 280 10 38 -33 24 -54 -17
-34 -68 -256 -265 -276 -246 -4 4 18 31 49 59 44 41 64 70 93 134 20 45 36 86
36 90 0 16 -21 -16 -53 -82 -36 -73 -117 -169 -125 -146 -2 7 16 38 40 69 44
55 98 142 98 155 0 20 -32 2 -46 -25 -14 -29 -70 -104 -97 -133 -6 -6 -8 5 -4
33 4 29 17 57 42 87 38 47 29 61 -14 23 -14 -13 -20 -16 -13 -8 22 26 13 30
-68 30 -44 0 -80 -1 -80 -2 0 -2 -13 -81 -30 -176 -46 -269 -88 -397 -158
-490 -57 -76 -132 -156 -132 -141 1 8 33 75 71 149 115 219 146 283 154 320 6
31 5 33 -8 20 -8 -8 -22 -35 -31 -59 -9 -24 -38 -76 -63 -115 -88 -135 -158
-302 -190 -450 -9 -46 -38 -70 -54 -46 -5 8 -7 35 -4 60 4 25 11 77 16 115 5
39 18 97 29 130 19 57 39 88 171 272 31 43 64 94 74 113 14 27 105 284 105
297 0 2 -13 3 -30 3 -18 0 -30 -5 -30 -13 0 -18 -66 -142 -111 -209 -50 -73
-187 -218 -259 -273 -153 -117 -242 -167 -415 -235 -33 -12 -77 -36 -98 -52
-21 -17 -40 -28 -41 -27 -44 60 -56 78 -56 86 0 6 17 15 38 21 20 5 81 21 134
35 114 31 226 85 323 157 110 81 246 206 288 263 48 66 125 184 143 220 14 26
13 27 -9 27 -17 0 -31 -14 -57 -57 -57 -94 -173 -226 -277 -315 -202 -174
-294 -230 -428 -263 -85 -21 -175 -53 -195 -70 -28 -24 -60 -27 -86 -10 -13 9
-22 20 -18 26 13 21 163 81 312 125 223 65 358 166 558 415 114 141 115 144
88 147 -16 2 -30 -1 -32 -6 -2 -6 -12 -21 -24 -34 -11 -12 -44 -54 -73 -93
-67 -88 -121 -144 -215 -221 -114 -93 -197 -138 -343 -185 -73 -23 -167 -59
-209 -80 -43 -22 -88 -39 -100 -39 -21 1 -19 4 17 35 48 41 148 91 281 140 55
20 142 60 194 88 81 45 115 72 245 202 84 83 157 160 164 173 11 21 10 22 -24
22 -19 0 -35 -3 -35 -8 0 -4 -25 -34 -56 -67 -31 -33 -75 -82 -97 -109 -71
-85 -113 -120 -187 -159 -92 -49 -111 -35 -27 20 77 51 307 289 307 318 0 13
-30 3 -39 -13 -16 -29 -245 -252 -292 -283 -46 -30 -83 -36 -109 -18 -12 8
-12 12 -2 16 52 20 305 220 354 278 27 32 -1 30 -35 -2 -44 -41 -227 -186
-275 -218 -49 -32 -112 -45 -112 -22 0 9 65 68 145 131 79 64 147 121 150 126
15 25 -44 7 -71 -21 -29 -31 -196 -169 -244 -202 -25 -17 -90 -24 -90 -9 0 5
14 21 30 35 17 15 30 32 30 38 0 6 -21 -8 -46 -30 -45 -40 -95 -54 -109 -32
-6 10 161 132 265 193 53 31 60 38 39 38 -16 0 -74 -32 -154 -86 -132 -88
-195 -124 -216 -124 -17 0 29 47 71 73 72 44 192 137 176 137 -26 0 -51 -16
-156 -94 -132 -99 -173 -126 -193 -126 -32 0 -17 27 39 71 158 124 179 144
156 147 -23 4 -54 -16 -126 -82 -70 -64 -156 -112 -156 -88 0 4 28 32 63 60
128 105 135 112 109 112 -21 0 -143 -91 -186 -139 -14 -15 -30 -21 -60 -20
-36 0 -39 2 -22 12 10 7 41 31 69 55 28 23 56 42 61 42 6 1 25 12 41 25 52 43
3 29 -66 -17 -34 -24 -76 -53 -94 -65 -19 -12 -36 -27 -40 -33 -7 -12 -45 -14
-45 -2 0 16 108 114 119 108 6 -4 11 -3 11 2 0 5 10 14 23 20 20 10 19 11 -15
11 -31 1 -46 -7 -97 -55 -54 -50 -100 -74 -140 -74 -10 0 -7 9 11 28 35 37 62
81 54 89 -3 3 -24 -14 -46 -39 -39 -45 -88 -74 -111 -66 -12 4 7 24 80 87 13
12 22 24 18 27 -7 7 -105 -65 -134 -100 -27 -31 -44 -33 -67 -8 -15 18 -14 21
33 65 48 45 49 47 23 47 -15 -1 -42 -14 -62 -30 -28 -24 -44 -30 -82 -30 -54
0 -60 9 -23 38 l25 20 -49 -1 c-34 -2 -47 -6 -44 -15 4 -8 0 -10 -11 -6 -9 3
-16 10 -16 15 0 5 -45 9 -100 9 -55 0 -100 -4 -100 -8 0 -5 -35 -29 -78 -55
-110 -65 -188 -129 -328 -268 -106 -105 -122 -118 -127 -99 -8 31 87 135 243
267 47 39 105 92 130 117 l44 46 -77 0 c-42 0 -77 -4 -77 -8 0 -4 -33 -35 -72
-67 -40 -33 -117 -99 -171 -147 -54 -49 -103 -88 -110 -88 -7 0 -20 11 -29 24
l-18 24 123 95 c67 52 140 111 162 131 l40 35 -29 1 c-21 0 -47 -17 -105 -68
-118 -105 -181 -155 -188 -149 -3 4 19 30 48 60 30 30 75 77 101 105 40 45 43
52 25 52 -15 0 -40 -23 -80 -75 -31 -41 -67 -80 -79 -86 l-22 -12 18 28 c19
29 78 110 97 133 7 9 0 12 -35 12 -37 0 -45 -3 -50 -22 -6 -26 -83 -118 -97
-118 -17 0 -9 33 14 64 34 44 50 76 38 76 -5 0 -24 -20 -42 -45 -34 -47 -53
-56 -63 -28 -4 10 3 26 21 45 l27 28 -25 0 c-14 0 -30 -5 -37 -12 -8 -8 -15
-8 -26 1 -9 8 -44 11 -100 9 l-86 -3 25 -37 c14 -21 34 -58 45 -83 19 -44 19
-44 0 -33 -11 7 -49 45 -85 85 -53 59 -72 73 -95 73 l-30 0 43 -39 c23 -21 60
-54 81 -74 22 -19 58 -45 82 -56 43 -22 84 -73 84 -106 0 -21 -42 9 -170 118
-107 93 -156 124 -200 132 -19 3 -39 10 -45 16 -5 5 -47 9 -94 9 l-84 0 184
-187 c153 -156 198 -209 264 -310 215 -329 327 -574 470 -1028 113 -360 138
-432 192 -560 71 -166 104 -231 166 -328 27 -43 47 -80 44 -83 -5 -6 -109 106
-166 179 -64 83 -126 203 -186 358 -31 79 -76 194 -100 254 -24 61 -58 155
-75 210 -149 477 -281 800 -391 957 -116 167 -252 328 -266 315 -3 -4 7 -22
24 -40 43 -46 193 -251 235 -322 56 -94 112 -210 171 -356 51 -126 77 -203
172 -514 49 -158 171 -485 238 -636 63 -139 164 -283 298 -424 83 -88 202
-267 268 -408 28 -59 72 -142 97 -185 25 -42 59 -102 74 -132 15 -30 59 -98
98 -150 38 -52 93 -133 121 -180 95 -160 134 -220 176 -274 23 -30 57 -83 75
-118 35 -68 37 -111 6 -154 -13 -17 -17 -12 -53 66 -22 47 -85 153 -141 237
-57 87 -144 238 -200 350 -101 200 -157 286 -417 645 -60 83 -146 196 -190
251 -209 261 -295 419 -416 763 -28 82 -79 212 -111 289 -38 89 -76 202 -104
310 -100 384 -142 476 -388 864 -105 167 -247 341 -277 341 -16 0 -7 -17 51
-87 86 -104 317 -451 387 -583 65 -120 124 -268 158 -396 15 -54 44 -160 65
-234 22 -74 51 -189 65 -255 29 -137 100 -389 146 -521 48 -138 158 -358 239
-479 103 -155 203 -296 258 -363 57 -69 79 -100 214 -307 105 -160 219 -302
182 -225 -9 19 -51 87 -93 150 -43 63 -99 149 -126 190 -26 41 -101 145 -165
230 -290 386 -409 598 -510 910 -50 155 -121 402 -120 420 1 15 26 -48 95
-240 96 -269 247 -581 331 -685 31 -38 88 -113 127 -165 39 -52 123 -165 187
-250 63 -85 126 -170 139 -190 100 -144 150 -230 234 -395 54 -108 144 -264
208 -360 61 -93 124 -197 140 -230 28 -58 38 -118 21 -129 -5 -3 -30 27 -55
67 -65 103 -159 210 -267 302 -51 44 -139 120 -194 169 -56 48 -153 122 -216
164 -63 41 -137 94 -165 116 -146 120 -313 330 -428 536 -124 224 -128 234
-137 329 -6 63 -25 139 -73 286 -36 110 -92 306 -126 435 -33 129 -66 254 -75
276 -8 23 -19 77 -26 120 -25 174 -31 206 -59 297 -16 52 -39 152 -51 222 -26
156 -51 239 -96 325 -82 155 -394 550 -435 550 -27 0 -19 -13 89 -141 99 -118
216 -279 274 -378 56 -96 93 -199 122 -345 14 -71 42 -179 62 -239 37 -115 54
-207 38 -207 -13 0 -49 95 -174 460 -68 197 -111 283 -235 467 -204 306 -260
382 -278 383 -16 0 -16 -4 5 -41 13 -22 68 -99 122 -172 174 -232 255 -365
320 -525 16 -40 20 -59 11 -52 -34 28 -136 183 -177 270 -50 105 -119 205
-249 362 -47 57 -94 115 -103 131 -10 15 -25 27 -32 27 -16 0 8 -40 57 -95 62
-69 201 -264 235 -327 46 -88 86 -206 73 -214 -15 -9 -33 20 -80 126 -71 162
-97 207 -188 330 -49 65 -97 132 -107 149 -18 30 -21 31 -85 31 l-66 0 18 -37
c10 -21 21 -55 25 -76 l7 -39 -82 68 c-44 37 -81 71 -81 76 0 4 -20 8 -45 8
l-45 0 0 -57z m1006 16 c24 -25 34 -29 61 -24 44 8 61 -3 178 -111 55 -51 130
-115 166 -143 64 -48 143 -130 135 -139 -4 -4 -58 32 -287 192 -38 27 -72 46
-75 44 -6 -6 175 -151 244 -195 30 -19 75 -46 102 -59 68 -34 165 -158 338
-436 l34 -53 -79 76 c-96 93 -148 129 -268 185 -61 28 -100 54 -114 73 -12 16
-21 31 -21 33 0 9 253 -121 277 -143 57 -51 66 -50 12 2 -40 39 -91 72 -183
118 -124 63 -160 92 -195 159 -16 30 -5 28 54 -11 27 -19 86 -56 130 -83 44
-26 98 -64 119 -84 24 -21 35 -27 28 -15 -25 47 -149 141 -307 232 -79 47 -94
59 -188 166 -67 75 -75 97 -36 97 29 0 23 17 -11 29 -25 8 -30 7 -30 -5 0 -16
-94 52 -139 100 l-24 26 24 0 c15 0 37 -13 55 -31z m3705 -41 c9 -57 9 -94 0
-168 -22 -180 -54 -246 -163 -340 -36 -31 -52 -36 -25 -8 29 31 116 346 138
501 15 110 32 115 50 15z m-4324 -71 c81 -148 98 -187 111 -245 l9 -40 -36 36
c-20 21 -58 55 -84 77 -33 27 -53 54 -63 83 -17 51 -31 222 -18 222 5 0 41
-60 81 -133z m-224 48 c42 -40 77 -81 77 -90 0 -19 -2 -18 -95 48 -87 61 -97
74 -84 98 5 11 13 19 17 19 4 0 42 -34 85 -75z m1917 64 c0 -6 -76 -87 -169
-179 l-170 -168 -16 25 c-16 23 -16 26 2 41 139 125 190 170 258 226 80 66 95
75 95 55z m304 -24 c-4 -9 -29 -31 -58 -50 -52 -36 -144 -114 -116 -99 8 4 62
39 118 76 61 40 115 68 130 68 22 0 19 -5 -29 -38 -30 -20 -88 -57 -129 -81
-41 -24 -119 -77 -173 -118 -54 -40 -103 -73 -109 -73 -5 0 -46 -35 -89 -77
-75 -73 -80 -76 -94 -57 -25 33 -17 52 59 132 82 85 146 135 281 219 174 109
221 131 209 98z m259 -47 c16 -8 17 -12 6 -18 -22 -11 -256 -52 -276 -48 -11
3 12 19 67 46 75 36 91 41 134 36 27 -3 58 -10 69 -16z m1862 -104 c-8 -25
-21 -56 -27 -68 -16 -29 -115 -159 -177 -231 -88 -102 -149 -254 -160 -400
l-6 -70 -32 31 -32 31 6 99 c5 88 9 103 34 138 16 21 25 44 22 49 -4 6 -13 0
-22 -13 -50 -76 -175 -176 -205 -164 -23 9 -20 20 15 44 49 36 24 36 -44 1
-66 -33 -126 -39 -135 -13 -3 11 119 75 268 140 48 21 219 154 287 224 23 24
60 62 82 85 23 23 41 45 41 48 0 12 95 135 98 126 2 -5 -4 -31 -13 -57z
m-1520 29 c121 -24 125 -28 68 -66 -77 -52 -223 -138 -259 -153 -18 -7 -93
-20 -166 -28 -223 -25 -333 -54 -426 -110 -62 -38 -170 -145 -205 -204 -17
-28 -22 -31 -33 -20 -8 7 -16 27 -20 44 -5 25 1 39 41 87 74 92 177 172 258
202 121 45 295 75 461 81 83 2 152 6 154 8 9 10 -114 22 -155 15 -27 -4 -75
-8 -109 -8 -73 -1 -256 -33 -346 -61 -84 -26 -167 -81 -253 -169 -38 -39 -74
-71 -81 -71 -6 0 -16 12 -22 26 -16 34 -4 54 61 103 132 98 323 185 435 197
96 11 97 26 1 20 -95 -6 -158 -25 -269 -81 -59 -29 -71 -33 -56 -16 96 107
298 184 556 210 58 6 119 13 135 14 48 5 144 -3 230 -20z m239 -82 c14 -22
-313 -181 -372 -181 -17 0 -112 -97 -112 -114 0 -7 -11 -18 -25 -24 -34 -16
-35 -15 -35 6 0 27 90 116 146 145 27 14 108 59 179 101 104 60 138 75 172 76
23 0 44 -4 47 -9z m221 -35 l30 -13 -35 -18 c-114 -59 -246 -192 -315 -317
-20 -38 -42 -68 -49 -68 -33 0 -47 51 -25 93 38 73 106 159 158 202 71 56 73
74 3 25 -75 -53 -120 -100 -173 -182 -27 -42 -53 -80 -59 -83 -5 -3 -23 2 -40
12 -37 21 -38 48 -5 97 14 20 25 41 25 46 0 23 -20 6 -59 -50 -35 -49 -47 -60
-71 -60 -70 0 -75 19 -24 89 37 52 39 54 119 71 27 6 117 44 200 85 82 40 159
76 170 78 41 9 121 6 150 -7z m165 -33 c0 -5 -32 -28 -71 -51 -53 -33 -103
-80 -202 -189 -72 -79 -139 -158 -149 -174 -19 -32 -36 -37 -44 -14 -7 18 62
140 130 231 51 69 136 142 209 181 40 21 127 32 127 16z m87 -41 c7 -4 -45
-37 -130 -81 l-142 -74 43 45 c78 81 190 135 229 110z m-957 -89 c0 -5 -15
-20 -33 -35 -28 -22 -50 -28 -133 -38 -131 -14 -217 -41 -289 -88 -52 -34
-154 -132 -207 -200 -22 -27 -34 -28 -48 -3 -13 26 46 115 132 197 110 106
224 145 473 164 55 4 101 8 103 9 1 0 2 -2 2 -6z m-82 -123 c-1 -23 -6 -30
-22 -31 -113 -5 -192 -29 -256 -77 -45 -35 -252 -241 -267 -267 -10 -19 -12
-17 -28 19 l-16 39 37 54 c50 73 160 173 231 210 66 36 142 59 228 72 96 14
94 14 93 -19z m-1835 -98 c13 -21 43 -60 66 -86 41 -47 76 -104 69 -112 -4 -3
-108 115 -171 193 -17 21 -16 43 2 43 5 0 20 -17 34 -38z m1971 -102 c10 -50
15 -98 12 -107 -6 -14 -11 -12 -39 14 -41 40 -156 131 -171 136 -21 8 4 21 54
27 58 7 61 5 81 -62 16 -58 28 -45 18 20 -7 51 -5 62 14 62 8 0 20 -35 31 -90z
m127 57 c49 -20 54 -31 39 -93 -12 -49 -11 -56 5 -74 9 -10 20 -18 24 -18 3 1
22 -8 41 -20 39 -24 33 -30 -8 -8 -15 8 -46 19 -69 25 -63 17 -90 47 -108 116
-8 32 -15 69 -15 81 0 20 3 22 28 15 15 -5 43 -15 63 -24z m436 18 c21 -6 143
-140 143 -157 0 -4 -6 -8 -12 -8 -7 0 -23 -3 -34 -6 -17 -4 -26 2 -44 33 -13
21 -34 50 -48 65 -25 27 -78 55 -88 46 -3 -3 0 -36 6 -73 6 -37 9 -70 6 -72
-8 -8 -96 92 -94 106 4 19 109 82 128 77 8 -3 25 -7 37 -11z m-1752 -47 c147
-82 296 -206 338 -281 17 -29 38 -63 48 -76 30 -38 22 -43 -22 -15 -63 40
-145 65 -232 71 -81 6 -101 19 -78 47 9 11 7 15 -8 19 -10 2 -24 14 -30 26
-10 18 -9 21 8 21 11 0 22 -4 26 -9 3 -5 54 -28 113 -51 59 -23 123 -50 142
-62 25 -14 13 2 -45 59 -108 106 -141 130 -248 183 -69 34 -96 53 -110 78 -19
32 -19 32 2 32 12 0 55 -19 96 -42z m1929 8 c1 -9 16 -31 33 -49 17 -17 34
-42 38 -54 6 -20 3 -23 -24 -23 -25 0 -32 5 -38 27 -3 16 -21 44 -40 63 l-33
35 28 12 c30 12 32 12 36 -11z m1451 -43 c-20 -26 -78 -91 -129 -143 -51 -52
-111 -122 -134 -155 -23 -33 -80 -114 -127 -180 -46 -66 -97 -141 -112 -167
-16 -26 -31 -48 -34 -48 -4 0 -10 12 -14 27 -5 20 3 46 32 102 83 166 140 237
349 438 193 187 244 225 169 126z m-952 -24 c-9 -41 -18 -76 -20 -78 -4 -6
-73 43 -73 53 0 9 103 106 108 101 1 -1 -5 -35 -15 -76z m-1398 21 c110 -85
251 -240 217 -240 -4 0 -55 41 -113 91 -57 51 -138 114 -179 141 -41 27 -77
52 -80 55 -3 3 18 3 47 1 42 -4 63 -13 108 -48z m-122 -8 c76 -51 250 -213
240 -223 -4 -4 -19 -10 -33 -14 -22 -5 -33 3 -83 59 -66 75 -128 120 -207 152
-62 26 -70 36 -38 52 39 18 63 13 121 -26z m527 8 c10 -18 0 -93 -14 -107 -6
-7 -46 57 -46 75 0 19 23 52 37 52 7 0 17 -9 23 -20z m324 -28 c7 -15 17 -37
20 -49 6 -20 4 -23 -18 -23 -20 0 -26 5 -26 23 -1 12 -7 33 -15 47 -8 14 -14
31 -15 38 0 21 38 -5 54 -36z m-1107 -33 c-13 -24 -24 -48 -25 -54 -1 -5 -12
-41 -26 -80 -13 -38 -26 -79 -28 -90 -3 -16 -9 -11 -27 24 -14 27 -20 52 -17
67 6 21 137 185 144 179 1 -1 -8 -22 -21 -46z m1458 -1 c8 -32 -1 -35 -33 -12
-24 16 -30 50 -9 57 17 6 34 -12 42 -45z m-1290 9 c44 -20 83 -52 147 -118 83
-85 105 -119 75 -119 -8 0 -24 12 -38 26 -39 43 -141 111 -215 145 -38 18 -71
33 -72 35 -6 4 32 65 38 61 3 -1 32 -15 65 -30z m716 -3 c13 -14 43 -38 66
-54 l43 -28 -31 -11 c-38 -13 -47 -7 -90 55 -43 64 -36 89 12 38z m646 14 c13
-18 33 -88 24 -88 -22 0 -49 34 -53 65 -4 36 10 47 29 23z m124 -78 c15 -50 6
-61 -26 -29 -17 16 -27 40 -31 74 l-6 50 26 -28 c14 -15 31 -45 37 -67z
m-2274 48 c72 -26 166 -84 183 -112 12 -19 12 -20 -3 -8 -9 7 -62 31 -118 52
-95 37 -139 62 -139 82 0 12 14 10 77 -14z m1453 -9 c0 -6 11 -25 25 -43 46
-61 20 -81 -27 -22 -27 33 -35 65 -22 79 9 8 24 -1 24 -14z m914 -47 c3 -5 9
-28 15 -51 7 -31 6 -41 -2 -38 -20 6 -57 68 -57 94 0 20 3 22 19 13 11 -5 22
-14 25 -18z m-1620 -13 c97 -48 167 -101 216 -162 l45 -56 32 21 33 20 10 -27
c5 -14 10 -29 10 -33 0 -11 53 -82 58 -77 3 2 -10 32 -27 66 -18 33 -30 63
-27 67 4 3 29 -19 57 -49 40 -42 50 -49 44 -29 -4 14 -16 39 -26 56 -23 37
-23 44 -5 44 20 0 77 -62 72 -77 -10 -24 -101 -133 -112 -133 -7 0 -27 19 -47
43 -72 88 -133 140 -196 169 -35 15 -84 46 -110 67 -25 21 -62 46 -81 56 -19
10 -36 19 -38 20 -5 4 17 45 24 45 3 0 34 -14 68 -31z m512 -23 c16 -8 40 -27
53 -40 13 -14 29 -22 38 -19 23 9 7 -36 -25 -69 -30 -33 -43 -35 -66 -9 -21
24 -7 35 28 21 34 -13 33 1 -2 27 -16 12 -47 44 -71 71 -41 50 -41 51 -14 42
15 -4 42 -15 59 -24z m725 18 c17 -15 20 -15 34 -1 21 22 57 8 69 -26 13 -36
5 -40 -45 -26 -24 7 -87 20 -139 29 -90 17 -98 24 -40 33 59 10 104 6 121 -9z
m-621 -44 c53 -27 77 -50 51 -50 -5 0 -18 -3 -28 -6 -12 -4 -14 -3 -5 3 9 7
-2 19 -40 46 -64 45 -57 47 22 7z m810 -1 c14 -11 41 -27 60 -37 78 -38 270
-199 270 -226 0 -5 -12 -25 -27 -44 -19 -25 -27 -50 -29 -84 -5 -69 -36 -118
-102 -161 -76 -49 -110 -55 -167 -27 -92 44 -121 154 -65 245 l24 38 13 -59
c20 -88 32 -111 66 -128 53 -24 80 -28 121 -14 51 17 79 55 78 106 -1 53 -20
88 -77 140 -44 40 -46 45 -45 90 3 73 2 80 -10 62 -8 -12 -11 -12 -27 2 -10 9
-49 31 -86 48 -56 27 -67 36 -67 57 0 21 3 23 23 18 12 -4 33 -15 47 -26z
m369 -82 c10 -19 10 -30 2 -46 -7 -11 -15 -21 -19 -20 -4 1 -27 23 -50 49 -32
36 -45 60 -49 92 l-6 42 54 -46 c31 -26 61 -58 68 -71z m-539 59 c179 -44 207
-57 225 -100 8 -20 15 -51 15 -70 0 -28 -4 -35 -27 -40 -14 -4 -29 -3 -32 2
-92 137 -237 212 -411 212 -52 0 -115 -5 -139 -11 -86 -19 -53 10 41 36 72 20
163 12 328 -29z m-1292 -6 c72 -57 75 -64 16 -56 -91 11 -124 18 -124 25 0 13
40 71 49 71 5 0 32 -18 59 -40z m1263 -52 c94 -47 200 -148 179 -172 -19 -24
-32 -20 -85 29 -27 25 -82 62 -124 83 l-75 37 -155 0 c-136 0 -166 -3 -231
-24 -41 -12 -95 -34 -120 -48 l-45 -25 38 35 c53 49 178 108 246 118 31 4 110
7 177 6 117 -2 122 -3 195 -39z m-1322 -49 c-12 -9 -30 -27 -40 -40 -15 -20
-19 -22 -24 -7 -4 9 -1 34 5 57 l11 40 35 -16 35 -17 -22 -17z m-466 6 c117
-25 189 -54 225 -93 35 -39 42 -58 15 -42 -22 12 -312 90 -335 90 -16 0 -48
35 -48 52 0 12 68 9 143 -7z m1659 -6 c67 -14 130 -46 196 -98 54 -43 62 -60
38 -80 -11 -9 -28 -7 -75 9 -82 27 -140 26 -201 -5 -49 -25 -50 -25 -117 -9
-84 20 -210 14 -303 -15 -82 -25 -180 -44 -187 -37 -12 11 84 132 122 153 51
29 175 70 245 82 80 13 221 13 282 0z m-1008 -20 c31 -8 66 -38 155 -129 64
-65 122 -119 129 -122 9 -2 2 -18 -22 -48 -20 -25 -36 -52 -36 -60 0 -8 -4
-21 -9 -29 -7 -11 -13 -9 -30 8 -25 25 -85 28 -154 7 l-47 -14 0 29 c0 25 6
33 43 49 46 22 146 27 178 10 15 -8 19 -7 19 4 0 19 -27 27 -88 28 -70 0 -124
-18 -156 -51 -25 -26 -28 -36 -23 -71 6 -48 16 -61 82 -111 87 -65 114 -95
108 -118 -3 -11 -7 -21 -8 -21 -2 0 -26 16 -55 35 -58 39 -63 40 -110 23 -30
-10 -35 -9 -52 12 -16 20 -46 107 -63 184 l-6 29 31 -27 c36 -30 72 -37 49
-10 -8 9 -31 28 -52 41 -40 25 -44 45 -11 52 10 2 41 21 68 42 66 53 108 64
196 52 l70 -9 -37 39 c-72 73 -162 97 -237 62 -30 -15 -91 -93 -80 -104 2 -3
25 16 50 41 36 38 54 48 91 54 54 8 106 -6 148 -40 36 -29 31 -39 -16 -26 -18
6 -52 10 -74 10 -41 0 -47 -4 -145 -78 -39 -29 -45 -31 -59 -18 -8 8 -15 23
-16 33 -1 10 -8 32 -14 48 -18 42 -9 129 15 156 40 45 97 58 168 38z m-697
-59 c35 -11 103 -26 153 -35 124 -22 154 -37 179 -94 11 -25 18 -47 16 -49 -2
-2 -21 6 -42 16 -21 11 -97 34 -168 52 -72 17 -138 34 -148 36 -19 6 -57 60
-57 82 0 15 -7 16 67 -8z m-681 -133 c19 -41 37 -91 40 -113 5 -38 4 -37 -30
26 -30 54 -76 176 -76 198 0 14 33 -41 66 -111z m3244 -144 c88 -131 132 -266
108 -335 -16 -49 -91 -150 -143 -194 -76 -64 -101 -74 -185 -74 -95 0 -142 21
-194 84 -54 67 -78 134 -84 244 -2 50 -9 92 -13 92 -30 0 -22 -181 12 -261 30
-70 49 -95 109 -144 54 -44 61 -69 39 -136 -24 -72 -75 -98 -154 -79 -54 12
-85 50 -85 102 0 51 20 92 71 146 45 48 46 63 2 37 -33 -19 -87 -93 -103 -142
-23 -65 27 -152 96 -169 33 -9 107 2 142 20 35 18 53 55 61 127 l6 55 33 -8
c30 -8 32 -11 32 -56 0 -26 -9 -66 -20 -90 -22 -49 -53 -66 -140 -77 -141 -17
-359 -80 -418 -120 -25 -17 -39 -21 -48 -14 -38 32 -165 28 -251 -8 -43 -17
-46 -61 -7 -92 34 -27 40 -26 108 5 41 18 56 31 56 45 0 11 -4 17 -10 14 -11
-7 -59 25 -60 39 0 12 120 0 133 -13 17 -17 -38 -69 -103 -99 -67 -31 -144
-34 -183 -9 -23 15 -27 25 -27 65 0 51 -18 93 -62 141 -16 17 -28 35 -28 40 0
5 -17 7 -37 4 -34 -4 -40 -1 -55 26 -16 30 -20 31 -82 31 -36 0 -68 -4 -71
-10 -4 -6 14 -10 48 -10 44 0 58 -4 76 -24 23 -24 23 -25 5 -50 -37 -50 -55
-43 -120 45 -36 49 -42 77 -22 97 9 9 9 12 -3 12 -8 0 -20 -5 -27 -12 -16 -16
-58 78 -71 162 -27 168 -6 350 61 515 61 153 67 161 135 169 32 4 107 18 168
32 154 36 239 30 448 -30 87 -25 161 -46 163 -46 3 0 16 -24 28 -53 14 -29 43
-70 67 -91 l43 -39 -130 6 c-71 4 -149 10 -173 13 l-43 7 5 51 c5 54 -2 97
-18 103 -6 2 -10 -24 -10 -60 0 -52 -5 -71 -27 -105 -58 -88 -148 -96 -224
-21 -24 23 -53 63 -65 88 -24 53 -68 103 -81 95 -5 -4 -1 -16 10 -28 31 -34
45 -82 37 -123 -7 -42 -54 -130 -83 -156 -32 -29 -90 -47 -151 -47 -70 0 -70
0 -78 118 -11 149 -22 64 -22 -166 -1 -200 2 -230 20 -285 11 -34 33 -73 47
-87 25 -24 33 -25 133 -25 l106 0 -5 -40 c-4 -38 0 -45 41 -87 51 -53 98 -70
164 -61 48 6 93 48 93 85 0 17 -4 15 -23 -13 -44 -65 -157 -61 -217 8 -25 28
-30 43 -30 83 0 44 5 54 50 106 72 82 63 101 -12 27 -84 -82 -116 -97 -190
-90 -119 11 -140 48 -146 258 l-4 147 45 -5 c61 -7 138 13 186 47 39 29 101
136 101 176 0 14 12 5 45 -32 48 -56 110 -82 161 -70 38 10 114 64 114 81 0
17 21 20 36 5 19 -19 226 -42 339 -38 129 6 197 29 287 97 l58 43 104 -4 c58
-2 103 -1 100 4 -3 4 -15 7 -27 7 -12 -1 -42 3 -67 9 -46 11 -127 6 -136 -9
-3 -5 -10 -9 -15 -9 -6 0 -2 14 8 31 18 31 18 31 85 26 36 -3 80 -13 97 -22
36 -18 41 -8 8 16 -27 20 -111 39 -139 31 -17 -4 -19 -2 -10 14 6 11 8 31 5
45 -2 14 3 43 12 65 l17 39 50 -55 c27 -30 81 -101 118 -157z m-2438 142 c111
-30 229 -79 216 -90 -4 -4 -113 14 -157 25 -19 5 -37 8 -39 5 -2 -2 42 -18 99
-35 121 -38 148 -61 173 -148 9 -32 16 -61 16 -65 0 -4 -30 21 -66 56 -92 87
-164 129 -262 151 -70 16 -85 23 -96 45 -15 29 -30 91 -23 91 3 0 65 -16 139
-35z m1746 10 c23 -10 42 -19 42 -21 0 -2 -5 -15 -12 -29 -8 -17 -17 -24 -27
-20 -39 15 -185 55 -202 55 -28 0 -33 19 -7 30 33 14 155 5 206 -15z m-2568
-107 c25 -55 25 -80 1 -102 -19 -17 -19 -16 -23 63 -2 45 -2 81 0 81 2 0 12
-19 22 -42z m828 -42 c63 -17 127 -54 178 -101 43 -41 39 -56 -8 -28 -18 11
-62 32 -98 47 -59 25 -159 95 -135 96 6 0 34 -7 63 -14z m-34 -62 l40 -34 -35
6 c-35 7 -59 27 -59 51 0 20 12 15 54 -23z m780 1 c22 -14 23 -19 13 -51 -8
-26 -15 -33 -26 -28 -9 4 -29 9 -46 11 -30 4 -30 4 8 -17 36 -20 44 -39 31
-73 -4 -12 -25 0 -90 49 -46 36 -84 71 -84 79 0 35 151 58 194 30z m1866 -14
c9 -19 9 -28 -7 -68 -5 -14 -8 -12 -13 12 -17 67 -5 101 20 56z m-3324 -56 c9
-25 14 -48 11 -52 -5 -5 -37 16 -86 54 -7 5 32 43 45 43 7 0 20 -20 30 -45z
m3404 20 c13 -15 9 -33 -22 -107 -11 -26 -24 -45 -29 -42 -15 9 -10 103 6 134
17 33 27 37 45 15z m-2611 -21 c32 -9 70 -34 117 -75 38 -34 81 -71 97 -82 15
-11 27 -24 27 -27 0 -4 -42 1 -94 11 -52 10 -126 21 -165 25 -69 6 -70 7 -82
41 -6 19 -9 36 -7 39 3 2 26 0 51 -5 26 -5 62 -5 80 -1 40 9 25 15 -71 29 -41
5 -75 11 -77 13 -2 2 -7 16 -11 32 l-7 29 47 -7 c26 -4 69 -14 95 -22z m3035
-7 c3 3 6 1 6 -5 0 -6 -15 -21 -32 -33 -18 -12 -66 -52 -106 -87 -40 -36 -75
-62 -78 -60 -2 3 -19 -8 -37 -25 -33 -31 -86 -67 -99 -67 -37 0 47 96 187 214
63 53 113 78 136 66 9 -5 19 -6 23 -3z m-306 -13 l22 -15 -31 -46 -32 -46 45
31 c24 16 50 37 57 46 8 9 27 16 44 16 31 0 30 -1 -50 -82 -45 -46 -91 -94
-101 -107 l-19 -25 -12 22 c-13 25 -7 57 18 87 15 18 15 19 -1 6 -23 -17 -23
-3 -3 46 8 20 13 38 11 40 -7 8 -36 -54 -36 -77 0 -32 -18 -60 -35 -54 -24 10
-18 32 27 105 44 72 58 80 96 53z m-3611 -16 c13 -12 43 -32 66 -43 36 -18 74
-62 63 -73 -2 -1 -27 11 -55 27 -44 26 -58 30 -96 24 l-45 -6 0 35 c0 33 14
58 34 58 5 0 20 -10 33 -22z m73 -143 c58 -39 73 -59 85 -115 7 -34 7 -34 -38
23 -45 58 -117 108 -154 106 -17 0 -17 -1 1 -12 63 -40 177 -153 202 -202 16
-30 26 -56 23 -59 -3 -3 -37 24 -76 62 -39 37 -98 92 -132 122 -51 46 -61 61
-61 88 l0 32 48 -4 c34 -3 63 -15 102 -41z m1353 29 c54 -28 77 -54 77 -91 0
-18 -2 -33 -4 -33 -3 0 -27 14 -55 31 -28 17 -62 32 -76 32 -19 0 -29 7 -36
24 -12 33 -12 32 14 43 32 13 44 12 80 -6z m-423 -74 c143 -26 186 -44 228
-97 33 -43 72 -104 72 -115 0 -4 -24 10 -52 32 -86 65 -164 98 -348 146 -60
16 -90 35 -90 57 0 11 18 8 190 -23z m2450 -16 c39 -33 76 -105 85 -167 4 -26
5 -47 2 -47 -2 0 -18 7 -33 15 -16 8 -39 15 -51 15 -12 0 -29 8 -39 18 -17 16
-15 17 34 20 66 4 59 22 -8 22 -70 0 -83 -7 -59 -31 10 -10 19 -25 19 -33 0
-14 75 -36 120 -36 16 0 20 -7 20 -38 l0 -39 -92 -2 c-51 -1 -117 -8 -146 -17
-60 -17 -74 -13 -70 23 4 31 -25 54 -43 36 -10 -10 -7 -18 14 -37 15 -14 27
-30 27 -36 0 -16 -22 -12 -45 10 -14 13 -25 16 -35 10 -11 -7 -9 -12 11 -29
26 -23 63 -22 149 4 56 17 161 28 183 19 27 -10 20 -28 -31 -81 -69 -71 -102
-87 -177 -81 -79 7 -118 28 -150 81 -43 75 -37 90 67 190 70 65 99 87 120 87
39 0 44 18 6 22 l-32 3 26 29 25 30 18 -27 c13 -20 21 -24 33 -18 8 5 34 6 56
4 38 -5 40 -4 21 10 -11 8 -37 17 -57 21 -45 8 -54 21 -37 52 16 31 30 30 69
-2z m-2032 -13 c20 -10 45 -28 54 -38 17 -18 36 -83 25 -83 -3 0 -34 17 -68
39 -54 32 -64 43 -67 70 -4 36 5 38 56 12z m-1420 -57 c146 -123 172 -152 172
-194 l0 -38 -97 95 c-54 53 -113 107 -130 120 -32 25 -47 73 -22 73 6 0 41
-25 77 -56z m982 7 c47 -11 106 -29 133 -40 78 -34 228 -143 214 -157 -2 -3
-28 9 -58 26 -29 18 -87 45 -128 62 -75 29 -271 128 -255 128 5 0 47 -9 94
-19z m438 -40 c46 -23 83 -61 60 -61 -47 0 -80 14 -93 41 -24 46 -21 48 33 20z
m-487 -17 c92 -37 96 -47 19 -39 -64 7 -90 22 -90 52 0 17 -4 17 71 -13z
m-795 -197 c40 -47 19 -44 -48 8 -103 79 -178 156 -178 183 0 21 14 12 100
-68 55 -51 112 -106 126 -123z m1366 129 c4 -6 8 -21 8 -34 0 -19 -4 -21 -26
-16 -19 5 -25 4 -20 -5 4 -6 12 -11 18 -11 19 0 48 -32 48 -52 0 -39 -33 -15
-89 66 -23 33 -41 63 -41 67 0 12 94 -2 102 -15z m-1512 -71 c36 -36 94 -84
130 -107 55 -37 69 -52 97 -108 36 -73 54 -136 31 -109 -45 54 -86 95 -183
182 -100 90 -155 158 -155 194 0 23 13 15 80 -52z m1036 45 c202 -41 291 -89
377 -203 30 -40 73 -94 95 -121 40 -48 58 -86 41 -86 -5 0 -15 13 -23 29 -20
37 -107 107 -171 137 -27 13 -114 39 -193 59 -78 20 -153 40 -167 45 -25 9
-61 65 -47 73 4 3 48 -4 97 -14 87 -18 136 -39 288 -123 87 -48 108 -43 25 7
-35 20 -91 55 -126 76 -43 27 -100 49 -183 72 -82 23 -124 39 -130 51 -12 23
-6 23 117 -2z m2066 -62 c-28 -28 -10 -96 38 -152 l32 -36 -83 0 c-46 0 -94
-3 -106 -6 -22 -6 -22 -5 7 47 22 40 30 67 30 106 l0 52 43 3 c49 4 55 2 39
-14z m-2782 -150 c31 -91 51 -168 54 -209 l4 -64 -23 51 c-44 96 -97 267 -102
328 -8 91 10 63 67 -106z m3323 90 c-3 -44 -12 -80 -21 -90 -36 -42 -41 -10
-16 95 10 40 22 67 30 67 10 0 12 -17 7 -72z m362 43 c-3 -6 -14 -11 -23 -11
-15 1 -15 2 2 15 21 16 32 13 21 -4z m-4057 -54 c-5 -36 -25 -30 -24 7 1 27 4
32 14 23 7 -5 12 -19 10 -30z m3796 37 c24 -9 19 -22 -14 -39 -50 -26 -68 -12
-33 27 18 20 23 21 47 12z m133 -70 c8 -21 -34 -145 -61 -179 l-21 -26 -64 15
c-103 24 -125 65 -57 109 24 16 25 16 31 -13 4 -16 11 -33 16 -36 6 -3 15 -17
20 -31 5 -14 12 -23 16 -19 8 8 -17 86 -34 107 -12 14 -10 19 14 35 83 56 128
68 140 38z m-3872 -44 c-3 -6 -1 -10 4 -10 6 0 11 5 11 11 0 23 156 -101 218
-173 51 -58 134 -216 126 -240 -5 -18 -11 -15 -58 30 -46 45 -138 125 -255
222 -36 30 -41 39 -37 65 5 30 5 30 -11 8 -19 -28 -39 -29 -53 -4 -14 28 -12
64 5 87 8 10 14 15 13 9 -4 -17 32 -76 43 -70 5 4 22 -6 37 -22 15 -15 70 -66
122 -113 166 -147 154 -138 142 -114 -20 39 -185 204 -230 230 -34 20 -42 29
-37 46 6 17 4 18 -14 9 -17 -10 -23 -7 -37 14 -9 14 -13 32 -9 42 6 17 7 17
16 0 6 -9 7 -22 4 -27z m1142 -4 c133 -29 215 -61 288 -111 91 -63 93 -77 6
-34 -80 40 -111 47 -286 70 -83 11 -93 15 -122 46 -36 38 -44 68 -15 59 9 -3
67 -16 129 -30z m2403 -23 c0 -34 -26 -63 -58 -63 -24 0 -24 0 -7 28 22 33 47
61 58 61 4 1 7 -11 7 -26z m-2439 -86 c-5 -5 -18 -4 -30 2 -32 17 -25 31 9 18
17 -6 26 -15 21 -20z m539 -24 c55 -74 78 -96 126 -122 48 -25 39 -27 -13 -4
-65 30 -122 73 -138 103 -9 17 -13 30 -11 30 3 0 1 11 -4 25 -5 14 -8 25 -6
25 2 0 23 -26 46 -57z m249 46 c39 -14 39 -27 -1 -61 -31 -26 -32 -27 -10 -28
32 0 65 19 58 35 -8 22 6 26 21 5 18 -25 33 -119 21 -126 -11 -7 -122 47 -162
79 l-29 23 29 42 c33 47 30 46 73 31z m-1894 -74 l30 -25 -27 -24 c-16 -13
-28 -34 -28 -47 0 -22 0 -22 15 -3 15 19 15 19 31 -1 16 -19 16 -19 12 7 -10
54 26 63 56 14 9 -14 6 -21 -12 -36 -16 -13 -22 -26 -17 -39 4 -14 0 -23 -14
-30 -29 -16 -31 -14 -31 24 0 36 -13 47 -24 20 -6 -18 2 -45 21 -64 17 -16 12
-36 -8 -36 -9 0 -13 9 -12 23 2 12 -2 22 -7 22 -6 0 -10 8 -10 18 0 11 -3 13
-8 6 -4 -7 -8 20 -9 59 -2 48 1 73 10 79 9 6 7 8 -4 8 -10 0 -19 11 -21 25 -7
33 17 33 57 0z m1378 -5 c59 -18 80 -32 156 -103 49 -45 89 -85 90 -90 1 -4
-12 -1 -29 8 -16 8 -34 15 -40 15 -6 0 -27 12 -46 26 -33 25 -34 25 -34 6 0
-12 5 -24 11 -27 5 -4 8 -12 6 -18 -2 -7 6 -41 18 -77 63 -184 216 -408 440
-640 103 -107 228 -253 353 -411 45 -58 82 -91 82 -73 0 3 -21 33 -47 67 -169
224 -271 343 -455 535 -161 168 -267 325 -337 497 -45 111 -42 118 26 90 19
-8 49 -15 65 -15 l29 0 -46 56 c-25 31 -44 59 -41 61 9 9 129 -60 170 -97 23
-21 69 -76 101 -122 129 -180 240 -310 398 -464 91 -89 182 -186 202 -217 34
-51 90 -105 139 -134 42 -25 39 -12 -10 40 -59 61 -129 147 -120 147 24 0 130
-66 155 -97 17 -21 66 -84 110 -139 l79 -102 -54 -11 -55 -10 -72 76 c-40 42
-124 121 -187 176 -234 204 -491 479 -636 682 -43 61 -64 79 -64 54 0 -17 136
-202 226 -309 124 -148 258 -283 399 -404 141 -120 238 -213 272 -261 l21 -31
-49 -18 c-50 -17 -50 -17 -69 6 -11 13 -37 49 -57 80 -37 56 -53 70 -53 46 0
-15 46 -84 83 -124 l29 -32 -23 -16 c-35 -24 -43 -20 -74 37 -64 119 -219 326
-365 488 -181 200 -297 354 -384 512 -21 37 -42 67 -47 67 -15 0 -11 -9 47
-119 70 -132 136 -225 258 -366 213 -244 290 -339 389 -481 57 -82 107 -154
110 -161 5 -8 -5 -15 -30 -22 -21 -6 -63 -26 -93 -45 -30 -20 -58 -36 -61 -36
-14 0 -246 269 -344 400 -121 162 -167 218 -273 335 -75 82 -78 87 -238 421
-66 139 -144 235 -249 307 -53 37 -57 42 -36 45 61 9 155 -59 242 -173 21 -27
72 -115 114 -195 88 -166 169 -292 216 -335 38 -35 37 -34 -56 115 -40 63 -96
162 -125 220 -87 174 -184 303 -268 361 l-47 31 55 -5 c30 -3 86 -15 123 -27z
m-139 -140 c58 -64 103 -142 194 -330 89 -185 138 -262 235 -369 69 -76 267
-336 312 -410 22 -37 -38 21 -122 119 -51 58 -126 141 -169 185 -53 55 -86 99
-106 142 -15 35 -43 86 -62 115 -18 29 -77 130 -131 223 -53 94 -112 189 -131
212 -19 23 -34 44 -34 48 0 3 -17 32 -38 63 -22 31 -45 68 -52 81 -12 23 -10
23 27 -7 22 -17 57 -50 77 -72z m964 78 c20 -20 14 -37 -18 -53 -39 -20 -67
-19 -80 4 -13 25 -13 27 6 45 18 19 75 21 92 4z m-2052 -59 c16 -17 59 -55 97
-86 37 -30 67 -58 67 -62 0 -3 -10 -12 -22 -20 -19 -12 -23 -11 -35 5 -26 37
-55 64 -64 58 -5 -3 -14 6 -21 20 -6 14 -18 26 -27 26 -33 0 -65 62 -44 83 11
12 18 8 49 -24z m1704 -4 c14 -8 21 -14 15 -14 -5 0 -21 6 -35 14 -14 8 -20
14 -15 14 6 0 21 -6 35 -14z m-9 -40 l34 -15 -34 2 c-19 2 -36 9 -39 16 -5 15
-1 15 39 -3z m84 5 c3 -5 -1 -10 -9 -10 -8 0 -18 5 -21 10 -3 6 1 10 9 10 8 0
18 -4 21 -10z m-1821 -31 c13 -20 13 -24 -6 -50 -12 -16 -30 -31 -40 -35 -29
-9 -20 -49 12 -49 15 0 26 -7 28 -17 4 -18 -26 -88 -37 -88 -4 0 -13 21 -20
48 -8 26 -16 40 -18 30 -2 -9 3 -33 11 -53 25 -59 18 -65 -11 -10 -32 61 -40
117 -16 108 13 -5 15 -2 10 16 -4 16 1 28 19 44 16 13 22 27 18 39 -12 39 25
52 50 17z m1876 -36 c12 -4 11 -7 -5 -13 -38 -16 -91 -11 -110 10 -19 21 -18
21 41 14 32 -3 66 -8 74 -11z m-1809 -13 l24 -20 -26 -23 c-14 -12 -29 -31
-33 -41 -7 -19 -7 -19 -28 1 -23 23 -18 59 7 50 9 -4 12 -1 8 9 -6 17 3 44 16
44 5 0 19 -9 32 -20z m-189 -32 c-9 -9 -12 -7 -12 12 0 19 3 21 12 12 9 -9 9
-15 0 -24z m2028 -7 c0 -5 -15 -20 -34 -34 -31 -25 -35 -25 -48 -9 -28 33 -32
45 -12 38 11 -3 33 -2 49 3 40 12 45 13 45 2z m-1779 -17 c16 -14 14 -18 -31
-60 -27 -25 -65 -70 -86 -100 -41 -59 -49 -64 -57 -34 -3 11 -2 18 2 15 5 -2
14 8 20 23 21 45 82 122 97 122 8 0 14 8 14 18 0 34 15 40 41 16z m202 -77
c27 -67 23 -81 -40 -139 -142 -130 -211 -205 -215 -234 -4 -28 -5 -28 -27 20
-13 27 -27 63 -32 80 l-8 31 28 -32 c30 -32 41 -33 41 -3 0 23 41 60 47 43 6
-18 23 -16 23 2 0 29 31 66 50 60 26 -8 32 21 11 56 -15 24 -20 27 -25 14 -3
-9 -6 -26 -6 -38 0 -12 -9 -28 -20 -34 -16 -11 -21 -10 -30 7 -12 22 -40 27
-40 7 0 -7 5 -18 11 -24 12 -12 1 -41 -25 -62 -12 -10 -19 -8 -35 8 -32 32
-26 52 32 108 45 45 221 173 237 173 3 0 13 -19 23 -43z m2544 -96 l28 -8 -35
-16 c-33 -15 -34 -15 -9 -16 15 -1 32 -8 39 -16 7 -8 19 -15 26 -15 8 0 14 -4
14 -10 0 -5 12 -10 26 -10 23 0 25 2 13 16 -10 13 -10 17 2 25 10 6 4 8 -18 5
-38 -4 -58 7 -50 27 8 22 42 14 123 -30 51 -28 109 -77 222 -188 178 -174 236
-243 284 -340 69 -138 73 -141 -317 267 -89 93 -219 201 -208 173 3 -8 9 -15
13 -15 17 0 183 -166 249 -249 38 -47 114 -135 171 -196 105 -113 160 -193
160 -233 0 -12 -7 -39 -16 -60 l-15 -37 -22 26 c-12 15 -71 92 -130 172 -59
80 -115 151 -124 159 -19 15 27 -60 68 -112 35 -46 127 -194 139 -225 9 -23 8
-23 -20 -14 -36 13 -38 16 -93 122 -51 99 -114 196 -161 247 -18 19 -59 69
-91 110 -133 169 -325 346 -425 392 -49 22 -64 38 -36 38 8 0 54 -20 102 -44
108 -54 248 -168 359 -292 82 -92 143 -150 150 -143 8 8 -315 359 -331 359 -2
0 -23 14 -47 30 -25 17 -49 30 -54 30 -5 0 -18 8 -29 18 -10 9 -38 26 -62 36
-67 30 -63 40 11 32 36 -4 79 -11 94 -15z m403 -11 c25 -5 60 -15 79 -23 l34
-14 -60 -2 c-33 0 -79 6 -102 14 -48 16 -98 21 -123 11 -13 -6 -15 -3 -11 12
4 17 12 19 71 16 37 -3 87 -9 112 -14z m-1029 -45 c-47 -19 -93 -35 -103 -35
-26 0 -22 29 5 34 12 3 51 12 87 20 100 22 102 18 11 -19z m-1846 -27 c10 -29
20 -58 22 -64 4 -12 -42 -36 -51 -27 -3 4 -6 21 -6 40 0 38 -15 44 -24 10 -6
-24 -84 -128 -131 -175 -13 -13 -33 -47 -43 -75 l-20 -51 -21 34 c-11 19 -21
40 -21 46 0 33 35 86 82 125 83 67 148 131 164 162 8 15 18 27 22 27 5 0 16
-24 27 -52z m2190 -2 c134 -69 202 -120 335 -255 131 -131 228 -258 329 -429
39 -66 39 -73 -1 -61 -18 5 -50 9 -70 9 -20 0 -48 5 -61 11 -24 11 -79 88
-132 184 -40 74 -74 115 -103 126 -24 9 -25 12 -10 23 14 10 5 18 -66 54 -46
23 -92 42 -102 42 -30 0 -94 48 -94 70 0 11 2 20 5 20 3 0 55 -26 116 -57 85
-44 128 -75 183 -128 40 -38 80 -82 89 -97 17 -28 71 -62 87 -56 12 4 -130
153 -190 200 -58 45 -234 152 -293 177 -25 11 -54 28 -65 38 -10 10 -23 19
-28 20 -5 1 -57 24 -117 50 l-107 48 37 12 c63 19 88 15 137 -22 26 -19 54
-35 64 -35 16 -1 16 -1 0 -11 -24 -13 -23 -29 2 -29 11 0 20 4 20 10 0 5 7 7
15 4 8 -3 13 -11 12 -16 -1 -6 4 -13 12 -16 8 -3 11 0 7 7 -4 6 -5 11 -3 11 8
0 160 -80 174 -91 23 -20 15 7 -13 40 -24 29 -172 111 -200 111 -18 0 -124 52
-124 61 0 11 31 16 65 11 17 -2 57 -19 90 -36z m100 13 c186 -78 518 -436 660
-709 25 -50 41 -90 36 -90 -21 0 -81 63 -112 118 -69 122 -213 327 -282 398
-89 94 -195 181 -290 235 -137 80 -135 79 -109 79 12 0 56 -14 97 -31z m-597
-5 c31 -9 28 -29 -9 -55 l-30 -21 -30 28 c-37 35 -36 42 4 47 17 2 34 4 37 5
3 1 15 -1 28 -4z m1112 -20 c50 -17 100 -61 166 -146 26 -33 81 -83 132 -119
48 -34 103 -77 122 -95 19 -18 52 -39 73 -48 33 -13 37 -19 37 -50 0 -46 -16
-54 -48 -23 -15 14 -47 34 -72 45 -25 11 -54 30 -65 42 l-20 23 25 -8 c14 -4
30 -11 35 -15 6 -4 19 -10 30 -14 16 -5 15 -2 -5 14 -14 11 -38 23 -55 27 -21
4 -82 57 -202 176 -94 93 -184 178 -200 188 -34 23 -14 24 47 3z m215 -15 c11
-10 28 -32 38 -48 15 -26 16 -31 3 -31 -14 0 -166 97 -166 106 0 12 107 -11
125 -27z m72 -1 c11 -13 35 -45 52 -73 33 -54 40 -50 16 8 -8 20 -15 41 -15
47 0 21 30 9 52 -20 12 -17 57 -58 100 -92 43 -33 77 -63 75 -65 -6 -5 -168
56 -184 69 -7 6 -13 8 -13 4 0 -9 -74 30 -87 46 -5 7 -17 32 -26 56 -19 49 -5
58 30 20z m-2912 -117 c154 -195 222 -257 421 -386 61 -40 153 -108 205 -151
52 -43 137 -113 189 -155 125 -101 206 -187 262 -279 61 -100 64 -111 34 -143
-13 -14 -26 -34 -28 -43 -2 -12 -21 10 -55 62 -29 43 -80 111 -114 149 -34 39
-83 96 -110 128 -27 32 -49 53 -49 47 0 -16 32 -61 108 -150 86 -101 170 -228
178 -267 4 -18 3 -33 -2 -33 -5 0 -49 62 -99 137 -106 161 -229 290 -484 508
-91 77 -197 168 -237 203 -83 71 -146 160 -253 357 -71 131 -89 175 -49 121
12 -16 49 -64 83 -105z m1820 39 c71 -33 111 -59 138 -88 33 -37 46 -62 32
-62 -2 0 -32 20 -67 44 -35 24 -112 69 -173 101 -60 31 -112 59 -115 61 -2 3
16 2 40 -2 25 -4 90 -28 145 -54z m1304 29 c54 -42 151 -142 151 -155 0 -22
-16 -16 -63 24 -25 20 -68 56 -96 80 -28 24 -56 52 -62 64 -10 19 -9 20 17 14
15 -4 39 -16 53 -27z m-1482 -30 c53 -39 66 -62 24 -40 -29 16 -144 51 -150
46 -9 -9 107 -55 155 -61 36 -5 76 -24 150 -70 56 -35 110 -67 120 -71 10 -4
38 -27 62 -52 23 -26 59 -63 78 -83 20 -21 40 -38 45 -38 17 0 -50 81 -96 117
-52 41 -58 52 -15 26 41 -24 126 -113 135 -141 6 -21 4 -22 -22 -17 -52 11
-141 58 -151 79 -5 11 -31 45 -57 74 -54 59 -135 105 -258 145 -48 16 -96 41
-126 64 -47 37 -48 40 -27 50 43 22 77 14 133 -28z m-1762 -39 c12 -23 13 -30
2 -30 -15 0 -113 -99 -147 -148 -37 -54 -16 -47 28 10 58 75 131 135 143 117
14 -22 11 -26 -33 -58 -48 -32 -101 -85 -98 -96 3 -11 -68 -85 -81 -85 -17 0
-4 70 27 143 17 40 46 82 82 120 31 31 57 57 59 57 1 0 9 -13 18 -30z m-185
-105 c-58 -197 -56 -192 -64 -167 -4 12 -4 32 -1 45 11 40 87 228 91 224 2 -1
-10 -48 -26 -102z m3237 51 c72 -37 224 -160 244 -198 19 -35 -19 -18 -127 59
-225 159 -278 222 -117 139z m-1267 -20 c6 -8 33 -22 60 -31 64 -21 154 -81
210 -140 39 -41 42 -46 20 -40 -63 19 -199 104 -260 162 -36 34 -60 62 -54 63
6 0 17 -7 24 -14z m1453 -22 c76 -20 137 -50 137 -69 0 -7 -11 -26 -24 -41
l-23 -28 -69 60 c-38 34 -80 68 -94 77 -32 22 -10 23 73 1z m-3156 -51 c17
-27 30 -49 29 -50 0 -1 -65 -35 -143 -76 -85 -44 -144 -70 -146 -63 -4 10 210
236 223 236 3 0 19 -21 37 -47z m2255 -68 c31 -16 54 -33 52 -39 -2 -6 8 -25
23 -42 30 -32 83 -112 138 -206 l34 -58 -24 0 c-32 0 -50 20 -75 87 -27 73
-31 78 -41 62 -6 -10 -9 -10 -9 -2 0 7 -14 41 -31 77 -30 63 -49 77 -49 36 0
-18 -26 7 -114 107 l-19 22 29 -8 c16 -5 54 -21 86 -36z m-2187 -41 c9 -14 15
-27 13 -28 -2 -1 -25 -12 -53 -25 -27 -12 -74 -39 -103 -59 -42 -29 -63 -36
-100 -37 -26 0 -48 5 -49 10 -2 6 15 10 36 10 23 0 47 7 58 18 11 9 24 17 30
17 5 0 18 9 28 20 17 19 14 19 -36 -4 -29 -14 -67 -26 -84 -26 -23 0 1 15 100
64 72 36 133 65 136 65 4 1 14 -11 24 -25z m2061 -114 c92 -44 136 -73 183
-117 33 -32 61 -64 61 -71 0 -9 -27 -12 -94 -12 l-95 0 -63 72 c-35 40 -87 97
-115 128 -29 31 -53 60 -53 64 0 15 55 -5 176 -64z m-2004 33 c10 -9 18 -20
18 -25 0 -4 -37 -8 -82 -8 -76 0 -81 1 -66 16 14 15 61 30 97 33 8 1 23 -6 33
-16z m2991 -38 c52 -39 55 -49 29 -83 l-19 -24 -37 71 c-20 39 -33 71 -29 71
4 0 29 -16 56 -35z m-3157 0 c-11 -8 -25 -15 -30 -15 -6 0 -2 7 8 15 11 8 25
15 30 15 6 0 2 -7 -8 -15z m198 -51 c9 -8 16 -23 16 -32 0 -14 -13 -18 -83
-20 -45 -2 -119 -7 -164 -11 -90 -7 -116 -2 -132 27 -10 19 -5 20 107 31 64 7
124 14 132 15 45 10 110 5 124 -10z m121 -44 c3 -6 -1 -10 -9 -10 -8 0 -20 9
-26 21 -11 19 -10 20 9 10 11 -6 23 -16 26 -21z m-165 -31 c-43 -29 -83 -44
-160 -60 l-85 -18 -24 27 -24 27 93 12 c52 7 99 15 104 17 6 2 34 5 61 5 37 1
46 -2 35 -10z m1105 -85 c56 -53 112 -114 124 -134 22 -39 28 -104 11 -130
-11 -17 -12 -16 -38 35 -11 22 -46 76 -78 120 -31 44 -75 106 -96 137 -65 98
-54 93 77 -28z m-848 19 c181 -132 257 -202 151 -140 -24 13 -63 31 -88 38
-25 7 -51 19 -58 26 -7 7 -22 13 -32 13 -10 0 -20 7 -24 15 -8 22 4 19 73 -17
33 -17 64 -29 67 -26 3 3 -7 12 -23 21 -56 29 -147 87 -154 99 -12 18 0 29 19
18 9 -5 40 -27 69 -47z m-163 22 c4 -12 -7 -21 -41 -36 -26 -11 -84 -47 -129
-79 l-83 -59 -15 24 c-9 14 -16 26 -16 28 0 3 35 27 78 55 112 74 193 100 206
67z m-204 -33 c0 -9 -81 -52 -98 -52 -6 0 -16 9 -22 20 -10 18 -8 20 27 21 21
0 47 4 58 9 26 11 35 12 35 2z m242 -39 c25 -22 23 -36 -9 -50 -16 -7 -67 -44
-115 -83 l-87 -70 -16 30 c-9 16 -21 30 -28 30 -24 1 142 128 195 150 33 13
39 12 60 -7z m2333 7 c118 -10 205 -34 295 -81 66 -34 86 -50 132 -109 43 -55
55 -78 73 -137 l14 -45 -22 19 c-60 53 -328 149 -487 173 -41 7 -102 18 -135
26 -158 36 -351 3 -544 -96 -64 -33 -128 -71 -141 -85 -29 -30 -10 -33 31 -5
59 43 241 122 336 146 126 32 205 32 374 -1 199 -38 295 -64 386 -101 140 -57
204 -108 267 -212 4 -7 -41 20 -101 61 -201 136 -485 217 -769 217 -96 0 -122
-4 -200 -30 -49 -17 -139 -55 -200 -85 -61 -30 -116 -55 -123 -55 -6 0 -14 7
-18 16 -3 8 -16 20 -29 25 -13 4 -24 16 -24 25 0 14 -7 16 -49 10 l-50 -7 9
30 c18 64 69 110 180 163 187 90 278 120 420 142 53 7 270 5 375 -4z m-2070
-145 c171 -84 364 -256 490 -439 74 -107 26 -80 -129 72 -215 213 -266 255
-381 311 -74 36 -104 56 -113 76 -7 14 -12 28 -12 32 0 11 59 -9 145 -52z
m-215 4 c0 -4 -23 -26 -51 -50 -28 -23 -65 -64 -84 -91 l-32 -49 -37 52 c-21
28 -36 52 -34 53 2 1 31 21 65 44 34 23 81 51 105 62 40 18 44 18 56 3 6 -9
12 -20 12 -24z m34 -55 c4 -9 5 -18 4 -19 -2 -1 -24 -9 -50 -19 -27 -10 -48
-21 -48 -26 0 -4 -8 -11 -17 -14 -10 -4 5 16 34 44 55 54 67 59 77 34z m1186
-64 c9 -23 8 -34 -5 -61 -14 -26 -19 -29 -26 -17 -15 26 -39 130 -33 140 8 13
50 -27 64 -62z m-1162 -11 c2 -11 -10 -20 -40 -28 -24 -7 -65 -24 -91 -38 -27
-13 -51 -22 -54 -19 -8 8 55 64 96 86 42 23 85 22 89 -1z m1092 -39 c13 -53 7
-102 -15 -120 -14 -12 -15 -8 -31 83 -6 37 9 87 27 87 4 0 12 -22 19 -50z
m1142 20 c233 -49 395 -128 551 -267 141 -126 168 -156 165 -183 -4 -38 -54
-29 -92 16 -15 19 -60 57 -100 84 -39 27 -109 77 -156 110 -107 77 -218 130
-368 176 -103 32 -132 37 -242 40 -82 3 -118 1 -105 -5 11 -5 48 -10 82 -10
122 -2 301 -50 434 -116 79 -40 252 -156 287 -193 23 -24 23 -47 0 -24 -7 7
-19 12 -28 12 -8 0 -44 18 -80 40 -74 46 -146 70 -318 105 -66 13 -149 37
-184 52 -56 25 -74 28 -168 27 -92 0 -125 -5 -263 -43 -87 -24 -159 -42 -161
-40 -11 16 -46 82 -44 84 39 30 281 136 355 155 61 15 325 3 435 -20z m548
-11 c0 -6 -4 -7 -10 -4 -5 3 -10 11 -10 16 0 6 5 7 10 4 6 -3 10 -11 10 -16z
m-2785 -28 c16 -27 -114 -103 -143 -84 -32 20 -17 37 53 65 80 31 82 31 90 19z
m1040 -66 c7 -70 -1 -118 -16 -94 -5 8 -9 26 -9 41 0 15 -4 30 -10 33 -8 5
-13 -44 -10 -90 2 -15 -35 -63 -45 -59 -11 4 -19 -13 -108 -236 -35 -89 -42
-100 -45 -74 -4 38 73 309 98 344 9 14 20 35 24 47 4 12 22 39 41 60 19 21 39
50 46 66 18 42 26 33 34 -38z m-960 38 c0 -6 -29 -34 -65 -61 -36 -27 -74 -59
-84 -71 -23 -26 -36 -27 -36 -3 0 10 -5 23 -10 28 -7 7 17 29 72 67 78 52 123
67 123 40z m1307 -72 c37 -25 51 -42 67 -86 28 -74 26 -103 -7 -156 -47 -72
-54 -75 -89 -31 -17 21 -41 70 -52 109 -25 85 -48 116 -108 147 -43 22 -44 23
-27 40 24 25 96 15 141 -20 37 -28 88 -110 104 -167 10 -37 29 -43 29 -9 0 33
-57 137 -96 175 -21 21 -57 43 -79 49 l-40 12 35 6 c28 5 39 2 55 -16 11 -12
41 -36 67 -53z m-1212 26 c-1 -16 -223 -187 -232 -178 -4 3 -10 20 -13 36 -6
28 -1 34 69 85 105 76 135 91 158 79 10 -5 18 -15 18 -22z m2665 -35 c25 -35
44 -66 41 -69 -3 -3 -16 -3 -30 1 -17 4 -32 22 -50 60 -47 99 -30 102 39 8z
m-2583 1 c10 -9 18 -21 17 -27 -1 -12 -239 -238 -257 -244 -18 -6 -15 54 3 72
23 22 18 26 -12 11 -34 -18 -60 -1 -30 19 10 6 71 50 134 99 64 48 118 87 121
87 3 0 14 -7 24 -17z m898 -22 c0 -5 -9 -12 -20 -16 -11 -3 -29 -18 -40 -32
-11 -14 -22 -24 -25 -21 -8 7 56 78 71 78 8 0 14 -4 14 -9z m910 -12 c40 -18
43 -21 26 -31 -10 -6 -86 -14 -167 -18 -81 -5 -152 -11 -158 -14 -11 -7 -244
-57 -247 -53 0 1 -4 14 -7 28 -7 26 -5 27 81 48 48 11 119 29 157 40 100 28
254 28 315 0z m-861 -45 c23 -30 28 -93 9 -112 -27 -27 -80 -7 -121 46 -25 33
-26 37 -10 43 10 4 27 16 37 28 26 29 60 27 85 -5z m-861 -2 l23 -18 -28 -25
c-15 -15 -84 -70 -152 -124 -112 -86 -126 -95 -137 -80 -7 9 -10 23 -8 29 3 7
59 60 124 116 66 57 120 107 120 112 0 14 34 8 58 -10z m942 -70 l18 -40 -31
-30 c-34 -32 -75 -52 -109 -52 -30 0 -88 63 -88 95 l0 27 41 -37 c36 -32 46
-36 76 -32 54 9 65 24 61 78 -3 53 5 51 32 -9z m-866 9 c16 -17 15 -19 -11
-36 -15 -10 -69 -56 -120 -102 -83 -75 -141 -113 -173 -113 -21 0 -9 37 23 68
52 50 241 201 253 201 6 1 18 -7 28 -18z m595 -13 c0 -13 2 -33 6 -46 6 -17 4
-21 -7 -17 -8 3 -21 -1 -28 -10 -12 -14 -11 -16 11 -10 18 4 30 0 44 -16 13
-14 16 -23 8 -26 -6 -2 -49 -31 -96 -64 -81 -56 -85 -57 -77 -32 16 55 29 81
70 139 23 32 46 69 51 82 5 12 11 22 14 22 2 0 4 -10 4 -22z m-228 -94 c-16
-49 -33 -105 -38 -124 l-10 -35 -23 47 -24 48 22 27 c12 16 39 52 59 81 20 29
38 50 40 48 2 -2 -9 -44 -26 -92z m783 66 l31 0 -27 -27 c-23 -22 -29 -24 -42
-13 -9 7 -16 24 -16 38 0 20 3 23 12 14 7 -7 26 -12 42 -12z m-1083 -36 c11
-14 8 -21 -26 -52 -103 -92 -122 -110 -147 -141 -52 -61 -28 -54 35 10 86 88
175 161 187 154 20 -12 9 -39 -44 -109 -86 -111 -119 -192 -124 -299 l-5 -89
-59 59 c-69 66 -158 170 -158 183 0 32 287 300 321 300 4 0 13 -7 20 -16z
m2201 -16 c7 -7 27 -18 45 -24 29 -11 32 -10 35 8 3 18 8 15 51 -22 26 -23 47
-45 47 -50 0 -15 -52 -21 -69 -8 -9 8 -33 21 -54 31 -21 9 -40 24 -43 32 -4 8
-14 15 -24 15 -10 0 -23 7 -30 15 -10 13 -9 15 8 15 11 0 27 -6 34 -12z
m-1172 -22 c0 -15 -66 -59 -81 -54 -7 2 0 18 20 40 30 35 61 42 61 14z m185 3
l60 -1 -61 -12 c-59 -12 -139 -56 -115 -64 6 -2 29 3 51 12 22 9 92 25 156 36
65 12 122 24 127 27 6 3 71 5 145 4 163 -2 238 -23 384 -105 205 -117 308
-194 308 -233 0 -9 9 -32 20 -52 24 -45 52 -132 45 -139 -3 -3 -13 2 -22 10
-10 9 -45 29 -78 46 -33 16 -95 51 -138 76 -43 25 -110 63 -150 83 -175 88 47
22 256 -77 26 -12 59 -36 72 -52 35 -42 40 -30 8 16 -23 32 -140 116 -150 108
-2 -1 -24 9 -51 22 -64 32 -244 91 -334 110 -218 44 -522 47 -653 6 -227 -72
-491 -187 -765 -335 -47 -25 -77 -40 -66 -33 10 7 57 41 105 74 196 139 421
241 731 331 223 64 313 68 546 19 218 -46 274 -66 449 -165 l40 -23 -47 45
c-77 73 -183 114 -445 171 -227 50 -288 49 -524 -9 -100 -24 -186 -42 -191
-39 -21 13 -3 33 50 52 36 14 72 36 97 62 29 29 46 39 60 36 11 -3 47 -6 80
-7z m-1084 -85 c11 -13 10 -19 -1 -37 -7 -12 -29 -53 -48 -92 -20 -38 -46 -80
-59 -92 -25 -24 -31 -53 -10 -53 7 0 18 5 25 12 9 9 15 9 24 0 10 -10 10 -18
-2 -40 -19 -34 -49 -39 -80 -14 -23 18 -23 21 -11 63 12 41 103 228 124 257
13 16 22 15 38 -4z m767 -59 c14 -29 23 -24 -142 -82 -174 -60 -319 -140 -491
-269 -123 -92 -145 -111 -161 -139 -6 -10 -16 -21 -23 -23 -18 -6 43 111 79
152 88 99 366 261 590 342 63 23 120 42 126 43 6 0 16 -10 22 -24z m-702 -2
c19 -25 17 -41 -8 -74 -13 -16 -33 -42 -46 -59 -26 -33 -42 -39 -42 -15 0 16
71 164 79 165 2 0 10 -8 17 -17z m-508 -25 c-34 -44 -56 -57 -67 -39 -13 21
-4 36 32 54 52 26 63 21 35 -15z m149 -313 c88 -85 107 -115 83 -130 -15 -10
-101 57 -170 132 -43 47 -64 81 -75 116 -22 75 -19 77 27 22 23 -27 84 -91
135 -140z m154 39 c17 -15 17 -19 2 -48 -21 -42 -21 -42 -38 -20 -18 23 -19
56 -3 72 15 15 18 15 39 -4z m34 -130 c-8 -20 -15 -39 -15 -42 0 -3 -2 -3 -5
0 -6 5 22 78 30 78 3 0 -2 -16 -10 -36z"/>
<path d="M2039 4798 l-43 -53 52 50 c55 52 57 55 43 55 -5 0 -28 -24 -52 -52z"/>
<path d="M2755 4884 c-22 -8 -71 -19 -110 -23 l-70 -8 76 -2 c78 -1 133 11
159 35 13 12 13 14 0 13 -8 0 -33 -7 -55 -15z"/>
<path d="M2538 4843 c7 -3 16 -2 19 1 4 3 -2 6 -13 5 -11 0 -14 -3 -6 -6z"/>
<path d="M2886 4335 c10 -43 33 -99 39 -93 3 2 -2 27 -11 54 -19 57 -39 85
-28 39z"/>
<path d="M3175 4190 c3 -5 8 -10 11 -10 2 0 4 5 4 10 0 6 -5 10 -11 10 -5 0
-7 -4 -4 -10z"/>
<path d="M4040 3916 c0 -15 39 -107 40 -93 0 12 -32 107 -36 107 -2 0 -4 -6
-4 -14z"/>
<path d="M3786 3609 c28 -32 103 -64 117 -50 8 8 5 11 -11 11 -27 0 -73 22
-91 44 -8 9 -18 16 -24 16 -5 0 -2 -10 9 -21z"/>
<path d="M3171 3935 c-79 -18 -150 -41 -220 -72 -69 -30 -61 -41 10 -13 114
45 258 73 374 73 118 0 189 -12 273 -49 28 -13 52 -20 52 -15 0 9 -82 49 -140
68 -66 21 -270 26 -349 8z"/>
<path d="M2385 3936 c-36 -16 -85 -60 -85 -77 0 -7 15 1 33 18 40 40 74 53
140 54 41 1 47 3 27 9 -38 12 -82 11 -115 -4z"/>
<path d="M4166 3794 c-4 -11 -1 -21 9 -26 8 -5 13 -13 10 -18 -6 -10 6 -19 45
-30 23 -7 28 -5 23 6 -3 8 -10 14 -17 14 -12 0 -37 25 -53 55 -9 16 -10 16
-17 -1z"/>
<path d="M3200 3694 c-67 -57 -74 -122 -18 -169 38 -32 78 -32 118 1 58 49 77
125 44 172 -23 33 -102 31 -144 -4z m114 -10 c47 -47 -9 -159 -76 -152 -41 4
-73 52 -59 89 25 67 98 101 135 63z"/>
<path d="M3225 3620 c-16 -18 -16 -20 -1 -26 24 -9 46 3 46 26 0 26 -22 26
-45 0z"/>
<path d="M2819 3585 c-46 -30 -52 -47 -38 -99 21 -79 35 -96 79 -96 56 0 90
32 97 93 7 57 -13 92 -62 113 -42 17 -34 18 -76 -11z m86 -30 c31 -30 33 -82
4 -119 -24 -31 -64 -34 -78 -7 -9 15 -6 22 14 35 14 9 25 24 25 32 0 13 -7 14
-40 9 -47 -8 -53 6 -19 49 26 33 62 34 94 1z"/>
<path d="M4231 3586 c2 -2 18 -6 35 -9 17 -3 41 -10 53 -16 13 -7 21 -8 21 -2
0 17 -36 31 -76 31 -21 0 -35 -2 -33 -4z"/>
<path d="M4095 3510 c-106 -34 -204 -142 -205 -223 0 -66 62 -155 129 -183 19
-8 36 -12 39 -9 3 3 3 6 1 8 -2 1 -17 9 -34 18 -38 21 -92 99 -101 145 -15 80
70 179 184 214 76 24 142 25 236 5 38 -8 71 -13 73 -11 2 2 -10 14 -28 27 -46
33 -207 38 -294 9z"/>
<path d="M4333 3434 c10 -11 100 -45 105 -40 2 3 -7 11 -20 19 -25 17 -98 34
-85 21z"/>
<path d="M4098 3415 c-60 -34 -85 -125 -54 -199 10 -25 24 -37 51 -46 45 -15
70 -9 123 30 85 62 107 142 52 195 -25 24 -40 29 -87 32 -39 2 -67 -2 -85 -12z
m145 -25 c38 -30 42 -54 17 -106 -34 -70 -122 -116 -166 -86 -52 35 -41 155
18 196 32 23 100 20 131 -4z"/>
<path d="M4096 3315 c-8 -23 4 -45 24 -45 25 0 33 16 20 40 -13 24 -35 26 -44
5z"/>
<path d="M3680 3418 c0 -2 11 -19 25 -38 19 -26 25 -46 25 -88 0 -70 -22 -115
-87 -179 -78 -77 -176 -102 -263 -67 -91 37 -93 144 -4 243 90 100 149 113
218 48 45 -42 39 -73 -24 -139 -54 -56 -87 -62 -127 -22 -23 23 -25 31 -20 82
l6 57 -21 -25 c-41 -51 3 -150 74 -165 61 -14 168 92 168 166 0 31 -6 43 -37
69 -52 42 -103 57 -143 40 -45 -19 -147 -121 -170 -171 -25 -55 -25 -93 -1
-146 26 -56 66 -76 156 -77 83 -1 138 22 214 90 63 57 91 116 91 192 0 64 -29
124 -63 130 -9 2 -17 2 -17 0z"/>
<path d="M3142 3299 c39 -15 76 -97 87 -191 5 -42 12 -81 16 -88 13 -21 109
-60 148 -60 43 0 45 -7 14 -37 -13 -11 -33 -41 -46 -66 -22 -42 -22 -46 -7
-75 28 -55 121 -67 209 -28 85 37 105 80 67 141 -26 42 -78 63 -183 74 -97 10
-159 37 -175 78 -6 15 -14 55 -17 88 -12 103 -63 177 -122 174 -12 0 -10 -4 9
-10z m410 -375 c32 -17 68 -61 68 -84 0 -38 -91 -90 -158 -90 -34 0 -82 31
-89 58 -5 21 9 47 60 113 23 31 62 31 119 3z"/>
<path d="M3420 2846 c0 -7 11 -21 25 -30 27 -18 75 -22 75 -6 0 6 0 13 1 17 0
6 -74 32 -93 33 -5 0 -8 -6 -8 -14z"/>
<path d="M3060 3295 c0 -4 9 -18 20 -32 42 -54 11 -162 -70 -238 -26 -25 -40
-30 -80 -30 -65 0 -104 28 -108 79 -4 46 19 58 48 25 10 -13 19 -30 20 -37 0
-9 10 -12 27 -10 38 4 88 76 79 112 -8 34 -54 56 -117 56 -64 0 -58 -8 17 -24
71 -14 85 -32 61 -80 -21 -45 -38 -45 -71 -1 -32 41 -57 45 -76 11 -14 -27
-17 -96 -5 -116 23 -36 142 -53 193 -26 67 35 131 136 132 207 0 40 -18 99
-30 99 -5 0 -15 3 -24 6 -9 3 -16 3 -16 -1z"/>
<path d="M3451 3291 c-11 -7 -10 -12 5 -29 11 -11 25 -28 32 -37 11 -12 17
-13 28 -4 19 16 18 31 -6 57 -22 24 -37 27 -59 13z"/>
<path d="M3806 2978 c-17 -23 -20 -55 -10 -82 9 -24 24 -9 24 24 0 33 26 64
47 56 8 -3 17 -6 19 -6 2 0 4 -15 4 -34 0 -39 14 -53 35 -36 23 19 19 66 -7
84 -34 24 -94 21 -112 -6z"/>
<path d="M3157 2913 c-35 -5 -61 -44 -53 -78 9 -36 46 -56 112 -58 62 -2 56
-7 95 75 6 11 3 23 -8 33 -31 32 -70 39 -146 28z m87 -23 c31 -11 35 -47 8
-79 -16 -21 -20 -21 -65 -9 -48 12 -69 40 -52 68 16 26 68 36 109 20z"/>
<path d="M3716 2800 c12 -12 28 -20 35 -18 9 3 0 12 -21 22 l-35 18 21 -22z"/>
<path d="M4407 3103 c-9 -8 22 -43 39 -43 20 0 27 19 14 35 -13 16 -42 20 -53
8z"/>
<path d="M4356 3072 c-8 -13 29 -68 51 -76 8 -3 24 -1 35 5 13 7 47 8 92 4 75
-6 78 8 4 20 -24 4 -38 12 -38 22 0 11 -6 10 -26 -6 -37 -29 -55 -26 -85 10
-17 21 -28 28 -33 21z"/>
<path d="M4926 2888 c-4 -9 -5 -21 -2 -27 4 -5 -6 -11 -21 -13 -36 -4 -45 -42
-13 -51 16 -4 20 -2 16 8 -3 9 3 15 17 17 20 3 21 7 16 43 -4 29 -7 35 -13 23z"/>
<path d="M4776 2783 c-7 -23 8 -63 24 -63 12 0 12 6 -4 50 -12 32 -13 33 -20
13z"/>
<path d="M4876 2764 c-9 -22 3 -32 14 -14 12 19 12 30 1 30 -5 0 -12 -7 -15
-16z"/>
<path d="M1050 2820 c0 -5 5 -10 10 -10 6 0 10 5 10 10 0 6 -4 10 -10 10 -5 0
-10 -4 -10 -10z"/>
<path d="M1463 2259 c-21 -8 -21 -10 -8 -36 8 -15 15 -33 15 -40 0 -7 7 -10
15 -7 18 7 20 35 3 54 -11 12 -10 12 5 1 14 -11 17 -11 17 2 0 23 -22 36 -47
26z"/>
<path d="M1405 2240 c-3 -6 1 -7 9 -4 18 7 21 14 7 14 -6 0 -13 -4 -16 -10z"/>
<path d="M4315 1504 c27 -15 54 -32 60 -39 13 -15 45 -27 45 -16 0 21 -71 66
-120 75 -33 6 -32 5 15 -20z"/>
<path d="M4033 1449 c14 -8 22 -8 30 0 8 8 3 11 -18 11 -26 -1 -28 -2 -12 -11z"/>
<path d="M3920 1299 c-36 -11 -110 -37 -165 -57 -74 -28 -93 -38 -73 -40 14
-2 82 16 150 40 121 42 125 43 253 43 130 -1 292 -25 410 -62 62 -19 199 -92
260 -138 61 -47 57 -28 -6 29 -67 60 -209 130 -301 149 -246 51 -290 57 -373
57 -61 -1 -111 -8 -155 -21z"/>
<path d="M3589 1194 l-24 -26 27 12 c15 7 29 19 32 26 8 22 -8 16 -35 -12z"/>
<path d="M3908 1053 c7 -3 16 -2 19 1 4 3 -2 6 -13 5 -11 0 -14 -3 -6 -6z"/>
<path d="M3948 1053 c7 -3 16 -2 19 1 4 3 -2 6 -13 5 -11 0 -14 -3 -6 -6z"/>
<path d="M2320 441 c0 -8 68 -100 93 -126 5 -5 1 6 -8 25 -19 38 -85 116 -85
101z"/>
<path d="M2756 493 c-6 -14 -5 -15 5 -6 7 7 10 15 7 18 -3 3 -9 -2 -12 -12z"/>
<path d="M3001 5081 c-22 -22 -36 -43 -32 -45 10 -7 87 72 78 80 -3 3 -24 -12
-46 -35z"/>
<path d="M4980 5060 c-13 -27 -34 -59 -47 -71 -12 -13 -23 -27 -23 -33 0 -21
78 67 93 105 23 57 4 56 -23 -1z"/>
<path d="M3609 4973 c-13 -16 -12 -17 4 -4 16 13 21 21 13 21 -2 0 -10 -8 -17
-17z"/>
<path d="M0 4893 c1 -12 40 -43 117 -92 63 -41 141 -98 172 -126 65 -61 128
-105 148 -105 8 0 -7 16 -34 36 -26 20 -75 62 -108 94 -33 32 -107 89 -165
127 -137 91 -130 87 -130 66z"/>
<path d="M30 4741 c0 -23 99 -138 209 -243 121 -115 175 -155 111 -80 -59 67
-320 331 -320 323z"/>
<path d="M0 4713 c0 -6 16 -49 36 -95 72 -168 112 -278 100 -278 -21 0 -84 74
-110 130 l-25 55 -1 -146 c0 -135 2 -147 21 -165 11 -10 65 -84 119 -164 53
-80 116 -170 139 -200 47 -62 57 -90 43 -116 -8 -15 -14 -11 -40 27 -71 101
-93 129 -104 129 -6 0 -4 -9 5 -22 103 -149 133 -222 109 -263 -8 -16 -14 -10
-46 38 -66 104 -159 308 -222 487 l-23 65 0 -49 c-1 -61 79 -270 180 -467 42
-83 73 -155 76 -181 l5 -43 -25 30 c-24 28 -186 292 -221 360 l-15 30 -1 -30
c0 -19 17 -57 45 -103 80 -129 177 -304 171 -310 -3 -3 -6 -1 -6 5 0 6 -34 48
-76 94 -41 46 -89 106 -105 134 l-30 50 4 -50 c3 -42 14 -67 63 -140 112 -168
154 -248 154 -293 0 -78 -7 -71 -179 186 -33 49 -36 51 -39 28 -2 -18 16 -52
61 -118 111 -161 156 -248 128 -248 -9 0 -105 100 -158 165 -30 36 -33 37 -33
16 0 -15 21 -46 59 -85 119 -125 120 -125 114 -165 -7 -42 -11 -50 -21 -35 -4
6 -34 41 -66 78 -32 36 -65 74 -72 83 -13 17 -13 17 -14 -2 0 -11 25 -52 56
-90 80 -101 116 -161 112 -187 -3 -20 -15 -9 -82 72 -43 52 -80 97 -82 99 -2
2 -4 -9 -4 -25 0 -21 17 -48 59 -98 32 -38 73 -93 91 -122 29 -48 32 -62 37
-156 3 -57 3 -101 0 -98 -11 12 -139 182 -162 216 -15 22 -25 30 -25 20 0 -19
14 -43 83 -138 26 -37 61 -100 76 -140 32 -80 58 -185 48 -194 -9 -9 -46 71
-52 110 -4 36 -23 81 -31 74 -2 -3 2 -18 8 -36 16 -42 4 -51 -26 -19 -20 21
-23 33 -19 70 5 39 1 50 -33 98 -53 76 -54 77 -54 42 0 -17 6 -38 13 -45 34
-33 39 -58 20 -86 l-18 -27 -5 50 c-3 28 -7 -20 -8 -105 l-2 -156 45 -37 c25
-21 45 -43 45 -50 -1 -15 -70 -91 -77 -84 -2 3 1 15 7 27 10 18 9 25 -4 38
-15 15 -16 2 -16 -156 0 -159 2 -176 25 -239 14 -37 28 -69 30 -71 3 -3 2 32
-2 77 l-6 82 54 51 c86 80 149 128 170 128 29 0 23 -14 -25 -69 -64 -71 -95
-142 -106 -242 -14 -114 -5 -170 51 -334 88 -258 116 -315 339 -685 171 -284
218 -355 274 -409 31 -30 58 -53 60 -50 3 3 -14 28 -37 56 -23 29 -91 132
-151 230 -60 98 -140 228 -179 288 -137 214 -247 457 -308 683 -30 106 -24
280 12 363 24 56 68 125 53 84 -44 -123 -54 -155 -54 -187 -1 -176 229 -718
455 -1073 44 -68 335 -458 437 -584 37 -47 68 -88 68 -93 0 -4 14 -8 31 -8
l30 0 -47 63 c-27 34 -89 112 -139 172 -235 285 -317 397 -415 565 -122 210
-226 428 -325 685 -55 141 -70 209 -60 271 l8 49 15 -58 c8 -32 16 -57 18 -55
1 2 -1 39 -5 83 -11 108 0 123 28 38 12 -37 35 -102 51 -143 15 -41 40 -117
55 -169 61 -219 147 -410 282 -628 207 -334 418 -624 597 -820 42 -46 53 -53
85 -52 21 1 28 3 16 6 -27 7 -53 31 -154 148 -150 174 -218 266 -291 400 l-33
60 38 -35 c20 -19 73 -75 117 -125 135 -151 160 -177 165 -172 11 12 -116 180
-176 234 l-36 32 50 1 c28 0 79 3 115 6 65 6 65 6 83 -25 l18 -31 -88 0 c-70
-1 -84 -3 -68 -12 37 -20 86 -72 111 -118 19 -34 41 -54 89 -83 66 -38 108
-83 119 -127 6 -25 6 -25 -9 -4 -9 12 -49 51 -90 88 -105 94 -96 57 11 -46 47
-46 101 -109 120 -141 35 -55 37 -57 79 -57 l44 0 -33 77 c-42 98 -122 259
-194 388 -30 55 -80 145 -110 200 -131 237 -316 518 -434 658 -33 40 -77 97
-97 127 -77 114 -303 556 -371 725 -29 73 -66 222 -57 231 3 3 35 -54 71 -128
36 -73 88 -176 116 -228 27 -52 74 -157 105 -232 116 -290 144 -336 410 -675
153 -194 183 -241 304 -467 109 -203 217 -386 227 -386 12 0 -17 61 -154 320
-176 334 -172 329 -360 566 -243 309 -314 424 -393 641 -32 87 -130 286 -191
389 -67 114 -116 236 -134 334 -16 92 -18 254 -3 375 14 114 25 136 34 70 37
-270 119 -529 279 -881 109 -239 185 -378 288 -522 130 -181 143 -167 18 18
-100 147 -188 320 -350 685 -81 183 -155 418 -191 608 -48 257 -42 360 42 712
23 94 43 202 46 240 10 130 -34 224 -183 385 -77 83 -119 159 -232 410 -22 50
-51 91 -52 73z m200 -609 c46 -30 51 -44 16 -44 -15 0 -33 12 -50 35 -32 42
-20 45 34 9z m98 -153 c13 -23 22 -51 20 -64 -2 -18 -12 -9 -50 49 -27 40 -48
75 -48 78 0 19 59 -28 78 -63z m-208 -1529 c0 -5 8 -17 18 -28 43 -48 76 -106
64 -113 -7 -4 -10 -15 -6 -24 3 -10 1 -17 -5 -17 -6 0 -11 4 -11 8 0 5 -20 32
-45 61 -44 51 -52 72 -39 105 6 17 24 22 24 8z m-1 -136 c47 -47 52 -56 42
-75 -7 -11 -13 -21 -15 -21 -2 0 -27 27 -55 60 -32 37 -51 66 -47 75 9 24 18
19 75 -39z m166 -56 c4 -6 10 -24 15 -39 8 -27 1 -36 -98 -138 -59 -60 -119
-120 -134 -132 l-27 -24 8 29 c33 111 58 153 145 240 75 76 81 80 91 64z m69
-171 c10 -17 16 -32 14 -34 -4 -4 -78 15 -87 22 -7 5 31 43 43 43 7 0 20 -14
30 -31z m62 -133 c46 -101 43 -106 -11 -17 -38 66 -47 91 -29 91 3 0 21 -33
40 -74z m0 -111 c31 -52 54 -100 52 -107 -3 -7 -18 10 -33 37 -34 58 -86 165
-80 165 2 0 29 -43 61 -95z m16 -147 c29 -78 4 -55 -36 32 -20 43 -36 83 -36
87 0 17 55 -74 72 -119z m118 -24 c0 -5 -13 -23 -29 -38 l-28 -27 -6 52 c-9
71 7 91 39 52 13 -15 23 -33 24 -39z m50 -90 c22 -35 21 -59 -2 -36 -7 7 -25
12 -40 12 -15 0 -28 4 -28 10 0 8 39 50 46 50 1 0 12 -16 24 -36z m-60 -54
c24 -24 25 -27 3 -33 -10 -2 8 -7 40 -11 55 -8 87 -25 50 -27 -66 -4 -132 18
-139 47 -11 44 13 57 46 24z m83 -17 c-7 -2 -19 -2 -25 0 -7 3 -2 5 12 5 14 0
19 -2 13 -5z m-3 -110 c72 -24 136 -60 126 -70 -2 -3 -19 2 -38 10 -27 13 -90
33 -165 53 -6 1 -17 13 -24 25 -10 20 -9 21 7 15 11 -4 53 -19 94 -33z m40
-83 c63 -11 149 -50 172 -77 19 -23 5 -22 -57 4 -46 19 -75 25 -126 24 -69 -2
-80 4 -94 48 -6 21 -5 23 16 18 13 -3 53 -11 89 -17z m85 -101 c33 -10 74 -19
90 -19 19 0 35 -7 42 -20 15 -22 11 -25 -42 -35 -22 -4 -67 -18 -99 -31 -33
-13 -63 -24 -67 -24 -6 0 -39 55 -39 65 0 1 28 5 62 9 95 10 100 28 6 25 -68
-3 -79 -1 -92 16 -28 37 -20 47 32 39 26 -3 74 -15 107 -25z m200 -119 c14
-16 15 -20 4 -24 -8 -2 -63 -19 -123 -37 l-108 -33 -19 23 c-26 32 -13 46 65
70 83 27 157 27 181 1z m64 -94 l32 -33 -68 -7 c-159 -15 -219 -17 -233 -7
-25 17 2 33 97 57 119 31 133 30 172 -10z m14 -63 c-13 -2 -33 -2 -45 0 -13 2
-3 4 22 4 25 0 35 -2 23 -4z m60 -39 c11 -14 16 -28 13 -31 -3 -3 -67 -6 -144
-7 -104 -1 -143 2 -155 13 -10 7 -17 17 -17 21 0 9 141 27 225 28 53 1 62 -1
78 -24z m65 -91 l27 -28 -40 -2 c-22 -2 -91 -8 -154 -14 -76 -7 -117 -7 -123
-1 -11 11 48 32 89 32 12 0 25 4 28 10 4 6 -5 8 -22 5 -82 -12 -121 -13 -131
-3 -7 7 -12 14 -12 18 0 3 70 6 155 8 l155 3 28 -28z m44 -91 c16 -16 18 -22
8 -22 -8 0 -60 -7 -114 -15 -131 -20 -142 -19 -174 10 l-27 25 25 0 c14 1 48
7 75 15 28 8 80 13 118 12 54 -2 71 -7 89 -25z m36 -64 c7 -7 12 -15 12 -19 0
-12 -57 -28 -127 -34 -61 -5 -72 -4 -108 19 l-40 24 35 6 c109 18 212 20 228
4z m103 -176 c6 -15 5 -21 -2 -17 -5 4 -23 2 -39 -5 -25 -10 -32 -10 -45 4 -9
9 -21 16 -26 16 -5 0 -9 7 -9 15 0 13 11 15 56 13 49 -3 58 -6 65 -26z m48
-86 c10 -17 22 -41 25 -53 l7 -22 -43 24 c-37 21 -88 72 -88 89 0 9 55 11 67
3 7 -5 21 -23 32 -41z"/>
<path d="M470 1651 c0 -5 5 -13 10 -16 6 -3 10 -2 10 4 0 5 -4 13 -10 16 -5 3
-10 2 -10 -4z"/>
<path d="M236 4638 c10 -13 57 -63 104 -113 125 -131 292 -391 329 -509 49
-160 51 -306 5 -551 -22 -120 -27 -177 -31 -402 -3 -169 -1 -299 6 -365 12
-103 53 -286 71 -317 17 -29 11 28 -15 139 -56 241 -59 624 -6 920 40 225 44
288 31 410 -16 149 -50 239 -156 410 -74 120 -110 165 -213 272 -68 70 -128
128 -134 128 -6 0 -2 -10 9 -22z"/>
<path d="M160 4462 c0 -10 168 -178 211 -211 34 -26 128 -143 162 -201 16 -26
27 -38 27 -27 0 26 -37 94 -86 159 -68 87 -314 308 -314 280z"/>
<path d="M500 4467 c0 -8 81 -147 86 -147 5 0 -13 44 -42 104 -16 33 -44 60
-44 43z"/>
<path d="M617 4353 c119 -178 157 -275 175 -449 14 -134 4 -249 -43 -484 -32
-163 -34 -196 -30 -525 3 -215 14 -278 79 -455 27 -74 66 -187 86 -250 46
-146 130 -367 169 -445 35 -71 71 -122 191 -270 89 -110 245 -337 324 -470 83
-141 158 -347 220 -610 58 -240 124 -416 148 -393 2 3 -16 71 -41 153 -24 81
-61 218 -81 304 -42 182 -98 349 -160 476 -73 151 -221 371 -353 525 -122 142
-186 228 -219 295 -45 92 -136 328 -172 445 -18 58 -54 161 -81 230 -78 204
-79 206 -75 530 3 269 5 294 35 450 53 286 59 386 29 575 -19 126 -80 255
-181 383 -78 99 -90 90 -20 -15z"/>
<path d="M1150 4150 c0 -6 15 -41 34 -78 45 -90 136 -323 175 -447 35 -113 56
-154 45 -90 -21 123 -128 412 -205 553 -39 70 -49 83 -49 62z"/>
<path d="M566 3818 c-8 -94 -26 -210 -61 -400 -14 -72 -25 -156 -25 -188 0
-62 30 -192 54 -237 22 -41 20 -8 -6 84 -28 100 -28 206 0 343 51 249 77 480
55 480 -6 0 -13 -37 -17 -82z"/>
<path d="M1334 3450 c11 -56 66 -293 106 -455 42 -172 111 -369 175 -500 51
-107 282 -456 355 -537 72 -81 213 -196 308 -253 104 -62 177 -126 308 -272
147 -162 168 -169 46 -15 -90 114 -224 240 -333 312 -173 115 -314 250 -419
402 -221 321 -239 354 -349 660 -45 126 -81 249 -100 340 -28 135 -84 335 -97
347 -4 3 -3 -10 0 -29z"/>
<path d="M5065 3407 c-97 -60 -335 -218 -335 -223 0 -9 172 86 210 116 19 15
62 44 96 63 57 34 92 63 83 71 -2 2 -26 -10 -54 -27z"/>
<path d="M410 3085 c0 -69 112 -484 174 -643 112 -287 382 -829 403 -808 2 2
-32 75 -76 162 -121 242 -259 542 -307 670 -22 59 -155 524 -169 591 -7 35
-25 55 -25 28z"/>
<path d="M0 2904 c0 -12 9 -29 21 -40 12 -10 50 -63 86 -117 35 -55 67 -97 70
-94 7 8 -68 134 -118 198 -58 75 -59 76 -59 53z"/>
<path d="M5056 2823 c-9 -10 -7 -51 3 -57 16 -10 41 5 41 25 0 19 -33 43 -44
32z"/>
<path d="M5105 2740 c-3 -5 -26 -10 -51 -10 -39 0 -44 -2 -44 -22 0 -13 7 -31
14 -41 12 -15 18 -16 35 -7 27 14 27 34 1 27 -11 -3 -20 -1 -20 5 0 6 17 8 40
6 38 -3 40 -2 40 24 0 29 -5 35 -15 18z"/>
<path d="M4105 2605 c-60 -13 -144 -29 -185 -35 -73 -11 -226 -46 -424 -96
-99 -25 -232 -83 -208 -91 6 -3 74 14 150 36 163 48 392 104 517 126 50 9 135
25 190 37 142 30 284 17 410 -36 22 -10 78 -24 123 -32 145 -25 288 -83 395
-160 43 -31 47 -32 47 -14 0 25 -124 109 -208 140 -65 25 -197 60 -223 60 -10
0 -74 19 -141 41 -163 55 -277 61 -443 24z"/>
<path d="M4172 2465 c4 -4 18 -9 30 -10 13 -2 47 -10 77 -19 56 -16 212 -23
196 -8 -17 15 -317 51 -303 37z"/>
<path d="M3642 2364 c-110 -13 -162 -24 -307 -63 -85 -23 -63 -27 37 -6 40 8
168 24 283 36 178 18 245 21 440 16 387 -11 625 -53 893 -159 67 -26 125 -48
127 -48 3 0 5 6 5 14 0 20 -171 94 -295 127 -167 44 -383 79 -555 89 -215 13
-494 10 -628 -6z"/>
<path d="M704 1763 c13 -27 48 -80 78 -119 29 -39 71 -96 93 -127 22 -31 41
-54 43 -52 10 9 -44 105 -92 164 -29 36 -72 92 -95 124 -23 31 -44 57 -46 57
-3 0 6 -21 19 -47z"/>
<path d="M1 1433 c-1 -110 2 -139 19 -178 23 -53 23 -55 12 -55 -5 0 -14 10
-20 23 -10 20 -11 19 -11 -16 -1 -24 7 -50 20 -69 l21 -29 -21 -23 c-11 -12
-21 -29 -21 -37 0 -10 2 -11 8 -2 10 16 64 21 69 6 2 -7 -14 -23 -36 -38 -33
-21 -41 -31 -41 -56 l0 -31 34 21 c18 12 43 21 54 21 18 0 72 -51 72 -69 0 -4
-24 -17 -52 -29 -65 -28 -108 -64 -108 -92 0 -20 2 -20 39 9 21 17 59 40 82
51 l44 20 17 -21 c17 -20 17 -22 -10 -42 -57 -44 -147 -129 -159 -150 -7 -12
-12 -51 -12 -87 1 -63 1 -64 10 -22 9 49 33 86 84 131 30 26 44 31 88 31 78 0
84 -11 21 -44 -41 -22 -71 -50 -121 -112 -36 -46 -70 -84 -75 -84 -4 0 -8 -23
-8 -51 0 -48 4 -55 51 -107 28 -31 87 -106 130 -168 83 -118 102 -138 120
-132 6 2 -25 58 -71 127 -44 68 -79 125 -76 128 2 3 14 2 25 -2 24 -7 73 -71
142 -182 40 -66 47 -72 78 -73 32 0 33 1 18 18 -10 10 -17 22 -17 26 0 5 -16
31 -36 60 -34 49 -33 48 30 -19 36 -38 66 -73 66 -77 0 -5 20 -8 46 -8 l45 0
-27 35 c-15 20 -25 37 -23 39 7 6 224 -35 290 -55 56 -16 229 -28 229 -15 0 2
-71 75 -158 162 -377 380 -657 809 -802 1230 l-59 169 0 -132z m249 -703 c0
-5 -9 -10 -21 -10 -11 0 -17 5 -14 10 3 6 13 10 21 10 8 0 14 -4 14 -10z m96
-132 c17 -18 43 -50 58 -71 23 -31 25 -38 12 -43 -9 -3 -16 -13 -16 -21 0 -10
8 -12 33 -8 24 5 37 2 47 -9 16 -20 17 -19 -50 -38 -30 -9 -100 -32 -155 -52
-97 -34 -168 -45 -179 -27 -6 9 185 111 209 111 23 0 48 46 40 72 -10 33 -35
58 -57 58 -11 0 -39 -9 -62 -20 -37 -16 -47 -28 -65 -73 -26 -63 -66 -91 -88
-61 -10 13 -9 23 6 53 11 20 30 45 43 57 33 30 160 104 179 104 8 0 29 -15 45
-32z m-42 -81 c14 -23 -14 -47 -55 -47 -33 0 -42 21 -22 49 18 26 60 25 77 -2z
m-109 -87 c4 -6 -5 -10 -20 -10 -15 0 -24 4 -20 10 3 6 12 10 20 10 8 0 17 -4
20 -10z m341 -61 c10 -17 -7 -28 -85 -55 -72 -25 -206 -41 -215 -25 -6 9 40
30 140 66 73 26 148 32 160 14z m64 -79 c10 -19 4 -24 -72 -60 -55 -27 -95
-40 -123 -40 -43 0 -105 17 -105 29 0 8 236 87 267 89 13 1 27 -6 33 -18z m41
-74 c-17 -21 -142 -94 -171 -100 -26 -7 -64 12 -43 20 6 3 49 25 95 49 85 44
142 59 119 31z m95 -67 c3 -5 -23 -9 -57 -9 -66 0 -72 8 -17 19 36 8 65 4 74
-10z m-31 -44 c40 -4 73 -14 98 -31 38 -25 49 -41 21 -30 -10 4 -69 18 -133
32 -121 27 -169 48 -91 39 25 -2 72 -7 105 -10z"/>
<path d="M1146 1498 c5 -7 26 -41 48 -74 23 -34 46 -70 53 -80 11 -18 12 -18
12 2 1 23 -94 164 -110 164 -6 0 -7 -6 -3 -12z"/>
<path d="M1096 1463 c21 -89 87 -197 184 -303 106 -117 191 -276 270 -505 21
-60 56 -157 78 -215 22 -58 59 -180 83 -273 28 -113 46 -167 55 -167 8 0 14 5
14 10 0 74 -210 729 -284 885 -54 115 -80 153 -192 280 -94 108 -142 177 -181
261 -27 59 -37 69 -27 27z"/>
<path d="M960 1404 c0 -22 73 -134 142 -219 106 -131 203 -279 327 -500 123
-218 137 -254 161 -414 11 -69 29 -157 40 -196 11 -38 20 -71 20 -72 0 -2 7
-3 16 -3 10 0 14 6 10 18 -18 60 -38 153 -56 257 -29 170 -39 198 -157 410
-125 226 -224 378 -328 500 -41 50 -95 120 -118 157 -37 59 -57 81 -57 62z"/>
<path d="M5105 1170 c3 -5 8 -10 11 -10 2 0 4 5 4 10 0 6 -5 10 -11 10 -5 0
-7 -4 -4 -10z"/>
<path d="M4910 1136 c0 -2 28 -22 63 -44 34 -22 81 -54 105 -72 38 -29 42 -30
42 -12 0 21 -65 66 -159 111 -47 22 -51 23 -51 17z"/>
<path d="M1860 618 c76 -287 148 -564 154 -590 4 -19 13 -28 25 -28 18 0 15
16 -34 208 -60 232 -126 458 -151 515 -33 74 -31 34 6 -105z"/>
<path d="M3405 640 c-3 -5 3 -10 14 -10 12 0 21 5 21 10 0 6 -6 10 -14 10 -8
0 -18 -4 -21 -10z"/>
<path d="M4300 371 c0 -37 21 -59 67 -70 60 -15 165 -55 216 -83 53 -28 56
-17 7 24 -22 19 -40 40 -40 46 0 7 -4 12 -10 12 -5 0 -10 -7 -10 -15 0 -8 -1
-15 -3 -15 -15 0 -177 76 -193 91 -22 21 -34 24 -34 10z"/>
<path d="M1 263 c-1 -48 4 -60 50 -124 28 -39 58 -86 67 -105 10 -20 25 -34
35 -34 17 0 16 5 -9 47 -15 27 -45 74 -66 106 -22 32 -48 82 -58 110 l-19 52
0 -52z"/>
<path d="M3437 182 c-26 -16 -86 -62 -135 -103 -78 -66 -84 -74 -62 -78 18 -2
32 5 50 27 14 16 59 57 100 92 122 103 126 108 47 62z"/>
<path d="M3790 149 c-89 -8 -151 -24 -327 -83 -184 -62 -189 -66 -68 -65 70 1
103 6 113 16 12 12 17 12 31 -2 10 -8 35 -15 55 -15 37 0 38 1 34 30 -3 16 -3
30 -1 30 2 0 9 -13 14 -30 7 -20 18 -30 31 -30 14 0 18 5 14 16 -17 43 -18 64
-4 64 8 0 21 -18 28 -40 13 -38 15 -40 57 -40 23 0 43 2 43 5 0 3 -9 23 -20
44 -17 34 -17 40 -4 45 17 7 46 -20 69 -63 8 -17 20 -31 26 -31 5 0 -2 20 -17
45 -14 25 -24 48 -21 51 3 3 24 -18 47 -45 26 -31 51 -51 64 -51 20 0 20 0 -2
16 -12 8 -31 33 -42 55 -19 37 -20 39 -2 39 11 0 27 -16 41 -40 30 -54 48 -62
21 -10 -12 23 -18 45 -15 48 8 8 72 -65 81 -90 3 -10 10 -18 15 -18 5 0 -5 25
-22 55 -21 38 -27 55 -17 55 24 0 87 -49 103 -80 10 -19 23 -30 37 -30 23 0
23 1 -41 73 -30 33 -19 34 34 2 22 -13 50 -29 63 -34 12 -6 25 -18 28 -26 4
-10 19 -15 48 -14 31 0 36 2 21 8 -11 5 -23 7 -27 4 -4 -2 -18 5 -30 16 -28
27 -24 26 68 -5 100 -33 142 -28 63 8 -198 92 -407 134 -589 117z m-18 -104
c14 -29 15 -35 3 -35 -16 0 -24 10 -35 50 -11 40 10 30 32 -15z"/>
<path d="M1330 142 c0 -17 131 -142 149 -142 8 0 12 1 10 3 -2 1 -39 36 -81
77 -43 40 -78 68 -78 62z"/>
<path d="M4545 120 c-3 -5 12 -18 35 -29 37 -18 40 -18 40 -2 0 26 -62 52 -75
31z"/>
<path d="M0 99 c0 -18 63 -99 77 -99 8 0 -3 22 -28 55 -43 57 -49 62 -49 44z"/>
<path d="M0 10 c0 -5 5 -10 11 -10 5 0 7 5 4 10 -3 6 -8 10 -11 10 -2 0 -4 -4
-4 -10z"/>
<path d="M4210 10 c0 -5 5 -10 11 -10 5 0 7 5 4 10 -3 6 -8 10 -11 10 -2 0 -4
-4 -4 -10z"/>
</g>
</svg>
