G04 #@! TF.GenerationSoftware,KiCad,Pcbnew,7.0.2-0*
G04 #@! TF.CreationDate,2023-04-30T22:25:47-07:00*
G04 #@! TF.ProjectId,babelfish,62616265-6c66-4697-9368-2e6b69636164,REV1*
G04 #@! TF.SameCoordinates,Original*
G04 #@! TF.FileFunction,Copper,L3,Inr*
G04 #@! TF.FilePolarity,Positive*
%FSLAX46Y46*%
G04 Gerber Fmt 4.6, Leading zero omitted, Abs format (unit mm)*
G04 Created by KiCad (PCBNEW 7.0.2-0) date 2023-04-30 22:25:47*
%MOMM*%
%LPD*%
G01*
G04 APERTURE LIST*
G04 #@! TA.AperFunction,ComponentPad*
%ADD10O,1.000000X2.100000*%
G04 #@! TD*
G04 #@! TA.AperFunction,ComponentPad*
%ADD11O,1.000000X1.800000*%
G04 #@! TD*
G04 #@! TA.AperFunction,ComponentPad*
%ADD12R,1.700000X1.700000*%
G04 #@! TD*
G04 #@! TA.AperFunction,ComponentPad*
%ADD13O,1.700000X1.700000*%
G04 #@! TD*
G04 #@! TA.AperFunction,ComponentPad*
%ADD14C,0.600000*%
G04 #@! TD*
G04 #@! TA.AperFunction,ComponentPad*
%ADD15C,1.500000*%
G04 #@! TD*
G04 #@! TA.AperFunction,ComponentPad*
%ADD16C,3.100000*%
G04 #@! TD*
G04 #@! TA.AperFunction,ViaPad*
%ADD17C,0.600000*%
G04 #@! TD*
G04 APERTURE END LIST*
D10*
X114900000Y-76080086D03*
D11*
X114900000Y-71900000D03*
X106259919Y-71900000D03*
D10*
X106259919Y-76080086D03*
D12*
X87787500Y-83887000D03*
D13*
X85247500Y-83887000D03*
X87787500Y-81347000D03*
X85247500Y-81347000D03*
X87787500Y-78807000D03*
X85247500Y-78807000D03*
X87787500Y-76267000D03*
X85247500Y-76267000D03*
X87787500Y-73727000D03*
X85247500Y-73727000D03*
D12*
X103700000Y-103650000D03*
D13*
X103700000Y-101110000D03*
X106240000Y-103650000D03*
X106240000Y-101110000D03*
X108780000Y-103650000D03*
X108780000Y-101110000D03*
D12*
X122000000Y-73000000D03*
D13*
X124540000Y-73000000D03*
X127080000Y-73000000D03*
X129620000Y-73000000D03*
D14*
X105625000Y-87562500D03*
X105625000Y-88837500D03*
X105625000Y-90112500D03*
X106900000Y-87562500D03*
X106900000Y-88837500D03*
X106900000Y-90112500D03*
X108175000Y-87562500D03*
X108175000Y-88837500D03*
X108175000Y-90112500D03*
D15*
X127439200Y-95041600D03*
X127439200Y-92541600D03*
X127439200Y-90541600D03*
X127439200Y-88041600D03*
D16*
X130149200Y-98541600D03*
X130149200Y-84541600D03*
D17*
X108500000Y-80750000D03*
X106400000Y-79350000D03*
X109600000Y-96050000D03*
X107650000Y-98000000D03*
X101100000Y-80200000D03*
X99841300Y-84953800D03*
X112109500Y-80331000D03*
X100950000Y-96250000D03*
X108550000Y-96050000D03*
X115919500Y-77283000D03*
X116681500Y-77791000D03*
X110250000Y-82100000D03*
X102965500Y-84953800D03*
X114900000Y-86650000D03*
X105800000Y-81450000D03*
X99350000Y-89350000D03*
X122400000Y-92889200D03*
X102300000Y-80200000D03*
X112700000Y-100000000D03*
X115919500Y-78299000D03*
X118400000Y-92900000D03*
X114900000Y-89050000D03*
X115157500Y-77791000D03*
X122400000Y-90389200D03*
X95345500Y-85030000D03*
X95345500Y-85792000D03*
X111250000Y-81150000D03*
X105050000Y-93600000D03*
X114900000Y-87550000D03*
X113950000Y-80300000D03*
X106750000Y-80750000D03*
X117100000Y-94800000D03*
X116750000Y-80700000D03*
X100350000Y-90800000D03*
X94150000Y-96720000D03*
X98600000Y-83950000D03*
X95900000Y-91170000D03*
X110150000Y-95100000D03*
X95650000Y-99220000D03*
X97900000Y-93150000D03*
X97350000Y-77100000D03*
X112700000Y-104000000D03*
X95650000Y-83150000D03*
X108950000Y-91050000D03*
X107550000Y-91150000D03*
X100750000Y-91750000D03*
X93500000Y-92170000D03*
X101850000Y-93150000D03*
X93500000Y-99270000D03*
X118150000Y-73250000D03*
X123200000Y-79250000D03*
X91950000Y-75800000D03*
G04 #@! TA.AperFunction,Conductor*
G36*
X106237179Y-70520002D02*
G01*
X106248006Y-70532497D01*
X106299935Y-70503244D01*
X106328344Y-70500000D01*
X114809139Y-70500000D01*
X114877260Y-70520002D01*
X114888087Y-70532497D01*
X114940016Y-70503244D01*
X114968425Y-70500000D01*
X137874000Y-70500000D01*
X137942121Y-70520002D01*
X137988614Y-70573658D01*
X138000000Y-70626000D01*
X138000000Y-106874000D01*
X137979998Y-106942121D01*
X137926342Y-106988614D01*
X137874000Y-107000000D01*
X83126000Y-107000000D01*
X83057879Y-106979998D01*
X83011386Y-106926342D01*
X83000000Y-106874000D01*
X83000000Y-104150000D01*
X84394551Y-104150000D01*
X84414317Y-104401148D01*
X84473127Y-104646111D01*
X84569535Y-104878862D01*
X84701163Y-105093658D01*
X84864775Y-105285224D01*
X85056341Y-105448836D01*
X85271137Y-105580464D01*
X85271139Y-105580464D01*
X85271141Y-105580466D01*
X85503889Y-105676873D01*
X85748852Y-105735683D01*
X85937118Y-105750500D01*
X85939587Y-105750500D01*
X86060413Y-105750500D01*
X86062882Y-105750500D01*
X86251148Y-105735683D01*
X86496111Y-105676873D01*
X86728859Y-105580466D01*
X86943659Y-105448836D01*
X87135224Y-105285224D01*
X87298836Y-105093659D01*
X87430466Y-104878859D01*
X87526873Y-104646111D01*
X87556027Y-104524674D01*
X102599500Y-104524674D01*
X102614034Y-104597740D01*
X102669399Y-104680601D01*
X102752260Y-104735966D01*
X102825326Y-104750500D01*
X102825327Y-104750500D01*
X104574673Y-104750500D01*
X104574674Y-104750500D01*
X104647740Y-104735966D01*
X104730601Y-104680601D01*
X104785966Y-104597740D01*
X104800500Y-104524674D01*
X104800500Y-103650000D01*
X105134785Y-103650000D01*
X105153603Y-103853085D01*
X105195405Y-104000000D01*
X105209418Y-104049250D01*
X105300327Y-104231821D01*
X105423236Y-104394579D01*
X105573959Y-104531981D01*
X105573961Y-104531982D01*
X105573962Y-104531983D01*
X105747359Y-104639346D01*
X105747361Y-104639346D01*
X105747363Y-104639348D01*
X105937544Y-104713024D01*
X106138024Y-104750500D01*
X106138026Y-104750500D01*
X106341974Y-104750500D01*
X106341976Y-104750500D01*
X106542456Y-104713024D01*
X106732637Y-104639348D01*
X106906041Y-104531981D01*
X107056764Y-104394579D01*
X107179673Y-104231821D01*
X107270582Y-104049250D01*
X107326397Y-103853083D01*
X107345215Y-103650000D01*
X107674785Y-103650000D01*
X107693603Y-103853085D01*
X107735405Y-104000000D01*
X107749418Y-104049250D01*
X107840327Y-104231821D01*
X107963236Y-104394579D01*
X108113959Y-104531981D01*
X108113961Y-104531982D01*
X108113962Y-104531983D01*
X108287359Y-104639346D01*
X108287361Y-104639346D01*
X108287363Y-104639348D01*
X108477544Y-104713024D01*
X108678024Y-104750500D01*
X108678026Y-104750500D01*
X108881974Y-104750500D01*
X108881976Y-104750500D01*
X109082456Y-104713024D01*
X109272637Y-104639348D01*
X109446041Y-104531981D01*
X109596764Y-104394579D01*
X109719673Y-104231821D01*
X109810582Y-104049250D01*
X109824595Y-104000000D01*
X112144750Y-104000000D01*
X112163669Y-104143709D01*
X112219137Y-104277623D01*
X112219139Y-104277625D01*
X112307379Y-104392621D01*
X112400670Y-104464206D01*
X112422376Y-104480862D01*
X112556290Y-104536330D01*
X112573008Y-104538531D01*
X112700000Y-104555250D01*
X112843709Y-104536330D01*
X112854209Y-104531981D01*
X112977623Y-104480862D01*
X112977623Y-104480861D01*
X112977625Y-104480861D01*
X113092621Y-104392621D01*
X113180861Y-104277625D01*
X113236330Y-104143709D01*
X113255250Y-104000000D01*
X133394551Y-104000000D01*
X133414317Y-104251148D01*
X133473127Y-104496111D01*
X133569535Y-104728862D01*
X133701163Y-104943658D01*
X133864775Y-105135224D01*
X134056341Y-105298836D01*
X134271137Y-105430464D01*
X134271139Y-105430464D01*
X134271141Y-105430466D01*
X134503889Y-105526873D01*
X134748852Y-105585683D01*
X134937118Y-105600500D01*
X134939587Y-105600500D01*
X135060413Y-105600500D01*
X135062882Y-105600500D01*
X135251148Y-105585683D01*
X135496111Y-105526873D01*
X135728859Y-105430466D01*
X135943659Y-105298836D01*
X136135224Y-105135224D01*
X136298836Y-104943659D01*
X136430466Y-104728859D01*
X136526873Y-104496111D01*
X136585683Y-104251148D01*
X136605449Y-104000000D01*
X136585683Y-103748852D01*
X136526873Y-103503889D01*
X136430466Y-103271141D01*
X136417970Y-103250750D01*
X136298836Y-103056341D01*
X136135224Y-102864775D01*
X135943658Y-102701163D01*
X135728862Y-102569535D01*
X135496111Y-102473127D01*
X135251148Y-102414317D01*
X135065338Y-102399693D01*
X135065330Y-102399692D01*
X135062882Y-102399500D01*
X134937118Y-102399500D01*
X134934670Y-102399692D01*
X134934661Y-102399693D01*
X134748851Y-102414317D01*
X134503888Y-102473127D01*
X134271137Y-102569535D01*
X134056341Y-102701163D01*
X133864775Y-102864775D01*
X133701163Y-103056341D01*
X133569535Y-103271137D01*
X133473127Y-103503888D01*
X133414317Y-103748851D01*
X133394551Y-104000000D01*
X113255250Y-104000000D01*
X113236330Y-103856291D01*
X113235002Y-103853085D01*
X113180862Y-103722376D01*
X113164206Y-103700670D01*
X113092621Y-103607379D01*
X113021034Y-103552448D01*
X112977623Y-103519137D01*
X112843709Y-103463669D01*
X112700000Y-103444750D01*
X112556290Y-103463669D01*
X112422376Y-103519137D01*
X112307379Y-103607379D01*
X112219137Y-103722376D01*
X112163669Y-103856290D01*
X112144750Y-104000000D01*
X109824595Y-104000000D01*
X109866397Y-103853083D01*
X109885215Y-103650000D01*
X109866397Y-103446917D01*
X109810582Y-103250750D01*
X109719673Y-103068179D01*
X109596764Y-102905421D01*
X109446041Y-102768019D01*
X109446038Y-102768017D01*
X109446037Y-102768016D01*
X109272640Y-102660653D01*
X109082456Y-102586976D01*
X109082455Y-102586976D01*
X108881976Y-102549500D01*
X108678024Y-102549500D01*
X108600274Y-102564034D01*
X108477543Y-102586976D01*
X108287359Y-102660653D01*
X108113962Y-102768016D01*
X107963235Y-102905422D01*
X107840328Y-103068177D01*
X107749417Y-103250752D01*
X107693603Y-103446914D01*
X107674785Y-103650000D01*
X107345215Y-103650000D01*
X107326397Y-103446917D01*
X107270582Y-103250750D01*
X107179673Y-103068179D01*
X107056764Y-102905421D01*
X106906041Y-102768019D01*
X106906038Y-102768017D01*
X106906037Y-102768016D01*
X106732640Y-102660653D01*
X106542456Y-102586976D01*
X106341976Y-102549500D01*
X106138024Y-102549500D01*
X106060274Y-102564034D01*
X105937543Y-102586976D01*
X105747359Y-102660653D01*
X105573962Y-102768016D01*
X105423235Y-102905422D01*
X105300328Y-103068177D01*
X105209417Y-103250752D01*
X105153603Y-103446914D01*
X105134785Y-103650000D01*
X104800500Y-103650000D01*
X104800500Y-102775326D01*
X104785966Y-102702260D01*
X104730601Y-102619399D01*
X104647740Y-102564034D01*
X104574674Y-102549500D01*
X102825326Y-102549500D01*
X102752260Y-102564034D01*
X102669399Y-102619399D01*
X102614034Y-102702260D01*
X102599500Y-102775326D01*
X102599500Y-104524674D01*
X87556027Y-104524674D01*
X87585683Y-104401148D01*
X87605449Y-104150000D01*
X87585683Y-103898852D01*
X87526873Y-103653889D01*
X87430466Y-103421141D01*
X87298836Y-103206341D01*
X87135224Y-103014775D01*
X86943658Y-102851163D01*
X86728862Y-102719535D01*
X86496111Y-102623127D01*
X86251148Y-102564317D01*
X86065338Y-102549693D01*
X86065330Y-102549692D01*
X86062882Y-102549500D01*
X85937118Y-102549500D01*
X85934670Y-102549692D01*
X85934661Y-102549693D01*
X85748851Y-102564317D01*
X85503888Y-102623127D01*
X85271137Y-102719535D01*
X85056341Y-102851163D01*
X84864775Y-103014775D01*
X84701163Y-103206341D01*
X84569535Y-103421137D01*
X84473127Y-103653888D01*
X84414317Y-103898851D01*
X84394551Y-104150000D01*
X83000000Y-104150000D01*
X83000000Y-101110000D01*
X102594785Y-101110000D01*
X102613603Y-101313085D01*
X102669417Y-101509247D01*
X102669418Y-101509250D01*
X102760327Y-101691821D01*
X102883236Y-101854579D01*
X103033959Y-101991981D01*
X103033961Y-101991982D01*
X103033962Y-101991983D01*
X103207359Y-102099346D01*
X103207361Y-102099346D01*
X103207363Y-102099348D01*
X103397544Y-102173024D01*
X103598024Y-102210500D01*
X103598026Y-102210500D01*
X103801974Y-102210500D01*
X103801976Y-102210500D01*
X104002456Y-102173024D01*
X104192637Y-102099348D01*
X104366041Y-101991981D01*
X104516764Y-101854579D01*
X104639673Y-101691821D01*
X104730582Y-101509250D01*
X104786397Y-101313083D01*
X104805215Y-101110000D01*
X105134785Y-101110000D01*
X105153603Y-101313085D01*
X105209417Y-101509247D01*
X105209418Y-101509250D01*
X105300327Y-101691821D01*
X105423236Y-101854579D01*
X105573959Y-101991981D01*
X105573961Y-101991982D01*
X105573962Y-101991983D01*
X105747359Y-102099346D01*
X105747361Y-102099346D01*
X105747363Y-102099348D01*
X105937544Y-102173024D01*
X106138024Y-102210500D01*
X106138026Y-102210500D01*
X106341974Y-102210500D01*
X106341976Y-102210500D01*
X106542456Y-102173024D01*
X106732637Y-102099348D01*
X106906041Y-101991981D01*
X107056764Y-101854579D01*
X107179673Y-101691821D01*
X107270582Y-101509250D01*
X107326397Y-101313083D01*
X107345215Y-101110000D01*
X107674785Y-101110000D01*
X107693603Y-101313085D01*
X107749417Y-101509247D01*
X107749418Y-101509250D01*
X107840327Y-101691821D01*
X107963236Y-101854579D01*
X108113959Y-101991981D01*
X108113961Y-101991982D01*
X108113962Y-101991983D01*
X108287359Y-102099346D01*
X108287361Y-102099346D01*
X108287363Y-102099348D01*
X108477544Y-102173024D01*
X108678024Y-102210500D01*
X108678026Y-102210500D01*
X108881974Y-102210500D01*
X108881976Y-102210500D01*
X109082456Y-102173024D01*
X109272637Y-102099348D01*
X109446041Y-101991981D01*
X109596764Y-101854579D01*
X109719673Y-101691821D01*
X109810582Y-101509250D01*
X109866397Y-101313083D01*
X109885215Y-101110000D01*
X109866397Y-100906917D01*
X109810582Y-100710750D01*
X109719673Y-100528179D01*
X109596764Y-100365421D01*
X109446041Y-100228019D01*
X109446038Y-100228017D01*
X109446037Y-100228016D01*
X109272640Y-100120653D01*
X109082456Y-100046976D01*
X109082455Y-100046976D01*
X108881976Y-100009500D01*
X108678024Y-100009500D01*
X108544370Y-100034484D01*
X108477543Y-100046976D01*
X108287359Y-100120653D01*
X108113962Y-100228016D01*
X107963235Y-100365422D01*
X107840328Y-100528177D01*
X107749417Y-100710752D01*
X107693603Y-100906914D01*
X107674785Y-101110000D01*
X107345215Y-101110000D01*
X107326397Y-100906917D01*
X107270582Y-100710750D01*
X107179673Y-100528179D01*
X107056764Y-100365421D01*
X106906041Y-100228019D01*
X106906038Y-100228017D01*
X106906037Y-100228016D01*
X106732640Y-100120653D01*
X106542456Y-100046976D01*
X106341976Y-100009500D01*
X106138024Y-100009500D01*
X106004370Y-100034484D01*
X105937543Y-100046976D01*
X105747359Y-100120653D01*
X105573962Y-100228016D01*
X105423235Y-100365422D01*
X105300328Y-100528177D01*
X105209417Y-100710752D01*
X105153603Y-100906914D01*
X105134785Y-101110000D01*
X104805215Y-101110000D01*
X104786397Y-100906917D01*
X104730582Y-100710750D01*
X104639673Y-100528179D01*
X104516764Y-100365421D01*
X104366041Y-100228019D01*
X104366038Y-100228017D01*
X104366037Y-100228016D01*
X104192640Y-100120653D01*
X104002456Y-100046976D01*
X104002455Y-100046976D01*
X103801976Y-100009500D01*
X103598024Y-100009500D01*
X103464370Y-100034484D01*
X103397543Y-100046976D01*
X103207359Y-100120653D01*
X103033962Y-100228016D01*
X102883235Y-100365422D01*
X102760328Y-100528177D01*
X102669417Y-100710752D01*
X102613603Y-100906914D01*
X102594785Y-101110000D01*
X83000000Y-101110000D01*
X83000000Y-100000000D01*
X112144750Y-100000000D01*
X112163669Y-100143709D01*
X112219137Y-100277623D01*
X112252448Y-100321034D01*
X112307379Y-100392621D01*
X112400670Y-100464206D01*
X112422376Y-100480862D01*
X112556290Y-100536330D01*
X112573008Y-100538531D01*
X112700000Y-100555250D01*
X112843709Y-100536330D01*
X112977625Y-100480861D01*
X113092621Y-100392621D01*
X113180861Y-100277625D01*
X113201410Y-100228016D01*
X113236330Y-100143709D01*
X113239365Y-100120653D01*
X113255250Y-100000000D01*
X113236330Y-99856291D01*
X113223473Y-99825250D01*
X113180862Y-99722376D01*
X113164206Y-99700670D01*
X113092621Y-99607379D01*
X113021034Y-99552448D01*
X112977623Y-99519137D01*
X112843709Y-99463669D01*
X112700000Y-99444750D01*
X112556290Y-99463669D01*
X112422376Y-99519137D01*
X112307379Y-99607379D01*
X112219137Y-99722376D01*
X112163669Y-99856290D01*
X112144750Y-100000000D01*
X83000000Y-100000000D01*
X83000000Y-99269999D01*
X92944750Y-99269999D01*
X92963669Y-99413709D01*
X93019137Y-99547623D01*
X93052448Y-99591034D01*
X93107379Y-99662621D01*
X93185252Y-99722375D01*
X93222376Y-99750862D01*
X93356290Y-99806330D01*
X93373008Y-99808531D01*
X93500000Y-99825250D01*
X93643709Y-99806330D01*
X93643708Y-99806330D01*
X93777623Y-99750862D01*
X93777623Y-99750861D01*
X93777625Y-99750861D01*
X93892621Y-99662621D01*
X93980861Y-99547625D01*
X94036330Y-99413709D01*
X94055250Y-99270000D01*
X94036330Y-99126291D01*
X94014585Y-99073793D01*
X93980862Y-98992376D01*
X93964206Y-98970670D01*
X93892621Y-98877379D01*
X93805728Y-98810703D01*
X93777623Y-98789137D01*
X93643709Y-98733669D01*
X93516717Y-98716951D01*
X93500000Y-98714750D01*
X93499999Y-98714750D01*
X93356290Y-98733669D01*
X93222376Y-98789137D01*
X93107379Y-98877379D01*
X93019137Y-98992376D01*
X92963669Y-99126290D01*
X92944750Y-99269999D01*
X83000000Y-99269999D01*
X83000000Y-98000000D01*
X107094750Y-98000000D01*
X107113669Y-98143709D01*
X107169137Y-98277623D01*
X107169139Y-98277625D01*
X107257379Y-98392621D01*
X107350670Y-98464206D01*
X107372376Y-98480862D01*
X107506290Y-98536330D01*
X107525210Y-98538820D01*
X107650000Y-98555250D01*
X107753680Y-98541600D01*
X128343651Y-98541600D01*
X128363817Y-98810705D01*
X128423865Y-99073793D01*
X128423866Y-99073795D01*
X128522457Y-99324998D01*
X128657385Y-99558702D01*
X128825639Y-99769685D01*
X128865133Y-99806330D01*
X129023458Y-99953235D01*
X129160952Y-100046976D01*
X129246426Y-100105251D01*
X129326285Y-100143709D01*
X129489558Y-100222338D01*
X129507976Y-100228019D01*
X129747428Y-100301880D01*
X130014271Y-100342100D01*
X130014273Y-100342100D01*
X130284127Y-100342100D01*
X130284129Y-100342100D01*
X130550972Y-100301880D01*
X130808841Y-100222338D01*
X131051975Y-100105251D01*
X131274941Y-99953235D01*
X131472761Y-99769685D01*
X131641015Y-99558702D01*
X131775943Y-99324998D01*
X131874534Y-99073795D01*
X131934583Y-98810703D01*
X131954749Y-98541600D01*
X131934583Y-98272497D01*
X131874534Y-98009405D01*
X131775943Y-97758202D01*
X131641015Y-97524498D01*
X131472761Y-97313515D01*
X131274941Y-97129965D01*
X131051975Y-96977949D01*
X131051974Y-96977948D01*
X130808841Y-96860861D01*
X130622397Y-96803351D01*
X130550972Y-96781320D01*
X130284129Y-96741100D01*
X130014271Y-96741100D01*
X129747428Y-96781320D01*
X129747424Y-96781321D01*
X129747425Y-96781321D01*
X129489558Y-96860861D01*
X129246425Y-96977949D01*
X129023458Y-97129964D01*
X128825642Y-97313512D01*
X128825639Y-97313515D01*
X128661659Y-97519139D01*
X128657383Y-97524501D01*
X128522458Y-97758199D01*
X128423865Y-98009406D01*
X128363817Y-98272494D01*
X128343651Y-98541600D01*
X107753680Y-98541600D01*
X107793709Y-98536330D01*
X107927625Y-98480861D01*
X108042621Y-98392621D01*
X108130861Y-98277625D01*
X108186330Y-98143709D01*
X108205250Y-98000000D01*
X108186330Y-97856291D01*
X108145700Y-97758199D01*
X108130862Y-97722376D01*
X108114206Y-97700670D01*
X108042621Y-97607379D01*
X107934609Y-97524498D01*
X107927623Y-97519137D01*
X107793709Y-97463669D01*
X107650000Y-97444750D01*
X107506290Y-97463669D01*
X107372376Y-97519137D01*
X107257379Y-97607379D01*
X107169137Y-97722376D01*
X107113669Y-97856290D01*
X107094750Y-98000000D01*
X83000000Y-98000000D01*
X83000000Y-96249999D01*
X100394750Y-96249999D01*
X100413669Y-96393709D01*
X100469137Y-96527623D01*
X100502448Y-96571034D01*
X100557379Y-96642621D01*
X100650670Y-96714206D01*
X100672376Y-96730862D01*
X100806290Y-96786330D01*
X100823008Y-96788531D01*
X100950000Y-96805250D01*
X101093709Y-96786330D01*
X101227625Y-96730861D01*
X101342621Y-96642621D01*
X101430861Y-96527625D01*
X101486330Y-96393709D01*
X101505250Y-96250000D01*
X101486330Y-96106291D01*
X101463014Y-96050000D01*
X101463014Y-96049999D01*
X107994750Y-96049999D01*
X108013669Y-96193709D01*
X108069137Y-96327623D01*
X108069139Y-96327625D01*
X108157379Y-96442621D01*
X108250670Y-96514206D01*
X108272376Y-96530862D01*
X108406290Y-96586330D01*
X108423008Y-96588531D01*
X108550000Y-96605250D01*
X108693709Y-96586330D01*
X108827625Y-96530861D01*
X108942621Y-96442621D01*
X108975040Y-96400371D01*
X109032375Y-96358507D01*
X109103246Y-96354285D01*
X109165149Y-96389049D01*
X109174950Y-96400359D01*
X109207379Y-96442621D01*
X109295619Y-96510331D01*
X109322376Y-96530862D01*
X109456290Y-96586330D01*
X109473008Y-96588531D01*
X109600000Y-96605250D01*
X109743709Y-96586330D01*
X109877625Y-96530861D01*
X109992621Y-96442621D01*
X110080861Y-96327625D01*
X110136330Y-96193709D01*
X110155250Y-96050000D01*
X110136330Y-95906291D01*
X110124409Y-95877510D01*
X110080862Y-95772376D01*
X110060402Y-95745713D01*
X109992621Y-95657379D01*
X109921034Y-95602448D01*
X109877623Y-95569137D01*
X109743709Y-95513669D01*
X109600000Y-95494750D01*
X109456290Y-95513669D01*
X109322376Y-95569137D01*
X109207376Y-95657381D01*
X109174961Y-95699625D01*
X109117623Y-95741492D01*
X109046752Y-95745713D01*
X108984849Y-95710948D01*
X108975039Y-95699625D01*
X108942623Y-95657381D01*
X108942621Y-95657380D01*
X108942621Y-95657379D01*
X108885122Y-95613259D01*
X108827623Y-95569137D01*
X108693709Y-95513669D01*
X108550000Y-95494750D01*
X108406290Y-95513669D01*
X108272376Y-95569137D01*
X108157379Y-95657379D01*
X108069137Y-95772376D01*
X108013669Y-95906290D01*
X107994750Y-96049999D01*
X101463014Y-96049999D01*
X101430862Y-95972376D01*
X101414206Y-95950670D01*
X101342621Y-95857379D01*
X101231844Y-95772376D01*
X101227623Y-95769137D01*
X101093709Y-95713669D01*
X100966717Y-95696951D01*
X100950000Y-95694750D01*
X100949999Y-95694750D01*
X100806290Y-95713669D01*
X100672376Y-95769137D01*
X100557379Y-95857379D01*
X100469137Y-95972376D01*
X100413669Y-96106290D01*
X100394750Y-96249999D01*
X83000000Y-96249999D01*
X83000000Y-94800000D01*
X116544750Y-94800000D01*
X116563669Y-94943709D01*
X116619137Y-95077623D01*
X116619139Y-95077625D01*
X116707379Y-95192621D01*
X116800670Y-95264206D01*
X116822376Y-95280862D01*
X116956290Y-95336330D01*
X116975209Y-95338820D01*
X117100000Y-95355250D01*
X117243709Y-95336330D01*
X117377625Y-95280861D01*
X117492621Y-95192621D01*
X117580861Y-95077625D01*
X117595783Y-95041600D01*
X126433858Y-95041600D01*
X126453175Y-95237732D01*
X126510385Y-95426325D01*
X126603289Y-95600137D01*
X126728316Y-95752483D01*
X126856132Y-95857379D01*
X126880662Y-95877510D01*
X127054473Y-95970414D01*
X127148770Y-95999018D01*
X127243067Y-96027624D01*
X127439200Y-96046941D01*
X127635332Y-96027624D01*
X127823927Y-95970414D01*
X127997738Y-95877510D01*
X128150083Y-95752483D01*
X128275110Y-95600138D01*
X128368014Y-95426327D01*
X128425224Y-95237732D01*
X128444541Y-95041600D01*
X128425224Y-94845468D01*
X128411431Y-94800000D01*
X128368014Y-94656874D01*
X128368014Y-94656873D01*
X128275110Y-94483062D01*
X128150083Y-94330716D01*
X127997737Y-94205689D01*
X127823925Y-94112785D01*
X127635332Y-94055575D01*
X127439200Y-94036258D01*
X127243067Y-94055575D01*
X127054474Y-94112785D01*
X126880662Y-94205689D01*
X126728316Y-94330716D01*
X126603289Y-94483062D01*
X126510385Y-94656874D01*
X126453175Y-94845467D01*
X126433858Y-95041600D01*
X117595783Y-95041600D01*
X117636330Y-94943709D01*
X117655250Y-94800000D01*
X117636330Y-94656291D01*
X117636330Y-94656290D01*
X117580862Y-94522376D01*
X117550695Y-94483062D01*
X117492621Y-94407379D01*
X117392714Y-94330717D01*
X117377623Y-94319137D01*
X117243709Y-94263669D01*
X117100000Y-94244750D01*
X116956290Y-94263669D01*
X116822376Y-94319137D01*
X116707379Y-94407379D01*
X116619137Y-94522376D01*
X116563669Y-94656290D01*
X116544750Y-94800000D01*
X83000000Y-94800000D01*
X83000000Y-93149999D01*
X101294750Y-93149999D01*
X101313669Y-93293709D01*
X101369137Y-93427623D01*
X101391135Y-93456291D01*
X101457379Y-93542621D01*
X101550670Y-93614206D01*
X101572376Y-93630862D01*
X101706290Y-93686330D01*
X101725210Y-93688820D01*
X101850000Y-93705250D01*
X101993709Y-93686330D01*
X102127625Y-93630861D01*
X102167844Y-93600000D01*
X104494750Y-93600000D01*
X104513669Y-93743709D01*
X104569137Y-93877623D01*
X104569139Y-93877625D01*
X104657379Y-93992621D01*
X104714248Y-94036258D01*
X104772376Y-94080862D01*
X104906290Y-94136330D01*
X104925209Y-94138820D01*
X105050000Y-94155250D01*
X105193709Y-94136330D01*
X105327625Y-94080861D01*
X105442621Y-93992621D01*
X105530861Y-93877625D01*
X105586330Y-93743709D01*
X105605250Y-93600000D01*
X105586330Y-93456291D01*
X105585899Y-93455250D01*
X105530862Y-93322376D01*
X105508029Y-93292620D01*
X105442621Y-93207379D01*
X105367842Y-93149999D01*
X105327623Y-93119137D01*
X105193709Y-93063669D01*
X105066717Y-93046951D01*
X105050000Y-93044750D01*
X105049999Y-93044750D01*
X104906290Y-93063669D01*
X104772376Y-93119137D01*
X104657379Y-93207379D01*
X104569137Y-93322376D01*
X104513669Y-93456290D01*
X104494750Y-93600000D01*
X102167844Y-93600000D01*
X102242621Y-93542621D01*
X102330861Y-93427625D01*
X102354705Y-93370061D01*
X102386330Y-93293709D01*
X102387895Y-93281820D01*
X102405250Y-93150000D01*
X102386330Y-93006291D01*
X102386330Y-93006290D01*
X102342304Y-92899999D01*
X117844750Y-92899999D01*
X117863669Y-93043709D01*
X117919137Y-93177623D01*
X117919139Y-93177625D01*
X118007379Y-93292621D01*
X118100670Y-93364206D01*
X118122376Y-93380862D01*
X118256290Y-93436330D01*
X118273008Y-93438531D01*
X118400000Y-93455250D01*
X118543709Y-93436330D01*
X118677625Y-93380861D01*
X118792621Y-93292621D01*
X118880861Y-93177625D01*
X118885335Y-93166825D01*
X118936330Y-93043709D01*
X118941256Y-93006290D01*
X118955250Y-92900000D01*
X118953828Y-92889200D01*
X121844750Y-92889200D01*
X121863669Y-93032909D01*
X121919137Y-93166823D01*
X121927426Y-93177625D01*
X122007379Y-93281821D01*
X122100670Y-93353406D01*
X122122376Y-93370062D01*
X122256290Y-93425530D01*
X122272189Y-93427623D01*
X122400000Y-93444450D01*
X122543709Y-93425530D01*
X122651551Y-93380861D01*
X122677623Y-93370062D01*
X122677623Y-93370061D01*
X122677625Y-93370061D01*
X122792621Y-93281821D01*
X122880861Y-93166825D01*
X122887831Y-93149999D01*
X122936330Y-93032909D01*
X122939834Y-93006291D01*
X122955250Y-92889200D01*
X122936330Y-92745491D01*
X122936330Y-92745490D01*
X122880862Y-92611576D01*
X122843296Y-92562620D01*
X122827167Y-92541600D01*
X126433858Y-92541600D01*
X126453175Y-92737732D01*
X126510385Y-92926325D01*
X126603289Y-93100137D01*
X126728316Y-93252483D01*
X126813480Y-93322375D01*
X126880662Y-93377510D01*
X127054473Y-93470414D01*
X127148770Y-93499019D01*
X127243067Y-93527624D01*
X127439200Y-93546941D01*
X127635332Y-93527624D01*
X127823927Y-93470414D01*
X127997738Y-93377510D01*
X128150083Y-93252483D01*
X128275110Y-93100138D01*
X128368014Y-92926327D01*
X128425224Y-92737732D01*
X128444541Y-92541600D01*
X128425224Y-92345468D01*
X128368014Y-92156873D01*
X128275110Y-91983062D01*
X128275109Y-91983062D01*
X128150083Y-91830716D01*
X127997738Y-91705689D01*
X127898642Y-91652722D01*
X127847994Y-91602970D01*
X127832284Y-91533733D01*
X127856500Y-91466994D01*
X127898642Y-91430478D01*
X127997738Y-91377510D01*
X128150083Y-91252483D01*
X128181937Y-91213669D01*
X128275110Y-91100138D01*
X128368014Y-90926327D01*
X128425224Y-90737732D01*
X128444541Y-90541600D01*
X128425224Y-90345468D01*
X128423600Y-90340116D01*
X128394896Y-90245490D01*
X128368014Y-90156873D01*
X128275110Y-89983062D01*
X128239919Y-89940182D01*
X128150083Y-89830716D01*
X127997737Y-89705689D01*
X127823925Y-89612785D01*
X127635332Y-89555575D01*
X127439200Y-89536258D01*
X127243067Y-89555575D01*
X127054474Y-89612785D01*
X126880662Y-89705689D01*
X126728316Y-89830716D01*
X126603289Y-89983062D01*
X126510385Y-90156874D01*
X126453175Y-90345467D01*
X126433858Y-90541600D01*
X126453175Y-90737732D01*
X126510385Y-90926325D01*
X126603289Y-91100137D01*
X126728316Y-91252483D01*
X126880662Y-91377510D01*
X126979757Y-91430478D01*
X127030405Y-91480230D01*
X127046115Y-91549467D01*
X127021899Y-91616206D01*
X126979757Y-91652722D01*
X126880662Y-91705689D01*
X126728316Y-91830716D01*
X126603289Y-91983062D01*
X126510385Y-92156874D01*
X126453175Y-92345467D01*
X126433858Y-92541600D01*
X122827167Y-92541600D01*
X122792621Y-92496579D01*
X122691700Y-92419139D01*
X122677623Y-92408337D01*
X122543709Y-92352869D01*
X122400000Y-92333950D01*
X122256290Y-92352869D01*
X122122376Y-92408337D01*
X122007379Y-92496579D01*
X121919137Y-92611576D01*
X121863669Y-92745490D01*
X121844750Y-92889200D01*
X118953828Y-92889200D01*
X118936330Y-92756291D01*
X118931857Y-92745491D01*
X118880862Y-92622376D01*
X118859663Y-92594750D01*
X118792621Y-92507379D01*
X118721034Y-92452448D01*
X118677623Y-92419137D01*
X118543709Y-92363669D01*
X118400000Y-92344750D01*
X118256290Y-92363669D01*
X118122376Y-92419137D01*
X118007379Y-92507379D01*
X117919137Y-92622376D01*
X117863669Y-92756290D01*
X117844750Y-92899999D01*
X102342304Y-92899999D01*
X102330862Y-92872376D01*
X102314206Y-92850670D01*
X102242621Y-92757379D01*
X102171034Y-92702448D01*
X102127623Y-92669137D01*
X101993709Y-92613669D01*
X101866717Y-92596951D01*
X101850000Y-92594750D01*
X101849999Y-92594750D01*
X101706290Y-92613669D01*
X101572376Y-92669137D01*
X101457379Y-92757379D01*
X101369137Y-92872376D01*
X101313669Y-93006290D01*
X101294750Y-93149999D01*
X83000000Y-93149999D01*
X83000000Y-92169999D01*
X92944750Y-92169999D01*
X92963669Y-92313709D01*
X93019137Y-92447623D01*
X93019139Y-92447625D01*
X93107379Y-92562621D01*
X93171177Y-92611575D01*
X93222376Y-92650862D01*
X93356290Y-92706330D01*
X93373008Y-92708531D01*
X93500000Y-92725250D01*
X93643709Y-92706330D01*
X93643708Y-92706329D01*
X93777623Y-92650862D01*
X93777623Y-92650861D01*
X93777625Y-92650861D01*
X93892621Y-92562621D01*
X93980861Y-92447625D01*
X93997135Y-92408337D01*
X94036330Y-92313709D01*
X94037444Y-92305249D01*
X94055250Y-92170000D01*
X94036330Y-92026291D01*
X94036330Y-92026290D01*
X93980862Y-91892376D01*
X93964206Y-91870670D01*
X93892621Y-91777379D01*
X93856940Y-91750000D01*
X100194750Y-91750000D01*
X100213669Y-91893709D01*
X100269137Y-92027623D01*
X100269139Y-92027625D01*
X100357379Y-92142621D01*
X100450670Y-92214206D01*
X100472376Y-92230862D01*
X100606290Y-92286330D01*
X100623008Y-92288531D01*
X100750000Y-92305250D01*
X100893709Y-92286330D01*
X101027625Y-92230861D01*
X101142621Y-92142621D01*
X101230861Y-92027625D01*
X101286330Y-91893709D01*
X101305250Y-91750000D01*
X101286330Y-91606291D01*
X101285899Y-91605250D01*
X101230862Y-91472376D01*
X101196521Y-91427623D01*
X101142621Y-91357379D01*
X101059645Y-91293709D01*
X101027623Y-91269137D01*
X100893709Y-91213669D01*
X100766717Y-91196951D01*
X100750000Y-91194750D01*
X100749999Y-91194750D01*
X100606290Y-91213669D01*
X100472376Y-91269137D01*
X100357379Y-91357379D01*
X100269137Y-91472376D01*
X100213669Y-91606290D01*
X100194750Y-91750000D01*
X93856940Y-91750000D01*
X93799195Y-91705690D01*
X93777623Y-91689137D01*
X93643709Y-91633669D01*
X93500000Y-91614750D01*
X93356290Y-91633669D01*
X93222376Y-91689137D01*
X93107379Y-91777379D01*
X93019137Y-91892376D01*
X92963669Y-92026290D01*
X92944750Y-92169999D01*
X83000000Y-92169999D01*
X83000000Y-90112500D01*
X105069750Y-90112500D01*
X105088669Y-90256209D01*
X105144137Y-90390123D01*
X105177448Y-90433534D01*
X105232379Y-90505121D01*
X105325670Y-90576706D01*
X105347376Y-90593362D01*
X105481290Y-90648830D01*
X105500210Y-90651320D01*
X105625000Y-90667750D01*
X105768709Y-90648830D01*
X105853594Y-90613670D01*
X105902623Y-90593362D01*
X105902623Y-90593361D01*
X105902625Y-90593361D01*
X106017621Y-90505121D01*
X106105861Y-90390125D01*
X106146090Y-90293000D01*
X106190638Y-90237719D01*
X106258002Y-90215297D01*
X106326793Y-90232855D01*
X106375172Y-90284816D01*
X106378909Y-90293000D01*
X106419139Y-90390125D01*
X106507379Y-90505121D01*
X106600670Y-90576706D01*
X106622376Y-90593362D01*
X106756290Y-90648830D01*
X106778078Y-90651698D01*
X106900000Y-90667750D01*
X106961217Y-90659690D01*
X107031362Y-90670629D01*
X107084461Y-90717756D01*
X107103652Y-90786110D01*
X107082841Y-90853988D01*
X107077625Y-90861314D01*
X107069139Y-90872373D01*
X107013669Y-91006290D01*
X106994750Y-91150000D01*
X107013669Y-91293709D01*
X107069137Y-91427623D01*
X107069139Y-91427625D01*
X107157379Y-91542621D01*
X107236027Y-91602970D01*
X107272376Y-91630862D01*
X107406290Y-91686330D01*
X107425209Y-91688820D01*
X107550000Y-91705250D01*
X107693709Y-91686330D01*
X107774847Y-91652722D01*
X107827623Y-91630862D01*
X107827623Y-91630861D01*
X107827625Y-91630861D01*
X107942621Y-91542621D01*
X108030861Y-91427625D01*
X108086330Y-91293709D01*
X108105250Y-91150000D01*
X108086330Y-91006291D01*
X108060715Y-90944449D01*
X108030862Y-90872376D01*
X108025185Y-90864978D01*
X107999584Y-90798758D01*
X108013848Y-90729209D01*
X108063449Y-90678412D01*
X108132638Y-90662496D01*
X108141565Y-90663348D01*
X108175000Y-90667750D01*
X108315570Y-90649243D01*
X108385718Y-90660182D01*
X108438817Y-90707310D01*
X108458007Y-90775664D01*
X108448425Y-90822382D01*
X108413669Y-90906290D01*
X108394750Y-91049999D01*
X108413669Y-91193709D01*
X108469137Y-91327623D01*
X108469139Y-91327625D01*
X108557379Y-91442621D01*
X108606392Y-91480230D01*
X108672376Y-91530862D01*
X108806290Y-91586330D01*
X108823008Y-91588531D01*
X108950000Y-91605250D01*
X109093709Y-91586330D01*
X109167957Y-91555576D01*
X109227623Y-91530862D01*
X109227623Y-91530861D01*
X109227625Y-91530861D01*
X109342621Y-91442621D01*
X109430861Y-91327625D01*
X109486330Y-91193709D01*
X109505250Y-91050000D01*
X109486330Y-90906291D01*
X109486330Y-90906290D01*
X109430862Y-90772376D01*
X109388950Y-90717756D01*
X109342621Y-90657379D01*
X109247106Y-90584087D01*
X109227623Y-90569137D01*
X109093709Y-90513669D01*
X108966717Y-90496951D01*
X108950000Y-90494750D01*
X108949999Y-90494750D01*
X108809429Y-90513256D01*
X108739280Y-90502316D01*
X108686182Y-90455188D01*
X108667656Y-90389200D01*
X121844750Y-90389200D01*
X121863669Y-90532909D01*
X121919137Y-90666823D01*
X121922058Y-90670629D01*
X122007379Y-90781821D01*
X122060239Y-90822382D01*
X122122376Y-90870062D01*
X122256290Y-90925530D01*
X122273008Y-90927731D01*
X122400000Y-90944450D01*
X122543709Y-90925530D01*
X122672036Y-90872376D01*
X122677623Y-90870062D01*
X122677623Y-90870061D01*
X122677625Y-90870061D01*
X122792621Y-90781821D01*
X122880861Y-90666825D01*
X122883817Y-90659690D01*
X122936330Y-90532909D01*
X122939988Y-90505121D01*
X122955250Y-90389200D01*
X122936330Y-90245491D01*
X122933111Y-90237719D01*
X122880862Y-90111576D01*
X122864206Y-90089870D01*
X122792621Y-89996579D01*
X122708459Y-89931999D01*
X122677623Y-89908337D01*
X122543709Y-89852869D01*
X122400000Y-89833950D01*
X122256290Y-89852869D01*
X122122376Y-89908337D01*
X122007379Y-89996579D01*
X121919137Y-90111576D01*
X121863669Y-90245490D01*
X121844750Y-90389200D01*
X108667656Y-90389200D01*
X108666992Y-90386834D01*
X108676572Y-90340121D01*
X108711330Y-90256209D01*
X108730250Y-90112500D01*
X108711330Y-89968791D01*
X108699480Y-89940182D01*
X108655862Y-89834876D01*
X108639206Y-89813170D01*
X108567621Y-89719879D01*
X108452625Y-89631639D01*
X108452620Y-89631637D01*
X108355500Y-89591409D01*
X108300219Y-89546862D01*
X108277797Y-89479498D01*
X108295355Y-89410707D01*
X108347316Y-89362328D01*
X108355500Y-89358591D01*
X108366421Y-89354067D01*
X108452625Y-89318361D01*
X108567621Y-89230121D01*
X108655861Y-89115125D01*
X108682837Y-89049999D01*
X114344750Y-89049999D01*
X114363669Y-89193709D01*
X114419137Y-89327623D01*
X114419139Y-89327625D01*
X114507379Y-89442621D01*
X114555438Y-89479498D01*
X114622376Y-89530862D01*
X114756290Y-89586330D01*
X114766484Y-89587672D01*
X114900000Y-89605250D01*
X115043709Y-89586330D01*
X115068238Y-89576170D01*
X115177623Y-89530862D01*
X115177623Y-89530861D01*
X115177625Y-89530861D01*
X115292621Y-89442621D01*
X115380861Y-89327625D01*
X115436330Y-89193709D01*
X115455250Y-89050000D01*
X115436330Y-88906291D01*
X115424409Y-88877510D01*
X115380862Y-88772376D01*
X115351953Y-88734702D01*
X115292621Y-88657379D01*
X115221034Y-88602448D01*
X115177623Y-88569137D01*
X115043709Y-88513669D01*
X114916717Y-88496951D01*
X114900000Y-88494750D01*
X114899999Y-88494750D01*
X114756290Y-88513669D01*
X114622376Y-88569137D01*
X114507379Y-88657379D01*
X114419137Y-88772376D01*
X114363669Y-88906290D01*
X114344750Y-89049999D01*
X108682837Y-89049999D01*
X108711330Y-88981209D01*
X108730250Y-88837500D01*
X108711330Y-88693791D01*
X108696248Y-88657379D01*
X108655862Y-88559876D01*
X108620406Y-88513670D01*
X108567621Y-88444879D01*
X108452625Y-88356639D01*
X108452620Y-88356637D01*
X108355500Y-88316409D01*
X108300219Y-88271862D01*
X108277797Y-88204498D01*
X108295355Y-88135707D01*
X108347316Y-88087328D01*
X108355500Y-88083591D01*
X108366421Y-88079067D01*
X108452625Y-88043361D01*
X108567621Y-87955121D01*
X108655861Y-87840125D01*
X108661040Y-87827623D01*
X108711330Y-87706209D01*
X108717825Y-87656873D01*
X108730250Y-87562500D01*
X108728604Y-87549999D01*
X114344750Y-87549999D01*
X114363669Y-87693709D01*
X114419137Y-87827623D01*
X114432830Y-87845468D01*
X114507379Y-87942621D01*
X114600670Y-88014206D01*
X114622376Y-88030862D01*
X114756290Y-88086330D01*
X114763871Y-88087328D01*
X114900000Y-88105250D01*
X115043709Y-88086330D01*
X115050322Y-88083591D01*
X115151699Y-88041600D01*
X126433858Y-88041600D01*
X126453175Y-88237732D01*
X126510385Y-88426325D01*
X126603289Y-88600137D01*
X126728316Y-88752483D01*
X126870462Y-88869139D01*
X126880662Y-88877510D01*
X127054473Y-88970414D01*
X127148770Y-88999019D01*
X127243067Y-89027624D01*
X127439200Y-89046941D01*
X127635332Y-89027624D01*
X127823927Y-88970414D01*
X127997738Y-88877510D01*
X128150083Y-88752483D01*
X128275110Y-88600138D01*
X128368014Y-88426327D01*
X128425224Y-88237732D01*
X128444541Y-88041600D01*
X128434793Y-87942621D01*
X128425224Y-87845467D01*
X128377371Y-87687719D01*
X128368014Y-87656873D01*
X128275110Y-87483062D01*
X128255939Y-87459702D01*
X128150083Y-87330716D01*
X127997737Y-87205689D01*
X127823925Y-87112785D01*
X127635332Y-87055575D01*
X127439200Y-87036258D01*
X127243067Y-87055575D01*
X127054474Y-87112785D01*
X126880662Y-87205689D01*
X126728316Y-87330716D01*
X126603289Y-87483062D01*
X126510385Y-87656874D01*
X126453175Y-87845467D01*
X126433858Y-88041600D01*
X115151699Y-88041600D01*
X115177623Y-88030862D01*
X115177623Y-88030861D01*
X115177625Y-88030861D01*
X115292621Y-87942621D01*
X115380861Y-87827625D01*
X115436330Y-87693709D01*
X115455250Y-87550000D01*
X115436330Y-87406291D01*
X115429658Y-87390182D01*
X115380862Y-87272376D01*
X115370647Y-87259065D01*
X115307447Y-87176701D01*
X115281848Y-87110485D01*
X115296112Y-87040936D01*
X115307441Y-87023306D01*
X115380861Y-86927625D01*
X115436330Y-86793709D01*
X115455250Y-86650000D01*
X115436330Y-86506291D01*
X115436330Y-86506290D01*
X115380862Y-86372376D01*
X115347064Y-86328330D01*
X115292621Y-86257379D01*
X115221034Y-86202448D01*
X115177623Y-86169137D01*
X115043709Y-86113669D01*
X114900000Y-86094750D01*
X114756290Y-86113669D01*
X114622376Y-86169137D01*
X114507379Y-86257379D01*
X114419137Y-86372376D01*
X114363669Y-86506290D01*
X114344750Y-86649999D01*
X114363669Y-86793709D01*
X114419137Y-86927623D01*
X114492550Y-87023295D01*
X114518151Y-87089516D01*
X114503887Y-87159064D01*
X114492550Y-87176705D01*
X114419137Y-87272376D01*
X114363669Y-87406290D01*
X114344750Y-87549999D01*
X108728604Y-87549999D01*
X108711330Y-87418791D01*
X108711330Y-87418790D01*
X108655862Y-87284876D01*
X108639206Y-87263170D01*
X108567621Y-87169879D01*
X108490218Y-87110485D01*
X108452623Y-87081637D01*
X108318709Y-87026169D01*
X108175000Y-87007250D01*
X108031290Y-87026169D01*
X107897376Y-87081637D01*
X107782379Y-87169879D01*
X107694137Y-87284876D01*
X107653909Y-87381999D01*
X107609361Y-87437281D01*
X107541998Y-87459702D01*
X107473207Y-87442144D01*
X107424828Y-87390182D01*
X107421091Y-87381999D01*
X107380862Y-87284876D01*
X107364206Y-87263170D01*
X107292621Y-87169879D01*
X107215218Y-87110485D01*
X107177623Y-87081637D01*
X107043709Y-87026169D01*
X106916717Y-87009451D01*
X106900000Y-87007250D01*
X106899999Y-87007250D01*
X106756290Y-87026169D01*
X106622376Y-87081637D01*
X106507379Y-87169879D01*
X106419137Y-87284876D01*
X106378909Y-87381999D01*
X106334361Y-87437281D01*
X106266998Y-87459702D01*
X106198207Y-87442144D01*
X106149828Y-87390182D01*
X106146091Y-87381999D01*
X106105862Y-87284876D01*
X106089206Y-87263170D01*
X106017621Y-87169879D01*
X105940218Y-87110485D01*
X105902623Y-87081637D01*
X105768709Y-87026169D01*
X105625000Y-87007250D01*
X105481290Y-87026169D01*
X105347376Y-87081637D01*
X105232379Y-87169879D01*
X105144137Y-87284876D01*
X105088669Y-87418790D01*
X105069750Y-87562500D01*
X105088669Y-87706209D01*
X105144137Y-87840123D01*
X105177448Y-87883534D01*
X105232379Y-87955121D01*
X105325670Y-88026706D01*
X105347376Y-88043362D01*
X105444499Y-88083591D01*
X105499781Y-88128139D01*
X105522202Y-88195502D01*
X105504644Y-88264293D01*
X105452682Y-88312672D01*
X105444499Y-88316409D01*
X105347376Y-88356637D01*
X105232379Y-88444879D01*
X105144137Y-88559876D01*
X105088669Y-88693790D01*
X105069750Y-88837500D01*
X105088669Y-88981209D01*
X105144137Y-89115123D01*
X105144139Y-89115125D01*
X105232379Y-89230121D01*
X105325670Y-89301706D01*
X105347376Y-89318362D01*
X105444499Y-89358591D01*
X105499781Y-89403139D01*
X105522202Y-89470502D01*
X105504644Y-89539293D01*
X105452682Y-89587672D01*
X105444499Y-89591409D01*
X105347376Y-89631637D01*
X105232379Y-89719879D01*
X105144137Y-89834876D01*
X105088669Y-89968790D01*
X105069750Y-90112500D01*
X83000000Y-90112500D01*
X83000000Y-89350000D01*
X98794750Y-89350000D01*
X98813669Y-89493709D01*
X98869137Y-89627623D01*
X98872218Y-89631638D01*
X98957379Y-89742621D01*
X99050670Y-89814206D01*
X99072376Y-89830862D01*
X99206290Y-89886330D01*
X99225210Y-89888820D01*
X99350000Y-89905250D01*
X99493709Y-89886330D01*
X99617932Y-89834876D01*
X99627623Y-89830862D01*
X99627623Y-89830861D01*
X99627625Y-89830861D01*
X99742621Y-89742621D01*
X99830861Y-89627625D01*
X99837008Y-89612786D01*
X99886330Y-89493709D01*
X99893056Y-89442620D01*
X99905250Y-89350000D01*
X99886330Y-89206291D01*
X99886330Y-89206290D01*
X99830862Y-89072376D01*
X99789137Y-89018000D01*
X99742621Y-88957379D01*
X99671034Y-88902448D01*
X99627623Y-88869137D01*
X99493709Y-88813669D01*
X99350000Y-88794750D01*
X99206290Y-88813669D01*
X99072376Y-88869137D01*
X98957379Y-88957379D01*
X98869137Y-89072376D01*
X98813669Y-89206290D01*
X98794750Y-89350000D01*
X83000000Y-89350000D01*
X83000000Y-85792000D01*
X94790250Y-85792000D01*
X94809169Y-85935709D01*
X94864637Y-86069623D01*
X94864639Y-86069625D01*
X94952879Y-86184621D01*
X95046170Y-86256206D01*
X95067876Y-86272862D01*
X95201790Y-86328330D01*
X95220710Y-86330820D01*
X95345500Y-86347250D01*
X95489209Y-86328330D01*
X95623125Y-86272861D01*
X95738121Y-86184621D01*
X95826361Y-86069625D01*
X95881830Y-85935709D01*
X95900750Y-85792000D01*
X95881830Y-85648291D01*
X95844720Y-85558698D01*
X95826362Y-85514376D01*
X95805896Y-85487705D01*
X95780295Y-85421485D01*
X95794559Y-85351936D01*
X95805896Y-85334295D01*
X95826361Y-85307625D01*
X95857925Y-85231423D01*
X95881830Y-85173709D01*
X95891862Y-85097509D01*
X95900750Y-85030000D01*
X95890718Y-84953799D01*
X99286050Y-84953799D01*
X99304969Y-85097509D01*
X99360437Y-85231423D01*
X99360439Y-85231425D01*
X99448679Y-85346421D01*
X99519181Y-85400519D01*
X99563676Y-85434662D01*
X99697590Y-85490130D01*
X99716510Y-85492620D01*
X99841300Y-85509050D01*
X99985009Y-85490130D01*
X100118925Y-85434661D01*
X100233921Y-85346421D01*
X100322161Y-85231425D01*
X100377630Y-85097509D01*
X100396550Y-84953800D01*
X100396550Y-84953799D01*
X102410250Y-84953799D01*
X102429169Y-85097509D01*
X102484637Y-85231423D01*
X102484639Y-85231425D01*
X102572879Y-85346421D01*
X102643381Y-85400519D01*
X102687876Y-85434662D01*
X102821790Y-85490130D01*
X102840710Y-85492620D01*
X102965500Y-85509050D01*
X103109209Y-85490130D01*
X103243125Y-85434661D01*
X103358121Y-85346421D01*
X103446361Y-85231425D01*
X103501830Y-85097509D01*
X103520750Y-84953800D01*
X103501830Y-84810091D01*
X103484802Y-84768981D01*
X103446362Y-84676176D01*
X103429706Y-84654470D01*
X103358121Y-84561179D01*
X103332604Y-84541599D01*
X128343651Y-84541599D01*
X128363817Y-84810705D01*
X128423865Y-85073793D01*
X128522458Y-85325000D01*
X128566059Y-85400519D01*
X128657385Y-85558702D01*
X128825639Y-85769685D01*
X128849689Y-85792000D01*
X129023458Y-85953235D01*
X129175474Y-86056876D01*
X129246426Y-86105251D01*
X129372470Y-86165951D01*
X129489558Y-86222338D01*
X129547068Y-86240077D01*
X129747428Y-86301880D01*
X130014271Y-86342100D01*
X130014273Y-86342100D01*
X130284127Y-86342100D01*
X130284129Y-86342100D01*
X130550972Y-86301880D01*
X130808841Y-86222338D01*
X131051975Y-86105251D01*
X131274941Y-85953235D01*
X131472761Y-85769685D01*
X131641015Y-85558702D01*
X131775943Y-85324998D01*
X131874534Y-85073795D01*
X131934583Y-84810703D01*
X131954749Y-84541600D01*
X131934583Y-84272497D01*
X131874534Y-84009405D01*
X131775943Y-83758202D01*
X131641015Y-83524498D01*
X131472761Y-83313515D01*
X131274941Y-83129965D01*
X131051975Y-82977949D01*
X131051974Y-82977949D01*
X130808841Y-82860861D01*
X130614883Y-82801034D01*
X130550972Y-82781320D01*
X130284129Y-82741100D01*
X130014271Y-82741100D01*
X129747428Y-82781320D01*
X129747424Y-82781321D01*
X129747425Y-82781321D01*
X129489558Y-82860861D01*
X129246425Y-82977949D01*
X129023458Y-83129964D01*
X128834625Y-83305177D01*
X128825639Y-83313515D01*
X128657385Y-83524498D01*
X128657383Y-83524501D01*
X128522458Y-83758199D01*
X128423865Y-84009406D01*
X128363817Y-84272494D01*
X128343651Y-84541599D01*
X103332604Y-84541599D01*
X103270141Y-84493669D01*
X103243123Y-84472937D01*
X103109209Y-84417469D01*
X102965500Y-84398550D01*
X102821790Y-84417469D01*
X102687876Y-84472937D01*
X102572879Y-84561179D01*
X102484637Y-84676176D01*
X102429169Y-84810090D01*
X102410250Y-84953799D01*
X100396550Y-84953799D01*
X100377630Y-84810091D01*
X100360602Y-84768981D01*
X100322162Y-84676176D01*
X100305506Y-84654470D01*
X100233921Y-84561179D01*
X100145941Y-84493669D01*
X100118923Y-84472937D01*
X99985009Y-84417469D01*
X99858017Y-84400751D01*
X99841300Y-84398550D01*
X99841299Y-84398550D01*
X99697590Y-84417469D01*
X99563676Y-84472937D01*
X99448679Y-84561179D01*
X99360437Y-84676176D01*
X99304969Y-84810090D01*
X99286050Y-84953799D01*
X95890718Y-84953799D01*
X95881830Y-84886291D01*
X95877711Y-84876346D01*
X95826362Y-84752376D01*
X95767890Y-84676175D01*
X95738121Y-84637379D01*
X95638816Y-84561179D01*
X95623123Y-84549137D01*
X95489209Y-84493669D01*
X95345500Y-84474750D01*
X95201790Y-84493669D01*
X95067876Y-84549137D01*
X94952879Y-84637379D01*
X94864637Y-84752376D01*
X94809169Y-84886290D01*
X94790250Y-85030000D01*
X94809169Y-85173707D01*
X94864639Y-85307626D01*
X94885105Y-85334298D01*
X94910704Y-85400519D01*
X94896438Y-85470067D01*
X94885105Y-85487702D01*
X94864639Y-85514373D01*
X94809169Y-85648292D01*
X94790250Y-85792000D01*
X83000000Y-85792000D01*
X83000000Y-83886999D01*
X84142285Y-83886999D01*
X84161103Y-84090085D01*
X84213004Y-84272494D01*
X84216918Y-84286250D01*
X84307827Y-84468821D01*
X84430736Y-84631579D01*
X84581459Y-84768981D01*
X84581461Y-84768982D01*
X84581462Y-84768983D01*
X84754859Y-84876346D01*
X84754861Y-84876346D01*
X84754863Y-84876348D01*
X84945044Y-84950024D01*
X85145524Y-84987500D01*
X85145526Y-84987500D01*
X85349474Y-84987500D01*
X85349476Y-84987500D01*
X85549956Y-84950024D01*
X85740137Y-84876348D01*
X85913541Y-84768981D01*
X85921556Y-84761674D01*
X86687000Y-84761674D01*
X86701534Y-84834740D01*
X86756899Y-84917601D01*
X86839760Y-84972966D01*
X86912826Y-84987500D01*
X86912827Y-84987500D01*
X88662173Y-84987500D01*
X88662174Y-84987500D01*
X88735240Y-84972966D01*
X88818101Y-84917601D01*
X88873466Y-84834740D01*
X88888000Y-84761674D01*
X88888000Y-83149999D01*
X95094750Y-83149999D01*
X95113669Y-83293709D01*
X95169137Y-83427623D01*
X95169139Y-83427625D01*
X95257379Y-83542621D01*
X95350670Y-83614206D01*
X95372376Y-83630862D01*
X95506290Y-83686330D01*
X95525209Y-83688820D01*
X95650000Y-83705250D01*
X95793709Y-83686330D01*
X95927625Y-83630861D01*
X96042621Y-83542621D01*
X96130861Y-83427625D01*
X96186330Y-83293709D01*
X96205250Y-83150000D01*
X96186330Y-83006291D01*
X96186330Y-83006290D01*
X96130862Y-82872376D01*
X96093723Y-82823976D01*
X96042621Y-82757379D01*
X95971034Y-82702448D01*
X95927623Y-82669137D01*
X95793709Y-82613669D01*
X95666717Y-82596951D01*
X95650000Y-82594750D01*
X95649999Y-82594750D01*
X95506290Y-82613669D01*
X95372376Y-82669137D01*
X95257379Y-82757379D01*
X95169137Y-82872376D01*
X95113669Y-83006290D01*
X95094750Y-83149999D01*
X88888000Y-83149999D01*
X88888000Y-83012326D01*
X88873466Y-82939260D01*
X88818101Y-82856399D01*
X88735240Y-82801034D01*
X88662174Y-82786500D01*
X86912826Y-82786500D01*
X86839760Y-82801034D01*
X86756899Y-82856399D01*
X86701534Y-82939260D01*
X86687000Y-83012326D01*
X86687000Y-84761674D01*
X85921556Y-84761674D01*
X86064264Y-84631579D01*
X86187173Y-84468821D01*
X86278082Y-84286250D01*
X86333897Y-84090083D01*
X86352715Y-83887000D01*
X86333897Y-83683917D01*
X86278082Y-83487750D01*
X86187173Y-83305179D01*
X86064264Y-83142421D01*
X85913541Y-83005019D01*
X85913538Y-83005017D01*
X85913537Y-83005016D01*
X85740140Y-82897653D01*
X85549956Y-82823976D01*
X85349476Y-82786500D01*
X85145524Y-82786500D01*
X85067774Y-82801034D01*
X84945043Y-82823976D01*
X84754859Y-82897653D01*
X84581462Y-83005016D01*
X84430735Y-83142422D01*
X84307828Y-83305177D01*
X84216917Y-83487752D01*
X84161103Y-83683914D01*
X84142285Y-83886999D01*
X83000000Y-83886999D01*
X83000000Y-81346999D01*
X84142285Y-81346999D01*
X84161103Y-81550085D01*
X84216917Y-81746247D01*
X84216918Y-81746250D01*
X84307827Y-81928821D01*
X84430736Y-82091579D01*
X84581459Y-82228981D01*
X84581461Y-82228982D01*
X84581462Y-82228983D01*
X84754859Y-82336346D01*
X84754861Y-82336346D01*
X84754863Y-82336348D01*
X84945044Y-82410024D01*
X85145524Y-82447500D01*
X85145526Y-82447500D01*
X85349474Y-82447500D01*
X85349476Y-82447500D01*
X85549956Y-82410024D01*
X85740137Y-82336348D01*
X85913541Y-82228981D01*
X86064264Y-82091579D01*
X86187173Y-81928821D01*
X86278082Y-81746250D01*
X86333897Y-81550083D01*
X86352715Y-81347000D01*
X86682285Y-81347000D01*
X86701103Y-81550085D01*
X86756917Y-81746247D01*
X86756918Y-81746250D01*
X86847827Y-81928821D01*
X86970736Y-82091579D01*
X87121459Y-82228981D01*
X87121461Y-82228982D01*
X87121462Y-82228983D01*
X87294859Y-82336346D01*
X87294861Y-82336346D01*
X87294863Y-82336348D01*
X87485044Y-82410024D01*
X87685524Y-82447500D01*
X87685526Y-82447500D01*
X87889474Y-82447500D01*
X87889476Y-82447500D01*
X88089956Y-82410024D01*
X88280137Y-82336348D01*
X88453541Y-82228981D01*
X88595028Y-82099999D01*
X109694750Y-82099999D01*
X109713669Y-82243709D01*
X109769137Y-82377623D01*
X109769139Y-82377625D01*
X109857379Y-82492621D01*
X109950670Y-82564206D01*
X109972376Y-82580862D01*
X110106290Y-82636330D01*
X110123008Y-82638531D01*
X110250000Y-82655250D01*
X110393709Y-82636330D01*
X110448418Y-82613669D01*
X110527623Y-82580862D01*
X110527623Y-82580861D01*
X110527625Y-82580861D01*
X110642621Y-82492621D01*
X110730861Y-82377625D01*
X110786330Y-82243709D01*
X110805250Y-82100000D01*
X110786330Y-81956291D01*
X110786330Y-81956290D01*
X110730862Y-81822376D01*
X110714206Y-81800670D01*
X110642621Y-81707379D01*
X110542903Y-81630862D01*
X110527623Y-81619137D01*
X110393709Y-81563669D01*
X110266717Y-81546951D01*
X110250000Y-81544750D01*
X110249999Y-81544750D01*
X110106290Y-81563669D01*
X109972376Y-81619137D01*
X109857379Y-81707379D01*
X109769137Y-81822376D01*
X109713669Y-81956290D01*
X109694750Y-82099999D01*
X88595028Y-82099999D01*
X88604264Y-82091579D01*
X88727173Y-81928821D01*
X88818082Y-81746250D01*
X88873897Y-81550083D01*
X88883171Y-81449999D01*
X105244750Y-81449999D01*
X105263669Y-81593709D01*
X105319137Y-81727623D01*
X105352448Y-81771034D01*
X105407379Y-81842621D01*
X105500670Y-81914206D01*
X105522376Y-81930862D01*
X105656290Y-81986330D01*
X105673008Y-81988531D01*
X105800000Y-82005250D01*
X105943709Y-81986330D01*
X106077625Y-81930861D01*
X106192621Y-81842621D01*
X106280861Y-81727625D01*
X106336330Y-81593709D01*
X106355250Y-81450000D01*
X106346465Y-81383277D01*
X106357404Y-81313132D01*
X106404531Y-81260033D01*
X106472885Y-81240842D01*
X106519604Y-81250424D01*
X106606290Y-81286330D01*
X106623008Y-81288531D01*
X106750000Y-81305250D01*
X106893709Y-81286330D01*
X106968744Y-81255250D01*
X107027623Y-81230862D01*
X107027623Y-81230861D01*
X107027625Y-81230861D01*
X107142621Y-81142621D01*
X107230861Y-81027625D01*
X107286330Y-80893709D01*
X107305250Y-80750000D01*
X107944750Y-80750000D01*
X107963669Y-80893709D01*
X108019137Y-81027623D01*
X108019139Y-81027625D01*
X108107379Y-81142621D01*
X108200670Y-81214206D01*
X108222376Y-81230862D01*
X108356290Y-81286330D01*
X108373008Y-81288531D01*
X108500000Y-81305250D01*
X108643709Y-81286330D01*
X108718744Y-81255250D01*
X108777623Y-81230862D01*
X108777623Y-81230861D01*
X108777625Y-81230861D01*
X108883005Y-81150000D01*
X110694750Y-81150000D01*
X110713669Y-81293709D01*
X110769137Y-81427623D01*
X110769139Y-81427625D01*
X110857379Y-81542621D01*
X110923958Y-81593709D01*
X110972376Y-81630862D01*
X111106290Y-81686330D01*
X111125209Y-81688820D01*
X111250000Y-81705250D01*
X111393709Y-81686330D01*
X111527625Y-81630861D01*
X111642621Y-81542621D01*
X111730861Y-81427625D01*
X111764257Y-81347000D01*
X111786330Y-81293709D01*
X111787301Y-81286330D01*
X111805250Y-81150000D01*
X111786330Y-81006291D01*
X111786329Y-81006290D01*
X111785115Y-80997064D01*
X111796054Y-80926915D01*
X111843182Y-80873816D01*
X111911536Y-80854626D01*
X111958256Y-80864209D01*
X111965790Y-80867330D01*
X111982508Y-80869531D01*
X112109500Y-80886250D01*
X112253209Y-80867330D01*
X112328051Y-80836330D01*
X112387123Y-80811862D01*
X112387123Y-80811861D01*
X112387125Y-80811861D01*
X112502121Y-80723621D01*
X112590361Y-80608625D01*
X112596991Y-80592620D01*
X112645830Y-80474709D01*
X112652720Y-80422375D01*
X112664750Y-80331000D01*
X112660669Y-80300000D01*
X113394750Y-80300000D01*
X113413669Y-80443709D01*
X113469137Y-80577623D01*
X113491135Y-80606291D01*
X113557379Y-80692621D01*
X113638997Y-80755249D01*
X113672376Y-80780862D01*
X113806290Y-80836330D01*
X113825210Y-80838820D01*
X113950000Y-80855250D01*
X114093709Y-80836330D01*
X114227623Y-80780862D01*
X114227623Y-80780861D01*
X114227625Y-80780861D01*
X114333005Y-80700000D01*
X116194750Y-80700000D01*
X116213669Y-80843709D01*
X116269137Y-80977623D01*
X116291135Y-81006291D01*
X116357379Y-81092621D01*
X116450670Y-81164206D01*
X116472376Y-81180862D01*
X116606290Y-81236330D01*
X116623008Y-81238531D01*
X116750000Y-81255250D01*
X116893709Y-81236330D01*
X117027625Y-81180861D01*
X117142621Y-81092621D01*
X117230861Y-80977625D01*
X117243236Y-80947750D01*
X117286330Y-80843709D01*
X117294604Y-80780861D01*
X117305250Y-80700000D01*
X117286330Y-80556291D01*
X117286330Y-80556290D01*
X117230862Y-80422376D01*
X117208575Y-80393332D01*
X117142621Y-80307379D01*
X117063282Y-80246500D01*
X117027623Y-80219137D01*
X116893709Y-80163669D01*
X116750000Y-80144750D01*
X116606290Y-80163669D01*
X116472376Y-80219137D01*
X116357379Y-80307379D01*
X116269137Y-80422376D01*
X116213669Y-80556290D01*
X116194750Y-80700000D01*
X114333005Y-80700000D01*
X114342621Y-80692621D01*
X114430861Y-80577625D01*
X114440612Y-80554085D01*
X114486330Y-80443709D01*
X114486329Y-80443708D01*
X114505250Y-80300000D01*
X114488531Y-80173008D01*
X114486330Y-80156290D01*
X114430862Y-80022376D01*
X114366408Y-79938379D01*
X114342621Y-79907379D01*
X114242903Y-79830862D01*
X114227623Y-79819137D01*
X114093709Y-79763669D01*
X113950000Y-79744750D01*
X113806290Y-79763669D01*
X113672376Y-79819137D01*
X113557379Y-79907379D01*
X113469137Y-80022376D01*
X113413669Y-80156290D01*
X113394750Y-80300000D01*
X112660669Y-80300000D01*
X112645830Y-80187291D01*
X112632990Y-80156291D01*
X112590362Y-80053376D01*
X112573706Y-80031670D01*
X112502121Y-79938379D01*
X112430534Y-79883448D01*
X112387123Y-79850137D01*
X112253209Y-79794669D01*
X112126217Y-79777951D01*
X112109500Y-79775750D01*
X112109499Y-79775750D01*
X111965790Y-79794669D01*
X111831876Y-79850137D01*
X111716879Y-79938379D01*
X111628637Y-80053376D01*
X111573169Y-80187290D01*
X111554250Y-80331000D01*
X111574384Y-80483936D01*
X111563444Y-80554085D01*
X111516316Y-80607183D01*
X111447962Y-80626373D01*
X111401245Y-80616791D01*
X111393709Y-80613669D01*
X111250000Y-80594750D01*
X111106290Y-80613669D01*
X110972376Y-80669137D01*
X110857379Y-80757379D01*
X110769137Y-80872376D01*
X110713669Y-81006290D01*
X110694750Y-81150000D01*
X108883005Y-81150000D01*
X108892621Y-81142621D01*
X108980861Y-81027625D01*
X109036330Y-80893709D01*
X109055250Y-80750000D01*
X109037712Y-80616791D01*
X109036330Y-80606290D01*
X108980862Y-80472376D01*
X108937414Y-80415754D01*
X108892621Y-80357379D01*
X108796961Y-80283976D01*
X108777623Y-80269137D01*
X108643709Y-80213669D01*
X108516717Y-80196951D01*
X108500000Y-80194750D01*
X108499999Y-80194750D01*
X108356290Y-80213669D01*
X108222376Y-80269137D01*
X108107379Y-80357379D01*
X108019137Y-80472376D01*
X107963669Y-80606290D01*
X107944750Y-80750000D01*
X107305250Y-80750000D01*
X107287712Y-80616791D01*
X107286330Y-80606290D01*
X107230862Y-80472376D01*
X107187414Y-80415754D01*
X107142621Y-80357379D01*
X107046961Y-80283976D01*
X107027623Y-80269137D01*
X106893709Y-80213669D01*
X106766717Y-80196951D01*
X106750000Y-80194750D01*
X106749999Y-80194750D01*
X106606290Y-80213669D01*
X106472376Y-80269137D01*
X106357379Y-80357379D01*
X106269137Y-80472376D01*
X106213669Y-80606290D01*
X106194750Y-80750000D01*
X106203534Y-80816720D01*
X106192595Y-80886868D01*
X106145467Y-80939967D01*
X106077113Y-80959157D01*
X106030395Y-80949575D01*
X105943709Y-80913669D01*
X105800000Y-80894750D01*
X105656290Y-80913669D01*
X105522376Y-80969137D01*
X105407379Y-81057379D01*
X105319137Y-81172376D01*
X105263669Y-81306290D01*
X105244750Y-81449999D01*
X88883171Y-81449999D01*
X88892715Y-81347000D01*
X88873897Y-81143917D01*
X88818082Y-80947750D01*
X88727173Y-80765179D01*
X88604264Y-80602421D01*
X88453541Y-80465019D01*
X88453538Y-80465017D01*
X88453537Y-80465016D01*
X88280140Y-80357653D01*
X88089956Y-80283976D01*
X88089955Y-80283976D01*
X87889476Y-80246500D01*
X87685524Y-80246500D01*
X87551870Y-80271484D01*
X87485043Y-80283976D01*
X87294859Y-80357653D01*
X87121462Y-80465016D01*
X86970735Y-80602422D01*
X86847828Y-80765177D01*
X86756917Y-80947752D01*
X86701103Y-81143914D01*
X86682285Y-81347000D01*
X86352715Y-81347000D01*
X86333897Y-81143917D01*
X86278082Y-80947750D01*
X86187173Y-80765179D01*
X86064264Y-80602421D01*
X85913541Y-80465019D01*
X85913538Y-80465017D01*
X85913537Y-80465016D01*
X85740140Y-80357653D01*
X85549956Y-80283976D01*
X85349476Y-80246500D01*
X85145524Y-80246500D01*
X85011870Y-80271484D01*
X84945043Y-80283976D01*
X84754859Y-80357653D01*
X84581462Y-80465016D01*
X84430735Y-80602422D01*
X84307828Y-80765177D01*
X84216917Y-80947752D01*
X84161103Y-81143914D01*
X84142285Y-81346999D01*
X83000000Y-81346999D01*
X83000000Y-80200000D01*
X100544750Y-80200000D01*
X100563669Y-80343709D01*
X100619137Y-80477623D01*
X100652448Y-80521034D01*
X100707379Y-80592621D01*
X100800670Y-80664206D01*
X100822376Y-80680862D01*
X100956290Y-80736330D01*
X100973008Y-80738531D01*
X101100000Y-80755250D01*
X101243709Y-80736330D01*
X101331421Y-80699999D01*
X101377623Y-80680862D01*
X101377623Y-80680861D01*
X101377625Y-80680861D01*
X101492621Y-80592621D01*
X101580861Y-80477625D01*
X101583590Y-80471035D01*
X101628138Y-80415754D01*
X101695501Y-80393332D01*
X101764293Y-80410889D01*
X101812672Y-80462851D01*
X101816409Y-80471035D01*
X101819138Y-80477624D01*
X101839668Y-80504380D01*
X101907379Y-80592621D01*
X102000670Y-80664206D01*
X102022376Y-80680862D01*
X102156290Y-80736330D01*
X102175209Y-80738820D01*
X102300000Y-80755250D01*
X102443709Y-80736330D01*
X102531421Y-80699999D01*
X102577623Y-80680862D01*
X102577623Y-80680861D01*
X102577625Y-80680861D01*
X102692621Y-80592621D01*
X102780861Y-80477625D01*
X102786083Y-80465019D01*
X102836330Y-80343709D01*
X102841113Y-80307379D01*
X102855250Y-80200000D01*
X102836330Y-80056291D01*
X102835123Y-80053376D01*
X102780862Y-79922376D01*
X102764206Y-79900670D01*
X102692621Y-79807379D01*
X102592903Y-79730862D01*
X102577623Y-79719137D01*
X102443709Y-79663669D01*
X102300000Y-79644750D01*
X102156290Y-79663669D01*
X102022376Y-79719137D01*
X101907379Y-79807379D01*
X101819139Y-79922374D01*
X101816409Y-79928966D01*
X101771860Y-79984246D01*
X101704497Y-80006667D01*
X101635706Y-79989109D01*
X101587327Y-79937146D01*
X101583591Y-79928966D01*
X101580861Y-79922376D01*
X101580861Y-79922375D01*
X101492621Y-79807379D01*
X101392903Y-79730862D01*
X101377623Y-79719137D01*
X101243709Y-79663669D01*
X101116717Y-79646951D01*
X101100000Y-79644750D01*
X101099999Y-79644750D01*
X100956290Y-79663669D01*
X100822376Y-79719137D01*
X100707379Y-79807379D01*
X100619137Y-79922376D01*
X100563669Y-80056290D01*
X100544750Y-80200000D01*
X83000000Y-80200000D01*
X83000000Y-78806999D01*
X84142285Y-78806999D01*
X84161103Y-79010085D01*
X84188477Y-79106291D01*
X84216918Y-79206250D01*
X84307827Y-79388821D01*
X84430736Y-79551579D01*
X84581459Y-79688981D01*
X84581461Y-79688982D01*
X84581462Y-79688983D01*
X84754859Y-79796346D01*
X84754861Y-79796346D01*
X84754863Y-79796348D01*
X84945044Y-79870024D01*
X85145524Y-79907500D01*
X85145526Y-79907500D01*
X85349474Y-79907500D01*
X85349476Y-79907500D01*
X85549956Y-79870024D01*
X85740137Y-79796348D01*
X85913541Y-79688981D01*
X86064264Y-79551579D01*
X86187173Y-79388821D01*
X86278082Y-79206250D01*
X86333897Y-79010083D01*
X86352715Y-78807000D01*
X86682285Y-78807000D01*
X86701103Y-79010085D01*
X86728477Y-79106291D01*
X86756918Y-79206250D01*
X86847827Y-79388821D01*
X86970736Y-79551579D01*
X87121459Y-79688981D01*
X87121461Y-79688982D01*
X87121462Y-79688983D01*
X87294859Y-79796346D01*
X87294861Y-79796346D01*
X87294863Y-79796348D01*
X87485044Y-79870024D01*
X87685524Y-79907500D01*
X87685526Y-79907500D01*
X87889474Y-79907500D01*
X87889476Y-79907500D01*
X88089956Y-79870024D01*
X88280137Y-79796348D01*
X88453541Y-79688981D01*
X88604264Y-79551579D01*
X88727173Y-79388821D01*
X88746503Y-79350000D01*
X105844750Y-79350000D01*
X105863669Y-79493709D01*
X105919137Y-79627623D01*
X105946797Y-79663669D01*
X106007379Y-79742621D01*
X106077397Y-79796348D01*
X106122376Y-79830862D01*
X106256290Y-79886330D01*
X106273008Y-79888531D01*
X106400000Y-79905250D01*
X106543709Y-79886330D01*
X106677625Y-79830861D01*
X106792621Y-79742621D01*
X106880861Y-79627625D01*
X106936330Y-79493709D01*
X106955250Y-79350000D01*
X106942085Y-79250000D01*
X122644750Y-79250000D01*
X122663669Y-79393709D01*
X122719137Y-79527623D01*
X122752448Y-79571034D01*
X122807379Y-79642621D01*
X122867799Y-79688983D01*
X122922376Y-79730862D01*
X123056290Y-79786330D01*
X123073008Y-79788531D01*
X123200000Y-79805250D01*
X123343709Y-79786330D01*
X123398418Y-79763669D01*
X123477623Y-79730862D01*
X123477623Y-79730861D01*
X123477625Y-79730861D01*
X123592621Y-79642621D01*
X123680861Y-79527625D01*
X123736330Y-79393709D01*
X123755250Y-79250000D01*
X123736330Y-79106291D01*
X123736330Y-79106290D01*
X123680862Y-78972376D01*
X123664206Y-78950670D01*
X123592621Y-78857379D01*
X123511002Y-78794750D01*
X123477623Y-78769137D01*
X123343709Y-78713669D01*
X123216717Y-78696951D01*
X123200000Y-78694750D01*
X123199999Y-78694750D01*
X123056290Y-78713669D01*
X122922376Y-78769137D01*
X122807379Y-78857379D01*
X122719137Y-78972376D01*
X122663669Y-79106290D01*
X122644750Y-79250000D01*
X106942085Y-79250000D01*
X106936330Y-79206291D01*
X106936312Y-79206247D01*
X106880862Y-79072376D01*
X106833062Y-79010083D01*
X106792621Y-78957379D01*
X106721034Y-78902448D01*
X106677623Y-78869137D01*
X106543709Y-78813669D01*
X106400000Y-78794750D01*
X106256290Y-78813669D01*
X106122376Y-78869137D01*
X106007379Y-78957379D01*
X105919137Y-79072376D01*
X105863669Y-79206290D01*
X105844750Y-79350000D01*
X88746503Y-79350000D01*
X88818082Y-79206250D01*
X88873897Y-79010083D01*
X88892715Y-78807000D01*
X88873897Y-78603917D01*
X88818082Y-78407750D01*
X88727173Y-78225179D01*
X88604264Y-78062421D01*
X88453541Y-77925019D01*
X88453538Y-77925017D01*
X88453537Y-77925016D01*
X88280140Y-77817653D01*
X88089956Y-77743976D01*
X88089955Y-77743976D01*
X87889476Y-77706500D01*
X87685524Y-77706500D01*
X87551870Y-77731484D01*
X87485043Y-77743976D01*
X87294859Y-77817653D01*
X87121462Y-77925016D01*
X86970735Y-78062422D01*
X86847828Y-78225177D01*
X86756917Y-78407752D01*
X86701103Y-78603914D01*
X86682285Y-78807000D01*
X86352715Y-78807000D01*
X86333897Y-78603917D01*
X86278082Y-78407750D01*
X86187173Y-78225179D01*
X86064264Y-78062421D01*
X85913541Y-77925019D01*
X85913538Y-77925017D01*
X85913537Y-77925016D01*
X85740140Y-77817653D01*
X85549956Y-77743976D01*
X85349476Y-77706500D01*
X85145524Y-77706500D01*
X85011870Y-77731484D01*
X84945043Y-77743976D01*
X84754859Y-77817653D01*
X84581462Y-77925016D01*
X84430735Y-78062422D01*
X84307828Y-78225177D01*
X84216917Y-78407752D01*
X84161103Y-78603914D01*
X84142285Y-78806999D01*
X83000000Y-78806999D01*
X83000000Y-76267000D01*
X84142285Y-76267000D01*
X84161103Y-76470085D01*
X84203613Y-76619489D01*
X84216918Y-76666250D01*
X84307827Y-76848821D01*
X84430736Y-77011579D01*
X84581459Y-77148981D01*
X84581461Y-77148982D01*
X84581462Y-77148983D01*
X84754859Y-77256346D01*
X84754861Y-77256346D01*
X84754863Y-77256348D01*
X84945044Y-77330024D01*
X85145524Y-77367500D01*
X85145526Y-77367500D01*
X85349474Y-77367500D01*
X85349476Y-77367500D01*
X85549956Y-77330024D01*
X85740137Y-77256348D01*
X85913541Y-77148981D01*
X86064264Y-77011579D01*
X86187173Y-76848821D01*
X86278082Y-76666250D01*
X86333897Y-76470083D01*
X86352715Y-76267000D01*
X86682285Y-76267000D01*
X86688557Y-76334694D01*
X86701103Y-76470085D01*
X86743613Y-76619489D01*
X86756918Y-76666250D01*
X86847827Y-76848821D01*
X86970736Y-77011579D01*
X87121459Y-77148981D01*
X87121461Y-77148982D01*
X87121462Y-77148983D01*
X87294859Y-77256346D01*
X87294861Y-77256346D01*
X87294863Y-77256348D01*
X87485044Y-77330024D01*
X87685524Y-77367500D01*
X87685526Y-77367500D01*
X87889474Y-77367500D01*
X87889476Y-77367500D01*
X88089956Y-77330024D01*
X88280137Y-77256348D01*
X88453541Y-77148981D01*
X88604264Y-77011579D01*
X88727173Y-76848821D01*
X88814325Y-76673795D01*
X105509419Y-76673795D01*
X105509843Y-76677423D01*
X105509844Y-76677439D01*
X105524677Y-76804338D01*
X105524677Y-76804340D01*
X105524678Y-76804341D01*
X105584682Y-76969203D01*
X105584683Y-76969204D01*
X105584684Y-76969207D01*
X105681088Y-77115782D01*
X105758479Y-77188796D01*
X105808701Y-77236178D01*
X105843637Y-77256348D01*
X105960635Y-77323897D01*
X105960637Y-77323897D01*
X105960638Y-77323898D01*
X106128709Y-77374216D01*
X106303854Y-77384417D01*
X106476630Y-77353951D01*
X106637723Y-77284463D01*
X106778449Y-77179696D01*
X106891221Y-77045300D01*
X106969959Y-76888519D01*
X107010419Y-76717807D01*
X107010419Y-76011177D01*
X107030421Y-75943056D01*
X107084077Y-75896563D01*
X107154351Y-75886459D01*
X107218931Y-75915953D01*
X107236381Y-75934473D01*
X107279495Y-75990660D01*
X107399710Y-76082905D01*
X107399711Y-76082905D01*
X107399712Y-76082906D01*
X107539708Y-76140894D01*
X107652222Y-76155707D01*
X107656344Y-76155707D01*
X107723540Y-76155707D01*
X107727662Y-76155707D01*
X107840176Y-76140894D01*
X107980172Y-76082906D01*
X108100389Y-75990660D01*
X108192635Y-75870443D01*
X108250623Y-75730447D01*
X108270402Y-75580213D01*
X112899423Y-75580213D01*
X112919201Y-75730446D01*
X112977190Y-75870444D01*
X113069435Y-75990660D01*
X113189651Y-76082905D01*
X113189652Y-76082905D01*
X113189653Y-76082906D01*
X113329649Y-76140894D01*
X113442163Y-76155707D01*
X113446285Y-76155707D01*
X113513481Y-76155707D01*
X113517603Y-76155707D01*
X113630117Y-76140894D01*
X113770113Y-76082906D01*
X113890330Y-75990660D01*
X113923537Y-75947383D01*
X113980876Y-75905516D01*
X114051747Y-75901294D01*
X114113650Y-75936058D01*
X114146931Y-75998771D01*
X114149500Y-76024086D01*
X114149500Y-76673795D01*
X114149924Y-76677423D01*
X114149925Y-76677439D01*
X114164758Y-76804338D01*
X114164758Y-76804340D01*
X114164759Y-76804341D01*
X114224763Y-76969203D01*
X114224764Y-76969204D01*
X114224765Y-76969207D01*
X114321169Y-77115782D01*
X114398560Y-77188796D01*
X114448782Y-77236178D01*
X114600719Y-77323898D01*
X114604618Y-77325065D01*
X114605602Y-77325360D01*
X114665125Y-77364059D01*
X114694276Y-77428794D01*
X114683802Y-77499014D01*
X114679949Y-77505382D01*
X114621169Y-77647290D01*
X114602250Y-77790999D01*
X114621169Y-77934709D01*
X114676637Y-78068623D01*
X114676639Y-78068625D01*
X114764879Y-78183621D01*
X114858170Y-78255206D01*
X114879876Y-78271862D01*
X115013790Y-78327330D01*
X115032710Y-78329820D01*
X115157500Y-78346250D01*
X115241921Y-78335135D01*
X115312068Y-78346074D01*
X115365167Y-78393202D01*
X115381620Y-78438969D01*
X115438638Y-78576624D01*
X115438639Y-78576625D01*
X115526879Y-78691621D01*
X115620170Y-78763206D01*
X115641876Y-78779862D01*
X115775790Y-78835330D01*
X115792508Y-78837531D01*
X115919500Y-78854250D01*
X116063209Y-78835330D01*
X116131607Y-78806999D01*
X116197123Y-78779862D01*
X116197123Y-78779861D01*
X116197125Y-78779861D01*
X116312121Y-78691621D01*
X116400361Y-78576625D01*
X116455830Y-78442709D01*
X116455829Y-78442709D01*
X116462178Y-78427384D01*
X116462779Y-78427633D01*
X116484431Y-78378686D01*
X116543695Y-78339593D01*
X116597076Y-78335135D01*
X116681500Y-78346250D01*
X116825209Y-78327330D01*
X116959125Y-78271861D01*
X117074121Y-78183621D01*
X117162361Y-78068625D01*
X117217830Y-77934709D01*
X117236750Y-77791000D01*
X117217830Y-77647291D01*
X117217830Y-77647290D01*
X117162362Y-77513376D01*
X117097459Y-77428794D01*
X117074121Y-77398379D01*
X117002534Y-77343448D01*
X116959123Y-77310137D01*
X116825209Y-77254669D01*
X116698217Y-77237951D01*
X116681500Y-77235750D01*
X116681499Y-77235750D01*
X116597079Y-77246864D01*
X116526930Y-77235924D01*
X116473832Y-77188796D01*
X116457389Y-77143055D01*
X116400362Y-77005376D01*
X116372605Y-76969203D01*
X116312121Y-76890379D01*
X116240534Y-76835448D01*
X116197123Y-76802137D01*
X116063209Y-76746669D01*
X115936217Y-76729951D01*
X115919500Y-76727750D01*
X115919499Y-76727750D01*
X115792946Y-76744411D01*
X115722797Y-76733472D01*
X115669699Y-76686343D01*
X115650500Y-76619489D01*
X115650500Y-75490046D01*
X115650500Y-75490045D01*
X115650500Y-75486377D01*
X115635241Y-75355831D01*
X115575237Y-75190969D01*
X115575234Y-75190964D01*
X115478830Y-75044389D01*
X115351218Y-74923994D01*
X115199283Y-74836274D01*
X115087233Y-74802728D01*
X115031210Y-74785956D01*
X114856065Y-74775755D01*
X114683289Y-74806221D01*
X114522193Y-74875710D01*
X114381471Y-74980474D01*
X114268698Y-75114871D01*
X114192562Y-75266472D01*
X114144114Y-75318370D01*
X114075300Y-75335837D01*
X114007966Y-75313327D01*
X113980002Y-75286628D01*
X113916580Y-75203976D01*
X113890330Y-75169766D01*
X113890328Y-75169765D01*
X113890328Y-75169764D01*
X113770114Y-75077520D01*
X113630116Y-75019531D01*
X113521691Y-75005257D01*
X113521687Y-75005256D01*
X113517603Y-75004719D01*
X113442163Y-75004719D01*
X113438079Y-75005256D01*
X113438074Y-75005257D01*
X113329649Y-75019531D01*
X113189651Y-75077520D01*
X113069435Y-75169765D01*
X112977190Y-75289981D01*
X112919201Y-75429979D01*
X112899423Y-75580213D01*
X108270402Y-75580213D01*
X108250623Y-75429979D01*
X108192635Y-75289983D01*
X108192634Y-75289982D01*
X108192634Y-75289981D01*
X108100389Y-75169765D01*
X107980173Y-75077520D01*
X107840175Y-75019531D01*
X107731750Y-75005257D01*
X107731746Y-75005256D01*
X107727662Y-75004719D01*
X107652222Y-75004719D01*
X107648138Y-75005256D01*
X107648133Y-75005257D01*
X107539708Y-75019531D01*
X107399710Y-75077520D01*
X107279496Y-75169764D01*
X107180516Y-75298756D01*
X107123177Y-75340623D01*
X107052306Y-75344844D01*
X106990404Y-75310079D01*
X106962154Y-75265148D01*
X106935156Y-75190969D01*
X106935154Y-75190967D01*
X106935154Y-75190965D01*
X106838749Y-75044389D01*
X106711137Y-74923994D01*
X106559202Y-74836274D01*
X106447152Y-74802728D01*
X106391129Y-74785956D01*
X106215984Y-74775755D01*
X106043208Y-74806221D01*
X105882112Y-74875710D01*
X105741390Y-74980474D01*
X105628617Y-75114871D01*
X105563390Y-75244750D01*
X105549879Y-75271653D01*
X105509419Y-75442365D01*
X105509419Y-76673795D01*
X88814325Y-76673795D01*
X88818082Y-76666250D01*
X88873897Y-76470083D01*
X88892715Y-76267000D01*
X88873897Y-76063917D01*
X88818082Y-75867750D01*
X88784347Y-75800000D01*
X91394750Y-75800000D01*
X91413669Y-75943709D01*
X91469137Y-76077623D01*
X91473191Y-76082906D01*
X91557379Y-76192621D01*
X91650670Y-76264206D01*
X91672376Y-76280862D01*
X91806290Y-76336330D01*
X91823008Y-76338531D01*
X91950000Y-76355250D01*
X92093709Y-76336330D01*
X92227625Y-76280861D01*
X92342621Y-76192621D01*
X92430861Y-76077625D01*
X92486330Y-75943709D01*
X92505250Y-75800000D01*
X92486330Y-75656291D01*
X92457084Y-75585683D01*
X92430862Y-75522376D01*
X92406054Y-75490046D01*
X92342621Y-75407379D01*
X92261124Y-75344844D01*
X92227623Y-75319137D01*
X92093709Y-75263669D01*
X91966717Y-75246951D01*
X91950000Y-75244750D01*
X91949999Y-75244750D01*
X91806290Y-75263669D01*
X91672376Y-75319137D01*
X91557379Y-75407379D01*
X91469137Y-75522376D01*
X91413669Y-75656290D01*
X91394750Y-75800000D01*
X88784347Y-75800000D01*
X88727173Y-75685179D01*
X88604264Y-75522421D01*
X88453541Y-75385019D01*
X88453538Y-75385017D01*
X88453537Y-75385016D01*
X88280140Y-75277653D01*
X88089956Y-75203976D01*
X88020374Y-75190969D01*
X87889476Y-75166500D01*
X87685524Y-75166500D01*
X87554652Y-75190964D01*
X87485043Y-75203976D01*
X87294859Y-75277653D01*
X87121462Y-75385016D01*
X87121458Y-75385019D01*
X87121459Y-75385019D01*
X86970787Y-75522375D01*
X86970735Y-75522422D01*
X86847828Y-75685177D01*
X86756917Y-75867752D01*
X86701103Y-76063914D01*
X86689177Y-76192620D01*
X86682285Y-76267000D01*
X86352715Y-76267000D01*
X86333897Y-76063917D01*
X86278082Y-75867750D01*
X86187173Y-75685179D01*
X86064264Y-75522421D01*
X85913541Y-75385019D01*
X85913538Y-75385017D01*
X85913537Y-75385016D01*
X85740140Y-75277653D01*
X85549956Y-75203976D01*
X85480374Y-75190969D01*
X85349476Y-75166500D01*
X85145524Y-75166500D01*
X85014652Y-75190964D01*
X84945043Y-75203976D01*
X84754859Y-75277653D01*
X84581462Y-75385016D01*
X84581458Y-75385019D01*
X84581459Y-75385019D01*
X84430787Y-75522375D01*
X84430735Y-75522422D01*
X84307828Y-75685177D01*
X84216917Y-75867752D01*
X84161103Y-76063914D01*
X84142285Y-76267000D01*
X83000000Y-76267000D01*
X83000000Y-73727000D01*
X84142285Y-73727000D01*
X84161103Y-73930085D01*
X84180996Y-74000000D01*
X84216918Y-74126250D01*
X84307827Y-74308821D01*
X84430736Y-74471579D01*
X84581459Y-74608981D01*
X84581461Y-74608982D01*
X84581462Y-74608983D01*
X84754859Y-74716346D01*
X84754861Y-74716346D01*
X84754863Y-74716348D01*
X84945044Y-74790024D01*
X85145524Y-74827500D01*
X85145526Y-74827500D01*
X85349474Y-74827500D01*
X85349476Y-74827500D01*
X85549956Y-74790024D01*
X85740137Y-74716348D01*
X85913541Y-74608981D01*
X86064264Y-74471579D01*
X86187173Y-74308821D01*
X86278082Y-74126250D01*
X86333897Y-73930083D01*
X86352715Y-73727000D01*
X86682285Y-73727000D01*
X86701103Y-73930085D01*
X86720996Y-74000000D01*
X86756918Y-74126250D01*
X86847827Y-74308821D01*
X86970736Y-74471579D01*
X87121459Y-74608981D01*
X87121461Y-74608982D01*
X87121462Y-74608983D01*
X87294859Y-74716346D01*
X87294861Y-74716346D01*
X87294863Y-74716348D01*
X87485044Y-74790024D01*
X87685524Y-74827500D01*
X87685526Y-74827500D01*
X87889474Y-74827500D01*
X87889476Y-74827500D01*
X88089956Y-74790024D01*
X88280137Y-74716348D01*
X88453541Y-74608981D01*
X88604264Y-74471579D01*
X88727173Y-74308821D01*
X88818082Y-74126250D01*
X88854004Y-74000000D01*
X93394551Y-74000000D01*
X93414317Y-74251148D01*
X93473127Y-74496111D01*
X93569535Y-74728862D01*
X93701163Y-74943658D01*
X93864775Y-75135224D01*
X94056341Y-75298836D01*
X94271137Y-75430464D01*
X94271139Y-75430464D01*
X94271141Y-75430466D01*
X94503889Y-75526873D01*
X94748852Y-75585683D01*
X94937118Y-75600500D01*
X94939587Y-75600500D01*
X95060413Y-75600500D01*
X95062882Y-75600500D01*
X95251148Y-75585683D01*
X95496111Y-75526873D01*
X95728859Y-75430466D01*
X95943659Y-75298836D01*
X96135224Y-75135224D01*
X96298836Y-74943659D01*
X96430466Y-74728859D01*
X96526873Y-74496111D01*
X96585683Y-74251148D01*
X96605449Y-74000000D01*
X96597203Y-73895222D01*
X120642000Y-73895222D01*
X120642359Y-73901936D01*
X120648505Y-73959093D01*
X120699554Y-74095962D01*
X120787095Y-74212904D01*
X120904037Y-74300445D01*
X121040906Y-74351494D01*
X121098063Y-74357640D01*
X121104777Y-74358000D01*
X121746000Y-74358000D01*
X121746000Y-73433674D01*
X121857685Y-73484680D01*
X121964237Y-73500000D01*
X122035763Y-73500000D01*
X122142315Y-73484680D01*
X122254000Y-73433674D01*
X122254000Y-74358000D01*
X122895223Y-74358000D01*
X122901936Y-74357640D01*
X122959093Y-74351494D01*
X123095962Y-74300445D01*
X123212904Y-74212904D01*
X123300445Y-74095962D01*
X123351494Y-73959093D01*
X123357640Y-73901936D01*
X123358000Y-73895222D01*
X123358000Y-73630880D01*
X123378002Y-73562759D01*
X123431658Y-73516266D01*
X123501932Y-73506162D01*
X123566512Y-73535656D01*
X123596790Y-73574717D01*
X123600327Y-73581821D01*
X123723236Y-73744579D01*
X123873959Y-73881981D01*
X123873961Y-73881982D01*
X123873962Y-73881983D01*
X124047359Y-73989346D01*
X124047361Y-73989346D01*
X124047363Y-73989348D01*
X124237544Y-74063024D01*
X124438024Y-74100500D01*
X124438026Y-74100500D01*
X124641974Y-74100500D01*
X124641976Y-74100500D01*
X124842456Y-74063024D01*
X125032637Y-73989348D01*
X125206041Y-73881981D01*
X125356764Y-73744579D01*
X125479673Y-73581821D01*
X125570582Y-73399250D01*
X125626397Y-73203083D01*
X125645215Y-73000000D01*
X125645215Y-72999999D01*
X125974785Y-72999999D01*
X125993603Y-73203085D01*
X126006952Y-73250000D01*
X126049418Y-73399250D01*
X126140327Y-73581821D01*
X126263236Y-73744579D01*
X126413959Y-73881981D01*
X126413961Y-73881982D01*
X126413962Y-73881983D01*
X126587359Y-73989346D01*
X126587361Y-73989346D01*
X126587363Y-73989348D01*
X126777544Y-74063024D01*
X126978024Y-74100500D01*
X126978026Y-74100500D01*
X127181974Y-74100500D01*
X127181976Y-74100500D01*
X127382456Y-74063024D01*
X127572637Y-73989348D01*
X127746041Y-73881981D01*
X127896764Y-73744579D01*
X128019673Y-73581821D01*
X128110582Y-73399250D01*
X128166397Y-73203083D01*
X128185215Y-73000000D01*
X128185215Y-72999999D01*
X128514785Y-72999999D01*
X128533603Y-73203085D01*
X128546952Y-73250000D01*
X128589418Y-73399250D01*
X128680327Y-73581821D01*
X128803236Y-73744579D01*
X128953959Y-73881981D01*
X128953961Y-73881982D01*
X128953962Y-73881983D01*
X129127359Y-73989346D01*
X129127361Y-73989346D01*
X129127363Y-73989348D01*
X129317544Y-74063024D01*
X129518024Y-74100500D01*
X129518026Y-74100500D01*
X129721974Y-74100500D01*
X129721976Y-74100500D01*
X129922456Y-74063024D01*
X130085141Y-74000000D01*
X133394551Y-74000000D01*
X133414317Y-74251148D01*
X133473127Y-74496111D01*
X133569535Y-74728862D01*
X133701163Y-74943658D01*
X133864775Y-75135224D01*
X134056341Y-75298836D01*
X134271137Y-75430464D01*
X134271139Y-75430464D01*
X134271141Y-75430466D01*
X134503889Y-75526873D01*
X134748852Y-75585683D01*
X134937118Y-75600500D01*
X134939587Y-75600500D01*
X135060413Y-75600500D01*
X135062882Y-75600500D01*
X135251148Y-75585683D01*
X135496111Y-75526873D01*
X135728859Y-75430466D01*
X135943659Y-75298836D01*
X136135224Y-75135224D01*
X136298836Y-74943659D01*
X136430466Y-74728859D01*
X136526873Y-74496111D01*
X136585683Y-74251148D01*
X136605449Y-74000000D01*
X136585683Y-73748852D01*
X136526873Y-73503889D01*
X136430466Y-73271141D01*
X136417510Y-73249999D01*
X136298836Y-73056341D01*
X136135224Y-72864775D01*
X135943658Y-72701163D01*
X135728862Y-72569535D01*
X135496111Y-72473127D01*
X135251148Y-72414317D01*
X135065338Y-72399693D01*
X135065330Y-72399692D01*
X135062882Y-72399500D01*
X134937118Y-72399500D01*
X134934670Y-72399692D01*
X134934661Y-72399693D01*
X134748851Y-72414317D01*
X134503888Y-72473127D01*
X134271137Y-72569535D01*
X134056341Y-72701163D01*
X133864775Y-72864775D01*
X133701163Y-73056341D01*
X133569535Y-73271137D01*
X133473127Y-73503888D01*
X133414317Y-73748851D01*
X133394551Y-74000000D01*
X130085141Y-74000000D01*
X130112637Y-73989348D01*
X130286041Y-73881981D01*
X130436764Y-73744579D01*
X130559673Y-73581821D01*
X130650582Y-73399250D01*
X130706397Y-73203083D01*
X130725215Y-73000000D01*
X130706397Y-72796917D01*
X130650582Y-72600750D01*
X130559673Y-72418179D01*
X130436764Y-72255421D01*
X130286041Y-72118019D01*
X130286038Y-72118017D01*
X130286037Y-72118016D01*
X130112640Y-72010653D01*
X129922456Y-71936976D01*
X129721976Y-71899500D01*
X129518024Y-71899500D01*
X129384370Y-71924483D01*
X129317543Y-71936976D01*
X129127359Y-72010653D01*
X128953962Y-72118016D01*
X128803235Y-72255422D01*
X128680328Y-72418177D01*
X128589417Y-72600752D01*
X128533603Y-72796914D01*
X128514785Y-72999999D01*
X128185215Y-72999999D01*
X128166397Y-72796917D01*
X128110582Y-72600750D01*
X128019673Y-72418179D01*
X127896764Y-72255421D01*
X127746041Y-72118019D01*
X127746038Y-72118017D01*
X127746037Y-72118016D01*
X127572640Y-72010653D01*
X127382456Y-71936976D01*
X127181976Y-71899500D01*
X126978024Y-71899500D01*
X126844370Y-71924483D01*
X126777543Y-71936976D01*
X126587359Y-72010653D01*
X126413962Y-72118016D01*
X126263235Y-72255422D01*
X126140328Y-72418177D01*
X126049417Y-72600752D01*
X125993603Y-72796914D01*
X125974785Y-72999999D01*
X125645215Y-72999999D01*
X125626397Y-72796917D01*
X125570582Y-72600750D01*
X125479673Y-72418179D01*
X125356764Y-72255421D01*
X125206041Y-72118019D01*
X125206038Y-72118017D01*
X125206037Y-72118016D01*
X125032640Y-72010653D01*
X124842456Y-71936976D01*
X124641976Y-71899500D01*
X124438024Y-71899500D01*
X124304370Y-71924483D01*
X124237543Y-71936976D01*
X124047359Y-72010653D01*
X123873962Y-72118016D01*
X123723235Y-72255422D01*
X123600327Y-72418179D01*
X123596790Y-72425283D01*
X123548521Y-72477346D01*
X123479766Y-72495048D01*
X123412356Y-72472768D01*
X123367692Y-72417581D01*
X123358000Y-72369119D01*
X123358000Y-72104777D01*
X123357640Y-72098063D01*
X123351494Y-72040906D01*
X123300445Y-71904037D01*
X123212904Y-71787095D01*
X123095962Y-71699554D01*
X122959093Y-71648505D01*
X122901936Y-71642359D01*
X122895223Y-71642000D01*
X122254000Y-71642000D01*
X122254000Y-72566325D01*
X122142315Y-72515320D01*
X122035763Y-72500000D01*
X121964237Y-72500000D01*
X121857685Y-72515320D01*
X121746000Y-72566325D01*
X121746000Y-71642000D01*
X121104777Y-71642000D01*
X121098063Y-71642359D01*
X121040906Y-71648505D01*
X120904037Y-71699554D01*
X120787095Y-71787095D01*
X120699554Y-71904037D01*
X120648505Y-72040906D01*
X120642359Y-72098063D01*
X120642000Y-72104777D01*
X120642000Y-72746000D01*
X121568884Y-72746000D01*
X121540507Y-72790156D01*
X121500000Y-72928111D01*
X121500000Y-73071889D01*
X121540507Y-73209844D01*
X121568884Y-73254000D01*
X120642000Y-73254000D01*
X120642000Y-73895222D01*
X96597203Y-73895222D01*
X96585683Y-73748852D01*
X96526873Y-73503889D01*
X96430466Y-73271141D01*
X96417511Y-73250000D01*
X117594750Y-73250000D01*
X117613669Y-73393709D01*
X117669137Y-73527623D01*
X117669139Y-73527625D01*
X117757379Y-73642621D01*
X117850670Y-73714206D01*
X117872376Y-73730862D01*
X118006290Y-73786330D01*
X118023008Y-73788531D01*
X118150000Y-73805250D01*
X118293709Y-73786330D01*
X118427623Y-73730862D01*
X118427623Y-73730861D01*
X118427625Y-73730861D01*
X118542621Y-73642621D01*
X118630861Y-73527625D01*
X118642304Y-73500000D01*
X118686330Y-73393709D01*
X118686329Y-73393709D01*
X118705250Y-73250000D01*
X118686330Y-73106291D01*
X118686330Y-73106290D01*
X118630862Y-72972376D01*
X118579999Y-72906091D01*
X118542621Y-72857379D01*
X118455015Y-72790156D01*
X118427623Y-72769137D01*
X118293709Y-72713669D01*
X118150000Y-72694750D01*
X118006290Y-72713669D01*
X117872376Y-72769137D01*
X117757379Y-72857379D01*
X117669137Y-72972376D01*
X117613669Y-73106290D01*
X117594750Y-73250000D01*
X96417511Y-73250000D01*
X96417510Y-73249999D01*
X96298836Y-73056341D01*
X96135224Y-72864775D01*
X95943658Y-72701163D01*
X95728862Y-72569535D01*
X95496111Y-72473127D01*
X95251148Y-72414317D01*
X95065338Y-72399693D01*
X95065330Y-72399692D01*
X95062882Y-72399500D01*
X94937118Y-72399500D01*
X94934670Y-72399692D01*
X94934661Y-72399693D01*
X94748851Y-72414317D01*
X94503888Y-72473127D01*
X94271137Y-72569535D01*
X94056341Y-72701163D01*
X93864775Y-72864775D01*
X93701163Y-73056341D01*
X93569535Y-73271137D01*
X93473127Y-73503888D01*
X93414317Y-73748851D01*
X93394551Y-74000000D01*
X88854004Y-74000000D01*
X88873897Y-73930083D01*
X88892715Y-73727000D01*
X88873897Y-73523917D01*
X88818082Y-73327750D01*
X88727173Y-73145179D01*
X88604264Y-72982421D01*
X88453541Y-72845019D01*
X88453538Y-72845017D01*
X88453537Y-72845016D01*
X88280140Y-72737653D01*
X88089956Y-72663976D01*
X88089955Y-72663976D01*
X87889476Y-72626500D01*
X87685524Y-72626500D01*
X87551870Y-72651484D01*
X87485043Y-72663976D01*
X87294859Y-72737653D01*
X87121462Y-72845016D01*
X86970735Y-72982422D01*
X86847828Y-73145177D01*
X86756917Y-73327752D01*
X86701103Y-73523914D01*
X86682285Y-73727000D01*
X86352715Y-73727000D01*
X86333897Y-73523917D01*
X86278082Y-73327750D01*
X86187173Y-73145179D01*
X86064264Y-72982421D01*
X85913541Y-72845019D01*
X85913538Y-72845017D01*
X85913537Y-72845016D01*
X85740140Y-72737653D01*
X85549956Y-72663976D01*
X85549955Y-72663976D01*
X85349476Y-72626500D01*
X85145524Y-72626500D01*
X85011870Y-72651484D01*
X84945043Y-72663976D01*
X84754859Y-72737653D01*
X84581462Y-72845016D01*
X84430735Y-72982422D01*
X84307828Y-73145177D01*
X84216917Y-73327752D01*
X84161103Y-73523914D01*
X84142285Y-73727000D01*
X83000000Y-73727000D01*
X83000000Y-72343709D01*
X105509419Y-72343709D01*
X105509843Y-72347337D01*
X105509844Y-72347353D01*
X105524677Y-72474252D01*
X105524677Y-72474254D01*
X105524678Y-72474255D01*
X105584682Y-72639117D01*
X105584683Y-72639118D01*
X105584684Y-72639121D01*
X105681088Y-72785696D01*
X105801483Y-72899283D01*
X105808701Y-72906092D01*
X105864313Y-72938199D01*
X105960635Y-72993811D01*
X105960637Y-72993811D01*
X105960638Y-72993812D01*
X106128709Y-73044130D01*
X106303854Y-73054331D01*
X106476630Y-73023865D01*
X106637723Y-72954377D01*
X106778449Y-72849610D01*
X106891221Y-72715214D01*
X106969959Y-72558433D01*
X107010419Y-72387721D01*
X107010419Y-72343709D01*
X114149500Y-72343709D01*
X114149924Y-72347337D01*
X114149925Y-72347353D01*
X114164758Y-72474252D01*
X114164758Y-72474254D01*
X114164759Y-72474255D01*
X114224763Y-72639117D01*
X114224764Y-72639118D01*
X114224765Y-72639121D01*
X114321169Y-72785696D01*
X114441564Y-72899283D01*
X114448782Y-72906092D01*
X114504394Y-72938199D01*
X114600716Y-72993811D01*
X114600718Y-72993811D01*
X114600719Y-72993812D01*
X114768790Y-73044130D01*
X114943935Y-73054331D01*
X115116711Y-73023865D01*
X115277804Y-72954377D01*
X115418530Y-72849610D01*
X115531302Y-72715214D01*
X115610040Y-72558433D01*
X115650500Y-72387721D01*
X115650500Y-71456291D01*
X115635241Y-71325745D01*
X115575237Y-71160883D01*
X115525187Y-71084786D01*
X115478830Y-71014303D01*
X115351218Y-70893908D01*
X115199283Y-70806188D01*
X115087233Y-70772642D01*
X115031210Y-70755870D01*
X114961097Y-70751786D01*
X114894256Y-70727858D01*
X114887640Y-70719259D01*
X114844637Y-70746896D01*
X114831029Y-70750083D01*
X114683289Y-70776135D01*
X114522193Y-70845624D01*
X114381471Y-70950388D01*
X114268698Y-71084785D01*
X114230483Y-71160878D01*
X114189960Y-71241567D01*
X114149500Y-71412279D01*
X114149500Y-72343709D01*
X107010419Y-72343709D01*
X107010419Y-71456291D01*
X106995160Y-71325745D01*
X106935156Y-71160883D01*
X106885106Y-71084786D01*
X106838749Y-71014303D01*
X106711137Y-70893908D01*
X106559202Y-70806188D01*
X106447152Y-70772642D01*
X106391129Y-70755870D01*
X106321016Y-70751786D01*
X106254175Y-70727858D01*
X106247559Y-70719259D01*
X106204556Y-70746896D01*
X106190948Y-70750083D01*
X106043208Y-70776134D01*
X106043208Y-70776135D01*
X105882112Y-70845624D01*
X105741390Y-70950388D01*
X105628617Y-71084785D01*
X105590402Y-71160878D01*
X105549879Y-71241567D01*
X105509419Y-71412279D01*
X105509419Y-72343709D01*
X83000000Y-72343709D01*
X83000000Y-70626000D01*
X83020002Y-70557879D01*
X83073658Y-70511386D01*
X83126000Y-70500000D01*
X106169058Y-70500000D01*
X106237179Y-70520002D01*
G37*
G04 #@! TD.AperFunction*
M02*
