G04 #@! TF.GenerationSoftware,KiCad,Pcbnew,7.0.8*
G04 #@! TF.CreationDate,2023-10-01T22:59:48-07:00*
G04 #@! TF.ProjectId,babelfish,62616265-6c66-4697-9368-2e6b69636164,REV1*
G04 #@! TF.SameCoordinates,Original*
G04 #@! TF.FileFunction,Copper,L2,Inr*
G04 #@! TF.FilePolarity,Positive*
%FSLAX46Y46*%
G04 Gerber Fmt 4.6, Leading zero omitted, Abs format (unit mm)*
G04 Created by KiCad (PCBNEW 7.0.8) date 2023-10-01 22:59:48*
%MOMM*%
%LPD*%
G01*
G04 APERTURE LIST*
G04 #@! TA.AperFunction,ComponentPad*
%ADD10R,1.700000X1.700000*%
G04 #@! TD*
G04 #@! TA.AperFunction,ComponentPad*
%ADD11O,1.700000X1.700000*%
G04 #@! TD*
G04 #@! TA.AperFunction,ComponentPad*
%ADD12O,1.000000X2.100000*%
G04 #@! TD*
G04 #@! TA.AperFunction,ComponentPad*
%ADD13O,1.000000X1.800000*%
G04 #@! TD*
G04 #@! TA.AperFunction,ComponentPad*
%ADD14C,1.750000*%
G04 #@! TD*
G04 #@! TA.AperFunction,ComponentPad*
%ADD15O,1.599949X1.600000*%
G04 #@! TD*
G04 #@! TA.AperFunction,ComponentPad*
%ADD16O,1.200000X2.200000*%
G04 #@! TD*
G04 #@! TA.AperFunction,ComponentPad*
%ADD17C,0.600000*%
G04 #@! TD*
G04 #@! TA.AperFunction,ComponentPad*
%ADD18C,1.500000*%
G04 #@! TD*
G04 #@! TA.AperFunction,ComponentPad*
%ADD19C,3.100000*%
G04 #@! TD*
G04 #@! TA.AperFunction,ComponentPad*
%ADD20R,1.574803X1.574803*%
G04 #@! TD*
G04 #@! TA.AperFunction,ComponentPad*
%ADD21C,1.574803*%
G04 #@! TD*
G04 #@! TA.AperFunction,ComponentPad*
%ADD22C,5.000000*%
G04 #@! TD*
G04 #@! TA.AperFunction,ViaPad*
%ADD23C,0.600000*%
G04 #@! TD*
G04 APERTURE END LIST*
D10*
X91260000Y-112100000D03*
D11*
X93800000Y-112100000D03*
X96340000Y-112100000D03*
D12*
X120025500Y-76169086D03*
X111385419Y-76169086D03*
D13*
X111385419Y-71989000D03*
X120025500Y-71989000D03*
D14*
X88340000Y-83710000D03*
X85800000Y-82440000D03*
X88340000Y-81170000D03*
X85800000Y-79900000D03*
D15*
X128999975Y-73542990D03*
X127000000Y-73543066D03*
X125000000Y-73543066D03*
D16*
X122849886Y-73543066D03*
X131150114Y-73543066D03*
D17*
X110750500Y-87651500D03*
X110750500Y-88926500D03*
X110750500Y-90201500D03*
X112025500Y-87651500D03*
X112025500Y-88926500D03*
X112025500Y-90201500D03*
X113300500Y-87651500D03*
X113300500Y-88926500D03*
X113300500Y-90201500D03*
D18*
X115300000Y-103740000D03*
X117800000Y-103740000D03*
X119800000Y-103740000D03*
X122300000Y-103740000D03*
D19*
X111800000Y-106450000D03*
X125800000Y-106450000D03*
D20*
X130160020Y-86600076D03*
D21*
X130160020Y-89360045D03*
X130160020Y-92120015D03*
X130160020Y-94879985D03*
X130160020Y-97639954D03*
X133000000Y-87980061D03*
X133000000Y-90740030D03*
X133000000Y-93500000D03*
X133000000Y-96259969D03*
D22*
X131579883Y-79619888D03*
X131579883Y-104619888D03*
D23*
X116800000Y-88800000D03*
X120000000Y-89400000D03*
X117700000Y-88800000D03*
X86900000Y-98100000D03*
X85300000Y-98100000D03*
X102500000Y-84600000D03*
X123100000Y-76300000D03*
X127800000Y-80400000D03*
X121300000Y-81800000D03*
X105000000Y-112500000D03*
X125369979Y-84130051D03*
X127500000Y-94000000D03*
X116800000Y-80100000D03*
X91825905Y-104350013D03*
X115200000Y-96100000D03*
X100000000Y-106700000D03*
X93600000Y-70700000D03*
X95000000Y-97400000D03*
X105700000Y-90300000D03*
X120100000Y-98900000D03*
X95000000Y-85600000D03*
X118900000Y-89600000D03*
X95025905Y-91800013D03*
X127800000Y-83100000D03*
X95000000Y-98400000D03*
X121600000Y-93700000D03*
X117900000Y-88000000D03*
X116050000Y-101750000D03*
X110800000Y-93410000D03*
X111300000Y-78400000D03*
X117800000Y-79550000D03*
X101200000Y-105800000D03*
X115225000Y-82300000D03*
X116900000Y-88000000D03*
X91825905Y-105350013D03*
X124069979Y-84130051D03*
X105000000Y-84800000D03*
X113425000Y-79175000D03*
X111875000Y-81025000D03*
X110925000Y-81025000D03*
X124769979Y-84830051D03*
X127800000Y-82080051D03*
X108500000Y-85400000D03*
X93600000Y-73900000D03*
X127800000Y-83930051D03*
X123369979Y-87330051D03*
X120100000Y-100700000D03*
X124400000Y-98800000D03*
X95025905Y-90800013D03*
X94975905Y-84500000D03*
X117850000Y-84450000D03*
X100000000Y-105800000D03*
X107100000Y-81300000D03*
X127950000Y-86650000D03*
X118350000Y-78200000D03*
X121400000Y-83300000D03*
X88300000Y-99500000D03*
X97500000Y-88300000D03*
X86000000Y-104000000D03*
X116200000Y-96100000D03*
X107500000Y-89800000D03*
X104300000Y-73900000D03*
X90400000Y-90900000D03*
X127800000Y-101300000D03*
X119800000Y-83650000D03*
X111875500Y-83789000D03*
X120500000Y-88300000D03*
X111600000Y-91300000D03*
X116900000Y-83750000D03*
X105025500Y-86039000D03*
X121300000Y-88300000D03*
X100300000Y-102300000D03*
X94100000Y-101900000D03*
X96900000Y-94900000D03*
X119700000Y-88300000D03*
X102477600Y-79814000D03*
X99400000Y-80500000D03*
X110925500Y-83589000D03*
X115425500Y-84189000D03*
X120400000Y-96700000D03*
X123979122Y-95120878D03*
X125069979Y-80930051D03*
X123569979Y-80930051D03*
X126100000Y-102400000D03*
X124369979Y-80930051D03*
X97300000Y-76500000D03*
X117500000Y-93300000D03*
X115500000Y-92400000D03*
X114400000Y-91177000D03*
X110590000Y-102050000D03*
X111400000Y-101470000D03*
X92600000Y-93200000D03*
X85300000Y-89200000D03*
X93300000Y-93824500D03*
X103300000Y-92400000D03*
X86600000Y-89200000D03*
X105300000Y-92900000D03*
X102179122Y-89420878D03*
X105300000Y-93800000D03*
X89400000Y-96000000D03*
X91300000Y-94700000D03*
X86300000Y-99500000D03*
X92100000Y-78100000D03*
X101200000Y-87400000D03*
X101500000Y-88100000D03*
X95900500Y-87400250D03*
X95000000Y-89900000D03*
X91800000Y-103400000D03*
X95000000Y-96400000D03*
X96500000Y-98000000D03*
X97200000Y-96000000D03*
X93900000Y-102850000D03*
X92700000Y-104050000D03*
X101000000Y-83800000D03*
X106900000Y-87000000D03*
X91800000Y-82100000D03*
X102500000Y-99300000D03*
X100400000Y-81400000D03*
X105800000Y-98400000D03*
X97100000Y-84600000D03*
X97300000Y-91400000D03*
X97100000Y-85500000D03*
X96300000Y-91400000D03*
X103800000Y-99200000D03*
X91900000Y-88400000D03*
X101300000Y-89400000D03*
X104500000Y-96600000D03*
X95000000Y-95500000D03*
X107200000Y-111724500D03*
X100900000Y-95300000D03*
X106884495Y-99800000D03*
X94100000Y-105000000D03*
X95500000Y-100600000D03*
X96400000Y-100600000D03*
X93300000Y-105600000D03*
X108500000Y-111200000D03*
X91800000Y-102300000D03*
X108300000Y-101500000D03*
X98100000Y-102100000D03*
G04 #@! TA.AperFunction,Conductor*
G36*
X137892539Y-69820185D02*
G01*
X137938294Y-69872989D01*
X137949500Y-69924500D01*
X137949500Y-114325500D01*
X137929815Y-114392539D01*
X137877011Y-114438294D01*
X137825500Y-114449500D01*
X82674500Y-114449500D01*
X82607461Y-114429815D01*
X82561706Y-114377011D01*
X82550500Y-114325500D01*
X82550500Y-112974678D01*
X90159500Y-112974678D01*
X90174032Y-113047735D01*
X90174033Y-113047739D01*
X90174034Y-113047740D01*
X90229399Y-113130601D01*
X90312260Y-113185966D01*
X90312264Y-113185967D01*
X90385321Y-113200499D01*
X90385324Y-113200500D01*
X90385326Y-113200500D01*
X92134676Y-113200500D01*
X92134677Y-113200499D01*
X92207740Y-113185966D01*
X92290601Y-113130601D01*
X92345966Y-113047740D01*
X92360500Y-112974674D01*
X92360500Y-112100000D01*
X92694785Y-112100000D01*
X92713602Y-112303082D01*
X92769417Y-112499247D01*
X92769422Y-112499260D01*
X92860327Y-112681821D01*
X92983237Y-112844581D01*
X93133958Y-112981980D01*
X93133960Y-112981982D01*
X93233141Y-113043392D01*
X93307363Y-113089348D01*
X93497544Y-113163024D01*
X93698024Y-113200500D01*
X93698026Y-113200500D01*
X93901974Y-113200500D01*
X93901976Y-113200500D01*
X94102456Y-113163024D01*
X94292637Y-113089348D01*
X94466041Y-112981981D01*
X94616764Y-112844579D01*
X94739673Y-112681821D01*
X94830582Y-112499250D01*
X94886397Y-112303083D01*
X94905215Y-112100000D01*
X95234785Y-112100000D01*
X95253602Y-112303082D01*
X95309417Y-112499247D01*
X95309422Y-112499260D01*
X95400327Y-112681821D01*
X95523237Y-112844581D01*
X95673958Y-112981980D01*
X95673960Y-112981982D01*
X95773141Y-113043392D01*
X95847363Y-113089348D01*
X96037544Y-113163024D01*
X96238024Y-113200500D01*
X96238026Y-113200500D01*
X96441974Y-113200500D01*
X96441976Y-113200500D01*
X96642456Y-113163024D01*
X96832637Y-113089348D01*
X97006041Y-112981981D01*
X97156764Y-112844579D01*
X97279673Y-112681821D01*
X97370582Y-112499250D01*
X97426397Y-112303083D01*
X97445215Y-112100000D01*
X97436145Y-112002122D01*
X97426397Y-111896917D01*
X97418228Y-111868208D01*
X97377339Y-111724500D01*
X106644750Y-111724500D01*
X106663670Y-111868208D01*
X106663671Y-111868212D01*
X106719137Y-112002122D01*
X106719138Y-112002124D01*
X106719139Y-112002125D01*
X106807379Y-112117121D01*
X106922375Y-112205361D01*
X107056291Y-112260830D01*
X107183280Y-112277548D01*
X107199999Y-112279750D01*
X107200000Y-112279750D01*
X107200001Y-112279750D01*
X107214977Y-112277778D01*
X107343709Y-112260830D01*
X107477625Y-112205361D01*
X107592621Y-112117121D01*
X107680861Y-112002125D01*
X107736330Y-111868209D01*
X107755250Y-111724500D01*
X107736330Y-111580791D01*
X107680861Y-111446875D01*
X107592621Y-111331879D01*
X107477625Y-111243639D01*
X107477624Y-111243638D01*
X107477622Y-111243637D01*
X107372270Y-111200000D01*
X107944750Y-111200000D01*
X107963670Y-111343708D01*
X107963671Y-111343712D01*
X108019137Y-111477622D01*
X108019138Y-111477624D01*
X108019139Y-111477625D01*
X108107379Y-111592621D01*
X108222375Y-111680861D01*
X108356291Y-111736330D01*
X108483280Y-111753048D01*
X108499999Y-111755250D01*
X108500000Y-111755250D01*
X108500001Y-111755250D01*
X108514977Y-111753278D01*
X108643709Y-111736330D01*
X108777625Y-111680861D01*
X108892621Y-111592621D01*
X108980861Y-111477625D01*
X109036330Y-111343709D01*
X109048667Y-111250000D01*
X133144551Y-111250000D01*
X133164317Y-111501151D01*
X133223126Y-111746110D01*
X133319533Y-111978859D01*
X133451160Y-112193653D01*
X133451161Y-112193656D01*
X133451164Y-112193659D01*
X133614776Y-112385224D01*
X133748280Y-112499247D01*
X133806343Y-112548838D01*
X133806346Y-112548839D01*
X134021140Y-112680466D01*
X134253889Y-112776873D01*
X134498852Y-112835683D01*
X134654950Y-112847968D01*
X134687116Y-112850500D01*
X134687118Y-112850500D01*
X134812884Y-112850500D01*
X134842518Y-112848167D01*
X135001148Y-112835683D01*
X135246111Y-112776873D01*
X135478859Y-112680466D01*
X135693659Y-112548836D01*
X135885224Y-112385224D01*
X136048836Y-112193659D01*
X136180466Y-111978859D01*
X136276873Y-111746111D01*
X136335683Y-111501148D01*
X136355449Y-111250000D01*
X136335683Y-110998852D01*
X136276873Y-110753889D01*
X136239503Y-110663670D01*
X136180466Y-110521140D01*
X136048839Y-110306346D01*
X136048838Y-110306343D01*
X136011875Y-110263066D01*
X135885224Y-110114776D01*
X135758571Y-110006604D01*
X135693656Y-109951161D01*
X135693653Y-109951160D01*
X135478859Y-109819533D01*
X135246110Y-109723126D01*
X135001150Y-109664317D01*
X134812884Y-109649500D01*
X134812882Y-109649500D01*
X134687118Y-109649500D01*
X134687116Y-109649500D01*
X134498849Y-109664317D01*
X134253889Y-109723126D01*
X134021140Y-109819533D01*
X133806346Y-109951160D01*
X133806343Y-109951161D01*
X133614776Y-110114776D01*
X133451161Y-110306343D01*
X133451160Y-110306346D01*
X133319533Y-110521140D01*
X133223126Y-110753889D01*
X133164317Y-110998848D01*
X133144551Y-111250000D01*
X109048667Y-111250000D01*
X109055250Y-111200000D01*
X109036330Y-111056291D01*
X108980861Y-110922375D01*
X108892621Y-110807379D01*
X108777625Y-110719139D01*
X108777624Y-110719138D01*
X108777622Y-110719137D01*
X108643712Y-110663671D01*
X108643710Y-110663670D01*
X108643709Y-110663670D01*
X108571854Y-110654210D01*
X108500001Y-110644750D01*
X108499999Y-110644750D01*
X108356291Y-110663670D01*
X108356287Y-110663671D01*
X108222377Y-110719137D01*
X108107379Y-110807379D01*
X108019137Y-110922377D01*
X107963671Y-111056287D01*
X107963670Y-111056291D01*
X107944750Y-111199999D01*
X107944750Y-111200000D01*
X107372270Y-111200000D01*
X107343712Y-111188171D01*
X107343710Y-111188170D01*
X107343709Y-111188170D01*
X107271854Y-111178710D01*
X107200001Y-111169250D01*
X107199999Y-111169250D01*
X107056291Y-111188170D01*
X107056287Y-111188171D01*
X106922377Y-111243637D01*
X106807379Y-111331879D01*
X106719137Y-111446877D01*
X106663671Y-111580787D01*
X106663670Y-111580791D01*
X106644750Y-111724499D01*
X106644750Y-111724500D01*
X97377339Y-111724500D01*
X97370582Y-111700750D01*
X97279673Y-111518179D01*
X97156764Y-111355421D01*
X97156762Y-111355418D01*
X97006041Y-111218019D01*
X97006039Y-111218017D01*
X96832642Y-111110655D01*
X96832635Y-111110651D01*
X96692304Y-111056287D01*
X96642456Y-111036976D01*
X96441976Y-110999500D01*
X96238024Y-110999500D01*
X96037544Y-111036976D01*
X96037541Y-111036976D01*
X96037541Y-111036977D01*
X95847364Y-111110651D01*
X95847357Y-111110655D01*
X95673960Y-111218017D01*
X95673958Y-111218019D01*
X95523237Y-111355418D01*
X95400327Y-111518178D01*
X95309422Y-111700739D01*
X95309417Y-111700752D01*
X95253602Y-111896917D01*
X95234785Y-112099999D01*
X95234785Y-112100000D01*
X94905215Y-112100000D01*
X94896145Y-112002122D01*
X94886397Y-111896917D01*
X94878228Y-111868208D01*
X94830582Y-111700750D01*
X94739673Y-111518179D01*
X94616764Y-111355421D01*
X94616762Y-111355418D01*
X94466041Y-111218019D01*
X94466039Y-111218017D01*
X94292642Y-111110655D01*
X94292635Y-111110651D01*
X94152304Y-111056287D01*
X94102456Y-111036976D01*
X93901976Y-110999500D01*
X93698024Y-110999500D01*
X93497544Y-111036976D01*
X93497541Y-111036976D01*
X93497541Y-111036977D01*
X93307364Y-111110651D01*
X93307357Y-111110655D01*
X93133960Y-111218017D01*
X93133958Y-111218019D01*
X92983237Y-111355418D01*
X92860327Y-111518178D01*
X92769422Y-111700739D01*
X92769417Y-111700752D01*
X92713602Y-111896917D01*
X92694785Y-112099999D01*
X92694785Y-112100000D01*
X92360500Y-112100000D01*
X92360500Y-111225326D01*
X92360500Y-111225323D01*
X92360499Y-111225321D01*
X92345967Y-111152264D01*
X92345966Y-111152260D01*
X92290601Y-111069399D01*
X92207740Y-111014034D01*
X92207739Y-111014033D01*
X92207735Y-111014032D01*
X92134677Y-110999500D01*
X92134674Y-110999500D01*
X90385326Y-110999500D01*
X90385323Y-110999500D01*
X90312264Y-111014032D01*
X90312260Y-111014033D01*
X90229399Y-111069399D01*
X90174033Y-111152260D01*
X90174032Y-111152264D01*
X90159500Y-111225321D01*
X90159500Y-112974678D01*
X82550500Y-112974678D01*
X82550500Y-111250000D01*
X84144551Y-111250000D01*
X84164317Y-111501151D01*
X84223126Y-111746110D01*
X84319533Y-111978859D01*
X84451160Y-112193653D01*
X84451161Y-112193656D01*
X84451164Y-112193659D01*
X84614776Y-112385224D01*
X84748280Y-112499247D01*
X84806343Y-112548838D01*
X84806346Y-112548839D01*
X85021140Y-112680466D01*
X85253889Y-112776873D01*
X85498852Y-112835683D01*
X85654950Y-112847968D01*
X85687116Y-112850500D01*
X85687118Y-112850500D01*
X85812884Y-112850500D01*
X85842518Y-112848167D01*
X86001148Y-112835683D01*
X86246111Y-112776873D01*
X86478859Y-112680466D01*
X86693659Y-112548836D01*
X86885224Y-112385224D01*
X87048836Y-112193659D01*
X87180466Y-111978859D01*
X87276873Y-111746111D01*
X87335683Y-111501148D01*
X87355449Y-111250000D01*
X87335683Y-110998852D01*
X87276873Y-110753889D01*
X87239503Y-110663670D01*
X87180466Y-110521140D01*
X87048839Y-110306346D01*
X87048838Y-110306343D01*
X87011875Y-110263066D01*
X86885224Y-110114776D01*
X86758571Y-110006604D01*
X86693656Y-109951161D01*
X86693653Y-109951160D01*
X86478859Y-109819533D01*
X86246110Y-109723126D01*
X86001150Y-109664317D01*
X85812884Y-109649500D01*
X85812882Y-109649500D01*
X85687118Y-109649500D01*
X85687116Y-109649500D01*
X85498849Y-109664317D01*
X85253889Y-109723126D01*
X85021140Y-109819533D01*
X84806346Y-109951160D01*
X84806343Y-109951161D01*
X84614776Y-110114776D01*
X84451161Y-110306343D01*
X84451160Y-110306346D01*
X84319533Y-110521140D01*
X84223126Y-110753889D01*
X84164317Y-110998848D01*
X84144551Y-111250000D01*
X82550500Y-111250000D01*
X82550500Y-106450000D01*
X109745210Y-106450000D01*
X109764347Y-106729794D01*
X109764348Y-106729796D01*
X109821403Y-107004364D01*
X109821408Y-107004381D01*
X109915319Y-107268622D01*
X109915320Y-107268624D01*
X110044348Y-107517637D01*
X110044352Y-107517643D01*
X110182744Y-107713699D01*
X110182745Y-107713700D01*
X110900976Y-106995469D01*
X110922732Y-107036172D01*
X111053945Y-107196055D01*
X111213828Y-107327268D01*
X111254529Y-107349023D01*
X110537740Y-108065811D01*
X110615046Y-108128704D01*
X110854664Y-108274419D01*
X110854668Y-108274421D01*
X111111888Y-108386146D01*
X111381935Y-108461810D01*
X111381941Y-108461811D01*
X111659775Y-108500000D01*
X111940225Y-108500000D01*
X112218058Y-108461811D01*
X112218064Y-108461810D01*
X112488111Y-108386146D01*
X112745331Y-108274421D01*
X112745335Y-108274419D01*
X112984950Y-108128706D01*
X112984965Y-108128696D01*
X113062258Y-108065811D01*
X112345470Y-107349023D01*
X112386172Y-107327268D01*
X112546055Y-107196055D01*
X112677268Y-107036172D01*
X112699023Y-106995470D01*
X113417253Y-107713699D01*
X113555651Y-107517636D01*
X113684679Y-107268624D01*
X113684680Y-107268622D01*
X113778591Y-107004381D01*
X113778596Y-107004364D01*
X113835651Y-106729796D01*
X113835652Y-106729794D01*
X113854789Y-106450000D01*
X123745210Y-106450000D01*
X123764347Y-106729794D01*
X123764348Y-106729796D01*
X123821403Y-107004364D01*
X123821408Y-107004381D01*
X123915319Y-107268622D01*
X123915320Y-107268624D01*
X124044348Y-107517637D01*
X124044352Y-107517643D01*
X124182744Y-107713699D01*
X124182745Y-107713700D01*
X124900976Y-106995469D01*
X124922732Y-107036172D01*
X125053945Y-107196055D01*
X125213828Y-107327268D01*
X125254529Y-107349023D01*
X124537740Y-108065811D01*
X124615046Y-108128704D01*
X124854664Y-108274419D01*
X124854668Y-108274421D01*
X125111888Y-108386146D01*
X125381935Y-108461810D01*
X125381941Y-108461811D01*
X125659775Y-108500000D01*
X125940225Y-108500000D01*
X126218058Y-108461811D01*
X126218064Y-108461810D01*
X126488111Y-108386146D01*
X126745331Y-108274421D01*
X126745335Y-108274419D01*
X126984950Y-108128706D01*
X126984965Y-108128696D01*
X127062258Y-108065811D01*
X126345470Y-107349023D01*
X126386172Y-107327268D01*
X126546055Y-107196055D01*
X126677268Y-107036172D01*
X126699023Y-106995470D01*
X127417253Y-107713699D01*
X127555651Y-107517636D01*
X127684679Y-107268624D01*
X127684680Y-107268622D01*
X127778591Y-107004381D01*
X127778596Y-107004364D01*
X127835651Y-106729796D01*
X127835652Y-106729794D01*
X127854789Y-106450000D01*
X127835652Y-106170205D01*
X127835651Y-106170203D01*
X127778596Y-105895635D01*
X127778591Y-105895618D01*
X127684680Y-105631377D01*
X127684679Y-105631375D01*
X127555651Y-105382363D01*
X127417253Y-105186299D01*
X126699023Y-105904528D01*
X126677268Y-105863828D01*
X126546055Y-105703945D01*
X126386172Y-105572732D01*
X126345469Y-105550976D01*
X127062258Y-104834187D01*
X126984953Y-104771295D01*
X126745335Y-104625580D01*
X126745331Y-104625578D01*
X126732231Y-104619888D01*
X128824356Y-104619888D01*
X128844446Y-104952024D01*
X128844446Y-104952029D01*
X128844447Y-104952030D01*
X128904427Y-105279329D01*
X128904428Y-105279333D01*
X128904429Y-105279337D01*
X129003413Y-105596992D01*
X129003417Y-105597004D01*
X129003420Y-105597011D01*
X129139985Y-105900445D01*
X129303061Y-106170205D01*
X129312134Y-106185214D01*
X129517343Y-106447143D01*
X129752627Y-106682427D01*
X130014556Y-106887636D01*
X130014561Y-106887639D01*
X130014565Y-106887642D01*
X130299326Y-107059786D01*
X130602760Y-107196351D01*
X130602773Y-107196355D01*
X130602778Y-107196357D01*
X130814548Y-107262346D01*
X130920442Y-107295344D01*
X131247741Y-107355324D01*
X131579883Y-107375415D01*
X131912025Y-107355324D01*
X132239324Y-107295344D01*
X132557006Y-107196351D01*
X132860440Y-107059786D01*
X133145201Y-106887642D01*
X133407135Y-106682430D01*
X133642425Y-106447140D01*
X133847637Y-106185206D01*
X134019781Y-105900445D01*
X134156346Y-105597011D01*
X134255339Y-105279329D01*
X134315319Y-104952030D01*
X134335410Y-104619888D01*
X134315319Y-104287746D01*
X134255339Y-103960447D01*
X134218201Y-103841265D01*
X134156352Y-103642783D01*
X134156350Y-103642778D01*
X134156346Y-103642765D01*
X134019781Y-103339331D01*
X133847637Y-103054570D01*
X133847634Y-103054566D01*
X133847631Y-103054561D01*
X133642422Y-102792632D01*
X133407138Y-102557348D01*
X133145209Y-102352139D01*
X133104653Y-102327622D01*
X132860440Y-102179990D01*
X132557006Y-102043425D01*
X132556999Y-102043422D01*
X132556987Y-102043418D01*
X132239332Y-101944434D01*
X132239328Y-101944433D01*
X132239324Y-101944432D01*
X131912025Y-101884452D01*
X131912024Y-101884451D01*
X131912019Y-101884451D01*
X131579883Y-101864361D01*
X131247746Y-101884451D01*
X131247741Y-101884452D01*
X130920442Y-101944432D01*
X130920439Y-101944432D01*
X130920433Y-101944434D01*
X130602778Y-102043418D01*
X130602762Y-102043424D01*
X130602760Y-102043425D01*
X130477058Y-102099999D01*
X130304581Y-102177625D01*
X130299326Y-102179990D01*
X130276634Y-102193708D01*
X130014556Y-102352139D01*
X129752627Y-102557348D01*
X129517343Y-102792632D01*
X129312134Y-103054561D01*
X129235421Y-103181460D01*
X129139985Y-103339331D01*
X129036557Y-103569139D01*
X129003419Y-103642768D01*
X129003413Y-103642783D01*
X128904429Y-103960438D01*
X128904427Y-103960444D01*
X128904427Y-103960447D01*
X128874320Y-104124733D01*
X128844446Y-104287751D01*
X128824356Y-104619888D01*
X126732231Y-104619888D01*
X126488111Y-104513853D01*
X126218064Y-104438189D01*
X126218058Y-104438188D01*
X125940225Y-104400000D01*
X125659775Y-104400000D01*
X125381941Y-104438188D01*
X125381935Y-104438189D01*
X125111888Y-104513853D01*
X124854670Y-104625577D01*
X124615038Y-104771301D01*
X124615034Y-104771304D01*
X124537740Y-104834187D01*
X125254529Y-105550976D01*
X125213828Y-105572732D01*
X125053945Y-105703945D01*
X124922732Y-105863828D01*
X124900976Y-105904529D01*
X124182745Y-105186298D01*
X124044352Y-105382356D01*
X124044348Y-105382362D01*
X123915320Y-105631375D01*
X123915319Y-105631377D01*
X123821408Y-105895618D01*
X123821403Y-105895635D01*
X123764348Y-106170203D01*
X123764347Y-106170205D01*
X123745210Y-106450000D01*
X113854789Y-106450000D01*
X113835652Y-106170205D01*
X113835651Y-106170203D01*
X113778596Y-105895635D01*
X113778591Y-105895618D01*
X113684680Y-105631377D01*
X113684679Y-105631375D01*
X113555651Y-105382363D01*
X113417253Y-105186299D01*
X112699023Y-105904529D01*
X112677268Y-105863828D01*
X112546055Y-105703945D01*
X112386172Y-105572732D01*
X112345469Y-105550976D01*
X113062258Y-104834187D01*
X112984953Y-104771295D01*
X112745335Y-104625580D01*
X112745331Y-104625578D01*
X112488111Y-104513853D01*
X112218064Y-104438189D01*
X112218058Y-104438188D01*
X111940225Y-104400000D01*
X111659775Y-104400000D01*
X111381941Y-104438188D01*
X111381935Y-104438189D01*
X111111888Y-104513853D01*
X110854670Y-104625577D01*
X110615038Y-104771301D01*
X110615034Y-104771304D01*
X110537740Y-104834187D01*
X111254529Y-105550976D01*
X111213828Y-105572732D01*
X111053945Y-105703945D01*
X110922732Y-105863828D01*
X110900976Y-105904529D01*
X110182745Y-105186298D01*
X110044352Y-105382356D01*
X110044348Y-105382362D01*
X109915320Y-105631375D01*
X109915319Y-105631377D01*
X109821408Y-105895618D01*
X109821403Y-105895635D01*
X109764348Y-106170203D01*
X109764347Y-106170205D01*
X109745210Y-106450000D01*
X82550500Y-106450000D01*
X82550500Y-105600000D01*
X92744750Y-105600000D01*
X92763670Y-105743708D01*
X92763671Y-105743712D01*
X92819137Y-105877622D01*
X92819138Y-105877624D01*
X92819139Y-105877625D01*
X92907379Y-105992621D01*
X93022375Y-106080861D01*
X93156291Y-106136330D01*
X93283280Y-106153048D01*
X93299999Y-106155250D01*
X93300000Y-106155250D01*
X93300001Y-106155250D01*
X93314977Y-106153278D01*
X93443709Y-106136330D01*
X93577625Y-106080861D01*
X93692621Y-105992621D01*
X93780861Y-105877625D01*
X93836330Y-105743709D01*
X93849025Y-105647276D01*
X93877291Y-105583381D01*
X93935616Y-105544910D01*
X93988148Y-105540524D01*
X94072027Y-105551567D01*
X94099999Y-105555250D01*
X94100000Y-105555250D01*
X94100001Y-105555250D01*
X94114977Y-105553278D01*
X94243709Y-105536330D01*
X94377625Y-105480861D01*
X94492621Y-105392621D01*
X94580861Y-105277625D01*
X94636330Y-105143709D01*
X94655250Y-105000000D01*
X94636330Y-104856291D01*
X94590373Y-104745340D01*
X94580862Y-104722377D01*
X94580861Y-104722376D01*
X94580861Y-104722375D01*
X94492621Y-104607379D01*
X94377625Y-104519139D01*
X94377624Y-104519138D01*
X94377622Y-104519137D01*
X94243712Y-104463671D01*
X94243710Y-104463670D01*
X94243709Y-104463670D01*
X94146584Y-104450883D01*
X94100001Y-104444750D01*
X94099999Y-104444750D01*
X93956291Y-104463670D01*
X93956287Y-104463671D01*
X93822377Y-104519137D01*
X93707379Y-104607379D01*
X93619137Y-104722377D01*
X93563671Y-104856287D01*
X93563670Y-104856292D01*
X93550974Y-104952722D01*
X93522707Y-105016619D01*
X93464382Y-105055089D01*
X93411850Y-105059475D01*
X93300002Y-105044750D01*
X93299999Y-105044750D01*
X93156291Y-105063670D01*
X93156287Y-105063671D01*
X93022377Y-105119137D01*
X92907379Y-105207379D01*
X92819137Y-105322377D01*
X92763671Y-105456287D01*
X92763670Y-105456291D01*
X92744750Y-105599999D01*
X92744750Y-105600000D01*
X82550500Y-105600000D01*
X82550500Y-104000000D01*
X85444750Y-104000000D01*
X85461975Y-104130838D01*
X85463670Y-104143708D01*
X85463671Y-104143712D01*
X85519137Y-104277622D01*
X85519138Y-104277624D01*
X85519139Y-104277625D01*
X85607379Y-104392621D01*
X85722375Y-104480861D01*
X85856291Y-104536330D01*
X85983280Y-104553048D01*
X85999999Y-104555250D01*
X86000000Y-104555250D01*
X86000001Y-104555250D01*
X86014977Y-104553278D01*
X86143709Y-104536330D01*
X86277625Y-104480861D01*
X86392621Y-104392621D01*
X86480861Y-104277625D01*
X86536330Y-104143709D01*
X86555250Y-104000000D01*
X86536330Y-103856291D01*
X86488190Y-103740068D01*
X86480862Y-103722377D01*
X86480861Y-103722376D01*
X86480861Y-103722375D01*
X86392621Y-103607379D01*
X86277625Y-103519139D01*
X86277624Y-103519138D01*
X86277622Y-103519137D01*
X86143712Y-103463671D01*
X86143710Y-103463670D01*
X86143709Y-103463670D01*
X86071854Y-103454210D01*
X86000001Y-103444750D01*
X85999999Y-103444750D01*
X85856291Y-103463670D01*
X85856287Y-103463671D01*
X85722377Y-103519137D01*
X85607379Y-103607379D01*
X85519137Y-103722377D01*
X85463671Y-103856287D01*
X85463670Y-103856291D01*
X85449959Y-103960438D01*
X85444750Y-104000000D01*
X82550500Y-104000000D01*
X82550500Y-103400000D01*
X91244750Y-103400000D01*
X91262336Y-103533580D01*
X91263670Y-103543708D01*
X91263671Y-103543712D01*
X91319137Y-103677622D01*
X91319138Y-103677624D01*
X91319139Y-103677625D01*
X91407379Y-103792621D01*
X91522375Y-103880861D01*
X91656291Y-103936330D01*
X91783280Y-103953048D01*
X91799999Y-103955250D01*
X91800000Y-103955250D01*
X91800001Y-103955250D01*
X91814977Y-103953278D01*
X91943709Y-103936330D01*
X91973747Y-103923887D01*
X92043215Y-103916418D01*
X92105695Y-103947692D01*
X92141348Y-104007781D01*
X92143383Y-104041872D01*
X92144750Y-104041872D01*
X92144750Y-104050000D01*
X92163670Y-104193708D01*
X92163671Y-104193712D01*
X92219137Y-104327622D01*
X92219138Y-104327624D01*
X92219139Y-104327625D01*
X92307379Y-104442621D01*
X92422375Y-104530861D01*
X92422376Y-104530861D01*
X92422377Y-104530862D01*
X92467013Y-104549350D01*
X92556291Y-104586330D01*
X92683280Y-104603048D01*
X92699999Y-104605250D01*
X92700000Y-104605250D01*
X92700001Y-104605250D01*
X92714977Y-104603278D01*
X92843709Y-104586330D01*
X92977625Y-104530861D01*
X93092621Y-104442621D01*
X93180861Y-104327625D01*
X93236330Y-104193709D01*
X93255250Y-104050000D01*
X93236330Y-103906291D01*
X93182884Y-103777258D01*
X93180862Y-103772377D01*
X93180861Y-103772376D01*
X93180861Y-103772375D01*
X93156019Y-103740000D01*
X114294659Y-103740000D01*
X114313975Y-103936129D01*
X114313976Y-103936132D01*
X114361729Y-104093553D01*
X114371188Y-104124733D01*
X114464086Y-104298532D01*
X114464090Y-104298539D01*
X114589116Y-104450883D01*
X114741460Y-104575909D01*
X114741467Y-104575913D01*
X114915266Y-104668811D01*
X114915269Y-104668811D01*
X114915273Y-104668814D01*
X115103868Y-104726024D01*
X115300000Y-104745341D01*
X115496132Y-104726024D01*
X115684727Y-104668814D01*
X115858538Y-104575910D01*
X116010883Y-104450883D01*
X116135910Y-104298538D01*
X116218668Y-104143709D01*
X116228811Y-104124733D01*
X116228811Y-104124732D01*
X116228814Y-104124727D01*
X116286024Y-103936132D01*
X116305341Y-103740000D01*
X116794659Y-103740000D01*
X116813975Y-103936129D01*
X116813976Y-103936132D01*
X116861729Y-104093553D01*
X116871188Y-104124733D01*
X116964086Y-104298532D01*
X116964090Y-104298539D01*
X117089116Y-104450883D01*
X117241460Y-104575909D01*
X117241467Y-104575913D01*
X117415266Y-104668811D01*
X117415269Y-104668811D01*
X117415273Y-104668814D01*
X117603868Y-104726024D01*
X117800000Y-104745341D01*
X117996132Y-104726024D01*
X118184727Y-104668814D01*
X118358538Y-104575910D01*
X118510883Y-104450883D01*
X118635910Y-104298538D01*
X118648657Y-104274690D01*
X118690642Y-104196143D01*
X118739604Y-104146299D01*
X118807742Y-104130838D01*
X118873421Y-104154670D01*
X118909358Y-104196143D01*
X118964086Y-104298532D01*
X118964090Y-104298539D01*
X119089116Y-104450883D01*
X119241460Y-104575909D01*
X119241467Y-104575913D01*
X119415266Y-104668811D01*
X119415269Y-104668811D01*
X119415273Y-104668814D01*
X119603868Y-104726024D01*
X119800000Y-104745341D01*
X119996132Y-104726024D01*
X120184727Y-104668814D01*
X120358538Y-104575910D01*
X120510883Y-104450883D01*
X120635910Y-104298538D01*
X120718668Y-104143709D01*
X120728811Y-104124733D01*
X120728811Y-104124732D01*
X120728814Y-104124727D01*
X120786024Y-103936132D01*
X120801671Y-103777256D01*
X120816680Y-103740086D01*
X120816671Y-103740068D01*
X121033473Y-103740068D01*
X121046902Y-103766307D01*
X121048602Y-103778604D01*
X121064287Y-103957884D01*
X121064289Y-103957894D01*
X121120894Y-104169150D01*
X121120898Y-104169159D01*
X121213335Y-104367391D01*
X121256873Y-104429571D01*
X121256875Y-104429572D01*
X121855550Y-103830896D01*
X121856327Y-103841265D01*
X121905887Y-103967541D01*
X121990465Y-104073599D01*
X122102547Y-104150016D01*
X122210299Y-104183253D01*
X121610426Y-104783124D01*
X121672611Y-104826666D01*
X121672613Y-104826667D01*
X121870840Y-104919101D01*
X121870849Y-104919105D01*
X122082105Y-104975710D01*
X122082115Y-104975712D01*
X122299999Y-104994775D01*
X122300001Y-104994775D01*
X122517884Y-104975712D01*
X122517894Y-104975710D01*
X122729150Y-104919105D01*
X122729159Y-104919101D01*
X122927387Y-104826666D01*
X122989572Y-104783124D01*
X122388232Y-104181784D01*
X122434138Y-104174865D01*
X122556357Y-104116007D01*
X122655798Y-104023740D01*
X122723625Y-103906260D01*
X122741499Y-103827946D01*
X123343124Y-104429572D01*
X123386666Y-104367387D01*
X123479101Y-104169159D01*
X123479105Y-104169150D01*
X123535710Y-103957894D01*
X123535712Y-103957884D01*
X123554775Y-103740000D01*
X123554775Y-103739999D01*
X123535712Y-103522115D01*
X123535710Y-103522105D01*
X123479105Y-103310849D01*
X123479101Y-103310840D01*
X123386668Y-103112615D01*
X123343123Y-103050428D01*
X122744449Y-103649101D01*
X122743673Y-103638735D01*
X122694113Y-103512459D01*
X122609535Y-103406401D01*
X122497453Y-103329984D01*
X122389700Y-103296747D01*
X122989572Y-102696875D01*
X122989571Y-102696873D01*
X122927391Y-102653335D01*
X122729159Y-102560898D01*
X122729150Y-102560894D01*
X122517894Y-102504289D01*
X122517884Y-102504287D01*
X122300001Y-102485225D01*
X122299999Y-102485225D01*
X122082115Y-102504287D01*
X122082105Y-102504289D01*
X121870849Y-102560894D01*
X121870840Y-102560898D01*
X121672614Y-102653332D01*
X121672612Y-102653333D01*
X121610428Y-102696875D01*
X121610427Y-102696875D01*
X122211768Y-103298215D01*
X122165862Y-103305135D01*
X122043643Y-103363993D01*
X121944202Y-103456260D01*
X121876375Y-103573740D01*
X121858500Y-103652052D01*
X121256875Y-103050427D01*
X121256875Y-103050428D01*
X121213333Y-103112612D01*
X121213332Y-103112614D01*
X121120898Y-103310840D01*
X121120894Y-103310849D01*
X121064289Y-103522105D01*
X121064287Y-103522115D01*
X121048602Y-103701395D01*
X121033473Y-103740068D01*
X120816671Y-103740068D01*
X120803505Y-103715019D01*
X120801671Y-103702741D01*
X120801538Y-103701395D01*
X120786024Y-103543868D01*
X120728814Y-103355273D01*
X120728811Y-103355269D01*
X120728811Y-103355266D01*
X120635913Y-103181467D01*
X120635909Y-103181460D01*
X120510883Y-103029116D01*
X120358539Y-102904090D01*
X120358532Y-102904086D01*
X120184733Y-102811188D01*
X120184727Y-102811186D01*
X119996132Y-102753976D01*
X119996129Y-102753975D01*
X119800000Y-102734659D01*
X119603870Y-102753975D01*
X119415266Y-102811188D01*
X119241467Y-102904086D01*
X119241460Y-102904090D01*
X119089116Y-103029116D01*
X118964090Y-103181460D01*
X118964085Y-103181467D01*
X118909358Y-103283856D01*
X118860396Y-103333701D01*
X118792258Y-103349161D01*
X118726578Y-103325329D01*
X118690642Y-103283856D01*
X118635914Y-103181467D01*
X118635909Y-103181460D01*
X118510883Y-103029116D01*
X118358539Y-102904090D01*
X118358532Y-102904086D01*
X118184733Y-102811188D01*
X118184727Y-102811186D01*
X117996132Y-102753976D01*
X117996129Y-102753975D01*
X117800000Y-102734659D01*
X117603870Y-102753975D01*
X117415266Y-102811188D01*
X117241467Y-102904086D01*
X117241460Y-102904090D01*
X117089116Y-103029116D01*
X116964090Y-103181460D01*
X116964086Y-103181467D01*
X116871188Y-103355266D01*
X116813975Y-103543870D01*
X116794659Y-103740000D01*
X116305341Y-103740000D01*
X116286024Y-103543868D01*
X116228814Y-103355273D01*
X116228811Y-103355269D01*
X116228811Y-103355266D01*
X116135913Y-103181467D01*
X116135909Y-103181460D01*
X116010883Y-103029116D01*
X115858539Y-102904090D01*
X115858532Y-102904086D01*
X115684733Y-102811188D01*
X115684727Y-102811186D01*
X115496132Y-102753976D01*
X115496129Y-102753975D01*
X115300000Y-102734659D01*
X115103870Y-102753975D01*
X114915266Y-102811188D01*
X114741467Y-102904086D01*
X114741460Y-102904090D01*
X114589116Y-103029116D01*
X114464090Y-103181460D01*
X114464086Y-103181467D01*
X114371188Y-103355266D01*
X114313975Y-103543870D01*
X114294659Y-103740000D01*
X93156019Y-103740000D01*
X93092621Y-103657379D01*
X92977625Y-103569139D01*
X92977624Y-103569138D01*
X92977622Y-103569137D01*
X92843712Y-103513671D01*
X92843710Y-103513670D01*
X92843709Y-103513670D01*
X92757377Y-103502304D01*
X92700001Y-103494750D01*
X92699999Y-103494750D01*
X92556291Y-103513670D01*
X92556287Y-103513671D01*
X92526249Y-103526113D01*
X92456780Y-103533580D01*
X92394301Y-103502304D01*
X92358650Y-103442215D01*
X92356621Y-103408128D01*
X92355250Y-103408128D01*
X92355250Y-103399999D01*
X92353048Y-103383280D01*
X92336330Y-103256291D01*
X92280861Y-103122375D01*
X92192621Y-103007379D01*
X92115724Y-102948373D01*
X92074524Y-102891948D01*
X92072025Y-102850000D01*
X93344750Y-102850000D01*
X93353852Y-102919139D01*
X93363670Y-102993708D01*
X93363671Y-102993712D01*
X93419137Y-103127622D01*
X93419138Y-103127624D01*
X93419139Y-103127625D01*
X93507379Y-103242621D01*
X93622375Y-103330861D01*
X93622376Y-103330861D01*
X93622377Y-103330862D01*
X93642833Y-103339335D01*
X93756291Y-103386330D01*
X93883280Y-103403048D01*
X93899999Y-103405250D01*
X93900000Y-103405250D01*
X93900001Y-103405250D01*
X93914977Y-103403278D01*
X94043709Y-103386330D01*
X94177625Y-103330861D01*
X94292621Y-103242621D01*
X94380861Y-103127625D01*
X94436330Y-102993709D01*
X94455250Y-102850000D01*
X94436330Y-102706291D01*
X94386641Y-102586329D01*
X94380862Y-102572377D01*
X94380861Y-102572376D01*
X94380861Y-102572375D01*
X94362652Y-102548644D01*
X94337459Y-102483478D01*
X94351497Y-102415033D01*
X94385539Y-102374787D01*
X94492621Y-102292621D01*
X94580861Y-102177625D01*
X94613014Y-102100000D01*
X97544750Y-102100000D01*
X97554969Y-102177623D01*
X97563670Y-102243708D01*
X97563671Y-102243712D01*
X97619137Y-102377622D01*
X97619138Y-102377624D01*
X97619139Y-102377625D01*
X97707379Y-102492621D01*
X97822375Y-102580861D01*
X97822376Y-102580861D01*
X97822377Y-102580862D01*
X97867013Y-102599350D01*
X97956291Y-102636330D01*
X98083280Y-102653048D01*
X98099999Y-102655250D01*
X98100000Y-102655250D01*
X98100001Y-102655250D01*
X98114977Y-102653278D01*
X98243709Y-102636330D01*
X98377625Y-102580861D01*
X98492621Y-102492621D01*
X98580861Y-102377625D01*
X98613014Y-102300000D01*
X99744750Y-102300000D01*
X99757915Y-102400000D01*
X99763670Y-102443708D01*
X99763671Y-102443712D01*
X99819137Y-102577622D01*
X99819138Y-102577624D01*
X99819139Y-102577625D01*
X99907379Y-102692621D01*
X100022375Y-102780861D01*
X100022376Y-102780861D01*
X100022377Y-102780862D01*
X100050793Y-102792632D01*
X100156291Y-102836330D01*
X100283280Y-102853048D01*
X100299999Y-102855250D01*
X100300000Y-102855250D01*
X100300001Y-102855250D01*
X100314977Y-102853278D01*
X100443709Y-102836330D01*
X100577625Y-102780861D01*
X100692621Y-102692621D01*
X100780861Y-102577625D01*
X100836330Y-102443709D01*
X100855250Y-102300000D01*
X100836330Y-102156291D01*
X100793027Y-102051747D01*
X100780862Y-102022377D01*
X100780861Y-102022376D01*
X100780861Y-102022375D01*
X100692621Y-101907379D01*
X100577625Y-101819139D01*
X100577624Y-101819138D01*
X100577622Y-101819137D01*
X100443712Y-101763671D01*
X100443710Y-101763670D01*
X100443709Y-101763670D01*
X100371854Y-101754210D01*
X100300001Y-101744750D01*
X100299999Y-101744750D01*
X100156291Y-101763670D01*
X100156287Y-101763671D01*
X100022377Y-101819137D01*
X99907379Y-101907379D01*
X99819137Y-102022377D01*
X99763671Y-102156287D01*
X99763670Y-102156291D01*
X99749158Y-102266522D01*
X99744750Y-102300000D01*
X98613014Y-102300000D01*
X98636330Y-102243709D01*
X98655250Y-102100000D01*
X98636330Y-101956291D01*
X98586641Y-101836329D01*
X98580862Y-101822377D01*
X98580861Y-101822376D01*
X98580861Y-101822375D01*
X98492621Y-101707379D01*
X98377625Y-101619139D01*
X98377624Y-101619138D01*
X98377622Y-101619137D01*
X98243712Y-101563671D01*
X98243710Y-101563670D01*
X98243709Y-101563670D01*
X98171854Y-101554210D01*
X98100001Y-101544750D01*
X98099999Y-101544750D01*
X97956291Y-101563670D01*
X97956287Y-101563671D01*
X97822377Y-101619137D01*
X97707379Y-101707379D01*
X97619137Y-101822377D01*
X97563671Y-101956287D01*
X97563670Y-101956291D01*
X97550642Y-102055250D01*
X97544750Y-102100000D01*
X94613014Y-102100000D01*
X94636330Y-102043709D01*
X94655250Y-101900000D01*
X94636330Y-101756291D01*
X94580861Y-101622375D01*
X94492621Y-101507379D01*
X94483005Y-101500000D01*
X107744750Y-101500000D01*
X107753852Y-101569139D01*
X107763670Y-101643708D01*
X107763671Y-101643712D01*
X107819137Y-101777622D01*
X107819138Y-101777624D01*
X107819139Y-101777625D01*
X107907379Y-101892621D01*
X108022375Y-101980861D01*
X108156291Y-102036330D01*
X108273393Y-102051747D01*
X108299999Y-102055250D01*
X108300000Y-102055250D01*
X108300001Y-102055250D01*
X108326607Y-102051747D01*
X108339877Y-102050000D01*
X110034750Y-102050000D01*
X110051552Y-102177625D01*
X110053670Y-102193708D01*
X110053671Y-102193712D01*
X110109137Y-102327622D01*
X110109138Y-102327624D01*
X110109139Y-102327625D01*
X110197379Y-102442621D01*
X110312375Y-102530861D01*
X110312376Y-102530861D01*
X110312377Y-102530862D01*
X110355315Y-102548647D01*
X110446291Y-102586330D01*
X110573280Y-102603048D01*
X110589999Y-102605250D01*
X110590000Y-102605250D01*
X110590001Y-102605250D01*
X110604977Y-102603278D01*
X110733709Y-102586330D01*
X110867625Y-102530861D01*
X110982621Y-102442621D01*
X111015325Y-102400000D01*
X125544750Y-102400000D01*
X125561978Y-102530861D01*
X125563670Y-102543708D01*
X125563671Y-102543712D01*
X125619137Y-102677622D01*
X125619138Y-102677624D01*
X125619139Y-102677625D01*
X125707379Y-102792621D01*
X125822375Y-102880861D01*
X125956291Y-102936330D01*
X126083280Y-102953048D01*
X126099999Y-102955250D01*
X126100000Y-102955250D01*
X126100001Y-102955250D01*
X126114977Y-102953278D01*
X126243709Y-102936330D01*
X126377625Y-102880861D01*
X126492621Y-102792621D01*
X126580861Y-102677625D01*
X126636330Y-102543709D01*
X126655250Y-102400000D01*
X126636330Y-102256291D01*
X126580861Y-102122375D01*
X126492621Y-102007379D01*
X126377625Y-101919139D01*
X126377624Y-101919138D01*
X126377622Y-101919137D01*
X126243712Y-101863671D01*
X126243710Y-101863670D01*
X126243709Y-101863670D01*
X126171854Y-101854210D01*
X126100001Y-101844750D01*
X126099999Y-101844750D01*
X125956291Y-101863670D01*
X125956287Y-101863671D01*
X125822377Y-101919137D01*
X125707379Y-102007379D01*
X125619137Y-102122377D01*
X125563671Y-102256287D01*
X125563670Y-102256291D01*
X125554279Y-102327625D01*
X125544750Y-102400000D01*
X111015325Y-102400000D01*
X111070861Y-102327625D01*
X111126330Y-102193709D01*
X111136608Y-102115640D01*
X111164873Y-102051747D01*
X111223197Y-102013275D01*
X111275729Y-102008889D01*
X111374249Y-102021859D01*
X111399999Y-102025250D01*
X111400000Y-102025250D01*
X111400001Y-102025250D01*
X111421837Y-102022375D01*
X111543709Y-102006330D01*
X111677625Y-101950861D01*
X111792621Y-101862621D01*
X111880861Y-101747625D01*
X111936330Y-101613709D01*
X111955250Y-101470000D01*
X111936330Y-101326291D01*
X111925440Y-101300000D01*
X127244750Y-101300000D01*
X127253132Y-101363670D01*
X127263670Y-101443708D01*
X127263671Y-101443712D01*
X127319137Y-101577622D01*
X127319138Y-101577624D01*
X127319139Y-101577625D01*
X127407379Y-101692621D01*
X127522375Y-101780861D01*
X127656291Y-101836330D01*
X127783280Y-101853048D01*
X127799999Y-101855250D01*
X127800000Y-101855250D01*
X127800001Y-101855250D01*
X127814977Y-101853278D01*
X127943709Y-101836330D01*
X128077625Y-101780861D01*
X128192621Y-101692621D01*
X128280861Y-101577625D01*
X128336330Y-101443709D01*
X128355250Y-101300000D01*
X128336330Y-101156291D01*
X128280861Y-101022375D01*
X128192621Y-100907379D01*
X128077625Y-100819139D01*
X128077624Y-100819138D01*
X128077622Y-100819137D01*
X127943712Y-100763671D01*
X127943710Y-100763670D01*
X127943709Y-100763670D01*
X127871854Y-100754210D01*
X127800001Y-100744750D01*
X127799999Y-100744750D01*
X127656291Y-100763670D01*
X127656287Y-100763671D01*
X127522377Y-100819137D01*
X127407379Y-100907379D01*
X127319137Y-101022377D01*
X127263671Y-101156287D01*
X127263670Y-101156291D01*
X127244750Y-101300000D01*
X111925440Y-101300000D01*
X111880861Y-101192375D01*
X111792621Y-101077379D01*
X111677625Y-100989139D01*
X111677624Y-100989138D01*
X111677622Y-100989137D01*
X111543712Y-100933671D01*
X111543710Y-100933670D01*
X111543709Y-100933670D01*
X111471854Y-100924210D01*
X111400001Y-100914750D01*
X111399999Y-100914750D01*
X111256291Y-100933670D01*
X111256287Y-100933671D01*
X111122377Y-100989137D01*
X111007379Y-101077379D01*
X110919137Y-101192377D01*
X110863671Y-101326287D01*
X110863670Y-101326292D01*
X110853392Y-101404357D01*
X110825125Y-101468254D01*
X110766800Y-101506724D01*
X110714268Y-101511110D01*
X110590002Y-101494750D01*
X110589999Y-101494750D01*
X110446291Y-101513670D01*
X110446287Y-101513671D01*
X110312377Y-101569137D01*
X110197379Y-101657379D01*
X110109137Y-101772377D01*
X110053671Y-101906287D01*
X110053670Y-101906291D01*
X110035617Y-102043418D01*
X110034750Y-102050000D01*
X108339877Y-102050000D01*
X108443709Y-102036330D01*
X108577625Y-101980861D01*
X108692621Y-101892621D01*
X108780861Y-101777625D01*
X108836330Y-101643709D01*
X108855250Y-101500000D01*
X108836330Y-101356291D01*
X108780861Y-101222375D01*
X108692621Y-101107379D01*
X108577625Y-101019139D01*
X108577624Y-101019138D01*
X108577622Y-101019137D01*
X108443712Y-100963671D01*
X108443710Y-100963670D01*
X108443709Y-100963670D01*
X108371854Y-100954210D01*
X108300001Y-100944750D01*
X108299999Y-100944750D01*
X108156291Y-100963670D01*
X108156287Y-100963671D01*
X108022377Y-101019137D01*
X107907379Y-101107379D01*
X107819137Y-101222377D01*
X107763671Y-101356287D01*
X107763670Y-101356291D01*
X107748930Y-101468254D01*
X107744750Y-101500000D01*
X94483005Y-101500000D01*
X94377625Y-101419139D01*
X94377624Y-101419138D01*
X94377622Y-101419137D01*
X94243712Y-101363671D01*
X94243710Y-101363670D01*
X94243709Y-101363670D01*
X94171854Y-101354210D01*
X94100001Y-101344750D01*
X94099999Y-101344750D01*
X93956291Y-101363670D01*
X93956287Y-101363671D01*
X93822377Y-101419137D01*
X93707379Y-101507379D01*
X93619137Y-101622377D01*
X93563671Y-101756287D01*
X93563670Y-101756291D01*
X93545722Y-101892620D01*
X93544750Y-101900000D01*
X93563632Y-102043424D01*
X93563670Y-102043708D01*
X93563671Y-102043712D01*
X93619138Y-102177623D01*
X93619139Y-102177625D01*
X93637346Y-102201353D01*
X93662540Y-102266522D01*
X93648502Y-102334967D01*
X93614457Y-102375214D01*
X93507381Y-102457377D01*
X93507380Y-102457378D01*
X93507379Y-102457379D01*
X93480337Y-102492621D01*
X93419137Y-102572377D01*
X93363671Y-102706287D01*
X93363670Y-102706291D01*
X93350273Y-102808053D01*
X93344750Y-102850000D01*
X92072025Y-102850000D01*
X92070369Y-102822202D01*
X92104582Y-102761281D01*
X92115716Y-102751632D01*
X92192621Y-102692621D01*
X92280861Y-102577625D01*
X92336330Y-102443709D01*
X92355250Y-102300000D01*
X92336330Y-102156291D01*
X92293027Y-102051747D01*
X92280862Y-102022377D01*
X92280861Y-102022376D01*
X92280861Y-102022375D01*
X92192621Y-101907379D01*
X92077625Y-101819139D01*
X92077624Y-101819138D01*
X92077622Y-101819137D01*
X91943712Y-101763671D01*
X91943710Y-101763670D01*
X91943709Y-101763670D01*
X91871854Y-101754210D01*
X91800001Y-101744750D01*
X91799999Y-101744750D01*
X91656291Y-101763670D01*
X91656287Y-101763671D01*
X91522377Y-101819137D01*
X91407379Y-101907379D01*
X91319137Y-102022377D01*
X91263671Y-102156287D01*
X91263670Y-102156291D01*
X91249158Y-102266522D01*
X91244750Y-102300000D01*
X91257915Y-102400000D01*
X91263670Y-102443708D01*
X91263671Y-102443712D01*
X91319137Y-102577622D01*
X91319138Y-102577624D01*
X91319139Y-102577625D01*
X91407379Y-102692621D01*
X91412923Y-102696875D01*
X91484273Y-102751625D01*
X91525476Y-102808053D01*
X91529630Y-102877799D01*
X91495417Y-102938719D01*
X91484273Y-102948375D01*
X91407381Y-103007377D01*
X91319137Y-103122377D01*
X91263671Y-103256287D01*
X91263670Y-103256291D01*
X91250639Y-103355273D01*
X91244750Y-103400000D01*
X82550500Y-103400000D01*
X82550500Y-100600000D01*
X94944750Y-100600000D01*
X94963670Y-100743708D01*
X94963671Y-100743712D01*
X95019137Y-100877622D01*
X95019138Y-100877624D01*
X95019139Y-100877625D01*
X95107379Y-100992621D01*
X95222375Y-101080861D01*
X95356291Y-101136330D01*
X95483280Y-101153048D01*
X95499999Y-101155250D01*
X95500000Y-101155250D01*
X95500001Y-101155250D01*
X95514977Y-101153278D01*
X95643709Y-101136330D01*
X95777625Y-101080861D01*
X95874515Y-101006514D01*
X95939682Y-100981321D01*
X96008127Y-100995359D01*
X96025480Y-101006510D01*
X96122375Y-101080861D01*
X96256291Y-101136330D01*
X96383280Y-101153048D01*
X96399999Y-101155250D01*
X96400000Y-101155250D01*
X96400001Y-101155250D01*
X96414977Y-101153278D01*
X96543709Y-101136330D01*
X96677625Y-101080861D01*
X96792621Y-100992621D01*
X96880861Y-100877625D01*
X96936330Y-100743709D01*
X96955250Y-100600000D01*
X96936330Y-100456291D01*
X96886641Y-100336329D01*
X96880862Y-100322377D01*
X96880861Y-100322376D01*
X96880861Y-100322375D01*
X96792621Y-100207379D01*
X96677625Y-100119139D01*
X96677624Y-100119138D01*
X96677622Y-100119137D01*
X96543712Y-100063671D01*
X96543710Y-100063670D01*
X96543709Y-100063670D01*
X96471854Y-100054210D01*
X96400001Y-100044750D01*
X96399999Y-100044750D01*
X96256291Y-100063670D01*
X96256287Y-100063671D01*
X96122377Y-100119137D01*
X96087581Y-100145836D01*
X96025484Y-100193485D01*
X95960318Y-100218679D01*
X95891873Y-100204641D01*
X95874519Y-100193489D01*
X95777625Y-100119139D01*
X95777624Y-100119138D01*
X95777622Y-100119137D01*
X95643712Y-100063671D01*
X95643710Y-100063670D01*
X95643709Y-100063670D01*
X95571854Y-100054210D01*
X95500001Y-100044750D01*
X95499999Y-100044750D01*
X95356291Y-100063670D01*
X95356287Y-100063671D01*
X95222377Y-100119137D01*
X95107379Y-100207379D01*
X95019137Y-100322377D01*
X94963671Y-100456287D01*
X94963670Y-100456291D01*
X94944750Y-100599999D01*
X94944750Y-100600000D01*
X82550500Y-100600000D01*
X82550500Y-99500000D01*
X85744750Y-99500000D01*
X85763670Y-99643708D01*
X85763671Y-99643712D01*
X85819137Y-99777622D01*
X85819138Y-99777624D01*
X85819139Y-99777625D01*
X85907379Y-99892621D01*
X86022375Y-99980861D01*
X86156291Y-100036330D01*
X86283280Y-100053048D01*
X86299999Y-100055250D01*
X86300000Y-100055250D01*
X86300001Y-100055250D01*
X86314977Y-100053278D01*
X86443709Y-100036330D01*
X86577625Y-99980861D01*
X86692621Y-99892621D01*
X86780861Y-99777625D01*
X86836330Y-99643709D01*
X86855250Y-99500000D01*
X87744750Y-99500000D01*
X87763670Y-99643708D01*
X87763671Y-99643712D01*
X87819137Y-99777622D01*
X87819138Y-99777624D01*
X87819139Y-99777625D01*
X87907379Y-99892621D01*
X88022375Y-99980861D01*
X88156291Y-100036330D01*
X88283280Y-100053048D01*
X88299999Y-100055250D01*
X88300000Y-100055250D01*
X88300001Y-100055250D01*
X88314977Y-100053278D01*
X88443709Y-100036330D01*
X88577625Y-99980861D01*
X88692621Y-99892621D01*
X88780861Y-99777625D01*
X88836330Y-99643709D01*
X88855250Y-99500000D01*
X88836330Y-99356291D01*
X88813014Y-99300000D01*
X101944750Y-99300000D01*
X101955137Y-99378899D01*
X101963670Y-99443708D01*
X101963671Y-99443712D01*
X102019137Y-99577622D01*
X102019138Y-99577624D01*
X102019139Y-99577625D01*
X102107379Y-99692621D01*
X102222375Y-99780861D01*
X102356291Y-99836330D01*
X102483280Y-99853048D01*
X102499999Y-99855250D01*
X102500000Y-99855250D01*
X102500001Y-99855250D01*
X102514977Y-99853278D01*
X102643709Y-99836330D01*
X102731419Y-99800000D01*
X106329245Y-99800000D01*
X106348165Y-99943708D01*
X106348166Y-99943712D01*
X106403632Y-100077622D01*
X106403633Y-100077624D01*
X106403634Y-100077625D01*
X106491874Y-100192621D01*
X106606870Y-100280861D01*
X106740786Y-100336330D01*
X106867775Y-100353048D01*
X106884494Y-100355250D01*
X106884495Y-100355250D01*
X106884496Y-100355250D01*
X106899472Y-100353278D01*
X107028204Y-100336330D01*
X107162120Y-100280861D01*
X107277116Y-100192621D01*
X107365356Y-100077625D01*
X107420825Y-99943709D01*
X107439745Y-99800000D01*
X107420825Y-99656291D01*
X107365356Y-99522375D01*
X107277116Y-99407379D01*
X107162120Y-99319139D01*
X107162119Y-99319138D01*
X107162117Y-99319137D01*
X107028207Y-99263671D01*
X107028205Y-99263670D01*
X107028204Y-99263670D01*
X106956349Y-99254210D01*
X106884496Y-99244750D01*
X106884494Y-99244750D01*
X106740786Y-99263670D01*
X106740782Y-99263671D01*
X106606872Y-99319137D01*
X106491874Y-99407379D01*
X106403632Y-99522377D01*
X106348166Y-99656287D01*
X106348165Y-99656291D01*
X106329245Y-99799999D01*
X106329245Y-99800000D01*
X102731419Y-99800000D01*
X102777625Y-99780861D01*
X102892621Y-99692621D01*
X102980861Y-99577625D01*
X103036330Y-99443709D01*
X103040746Y-99410164D01*
X103069013Y-99346269D01*
X103127337Y-99307798D01*
X103197202Y-99306967D01*
X103256425Y-99344039D01*
X103278246Y-99378899D01*
X103319137Y-99477622D01*
X103319138Y-99477624D01*
X103319139Y-99477625D01*
X103407379Y-99592621D01*
X103522375Y-99680861D01*
X103522376Y-99680861D01*
X103522377Y-99680862D01*
X103567013Y-99699350D01*
X103656291Y-99736330D01*
X103783280Y-99753048D01*
X103799999Y-99755250D01*
X103800000Y-99755250D01*
X103800001Y-99755250D01*
X103814977Y-99753278D01*
X103943709Y-99736330D01*
X104077625Y-99680861D01*
X104192621Y-99592621D01*
X104280861Y-99477625D01*
X104336330Y-99343709D01*
X104355250Y-99200000D01*
X104354332Y-99193031D01*
X104349495Y-99156287D01*
X104336330Y-99056291D01*
X104286641Y-98936329D01*
X104280862Y-98922377D01*
X104280861Y-98922376D01*
X104280861Y-98922375D01*
X104192621Y-98807379D01*
X104077625Y-98719139D01*
X104077624Y-98719138D01*
X104077622Y-98719137D01*
X103943712Y-98663671D01*
X103943710Y-98663670D01*
X103943709Y-98663670D01*
X103871854Y-98654210D01*
X103800001Y-98644750D01*
X103799999Y-98644750D01*
X103656291Y-98663670D01*
X103656287Y-98663671D01*
X103522377Y-98719137D01*
X103407379Y-98807379D01*
X103319137Y-98922377D01*
X103263671Y-99056287D01*
X103263670Y-99056290D01*
X103259253Y-99089837D01*
X103230984Y-99153733D01*
X103172659Y-99192202D01*
X103102794Y-99193031D01*
X103043572Y-99155957D01*
X103021755Y-99121104D01*
X102980861Y-99022375D01*
X102892621Y-98907379D01*
X102777625Y-98819139D01*
X102777624Y-98819138D01*
X102777622Y-98819137D01*
X102643712Y-98763671D01*
X102643710Y-98763670D01*
X102643709Y-98763670D01*
X102571854Y-98754210D01*
X102500001Y-98744750D01*
X102499999Y-98744750D01*
X102356291Y-98763670D01*
X102356287Y-98763671D01*
X102222377Y-98819137D01*
X102107379Y-98907379D01*
X102019137Y-99022377D01*
X101963671Y-99156287D01*
X101963670Y-99156291D01*
X101944750Y-99300000D01*
X88813014Y-99300000D01*
X88780861Y-99222375D01*
X88692621Y-99107379D01*
X88577625Y-99019139D01*
X88577624Y-99019138D01*
X88577622Y-99019137D01*
X88443712Y-98963671D01*
X88443710Y-98963670D01*
X88443709Y-98963670D01*
X88371854Y-98954210D01*
X88300001Y-98944750D01*
X88299999Y-98944750D01*
X88156291Y-98963670D01*
X88156287Y-98963671D01*
X88022377Y-99019137D01*
X87907379Y-99107379D01*
X87819137Y-99222377D01*
X87763671Y-99356287D01*
X87763670Y-99356291D01*
X87744750Y-99499999D01*
X87744750Y-99500000D01*
X86855250Y-99500000D01*
X86836330Y-99356291D01*
X86780861Y-99222375D01*
X86692621Y-99107379D01*
X86577625Y-99019139D01*
X86577624Y-99019138D01*
X86577622Y-99019137D01*
X86443712Y-98963671D01*
X86443710Y-98963670D01*
X86443709Y-98963670D01*
X86371854Y-98954210D01*
X86300001Y-98944750D01*
X86299999Y-98944750D01*
X86156291Y-98963670D01*
X86156287Y-98963671D01*
X86022377Y-99019137D01*
X85907379Y-99107379D01*
X85819137Y-99222377D01*
X85763671Y-99356287D01*
X85763670Y-99356291D01*
X85744750Y-99499999D01*
X85744750Y-99500000D01*
X82550500Y-99500000D01*
X82550500Y-98000000D01*
X95944750Y-98000000D01*
X95963670Y-98143708D01*
X95963671Y-98143712D01*
X96019137Y-98277622D01*
X96019138Y-98277624D01*
X96019139Y-98277625D01*
X96107379Y-98392621D01*
X96222375Y-98480861D01*
X96356291Y-98536330D01*
X96483280Y-98553048D01*
X96499999Y-98555250D01*
X96500000Y-98555250D01*
X96500001Y-98555250D01*
X96514977Y-98553278D01*
X96643709Y-98536330D01*
X96777625Y-98480861D01*
X96883005Y-98400000D01*
X105244750Y-98400000D01*
X105262698Y-98536329D01*
X105263670Y-98543708D01*
X105263671Y-98543712D01*
X105319137Y-98677622D01*
X105319138Y-98677624D01*
X105319139Y-98677625D01*
X105407379Y-98792621D01*
X105522375Y-98880861D01*
X105656291Y-98936330D01*
X105783280Y-98953048D01*
X105799999Y-98955250D01*
X105800000Y-98955250D01*
X105800001Y-98955250D01*
X105814977Y-98953278D01*
X105943709Y-98936330D01*
X106077625Y-98880861D01*
X106192621Y-98792621D01*
X106280861Y-98677625D01*
X106336330Y-98543709D01*
X106355250Y-98400000D01*
X106336330Y-98256291D01*
X106280861Y-98122375D01*
X106192621Y-98007379D01*
X106077625Y-97919139D01*
X106077624Y-97919138D01*
X106077622Y-97919137D01*
X105943712Y-97863671D01*
X105943710Y-97863670D01*
X105943709Y-97863670D01*
X105871854Y-97854210D01*
X105800001Y-97844750D01*
X105799999Y-97844750D01*
X105656291Y-97863670D01*
X105656287Y-97863671D01*
X105522377Y-97919137D01*
X105407379Y-98007379D01*
X105319137Y-98122377D01*
X105263671Y-98256287D01*
X105263670Y-98256291D01*
X105245722Y-98392620D01*
X105244750Y-98400000D01*
X96883005Y-98400000D01*
X96892621Y-98392621D01*
X96980861Y-98277625D01*
X97036330Y-98143709D01*
X97055250Y-98000000D01*
X97036330Y-97856291D01*
X96980861Y-97722375D01*
X96917617Y-97639954D01*
X129117097Y-97639954D01*
X129137136Y-97843420D01*
X129196485Y-98039064D01*
X129292859Y-98219369D01*
X129292861Y-98219372D01*
X129422561Y-98377412D01*
X129580601Y-98507112D01*
X129580604Y-98507114D01*
X129760909Y-98603488D01*
X129760911Y-98603489D01*
X129956556Y-98662838D01*
X130160020Y-98682877D01*
X130363484Y-98662838D01*
X130559129Y-98603489D01*
X130739437Y-98507113D01*
X130897478Y-98377412D01*
X131027179Y-98219371D01*
X131123555Y-98039063D01*
X131182904Y-97843418D01*
X131202943Y-97639954D01*
X131182904Y-97436490D01*
X131123555Y-97240845D01*
X131067691Y-97136330D01*
X131027180Y-97060538D01*
X131027178Y-97060535D01*
X130897478Y-96902495D01*
X130739438Y-96772795D01*
X130739435Y-96772793D01*
X130559130Y-96676419D01*
X130363486Y-96617070D01*
X130160020Y-96597031D01*
X129956553Y-96617070D01*
X129760909Y-96676419D01*
X129580604Y-96772793D01*
X129580601Y-96772795D01*
X129422561Y-96902495D01*
X129292861Y-97060535D01*
X129292859Y-97060538D01*
X129196485Y-97240843D01*
X129137136Y-97436487D01*
X129117097Y-97639954D01*
X96917617Y-97639954D01*
X96892621Y-97607379D01*
X96777625Y-97519139D01*
X96777624Y-97519138D01*
X96777622Y-97519137D01*
X96643712Y-97463671D01*
X96643710Y-97463670D01*
X96643709Y-97463670D01*
X96571854Y-97454210D01*
X96500001Y-97444750D01*
X96499999Y-97444750D01*
X96356291Y-97463670D01*
X96356287Y-97463671D01*
X96222377Y-97519137D01*
X96107379Y-97607379D01*
X96019137Y-97722377D01*
X95963671Y-97856287D01*
X95963670Y-97856291D01*
X95944750Y-97999999D01*
X95944750Y-98000000D01*
X82550500Y-98000000D01*
X82550500Y-96000000D01*
X88844750Y-96000000D01*
X88857915Y-96100000D01*
X88863670Y-96143708D01*
X88863671Y-96143712D01*
X88919137Y-96277622D01*
X88919138Y-96277624D01*
X88919139Y-96277625D01*
X89007379Y-96392621D01*
X89122375Y-96480861D01*
X89122376Y-96480861D01*
X89122377Y-96480862D01*
X89167013Y-96499350D01*
X89256291Y-96536330D01*
X89383280Y-96553048D01*
X89399999Y-96555250D01*
X89400000Y-96555250D01*
X89400001Y-96555250D01*
X89414977Y-96553278D01*
X89543709Y-96536330D01*
X89677625Y-96480861D01*
X89783005Y-96400000D01*
X94444750Y-96400000D01*
X94462698Y-96536329D01*
X94463670Y-96543708D01*
X94463671Y-96543712D01*
X94519137Y-96677622D01*
X94519138Y-96677624D01*
X94519139Y-96677625D01*
X94607379Y-96792621D01*
X94722375Y-96880861D01*
X94856291Y-96936330D01*
X94983280Y-96953048D01*
X94999999Y-96955250D01*
X95000000Y-96955250D01*
X95000001Y-96955250D01*
X95014977Y-96953278D01*
X95143709Y-96936330D01*
X95277625Y-96880861D01*
X95392621Y-96792621D01*
X95480861Y-96677625D01*
X95513014Y-96600000D01*
X103944750Y-96600000D01*
X103957915Y-96700000D01*
X103963670Y-96743708D01*
X103963671Y-96743712D01*
X104019137Y-96877622D01*
X104019138Y-96877624D01*
X104019139Y-96877625D01*
X104107379Y-96992621D01*
X104222375Y-97080861D01*
X104222376Y-97080861D01*
X104222377Y-97080862D01*
X104267013Y-97099350D01*
X104356291Y-97136330D01*
X104483280Y-97153048D01*
X104499999Y-97155250D01*
X104500000Y-97155250D01*
X104500001Y-97155250D01*
X104514977Y-97153278D01*
X104643709Y-97136330D01*
X104777625Y-97080861D01*
X104892621Y-96992621D01*
X104980861Y-96877625D01*
X105036330Y-96743709D01*
X105042085Y-96700000D01*
X119844750Y-96700000D01*
X119863670Y-96843708D01*
X119863671Y-96843712D01*
X119919137Y-96977622D01*
X119919138Y-96977624D01*
X119919139Y-96977625D01*
X120007379Y-97092621D01*
X120122375Y-97180861D01*
X120256291Y-97236330D01*
X120383280Y-97253048D01*
X120399999Y-97255250D01*
X120400000Y-97255250D01*
X120400001Y-97255250D01*
X120414977Y-97253278D01*
X120543709Y-97236330D01*
X120677625Y-97180861D01*
X120792621Y-97092621D01*
X120880861Y-96977625D01*
X120936330Y-96843709D01*
X120955250Y-96700000D01*
X120936330Y-96556291D01*
X120880861Y-96422375D01*
X120792621Y-96307379D01*
X120730835Y-96259969D01*
X131957077Y-96259969D01*
X131977116Y-96463435D01*
X132036465Y-96659079D01*
X132132839Y-96839384D01*
X132132841Y-96839387D01*
X132262541Y-96997427D01*
X132420581Y-97127127D01*
X132420584Y-97127129D01*
X132600889Y-97223503D01*
X132600891Y-97223504D01*
X132796536Y-97282853D01*
X133000000Y-97302892D01*
X133203464Y-97282853D01*
X133399109Y-97223504D01*
X133579417Y-97127128D01*
X133737458Y-96997427D01*
X133867159Y-96839386D01*
X133963535Y-96659078D01*
X134022884Y-96463433D01*
X134042923Y-96259969D01*
X134022884Y-96056505D01*
X133963535Y-95860860D01*
X133950423Y-95836329D01*
X133867160Y-95680553D01*
X133867158Y-95680550D01*
X133737458Y-95522510D01*
X133579418Y-95392810D01*
X133579415Y-95392808D01*
X133399110Y-95296434D01*
X133203466Y-95237085D01*
X133000000Y-95217046D01*
X132796533Y-95237085D01*
X132600889Y-95296434D01*
X132420584Y-95392808D01*
X132420581Y-95392810D01*
X132262541Y-95522510D01*
X132132841Y-95680550D01*
X132132839Y-95680553D01*
X132036465Y-95860858D01*
X131977116Y-96056502D01*
X131957077Y-96259969D01*
X120730835Y-96259969D01*
X120677625Y-96219139D01*
X120677624Y-96219138D01*
X120677622Y-96219137D01*
X120543712Y-96163671D01*
X120543710Y-96163670D01*
X120543709Y-96163670D01*
X120471854Y-96154210D01*
X120400001Y-96144750D01*
X120399999Y-96144750D01*
X120256291Y-96163670D01*
X120256287Y-96163671D01*
X120122377Y-96219137D01*
X120007379Y-96307379D01*
X119919137Y-96422377D01*
X119863671Y-96556287D01*
X119863670Y-96556291D01*
X119844750Y-96699999D01*
X119844750Y-96700000D01*
X105042085Y-96700000D01*
X105055250Y-96600000D01*
X105036330Y-96456291D01*
X104980861Y-96322375D01*
X104892621Y-96207379D01*
X104777625Y-96119139D01*
X104777624Y-96119138D01*
X104777622Y-96119137D01*
X104731420Y-96100000D01*
X115644750Y-96100000D01*
X115653132Y-96163670D01*
X115663670Y-96243708D01*
X115663671Y-96243712D01*
X115719137Y-96377622D01*
X115719138Y-96377624D01*
X115719139Y-96377625D01*
X115807379Y-96492621D01*
X115922375Y-96580861D01*
X116056291Y-96636330D01*
X116183280Y-96653048D01*
X116199999Y-96655250D01*
X116200000Y-96655250D01*
X116200001Y-96655250D01*
X116214977Y-96653278D01*
X116343709Y-96636330D01*
X116477625Y-96580861D01*
X116592621Y-96492621D01*
X116680861Y-96377625D01*
X116736330Y-96243709D01*
X116755250Y-96100000D01*
X116736330Y-95956291D01*
X116694478Y-95855250D01*
X116680862Y-95822377D01*
X116680861Y-95822376D01*
X116680861Y-95822375D01*
X116592621Y-95707379D01*
X116477625Y-95619139D01*
X116477624Y-95619138D01*
X116477622Y-95619137D01*
X116343712Y-95563671D01*
X116343710Y-95563670D01*
X116343709Y-95563670D01*
X116271854Y-95554210D01*
X116200001Y-95544750D01*
X116199999Y-95544750D01*
X116056291Y-95563670D01*
X116056287Y-95563671D01*
X115922377Y-95619137D01*
X115807379Y-95707379D01*
X115719137Y-95822377D01*
X115663671Y-95956287D01*
X115663670Y-95956291D01*
X115656846Y-96008127D01*
X115644750Y-96100000D01*
X104731420Y-96100000D01*
X104643712Y-96063671D01*
X104643710Y-96063670D01*
X104643709Y-96063670D01*
X104571854Y-96054210D01*
X104500001Y-96044750D01*
X104499999Y-96044750D01*
X104356291Y-96063670D01*
X104356287Y-96063671D01*
X104222377Y-96119137D01*
X104107379Y-96207379D01*
X104019137Y-96322377D01*
X103963671Y-96456287D01*
X103963670Y-96456291D01*
X103947270Y-96580862D01*
X103944750Y-96600000D01*
X95513014Y-96600000D01*
X95536330Y-96543709D01*
X95555250Y-96400000D01*
X95536330Y-96256291D01*
X95480861Y-96122375D01*
X95406514Y-96025484D01*
X95381321Y-95960318D01*
X95395359Y-95891873D01*
X95406510Y-95874519D01*
X95480861Y-95777625D01*
X95536330Y-95643709D01*
X95555250Y-95500000D01*
X95536330Y-95356291D01*
X95486641Y-95236329D01*
X95480862Y-95222377D01*
X95480861Y-95222376D01*
X95480861Y-95222375D01*
X95392621Y-95107379D01*
X95277625Y-95019139D01*
X95277624Y-95019138D01*
X95277622Y-95019137D01*
X95143712Y-94963671D01*
X95143710Y-94963670D01*
X95143709Y-94963670D01*
X95071854Y-94954210D01*
X95000001Y-94944750D01*
X94999999Y-94944750D01*
X94856291Y-94963670D01*
X94856287Y-94963671D01*
X94722377Y-95019137D01*
X94607379Y-95107379D01*
X94519137Y-95222377D01*
X94463671Y-95356287D01*
X94463670Y-95356291D01*
X94450642Y-95455250D01*
X94444750Y-95500000D01*
X94458144Y-95601739D01*
X94463670Y-95643708D01*
X94463671Y-95643712D01*
X94519137Y-95777622D01*
X94519138Y-95777624D01*
X94519139Y-95777625D01*
X94593485Y-95874515D01*
X94618679Y-95939682D01*
X94604641Y-96008127D01*
X94593489Y-96025480D01*
X94545836Y-96087581D01*
X94519137Y-96122377D01*
X94463671Y-96256287D01*
X94463670Y-96256291D01*
X94445722Y-96392620D01*
X94444750Y-96400000D01*
X89783005Y-96400000D01*
X89792621Y-96392621D01*
X89880861Y-96277625D01*
X89936330Y-96143709D01*
X89955250Y-96000000D01*
X89936330Y-95856291D01*
X89880861Y-95722375D01*
X89792621Y-95607379D01*
X89677625Y-95519139D01*
X89677624Y-95519138D01*
X89677622Y-95519137D01*
X89543712Y-95463671D01*
X89543710Y-95463670D01*
X89543709Y-95463670D01*
X89471854Y-95454210D01*
X89400001Y-95444750D01*
X89399999Y-95444750D01*
X89256291Y-95463670D01*
X89256287Y-95463671D01*
X89122377Y-95519137D01*
X89007379Y-95607379D01*
X88919137Y-95722377D01*
X88863671Y-95856287D01*
X88863670Y-95856291D01*
X88850505Y-95956291D01*
X88844750Y-96000000D01*
X82550500Y-96000000D01*
X82550500Y-94700000D01*
X90744750Y-94700000D01*
X90753132Y-94763670D01*
X90763670Y-94843708D01*
X90763671Y-94843712D01*
X90819137Y-94977622D01*
X90819138Y-94977624D01*
X90819139Y-94977625D01*
X90907379Y-95092621D01*
X91022375Y-95180861D01*
X91156291Y-95236330D01*
X91283280Y-95253048D01*
X91299999Y-95255250D01*
X91300000Y-95255250D01*
X91300001Y-95255250D01*
X91314977Y-95253278D01*
X91443709Y-95236330D01*
X91577625Y-95180861D01*
X91692621Y-95092621D01*
X91780861Y-94977625D01*
X91813014Y-94900000D01*
X96344750Y-94900000D01*
X96353132Y-94963670D01*
X96363670Y-95043708D01*
X96363671Y-95043712D01*
X96419137Y-95177622D01*
X96419138Y-95177623D01*
X96419139Y-95177625D01*
X96507379Y-95292621D01*
X96622375Y-95380861D01*
X96745356Y-95431800D01*
X96799756Y-95475639D01*
X96821822Y-95541933D01*
X96804543Y-95609632D01*
X96796277Y-95621846D01*
X96719139Y-95722374D01*
X96719138Y-95722376D01*
X96663671Y-95856287D01*
X96663670Y-95856291D01*
X96650505Y-95956291D01*
X96644750Y-96000000D01*
X96657915Y-96100000D01*
X96663670Y-96143708D01*
X96663671Y-96143712D01*
X96719137Y-96277622D01*
X96719138Y-96277624D01*
X96719139Y-96277625D01*
X96807379Y-96392621D01*
X96922375Y-96480861D01*
X96922376Y-96480861D01*
X96922377Y-96480862D01*
X96967013Y-96499350D01*
X97056291Y-96536330D01*
X97183280Y-96553048D01*
X97199999Y-96555250D01*
X97200000Y-96555250D01*
X97200001Y-96555250D01*
X97214977Y-96553278D01*
X97343709Y-96536330D01*
X97477625Y-96480861D01*
X97592621Y-96392621D01*
X97680861Y-96277625D01*
X97736330Y-96143709D01*
X97755250Y-96000000D01*
X97736330Y-95856291D01*
X97680861Y-95722375D01*
X97592621Y-95607379D01*
X97477625Y-95519139D01*
X97477624Y-95519138D01*
X97477622Y-95519137D01*
X97354646Y-95468200D01*
X97300242Y-95424360D01*
X97278177Y-95358066D01*
X97292997Y-95300000D01*
X100344750Y-95300000D01*
X100352160Y-95356287D01*
X100363670Y-95443708D01*
X100363671Y-95443712D01*
X100419137Y-95577622D01*
X100419138Y-95577624D01*
X100419139Y-95577625D01*
X100507379Y-95692621D01*
X100622375Y-95780861D01*
X100756291Y-95836330D01*
X100883280Y-95853048D01*
X100899999Y-95855250D01*
X100900000Y-95855250D01*
X100900001Y-95855250D01*
X100914977Y-95853278D01*
X101043709Y-95836330D01*
X101177625Y-95780861D01*
X101292621Y-95692621D01*
X101380861Y-95577625D01*
X101436330Y-95443709D01*
X101455250Y-95300000D01*
X101436330Y-95156291D01*
X101421662Y-95120878D01*
X123423872Y-95120878D01*
X123442792Y-95264586D01*
X123442793Y-95264590D01*
X123498259Y-95398500D01*
X123498260Y-95398502D01*
X123498261Y-95398503D01*
X123586501Y-95513499D01*
X123701497Y-95601739D01*
X123701498Y-95601739D01*
X123701499Y-95601740D01*
X123739410Y-95617443D01*
X123835413Y-95657208D01*
X123962402Y-95673926D01*
X123979121Y-95676128D01*
X123979122Y-95676128D01*
X123979123Y-95676128D01*
X123994099Y-95674156D01*
X124122831Y-95657208D01*
X124256747Y-95601739D01*
X124371743Y-95513499D01*
X124459983Y-95398503D01*
X124515452Y-95264587D01*
X124534372Y-95120878D01*
X124515452Y-94977169D01*
X124475198Y-94879985D01*
X129117097Y-94879985D01*
X129137136Y-95083451D01*
X129196485Y-95279095D01*
X129292859Y-95459400D01*
X129292861Y-95459403D01*
X129422561Y-95617443D01*
X129580601Y-95747143D01*
X129580604Y-95747145D01*
X129747457Y-95836329D01*
X129760911Y-95843520D01*
X129956556Y-95902869D01*
X130160020Y-95922908D01*
X130363484Y-95902869D01*
X130559129Y-95843520D01*
X130739437Y-95747144D01*
X130897478Y-95617443D01*
X131027179Y-95459402D01*
X131123555Y-95279094D01*
X131182904Y-95083449D01*
X131202943Y-94879985D01*
X131182904Y-94676521D01*
X131123555Y-94480876D01*
X131090555Y-94419137D01*
X131027180Y-94300569D01*
X131027178Y-94300566D01*
X130897478Y-94142526D01*
X130739438Y-94012826D01*
X130739435Y-94012824D01*
X130559130Y-93916450D01*
X130363486Y-93857101D01*
X130160020Y-93837062D01*
X129956553Y-93857101D01*
X129760909Y-93916450D01*
X129580604Y-94012824D01*
X129580601Y-94012826D01*
X129422561Y-94142526D01*
X129292861Y-94300566D01*
X129292859Y-94300569D01*
X129196485Y-94480874D01*
X129137136Y-94676518D01*
X129117097Y-94879985D01*
X124475198Y-94879985D01*
X124460172Y-94843709D01*
X124459984Y-94843255D01*
X124459983Y-94843254D01*
X124459983Y-94843253D01*
X124371743Y-94728257D01*
X124256747Y-94640017D01*
X124256746Y-94640016D01*
X124256744Y-94640015D01*
X124122834Y-94584549D01*
X124122832Y-94584548D01*
X124122831Y-94584548D01*
X124050976Y-94575088D01*
X123979123Y-94565628D01*
X123979121Y-94565628D01*
X123835413Y-94584548D01*
X123835409Y-94584549D01*
X123701499Y-94640015D01*
X123586501Y-94728257D01*
X123498259Y-94843255D01*
X123442793Y-94977165D01*
X123442792Y-94977169D01*
X123423872Y-95120877D01*
X123423872Y-95120878D01*
X101421662Y-95120878D01*
X101380861Y-95022375D01*
X101292621Y-94907379D01*
X101177625Y-94819139D01*
X101177624Y-94819138D01*
X101177622Y-94819137D01*
X101043712Y-94763671D01*
X101043710Y-94763670D01*
X101043709Y-94763670D01*
X100971854Y-94754210D01*
X100900001Y-94744750D01*
X100899999Y-94744750D01*
X100756291Y-94763670D01*
X100756287Y-94763671D01*
X100622377Y-94819137D01*
X100507379Y-94907379D01*
X100419137Y-95022377D01*
X100363671Y-95156287D01*
X100363670Y-95156291D01*
X100345722Y-95292620D01*
X100344750Y-95300000D01*
X97292997Y-95300000D01*
X97295456Y-95290366D01*
X97303719Y-95278157D01*
X97380861Y-95177625D01*
X97436330Y-95043709D01*
X97455250Y-94900000D01*
X97436330Y-94756291D01*
X97399350Y-94667013D01*
X97380862Y-94622377D01*
X97380861Y-94622376D01*
X97380861Y-94622375D01*
X97292621Y-94507379D01*
X97177625Y-94419139D01*
X97177624Y-94419138D01*
X97177622Y-94419137D01*
X97043712Y-94363671D01*
X97043710Y-94363670D01*
X97043709Y-94363670D01*
X96971854Y-94354210D01*
X96900001Y-94344750D01*
X96899999Y-94344750D01*
X96756291Y-94363670D01*
X96756287Y-94363671D01*
X96622377Y-94419137D01*
X96507379Y-94507379D01*
X96419137Y-94622377D01*
X96363671Y-94756287D01*
X96363670Y-94756291D01*
X96344750Y-94900000D01*
X91813014Y-94900000D01*
X91836330Y-94843709D01*
X91855250Y-94700000D01*
X91836330Y-94556291D01*
X91780861Y-94422375D01*
X91692621Y-94307379D01*
X91577625Y-94219139D01*
X91577624Y-94219138D01*
X91577622Y-94219137D01*
X91443712Y-94163671D01*
X91443710Y-94163670D01*
X91443709Y-94163670D01*
X91371854Y-94154210D01*
X91300001Y-94144750D01*
X91299999Y-94144750D01*
X91156291Y-94163670D01*
X91156287Y-94163671D01*
X91022377Y-94219137D01*
X90907379Y-94307379D01*
X90819137Y-94422377D01*
X90763671Y-94556287D01*
X90763670Y-94556291D01*
X90747842Y-94676518D01*
X90744750Y-94700000D01*
X82550500Y-94700000D01*
X82550500Y-93200000D01*
X92044750Y-93200000D01*
X92057915Y-93300000D01*
X92063670Y-93343708D01*
X92063671Y-93343712D01*
X92119137Y-93477622D01*
X92119138Y-93477624D01*
X92119139Y-93477625D01*
X92207379Y-93592621D01*
X92322375Y-93680861D01*
X92322376Y-93680861D01*
X92322377Y-93680862D01*
X92367013Y-93699350D01*
X92456291Y-93736330D01*
X92600000Y-93755250D01*
X92610382Y-93753883D01*
X92679416Y-93764648D01*
X92731673Y-93811027D01*
X92749507Y-93860636D01*
X92754573Y-93899110D01*
X92760444Y-93943709D01*
X92763670Y-93968207D01*
X92763671Y-93968212D01*
X92819137Y-94102122D01*
X92819138Y-94102124D01*
X92819139Y-94102125D01*
X92907379Y-94217121D01*
X93022375Y-94305361D01*
X93156291Y-94360830D01*
X93283280Y-94377548D01*
X93299999Y-94379750D01*
X93300000Y-94379750D01*
X93300001Y-94379750D01*
X93314977Y-94377778D01*
X93443709Y-94360830D01*
X93577625Y-94305361D01*
X93692621Y-94217121D01*
X93780861Y-94102125D01*
X93836330Y-93968209D01*
X93855250Y-93824500D01*
X93852024Y-93800000D01*
X104744750Y-93800000D01*
X104763670Y-93943708D01*
X104763671Y-93943712D01*
X104819137Y-94077622D01*
X104819138Y-94077624D01*
X104819139Y-94077625D01*
X104907379Y-94192621D01*
X105022375Y-94280861D01*
X105156291Y-94336330D01*
X105283280Y-94353048D01*
X105299999Y-94355250D01*
X105300000Y-94355250D01*
X105300001Y-94355250D01*
X105314977Y-94353278D01*
X105443709Y-94336330D01*
X105577625Y-94280861D01*
X105692621Y-94192621D01*
X105780861Y-94077625D01*
X105836330Y-93943709D01*
X105855250Y-93800000D01*
X105836330Y-93656291D01*
X105780861Y-93522375D01*
X105706514Y-93425484D01*
X105681321Y-93360318D01*
X105693692Y-93300000D01*
X116944750Y-93300000D01*
X116958985Y-93408127D01*
X116963670Y-93443708D01*
X116963671Y-93443712D01*
X117019137Y-93577622D01*
X117019138Y-93577624D01*
X117019139Y-93577625D01*
X117107379Y-93692621D01*
X117222375Y-93780861D01*
X117356291Y-93836330D01*
X117483280Y-93853048D01*
X117499999Y-93855250D01*
X117500000Y-93855250D01*
X117500001Y-93855250D01*
X117514977Y-93853278D01*
X117643709Y-93836330D01*
X117777625Y-93780861D01*
X117892621Y-93692621D01*
X117980861Y-93577625D01*
X118013014Y-93500000D01*
X131957077Y-93500000D01*
X131977116Y-93703466D01*
X132036465Y-93899110D01*
X132132839Y-94079415D01*
X132132841Y-94079418D01*
X132262541Y-94237458D01*
X132420581Y-94367158D01*
X132420584Y-94367160D01*
X132523889Y-94422377D01*
X132600891Y-94463535D01*
X132796536Y-94522884D01*
X133000000Y-94542923D01*
X133203464Y-94522884D01*
X133399109Y-94463535D01*
X133579417Y-94367159D01*
X133737458Y-94237458D01*
X133867159Y-94079417D01*
X133963535Y-93899109D01*
X134022884Y-93703464D01*
X134042923Y-93500000D01*
X134022884Y-93296536D01*
X133963535Y-93100891D01*
X133954266Y-93083549D01*
X133867160Y-92920584D01*
X133867158Y-92920581D01*
X133737458Y-92762541D01*
X133579418Y-92632841D01*
X133579415Y-92632839D01*
X133399110Y-92536465D01*
X133203466Y-92477116D01*
X133000000Y-92457077D01*
X132796533Y-92477116D01*
X132600889Y-92536465D01*
X132420584Y-92632839D01*
X132420581Y-92632841D01*
X132262541Y-92762541D01*
X132132841Y-92920581D01*
X132132839Y-92920584D01*
X132036465Y-93100889D01*
X131977116Y-93296533D01*
X131957077Y-93500000D01*
X118013014Y-93500000D01*
X118036330Y-93443709D01*
X118055250Y-93300000D01*
X118036330Y-93156291D01*
X117980861Y-93022375D01*
X117892621Y-92907379D01*
X117777625Y-92819139D01*
X117777624Y-92819138D01*
X117777622Y-92819137D01*
X117643712Y-92763671D01*
X117643710Y-92763670D01*
X117643709Y-92763670D01*
X117571854Y-92754210D01*
X117500001Y-92744750D01*
X117499999Y-92744750D01*
X117356291Y-92763670D01*
X117356287Y-92763671D01*
X117222377Y-92819137D01*
X117107379Y-92907379D01*
X117019137Y-93022377D01*
X116963671Y-93156287D01*
X116963670Y-93156291D01*
X116944750Y-93300000D01*
X105693692Y-93300000D01*
X105695359Y-93291873D01*
X105706510Y-93274519D01*
X105780861Y-93177625D01*
X105836330Y-93043709D01*
X105855250Y-92900000D01*
X105836330Y-92756291D01*
X105780861Y-92622375D01*
X105692621Y-92507379D01*
X105577625Y-92419139D01*
X105577624Y-92419138D01*
X105577622Y-92419137D01*
X105531420Y-92400000D01*
X114944750Y-92400000D01*
X114960433Y-92519125D01*
X114963670Y-92543708D01*
X114963671Y-92543712D01*
X115019137Y-92677622D01*
X115019138Y-92677624D01*
X115019139Y-92677625D01*
X115107379Y-92792621D01*
X115222375Y-92880861D01*
X115356291Y-92936330D01*
X115483280Y-92953048D01*
X115499999Y-92955250D01*
X115500000Y-92955250D01*
X115500001Y-92955250D01*
X115514977Y-92953278D01*
X115643709Y-92936330D01*
X115777625Y-92880861D01*
X115892621Y-92792621D01*
X115980861Y-92677625D01*
X116036330Y-92543709D01*
X116055250Y-92400000D01*
X116036330Y-92256291D01*
X115980861Y-92122375D01*
X115979050Y-92120015D01*
X129117097Y-92120015D01*
X129137136Y-92323481D01*
X129196485Y-92519125D01*
X129292859Y-92699430D01*
X129292861Y-92699433D01*
X129422561Y-92857473D01*
X129580601Y-92987173D01*
X129580604Y-92987175D01*
X129760909Y-93083549D01*
X129760911Y-93083550D01*
X129956556Y-93142899D01*
X130160020Y-93162938D01*
X130363484Y-93142899D01*
X130559129Y-93083550D01*
X130739437Y-92987174D01*
X130897478Y-92857473D01*
X131027179Y-92699432D01*
X131123555Y-92519124D01*
X131182904Y-92323479D01*
X131202943Y-92120015D01*
X131182904Y-91916551D01*
X131123555Y-91720906D01*
X131114286Y-91703564D01*
X131027180Y-91540599D01*
X131027178Y-91540596D01*
X130897478Y-91382556D01*
X130739438Y-91252856D01*
X130739435Y-91252854D01*
X130559130Y-91156480D01*
X130363486Y-91097131D01*
X130160020Y-91077092D01*
X129956553Y-91097131D01*
X129760909Y-91156480D01*
X129580604Y-91252854D01*
X129580601Y-91252856D01*
X129422561Y-91382556D01*
X129292861Y-91540596D01*
X129292859Y-91540599D01*
X129196485Y-91720904D01*
X129137136Y-91916548D01*
X129117097Y-92120015D01*
X115979050Y-92120015D01*
X115892621Y-92007379D01*
X115777625Y-91919139D01*
X115777624Y-91919138D01*
X115777622Y-91919137D01*
X115643712Y-91863671D01*
X115643710Y-91863670D01*
X115643709Y-91863670D01*
X115571854Y-91854210D01*
X115500001Y-91844750D01*
X115499999Y-91844750D01*
X115356291Y-91863670D01*
X115356287Y-91863671D01*
X115222377Y-91919137D01*
X115107379Y-92007379D01*
X115019137Y-92122377D01*
X114963671Y-92256287D01*
X114963670Y-92256291D01*
X114944750Y-92400000D01*
X105531420Y-92400000D01*
X105443712Y-92363671D01*
X105443710Y-92363670D01*
X105443709Y-92363670D01*
X105371854Y-92354210D01*
X105300001Y-92344750D01*
X105299999Y-92344750D01*
X105156291Y-92363670D01*
X105156287Y-92363671D01*
X105022377Y-92419137D01*
X104907379Y-92507379D01*
X104819137Y-92622377D01*
X104763671Y-92756287D01*
X104763670Y-92756291D01*
X104744750Y-92899999D01*
X104744750Y-92900000D01*
X104763670Y-93043708D01*
X104763671Y-93043712D01*
X104819137Y-93177622D01*
X104819138Y-93177624D01*
X104819139Y-93177625D01*
X104893485Y-93274515D01*
X104918679Y-93339682D01*
X104904641Y-93408127D01*
X104893489Y-93425480D01*
X104879503Y-93443708D01*
X104819137Y-93522377D01*
X104763671Y-93656287D01*
X104763670Y-93656291D01*
X104744750Y-93799999D01*
X104744750Y-93800000D01*
X93852024Y-93800000D01*
X93836330Y-93680791D01*
X93780861Y-93546875D01*
X93692621Y-93431879D01*
X93577625Y-93343639D01*
X93577624Y-93343638D01*
X93577622Y-93343637D01*
X93443712Y-93288171D01*
X93443710Y-93288170D01*
X93443709Y-93288170D01*
X93339976Y-93274513D01*
X93300001Y-93269250D01*
X93299998Y-93269250D01*
X93289611Y-93270617D01*
X93220576Y-93259848D01*
X93168322Y-93213466D01*
X93150492Y-93163862D01*
X93150370Y-93162938D01*
X93136330Y-93056291D01*
X93086641Y-92936329D01*
X93080862Y-92922377D01*
X93080861Y-92922376D01*
X93080861Y-92922375D01*
X92992621Y-92807379D01*
X92877625Y-92719139D01*
X92877624Y-92719138D01*
X92877622Y-92719137D01*
X92743712Y-92663671D01*
X92743710Y-92663670D01*
X92743709Y-92663670D01*
X92671854Y-92654210D01*
X92600001Y-92644750D01*
X92599999Y-92644750D01*
X92456291Y-92663670D01*
X92456287Y-92663671D01*
X92322377Y-92719137D01*
X92207379Y-92807379D01*
X92119137Y-92922377D01*
X92063671Y-93056287D01*
X92063670Y-93056291D01*
X92049630Y-93162937D01*
X92044750Y-93200000D01*
X82550500Y-93200000D01*
X82550500Y-92400000D01*
X102744750Y-92400000D01*
X102760433Y-92519125D01*
X102763670Y-92543708D01*
X102763671Y-92543712D01*
X102819137Y-92677622D01*
X102819138Y-92677624D01*
X102819139Y-92677625D01*
X102907379Y-92792621D01*
X103022375Y-92880861D01*
X103156291Y-92936330D01*
X103283280Y-92953048D01*
X103299999Y-92955250D01*
X103300000Y-92955250D01*
X103300001Y-92955250D01*
X103314977Y-92953278D01*
X103443709Y-92936330D01*
X103577625Y-92880861D01*
X103692621Y-92792621D01*
X103780861Y-92677625D01*
X103836330Y-92543709D01*
X103855250Y-92400000D01*
X103836330Y-92256291D01*
X103780861Y-92122375D01*
X103692621Y-92007379D01*
X103577625Y-91919139D01*
X103577624Y-91919138D01*
X103577622Y-91919137D01*
X103443712Y-91863671D01*
X103443710Y-91863670D01*
X103443709Y-91863670D01*
X103371854Y-91854210D01*
X103300001Y-91844750D01*
X103299999Y-91844750D01*
X103156291Y-91863670D01*
X103156287Y-91863671D01*
X103022377Y-91919137D01*
X102907379Y-92007379D01*
X102819137Y-92122377D01*
X102763671Y-92256287D01*
X102763670Y-92256291D01*
X102744750Y-92400000D01*
X82550500Y-92400000D01*
X82550500Y-90900000D01*
X89844750Y-90900000D01*
X89862298Y-91033291D01*
X89863670Y-91043708D01*
X89863671Y-91043712D01*
X89919137Y-91177622D01*
X89919138Y-91177624D01*
X89919139Y-91177625D01*
X90007379Y-91292621D01*
X90122375Y-91380861D01*
X90122376Y-91380861D01*
X90122377Y-91380862D01*
X90167013Y-91399350D01*
X90256291Y-91436330D01*
X90383280Y-91453048D01*
X90399999Y-91455250D01*
X90400000Y-91455250D01*
X90400001Y-91455250D01*
X90414977Y-91453278D01*
X90543709Y-91436330D01*
X90631419Y-91400000D01*
X95744750Y-91400000D01*
X95763260Y-91540598D01*
X95763670Y-91543708D01*
X95763671Y-91543712D01*
X95819137Y-91677622D01*
X95819138Y-91677624D01*
X95819139Y-91677625D01*
X95907379Y-91792621D01*
X96022375Y-91880861D01*
X96156291Y-91936330D01*
X96283280Y-91953048D01*
X96299999Y-91955250D01*
X96300000Y-91955250D01*
X96300001Y-91955250D01*
X96314977Y-91953278D01*
X96443709Y-91936330D01*
X96577625Y-91880861D01*
X96692621Y-91792621D01*
X96701625Y-91780886D01*
X96758050Y-91739685D01*
X96827796Y-91735529D01*
X96888717Y-91769740D01*
X96898367Y-91780876D01*
X96907379Y-91792621D01*
X97022375Y-91880861D01*
X97156291Y-91936330D01*
X97283280Y-91953048D01*
X97299999Y-91955250D01*
X97300000Y-91955250D01*
X97300001Y-91955250D01*
X97314977Y-91953278D01*
X97443709Y-91936330D01*
X97577625Y-91880861D01*
X97692621Y-91792621D01*
X97780861Y-91677625D01*
X97836330Y-91543709D01*
X97855250Y-91400000D01*
X97836330Y-91256291D01*
X97780861Y-91122375D01*
X97692621Y-91007379D01*
X97577625Y-90919139D01*
X97577624Y-90919138D01*
X97577622Y-90919137D01*
X97575263Y-90918160D01*
X110387391Y-90918160D01*
X110401197Y-90926835D01*
X110401201Y-90926837D01*
X110571358Y-90986377D01*
X110571361Y-90986378D01*
X110750497Y-91006562D01*
X110750503Y-91006562D01*
X110935168Y-90985755D01*
X111003990Y-90997809D01*
X111055370Y-91045158D01*
X111072994Y-91112769D01*
X111065354Y-91148327D01*
X111065774Y-91148440D01*
X111063670Y-91156291D01*
X111045722Y-91292620D01*
X111044750Y-91300000D01*
X111062698Y-91436329D01*
X111063670Y-91443708D01*
X111063671Y-91443712D01*
X111119137Y-91577622D01*
X111119138Y-91577624D01*
X111119139Y-91577625D01*
X111207379Y-91692621D01*
X111322375Y-91780861D01*
X111322376Y-91780861D01*
X111322377Y-91780862D01*
X111367013Y-91799350D01*
X111456291Y-91836330D01*
X111583280Y-91853048D01*
X111599999Y-91855250D01*
X111600000Y-91855250D01*
X111600001Y-91855250D01*
X111614977Y-91853278D01*
X111743709Y-91836330D01*
X111877625Y-91780861D01*
X111992621Y-91692621D01*
X112080861Y-91577625D01*
X112136330Y-91443709D01*
X112155250Y-91300000D01*
X112136330Y-91156291D01*
X112133698Y-91149938D01*
X112126230Y-91080470D01*
X112157505Y-91017991D01*
X112207305Y-90985445D01*
X112374807Y-90926833D01*
X112388607Y-90918161D01*
X112388607Y-90918160D01*
X112937391Y-90918160D01*
X112951197Y-90926835D01*
X112951201Y-90926837D01*
X113121358Y-90986377D01*
X113121361Y-90986378D01*
X113300497Y-91006562D01*
X113300503Y-91006562D01*
X113479638Y-90986378D01*
X113479641Y-90986377D01*
X113649800Y-90926836D01*
X113674894Y-90911069D01*
X113742131Y-90892068D01*
X113808966Y-90912435D01*
X113854181Y-90965702D01*
X113863807Y-91032247D01*
X113845858Y-91168581D01*
X113844750Y-91177000D01*
X113860943Y-91299999D01*
X113863670Y-91320708D01*
X113863671Y-91320712D01*
X113919137Y-91454622D01*
X113919138Y-91454624D01*
X113919139Y-91454625D01*
X114007379Y-91569621D01*
X114122375Y-91657861D01*
X114256291Y-91713330D01*
X114383280Y-91730048D01*
X114399999Y-91732250D01*
X114400000Y-91732250D01*
X114400001Y-91732250D01*
X114414977Y-91730278D01*
X114543709Y-91713330D01*
X114677625Y-91657861D01*
X114792621Y-91569621D01*
X114880861Y-91454625D01*
X114936330Y-91320709D01*
X114955250Y-91177000D01*
X114936330Y-91033291D01*
X114881120Y-90900000D01*
X114880862Y-90899377D01*
X114880861Y-90899376D01*
X114880861Y-90899375D01*
X114792621Y-90784379D01*
X114734825Y-90740030D01*
X131957077Y-90740030D01*
X131977116Y-90943496D01*
X132036465Y-91139140D01*
X132132839Y-91319445D01*
X132132841Y-91319448D01*
X132262541Y-91477488D01*
X132420581Y-91607188D01*
X132420584Y-91607190D01*
X132552360Y-91677625D01*
X132600891Y-91703565D01*
X132796536Y-91762914D01*
X133000000Y-91782953D01*
X133203464Y-91762914D01*
X133399109Y-91703565D01*
X133579417Y-91607189D01*
X133737458Y-91477488D01*
X133867159Y-91319447D01*
X133963535Y-91139139D01*
X134022884Y-90943494D01*
X134042923Y-90740030D01*
X134022884Y-90536566D01*
X133963535Y-90340921D01*
X133931433Y-90280862D01*
X133867160Y-90160614D01*
X133867158Y-90160611D01*
X133737458Y-90002571D01*
X133579418Y-89872871D01*
X133579415Y-89872869D01*
X133399110Y-89776495D01*
X133203466Y-89717146D01*
X133000000Y-89697107D01*
X132796533Y-89717146D01*
X132600889Y-89776495D01*
X132420584Y-89872869D01*
X132420581Y-89872871D01*
X132262541Y-90002571D01*
X132132841Y-90160611D01*
X132132839Y-90160614D01*
X132036465Y-90340919D01*
X131977116Y-90536563D01*
X131957077Y-90740030D01*
X114734825Y-90740030D01*
X114677625Y-90696139D01*
X114677624Y-90696138D01*
X114677622Y-90696137D01*
X114543712Y-90640671D01*
X114543710Y-90640670D01*
X114543709Y-90640670D01*
X114471854Y-90631210D01*
X114400001Y-90621750D01*
X114399999Y-90621750D01*
X114256291Y-90640670D01*
X114256287Y-90640671D01*
X114206012Y-90661495D01*
X114136543Y-90668962D01*
X114074064Y-90637686D01*
X114038413Y-90577597D01*
X114040908Y-90507772D01*
X114041520Y-90505978D01*
X114085378Y-90380638D01*
X114105562Y-90201502D01*
X114105562Y-90201497D01*
X114085378Y-90022361D01*
X114085377Y-90022358D01*
X114025837Y-89852201D01*
X114025835Y-89852197D01*
X114017160Y-89838391D01*
X113300500Y-90555053D01*
X112937391Y-90918160D01*
X112388607Y-90918160D01*
X111759628Y-90289181D01*
X111726143Y-90227858D01*
X111729582Y-90179775D01*
X111846577Y-90179775D01*
X111856975Y-90265413D01*
X111905981Y-90336409D01*
X111982366Y-90376500D01*
X112046747Y-90376500D01*
X112109260Y-90361092D01*
X112173832Y-90303886D01*
X112204423Y-90223225D01*
X112194025Y-90137587D01*
X112145019Y-90066591D01*
X112068634Y-90026500D01*
X112004253Y-90026500D01*
X111941740Y-90041908D01*
X111877168Y-90099114D01*
X111846577Y-90179775D01*
X111729582Y-90179775D01*
X111731127Y-90158166D01*
X111759628Y-90113819D01*
X111937819Y-89935628D01*
X111999142Y-89902143D01*
X112068834Y-89907127D01*
X112113181Y-89935628D01*
X112663000Y-90485447D01*
X112968672Y-90179775D01*
X113121577Y-90179775D01*
X113131975Y-90265413D01*
X113180981Y-90336409D01*
X113257366Y-90376500D01*
X113321747Y-90376500D01*
X113384260Y-90361092D01*
X113448832Y-90303886D01*
X113479423Y-90223225D01*
X113469025Y-90137587D01*
X113420019Y-90066591D01*
X113343634Y-90026500D01*
X113279253Y-90026500D01*
X113216740Y-90041908D01*
X113152168Y-90099114D01*
X113121577Y-90179775D01*
X112968672Y-90179775D01*
X113584447Y-89564000D01*
X113034628Y-89014181D01*
X113001143Y-88952858D01*
X113004582Y-88904775D01*
X113121577Y-88904775D01*
X113131975Y-88990413D01*
X113180981Y-89061409D01*
X113257366Y-89101500D01*
X113321747Y-89101500D01*
X113384260Y-89086092D01*
X113448832Y-89028886D01*
X113479423Y-88948225D01*
X113476785Y-88926500D01*
X113654053Y-88926500D01*
X114017160Y-89289607D01*
X114017161Y-89289607D01*
X114025833Y-89275807D01*
X114085378Y-89105638D01*
X114105562Y-88926502D01*
X114105562Y-88926497D01*
X114091309Y-88800000D01*
X116244750Y-88800000D01*
X116262698Y-88936329D01*
X116263670Y-88943708D01*
X116263671Y-88943712D01*
X116319137Y-89077622D01*
X116319138Y-89077624D01*
X116319139Y-89077625D01*
X116407379Y-89192621D01*
X116522375Y-89280861D01*
X116656291Y-89336330D01*
X116783280Y-89353048D01*
X116799999Y-89355250D01*
X116800000Y-89355250D01*
X116800001Y-89355250D01*
X116814977Y-89353278D01*
X116943709Y-89336330D01*
X117077625Y-89280861D01*
X117174515Y-89206514D01*
X117239682Y-89181321D01*
X117308127Y-89195359D01*
X117325480Y-89206510D01*
X117422375Y-89280861D01*
X117556291Y-89336330D01*
X117683280Y-89353048D01*
X117699999Y-89355250D01*
X117700000Y-89355250D01*
X117700001Y-89355250D01*
X117714977Y-89353278D01*
X117843709Y-89336330D01*
X117977625Y-89280861D01*
X118092621Y-89192621D01*
X118180861Y-89077625D01*
X118236330Y-88943709D01*
X118255250Y-88800000D01*
X118236330Y-88656291D01*
X118180861Y-88522375D01*
X118092621Y-88407379D01*
X117977625Y-88319139D01*
X117977624Y-88319138D01*
X117977622Y-88319137D01*
X117931420Y-88300000D01*
X119144750Y-88300000D01*
X119157915Y-88400000D01*
X119163670Y-88443708D01*
X119163671Y-88443712D01*
X119219137Y-88577622D01*
X119219138Y-88577624D01*
X119219139Y-88577625D01*
X119307379Y-88692621D01*
X119422375Y-88780861D01*
X119545356Y-88831800D01*
X119599756Y-88875639D01*
X119621822Y-88941933D01*
X119604543Y-89009632D01*
X119596277Y-89021846D01*
X119519139Y-89122374D01*
X119519138Y-89122376D01*
X119463671Y-89256287D01*
X119463670Y-89256291D01*
X119444750Y-89399999D01*
X119444750Y-89400000D01*
X119463670Y-89543708D01*
X119463671Y-89543712D01*
X119519137Y-89677622D01*
X119519138Y-89677624D01*
X119519139Y-89677625D01*
X119607379Y-89792621D01*
X119722375Y-89880861D01*
X119856291Y-89936330D01*
X119983280Y-89953048D01*
X119999999Y-89955250D01*
X120000000Y-89955250D01*
X120000001Y-89955250D01*
X120014977Y-89953278D01*
X120143709Y-89936330D01*
X120277625Y-89880861D01*
X120392621Y-89792621D01*
X120480861Y-89677625D01*
X120536330Y-89543709D01*
X120555250Y-89400000D01*
X120549990Y-89360045D01*
X129117097Y-89360045D01*
X129137136Y-89563511D01*
X129196485Y-89759155D01*
X129292859Y-89939460D01*
X129292861Y-89939463D01*
X129422561Y-90097503D01*
X129580601Y-90227203D01*
X129580604Y-90227205D01*
X129702990Y-90292621D01*
X129760911Y-90323580D01*
X129956556Y-90382929D01*
X130160020Y-90402968D01*
X130363484Y-90382929D01*
X130559129Y-90323580D01*
X130739437Y-90227204D01*
X130897478Y-90097503D01*
X131027179Y-89939462D01*
X131123555Y-89759154D01*
X131182904Y-89563509D01*
X131202943Y-89360045D01*
X131182904Y-89156581D01*
X131123555Y-88960936D01*
X131101213Y-88919137D01*
X131027180Y-88780629D01*
X131027178Y-88780626D01*
X130897478Y-88622586D01*
X130739438Y-88492886D01*
X130739435Y-88492884D01*
X130559130Y-88396510D01*
X130363486Y-88337161D01*
X130160020Y-88317122D01*
X129956553Y-88337161D01*
X129760909Y-88396510D01*
X129580604Y-88492884D01*
X129580601Y-88492886D01*
X129422561Y-88622586D01*
X129292861Y-88780626D01*
X129292859Y-88780629D01*
X129196485Y-88960934D01*
X129137136Y-89156578D01*
X129117097Y-89360045D01*
X120549990Y-89360045D01*
X120536330Y-89256291D01*
X120480861Y-89122375D01*
X120427196Y-89052438D01*
X120402002Y-88987272D01*
X120416040Y-88918827D01*
X120464853Y-88868836D01*
X120509384Y-88854014D01*
X120643709Y-88836330D01*
X120777625Y-88780861D01*
X120824514Y-88744881D01*
X120889682Y-88719687D01*
X120958127Y-88733725D01*
X120975483Y-88744880D01*
X121022375Y-88780861D01*
X121156291Y-88836330D01*
X121283280Y-88853048D01*
X121299999Y-88855250D01*
X121300000Y-88855250D01*
X121300001Y-88855250D01*
X121314977Y-88853278D01*
X121443709Y-88836330D01*
X121577625Y-88780861D01*
X121692621Y-88692621D01*
X121780861Y-88577625D01*
X121836330Y-88443709D01*
X121855250Y-88300000D01*
X121836330Y-88156291D01*
X121780861Y-88022375D01*
X121748392Y-87980061D01*
X131957077Y-87980061D01*
X131977116Y-88183527D01*
X132036465Y-88379171D01*
X132132839Y-88559476D01*
X132132841Y-88559479D01*
X132262541Y-88717519D01*
X132420581Y-88847219D01*
X132420584Y-88847221D01*
X132568906Y-88926500D01*
X132600891Y-88943596D01*
X132796536Y-89002945D01*
X133000000Y-89022984D01*
X133203464Y-89002945D01*
X133399109Y-88943596D01*
X133579417Y-88847220D01*
X133737458Y-88717519D01*
X133867159Y-88559478D01*
X133963535Y-88379170D01*
X134022884Y-88183525D01*
X134042923Y-87980061D01*
X134022884Y-87776597D01*
X133963535Y-87580952D01*
X133943762Y-87543959D01*
X133867160Y-87400645D01*
X133867158Y-87400642D01*
X133737458Y-87242602D01*
X133579418Y-87112902D01*
X133579415Y-87112900D01*
X133399110Y-87016526D01*
X133203466Y-86957177D01*
X133000000Y-86937138D01*
X132796533Y-86957177D01*
X132600889Y-87016526D01*
X132420584Y-87112900D01*
X132420581Y-87112902D01*
X132262541Y-87242602D01*
X132132841Y-87400642D01*
X132132839Y-87400645D01*
X132036465Y-87580950D01*
X131977116Y-87776594D01*
X131957077Y-87980061D01*
X121748392Y-87980061D01*
X121692621Y-87907379D01*
X121577625Y-87819139D01*
X121577624Y-87819138D01*
X121577622Y-87819137D01*
X121443712Y-87763671D01*
X121443710Y-87763670D01*
X121443709Y-87763670D01*
X121369394Y-87753886D01*
X121300001Y-87744750D01*
X121299999Y-87744750D01*
X121156291Y-87763670D01*
X121156287Y-87763671D01*
X121022376Y-87819138D01*
X121022374Y-87819139D01*
X120975486Y-87855118D01*
X120910317Y-87880312D01*
X120841872Y-87866274D01*
X120824514Y-87855118D01*
X120777625Y-87819139D01*
X120777623Y-87819138D01*
X120643712Y-87763671D01*
X120643710Y-87763670D01*
X120643709Y-87763670D01*
X120569394Y-87753886D01*
X120500001Y-87744750D01*
X120499999Y-87744750D01*
X120356291Y-87763670D01*
X120356287Y-87763671D01*
X120222376Y-87819138D01*
X120222374Y-87819139D01*
X120175486Y-87855118D01*
X120110317Y-87880312D01*
X120041872Y-87866274D01*
X120024514Y-87855118D01*
X119977625Y-87819139D01*
X119977623Y-87819138D01*
X119843712Y-87763671D01*
X119843710Y-87763670D01*
X119843709Y-87763670D01*
X119769394Y-87753886D01*
X119700001Y-87744750D01*
X119699999Y-87744750D01*
X119556291Y-87763670D01*
X119556287Y-87763671D01*
X119422377Y-87819137D01*
X119307379Y-87907379D01*
X119219137Y-88022377D01*
X119163671Y-88156287D01*
X119163670Y-88156291D01*
X119150505Y-88256291D01*
X119144750Y-88300000D01*
X117931420Y-88300000D01*
X117843712Y-88263671D01*
X117843710Y-88263670D01*
X117843709Y-88263670D01*
X117771854Y-88254210D01*
X117700001Y-88244750D01*
X117699999Y-88244750D01*
X117556291Y-88263670D01*
X117556287Y-88263671D01*
X117422377Y-88319137D01*
X117398888Y-88337161D01*
X117325484Y-88393485D01*
X117260318Y-88418679D01*
X117191873Y-88404641D01*
X117174519Y-88393489D01*
X117077625Y-88319139D01*
X117077624Y-88319138D01*
X117077622Y-88319137D01*
X116943712Y-88263671D01*
X116943710Y-88263670D01*
X116943709Y-88263670D01*
X116871854Y-88254210D01*
X116800001Y-88244750D01*
X116799999Y-88244750D01*
X116656291Y-88263670D01*
X116656287Y-88263671D01*
X116522377Y-88319137D01*
X116407379Y-88407379D01*
X116319137Y-88522377D01*
X116263671Y-88656287D01*
X116263670Y-88656291D01*
X116245722Y-88792620D01*
X116244750Y-88800000D01*
X114091309Y-88800000D01*
X114085378Y-88747361D01*
X114085377Y-88747358D01*
X114025837Y-88577201D01*
X114025835Y-88577197D01*
X114017160Y-88563391D01*
X113654053Y-88926499D01*
X113654053Y-88926500D01*
X113476785Y-88926500D01*
X113469025Y-88862587D01*
X113420019Y-88791591D01*
X113343634Y-88751500D01*
X113279253Y-88751500D01*
X113216740Y-88766908D01*
X113152168Y-88824114D01*
X113121577Y-88904775D01*
X113004582Y-88904775D01*
X113006127Y-88883166D01*
X113034628Y-88838819D01*
X113584447Y-88289000D01*
X112925222Y-87629775D01*
X113121577Y-87629775D01*
X113131975Y-87715413D01*
X113180981Y-87786409D01*
X113257366Y-87826500D01*
X113321747Y-87826500D01*
X113384260Y-87811092D01*
X113448832Y-87753886D01*
X113479423Y-87673225D01*
X113476785Y-87651500D01*
X113654053Y-87651500D01*
X114017160Y-88014607D01*
X114017161Y-88014607D01*
X114025833Y-88000807D01*
X114085378Y-87830638D01*
X114105562Y-87651502D01*
X114105562Y-87651497D01*
X114085378Y-87472361D01*
X114085377Y-87472358D01*
X114072418Y-87435322D01*
X128872618Y-87435322D01*
X128879019Y-87494850D01*
X128879021Y-87494857D01*
X128929263Y-87629564D01*
X128929267Y-87629571D01*
X129015427Y-87744665D01*
X129015430Y-87744668D01*
X129130524Y-87830828D01*
X129130531Y-87830832D01*
X129265238Y-87881074D01*
X129265245Y-87881076D01*
X129324773Y-87887477D01*
X129324790Y-87887478D01*
X129910020Y-87887478D01*
X129910020Y-87091774D01*
X129938834Y-87109297D01*
X130084422Y-87150089D01*
X130197641Y-87150089D01*
X130309807Y-87134672D01*
X130410020Y-87091143D01*
X130410020Y-87887478D01*
X130995250Y-87887478D01*
X130995266Y-87887477D01*
X131054794Y-87881076D01*
X131054801Y-87881074D01*
X131189508Y-87830832D01*
X131189515Y-87830828D01*
X131304609Y-87744668D01*
X131304612Y-87744665D01*
X131390772Y-87629571D01*
X131390776Y-87629564D01*
X131441018Y-87494857D01*
X131441020Y-87494850D01*
X131447421Y-87435322D01*
X131447422Y-87435305D01*
X131447422Y-86850076D01*
X130654887Y-86850076D01*
X130703592Y-86713032D01*
X130713910Y-86562189D01*
X130683148Y-86414156D01*
X130649945Y-86350076D01*
X131447422Y-86350076D01*
X131447422Y-85764846D01*
X131447421Y-85764829D01*
X131441020Y-85705301D01*
X131441018Y-85705294D01*
X131390776Y-85570587D01*
X131390772Y-85570580D01*
X131304612Y-85455486D01*
X131304609Y-85455483D01*
X131189515Y-85369323D01*
X131189508Y-85369319D01*
X131054801Y-85319077D01*
X131054794Y-85319075D01*
X130995266Y-85312674D01*
X130410020Y-85312674D01*
X130410020Y-86108377D01*
X130381206Y-86090855D01*
X130235618Y-86050063D01*
X130122399Y-86050063D01*
X130010233Y-86065480D01*
X129910020Y-86109008D01*
X129910020Y-85312674D01*
X129324773Y-85312674D01*
X129265245Y-85319075D01*
X129265238Y-85319077D01*
X129130531Y-85369319D01*
X129130524Y-85369323D01*
X129015430Y-85455483D01*
X129015427Y-85455486D01*
X128929267Y-85570580D01*
X128929263Y-85570587D01*
X128879021Y-85705294D01*
X128879019Y-85705301D01*
X128872618Y-85764829D01*
X128872618Y-86350076D01*
X129665153Y-86350076D01*
X129616448Y-86487120D01*
X129606130Y-86637963D01*
X129636892Y-86785996D01*
X129670095Y-86850076D01*
X128872618Y-86850076D01*
X128872618Y-87435322D01*
X114072418Y-87435322D01*
X114025837Y-87302201D01*
X114025835Y-87302197D01*
X114017160Y-87288391D01*
X113654053Y-87651499D01*
X113654053Y-87651500D01*
X113476785Y-87651500D01*
X113469025Y-87587587D01*
X113420019Y-87516591D01*
X113343634Y-87476500D01*
X113279253Y-87476500D01*
X113216740Y-87491908D01*
X113152168Y-87549114D01*
X113121577Y-87629775D01*
X112925222Y-87629775D01*
X112663000Y-87367553D01*
X112113181Y-87917372D01*
X112051858Y-87950857D01*
X111982166Y-87945873D01*
X111937819Y-87917372D01*
X111650222Y-87629775D01*
X111846577Y-87629775D01*
X111856975Y-87715413D01*
X111905981Y-87786409D01*
X111982366Y-87826500D01*
X112046747Y-87826500D01*
X112109260Y-87811092D01*
X112173832Y-87753886D01*
X112204423Y-87673225D01*
X112194025Y-87587587D01*
X112145019Y-87516591D01*
X112068634Y-87476500D01*
X112004253Y-87476500D01*
X111941740Y-87491908D01*
X111877168Y-87549114D01*
X111846577Y-87629775D01*
X111650222Y-87629775D01*
X111388000Y-87367553D01*
X110466553Y-88289000D01*
X111016372Y-88838819D01*
X111049857Y-88900142D01*
X111044873Y-88969834D01*
X111016372Y-89014181D01*
X110466553Y-89564000D01*
X111016371Y-90113818D01*
X111049856Y-90175141D01*
X111044872Y-90244833D01*
X111016371Y-90289180D01*
X110387391Y-90918160D01*
X97575263Y-90918160D01*
X97443712Y-90863671D01*
X97443710Y-90863670D01*
X97443709Y-90863670D01*
X97371854Y-90854210D01*
X97300001Y-90844750D01*
X97299999Y-90844750D01*
X97156291Y-90863670D01*
X97156287Y-90863671D01*
X97022377Y-90919137D01*
X96964877Y-90963259D01*
X96907379Y-91007379D01*
X96907378Y-91007380D01*
X96907377Y-91007381D01*
X96898375Y-91019113D01*
X96841947Y-91060316D01*
X96772201Y-91064470D01*
X96711281Y-91030257D01*
X96701625Y-91019113D01*
X96699782Y-91016711D01*
X96692621Y-91007379D01*
X96577625Y-90919139D01*
X96577624Y-90919138D01*
X96577622Y-90919137D01*
X96443712Y-90863671D01*
X96443710Y-90863670D01*
X96443709Y-90863670D01*
X96371854Y-90854210D01*
X96300001Y-90844750D01*
X96299999Y-90844750D01*
X96156291Y-90863670D01*
X96156287Y-90863671D01*
X96022377Y-90919137D01*
X95907379Y-91007379D01*
X95819137Y-91122377D01*
X95763671Y-91256287D01*
X95763670Y-91256291D01*
X95747047Y-91382556D01*
X95744750Y-91400000D01*
X90631419Y-91400000D01*
X90677625Y-91380861D01*
X90792621Y-91292621D01*
X90880861Y-91177625D01*
X90936330Y-91043709D01*
X90955250Y-90900000D01*
X90936330Y-90756291D01*
X90880861Y-90622375D01*
X90792621Y-90507379D01*
X90677625Y-90419139D01*
X90677624Y-90419138D01*
X90677622Y-90419137D01*
X90543712Y-90363671D01*
X90543710Y-90363670D01*
X90543709Y-90363670D01*
X90471854Y-90354210D01*
X90400001Y-90344750D01*
X90399999Y-90344750D01*
X90256291Y-90363670D01*
X90256287Y-90363671D01*
X90122377Y-90419137D01*
X90007379Y-90507379D01*
X89919137Y-90622377D01*
X89863671Y-90756287D01*
X89863670Y-90756291D01*
X89844750Y-90900000D01*
X82550500Y-90900000D01*
X82550500Y-89900000D01*
X94444750Y-89900000D01*
X94460859Y-90022361D01*
X94463670Y-90043708D01*
X94463671Y-90043712D01*
X94519137Y-90177622D01*
X94519138Y-90177624D01*
X94519139Y-90177625D01*
X94607379Y-90292621D01*
X94722375Y-90380861D01*
X94722376Y-90380861D01*
X94722377Y-90380862D01*
X94767013Y-90399350D01*
X94856291Y-90436330D01*
X94983280Y-90453048D01*
X94999999Y-90455250D01*
X95000000Y-90455250D01*
X95000001Y-90455250D01*
X95014977Y-90453278D01*
X95143709Y-90436330D01*
X95277625Y-90380861D01*
X95392621Y-90292621D01*
X95480861Y-90177625D01*
X95536330Y-90043709D01*
X95555250Y-89900000D01*
X95536330Y-89756291D01*
X95480861Y-89622375D01*
X95392621Y-89507379D01*
X95277625Y-89419139D01*
X95277624Y-89419138D01*
X95277622Y-89419137D01*
X95143712Y-89363671D01*
X95143710Y-89363670D01*
X95143709Y-89363670D01*
X95071854Y-89354210D01*
X95000001Y-89344750D01*
X94999999Y-89344750D01*
X94856291Y-89363670D01*
X94856287Y-89363671D01*
X94722377Y-89419137D01*
X94607379Y-89507379D01*
X94519137Y-89622377D01*
X94463671Y-89756287D01*
X94463670Y-89756291D01*
X94447270Y-89880862D01*
X94444750Y-89900000D01*
X82550500Y-89900000D01*
X82550500Y-89200000D01*
X84744750Y-89200000D01*
X84762698Y-89336329D01*
X84763670Y-89343708D01*
X84763671Y-89343712D01*
X84819137Y-89477622D01*
X84819138Y-89477624D01*
X84819139Y-89477625D01*
X84907379Y-89592621D01*
X85022375Y-89680861D01*
X85156291Y-89736330D01*
X85283280Y-89753048D01*
X85299999Y-89755250D01*
X85300000Y-89755250D01*
X85300001Y-89755250D01*
X85314977Y-89753278D01*
X85443709Y-89736330D01*
X85577625Y-89680861D01*
X85692621Y-89592621D01*
X85780861Y-89477625D01*
X85835439Y-89345859D01*
X85879279Y-89291456D01*
X85945573Y-89269391D01*
X86013273Y-89286670D01*
X86060884Y-89337807D01*
X86064561Y-89345860D01*
X86119137Y-89477622D01*
X86119138Y-89477624D01*
X86119139Y-89477625D01*
X86207379Y-89592621D01*
X86322375Y-89680861D01*
X86456291Y-89736330D01*
X86583280Y-89753048D01*
X86599999Y-89755250D01*
X86600000Y-89755250D01*
X86600001Y-89755250D01*
X86614977Y-89753278D01*
X86743709Y-89736330D01*
X86877625Y-89680861D01*
X86992621Y-89592621D01*
X87080861Y-89477625D01*
X87136330Y-89343709D01*
X87155250Y-89200000D01*
X87136330Y-89056291D01*
X87089651Y-88943596D01*
X87080862Y-88922377D01*
X87080861Y-88922376D01*
X87080861Y-88922375D01*
X86992621Y-88807379D01*
X86877625Y-88719139D01*
X86877624Y-88719138D01*
X86877622Y-88719137D01*
X86743712Y-88663671D01*
X86743710Y-88663670D01*
X86743709Y-88663670D01*
X86671854Y-88654210D01*
X86600001Y-88644750D01*
X86599999Y-88644750D01*
X86456291Y-88663670D01*
X86456287Y-88663671D01*
X86322377Y-88719137D01*
X86207379Y-88807379D01*
X86119137Y-88922377D01*
X86064561Y-89054139D01*
X86020720Y-89108543D01*
X85954426Y-89130608D01*
X85886727Y-89113329D01*
X85839116Y-89062192D01*
X85835439Y-89054139D01*
X85780862Y-88922377D01*
X85780861Y-88922376D01*
X85780861Y-88922375D01*
X85692621Y-88807379D01*
X85577625Y-88719139D01*
X85577624Y-88719138D01*
X85577622Y-88719137D01*
X85443712Y-88663671D01*
X85443710Y-88663670D01*
X85443709Y-88663670D01*
X85371854Y-88654210D01*
X85300001Y-88644750D01*
X85299999Y-88644750D01*
X85156291Y-88663670D01*
X85156287Y-88663671D01*
X85022377Y-88719137D01*
X84907379Y-88807379D01*
X84819137Y-88922377D01*
X84763671Y-89056287D01*
X84763670Y-89056291D01*
X84745722Y-89192620D01*
X84744750Y-89200000D01*
X82550500Y-89200000D01*
X82550500Y-88400000D01*
X91344750Y-88400000D01*
X91363670Y-88543708D01*
X91363671Y-88543712D01*
X91419137Y-88677622D01*
X91419138Y-88677624D01*
X91419139Y-88677625D01*
X91507379Y-88792621D01*
X91622375Y-88880861D01*
X91622376Y-88880861D01*
X91622377Y-88880862D01*
X91640180Y-88888236D01*
X91756291Y-88936330D01*
X91881831Y-88952858D01*
X91899999Y-88955250D01*
X91900000Y-88955250D01*
X91900001Y-88955250D01*
X91914977Y-88953278D01*
X92043709Y-88936330D01*
X92177625Y-88880861D01*
X92292621Y-88792621D01*
X92380861Y-88677625D01*
X92436330Y-88543709D01*
X92455250Y-88400000D01*
X92442085Y-88300000D01*
X96944750Y-88300000D01*
X96957915Y-88400000D01*
X96963670Y-88443708D01*
X96963671Y-88443712D01*
X97019137Y-88577622D01*
X97019138Y-88577624D01*
X97019139Y-88577625D01*
X97107379Y-88692621D01*
X97222375Y-88780861D01*
X97222376Y-88780861D01*
X97222377Y-88780862D01*
X97267013Y-88799350D01*
X97356291Y-88836330D01*
X97483280Y-88853048D01*
X97499999Y-88855250D01*
X97500000Y-88855250D01*
X97500001Y-88855250D01*
X97514977Y-88853278D01*
X97643709Y-88836330D01*
X97777625Y-88780861D01*
X97892621Y-88692621D01*
X97980861Y-88577625D01*
X98036330Y-88443709D01*
X98055250Y-88300000D01*
X98036330Y-88156291D01*
X97980861Y-88022375D01*
X97892621Y-87907379D01*
X97777625Y-87819139D01*
X97777624Y-87819138D01*
X97777622Y-87819137D01*
X97643712Y-87763671D01*
X97643710Y-87763670D01*
X97643709Y-87763670D01*
X97569394Y-87753886D01*
X97500001Y-87744750D01*
X97499999Y-87744750D01*
X97356291Y-87763670D01*
X97356287Y-87763671D01*
X97222377Y-87819137D01*
X97107379Y-87907379D01*
X97019137Y-88022377D01*
X96963671Y-88156287D01*
X96963670Y-88156291D01*
X96950505Y-88256291D01*
X96944750Y-88300000D01*
X92442085Y-88300000D01*
X92436330Y-88256291D01*
X92380861Y-88122375D01*
X92292621Y-88007379D01*
X92177625Y-87919139D01*
X92177624Y-87919138D01*
X92177622Y-87919137D01*
X92043712Y-87863671D01*
X92043710Y-87863670D01*
X92043709Y-87863670D01*
X91971854Y-87854210D01*
X91900001Y-87844750D01*
X91899999Y-87844750D01*
X91756291Y-87863670D01*
X91756287Y-87863671D01*
X91622377Y-87919137D01*
X91507379Y-88007379D01*
X91419137Y-88122377D01*
X91363671Y-88256287D01*
X91363670Y-88256291D01*
X91344750Y-88399999D01*
X91344750Y-88400000D01*
X82550500Y-88400000D01*
X82550500Y-87400250D01*
X95345250Y-87400250D01*
X95364137Y-87543712D01*
X95364170Y-87543958D01*
X95364171Y-87543962D01*
X95419637Y-87677872D01*
X95419638Y-87677874D01*
X95419639Y-87677875D01*
X95507879Y-87792871D01*
X95622875Y-87881111D01*
X95622876Y-87881111D01*
X95622877Y-87881112D01*
X95667513Y-87899600D01*
X95756791Y-87936580D01*
X95883780Y-87953298D01*
X95900499Y-87955500D01*
X95900500Y-87955500D01*
X95900501Y-87955500D01*
X95915477Y-87953528D01*
X96044209Y-87936580D01*
X96178125Y-87881111D01*
X96293121Y-87792871D01*
X96381361Y-87677875D01*
X96436830Y-87543959D01*
X96455750Y-87400250D01*
X96455717Y-87400000D01*
X100644750Y-87400000D01*
X100662698Y-87536329D01*
X100663670Y-87543708D01*
X100663671Y-87543712D01*
X100719137Y-87677622D01*
X100719138Y-87677624D01*
X100719139Y-87677625D01*
X100807379Y-87792621D01*
X100912104Y-87872980D01*
X100953305Y-87929406D01*
X100959555Y-87987539D01*
X100954969Y-88022377D01*
X100944750Y-88100000D01*
X100955746Y-88183525D01*
X100963670Y-88243708D01*
X100963671Y-88243712D01*
X101019137Y-88377622D01*
X101019138Y-88377624D01*
X101019139Y-88377625D01*
X101107379Y-88492621D01*
X101222375Y-88580861D01*
X101296982Y-88611763D01*
X101351384Y-88655603D01*
X101373450Y-88721897D01*
X101356172Y-88789596D01*
X101305035Y-88837207D01*
X101265716Y-88849263D01*
X101156291Y-88863670D01*
X101156287Y-88863671D01*
X101022377Y-88919137D01*
X100907379Y-89007379D01*
X100819137Y-89122377D01*
X100763671Y-89256287D01*
X100763670Y-89256291D01*
X100744750Y-89399999D01*
X100744750Y-89400000D01*
X100763670Y-89543708D01*
X100763671Y-89543712D01*
X100819137Y-89677622D01*
X100819138Y-89677624D01*
X100819139Y-89677625D01*
X100907379Y-89792621D01*
X101022375Y-89880861D01*
X101156291Y-89936330D01*
X101283280Y-89953048D01*
X101299999Y-89955250D01*
X101300000Y-89955250D01*
X101300001Y-89955250D01*
X101314977Y-89953278D01*
X101443709Y-89936330D01*
X101577625Y-89880861D01*
X101650472Y-89824963D01*
X101715639Y-89799770D01*
X101784084Y-89813808D01*
X101801442Y-89824963D01*
X101818941Y-89838391D01*
X101901495Y-89901738D01*
X101901496Y-89901738D01*
X101901497Y-89901739D01*
X102035413Y-89957208D01*
X102162402Y-89973926D01*
X102179121Y-89976128D01*
X102179122Y-89976128D01*
X102179123Y-89976128D01*
X102194099Y-89974156D01*
X102322831Y-89957208D01*
X102456747Y-89901739D01*
X102571743Y-89813499D01*
X102582101Y-89800000D01*
X106944750Y-89800000D01*
X106962698Y-89936329D01*
X106963670Y-89943708D01*
X106963671Y-89943712D01*
X107019137Y-90077622D01*
X107019138Y-90077624D01*
X107019139Y-90077625D01*
X107107379Y-90192621D01*
X107222375Y-90280861D01*
X107222376Y-90280861D01*
X107222377Y-90280862D01*
X107267013Y-90299350D01*
X107356291Y-90336330D01*
X107483280Y-90353048D01*
X107499999Y-90355250D01*
X107500000Y-90355250D01*
X107500001Y-90355250D01*
X107514977Y-90353278D01*
X107643709Y-90336330D01*
X107777625Y-90280861D01*
X107881047Y-90201502D01*
X109945438Y-90201502D01*
X109965621Y-90380638D01*
X109965622Y-90380641D01*
X110025162Y-90550798D01*
X110025167Y-90550808D01*
X110033838Y-90564608D01*
X110396947Y-90201500D01*
X110396947Y-90201499D01*
X110375223Y-90179775D01*
X110571577Y-90179775D01*
X110581975Y-90265413D01*
X110630981Y-90336409D01*
X110707366Y-90376500D01*
X110771747Y-90376500D01*
X110834260Y-90361092D01*
X110898832Y-90303886D01*
X110929423Y-90223225D01*
X110919025Y-90137587D01*
X110870019Y-90066591D01*
X110793634Y-90026500D01*
X110729253Y-90026500D01*
X110666740Y-90041908D01*
X110602168Y-90099114D01*
X110571577Y-90179775D01*
X110375223Y-90179775D01*
X110033838Y-89838390D01*
X110033838Y-89838391D01*
X110025164Y-89852196D01*
X109965622Y-90022358D01*
X109965621Y-90022361D01*
X109945438Y-90201497D01*
X109945438Y-90201502D01*
X107881047Y-90201502D01*
X107892621Y-90192621D01*
X107980861Y-90077625D01*
X108036330Y-89943709D01*
X108055250Y-89800000D01*
X108036330Y-89656291D01*
X107980861Y-89522375D01*
X107892621Y-89407379D01*
X107777625Y-89319139D01*
X107777624Y-89319138D01*
X107777622Y-89319137D01*
X107643712Y-89263671D01*
X107643710Y-89263670D01*
X107643709Y-89263670D01*
X107571854Y-89254210D01*
X107500001Y-89244750D01*
X107499999Y-89244750D01*
X107356291Y-89263670D01*
X107356287Y-89263671D01*
X107222377Y-89319137D01*
X107107379Y-89407379D01*
X107019137Y-89522377D01*
X106963671Y-89656287D01*
X106963670Y-89656291D01*
X106945722Y-89792620D01*
X106944750Y-89800000D01*
X102582101Y-89800000D01*
X102659983Y-89698503D01*
X102715452Y-89564587D01*
X102734372Y-89420878D01*
X102715452Y-89277169D01*
X102659983Y-89143253D01*
X102571743Y-89028257D01*
X102456747Y-88940017D01*
X102456746Y-88940016D01*
X102456744Y-88940015D01*
X102424120Y-88926502D01*
X109945438Y-88926502D01*
X109965621Y-89105638D01*
X109965622Y-89105641D01*
X110025162Y-89275798D01*
X110025167Y-89275808D01*
X110033838Y-89289608D01*
X110396947Y-88926500D01*
X110396947Y-88926499D01*
X110375223Y-88904775D01*
X110571577Y-88904775D01*
X110581975Y-88990413D01*
X110630981Y-89061409D01*
X110707366Y-89101500D01*
X110771747Y-89101500D01*
X110834260Y-89086092D01*
X110898832Y-89028886D01*
X110929423Y-88948225D01*
X110919025Y-88862587D01*
X110870019Y-88791591D01*
X110793634Y-88751500D01*
X110729253Y-88751500D01*
X110666740Y-88766908D01*
X110602168Y-88824114D01*
X110571577Y-88904775D01*
X110375223Y-88904775D01*
X110033838Y-88563390D01*
X110033838Y-88563391D01*
X110025164Y-88577196D01*
X109965622Y-88747358D01*
X109965621Y-88747361D01*
X109945438Y-88926497D01*
X109945438Y-88926502D01*
X102424120Y-88926502D01*
X102322834Y-88884549D01*
X102322832Y-88884548D01*
X102322831Y-88884548D01*
X102203489Y-88868836D01*
X102179123Y-88865628D01*
X102179121Y-88865628D01*
X102035413Y-88884548D01*
X102035409Y-88884549D01*
X101901498Y-88940016D01*
X101901496Y-88940017D01*
X101828651Y-88995913D01*
X101763482Y-89021107D01*
X101695037Y-89007068D01*
X101677679Y-88995913D01*
X101577625Y-88919139D01*
X101577623Y-88919138D01*
X101503018Y-88888236D01*
X101448614Y-88844396D01*
X101426549Y-88778102D01*
X101443828Y-88710402D01*
X101494965Y-88662791D01*
X101534283Y-88650736D01*
X101643709Y-88636330D01*
X101777625Y-88580861D01*
X101892621Y-88492621D01*
X101980861Y-88377625D01*
X102036330Y-88243709D01*
X102055250Y-88100000D01*
X102036330Y-87956291D01*
X101980861Y-87822375D01*
X101892621Y-87707379D01*
X101819801Y-87651502D01*
X109945438Y-87651502D01*
X109965621Y-87830638D01*
X109965622Y-87830641D01*
X110025162Y-88000798D01*
X110025167Y-88000808D01*
X110033838Y-88014608D01*
X110396947Y-87651500D01*
X110396947Y-87651499D01*
X110375223Y-87629775D01*
X110571577Y-87629775D01*
X110581975Y-87715413D01*
X110630981Y-87786409D01*
X110707366Y-87826500D01*
X110771747Y-87826500D01*
X110834260Y-87811092D01*
X110898832Y-87753886D01*
X110929423Y-87673225D01*
X110919025Y-87587587D01*
X110870019Y-87516591D01*
X110793634Y-87476500D01*
X110729253Y-87476500D01*
X110666740Y-87491908D01*
X110602168Y-87549114D01*
X110571577Y-87629775D01*
X110375223Y-87629775D01*
X110033838Y-87288390D01*
X110033838Y-87288391D01*
X110025164Y-87302196D01*
X109965622Y-87472358D01*
X109965621Y-87472361D01*
X109945438Y-87651497D01*
X109945438Y-87651502D01*
X101819801Y-87651502D01*
X101787894Y-87627019D01*
X101746694Y-87570592D01*
X101740444Y-87512459D01*
X101742762Y-87494857D01*
X101755250Y-87400000D01*
X101736330Y-87256291D01*
X101685955Y-87134672D01*
X101680862Y-87122377D01*
X101680861Y-87122376D01*
X101680861Y-87122375D01*
X101592621Y-87007379D01*
X101583005Y-87000000D01*
X106344750Y-87000000D01*
X106361978Y-87130861D01*
X106363670Y-87143708D01*
X106363671Y-87143712D01*
X106419137Y-87277622D01*
X106419138Y-87277624D01*
X106419139Y-87277625D01*
X106507379Y-87392621D01*
X106622375Y-87480861D01*
X106756291Y-87536330D01*
X106883280Y-87553048D01*
X106899999Y-87555250D01*
X106900000Y-87555250D01*
X106900001Y-87555250D01*
X106914977Y-87553278D01*
X107043709Y-87536330D01*
X107177625Y-87480861D01*
X107292621Y-87392621D01*
X107380861Y-87277625D01*
X107436330Y-87143709D01*
X107455250Y-87000000D01*
X107446671Y-86934838D01*
X110387390Y-86934838D01*
X110750500Y-87297947D01*
X110750501Y-87297947D01*
X111113608Y-86934838D01*
X111662390Y-86934838D01*
X112025500Y-87297947D01*
X112025501Y-87297947D01*
X112388608Y-86934838D01*
X112937390Y-86934838D01*
X113300500Y-87297947D01*
X113300501Y-87297947D01*
X113663608Y-86934838D01*
X113663608Y-86934837D01*
X113649808Y-86926167D01*
X113649798Y-86926162D01*
X113479641Y-86866622D01*
X113479638Y-86866621D01*
X113300503Y-86846438D01*
X113300497Y-86846438D01*
X113121361Y-86866621D01*
X113121358Y-86866622D01*
X112951196Y-86926164D01*
X112937391Y-86934838D01*
X112937390Y-86934838D01*
X112388608Y-86934838D01*
X112388608Y-86934837D01*
X112374808Y-86926167D01*
X112374798Y-86926162D01*
X112204641Y-86866622D01*
X112204638Y-86866621D01*
X112025503Y-86846438D01*
X112025497Y-86846438D01*
X111846361Y-86866621D01*
X111846358Y-86866622D01*
X111676196Y-86926164D01*
X111662391Y-86934838D01*
X111662390Y-86934838D01*
X111113608Y-86934838D01*
X111113608Y-86934837D01*
X111099808Y-86926167D01*
X111099798Y-86926162D01*
X110929641Y-86866622D01*
X110929638Y-86866621D01*
X110750503Y-86846438D01*
X110750497Y-86846438D01*
X110571361Y-86866621D01*
X110571358Y-86866622D01*
X110401196Y-86926164D01*
X110387391Y-86934838D01*
X110387390Y-86934838D01*
X107446671Y-86934838D01*
X107436330Y-86856291D01*
X107380861Y-86722375D01*
X107325325Y-86650000D01*
X127394750Y-86650000D01*
X127403048Y-86713032D01*
X127413670Y-86793708D01*
X127413671Y-86793712D01*
X127469137Y-86927622D01*
X127469138Y-86927624D01*
X127469139Y-86927625D01*
X127557379Y-87042621D01*
X127672375Y-87130861D01*
X127672376Y-87130861D01*
X127672377Y-87130862D01*
X127717013Y-87149350D01*
X127806291Y-87186330D01*
X127933280Y-87203048D01*
X127949999Y-87205250D01*
X127950000Y-87205250D01*
X127950001Y-87205250D01*
X127964977Y-87203278D01*
X128093709Y-87186330D01*
X128227625Y-87130861D01*
X128342621Y-87042621D01*
X128430861Y-86927625D01*
X128486330Y-86793709D01*
X128505250Y-86650000D01*
X128486330Y-86506291D01*
X128430861Y-86372375D01*
X128342621Y-86257379D01*
X128227625Y-86169139D01*
X128227624Y-86169138D01*
X128227622Y-86169137D01*
X128093712Y-86113671D01*
X128093710Y-86113670D01*
X128093709Y-86113670D01*
X128021854Y-86104210D01*
X127950001Y-86094750D01*
X127949999Y-86094750D01*
X127806291Y-86113670D01*
X127806287Y-86113671D01*
X127672377Y-86169137D01*
X127557379Y-86257379D01*
X127469137Y-86372377D01*
X127413671Y-86506287D01*
X127413670Y-86506291D01*
X127394750Y-86650000D01*
X107325325Y-86650000D01*
X107292621Y-86607379D01*
X107177625Y-86519139D01*
X107177624Y-86519138D01*
X107177622Y-86519137D01*
X107043712Y-86463671D01*
X107043710Y-86463670D01*
X107043709Y-86463670D01*
X106971854Y-86454210D01*
X106900001Y-86444750D01*
X106899999Y-86444750D01*
X106756291Y-86463670D01*
X106756287Y-86463671D01*
X106622377Y-86519137D01*
X106507379Y-86607379D01*
X106419137Y-86722377D01*
X106363671Y-86856287D01*
X106363670Y-86856291D01*
X106354279Y-86927625D01*
X106344750Y-87000000D01*
X101583005Y-87000000D01*
X101477625Y-86919139D01*
X101477624Y-86919138D01*
X101477622Y-86919137D01*
X101343712Y-86863671D01*
X101343710Y-86863670D01*
X101343709Y-86863670D01*
X101271854Y-86854210D01*
X101200001Y-86844750D01*
X101199999Y-86844750D01*
X101056291Y-86863670D01*
X101056287Y-86863671D01*
X100922377Y-86919137D01*
X100807379Y-87007379D01*
X100719137Y-87122377D01*
X100663671Y-87256287D01*
X100663670Y-87256291D01*
X100645722Y-87392620D01*
X100644750Y-87400000D01*
X96455717Y-87400000D01*
X96454745Y-87392620D01*
X96442841Y-87302201D01*
X96436830Y-87256541D01*
X96384773Y-87130862D01*
X96381362Y-87122627D01*
X96381361Y-87122626D01*
X96381361Y-87122625D01*
X96293121Y-87007629D01*
X96178125Y-86919389D01*
X96178124Y-86919388D01*
X96178122Y-86919387D01*
X96044212Y-86863921D01*
X96044210Y-86863920D01*
X96044209Y-86863920D01*
X95972354Y-86854460D01*
X95900501Y-86845000D01*
X95900499Y-86845000D01*
X95756791Y-86863920D01*
X95756787Y-86863921D01*
X95622877Y-86919387D01*
X95507879Y-87007629D01*
X95419637Y-87122627D01*
X95364171Y-87256537D01*
X95364170Y-87256541D01*
X95346255Y-87392620D01*
X95345250Y-87400250D01*
X82550500Y-87400250D01*
X82550500Y-85164334D01*
X84299500Y-85164334D01*
X84340429Y-85409616D01*
X84421169Y-85644802D01*
X84421172Y-85644811D01*
X84539524Y-85863506D01*
X84539526Y-85863509D01*
X84692262Y-86059744D01*
X84825837Y-86182708D01*
X84875217Y-86228166D01*
X85083393Y-86364173D01*
X85311118Y-86464063D01*
X85528600Y-86519137D01*
X85552179Y-86525108D01*
X85552181Y-86525108D01*
X85552186Y-86525109D01*
X85685376Y-86536145D01*
X85737933Y-86540500D01*
X85737935Y-86540500D01*
X85862065Y-86540500D01*
X85862067Y-86540500D01*
X85923284Y-86535427D01*
X86047813Y-86525109D01*
X86047816Y-86525108D01*
X86047821Y-86525108D01*
X86288881Y-86464063D01*
X86516607Y-86364173D01*
X86724785Y-86228164D01*
X86907738Y-86059744D01*
X87060474Y-85863509D01*
X87178828Y-85644810D01*
X87228541Y-85500000D01*
X96544750Y-85500000D01*
X96563670Y-85643708D01*
X96563671Y-85643712D01*
X96619137Y-85777622D01*
X96619138Y-85777624D01*
X96619139Y-85777625D01*
X96707379Y-85892621D01*
X96822375Y-85980861D01*
X96956291Y-86036330D01*
X97083280Y-86053048D01*
X97099999Y-86055250D01*
X97100000Y-86055250D01*
X97100001Y-86055250D01*
X97114977Y-86053278D01*
X97223428Y-86039000D01*
X104470250Y-86039000D01*
X104487383Y-86169139D01*
X104489170Y-86182708D01*
X104489171Y-86182712D01*
X104544637Y-86316622D01*
X104544638Y-86316624D01*
X104544639Y-86316625D01*
X104632879Y-86431621D01*
X104747875Y-86519861D01*
X104747876Y-86519861D01*
X104747877Y-86519862D01*
X104760545Y-86525109D01*
X104881791Y-86575330D01*
X105008780Y-86592048D01*
X105025499Y-86594250D01*
X105025500Y-86594250D01*
X105025501Y-86594250D01*
X105040477Y-86592278D01*
X105169209Y-86575330D01*
X105303125Y-86519861D01*
X105418121Y-86431621D01*
X105506361Y-86316625D01*
X105561830Y-86182709D01*
X105580750Y-86039000D01*
X105580398Y-86036330D01*
X105573096Y-85980862D01*
X105561830Y-85895291D01*
X105506361Y-85761375D01*
X105418121Y-85646379D01*
X105303125Y-85558139D01*
X105303124Y-85558138D01*
X105303122Y-85558137D01*
X105169212Y-85502671D01*
X105169210Y-85502670D01*
X105169209Y-85502670D01*
X105097354Y-85493210D01*
X105025501Y-85483750D01*
X105025499Y-85483750D01*
X104881791Y-85502670D01*
X104881787Y-85502671D01*
X104747877Y-85558137D01*
X104632879Y-85646379D01*
X104544637Y-85761377D01*
X104489171Y-85895287D01*
X104489170Y-85895291D01*
X104470602Y-86036330D01*
X104470250Y-86039000D01*
X97223428Y-86039000D01*
X97243709Y-86036330D01*
X97377625Y-85980861D01*
X97492621Y-85892621D01*
X97580861Y-85777625D01*
X97636330Y-85643709D01*
X97655250Y-85500000D01*
X97636330Y-85356291D01*
X97580861Y-85222375D01*
X97506514Y-85125484D01*
X97481321Y-85060318D01*
X97495359Y-84991873D01*
X97506510Y-84974519D01*
X97580861Y-84877625D01*
X97636330Y-84743709D01*
X97655250Y-84600000D01*
X97636330Y-84456291D01*
X97586641Y-84336329D01*
X97580862Y-84322377D01*
X97580861Y-84322376D01*
X97580861Y-84322375D01*
X97492621Y-84207379D01*
X97377625Y-84119139D01*
X97377624Y-84119138D01*
X97377622Y-84119137D01*
X97243712Y-84063671D01*
X97243710Y-84063670D01*
X97243709Y-84063670D01*
X97152448Y-84051655D01*
X97100001Y-84044750D01*
X97099999Y-84044750D01*
X96956291Y-84063670D01*
X96956287Y-84063671D01*
X96822377Y-84119137D01*
X96707379Y-84207379D01*
X96619137Y-84322377D01*
X96563671Y-84456287D01*
X96563670Y-84456291D01*
X96544750Y-84600000D01*
X96560788Y-84721822D01*
X96563670Y-84743708D01*
X96563671Y-84743712D01*
X96619137Y-84877622D01*
X96619138Y-84877624D01*
X96619139Y-84877625D01*
X96693485Y-84974515D01*
X96718679Y-85039682D01*
X96704641Y-85108127D01*
X96693489Y-85125480D01*
X96663676Y-85164334D01*
X96619137Y-85222377D01*
X96563671Y-85356287D01*
X96563670Y-85356291D01*
X96544750Y-85499999D01*
X96544750Y-85500000D01*
X87228541Y-85500000D01*
X87259571Y-85409614D01*
X87300500Y-85164335D01*
X87300500Y-84915665D01*
X87259571Y-84670386D01*
X87182688Y-84446436D01*
X87179539Y-84376638D01*
X87214625Y-84316217D01*
X87276808Y-84284357D01*
X87346344Y-84291172D01*
X87398924Y-84331447D01*
X87416899Y-84355250D01*
X87504682Y-84471493D01*
X87658829Y-84612016D01*
X87836172Y-84721823D01*
X88030673Y-84797173D01*
X88235707Y-84835500D01*
X88235710Y-84835500D01*
X88444290Y-84835500D01*
X88444293Y-84835500D01*
X88649327Y-84797173D01*
X88843828Y-84721823D01*
X89021171Y-84612016D01*
X89175318Y-84471493D01*
X89301019Y-84305038D01*
X89393994Y-84118319D01*
X89451076Y-83917696D01*
X89461982Y-83800000D01*
X100444750Y-83800000D01*
X100461552Y-83927625D01*
X100463670Y-83943708D01*
X100463671Y-83943712D01*
X100519137Y-84077622D01*
X100519138Y-84077624D01*
X100519139Y-84077625D01*
X100607379Y-84192621D01*
X100722375Y-84280861D01*
X100722376Y-84280861D01*
X100722377Y-84280862D01*
X100747268Y-84291172D01*
X100856291Y-84336330D01*
X100983280Y-84353048D01*
X100999999Y-84355250D01*
X101000000Y-84355250D01*
X101000001Y-84355250D01*
X101014977Y-84353278D01*
X101143709Y-84336330D01*
X101277625Y-84280861D01*
X101392621Y-84192621D01*
X101480861Y-84077625D01*
X101536330Y-83943709D01*
X101555250Y-83800000D01*
X101536330Y-83656291D01*
X101508458Y-83589000D01*
X110370250Y-83589000D01*
X110386947Y-83715827D01*
X110389170Y-83732708D01*
X110389171Y-83732712D01*
X110444637Y-83866622D01*
X110444638Y-83866624D01*
X110444639Y-83866625D01*
X110532879Y-83981621D01*
X110647875Y-84069861D01*
X110781791Y-84125330D01*
X110908780Y-84142048D01*
X110925499Y-84144250D01*
X110925500Y-84144250D01*
X110925501Y-84144250D01*
X110940477Y-84142278D01*
X111069209Y-84125330D01*
X111203125Y-84069861D01*
X111226851Y-84051654D01*
X111292019Y-84026459D01*
X111360465Y-84040496D01*
X111400712Y-84074539D01*
X111482879Y-84181621D01*
X111597875Y-84269861D01*
X111597876Y-84269861D01*
X111597877Y-84269862D01*
X111624432Y-84280861D01*
X111731791Y-84325330D01*
X111858780Y-84342048D01*
X111875499Y-84344250D01*
X111875500Y-84344250D01*
X111875501Y-84344250D01*
X111890477Y-84342278D01*
X112019209Y-84325330D01*
X112153125Y-84269861D01*
X112258505Y-84189000D01*
X114870250Y-84189000D01*
X114888198Y-84325329D01*
X114889170Y-84332708D01*
X114889171Y-84332712D01*
X114944637Y-84466622D01*
X114944638Y-84466624D01*
X114944639Y-84466625D01*
X115032879Y-84581621D01*
X115147875Y-84669861D01*
X115281791Y-84725330D01*
X115408780Y-84742048D01*
X115425499Y-84744250D01*
X115425500Y-84744250D01*
X115425501Y-84744250D01*
X115440477Y-84742278D01*
X115569209Y-84725330D01*
X115703125Y-84669861D01*
X115818121Y-84581621D01*
X115906361Y-84466625D01*
X115961830Y-84332709D01*
X115980750Y-84189000D01*
X115980398Y-84186330D01*
X115973096Y-84130862D01*
X115961830Y-84045291D01*
X115906361Y-83911375D01*
X115818121Y-83796379D01*
X115757679Y-83750000D01*
X116344750Y-83750000D01*
X116363670Y-83893708D01*
X116363671Y-83893712D01*
X116419137Y-84027622D01*
X116419138Y-84027624D01*
X116419139Y-84027625D01*
X116507379Y-84142621D01*
X116622375Y-84230861D01*
X116756291Y-84286330D01*
X116883280Y-84303048D01*
X116899999Y-84305250D01*
X116900000Y-84305250D01*
X116900001Y-84305250D01*
X116914977Y-84303278D01*
X117043709Y-84286330D01*
X117177625Y-84230861D01*
X117292621Y-84142621D01*
X117380861Y-84027625D01*
X117436330Y-83893709D01*
X117455250Y-83750000D01*
X117442085Y-83650000D01*
X119244750Y-83650000D01*
X119261978Y-83780861D01*
X119263670Y-83793708D01*
X119263671Y-83793712D01*
X119319137Y-83927622D01*
X119319138Y-83927624D01*
X119319139Y-83927625D01*
X119407379Y-84042621D01*
X119522375Y-84130861D01*
X119522376Y-84130861D01*
X119522377Y-84130862D01*
X119554699Y-84144250D01*
X119656291Y-84186330D01*
X119783280Y-84203048D01*
X119799999Y-84205250D01*
X119800000Y-84205250D01*
X119800001Y-84205250D01*
X119814977Y-84203278D01*
X119943709Y-84186330D01*
X120077625Y-84130861D01*
X120192621Y-84042621D01*
X120280861Y-83927625D01*
X120336330Y-83793709D01*
X120355250Y-83650000D01*
X120336330Y-83506291D01*
X120280861Y-83372375D01*
X120225325Y-83300000D01*
X120844750Y-83300000D01*
X120851535Y-83351540D01*
X120863670Y-83443708D01*
X120863671Y-83443712D01*
X120919137Y-83577622D01*
X120919138Y-83577624D01*
X120919139Y-83577625D01*
X121007379Y-83692621D01*
X121122375Y-83780861D01*
X121122376Y-83780861D01*
X121122377Y-83780862D01*
X121159839Y-83796379D01*
X121256291Y-83836330D01*
X121374046Y-83851833D01*
X121399999Y-83855250D01*
X121400000Y-83855250D01*
X121400001Y-83855250D01*
X121425931Y-83851836D01*
X121543709Y-83836330D01*
X121677625Y-83780861D01*
X121792621Y-83692621D01*
X121880861Y-83577625D01*
X121936330Y-83443709D01*
X121955250Y-83300000D01*
X121936330Y-83156291D01*
X121880861Y-83022375D01*
X121792621Y-82907379D01*
X121677625Y-82819139D01*
X121677624Y-82819138D01*
X121677622Y-82819137D01*
X121543712Y-82763671D01*
X121543710Y-82763670D01*
X121543709Y-82763670D01*
X121471854Y-82754210D01*
X121400001Y-82744750D01*
X121399999Y-82744750D01*
X121256291Y-82763670D01*
X121256287Y-82763671D01*
X121122377Y-82819137D01*
X121007379Y-82907379D01*
X120919137Y-83022377D01*
X120863671Y-83156287D01*
X120863670Y-83156291D01*
X120844750Y-83300000D01*
X120225325Y-83300000D01*
X120192621Y-83257379D01*
X120077625Y-83169139D01*
X120077624Y-83169138D01*
X120077622Y-83169137D01*
X119943712Y-83113671D01*
X119943710Y-83113670D01*
X119943709Y-83113670D01*
X119871854Y-83104210D01*
X119800001Y-83094750D01*
X119799999Y-83094750D01*
X119656291Y-83113670D01*
X119656287Y-83113671D01*
X119522377Y-83169137D01*
X119407379Y-83257379D01*
X119319137Y-83372377D01*
X119263671Y-83506287D01*
X119263670Y-83506291D01*
X119249235Y-83615937D01*
X119244750Y-83650000D01*
X117442085Y-83650000D01*
X117436330Y-83606291D01*
X117394908Y-83506287D01*
X117380862Y-83472377D01*
X117380861Y-83472376D01*
X117380861Y-83472375D01*
X117292621Y-83357379D01*
X117177625Y-83269139D01*
X117177624Y-83269138D01*
X117177622Y-83269137D01*
X117043712Y-83213671D01*
X117043710Y-83213670D01*
X117043709Y-83213670D01*
X116951225Y-83201494D01*
X116900001Y-83194750D01*
X116899999Y-83194750D01*
X116756291Y-83213670D01*
X116756287Y-83213671D01*
X116622377Y-83269137D01*
X116507379Y-83357379D01*
X116419137Y-83472377D01*
X116363671Y-83606287D01*
X116363670Y-83606291D01*
X116344750Y-83749999D01*
X116344750Y-83750000D01*
X115757679Y-83750000D01*
X115703125Y-83708139D01*
X115703124Y-83708138D01*
X115703122Y-83708137D01*
X115569212Y-83652671D01*
X115569210Y-83652670D01*
X115569209Y-83652670D01*
X115497354Y-83643210D01*
X115425501Y-83633750D01*
X115425499Y-83633750D01*
X115281791Y-83652670D01*
X115281787Y-83652671D01*
X115147877Y-83708137D01*
X115032879Y-83796379D01*
X114944637Y-83911377D01*
X114889171Y-84045287D01*
X114889170Y-84045291D01*
X114870602Y-84186330D01*
X114870250Y-84189000D01*
X112258505Y-84189000D01*
X112268121Y-84181621D01*
X112356361Y-84066625D01*
X112411830Y-83932709D01*
X112430750Y-83789000D01*
X112429678Y-83780861D01*
X112420104Y-83708139D01*
X112411830Y-83645291D01*
X112356361Y-83511375D01*
X112268121Y-83396379D01*
X112153125Y-83308139D01*
X112153124Y-83308138D01*
X112153122Y-83308137D01*
X112019212Y-83252671D01*
X112019210Y-83252670D01*
X112019209Y-83252670D01*
X111947354Y-83243210D01*
X111875501Y-83233750D01*
X111875499Y-83233750D01*
X111731791Y-83252670D01*
X111731787Y-83252671D01*
X111597876Y-83308138D01*
X111597875Y-83308138D01*
X111574145Y-83326347D01*
X111508975Y-83351540D01*
X111440530Y-83337501D01*
X111400287Y-83303460D01*
X111318121Y-83196379D01*
X111203125Y-83108139D01*
X111203124Y-83108138D01*
X111203122Y-83108137D01*
X111069212Y-83052671D01*
X111069210Y-83052670D01*
X111069209Y-83052670D01*
X110997354Y-83043210D01*
X110925501Y-83033750D01*
X110925499Y-83033750D01*
X110781791Y-83052670D01*
X110781787Y-83052671D01*
X110647877Y-83108137D01*
X110532879Y-83196379D01*
X110444637Y-83311377D01*
X110389171Y-83445287D01*
X110389170Y-83445291D01*
X110371748Y-83577625D01*
X110370250Y-83589000D01*
X101508458Y-83589000D01*
X101486010Y-83534806D01*
X101480862Y-83522377D01*
X101480861Y-83522376D01*
X101480861Y-83522375D01*
X101392621Y-83407379D01*
X101277625Y-83319139D01*
X101277624Y-83319138D01*
X101277622Y-83319137D01*
X101143712Y-83263671D01*
X101143710Y-83263670D01*
X101143709Y-83263670D01*
X101060157Y-83252670D01*
X101000001Y-83244750D01*
X100999999Y-83244750D01*
X100856291Y-83263670D01*
X100856287Y-83263671D01*
X100722377Y-83319137D01*
X100607379Y-83407379D01*
X100519137Y-83522377D01*
X100463671Y-83656287D01*
X100463670Y-83656291D01*
X100447270Y-83780862D01*
X100444750Y-83800000D01*
X89461982Y-83800000D01*
X89470322Y-83710000D01*
X89468711Y-83692620D01*
X89460712Y-83606291D01*
X89451076Y-83502304D01*
X89393994Y-83301681D01*
X89301019Y-83114962D01*
X89175318Y-82948507D01*
X89021171Y-82807984D01*
X88843828Y-82698177D01*
X88843821Y-82698173D01*
X88821902Y-82689682D01*
X88766501Y-82647109D01*
X88742911Y-82581342D01*
X88758623Y-82513262D01*
X88808647Y-82464483D01*
X88826435Y-82456774D01*
X88894227Y-82433501D01*
X88894230Y-82433499D01*
X89094633Y-82325047D01*
X89120982Y-82304537D01*
X89120982Y-82304536D01*
X88916446Y-82100000D01*
X91244750Y-82100000D01*
X91262168Y-82232304D01*
X91263670Y-82243708D01*
X91263671Y-82243712D01*
X91319137Y-82377622D01*
X91319138Y-82377624D01*
X91319139Y-82377625D01*
X91407379Y-82492621D01*
X91522375Y-82580861D01*
X91656291Y-82636330D01*
X91783280Y-82653048D01*
X91799999Y-82655250D01*
X91800000Y-82655250D01*
X91800001Y-82655250D01*
X91814977Y-82653278D01*
X91943709Y-82636330D01*
X92077625Y-82580861D01*
X92192621Y-82492621D01*
X92280861Y-82377625D01*
X92336330Y-82243709D01*
X92355250Y-82100000D01*
X92336330Y-81956291D01*
X92280861Y-81822375D01*
X92192621Y-81707379D01*
X92077625Y-81619139D01*
X92077624Y-81619138D01*
X92077622Y-81619137D01*
X91943712Y-81563671D01*
X91943710Y-81563670D01*
X91943709Y-81563670D01*
X91871854Y-81554210D01*
X91800001Y-81544750D01*
X91799999Y-81544750D01*
X91656291Y-81563670D01*
X91656287Y-81563671D01*
X91522377Y-81619137D01*
X91407379Y-81707379D01*
X91319137Y-81822377D01*
X91263671Y-81956287D01*
X91263670Y-81956291D01*
X91253745Y-82031681D01*
X91244750Y-82100000D01*
X88916446Y-82100000D01*
X88626457Y-81810010D01*
X88667695Y-81794371D01*
X88807595Y-81697806D01*
X88920320Y-81570566D01*
X88980140Y-81456586D01*
X89473125Y-81949571D01*
X89553420Y-81826669D01*
X89644954Y-81617993D01*
X89700158Y-81400000D01*
X99844750Y-81400000D01*
X99862916Y-81537985D01*
X99863670Y-81543708D01*
X99863671Y-81543712D01*
X99919137Y-81677622D01*
X99919138Y-81677624D01*
X99919139Y-81677625D01*
X100007379Y-81792621D01*
X100122375Y-81880861D01*
X100122376Y-81880861D01*
X100122377Y-81880862D01*
X100138746Y-81887642D01*
X100256291Y-81936330D01*
X100383280Y-81953048D01*
X100399999Y-81955250D01*
X100400000Y-81955250D01*
X100400001Y-81955250D01*
X100414977Y-81953278D01*
X100543709Y-81936330D01*
X100677625Y-81880861D01*
X100792621Y-81792621D01*
X100880861Y-81677625D01*
X100936330Y-81543709D01*
X100955250Y-81400000D01*
X100936330Y-81256291D01*
X100880861Y-81122375D01*
X100792621Y-81007379D01*
X100691846Y-80930051D01*
X123014729Y-80930051D01*
X123033649Y-81073759D01*
X123033650Y-81073763D01*
X123089116Y-81207673D01*
X123089117Y-81207675D01*
X123089118Y-81207676D01*
X123177358Y-81322672D01*
X123292354Y-81410912D01*
X123426270Y-81466381D01*
X123553259Y-81483099D01*
X123569978Y-81485301D01*
X123569979Y-81485301D01*
X123569980Y-81485301D01*
X123584956Y-81483329D01*
X123713688Y-81466381D01*
X123847604Y-81410912D01*
X123894493Y-81374932D01*
X123959661Y-81349738D01*
X124028106Y-81363776D01*
X124045462Y-81374931D01*
X124092354Y-81410912D01*
X124226270Y-81466381D01*
X124353259Y-81483099D01*
X124369978Y-81485301D01*
X124369979Y-81485301D01*
X124369980Y-81485301D01*
X124384956Y-81483329D01*
X124513688Y-81466381D01*
X124647604Y-81410912D01*
X124647610Y-81410907D01*
X124654643Y-81406848D01*
X124655836Y-81408914D01*
X124709657Y-81388105D01*
X124778103Y-81402141D01*
X124786415Y-81407483D01*
X124792350Y-81410909D01*
X124792354Y-81410912D01*
X124926270Y-81466381D01*
X125053259Y-81483099D01*
X125069978Y-81485301D01*
X125069979Y-81485301D01*
X125069980Y-81485301D01*
X125084956Y-81483329D01*
X125213688Y-81466381D01*
X125347604Y-81410912D01*
X125462600Y-81322672D01*
X125550840Y-81207676D01*
X125606309Y-81073760D01*
X125625229Y-80930051D01*
X125606309Y-80786342D01*
X125550840Y-80652426D01*
X125462600Y-80537430D01*
X125347604Y-80449190D01*
X125347603Y-80449189D01*
X125347601Y-80449188D01*
X125213691Y-80393722D01*
X125213689Y-80393721D01*
X125213688Y-80393721D01*
X125141833Y-80384261D01*
X125069980Y-80374801D01*
X125069978Y-80374801D01*
X124926270Y-80393721D01*
X124926266Y-80393722D01*
X124792353Y-80449189D01*
X124785314Y-80453254D01*
X124784122Y-80451189D01*
X124730283Y-80471997D01*
X124661840Y-80457951D01*
X124653529Y-80452610D01*
X124647604Y-80449189D01*
X124513691Y-80393722D01*
X124513689Y-80393721D01*
X124513688Y-80393721D01*
X124441833Y-80384261D01*
X124369980Y-80374801D01*
X124369978Y-80374801D01*
X124226270Y-80393721D01*
X124226266Y-80393722D01*
X124092355Y-80449189D01*
X124092353Y-80449190D01*
X124045465Y-80485169D01*
X123980296Y-80510363D01*
X123911851Y-80496325D01*
X123894493Y-80485169D01*
X123847604Y-80449190D01*
X123847602Y-80449189D01*
X123713691Y-80393722D01*
X123713689Y-80393721D01*
X123713688Y-80393721D01*
X123641833Y-80384261D01*
X123569980Y-80374801D01*
X123569978Y-80374801D01*
X123426270Y-80393721D01*
X123426266Y-80393722D01*
X123292356Y-80449188D01*
X123177358Y-80537430D01*
X123089116Y-80652428D01*
X123033650Y-80786338D01*
X123033649Y-80786342D01*
X123014729Y-80930050D01*
X123014729Y-80930051D01*
X100691846Y-80930051D01*
X100677625Y-80919139D01*
X100677624Y-80919138D01*
X100677622Y-80919137D01*
X100543712Y-80863671D01*
X100543710Y-80863670D01*
X100543709Y-80863670D01*
X100471854Y-80854210D01*
X100400001Y-80844750D01*
X100399999Y-80844750D01*
X100256291Y-80863670D01*
X100256287Y-80863671D01*
X100122376Y-80919138D01*
X100122374Y-80919139D01*
X100018215Y-80999063D01*
X99978234Y-81014519D01*
X99957415Y-81072435D01*
X99955646Y-81074798D01*
X99919139Y-81122374D01*
X99919138Y-81122376D01*
X99863671Y-81256287D01*
X99863670Y-81256291D01*
X99850961Y-81352827D01*
X99844750Y-81400000D01*
X89700158Y-81400000D01*
X89700894Y-81397093D01*
X89700896Y-81397085D01*
X89719712Y-81170006D01*
X89719712Y-81169993D01*
X89700896Y-80942914D01*
X89700894Y-80942906D01*
X89644954Y-80722006D01*
X89553420Y-80513330D01*
X89544711Y-80500000D01*
X98844750Y-80500000D01*
X98857521Y-80597007D01*
X98863670Y-80643708D01*
X98863671Y-80643712D01*
X98919137Y-80777622D01*
X98919138Y-80777623D01*
X98919139Y-80777625D01*
X99007379Y-80892621D01*
X99122375Y-80980861D01*
X99122376Y-80980861D01*
X99122377Y-80980862D01*
X99166319Y-80999063D01*
X99256291Y-81036330D01*
X99383280Y-81053048D01*
X99399999Y-81055250D01*
X99400000Y-81055250D01*
X99400001Y-81055250D01*
X99414977Y-81053278D01*
X99543709Y-81036330D01*
X99677625Y-80980861D01*
X99781783Y-80900936D01*
X99821763Y-80885479D01*
X99842585Y-80827563D01*
X99844315Y-80825252D01*
X99880861Y-80777625D01*
X99936330Y-80643709D01*
X99955250Y-80500000D01*
X99936330Y-80356291D01*
X99880861Y-80222375D01*
X99792621Y-80107379D01*
X99677625Y-80019139D01*
X99677624Y-80019138D01*
X99677622Y-80019137D01*
X99543712Y-79963671D01*
X99543710Y-79963670D01*
X99543709Y-79963670D01*
X99455296Y-79952030D01*
X99400001Y-79944750D01*
X99399999Y-79944750D01*
X99256291Y-79963670D01*
X99256287Y-79963671D01*
X99122377Y-80019137D01*
X99007379Y-80107379D01*
X98919137Y-80222377D01*
X98863671Y-80356287D01*
X98863670Y-80356291D01*
X98846703Y-80485169D01*
X98844750Y-80500000D01*
X89544711Y-80500000D01*
X89473124Y-80390427D01*
X88980139Y-80883412D01*
X88920320Y-80769434D01*
X88807595Y-80642194D01*
X88667695Y-80545629D01*
X88626456Y-80529989D01*
X89120983Y-80035462D01*
X89120983Y-80035461D01*
X89094632Y-80014952D01*
X89094627Y-80014949D01*
X88952151Y-79937845D01*
X88902560Y-79888626D01*
X88887452Y-79820409D01*
X88889815Y-79814000D01*
X101922350Y-79814000D01*
X101941270Y-79957708D01*
X101941271Y-79957712D01*
X101996737Y-80091622D01*
X101996738Y-80091624D01*
X101996739Y-80091625D01*
X102084979Y-80206621D01*
X102199975Y-80294861D01*
X102333891Y-80350330D01*
X102460880Y-80367048D01*
X102477599Y-80369250D01*
X102477600Y-80369250D01*
X102477601Y-80369250D01*
X102492577Y-80367278D01*
X102621309Y-80350330D01*
X102755225Y-80294861D01*
X102870221Y-80206621D01*
X102958461Y-80091625D01*
X103013930Y-79957709D01*
X103032850Y-79814000D01*
X103013930Y-79670291D01*
X102993053Y-79619888D01*
X128824356Y-79619888D01*
X128844446Y-79952024D01*
X128844446Y-79952029D01*
X128844447Y-79952030D01*
X128904427Y-80279329D01*
X128904428Y-80279333D01*
X128904429Y-80279337D01*
X129003413Y-80596992D01*
X129003417Y-80597004D01*
X129003420Y-80597011D01*
X129139985Y-80900445D01*
X129302937Y-81170000D01*
X129312134Y-81185214D01*
X129517343Y-81447143D01*
X129752627Y-81682427D01*
X130014556Y-81887636D01*
X130014561Y-81887639D01*
X130014565Y-81887642D01*
X130299326Y-82059786D01*
X130602760Y-82196351D01*
X130602773Y-82196355D01*
X130602778Y-82196357D01*
X130754735Y-82243708D01*
X130920442Y-82295344D01*
X131247741Y-82355324D01*
X131579883Y-82375415D01*
X131912025Y-82355324D01*
X132239324Y-82295344D01*
X132557006Y-82196351D01*
X132860440Y-82059786D01*
X133145201Y-81887642D01*
X133153857Y-81880861D01*
X133266488Y-81792620D01*
X133407135Y-81682430D01*
X133642425Y-81447140D01*
X133847637Y-81185206D01*
X134019781Y-80900445D01*
X134156346Y-80597011D01*
X134255339Y-80279329D01*
X134315319Y-79952030D01*
X134335410Y-79619888D01*
X134315319Y-79287746D01*
X134255339Y-78960447D01*
X134197396Y-78774500D01*
X134156352Y-78642783D01*
X134156350Y-78642778D01*
X134156346Y-78642765D01*
X134019781Y-78339331D01*
X133847637Y-78054570D01*
X133847634Y-78054566D01*
X133847631Y-78054561D01*
X133642422Y-77792632D01*
X133407138Y-77557348D01*
X133145209Y-77352139D01*
X133130518Y-77343258D01*
X132860440Y-77179990D01*
X132557006Y-77043425D01*
X132556999Y-77043422D01*
X132556987Y-77043418D01*
X132239332Y-76944434D01*
X132239328Y-76944433D01*
X132239324Y-76944432D01*
X131912025Y-76884452D01*
X131912024Y-76884451D01*
X131912019Y-76884451D01*
X131579883Y-76864361D01*
X131247746Y-76884451D01*
X131247741Y-76884452D01*
X130920442Y-76944432D01*
X130920439Y-76944432D01*
X130920433Y-76944434D01*
X130602778Y-77043418D01*
X130602762Y-77043424D01*
X130602760Y-77043425D01*
X130442690Y-77115467D01*
X130299330Y-77179988D01*
X130299328Y-77179989D01*
X130014556Y-77352139D01*
X129752627Y-77557348D01*
X129517343Y-77792632D01*
X129312134Y-78054561D01*
X129139984Y-78339333D01*
X129139983Y-78339335D01*
X129122750Y-78377625D01*
X129006317Y-78636330D01*
X129003419Y-78642768D01*
X129003413Y-78642783D01*
X128904429Y-78960438D01*
X128904427Y-78960444D01*
X128904427Y-78960447D01*
X128871797Y-79138505D01*
X128844446Y-79287751D01*
X128824356Y-79619888D01*
X102993053Y-79619888D01*
X102958461Y-79536375D01*
X102870221Y-79421379D01*
X102755225Y-79333139D01*
X102755224Y-79333138D01*
X102755222Y-79333137D01*
X102621312Y-79277671D01*
X102621310Y-79277670D01*
X102621309Y-79277670D01*
X102549454Y-79268210D01*
X102477601Y-79258750D01*
X102477599Y-79258750D01*
X102333891Y-79277670D01*
X102333887Y-79277671D01*
X102199977Y-79333137D01*
X102084979Y-79421379D01*
X101996737Y-79536377D01*
X101941271Y-79670287D01*
X101941270Y-79670291D01*
X101922350Y-79813999D01*
X101922350Y-79814000D01*
X88889815Y-79814000D01*
X88911622Y-79754853D01*
X88958761Y-79716409D01*
X88992734Y-79700568D01*
X89179139Y-79570047D01*
X89340047Y-79409139D01*
X89470568Y-79222734D01*
X89566739Y-79016496D01*
X89625635Y-78796692D01*
X89645468Y-78570000D01*
X89625635Y-78343308D01*
X89566739Y-78123504D01*
X89555779Y-78100000D01*
X91544750Y-78100000D01*
X91557915Y-78200000D01*
X91563670Y-78243708D01*
X91563671Y-78243712D01*
X91619137Y-78377622D01*
X91619138Y-78377624D01*
X91619139Y-78377625D01*
X91707379Y-78492621D01*
X91822375Y-78580861D01*
X91822376Y-78580861D01*
X91822377Y-78580862D01*
X91867013Y-78599350D01*
X91956291Y-78636330D01*
X92083280Y-78653048D01*
X92099999Y-78655250D01*
X92100000Y-78655250D01*
X92100001Y-78655250D01*
X92114977Y-78653278D01*
X92243709Y-78636330D01*
X92377625Y-78580861D01*
X92492621Y-78492621D01*
X92580861Y-78377625D01*
X92636330Y-78243709D01*
X92642085Y-78200000D01*
X117794750Y-78200000D01*
X117813616Y-78343302D01*
X117813670Y-78343708D01*
X117813671Y-78343712D01*
X117869137Y-78477622D01*
X117869138Y-78477624D01*
X117869139Y-78477625D01*
X117957379Y-78592621D01*
X118072375Y-78680861D01*
X118206291Y-78736330D01*
X118333280Y-78753048D01*
X118349999Y-78755250D01*
X118350000Y-78755250D01*
X118350001Y-78755250D01*
X118364977Y-78753278D01*
X118493709Y-78736330D01*
X118627625Y-78680861D01*
X118742621Y-78592621D01*
X118830861Y-78477625D01*
X118886330Y-78343709D01*
X118905250Y-78200000D01*
X118886330Y-78056291D01*
X118830861Y-77922375D01*
X118742621Y-77807379D01*
X118627625Y-77719139D01*
X118627624Y-77719138D01*
X118627622Y-77719137D01*
X118493712Y-77663671D01*
X118493710Y-77663670D01*
X118493709Y-77663670D01*
X118421854Y-77654210D01*
X118350001Y-77644750D01*
X118349999Y-77644750D01*
X118206291Y-77663670D01*
X118206287Y-77663671D01*
X118072377Y-77719137D01*
X117957379Y-77807379D01*
X117869137Y-77922377D01*
X117813671Y-78056287D01*
X117813670Y-78056291D01*
X117794750Y-78200000D01*
X92642085Y-78200000D01*
X92655250Y-78100000D01*
X92636330Y-77956291D01*
X92580861Y-77822375D01*
X92492621Y-77707379D01*
X92377625Y-77619139D01*
X92377624Y-77619138D01*
X92377622Y-77619137D01*
X92243712Y-77563671D01*
X92243710Y-77563670D01*
X92243709Y-77563670D01*
X92171854Y-77554210D01*
X92100001Y-77544750D01*
X92099999Y-77544750D01*
X91956291Y-77563670D01*
X91956287Y-77563671D01*
X91822377Y-77619137D01*
X91707379Y-77707379D01*
X91619137Y-77822377D01*
X91563671Y-77956287D01*
X91563670Y-77956291D01*
X91550505Y-78056291D01*
X91544750Y-78100000D01*
X89555779Y-78100000D01*
X89470568Y-77917266D01*
X89340047Y-77730861D01*
X89340045Y-77730858D01*
X89179141Y-77569954D01*
X88992734Y-77439432D01*
X88992732Y-77439431D01*
X88786497Y-77343261D01*
X88786488Y-77343258D01*
X88566697Y-77284366D01*
X88566687Y-77284364D01*
X88396784Y-77269500D01*
X88283216Y-77269500D01*
X88113312Y-77284364D01*
X88113302Y-77284366D01*
X87893511Y-77343258D01*
X87893502Y-77343261D01*
X87687267Y-77439431D01*
X87687265Y-77439432D01*
X87500858Y-77569954D01*
X87339954Y-77730858D01*
X87209432Y-77917265D01*
X87209431Y-77917267D01*
X87113261Y-78123502D01*
X87113258Y-78123511D01*
X87054366Y-78343302D01*
X87054364Y-78343313D01*
X87034532Y-78569998D01*
X87034532Y-78570001D01*
X87054364Y-78796686D01*
X87054366Y-78796697D01*
X87113258Y-79016488D01*
X87113261Y-79016497D01*
X87209431Y-79222732D01*
X87209432Y-79222734D01*
X87339954Y-79409141D01*
X87500858Y-79570045D01*
X87500861Y-79570047D01*
X87687266Y-79700568D01*
X87721233Y-79716407D01*
X87721235Y-79716408D01*
X87773675Y-79762580D01*
X87792827Y-79829773D01*
X87772612Y-79896655D01*
X87727848Y-79937845D01*
X87585373Y-80014948D01*
X87559016Y-80035462D01*
X88053543Y-80529989D01*
X88012305Y-80545629D01*
X87872405Y-80642194D01*
X87759680Y-80769434D01*
X87699859Y-80883413D01*
X87206874Y-80390428D01*
X87126578Y-80513333D01*
X87126577Y-80513335D01*
X87035045Y-80722006D01*
X86979105Y-80942906D01*
X86979103Y-80942914D01*
X86960288Y-81169993D01*
X86960288Y-81170006D01*
X86979103Y-81397085D01*
X86979105Y-81397093D01*
X87035045Y-81617993D01*
X87126577Y-81826664D01*
X87126579Y-81826668D01*
X87206874Y-81949570D01*
X87699859Y-81456585D01*
X87759680Y-81570566D01*
X87872405Y-81697806D01*
X88012305Y-81794371D01*
X88053542Y-81810010D01*
X87559015Y-82304536D01*
X87559016Y-82304537D01*
X87585366Y-82325046D01*
X87585372Y-82325050D01*
X87785769Y-82433499D01*
X87785779Y-82433504D01*
X87853565Y-82456775D01*
X87910580Y-82497160D01*
X87936711Y-82561960D01*
X87923660Y-82630600D01*
X87875571Y-82681287D01*
X87858098Y-82689682D01*
X87836175Y-82698175D01*
X87836171Y-82698177D01*
X87658827Y-82807985D01*
X87504683Y-82948505D01*
X87378981Y-83114961D01*
X87286007Y-83301677D01*
X87228923Y-83502308D01*
X87209678Y-83709999D01*
X87209678Y-83710000D01*
X87228923Y-83917693D01*
X87286094Y-84118631D01*
X87285506Y-84188498D01*
X87247239Y-84246956D01*
X87183442Y-84275446D01*
X87114369Y-84264921D01*
X87063021Y-84220390D01*
X87060475Y-84216493D01*
X87060474Y-84216491D01*
X86907738Y-84020256D01*
X86724785Y-83851836D01*
X86724782Y-83851833D01*
X86516606Y-83715826D01*
X86358554Y-83646498D01*
X86305068Y-83601542D01*
X86284378Y-83534806D01*
X86303053Y-83467478D01*
X86343086Y-83427515D01*
X86481171Y-83342016D01*
X86635318Y-83201493D01*
X86761019Y-83035038D01*
X86853994Y-82848319D01*
X86911076Y-82647696D01*
X86930322Y-82440000D01*
X86911076Y-82232304D01*
X86853994Y-82031681D01*
X86761019Y-81844962D01*
X86635318Y-81678507D01*
X86634350Y-81677625D01*
X86481172Y-81537985D01*
X86481171Y-81537984D01*
X86303828Y-81428177D01*
X86303827Y-81428176D01*
X86161609Y-81373081D01*
X86109327Y-81352827D01*
X85904293Y-81314500D01*
X85695707Y-81314500D01*
X85490673Y-81352827D01*
X85490670Y-81352827D01*
X85490670Y-81352828D01*
X85296172Y-81428176D01*
X85296171Y-81428177D01*
X85118827Y-81537985D01*
X84964683Y-81678505D01*
X84838981Y-81844961D01*
X84746007Y-82031677D01*
X84746006Y-82031681D01*
X84699154Y-82196351D01*
X84688923Y-82232308D01*
X84669678Y-82439999D01*
X84669678Y-82440000D01*
X84688923Y-82647691D01*
X84688923Y-82647693D01*
X84688924Y-82647696D01*
X84721922Y-82763671D01*
X84746007Y-82848322D01*
X84832676Y-83022375D01*
X84838981Y-83035038D01*
X84964682Y-83201493D01*
X85118829Y-83342016D01*
X85206628Y-83396379D01*
X85256913Y-83427515D01*
X85303548Y-83479544D01*
X85314652Y-83548525D01*
X85286698Y-83612560D01*
X85241446Y-83646498D01*
X85083391Y-83715827D01*
X84875217Y-83851833D01*
X84692261Y-84020257D01*
X84539524Y-84216493D01*
X84421172Y-84435188D01*
X84421169Y-84435197D01*
X84340429Y-84670383D01*
X84299500Y-84915665D01*
X84299500Y-85164334D01*
X82550500Y-85164334D01*
X82550500Y-79900000D01*
X84669678Y-79900000D01*
X84688923Y-80107691D01*
X84688923Y-80107693D01*
X84688924Y-80107696D01*
X84737758Y-80279329D01*
X84746007Y-80308322D01*
X84827508Y-80471997D01*
X84838981Y-80495038D01*
X84964682Y-80661493D01*
X85118829Y-80802016D01*
X85296172Y-80911823D01*
X85490673Y-80987173D01*
X85695707Y-81025500D01*
X85695710Y-81025500D01*
X85904290Y-81025500D01*
X85904293Y-81025500D01*
X86109327Y-80987173D01*
X86303828Y-80911823D01*
X86481171Y-80802016D01*
X86635318Y-80661493D01*
X86761019Y-80495038D01*
X86853994Y-80308319D01*
X86911076Y-80107696D01*
X86930322Y-79900000D01*
X86911076Y-79692304D01*
X86853994Y-79491681D01*
X86761019Y-79304962D01*
X86635318Y-79138507D01*
X86481171Y-78997984D01*
X86303828Y-78888177D01*
X86303827Y-78888176D01*
X86161609Y-78833081D01*
X86109327Y-78812827D01*
X85904293Y-78774500D01*
X85695707Y-78774500D01*
X85490673Y-78812827D01*
X85490670Y-78812827D01*
X85490670Y-78812828D01*
X85296172Y-78888176D01*
X85296171Y-78888177D01*
X85118827Y-78997985D01*
X84964683Y-79138505D01*
X84838981Y-79304961D01*
X84746007Y-79491677D01*
X84688923Y-79692308D01*
X84669678Y-79899999D01*
X84669678Y-79900000D01*
X82550500Y-79900000D01*
X82550500Y-76500000D01*
X96744750Y-76500000D01*
X96763670Y-76643708D01*
X96763671Y-76643712D01*
X96819137Y-76777622D01*
X96819138Y-76777624D01*
X96819139Y-76777625D01*
X96907379Y-76892621D01*
X97022375Y-76980861D01*
X97156291Y-77036330D01*
X97283280Y-77053048D01*
X97299999Y-77055250D01*
X97300000Y-77055250D01*
X97300001Y-77055250D01*
X97314977Y-77053278D01*
X97443709Y-77036330D01*
X97577625Y-76980861D01*
X97692621Y-76892621D01*
X97780861Y-76777625D01*
X97784103Y-76769799D01*
X110385419Y-76769799D01*
X110400837Y-76921424D01*
X110461718Y-77115467D01*
X110461723Y-77115477D01*
X110560424Y-77293301D01*
X110560424Y-77293302D01*
X110692897Y-77447616D01*
X110692898Y-77447617D01*
X110853723Y-77572104D01*
X111036326Y-77661675D01*
X111135419Y-77687330D01*
X111135419Y-76885196D01*
X111159876Y-76924696D01*
X111249381Y-76992287D01*
X111357259Y-77022981D01*
X111468940Y-77012632D01*
X111569341Y-76962638D01*
X111635419Y-76890155D01*
X111635419Y-77692452D01*
X111637363Y-77692155D01*
X111637364Y-77692155D01*
X111828079Y-77621522D01*
X111828083Y-77621520D01*
X112000686Y-77513936D01*
X112148087Y-77373821D01*
X112148088Y-77373819D01*
X112264275Y-77206890D01*
X112344478Y-77019993D01*
X112385419Y-76820776D01*
X112385419Y-76299580D01*
X112405104Y-76232541D01*
X112457908Y-76186786D01*
X112527066Y-76176842D01*
X112556865Y-76185017D01*
X112665208Y-76229894D01*
X112777722Y-76244707D01*
X112777729Y-76244707D01*
X112853155Y-76244707D01*
X112853162Y-76244707D01*
X112965676Y-76229894D01*
X113105672Y-76171906D01*
X113225889Y-76079660D01*
X113318135Y-75959443D01*
X113376123Y-75819447D01*
X113395902Y-75669213D01*
X118024923Y-75669213D01*
X118044702Y-75819446D01*
X118044703Y-75819450D01*
X118102688Y-75959440D01*
X118102689Y-75959442D01*
X118102690Y-75959443D01*
X118194936Y-76079660D01*
X118315153Y-76171906D01*
X118315154Y-76171906D01*
X118315155Y-76171907D01*
X118338684Y-76181653D01*
X118455149Y-76229894D01*
X118567663Y-76244707D01*
X118567670Y-76244707D01*
X118643096Y-76244707D01*
X118643103Y-76244707D01*
X118755617Y-76229894D01*
X118854050Y-76189121D01*
X118923516Y-76181653D01*
X118985995Y-76212928D01*
X119021648Y-76273016D01*
X119025500Y-76303683D01*
X119025500Y-76769799D01*
X119040918Y-76921424D01*
X119101799Y-77115467D01*
X119101804Y-77115477D01*
X119200505Y-77293301D01*
X119200505Y-77293302D01*
X119332978Y-77447616D01*
X119332979Y-77447617D01*
X119493804Y-77572104D01*
X119676407Y-77661675D01*
X119775500Y-77687330D01*
X119775500Y-76885196D01*
X119799957Y-76924696D01*
X119889462Y-76992287D01*
X119997340Y-77022981D01*
X120109021Y-77012632D01*
X120209422Y-76962638D01*
X120275500Y-76890155D01*
X120275500Y-77692451D01*
X120277444Y-77692155D01*
X120277445Y-77692155D01*
X120468160Y-77621522D01*
X120468164Y-77621520D01*
X120640767Y-77513936D01*
X120788168Y-77373821D01*
X120788169Y-77373819D01*
X120904356Y-77206890D01*
X120984559Y-77019993D01*
X121025500Y-76820776D01*
X121025500Y-76419086D01*
X120325500Y-76419086D01*
X120325500Y-75919086D01*
X121025500Y-75919086D01*
X121025500Y-75568372D01*
X121010081Y-75416747D01*
X120949200Y-75222704D01*
X120949195Y-75222694D01*
X120850494Y-75044870D01*
X120850494Y-75044869D01*
X120718021Y-74890555D01*
X120718020Y-74890554D01*
X120557195Y-74766067D01*
X120374593Y-74676497D01*
X120275500Y-74650839D01*
X120275500Y-75452975D01*
X120251043Y-75413476D01*
X120161538Y-75345885D01*
X120053660Y-75315191D01*
X119941979Y-75325540D01*
X119841578Y-75375534D01*
X119775500Y-75448016D01*
X119775500Y-74645719D01*
X119773553Y-74646017D01*
X119773547Y-74646019D01*
X119582842Y-74716648D01*
X119582835Y-74716651D01*
X119410232Y-74824235D01*
X119262831Y-74964350D01*
X119262830Y-74964352D01*
X119146643Y-75131282D01*
X119135981Y-75156127D01*
X119091453Y-75209970D01*
X119024885Y-75231192D01*
X118957410Y-75213056D01*
X118946545Y-75205601D01*
X118895613Y-75166520D01*
X118895611Y-75166518D01*
X118755620Y-75108533D01*
X118755618Y-75108532D01*
X118755617Y-75108532D01*
X118741552Y-75106680D01*
X118643110Y-75093719D01*
X118643103Y-75093719D01*
X118567663Y-75093719D01*
X118567655Y-75093719D01*
X118455149Y-75108532D01*
X118455145Y-75108533D01*
X118315155Y-75166518D01*
X118194936Y-75258766D01*
X118102688Y-75378985D01*
X118044703Y-75518975D01*
X118044702Y-75518979D01*
X118024923Y-75669212D01*
X118024923Y-75669213D01*
X113395902Y-75669213D01*
X113376123Y-75518979D01*
X113318135Y-75378983D01*
X113225889Y-75258766D01*
X113105672Y-75166520D01*
X113105671Y-75166519D01*
X113105669Y-75166518D01*
X112965679Y-75108533D01*
X112965677Y-75108532D01*
X112965676Y-75108532D01*
X112951611Y-75106680D01*
X112853169Y-75093719D01*
X112853162Y-75093719D01*
X112777722Y-75093719D01*
X112777714Y-75093719D01*
X112665208Y-75108532D01*
X112665204Y-75108533D01*
X112525213Y-75166518D01*
X112525212Y-75166519D01*
X112465898Y-75212032D01*
X112400729Y-75237225D01*
X112332284Y-75223186D01*
X112282295Y-75174371D01*
X112281994Y-75173833D01*
X112210413Y-75044870D01*
X112210413Y-75044869D01*
X112077940Y-74890555D01*
X112077939Y-74890554D01*
X111917114Y-74766067D01*
X111734512Y-74676497D01*
X111635419Y-74650839D01*
X111635419Y-75452975D01*
X111610962Y-75413476D01*
X111521457Y-75345885D01*
X111413579Y-75315191D01*
X111301898Y-75325540D01*
X111201497Y-75375534D01*
X111135419Y-75448016D01*
X111135419Y-74645719D01*
X111133472Y-74646017D01*
X111133466Y-74646019D01*
X110942761Y-74716648D01*
X110942754Y-74716651D01*
X110770151Y-74824235D01*
X110622750Y-74964350D01*
X110622749Y-74964352D01*
X110506562Y-75131281D01*
X110426359Y-75318178D01*
X110385419Y-75517395D01*
X110385419Y-75919086D01*
X111085419Y-75919086D01*
X111085419Y-76419086D01*
X110385419Y-76419086D01*
X110385419Y-76769799D01*
X97784103Y-76769799D01*
X97836330Y-76643709D01*
X97855250Y-76500000D01*
X97836330Y-76356291D01*
X97785072Y-76232541D01*
X97780862Y-76222377D01*
X97780861Y-76222376D01*
X97780861Y-76222375D01*
X97692621Y-76107379D01*
X97577625Y-76019139D01*
X97577624Y-76019138D01*
X97577622Y-76019137D01*
X97443712Y-75963671D01*
X97443710Y-75963670D01*
X97443709Y-75963670D01*
X97371854Y-75954210D01*
X97300001Y-75944750D01*
X97299999Y-75944750D01*
X97156291Y-75963670D01*
X97156287Y-75963671D01*
X97022377Y-76019137D01*
X96907379Y-76107379D01*
X96819137Y-76222377D01*
X96763671Y-76356287D01*
X96763670Y-76356291D01*
X96744750Y-76499999D01*
X96744750Y-76500000D01*
X82550500Y-76500000D01*
X82550500Y-73000000D01*
X84144551Y-73000000D01*
X84164317Y-73251151D01*
X84223126Y-73496110D01*
X84319533Y-73728859D01*
X84451160Y-73943653D01*
X84451161Y-73943656D01*
X84451164Y-73943659D01*
X84614776Y-74135224D01*
X84763066Y-74261875D01*
X84806343Y-74298838D01*
X84806346Y-74298839D01*
X85021140Y-74430466D01*
X85233008Y-74518224D01*
X85253889Y-74526873D01*
X85498852Y-74585683D01*
X85654950Y-74597968D01*
X85687116Y-74600500D01*
X85687118Y-74600500D01*
X85812884Y-74600500D01*
X85842518Y-74598167D01*
X86001148Y-74585683D01*
X86246111Y-74526873D01*
X86478859Y-74430466D01*
X86693659Y-74298836D01*
X86885224Y-74135224D01*
X87048836Y-73943659D01*
X87075590Y-73900000D01*
X103744750Y-73900000D01*
X103763670Y-74043708D01*
X103763671Y-74043712D01*
X103819137Y-74177622D01*
X103819138Y-74177624D01*
X103819139Y-74177625D01*
X103907379Y-74292621D01*
X104022375Y-74380861D01*
X104156291Y-74436330D01*
X104283280Y-74453048D01*
X104299999Y-74455250D01*
X104300000Y-74455250D01*
X104300001Y-74455250D01*
X104314977Y-74453278D01*
X104443709Y-74436330D01*
X104577625Y-74380861D01*
X104692621Y-74292621D01*
X104780861Y-74177625D01*
X104814893Y-74095464D01*
X121749886Y-74095464D01*
X121764851Y-74252188D01*
X121764852Y-74252192D01*
X121824035Y-74453752D01*
X121920299Y-74640480D01*
X122050154Y-74805603D01*
X122050157Y-74805606D01*
X122208916Y-74943171D01*
X122208927Y-74943180D01*
X122390846Y-75048210D01*
X122390853Y-75048213D01*
X122589373Y-75116922D01*
X122599886Y-75118433D01*
X122599886Y-74238651D01*
X122655800Y-74290124D01*
X122762775Y-74337048D01*
X122879190Y-74346694D01*
X122992429Y-74318018D01*
X123090221Y-74254127D01*
X123099886Y-74241709D01*
X123099886Y-75114323D01*
X123211295Y-75087295D01*
X123402393Y-75000025D01*
X123573505Y-74878176D01*
X123573511Y-74878170D01*
X123718478Y-74726133D01*
X123832052Y-74549408D01*
X123910130Y-74354380D01*
X123935581Y-74222326D01*
X123967597Y-74160224D01*
X124028105Y-74125288D01*
X124097896Y-74128613D01*
X124153193Y-74167128D01*
X124253607Y-74289484D01*
X124332684Y-74354380D01*
X124413564Y-74420756D01*
X124413567Y-74420757D01*
X124413569Y-74420759D01*
X124596051Y-74518298D01*
X124596053Y-74518298D01*
X124596056Y-74518300D01*
X124794071Y-74578367D01*
X125000000Y-74598649D01*
X125205929Y-74578367D01*
X125403944Y-74518300D01*
X125586436Y-74420756D01*
X125746392Y-74289484D01*
X125877664Y-74129528D01*
X125881960Y-74121489D01*
X125890641Y-74105250D01*
X125939603Y-74055405D01*
X126007741Y-74039944D01*
X126073421Y-74063775D01*
X126109359Y-74105250D01*
X126122334Y-74129526D01*
X126122337Y-74129529D01*
X126253607Y-74289484D01*
X126332684Y-74354380D01*
X126413564Y-74420756D01*
X126413567Y-74420757D01*
X126413569Y-74420759D01*
X126596051Y-74518298D01*
X126596053Y-74518298D01*
X126596056Y-74518300D01*
X126794071Y-74578367D01*
X127000000Y-74598649D01*
X127205929Y-74578367D01*
X127403944Y-74518300D01*
X127586436Y-74420756D01*
X127746392Y-74289484D01*
X127877664Y-74129528D01*
X127877707Y-74129449D01*
X127890647Y-74105238D01*
X127939607Y-74055392D01*
X128007744Y-74039929D01*
X128073425Y-74063758D01*
X128109365Y-74105233D01*
X128121981Y-74128835D01*
X128122311Y-74129452D01*
X128122374Y-74129529D01*
X128253582Y-74289408D01*
X128323386Y-74346694D01*
X128413539Y-74420680D01*
X128413542Y-74420681D01*
X128413544Y-74420683D01*
X128596026Y-74518222D01*
X128596028Y-74518222D01*
X128596031Y-74518224D01*
X128794046Y-74578291D01*
X128999975Y-74598573D01*
X129205904Y-74578291D01*
X129403919Y-74518224D01*
X129586411Y-74420680D01*
X129746367Y-74289408D01*
X129844329Y-74170040D01*
X129902074Y-74130706D01*
X129971918Y-74128835D01*
X130031687Y-74165022D01*
X130062403Y-74227778D01*
X130063620Y-74236916D01*
X130065077Y-74252179D01*
X130065080Y-74252192D01*
X130124263Y-74453752D01*
X130220527Y-74640480D01*
X130350382Y-74805603D01*
X130350385Y-74805606D01*
X130509144Y-74943171D01*
X130509155Y-74943180D01*
X130691074Y-75048210D01*
X130691081Y-75048213D01*
X130889601Y-75116922D01*
X130900114Y-75118433D01*
X130900114Y-74238651D01*
X130956028Y-74290124D01*
X131063003Y-74337048D01*
X131179418Y-74346694D01*
X131292657Y-74318018D01*
X131390449Y-74254127D01*
X131400114Y-74241709D01*
X131400114Y-75114323D01*
X131511523Y-75087295D01*
X131702621Y-75000025D01*
X131873733Y-74878176D01*
X131873739Y-74878170D01*
X132018706Y-74726133D01*
X132132280Y-74549408D01*
X132210358Y-74354380D01*
X132250114Y-74148103D01*
X132250114Y-73793066D01*
X131500127Y-73793066D01*
X131500127Y-73293066D01*
X132250114Y-73293066D01*
X132250114Y-73000000D01*
X133144551Y-73000000D01*
X133164317Y-73251151D01*
X133223126Y-73496110D01*
X133319533Y-73728859D01*
X133451160Y-73943653D01*
X133451161Y-73943656D01*
X133451164Y-73943659D01*
X133614776Y-74135224D01*
X133763066Y-74261875D01*
X133806343Y-74298838D01*
X133806346Y-74298839D01*
X134021140Y-74430466D01*
X134233008Y-74518224D01*
X134253889Y-74526873D01*
X134498852Y-74585683D01*
X134654950Y-74597968D01*
X134687116Y-74600500D01*
X134687118Y-74600500D01*
X134812884Y-74600500D01*
X134842518Y-74598167D01*
X135001148Y-74585683D01*
X135246111Y-74526873D01*
X135478859Y-74430466D01*
X135693659Y-74298836D01*
X135885224Y-74135224D01*
X136048836Y-73943659D01*
X136180466Y-73728859D01*
X136276873Y-73496111D01*
X136335683Y-73251148D01*
X136355449Y-73000000D01*
X136335683Y-72748852D01*
X136276873Y-72503889D01*
X136217272Y-72359998D01*
X136180466Y-72271140D01*
X136048839Y-72056346D01*
X136048838Y-72056343D01*
X135974419Y-71969210D01*
X135885224Y-71864776D01*
X135737959Y-71739000D01*
X135693656Y-71701161D01*
X135693653Y-71701160D01*
X135478859Y-71569533D01*
X135246110Y-71473126D01*
X135001150Y-71414317D01*
X134812884Y-71399500D01*
X134812882Y-71399500D01*
X134687118Y-71399500D01*
X134687116Y-71399500D01*
X134498849Y-71414317D01*
X134253889Y-71473126D01*
X134021140Y-71569533D01*
X133806346Y-71701160D01*
X133806343Y-71701161D01*
X133614776Y-71864776D01*
X133451161Y-72056343D01*
X133451160Y-72056346D01*
X133319533Y-72271140D01*
X133223126Y-72503889D01*
X133164317Y-72748848D01*
X133144551Y-73000000D01*
X132250114Y-73000000D01*
X132250114Y-72990667D01*
X132235148Y-72833943D01*
X132235147Y-72833939D01*
X132175964Y-72632379D01*
X132079700Y-72445651D01*
X131949845Y-72280528D01*
X131949842Y-72280525D01*
X131791083Y-72142960D01*
X131791072Y-72142951D01*
X131609153Y-72037921D01*
X131609146Y-72037918D01*
X131410630Y-71969210D01*
X131400114Y-71967698D01*
X131400114Y-72847480D01*
X131344200Y-72796008D01*
X131237225Y-72749084D01*
X131120810Y-72739438D01*
X131007571Y-72768114D01*
X130909779Y-72832005D01*
X130900114Y-72844422D01*
X130900114Y-71971806D01*
X130900113Y-71971806D01*
X130788708Y-71998834D01*
X130788696Y-71998838D01*
X130597611Y-72086103D01*
X130597610Y-72086104D01*
X130426494Y-72207955D01*
X130426488Y-72207961D01*
X130281521Y-72359998D01*
X130167947Y-72536723D01*
X130089869Y-72731751D01*
X130064426Y-72863768D01*
X130032410Y-72925871D01*
X129971901Y-72960806D01*
X129902111Y-72957481D01*
X129846814Y-72918966D01*
X129746367Y-72796571D01*
X129586505Y-72665377D01*
X129586411Y-72665300D01*
X129586409Y-72665299D01*
X129586405Y-72665296D01*
X129403923Y-72567757D01*
X129205902Y-72507688D01*
X128999975Y-72487407D01*
X128794047Y-72507688D01*
X128596026Y-72567757D01*
X128413544Y-72665296D01*
X128413537Y-72665301D01*
X128253582Y-72796571D01*
X128122312Y-72956526D01*
X128122309Y-72956529D01*
X128109325Y-72980822D01*
X128060362Y-73030666D01*
X127992225Y-73046126D01*
X127926545Y-73022294D01*
X127890608Y-72980821D01*
X127889024Y-72977858D01*
X127877664Y-72956604D01*
X127812174Y-72876804D01*
X127746392Y-72796647D01*
X127586437Y-72665377D01*
X127586430Y-72665372D01*
X127403948Y-72567833D01*
X127205927Y-72507764D01*
X127000000Y-72487483D01*
X126794072Y-72507764D01*
X126596051Y-72567833D01*
X126413569Y-72665372D01*
X126413562Y-72665377D01*
X126253607Y-72796647D01*
X126122337Y-72956602D01*
X126122334Y-72956606D01*
X126109358Y-72980883D01*
X126060395Y-73030727D01*
X125992257Y-73046187D01*
X125926578Y-73022355D01*
X125890642Y-72980883D01*
X125877665Y-72956606D01*
X125877664Y-72956604D01*
X125812174Y-72876804D01*
X125746392Y-72796647D01*
X125586437Y-72665377D01*
X125586430Y-72665372D01*
X125403948Y-72567833D01*
X125205927Y-72507764D01*
X125000000Y-72487483D01*
X124794072Y-72507764D01*
X124596051Y-72567833D01*
X124413569Y-72665372D01*
X124413562Y-72665377D01*
X124253607Y-72796647D01*
X124155661Y-72915996D01*
X124097916Y-72955330D01*
X124028071Y-72957201D01*
X123968303Y-72921013D01*
X123937587Y-72858258D01*
X123936369Y-72849115D01*
X123934920Y-72833944D01*
X123934919Y-72833939D01*
X123875736Y-72632379D01*
X123779472Y-72445651D01*
X123649617Y-72280528D01*
X123649614Y-72280525D01*
X123490855Y-72142960D01*
X123490844Y-72142951D01*
X123308925Y-72037921D01*
X123308918Y-72037918D01*
X123110402Y-71969210D01*
X123099886Y-71967698D01*
X123099886Y-72847480D01*
X123043972Y-72796008D01*
X122936997Y-72749084D01*
X122820582Y-72739438D01*
X122707343Y-72768114D01*
X122609551Y-72832005D01*
X122599886Y-72844422D01*
X122599886Y-71971806D01*
X122599885Y-71971806D01*
X122488480Y-71998834D01*
X122488468Y-71998838D01*
X122297383Y-72086103D01*
X122297382Y-72086104D01*
X122126266Y-72207955D01*
X122126260Y-72207961D01*
X121981293Y-72359998D01*
X121867719Y-72536723D01*
X121789641Y-72731751D01*
X121749886Y-72938028D01*
X121749886Y-73293066D01*
X122499873Y-73293066D01*
X122499873Y-73793066D01*
X121749886Y-73793066D01*
X121749886Y-74095464D01*
X104814893Y-74095464D01*
X104836330Y-74043709D01*
X104855250Y-73900000D01*
X104836330Y-73756291D01*
X104780861Y-73622375D01*
X104692621Y-73507379D01*
X104577625Y-73419139D01*
X104577624Y-73419138D01*
X104577622Y-73419137D01*
X104443712Y-73363671D01*
X104443710Y-73363670D01*
X104443709Y-73363670D01*
X104371854Y-73354210D01*
X104300001Y-73344750D01*
X104299999Y-73344750D01*
X104156291Y-73363670D01*
X104156287Y-73363671D01*
X104022377Y-73419137D01*
X103907379Y-73507379D01*
X103819137Y-73622377D01*
X103763671Y-73756287D01*
X103763670Y-73756291D01*
X103744750Y-73899999D01*
X103744750Y-73900000D01*
X87075590Y-73900000D01*
X87180466Y-73728859D01*
X87276873Y-73496111D01*
X87335683Y-73251148D01*
X87355449Y-73000000D01*
X87335683Y-72748852D01*
X87276873Y-72503889D01*
X87250291Y-72439713D01*
X110385419Y-72439713D01*
X110400837Y-72591338D01*
X110461718Y-72785381D01*
X110461723Y-72785391D01*
X110560424Y-72963215D01*
X110560424Y-72963216D01*
X110692897Y-73117530D01*
X110692898Y-73117531D01*
X110853723Y-73242018D01*
X111036326Y-73331589D01*
X111135419Y-73357244D01*
X111135419Y-72555110D01*
X111159876Y-72594610D01*
X111249381Y-72662201D01*
X111357259Y-72692895D01*
X111468940Y-72682546D01*
X111569341Y-72632552D01*
X111635419Y-72560069D01*
X111635419Y-73362366D01*
X111637363Y-73362069D01*
X111637364Y-73362069D01*
X111828079Y-73291436D01*
X111828083Y-73291434D01*
X112000686Y-73183850D01*
X112148087Y-73043735D01*
X112148088Y-73043733D01*
X112264275Y-72876804D01*
X112344478Y-72689907D01*
X112385419Y-72490690D01*
X112385419Y-72439713D01*
X119025500Y-72439713D01*
X119040918Y-72591338D01*
X119101799Y-72785381D01*
X119101804Y-72785391D01*
X119200505Y-72963215D01*
X119200505Y-72963216D01*
X119332978Y-73117530D01*
X119332979Y-73117531D01*
X119493804Y-73242018D01*
X119676407Y-73331589D01*
X119775500Y-73357244D01*
X119775500Y-72555110D01*
X119799957Y-72594610D01*
X119889462Y-72662201D01*
X119997340Y-72692895D01*
X120109021Y-72682546D01*
X120209422Y-72632552D01*
X120275500Y-72560069D01*
X120275500Y-73362366D01*
X120277444Y-73362069D01*
X120277445Y-73362069D01*
X120468160Y-73291436D01*
X120468164Y-73291434D01*
X120640767Y-73183850D01*
X120788168Y-73043735D01*
X120788169Y-73043733D01*
X120904356Y-72876804D01*
X120984559Y-72689907D01*
X121025500Y-72490690D01*
X121025500Y-72239000D01*
X120325500Y-72239000D01*
X120325500Y-71739000D01*
X121025500Y-71739000D01*
X121025500Y-71538286D01*
X121010081Y-71386661D01*
X120949200Y-71192618D01*
X120949195Y-71192608D01*
X120850494Y-71014784D01*
X120850494Y-71014783D01*
X120718021Y-70860469D01*
X120718020Y-70860468D01*
X120557195Y-70735981D01*
X120374593Y-70646411D01*
X120275500Y-70620753D01*
X120275500Y-71422889D01*
X120251043Y-71383390D01*
X120161538Y-71315799D01*
X120053660Y-71285105D01*
X119941979Y-71295454D01*
X119841578Y-71345448D01*
X119775500Y-71417930D01*
X119775500Y-70615633D01*
X119773553Y-70615931D01*
X119773547Y-70615933D01*
X119582842Y-70686562D01*
X119582835Y-70686565D01*
X119410232Y-70794149D01*
X119262831Y-70934264D01*
X119262830Y-70934266D01*
X119146643Y-71101195D01*
X119066440Y-71288092D01*
X119025500Y-71487309D01*
X119025500Y-71739000D01*
X119725500Y-71739000D01*
X119725500Y-72239000D01*
X119025500Y-72239000D01*
X119025500Y-72439713D01*
X112385419Y-72439713D01*
X112385419Y-72239000D01*
X111685419Y-72239000D01*
X111685419Y-71739000D01*
X112385419Y-71739000D01*
X112385419Y-71538286D01*
X112370000Y-71386661D01*
X112309119Y-71192618D01*
X112309114Y-71192608D01*
X112210413Y-71014784D01*
X112210413Y-71014783D01*
X112077940Y-70860469D01*
X112077939Y-70860468D01*
X111917114Y-70735981D01*
X111734512Y-70646411D01*
X111635419Y-70620753D01*
X111635419Y-71422889D01*
X111610962Y-71383390D01*
X111521457Y-71315799D01*
X111413579Y-71285105D01*
X111301898Y-71295454D01*
X111201497Y-71345448D01*
X111135419Y-71417930D01*
X111135419Y-70615633D01*
X111133472Y-70615931D01*
X111133466Y-70615933D01*
X110942761Y-70686562D01*
X110942754Y-70686565D01*
X110770151Y-70794149D01*
X110622750Y-70934264D01*
X110622749Y-70934266D01*
X110506562Y-71101195D01*
X110426359Y-71288092D01*
X110385419Y-71487309D01*
X110385419Y-71739000D01*
X111085419Y-71739000D01*
X111085419Y-72239000D01*
X110385419Y-72239000D01*
X110385419Y-72439713D01*
X87250291Y-72439713D01*
X87217272Y-72359998D01*
X87180466Y-72271140D01*
X87048839Y-72056346D01*
X87048838Y-72056343D01*
X86974419Y-71969210D01*
X86885224Y-71864776D01*
X86737959Y-71739000D01*
X86693656Y-71701161D01*
X86693653Y-71701160D01*
X86478859Y-71569533D01*
X86246110Y-71473126D01*
X86001150Y-71414317D01*
X85812884Y-71399500D01*
X85812882Y-71399500D01*
X85687118Y-71399500D01*
X85687116Y-71399500D01*
X85498849Y-71414317D01*
X85253889Y-71473126D01*
X85021140Y-71569533D01*
X84806346Y-71701160D01*
X84806343Y-71701161D01*
X84614776Y-71864776D01*
X84451161Y-72056343D01*
X84451160Y-72056346D01*
X84319533Y-72271140D01*
X84223126Y-72503889D01*
X84164317Y-72748848D01*
X84144551Y-73000000D01*
X82550500Y-73000000D01*
X82550500Y-69924500D01*
X82570185Y-69857461D01*
X82622989Y-69811706D01*
X82674500Y-69800500D01*
X137825500Y-69800500D01*
X137892539Y-69820185D01*
G37*
G04 #@! TD.AperFunction*
M02*
