M48
; DRILL file {KiCad 8.0.1} date 2024-03-30T20:31:03-0700
; FORMAT={-:-/ absolute / inch / decimal}
; #@! TF.CreationDate,2024-03-30T20:31:03-07:00
; #@! TF.GenerationSoftware,Kicad,Pcbnew,8.0.1
; #@! TF.FileFunction,Plated,1,4,PTH
FMAT,2
INCH
; #@! TA.AperFunction,Plated,PTH,ViaDrill
T1C0.0138
; #@! TA.AperFunction,Plated,PTH,ComponentDrill
T2C0.0138
; #@! TA.AperFunction,Plated,PTH,ComponentDrill
T3C0.0236
; #@! TA.AperFunction,Plated,PTH,ComponentDrill
T4C0.0354
; #@! TA.AperFunction,Plated,PTH,ComponentDrill
T5C0.0394
; #@! TA.AperFunction,Plated,PTH,ComponentDrill
T6C0.0433
; #@! TA.AperFunction,Plated,PTH,ComponentDrill
T7C0.0551
; #@! TA.AperFunction,Plated,PTH,ComponentDrill
T8C0.0827
; #@! TA.AperFunction,Plated,PTH,ComponentDrill
T9C0.1280
%
G90
G05
T1
X-0.1575Y-0.2402
X-0.1063Y-0.2008
X-0.1063Y-0.3858
X-0.0984Y-0.3465
X-0.0559Y-0.3386
X-0.0197Y-0.3917
X0.0217Y-0.3504
X0.062Y-0.185
X0.126Y-0.4114
X0.1398Y-0.1988
X0.1614Y0.3346
X0.1693Y0.563
X0.1693Y0.5
X0.1791Y-0.6024
X0.185Y-0.1988
X0.2008Y-0.0669
X0.202Y0.2813
X0.2362Y-0.1988
X0.2441Y0.0984
X0.2835Y0.4055
X0.2835Y0.0551
X0.2992Y0.311
X0.3012Y-0.3248
X0.3031Y-0.0433
X0.3102Y-0.6741
X0.3465Y-0.2874
X0.3819Y0.252
X0.3819Y0.2008
X0.3858Y-0.1516
X0.3858Y-0.2283
X0.3878Y0.4055
X0.3878Y-0.0256
X0.3898Y-0.0945
X0.4272Y-0.2303
X0.4272Y-0.2697
X0.4724Y-0.1575
X0.4803Y0.1772
X0.4843Y0.126
X0.5138Y0.5925
X0.5138Y0.5315
X0.5138Y0.4685
X0.563Y-0.315
X0.5787Y0.3465
X0.5787Y-0.0079
X0.5827Y0.626
X0.5866Y0.3898
X0.6201Y0.124
X0.6457Y-0.1535
X0.6575Y0.2953
X0.6575Y0.2559
X0.6575Y-0.0591
X0.6575Y-0.0984
X0.6693Y0.1654
X0.6772Y0.2244
X0.7008Y-0.1614
X0.7008Y-0.2087
X0.7244Y0.2205
X0.7905Y0.2593
X0.7913Y0.0709
X0.7953Y0.5787
X0.7953Y0.3504
X0.8268Y-0.2352
X0.8425Y-0.2756
X0.8622Y0.4921
X0.8622Y-0.0551
X0.874Y-0.0945
X0.878Y-0.2087
X0.8898Y0.063
X0.8908Y0.0142
X0.9016Y0.5354
X0.9173Y-0.1535
X0.9213Y-0.0679
X0.9567Y-0.2638
X0.9646Y-0.0551
X0.9724Y0.2008
X0.9724Y-0.185
X0.9843Y-0.2874
X0.9882Y-0.1339
X1.0276Y0.0394
X1.063Y-0.3031
X1.0709Y-0.1417
X1.0787Y-0.189
X1.0984Y-0.3031
X1.1181Y0.2126
X1.122Y-0.2786
X1.1378Y0.315
X1.1496Y-0.1929
X1.1535Y0.2126
X1.1605Y0.1028
X1.1772Y-0.6693
X1.1772Y-0.7087
X1.1772Y-0.748
X1.1772Y-0.7874
X1.185Y0.2116
X1.2215Y0.2844
X1.2598Y-0.185
X1.2913Y-0.3819
X1.2923Y0.1614
X1.3031Y-0.2362
X1.3071Y0.0984
X1.3307Y-0.3819
X1.3386Y0.1929
X1.3386Y0.1575
X1.3563Y0.1201
X1.3583Y-0.063
X1.3583Y-0.2717
X1.374Y0.1929
X1.374Y0.1575
X1.3937Y0.2697
X1.3976Y-0.063
X1.4055Y0.122
X1.4055Y0.0827
X1.4055Y0.0433
X1.4094Y0.1929
X1.4331Y0.3268
X1.437Y-0.126
X1.4449Y0.1929
X1.4469Y-0.1575
X1.4764Y-0.126
X1.4783Y-0.4488
X1.5039Y0.2913
X1.5433Y-0.2598
X1.5512Y0.2913
X1.5512Y0.2402
X1.5512Y0.2047
X1.5866Y0.2402
X1.5866Y0.2047
X1.5866Y0.1693
X1.5866Y0.1339
X1.5866Y0.0984
X1.622Y0.2402
X1.622Y0.2047
X1.622Y0.1693
X1.622Y0.1339
X1.622Y0.0984
X1.6575Y0.2402
X1.6575Y0.2047
X1.6575Y0.1693
X1.6575Y0.1339
X1.6575Y0.0984
X1.685Y-0.2008
X1.6929Y-0.4488
X1.7205Y0.0394
X1.7756Y0.1909
X1.7953Y-0.2402
X1.7972Y-0.0059
X1.8051Y0.2028
X1.8228Y-0.3386
X1.8297Y-0.0049
X1.8386Y-0.4646
X1.8465Y-0.063
X1.8504Y0.0276
X1.8504Y-0.1535
X1.8701Y-0.1024
X1.8701Y-0.315
X1.9094Y-0.3386
X1.9213Y-0.3898
X1.9606Y-0.3307
X1.9626Y0.0236
X1.9882Y0.0866
X1.989Y0.1642
T2
X1.1162Y-0.0493
X1.1162Y-0.0995
X1.1162Y-0.1497
X1.1664Y-0.0493
X1.1664Y-0.0995
X1.1664Y-0.1497
X1.2166Y-0.0493
X1.2166Y-0.0995
X1.2166Y-0.1497
T4
X1.4488Y-0.5272
X1.5472Y-0.5272
X1.626Y-0.5272
X1.7244Y-0.5272
T5
X0.3636Y-0.5976
X0.3636Y-0.8976
X0.4636Y-0.5976
X0.4636Y-0.8976
X0.5636Y-0.5976
X0.5636Y-0.8976
X0.6636Y-0.5976
X0.6636Y-0.8976
X0.7636Y-0.5976
X0.7636Y-0.8976
X0.8636Y-0.5976
X0.8636Y-0.8976
X0.9636Y-0.5976
X0.9636Y-0.8976
X1.0636Y-0.5976
X1.0636Y-0.8976
T6
X2.1449Y0.0244
X2.1449Y-0.0843
X2.1449Y-0.1929
X2.1449Y-0.3016
X2.1449Y-0.4102
X2.2567Y-0.0299
X2.2567Y-0.1386
X2.2567Y-0.2472
X2.2567Y-0.3559
T7
X1.748Y0.4528
X1.798Y0.5528
X1.848Y0.4528
X1.898Y0.5528
T8
X1.311Y-0.6339
X1.8622Y-0.6339
T9
X2.2008Y0.2992
X2.2008Y-0.685
T3
G00X1.1412Y0.5516
M15
G01X1.1412Y0.5831
M16
G05
G00X1.1412Y0.3811
M15
G01X1.1412Y0.4244
M16
G05
G00X1.4813Y0.5516
M15
G01X1.4813Y0.5831
M16
G05
G00X1.4813Y0.3811
M15
G01X1.4813Y0.4244
M16
G05
M30
