%TF.GenerationSoftware,KiCad,Pcbnew,8.0.1*%
%TF.CreationDate,2024-03-30T20:31:03-07:00*%
%TF.ProjectId,babelfish,62616265-6c66-4697-9368-2e6b69636164,v0.3*%
%TF.SameCoordinates,Original*%
%TF.FileFunction,Soldermask,Top*%
%TF.FilePolarity,Negative*%
%FSLAX46Y46*%
G04 Gerber Fmt 4.6, Leading zero omitted, Abs format (unit mm)*
G04 Created by KiCad (PCBNEW 8.0.1) date 2024-03-30 20:31:03*
%MOMM*%
%LPD*%
G01*
G04 APERTURE LIST*
G04 Aperture macros list*
%AMRoundRect*
0 Rectangle with rounded corners*
0 $1 Rounding radius*
0 $2 $3 $4 $5 $6 $7 $8 $9 X,Y pos of 4 corners*
0 Add a 4 corners polygon primitive as box body*
4,1,4,$2,$3,$4,$5,$6,$7,$8,$9,$2,$3,0*
0 Add four circle primitives for the rounded corners*
1,1,$1+$1,$2,$3*
1,1,$1+$1,$4,$5*
1,1,$1+$1,$6,$7*
1,1,$1+$1,$8,$9*
0 Add four rect primitives between the rounded corners*
20,1,$1+$1,$2,$3,$4,$5,0*
20,1,$1+$1,$4,$5,$6,$7,0*
20,1,$1+$1,$6,$7,$8,$9,0*
20,1,$1+$1,$8,$9,$2,$3,0*%
G04 Aperture macros list end*
%ADD10RoundRect,0.135000X-0.185000X0.135000X-0.185000X-0.135000X0.185000X-0.135000X0.185000X0.135000X0*%
%ADD11RoundRect,0.150000X0.150000X-0.512500X0.150000X0.512500X-0.150000X0.512500X-0.150000X-0.512500X0*%
%ADD12RoundRect,0.250000X-0.250000X-0.475000X0.250000X-0.475000X0.250000X0.475000X-0.250000X0.475000X0*%
%ADD13RoundRect,0.135000X0.185000X-0.135000X0.185000X0.135000X-0.185000X0.135000X-0.185000X-0.135000X0*%
%ADD14RoundRect,0.250000X0.475000X-0.250000X0.475000X0.250000X-0.475000X0.250000X-0.475000X-0.250000X0*%
%ADD15R,1.803404X0.406401*%
%ADD16C,2.700000*%
%ADD17RoundRect,0.140000X-0.170000X0.140000X-0.170000X-0.140000X0.170000X-0.140000X0.170000X0.140000X0*%
%ADD18RoundRect,0.218750X-0.218750X-0.256250X0.218750X-0.256250X0.218750X0.256250X-0.218750X0.256250X0*%
%ADD19RoundRect,0.140000X0.140000X0.170000X-0.140000X0.170000X-0.140000X-0.170000X0.140000X-0.170000X0*%
%ADD20RoundRect,0.140000X0.170000X-0.140000X0.170000X0.140000X-0.170000X0.140000X-0.170000X-0.140000X0*%
%ADD21RoundRect,0.135000X0.135000X0.185000X-0.135000X0.185000X-0.135000X-0.185000X0.135000X-0.185000X0*%
%ADD22C,0.649987*%
%ADD23O,1.000000X2.100000*%
%ADD24O,1.000000X1.800000*%
%ADD25R,0.600000X1.240005*%
%ADD26R,0.300000X1.240005*%
%ADD27C,2.100000*%
%ADD28C,2.500000*%
%ADD29C,1.750000*%
%ADD30RoundRect,0.135000X-0.135000X-0.185000X0.135000X-0.185000X0.135000X0.185000X-0.135000X0.185000X0*%
%ADD31R,0.600000X1.070003*%
%ADD32RoundRect,0.200000X0.200000X0.275000X-0.200000X0.275000X-0.200000X-0.275000X0.200000X-0.275000X0*%
%ADD33RoundRect,0.150000X0.512500X0.150000X-0.512500X0.150000X-0.512500X-0.150000X0.512500X-0.150000X0*%
%ADD34RoundRect,0.140000X-0.140000X-0.170000X0.140000X-0.170000X0.140000X0.170000X-0.140000X0.170000X0*%
%ADD35C,1.600000*%
%ADD36R,0.600000X0.350013*%
%ADD37R,1.600000X2.400051*%
%ADD38RoundRect,0.050000X-0.387500X-0.050000X0.387500X-0.050000X0.387500X0.050000X-0.387500X0.050000X0*%
%ADD39RoundRect,0.050000X-0.050000X-0.387500X0.050000X-0.387500X0.050000X0.387500X-0.050000X0.387500X0*%
%ADD40RoundRect,0.144000X-1.456000X-1.456000X1.456000X-1.456000X1.456000X1.456000X-1.456000X1.456000X0*%
%ADD41C,1.500000*%
%ADD42C,3.100000*%
%ADD43R,0.622301X1.104902*%
%ADD44R,1.400000X1.200000*%
%ADD45O,0.602007X1.970993*%
%ADD46RoundRect,0.250000X0.250000X0.475000X-0.250000X0.475000X-0.250000X-0.475000X0.250000X-0.475000X0*%
%ADD47RoundRect,0.150000X0.150000X-0.650000X0.150000X0.650000X-0.150000X0.650000X-0.150000X-0.650000X0*%
%ADD48R,1.529997X1.359995*%
%ADD49R,1.574803X1.574803*%
%ADD50C,1.574803*%
%ADD51C,5.000000*%
G04 APERTURE END LIST*
D10*
%TO.C,R23*%
X8328400Y1353400D03*
X8328400Y333400D03*
%TD*%
D11*
%TO.C,Q1*%
X4200000Y6218000D03*
X6100000Y6218000D03*
X5150000Y8493000D03*
%TD*%
D12*
%TO.C,C31*%
X43800000Y-1600000D03*
X45700000Y-1600000D03*
%TD*%
D13*
%TO.C,R20*%
X13601800Y8803200D03*
X13601800Y9823200D03*
%TD*%
D14*
%TO.C,C21*%
X40900000Y-1000000D03*
X40900000Y900000D03*
%TD*%
D15*
%TO.C,U7*%
X8009728Y7072351D03*
X8009728Y6422110D03*
X8009728Y5772123D03*
X8009728Y5122135D03*
X8009728Y4472148D03*
X8009728Y3822161D03*
X8009728Y3172173D03*
X8009728Y2522186D03*
X14009728Y2522186D03*
X14009728Y3172173D03*
X14009728Y3822161D03*
X14009728Y4472148D03*
X14009728Y5122135D03*
X14009728Y5772123D03*
X14009728Y6422110D03*
X14009728Y7072351D03*
%TD*%
D16*
%TO.C,H4*%
X-2600000Y13500000D03*
%TD*%
D17*
%TO.C,C23*%
X-4000000Y-9368830D03*
X-4000000Y-10328830D03*
%TD*%
D18*
%TO.C,D1*%
X7225000Y15050000D03*
X8800000Y15050000D03*
%TD*%
D19*
%TO.C,C16*%
X24275500Y-3039000D03*
X23315500Y-3039000D03*
%TD*%
D20*
%TO.C,C37*%
X15600000Y-2500000D03*
X15600000Y-1540000D03*
%TD*%
%TO.C,C36*%
X15600000Y6500000D03*
X15600000Y7460000D03*
%TD*%
%TO.C,C14*%
X34463000Y1151000D03*
X34463000Y2111000D03*
%TD*%
D21*
%TO.C,R26*%
X39700000Y-11400000D03*
X38680000Y-11400000D03*
%TD*%
D10*
%TO.C,R14*%
X33800000Y-7700000D03*
X33800000Y-8720000D03*
%TD*%
D18*
%TO.C,D2*%
X7225000Y13500000D03*
X8800000Y13500000D03*
%TD*%
D22*
%TO.C,U3*%
X36205383Y10730787D03*
X30415442Y10730787D03*
D23*
X37625500Y10230914D03*
X28985419Y10230914D03*
D24*
X28985419Y14411000D03*
X37625500Y14411000D03*
D25*
X36505358Y9610899D03*
X35705510Y9610899D03*
D26*
X34555396Y9610899D03*
X33555396Y9610899D03*
X33055523Y9610899D03*
X32055523Y9610899D03*
D25*
X30105561Y9610899D03*
X30905409Y9610899D03*
D26*
X31555396Y9610899D03*
X32555396Y9610899D03*
X34055523Y9610899D03*
X35055523Y9610899D03*
%TD*%
D17*
%TO.C,C27*%
X3300000Y-14028830D03*
X3300000Y-14988830D03*
%TD*%
D12*
%TO.C,C22*%
X36950000Y3100000D03*
X38850000Y3100000D03*
%TD*%
D27*
%TO.C,J2*%
X43070000Y14040000D03*
D28*
X49540000Y11500000D03*
D29*
X48210000Y14040000D03*
X46940000Y11500000D03*
X45670000Y14040000D03*
X44400000Y11500000D03*
%TD*%
D21*
%TO.C,R9*%
X47800000Y5120000D03*
X46780000Y5120000D03*
%TD*%
D30*
%TO.C,R2*%
X47980000Y600000D03*
X49000000Y600000D03*
%TD*%
D21*
%TO.C,R13*%
X35510500Y-4722600D03*
X34490500Y-4722600D03*
%TD*%
D16*
%TO.C,H1*%
X-2600000Y-23000000D03*
%TD*%
D10*
%TO.C,R7*%
X20077600Y5677200D03*
X20077600Y4657200D03*
%TD*%
D17*
%TO.C,C7*%
X35500000Y100000D03*
X35500000Y-860000D03*
%TD*%
D31*
%TO.C,U6*%
X38949962Y1070154D03*
X37050038Y1070154D03*
X38000000Y-1400000D03*
%TD*%
D20*
%TO.C,C5*%
X29475500Y3500000D03*
X29475500Y4460000D03*
%TD*%
D32*
%TO.C,R15*%
X11900000Y15050000D03*
X10250000Y15050000D03*
%TD*%
D17*
%TO.C,C6*%
X34500000Y100000D03*
X34500000Y-860000D03*
%TD*%
D33*
%TO.C,Q2*%
X12128600Y8350000D03*
X12128600Y10250000D03*
X9853600Y9300000D03*
%TD*%
D18*
%TO.C,D3*%
X7225000Y11900000D03*
X8800000Y11900000D03*
%TD*%
D21*
%TO.C,R25*%
X6129600Y1216800D03*
X5109600Y1216800D03*
%TD*%
D10*
%TO.C,R28*%
X47500000Y-6090000D03*
X47500000Y-7110000D03*
%TD*%
D34*
%TO.C,C26*%
X1200000Y-14028830D03*
X2160000Y-14028830D03*
%TD*%
D35*
%TO.C,DIP1*%
X9234601Y-22798217D03*
X11774606Y-22798217D03*
X14314611Y-22798217D03*
X16854616Y-22798217D03*
X19394622Y-22798217D03*
X21934627Y-22798217D03*
X24474632Y-22798217D03*
X27014637Y-22798217D03*
X27014637Y-15178201D03*
X24474632Y-15178201D03*
X21934627Y-15178201D03*
X19394622Y-15178201D03*
X16854616Y-15178201D03*
X14314611Y-15178201D03*
X11774606Y-15178201D03*
X9234601Y-15178201D03*
%TD*%
D34*
%TO.C,C10*%
X34700000Y-3200000D03*
X35660000Y-3200000D03*
%TD*%
D36*
%TO.C,U2*%
X47919797Y1830160D03*
X47920051Y2490053D03*
X47920051Y3149947D03*
X47920051Y3810094D03*
X45119949Y3810094D03*
X45119949Y3149947D03*
X45119949Y2490053D03*
X45119949Y1830160D03*
D37*
X46520000Y2820000D03*
%TD*%
D34*
%TO.C,C28*%
X44300000Y-8500000D03*
X45260000Y-8500000D03*
%TD*%
D10*
%TO.C,R4*%
X31365500Y3393800D03*
X31365500Y2373800D03*
%TD*%
D11*
%TO.C,Q4*%
X4134800Y-2610000D03*
X6034800Y-2610000D03*
X5084800Y-335000D03*
%TD*%
D38*
%TO.C,U1*%
X26188000Y73500D03*
X26188000Y-326500D03*
X26188000Y-726500D03*
X26188000Y-1126500D03*
X26188000Y-1526500D03*
X26188000Y-1926500D03*
X26188000Y-2326500D03*
X26188000Y-2726500D03*
X26188000Y-3126500D03*
X26188000Y-3526500D03*
X26188000Y-3926500D03*
X26188000Y-4326500D03*
X26188000Y-4726500D03*
X26188000Y-5126500D03*
D39*
X27025500Y-5964000D03*
X27425500Y-5964000D03*
X27825500Y-5964000D03*
X28225500Y-5964000D03*
X28625500Y-5964000D03*
X29025500Y-5964000D03*
X29425500Y-5964000D03*
X29825500Y-5964000D03*
X30225500Y-5964000D03*
X30625500Y-5964000D03*
X31025500Y-5964000D03*
X31425500Y-5964000D03*
X31825500Y-5964000D03*
X32225500Y-5964000D03*
D38*
X33063000Y-5126500D03*
X33063000Y-4726500D03*
X33063000Y-4326500D03*
X33063000Y-3926500D03*
X33063000Y-3526500D03*
X33063000Y-3126500D03*
X33063000Y-2726500D03*
X33063000Y-2326500D03*
X33063000Y-1926500D03*
X33063000Y-1526500D03*
X33063000Y-1126500D03*
X33063000Y-726500D03*
X33063000Y-326500D03*
X33063000Y73500D03*
D39*
X32225500Y911000D03*
X31825500Y911000D03*
X31425500Y911000D03*
X31025500Y911000D03*
X30625500Y911000D03*
X30225500Y911000D03*
X29825500Y911000D03*
X29425500Y911000D03*
X29025500Y911000D03*
X28625500Y911000D03*
X28225500Y911000D03*
X27825500Y911000D03*
X27425500Y911000D03*
X27025500Y911000D03*
D40*
X29625500Y-2526500D03*
%TD*%
D30*
%TO.C,R24*%
X4594600Y-4085000D03*
X5614600Y-4085000D03*
%TD*%
D34*
%TO.C,C30*%
X44340000Y-3200000D03*
X45300000Y-3200000D03*
%TD*%
D41*
%TO.C,J4*%
X36800000Y-13390000D03*
X39300000Y-13390000D03*
X41300000Y-13390000D03*
X43800000Y-13390000D03*
D42*
X33300000Y-16100000D03*
X47300000Y-16100000D03*
%TD*%
D43*
%TO.C,U12*%
X44300585Y-7350000D03*
X45249785Y-7350000D03*
X46200000Y-7350000D03*
X46200000Y-4750050D03*
X44300585Y-4750050D03*
%TD*%
D21*
%TO.C,R1*%
X30695227Y-8657862D03*
X29675227Y-8657862D03*
%TD*%
D32*
%TO.C,R16*%
X11900000Y13500000D03*
X10250000Y13500000D03*
%TD*%
D21*
%TO.C,R5*%
X30875500Y8000000D03*
X29855500Y8000000D03*
%TD*%
D34*
%TO.C,C15*%
X45120000Y720000D03*
X46080000Y720000D03*
%TD*%
D20*
%TO.C,C4*%
X24649600Y371800D03*
X24649600Y1331800D03*
%TD*%
D10*
%TO.C,R6*%
X49400000Y5140000D03*
X49400000Y4120000D03*
%TD*%
%TO.C,R3*%
X30415400Y3393800D03*
X30415400Y2373800D03*
%TD*%
D32*
%TO.C,R17*%
X11900000Y11900000D03*
X10250000Y11900000D03*
%TD*%
D15*
%TO.C,U8*%
X8109728Y-1927649D03*
X8109728Y-2577890D03*
X8109728Y-3227877D03*
X8109728Y-3877865D03*
X8109728Y-4527852D03*
X8109728Y-5177839D03*
X8109728Y-5827827D03*
X8109728Y-6477814D03*
X14109728Y-6477814D03*
X14109728Y-5827827D03*
X14109728Y-5177839D03*
X14109728Y-4527852D03*
X14109728Y-3877865D03*
X14109728Y-3227877D03*
X14109728Y-2577890D03*
X14109728Y-1927649D03*
%TD*%
D30*
%TO.C,R27*%
X40850000Y-11400000D03*
X41870000Y-11400000D03*
%TD*%
D20*
%TO.C,C11*%
X31825227Y-10007862D03*
X31825227Y-9047862D03*
%TD*%
D21*
%TO.C,R19*%
X6110000Y10046200D03*
X5090000Y10046200D03*
%TD*%
D33*
%TO.C,Q3*%
X12138400Y-686600D03*
X12138400Y1213400D03*
X9863400Y263400D03*
%TD*%
D10*
%TO.C,R21*%
X8300000Y10300000D03*
X8300000Y9280000D03*
%TD*%
D13*
%TO.C,R22*%
X13613400Y-233400D03*
X13613400Y786600D03*
%TD*%
D44*
%TO.C,X1*%
X30375227Y-9957798D03*
X28175075Y-9957798D03*
X28175075Y-11707862D03*
X30375227Y-11707862D03*
%TD*%
D45*
%TO.C,U11*%
X-2690018Y-12300000D03*
X-1420015Y-12300000D03*
X-150013Y-12300000D03*
X1119990Y-12300000D03*
X2389992Y-12300000D03*
X3659995Y-12300000D03*
X4929997Y-12300000D03*
X6200000Y-12300000D03*
X6200000Y-6828830D03*
X4929997Y-6828830D03*
X3659995Y-6828830D03*
X2389992Y-6828830D03*
X1119990Y-6828830D03*
X-150013Y-6828830D03*
X-1420015Y-6828830D03*
X-2690018Y-6828830D03*
%TD*%
D12*
%TO.C,C29*%
X45250000Y-10200000D03*
X47150000Y-10200000D03*
%TD*%
D34*
%TO.C,C24*%
X-2700000Y-14028830D03*
X-1740000Y-14028830D03*
%TD*%
%TO.C,C12*%
X27715227Y-8657798D03*
X28675227Y-8657798D03*
%TD*%
D20*
%TO.C,C2*%
X28525500Y3501000D03*
X28525500Y4461000D03*
%TD*%
%TO.C,C9*%
X23633600Y371800D03*
X23633600Y1331800D03*
%TD*%
D16*
%TO.C,H3*%
X61900000Y13500000D03*
%TD*%
D17*
%TO.C,C25*%
X-4000000Y-7268830D03*
X-4000000Y-8228830D03*
%TD*%
D20*
%TO.C,C13*%
X32305500Y2170000D03*
X32305500Y3130000D03*
%TD*%
D10*
%TO.C,R8*%
X49400000Y3220000D03*
X49400000Y2200000D03*
%TD*%
D46*
%TO.C,C3*%
X21500000Y400000D03*
X19600000Y400000D03*
%TD*%
D16*
%TO.C,H2*%
X61900000Y-23000000D03*
%TD*%
D30*
%TO.C,R18*%
X4604400Y4744400D03*
X5624400Y4744400D03*
%TD*%
D21*
%TO.C,R12*%
X35510500Y-5687800D03*
X34490500Y-5687800D03*
%TD*%
D47*
%TO.C,U4*%
X21881000Y3770200D03*
X23151000Y3770200D03*
X24421000Y3770200D03*
X25691000Y3770200D03*
X25691000Y10970200D03*
X24421000Y10970200D03*
X23151000Y10970200D03*
X21881000Y10970200D03*
%TD*%
D48*
%TO.C,SW1*%
X14800000Y14700000D03*
X18870104Y14700000D03*
%TD*%
%TO.C,SW2*%
X14800000Y11450000D03*
X18870104Y11450000D03*
%TD*%
D19*
%TO.C,C18*%
X44160000Y3450000D03*
X43200000Y3450000D03*
%TD*%
%TO.C,C17*%
X44160000Y2400000D03*
X43200000Y2400000D03*
%TD*%
D30*
%TO.C,R10*%
X34030000Y8000000D03*
X35050000Y8000000D03*
%TD*%
D10*
%TO.C,R11*%
X20077600Y3769600D03*
X20077600Y2749600D03*
%TD*%
D34*
%TO.C,C8*%
X30275500Y-7689000D03*
X31235500Y-7689000D03*
%TD*%
D17*
%TO.C,C1*%
X32800000Y-7689000D03*
X32800000Y-8649000D03*
%TD*%
D49*
%TO.C,J3*%
X54480137Y619812D03*
D50*
X54480137Y-2140157D03*
X54480137Y-4900127D03*
X54480137Y-7660097D03*
X54480137Y-10420066D03*
X57320117Y-760173D03*
X57320117Y-3520142D03*
X57320117Y-6280112D03*
X57320117Y-9040081D03*
D51*
X55900000Y7600000D03*
X55900000Y-17400000D03*
%TD*%
M02*
