%TF.GenerationSoftware,KiCad,Pcbnew,8.0.1*%
%TF.CreationDate,2024-03-30T20:31:03-07:00*%
%TF.ProjectId,babelfish,62616265-6c66-4697-9368-2e6b69636164,v0.3*%
%TF.SameCoordinates,Original*%
%TF.FileFunction,Copper,L2,Inr*%
%TF.FilePolarity,Positive*%
%FSLAX46Y46*%
G04 Gerber Fmt 4.6, Leading zero omitted, Abs format (unit mm)*
G04 Created by KiCad (PCBNEW 8.0.1) date 2024-03-30 20:31:03*
%MOMM*%
%LPD*%
G01*
G04 APERTURE LIST*
%TA.AperFunction,ComponentPad*%
%ADD10O,1.000000X2.100000*%
%TD*%
%TA.AperFunction,ComponentPad*%
%ADD11O,1.000000X1.800000*%
%TD*%
%TA.AperFunction,ComponentPad*%
%ADD12C,1.750000*%
%TD*%
%TA.AperFunction,ComponentPad*%
%ADD13C,1.600000*%
%TD*%
%TA.AperFunction,ComponentPad*%
%ADD14C,0.600000*%
%TD*%
%TA.AperFunction,ComponentPad*%
%ADD15C,1.500000*%
%TD*%
%TA.AperFunction,ComponentPad*%
%ADD16C,3.100000*%
%TD*%
%TA.AperFunction,ComponentPad*%
%ADD17R,1.574803X1.574803*%
%TD*%
%TA.AperFunction,ComponentPad*%
%ADD18C,1.574803*%
%TD*%
%TA.AperFunction,ComponentPad*%
%ADD19C,5.000000*%
%TD*%
%TA.AperFunction,ViaPad*%
%ADD20C,0.600000*%
%TD*%
%TA.AperFunction,Conductor*%
%ADD21C,0.300000*%
%TD*%
G04 APERTURE END LIST*
D10*
%TO.N,GND*%
%TO.C,U3*%
X37625500Y10230914D03*
X28985419Y10230914D03*
D11*
X28985419Y14411000D03*
X37625500Y14411000D03*
%TD*%
D12*
%TO.N,+3V3*%
%TO.C,J2*%
X48210000Y14040000D03*
%TO.N,/SWD*%
X46940000Y11500000D03*
%TO.N,GND*%
X45670000Y14040000D03*
%TO.N,/SWCLK*%
X44400000Y11500000D03*
%TD*%
D13*
%TO.N,/TX_A_SHIFTER_OUT*%
%TO.C,DIP1*%
X9234601Y-22798217D03*
%TO.N,/TX_A_MAX_OUT*%
X11774606Y-22798217D03*
%TO.N,/RX_A_SHIFTER_OUT*%
X14314611Y-22798217D03*
%TO.N,/RX_A_MAX_OUT*%
X16854616Y-22798217D03*
%TO.N,/TX_B_SHIFTER_OUT*%
X19394622Y-22798217D03*
%TO.N,/TX_B_MAX_OUT*%
X21934627Y-22798217D03*
%TO.N,/RX_B_SHIFTER_OUT*%
X24474632Y-22798217D03*
%TO.N,/RX_B_MAX_OUT*%
X27014637Y-22798217D03*
%TO.N,/RX_B_CONN*%
X27014637Y-15178201D03*
X24474632Y-15178201D03*
%TO.N,/TX_B_CONN*%
X21934627Y-15178201D03*
X19394622Y-15178201D03*
%TO.N,/RX_A_CONN*%
X16854616Y-15178201D03*
X14314611Y-15178201D03*
%TO.N,/TX_A_CONN*%
X11774606Y-15178201D03*
X9234601Y-15178201D03*
%TD*%
D14*
%TO.N,GND*%
%TO.C,U1*%
X28350500Y-1251500D03*
X28350500Y-2526500D03*
X28350500Y-3801500D03*
X29625500Y-1251500D03*
X29625500Y-2526500D03*
X29625500Y-3801500D03*
X30900500Y-1251500D03*
X30900500Y-2526500D03*
X30900500Y-3801500D03*
%TD*%
D15*
%TO.N,/VBUS_OUT*%
%TO.C,J4*%
X36800000Y-13390000D03*
%TO.N,/USB2_D-*%
X39300000Y-13390000D03*
%TO.N,/USB2_D+*%
X41300000Y-13390000D03*
%TO.N,GND*%
X43800000Y-13390000D03*
D16*
X33300000Y-16100000D03*
X47300000Y-16100000D03*
%TD*%
D17*
%TO.N,GND*%
%TO.C,J3*%
X54480137Y619812D03*
D18*
%TO.N,/TX_A_CONN*%
X54480137Y-2140157D03*
%TO.N,/TX_B_CONN*%
X54480137Y-4900127D03*
%TO.N,/GPIO14*%
X54480137Y-7660097D03*
%TO.N,/GPIO15*%
X54480137Y-10420066D03*
%TO.N,/VCC_5V*%
X57320117Y-760173D03*
%TO.N,/RX_A_CONN*%
X57320117Y-3520142D03*
%TO.N,/RX_B_CONN*%
X57320117Y-6280112D03*
%TO.N,+3V3*%
X57320117Y-9040081D03*
D19*
%TO.N,GND*%
X55900000Y7600000D03*
X55900000Y-17400000D03*
%TD*%
D20*
%TO.N,+1V1*%
X28400000Y5400000D03*
X33200000Y2500000D03*
%TO.N,GND*%
X39400000Y5200000D03*
X41200000Y5200000D03*
X8800000Y-7300000D03*
X45850000Y5150000D03*
X4550000Y-15300000D03*
X39400000Y6100000D03*
X32800000Y-9700000D03*
X6200000Y2500000D03*
X46300000Y-8600000D03*
X14800000Y15900000D03*
X20100000Y1800000D03*
X23300000Y-3900000D03*
X41200000Y2500000D03*
X36500000Y-3200000D03*
X40300000Y3400000D03*
X40300000Y2500000D03*
X47000000Y-3900000D03*
X50500000Y2200000D03*
X-2500000Y-8800000D03*
X-2700000Y-9800000D03*
X45100000Y4850000D03*
X16700000Y-2500000D03*
X47000000Y700000D03*
X40300000Y6100000D03*
X40300000Y5200000D03*
X35500000Y-1600000D03*
X37550000Y-11400000D03*
X4300000Y12700000D03*
X28500000Y-7075500D03*
X28900000Y8000000D03*
X42100000Y4300000D03*
X35400000Y6850000D03*
X42100000Y5200000D03*
X34450000Y3050000D03*
X46900000Y-1600000D03*
X32825000Y4100000D03*
X34500000Y-1600000D03*
X22600000Y1600000D03*
X40300000Y4300000D03*
X31025000Y7225000D03*
X30100000Y5375000D03*
X29300000Y5400000D03*
X7600000Y7900000D03*
X42100000Y2500000D03*
X-1420015Y-8600000D03*
X26100000Y1000000D03*
X43000000Y-11400000D03*
X41200000Y6100000D03*
X41200000Y4300000D03*
X41200000Y3400000D03*
X4300000Y14300000D03*
X24700000Y5100000D03*
X7700000Y-1100000D03*
X14900000Y9900000D03*
X46700000Y-11800000D03*
X42100000Y6100000D03*
X42100000Y3400000D03*
X16700000Y6500000D03*
%TO.N,VBUS*%
X45650000Y-150000D03*
X50519949Y4170000D03*
X36400000Y8300000D03*
X46474975Y-124975D03*
%TO.N,+3V3*%
X36700000Y4900000D03*
X34000000Y4900000D03*
X14700000Y-200000D03*
X5100000Y-1700000D03*
X33800000Y-9700000D03*
X35700000Y1100000D03*
X34900000Y4000000D03*
X34000000Y4000000D03*
X35700000Y2100000D03*
X25100000Y-3400000D03*
X34900000Y4900000D03*
X21900000Y12500000D03*
X5130000Y7146200D03*
X47500000Y-8000000D03*
X29475500Y2611000D03*
X29200000Y-4900000D03*
X22625500Y361000D03*
X-2700000Y-5100000D03*
X35800000Y4900000D03*
X-4000000Y-6100000D03*
X35700000Y3100000D03*
X14700000Y8800000D03*
X49850000Y600000D03*
X20077600Y6586000D03*
%TO.N,/~{USB_BOOT}*%
X20200000Y14700000D03*
X20200000Y8900000D03*
%TO.N,/GPIO15*%
X27900000Y-7700000D03*
X48800000Y-9900000D03*
%TO.N,/5V0*%
X16700000Y-1500000D03*
X16700000Y7500000D03*
X7200000Y1400000D03*
X42800000Y-5100000D03*
X43700000Y1000000D03*
X7200000Y10300000D03*
%TO.N,/RUN*%
X22900000Y13600000D03*
X34500000Y-6900000D03*
%TO.N,/SWD*%
X33100000Y-6000000D03*
X39400000Y7400000D03*
%TO.N,/SWCLK*%
X32000000Y-4700000D03*
X38200000Y7400000D03*
%TO.N,/GPIO14*%
X27000000Y-7700000D03*
X49800000Y-8400000D03*
%TO.N,/LED_PWR*%
X17000000Y4200000D03*
X22200000Y-2400000D03*
X18400000Y5600000D03*
X13050000Y15050000D03*
%TO.N,/LED_P_OK*%
X13050000Y13500000D03*
X27200000Y-3600000D03*
%TO.N,/LED_AUX*%
X27400000Y-4800000D03*
X13050000Y11900000D03*
%TO.N,/TX_A_CONN*%
X17800000Y-5300000D03*
X14300000Y-8000000D03*
X17800000Y-4100000D03*
X15750000Y3150000D03*
X29900000Y-20000000D03*
%TO.N,/RX_A_CONN*%
X7878768Y-17121232D03*
X29900000Y-19000000D03*
%TO.N,/RX_B_CONN*%
X10850000Y-5850000D03*
X29900000Y-17000000D03*
%TO.N,/TX_B_CONN*%
X29900000Y-18000000D03*
X10850000Y-6850000D03*
%TO.N,/STAT_5V0*%
X47500000Y-2600000D03*
X37500000Y-3200000D03*
%TO.N,/TX_A*%
X12300000Y3200000D03*
%TO.N,/RX_A*%
X21900000Y-1400000D03*
%TO.N,/TX_B*%
X21400000Y-7000000D03*
%TO.N,/RX_B*%
X24700000Y-4700000D03*
X9800000Y-5800000D03*
%TO.N,/TX_A_MAX*%
X4700000Y-5050000D03*
X12200000Y4500000D03*
%TO.N,/CH_A_S0*%
X24500000Y-1400000D03*
X17200000Y5700000D03*
%TO.N,/CH_A_S1*%
X9700000Y6400000D03*
X23400000Y-1724500D03*
%TO.N,/RX_A_MAX*%
X3550000Y-5050000D03*
X9700000Y5100000D03*
%TO.N,/CH_B_S0*%
X24300000Y-6700000D03*
X22300000Y-5300000D03*
%TO.N,/CH_B_S1*%
X25000000Y-7300000D03*
X9900000Y-2400000D03*
X21000077Y-5972935D03*
X16400000Y-3900000D03*
%TO.N,/TX_B_MAX*%
X6000000Y-5050000D03*
X12000000Y-4000000D03*
%TO.N,/USB2_FLG*%
X36750000Y-4000000D03*
X48500000Y-8600000D03*
%TO.N,/USB2_EN*%
X45600000Y-6100000D03*
X39200000Y-6600000D03*
%TO.N,/RX_B_MAX*%
X7650000Y-8250000D03*
X9800000Y-3850000D03*
%TO.N,/TX_A_SHIFTER_OUT*%
X9850000Y10300000D03*
%TO.N,/TX_A_MAX_OUT*%
X3200000Y-10450000D03*
%TO.N,/RX_A_SHIFTER_OUT*%
X4100000Y8500000D03*
%TO.N,/RX_A_MAX_OUT*%
X550000Y-8900000D03*
X-500000Y-9950000D03*
%TO.N,/TX_B_SHIFTER_OUT*%
X9850000Y-650000D03*
%TO.N,/RX_B_SHIFTER_OUT*%
X1575500Y-4700000D03*
%TD*%
D21*
%TO.N,GND*%
X28350500Y-2526500D02*
X30900500Y-2526500D01*
X28350500Y-3801500D02*
X29625500Y-3801500D01*
%TD*%
%TA.AperFunction,Conductor*%
%TO.N,GND*%
G36*
X65292539Y16629815D02*
G01*
X65338294Y16577011D01*
X65349500Y16525500D01*
X65349500Y-25975500D01*
X65329815Y-26042539D01*
X65277011Y-26088294D01*
X65225500Y-26099500D01*
X-5925500Y-26099500D01*
X-5992539Y-26079815D01*
X-6038294Y-26027011D01*
X-6049500Y-25975500D01*
X-6049500Y-23125962D01*
X-4200500Y-23125962D01*
X-4188429Y-23202173D01*
X-4161090Y-23374785D01*
X-4083240Y-23614383D01*
X-4051894Y-23675902D01*
X-3971585Y-23833517D01*
X-3968868Y-23838848D01*
X-3820799Y-24042649D01*
X-3820795Y-24042654D01*
X-3642655Y-24220794D01*
X-3642650Y-24220798D01*
X-3464883Y-24349952D01*
X-3438845Y-24368870D01*
X-3295816Y-24441747D01*
X-3214384Y-24483239D01*
X-3214382Y-24483239D01*
X-3214379Y-24483241D01*
X-2974785Y-24561090D01*
X-2725962Y-24600500D01*
X-2725961Y-24600500D01*
X-2474039Y-24600500D01*
X-2474038Y-24600500D01*
X-2225215Y-24561090D01*
X-1985621Y-24483241D01*
X-1761155Y-24368870D01*
X-1557344Y-24220793D01*
X-1379207Y-24042656D01*
X-1231130Y-23838845D01*
X-1116759Y-23614379D01*
X-1038910Y-23374785D01*
X-999500Y-23125962D01*
X-999500Y-22874038D01*
X-1011509Y-22798217D01*
X8179018Y-22798217D01*
X8199300Y-23004149D01*
X8199301Y-23004151D01*
X8259369Y-23202171D01*
X8356916Y-23384667D01*
X8356918Y-23384669D01*
X8488190Y-23544627D01*
X8573189Y-23614383D01*
X8648151Y-23675902D01*
X8830647Y-23773449D01*
X9028667Y-23833517D01*
X9028666Y-23833517D01*
X9047130Y-23835335D01*
X9234601Y-23853800D01*
X9440535Y-23833517D01*
X9638555Y-23773449D01*
X9821051Y-23675902D01*
X9981011Y-23544627D01*
X10112286Y-23384667D01*
X10209833Y-23202171D01*
X10269901Y-23004151D01*
X10290184Y-22798217D01*
X10719023Y-22798217D01*
X10739305Y-23004149D01*
X10739306Y-23004151D01*
X10799374Y-23202171D01*
X10896921Y-23384667D01*
X10896923Y-23384669D01*
X11028195Y-23544627D01*
X11113194Y-23614383D01*
X11188156Y-23675902D01*
X11370652Y-23773449D01*
X11568672Y-23833517D01*
X11568671Y-23833517D01*
X11587135Y-23835335D01*
X11774606Y-23853800D01*
X11980540Y-23833517D01*
X12178560Y-23773449D01*
X12361056Y-23675902D01*
X12521016Y-23544627D01*
X12652291Y-23384667D01*
X12749838Y-23202171D01*
X12809906Y-23004151D01*
X12830189Y-22798217D01*
X13259028Y-22798217D01*
X13279310Y-23004149D01*
X13279311Y-23004151D01*
X13339379Y-23202171D01*
X13436926Y-23384667D01*
X13436928Y-23384669D01*
X13568200Y-23544627D01*
X13653199Y-23614383D01*
X13728161Y-23675902D01*
X13910657Y-23773449D01*
X14108677Y-23833517D01*
X14108676Y-23833517D01*
X14127140Y-23835335D01*
X14314611Y-23853800D01*
X14520545Y-23833517D01*
X14718565Y-23773449D01*
X14901061Y-23675902D01*
X15061021Y-23544627D01*
X15192296Y-23384667D01*
X15289843Y-23202171D01*
X15349911Y-23004151D01*
X15370194Y-22798217D01*
X15799033Y-22798217D01*
X15819315Y-23004149D01*
X15819316Y-23004151D01*
X15879384Y-23202171D01*
X15976931Y-23384667D01*
X15976933Y-23384669D01*
X16108205Y-23544627D01*
X16193204Y-23614383D01*
X16268166Y-23675902D01*
X16450662Y-23773449D01*
X16648682Y-23833517D01*
X16648681Y-23833517D01*
X16667145Y-23835335D01*
X16854616Y-23853800D01*
X17060550Y-23833517D01*
X17258570Y-23773449D01*
X17441066Y-23675902D01*
X17601026Y-23544627D01*
X17732301Y-23384667D01*
X17829848Y-23202171D01*
X17889916Y-23004151D01*
X17910199Y-22798217D01*
X18339039Y-22798217D01*
X18359321Y-23004149D01*
X18359322Y-23004151D01*
X18419390Y-23202171D01*
X18516937Y-23384667D01*
X18516939Y-23384669D01*
X18648211Y-23544627D01*
X18733210Y-23614383D01*
X18808172Y-23675902D01*
X18990668Y-23773449D01*
X19188688Y-23833517D01*
X19188687Y-23833517D01*
X19207151Y-23835335D01*
X19394622Y-23853800D01*
X19600556Y-23833517D01*
X19798576Y-23773449D01*
X19981072Y-23675902D01*
X20141032Y-23544627D01*
X20272307Y-23384667D01*
X20369854Y-23202171D01*
X20429922Y-23004151D01*
X20450205Y-22798217D01*
X20879044Y-22798217D01*
X20899326Y-23004149D01*
X20899327Y-23004151D01*
X20959395Y-23202171D01*
X21056942Y-23384667D01*
X21056944Y-23384669D01*
X21188216Y-23544627D01*
X21273215Y-23614383D01*
X21348177Y-23675902D01*
X21530673Y-23773449D01*
X21728693Y-23833517D01*
X21728692Y-23833517D01*
X21747156Y-23835335D01*
X21934627Y-23853800D01*
X22140561Y-23833517D01*
X22338581Y-23773449D01*
X22521077Y-23675902D01*
X22681037Y-23544627D01*
X22812312Y-23384667D01*
X22909859Y-23202171D01*
X22969927Y-23004151D01*
X22990210Y-22798217D01*
X23419049Y-22798217D01*
X23439331Y-23004149D01*
X23439332Y-23004151D01*
X23499400Y-23202171D01*
X23596947Y-23384667D01*
X23596949Y-23384669D01*
X23728221Y-23544627D01*
X23813220Y-23614383D01*
X23888182Y-23675902D01*
X24070678Y-23773449D01*
X24268698Y-23833517D01*
X24268697Y-23833517D01*
X24287161Y-23835335D01*
X24474632Y-23853800D01*
X24680566Y-23833517D01*
X24878586Y-23773449D01*
X25061082Y-23675902D01*
X25221042Y-23544627D01*
X25352317Y-23384667D01*
X25449864Y-23202171D01*
X25509932Y-23004151D01*
X25530215Y-22798217D01*
X25959054Y-22798217D01*
X25979336Y-23004149D01*
X25979337Y-23004151D01*
X26039405Y-23202171D01*
X26136952Y-23384667D01*
X26136954Y-23384669D01*
X26268226Y-23544627D01*
X26353225Y-23614383D01*
X26428187Y-23675902D01*
X26610683Y-23773449D01*
X26808703Y-23833517D01*
X26808702Y-23833517D01*
X26827166Y-23835335D01*
X27014637Y-23853800D01*
X27220571Y-23833517D01*
X27418591Y-23773449D01*
X27601087Y-23675902D01*
X27761047Y-23544627D01*
X27892322Y-23384667D01*
X27989869Y-23202171D01*
X28012986Y-23125962D01*
X60299500Y-23125962D01*
X60311571Y-23202173D01*
X60338910Y-23374785D01*
X60416760Y-23614383D01*
X60448106Y-23675902D01*
X60528415Y-23833517D01*
X60531132Y-23838848D01*
X60679201Y-24042649D01*
X60679205Y-24042654D01*
X60857345Y-24220794D01*
X60857350Y-24220798D01*
X61035117Y-24349952D01*
X61061155Y-24368870D01*
X61204184Y-24441747D01*
X61285616Y-24483239D01*
X61285618Y-24483239D01*
X61285621Y-24483241D01*
X61525215Y-24561090D01*
X61774038Y-24600500D01*
X61774039Y-24600500D01*
X62025961Y-24600500D01*
X62025962Y-24600500D01*
X62274785Y-24561090D01*
X62514379Y-24483241D01*
X62738845Y-24368870D01*
X62942656Y-24220793D01*
X63120793Y-24042656D01*
X63268870Y-23838845D01*
X63383241Y-23614379D01*
X63461090Y-23374785D01*
X63500500Y-23125962D01*
X63500500Y-22874038D01*
X63461090Y-22625215D01*
X63383241Y-22385621D01*
X63383239Y-22385618D01*
X63383239Y-22385616D01*
X63341747Y-22304184D01*
X63268870Y-22161155D01*
X63249952Y-22135117D01*
X63120798Y-21957350D01*
X63120794Y-21957345D01*
X62942654Y-21779205D01*
X62942649Y-21779201D01*
X62738848Y-21631132D01*
X62738847Y-21631131D01*
X62738845Y-21631130D01*
X62668747Y-21595413D01*
X62514383Y-21516760D01*
X62274785Y-21438910D01*
X62025962Y-21399500D01*
X61774038Y-21399500D01*
X61649626Y-21419205D01*
X61525214Y-21438910D01*
X61285616Y-21516760D01*
X61061151Y-21631132D01*
X60857350Y-21779201D01*
X60857345Y-21779205D01*
X60679205Y-21957345D01*
X60679201Y-21957350D01*
X60531132Y-22161151D01*
X60416760Y-22385616D01*
X60349610Y-22592283D01*
X60338910Y-22625215D01*
X60299500Y-22874038D01*
X60299500Y-23125962D01*
X28012986Y-23125962D01*
X28049937Y-23004151D01*
X28070220Y-22798217D01*
X28049937Y-22592283D01*
X27989869Y-22394263D01*
X27892322Y-22211767D01*
X27840339Y-22148426D01*
X27761047Y-22051806D01*
X27601089Y-21920534D01*
X27601090Y-21920534D01*
X27601087Y-21920532D01*
X27418591Y-21822985D01*
X27220571Y-21762917D01*
X27220569Y-21762916D01*
X27220571Y-21762916D01*
X27014637Y-21742634D01*
X26808704Y-21762916D01*
X26610680Y-21822986D01*
X26500535Y-21881860D01*
X26428187Y-21920532D01*
X26428185Y-21920533D01*
X26428184Y-21920534D01*
X26268226Y-22051806D01*
X26136954Y-22211764D01*
X26039406Y-22394260D01*
X25979336Y-22592284D01*
X25959054Y-22798217D01*
X25530215Y-22798217D01*
X25509932Y-22592283D01*
X25449864Y-22394263D01*
X25352317Y-22211767D01*
X25300334Y-22148426D01*
X25221042Y-22051806D01*
X25061084Y-21920534D01*
X25061085Y-21920534D01*
X25061082Y-21920532D01*
X24878586Y-21822985D01*
X24680566Y-21762917D01*
X24680564Y-21762916D01*
X24680566Y-21762916D01*
X24474632Y-21742634D01*
X24268699Y-21762916D01*
X24070675Y-21822986D01*
X23960530Y-21881860D01*
X23888182Y-21920532D01*
X23888180Y-21920533D01*
X23888179Y-21920534D01*
X23728221Y-22051806D01*
X23596949Y-22211764D01*
X23499401Y-22394260D01*
X23439331Y-22592284D01*
X23419049Y-22798217D01*
X22990210Y-22798217D01*
X22969927Y-22592283D01*
X22909859Y-22394263D01*
X22812312Y-22211767D01*
X22760329Y-22148426D01*
X22681037Y-22051806D01*
X22521079Y-21920534D01*
X22521080Y-21920534D01*
X22521077Y-21920532D01*
X22338581Y-21822985D01*
X22140561Y-21762917D01*
X22140559Y-21762916D01*
X22140561Y-21762916D01*
X21934627Y-21742634D01*
X21728694Y-21762916D01*
X21530670Y-21822986D01*
X21420525Y-21881860D01*
X21348177Y-21920532D01*
X21348175Y-21920533D01*
X21348174Y-21920534D01*
X21188216Y-22051806D01*
X21056944Y-22211764D01*
X20959396Y-22394260D01*
X20899326Y-22592284D01*
X20879044Y-22798217D01*
X20450205Y-22798217D01*
X20429922Y-22592283D01*
X20369854Y-22394263D01*
X20272307Y-22211767D01*
X20220324Y-22148426D01*
X20141032Y-22051806D01*
X19981074Y-21920534D01*
X19981075Y-21920534D01*
X19981072Y-21920532D01*
X19798576Y-21822985D01*
X19600556Y-21762917D01*
X19600554Y-21762916D01*
X19600556Y-21762916D01*
X19394622Y-21742634D01*
X19188689Y-21762916D01*
X18990665Y-21822986D01*
X18880520Y-21881860D01*
X18808172Y-21920532D01*
X18808170Y-21920533D01*
X18808169Y-21920534D01*
X18648211Y-22051806D01*
X18516939Y-22211764D01*
X18419391Y-22394260D01*
X18359321Y-22592284D01*
X18339039Y-22798217D01*
X17910199Y-22798217D01*
X17889916Y-22592283D01*
X17829848Y-22394263D01*
X17732301Y-22211767D01*
X17680318Y-22148426D01*
X17601026Y-22051806D01*
X17441068Y-21920534D01*
X17441069Y-21920534D01*
X17441066Y-21920532D01*
X17258570Y-21822985D01*
X17060550Y-21762917D01*
X17060548Y-21762916D01*
X17060550Y-21762916D01*
X16854616Y-21742634D01*
X16648683Y-21762916D01*
X16450659Y-21822986D01*
X16340514Y-21881860D01*
X16268166Y-21920532D01*
X16268164Y-21920533D01*
X16268163Y-21920534D01*
X16108205Y-22051806D01*
X15976933Y-22211764D01*
X15879385Y-22394260D01*
X15819315Y-22592284D01*
X15799033Y-22798217D01*
X15370194Y-22798217D01*
X15349911Y-22592283D01*
X15289843Y-22394263D01*
X15192296Y-22211767D01*
X15140313Y-22148426D01*
X15061021Y-22051806D01*
X14901063Y-21920534D01*
X14901064Y-21920534D01*
X14901061Y-21920532D01*
X14718565Y-21822985D01*
X14520545Y-21762917D01*
X14520543Y-21762916D01*
X14520545Y-21762916D01*
X14314611Y-21742634D01*
X14108678Y-21762916D01*
X13910654Y-21822986D01*
X13800509Y-21881860D01*
X13728161Y-21920532D01*
X13728159Y-21920533D01*
X13728158Y-21920534D01*
X13568200Y-22051806D01*
X13436928Y-22211764D01*
X13339380Y-22394260D01*
X13279310Y-22592284D01*
X13259028Y-22798217D01*
X12830189Y-22798217D01*
X12809906Y-22592283D01*
X12749838Y-22394263D01*
X12652291Y-22211767D01*
X12600308Y-22148426D01*
X12521016Y-22051806D01*
X12361058Y-21920534D01*
X12361059Y-21920534D01*
X12361056Y-21920532D01*
X12178560Y-21822985D01*
X11980540Y-21762917D01*
X11980538Y-21762916D01*
X11980540Y-21762916D01*
X11774606Y-21742634D01*
X11568673Y-21762916D01*
X11370649Y-21822986D01*
X11260504Y-21881860D01*
X11188156Y-21920532D01*
X11188154Y-21920533D01*
X11188153Y-21920534D01*
X11028195Y-22051806D01*
X10896923Y-22211764D01*
X10799375Y-22394260D01*
X10739305Y-22592284D01*
X10719023Y-22798217D01*
X10290184Y-22798217D01*
X10269901Y-22592283D01*
X10209833Y-22394263D01*
X10112286Y-22211767D01*
X10060303Y-22148426D01*
X9981011Y-22051806D01*
X9821053Y-21920534D01*
X9821054Y-21920534D01*
X9821051Y-21920532D01*
X9638555Y-21822985D01*
X9440535Y-21762917D01*
X9440533Y-21762916D01*
X9440535Y-21762916D01*
X9234601Y-21742634D01*
X9028668Y-21762916D01*
X8830644Y-21822986D01*
X8720499Y-21881860D01*
X8648151Y-21920532D01*
X8648149Y-21920533D01*
X8648148Y-21920534D01*
X8488190Y-22051806D01*
X8356918Y-22211764D01*
X8259370Y-22394260D01*
X8199300Y-22592284D01*
X8179018Y-22798217D01*
X-1011509Y-22798217D01*
X-1038910Y-22625215D01*
X-1116759Y-22385621D01*
X-1116761Y-22385618D01*
X-1116761Y-22385616D01*
X-1158253Y-22304184D01*
X-1231130Y-22161155D01*
X-1250048Y-22135117D01*
X-1379202Y-21957350D01*
X-1379206Y-21957345D01*
X-1557346Y-21779205D01*
X-1557351Y-21779201D01*
X-1761152Y-21631132D01*
X-1761153Y-21631131D01*
X-1761155Y-21631130D01*
X-1831253Y-21595413D01*
X-1985617Y-21516760D01*
X-2225215Y-21438910D01*
X-2474038Y-21399500D01*
X-2725962Y-21399500D01*
X-2850374Y-21419205D01*
X-2974786Y-21438910D01*
X-3214384Y-21516760D01*
X-3438849Y-21631132D01*
X-3642650Y-21779201D01*
X-3642655Y-21779205D01*
X-3820795Y-21957345D01*
X-3820799Y-21957350D01*
X-3968868Y-22161151D01*
X-4083240Y-22385616D01*
X-4150390Y-22592283D01*
X-4161090Y-22625215D01*
X-4200500Y-22874038D01*
X-4200500Y-23125962D01*
X-6049500Y-23125962D01*
X-6049500Y-20000000D01*
X29344750Y-20000000D01*
X29363670Y-20143708D01*
X29363671Y-20143712D01*
X29419137Y-20277622D01*
X29419138Y-20277624D01*
X29419139Y-20277625D01*
X29507379Y-20392621D01*
X29622375Y-20480861D01*
X29756291Y-20536330D01*
X29883280Y-20553048D01*
X29899999Y-20555250D01*
X29900000Y-20555250D01*
X29900001Y-20555250D01*
X29914977Y-20553278D01*
X30043709Y-20536330D01*
X30177625Y-20480861D01*
X30292621Y-20392621D01*
X30380861Y-20277625D01*
X30436330Y-20143709D01*
X30455250Y-20000000D01*
X30436330Y-19856291D01*
X30380861Y-19722375D01*
X30292621Y-19607379D01*
X30280886Y-19598374D01*
X30239685Y-19541950D01*
X30235529Y-19472204D01*
X30269740Y-19411283D01*
X30280876Y-19401632D01*
X30292621Y-19392621D01*
X30380861Y-19277625D01*
X30436330Y-19143709D01*
X30455250Y-19000000D01*
X30436330Y-18856291D01*
X30380861Y-18722375D01*
X30292621Y-18607379D01*
X30280886Y-18598374D01*
X30239685Y-18541950D01*
X30235529Y-18472204D01*
X30269740Y-18411283D01*
X30280876Y-18401632D01*
X30292621Y-18392621D01*
X30380861Y-18277625D01*
X30436330Y-18143709D01*
X30455250Y-18000000D01*
X30436330Y-17856291D01*
X30380861Y-17722375D01*
X30292621Y-17607379D01*
X30280886Y-17598374D01*
X30239685Y-17541950D01*
X30235529Y-17472204D01*
X30269740Y-17411283D01*
X30280876Y-17401632D01*
X30292621Y-17392621D01*
X30380861Y-17277625D01*
X30436330Y-17143709D01*
X30455250Y-17000000D01*
X30436330Y-16856291D01*
X30380861Y-16722375D01*
X30292621Y-16607379D01*
X30177625Y-16519139D01*
X30177624Y-16519138D01*
X30177622Y-16519137D01*
X30043712Y-16463671D01*
X30043710Y-16463670D01*
X30043709Y-16463670D01*
X29966864Y-16453553D01*
X29900001Y-16444750D01*
X29899999Y-16444750D01*
X29756291Y-16463670D01*
X29756287Y-16463671D01*
X29622377Y-16519137D01*
X29507379Y-16607379D01*
X29419137Y-16722377D01*
X29363671Y-16856287D01*
X29363670Y-16856291D01*
X29344750Y-16999999D01*
X29344750Y-17000000D01*
X29363670Y-17143708D01*
X29363671Y-17143712D01*
X29419137Y-17277622D01*
X29419138Y-17277624D01*
X29419139Y-17277625D01*
X29507379Y-17392621D01*
X29515502Y-17398854D01*
X29519113Y-17401625D01*
X29560316Y-17458053D01*
X29564470Y-17527799D01*
X29530257Y-17588719D01*
X29519113Y-17598375D01*
X29507381Y-17607377D01*
X29419137Y-17722377D01*
X29363671Y-17856287D01*
X29363670Y-17856291D01*
X29344750Y-18000000D01*
X29359470Y-18111811D01*
X29363670Y-18143708D01*
X29363671Y-18143712D01*
X29419137Y-18277622D01*
X29419138Y-18277624D01*
X29419139Y-18277625D01*
X29507379Y-18392621D01*
X29516711Y-18399782D01*
X29519113Y-18401625D01*
X29560316Y-18458053D01*
X29564470Y-18527799D01*
X29530257Y-18588719D01*
X29519113Y-18598375D01*
X29507381Y-18607377D01*
X29507380Y-18607378D01*
X29507379Y-18607379D01*
X29463259Y-18664877D01*
X29419137Y-18722377D01*
X29363671Y-18856287D01*
X29363670Y-18856291D01*
X29344750Y-18999999D01*
X29344750Y-19000000D01*
X29363670Y-19143708D01*
X29363671Y-19143712D01*
X29419137Y-19277622D01*
X29419138Y-19277624D01*
X29419139Y-19277625D01*
X29507379Y-19392621D01*
X29516711Y-19399782D01*
X29519113Y-19401625D01*
X29560316Y-19458053D01*
X29564470Y-19527799D01*
X29530257Y-19588719D01*
X29519113Y-19598375D01*
X29507381Y-19607377D01*
X29419137Y-19722377D01*
X29363671Y-19856287D01*
X29363670Y-19856291D01*
X29344750Y-19999999D01*
X29344750Y-20000000D01*
X-6049500Y-20000000D01*
X-6049500Y-17121232D01*
X7323518Y-17121232D01*
X7342438Y-17264940D01*
X7342439Y-17264944D01*
X7397905Y-17398854D01*
X7397906Y-17398856D01*
X7397907Y-17398857D01*
X7486147Y-17513853D01*
X7601143Y-17602093D01*
X7601144Y-17602093D01*
X7601145Y-17602094D01*
X7645781Y-17620582D01*
X7735059Y-17657562D01*
X7862048Y-17674280D01*
X7878767Y-17676482D01*
X7878768Y-17676482D01*
X7878769Y-17676482D01*
X7893745Y-17674510D01*
X8022477Y-17657562D01*
X8156393Y-17602093D01*
X8271389Y-17513853D01*
X8359629Y-17398857D01*
X8415098Y-17264941D01*
X8434018Y-17121232D01*
X8415098Y-16977523D01*
X8359629Y-16843607D01*
X8271389Y-16728611D01*
X8156393Y-16640371D01*
X8156392Y-16640370D01*
X8156390Y-16640369D01*
X8022480Y-16584903D01*
X8022478Y-16584902D01*
X8022477Y-16584902D01*
X7950622Y-16575442D01*
X7878769Y-16565982D01*
X7878767Y-16565982D01*
X7735059Y-16584902D01*
X7735055Y-16584903D01*
X7601145Y-16640369D01*
X7486147Y-16728611D01*
X7397905Y-16843609D01*
X7342439Y-16977519D01*
X7342438Y-16977523D01*
X7323518Y-17121231D01*
X7323518Y-17121232D01*
X-6049500Y-17121232D01*
X-6049500Y-15178201D01*
X8179018Y-15178201D01*
X8199300Y-15384133D01*
X8199301Y-15384135D01*
X8259369Y-15582155D01*
X8356916Y-15764651D01*
X8356918Y-15764653D01*
X8488190Y-15924611D01*
X8575891Y-15996584D01*
X8648151Y-16055886D01*
X8830647Y-16153433D01*
X9028667Y-16213501D01*
X9028666Y-16213501D01*
X9047130Y-16215319D01*
X9234601Y-16233784D01*
X9440535Y-16213501D01*
X9638555Y-16153433D01*
X9821051Y-16055886D01*
X9981011Y-15924611D01*
X10112286Y-15764651D01*
X10209833Y-15582155D01*
X10269901Y-15384135D01*
X10290184Y-15178201D01*
X10719023Y-15178201D01*
X10739305Y-15384133D01*
X10739306Y-15384135D01*
X10799374Y-15582155D01*
X10896921Y-15764651D01*
X10896923Y-15764653D01*
X11028195Y-15924611D01*
X11115896Y-15996584D01*
X11188156Y-16055886D01*
X11370652Y-16153433D01*
X11568672Y-16213501D01*
X11568671Y-16213501D01*
X11587135Y-16215319D01*
X11774606Y-16233784D01*
X11980540Y-16213501D01*
X12178560Y-16153433D01*
X12361056Y-16055886D01*
X12521016Y-15924611D01*
X12652291Y-15764651D01*
X12749838Y-15582155D01*
X12809906Y-15384135D01*
X12830189Y-15178201D01*
X13259028Y-15178201D01*
X13279310Y-15384133D01*
X13279311Y-15384135D01*
X13339379Y-15582155D01*
X13436926Y-15764651D01*
X13436928Y-15764653D01*
X13568200Y-15924611D01*
X13655901Y-15996584D01*
X13728161Y-16055886D01*
X13910657Y-16153433D01*
X14108677Y-16213501D01*
X14108676Y-16213501D01*
X14127140Y-16215319D01*
X14314611Y-16233784D01*
X14520545Y-16213501D01*
X14718565Y-16153433D01*
X14901061Y-16055886D01*
X15061021Y-15924611D01*
X15192296Y-15764651D01*
X15289843Y-15582155D01*
X15349911Y-15384135D01*
X15370194Y-15178201D01*
X15799033Y-15178201D01*
X15819315Y-15384133D01*
X15819316Y-15384135D01*
X15879384Y-15582155D01*
X15976931Y-15764651D01*
X15976933Y-15764653D01*
X16108205Y-15924611D01*
X16195906Y-15996584D01*
X16268166Y-16055886D01*
X16450662Y-16153433D01*
X16648682Y-16213501D01*
X16648681Y-16213501D01*
X16667145Y-16215319D01*
X16854616Y-16233784D01*
X17060550Y-16213501D01*
X17258570Y-16153433D01*
X17441066Y-16055886D01*
X17601026Y-15924611D01*
X17732301Y-15764651D01*
X17829848Y-15582155D01*
X17889916Y-15384135D01*
X17910199Y-15178201D01*
X18339039Y-15178201D01*
X18359321Y-15384133D01*
X18359322Y-15384135D01*
X18419390Y-15582155D01*
X18516937Y-15764651D01*
X18516939Y-15764653D01*
X18648211Y-15924611D01*
X18735912Y-15996584D01*
X18808172Y-16055886D01*
X18990668Y-16153433D01*
X19188688Y-16213501D01*
X19188687Y-16213501D01*
X19207151Y-16215319D01*
X19394622Y-16233784D01*
X19600556Y-16213501D01*
X19798576Y-16153433D01*
X19981072Y-16055886D01*
X20141032Y-15924611D01*
X20272307Y-15764651D01*
X20369854Y-15582155D01*
X20429922Y-15384135D01*
X20450205Y-15178201D01*
X20879044Y-15178201D01*
X20899326Y-15384133D01*
X20899327Y-15384135D01*
X20959395Y-15582155D01*
X21056942Y-15764651D01*
X21056944Y-15764653D01*
X21188216Y-15924611D01*
X21275917Y-15996584D01*
X21348177Y-16055886D01*
X21530673Y-16153433D01*
X21728693Y-16213501D01*
X21728692Y-16213501D01*
X21747156Y-16215319D01*
X21934627Y-16233784D01*
X22140561Y-16213501D01*
X22338581Y-16153433D01*
X22521077Y-16055886D01*
X22681037Y-15924611D01*
X22812312Y-15764651D01*
X22909859Y-15582155D01*
X22969927Y-15384135D01*
X22990210Y-15178201D01*
X23419049Y-15178201D01*
X23439331Y-15384133D01*
X23439332Y-15384135D01*
X23499400Y-15582155D01*
X23596947Y-15764651D01*
X23596949Y-15764653D01*
X23728221Y-15924611D01*
X23815922Y-15996584D01*
X23888182Y-16055886D01*
X24070678Y-16153433D01*
X24268698Y-16213501D01*
X24268697Y-16213501D01*
X24287161Y-16215319D01*
X24474632Y-16233784D01*
X24680566Y-16213501D01*
X24878586Y-16153433D01*
X25061082Y-16055886D01*
X25221042Y-15924611D01*
X25352317Y-15764651D01*
X25449864Y-15582155D01*
X25509932Y-15384135D01*
X25530215Y-15178201D01*
X25959054Y-15178201D01*
X25979336Y-15384133D01*
X25979337Y-15384135D01*
X26039405Y-15582155D01*
X26136952Y-15764651D01*
X26136954Y-15764653D01*
X26268226Y-15924611D01*
X26355927Y-15996584D01*
X26428187Y-16055886D01*
X26610683Y-16153433D01*
X26808703Y-16213501D01*
X26808702Y-16213501D01*
X26827166Y-16215319D01*
X27014637Y-16233784D01*
X27220571Y-16213501D01*
X27418591Y-16153433D01*
X27518556Y-16100000D01*
X31245210Y-16100000D01*
X31264347Y-16379794D01*
X31264348Y-16379796D01*
X31321403Y-16654364D01*
X31321408Y-16654381D01*
X31415319Y-16918622D01*
X31415320Y-16918624D01*
X31544348Y-17167637D01*
X31544352Y-17167643D01*
X31682745Y-17363701D01*
X32401378Y-16645068D01*
X32484411Y-16769336D01*
X32630664Y-16915589D01*
X32754931Y-16998621D01*
X32037741Y-17715811D01*
X32115035Y-17778696D01*
X32115049Y-17778706D01*
X32354664Y-17924419D01*
X32354668Y-17924421D01*
X32611888Y-18036146D01*
X32881935Y-18111810D01*
X32881941Y-18111811D01*
X33159775Y-18150000D01*
X33440225Y-18150000D01*
X33718058Y-18111811D01*
X33718064Y-18111810D01*
X33988111Y-18036146D01*
X34245331Y-17924421D01*
X34245335Y-17924419D01*
X34484950Y-17778706D01*
X34484964Y-17778696D01*
X34562258Y-17715811D01*
X33845068Y-16998621D01*
X33969336Y-16915589D01*
X34115589Y-16769336D01*
X34198621Y-16645068D01*
X34917253Y-17363700D01*
X35055651Y-17167636D01*
X35184679Y-16918624D01*
X35184680Y-16918622D01*
X35278591Y-16654381D01*
X35278596Y-16654364D01*
X35335651Y-16379796D01*
X35335652Y-16379794D01*
X35354789Y-16100000D01*
X45245210Y-16100000D01*
X45264347Y-16379794D01*
X45264348Y-16379796D01*
X45321403Y-16654364D01*
X45321408Y-16654381D01*
X45415319Y-16918622D01*
X45415320Y-16918624D01*
X45544348Y-17167637D01*
X45544352Y-17167643D01*
X45682745Y-17363701D01*
X46401378Y-16645068D01*
X46484411Y-16769336D01*
X46630664Y-16915589D01*
X46754931Y-16998621D01*
X46037741Y-17715811D01*
X46115035Y-17778696D01*
X46115049Y-17778706D01*
X46354664Y-17924419D01*
X46354668Y-17924421D01*
X46611888Y-18036146D01*
X46881935Y-18111810D01*
X46881941Y-18111811D01*
X47159775Y-18150000D01*
X47440225Y-18150000D01*
X47718058Y-18111811D01*
X47718064Y-18111810D01*
X47988111Y-18036146D01*
X48245331Y-17924421D01*
X48245335Y-17924419D01*
X48484950Y-17778706D01*
X48484964Y-17778696D01*
X48562258Y-17715811D01*
X48246450Y-17400003D01*
X52894916Y-17400003D01*
X52915235Y-17748869D01*
X52915236Y-17748880D01*
X52975914Y-18093002D01*
X52975916Y-18093011D01*
X53076145Y-18427800D01*
X53214555Y-18748670D01*
X53214561Y-18748683D01*
X53389289Y-19051322D01*
X53597967Y-19331625D01*
X53606148Y-19340296D01*
X54587836Y-18358608D01*
X54660505Y-18458629D01*
X54841371Y-18639495D01*
X54941389Y-18712162D01*
X53962818Y-19690733D01*
X53962819Y-19690734D01*
X54105484Y-19810445D01*
X54397461Y-20002480D01*
X54709739Y-20159314D01*
X54709745Y-20159316D01*
X55038130Y-20278838D01*
X55038133Y-20278839D01*
X55378171Y-20359429D01*
X55725276Y-20399999D01*
X55725277Y-20400000D01*
X56074723Y-20400000D01*
X56074723Y-20399999D01*
X56421827Y-20359429D01*
X56421829Y-20359429D01*
X56761866Y-20278839D01*
X56761869Y-20278838D01*
X57090254Y-20159316D01*
X57090260Y-20159314D01*
X57402538Y-20002480D01*
X57694509Y-19810449D01*
X57694510Y-19810448D01*
X57837179Y-19690734D01*
X57837180Y-19690733D01*
X56858610Y-18712162D01*
X56958629Y-18639495D01*
X57139495Y-18458629D01*
X57212163Y-18358610D01*
X58193850Y-19340297D01*
X58193851Y-19340296D01*
X58202022Y-19331636D01*
X58202033Y-19331623D01*
X58410710Y-19051322D01*
X58585438Y-18748683D01*
X58585444Y-18748670D01*
X58723854Y-18427800D01*
X58824083Y-18093011D01*
X58824085Y-18093002D01*
X58884763Y-17748880D01*
X58884764Y-17748869D01*
X58905084Y-17400003D01*
X58905084Y-17399996D01*
X58884764Y-17051130D01*
X58884763Y-17051119D01*
X58824085Y-16706997D01*
X58824083Y-16706988D01*
X58723854Y-16372199D01*
X58585444Y-16051329D01*
X58585438Y-16051316D01*
X58410710Y-15748677D01*
X58202032Y-15468374D01*
X58193850Y-15459702D01*
X57212162Y-16441389D01*
X57139495Y-16341371D01*
X56958629Y-16160505D01*
X56858609Y-16087836D01*
X57837180Y-15109265D01*
X57837179Y-15109264D01*
X57694519Y-14989557D01*
X57402538Y-14797519D01*
X57090260Y-14640685D01*
X57090254Y-14640683D01*
X56761869Y-14521161D01*
X56761866Y-14521160D01*
X56421828Y-14440570D01*
X56074723Y-14400000D01*
X55725277Y-14400000D01*
X55378172Y-14440570D01*
X55378170Y-14440570D01*
X55038133Y-14521160D01*
X55038130Y-14521161D01*
X54709745Y-14640683D01*
X54709739Y-14640685D01*
X54397461Y-14797519D01*
X54105480Y-14989557D01*
X53962819Y-15109264D01*
X53962818Y-15109265D01*
X54941390Y-16087836D01*
X54841371Y-16160505D01*
X54660505Y-16341371D01*
X54587836Y-16441389D01*
X53606148Y-15459701D01*
X53606147Y-15459702D01*
X53597976Y-15468363D01*
X53597972Y-15468368D01*
X53389289Y-15748677D01*
X53214561Y-16051316D01*
X53214555Y-16051329D01*
X53076145Y-16372199D01*
X52975916Y-16706988D01*
X52975914Y-16706997D01*
X52915236Y-17051119D01*
X52915235Y-17051130D01*
X52894916Y-17399996D01*
X52894916Y-17400003D01*
X48246450Y-17400003D01*
X47845068Y-16998621D01*
X47969336Y-16915589D01*
X48115589Y-16769336D01*
X48198621Y-16645068D01*
X48917253Y-17363700D01*
X49055651Y-17167636D01*
X49184679Y-16918624D01*
X49184680Y-16918622D01*
X49278591Y-16654381D01*
X49278596Y-16654364D01*
X49335651Y-16379796D01*
X49335652Y-16379794D01*
X49354789Y-16100000D01*
X49335652Y-15820205D01*
X49335651Y-15820203D01*
X49278596Y-15545635D01*
X49278591Y-15545618D01*
X49184680Y-15281377D01*
X49184679Y-15281375D01*
X49055651Y-15032362D01*
X49055647Y-15032356D01*
X48917253Y-14836297D01*
X48198620Y-15554929D01*
X48115589Y-15430664D01*
X47969336Y-15284411D01*
X47845068Y-15201378D01*
X48562258Y-14484188D01*
X48484965Y-14421303D01*
X48484950Y-14421293D01*
X48245335Y-14275580D01*
X48245331Y-14275578D01*
X47988111Y-14163853D01*
X47718064Y-14088189D01*
X47718058Y-14088188D01*
X47440225Y-14050000D01*
X47159775Y-14050000D01*
X46881941Y-14088188D01*
X46881935Y-14088189D01*
X46611888Y-14163853D01*
X46354668Y-14275578D01*
X46354664Y-14275580D01*
X46115046Y-14421295D01*
X46037740Y-14484188D01*
X46754931Y-15201378D01*
X46630664Y-15284411D01*
X46484411Y-15430664D01*
X46401378Y-15554931D01*
X45682745Y-14836298D01*
X45544345Y-15032368D01*
X45415320Y-15281375D01*
X45415319Y-15281377D01*
X45321408Y-15545618D01*
X45321403Y-15545635D01*
X45264348Y-15820203D01*
X45264347Y-15820205D01*
X45245210Y-16100000D01*
X35354789Y-16100000D01*
X35335652Y-15820205D01*
X35335651Y-15820203D01*
X35278596Y-15545635D01*
X35278591Y-15545618D01*
X35184680Y-15281377D01*
X35184679Y-15281375D01*
X35055651Y-15032362D01*
X35055647Y-15032356D01*
X34917253Y-14836297D01*
X34198620Y-15554930D01*
X34115589Y-15430664D01*
X33969336Y-15284411D01*
X33845068Y-15201378D01*
X34562258Y-14484188D01*
X34484965Y-14421303D01*
X34484950Y-14421293D01*
X34245335Y-14275580D01*
X34245331Y-14275578D01*
X33988111Y-14163853D01*
X33718064Y-14088189D01*
X33718058Y-14088188D01*
X33440225Y-14050000D01*
X33159775Y-14050000D01*
X32881941Y-14088188D01*
X32881935Y-14088189D01*
X32611888Y-14163853D01*
X32354668Y-14275578D01*
X32354664Y-14275580D01*
X32115046Y-14421295D01*
X32037740Y-14484188D01*
X32754931Y-15201378D01*
X32630664Y-15284411D01*
X32484411Y-15430664D01*
X32401378Y-15554930D01*
X31682746Y-14836298D01*
X31544345Y-15032368D01*
X31415320Y-15281375D01*
X31415319Y-15281377D01*
X31321408Y-15545618D01*
X31321403Y-15545635D01*
X31264348Y-15820203D01*
X31264347Y-15820205D01*
X31245210Y-16100000D01*
X27518556Y-16100000D01*
X27601087Y-16055886D01*
X27761047Y-15924611D01*
X27892322Y-15764651D01*
X27989869Y-15582155D01*
X28049937Y-15384135D01*
X28070220Y-15178201D01*
X28049937Y-14972267D01*
X27989869Y-14774247D01*
X27892322Y-14591751D01*
X27804048Y-14484188D01*
X27761047Y-14431790D01*
X27623383Y-14318814D01*
X27601087Y-14300516D01*
X27418591Y-14202969D01*
X27220571Y-14142901D01*
X27220569Y-14142900D01*
X27220571Y-14142900D01*
X27014637Y-14122618D01*
X26808704Y-14142900D01*
X26610680Y-14202970D01*
X26500535Y-14261844D01*
X26428187Y-14300516D01*
X26428185Y-14300517D01*
X26428184Y-14300518D01*
X26268226Y-14431790D01*
X26136954Y-14591748D01*
X26136952Y-14591751D01*
X26110797Y-14640683D01*
X26039406Y-14774244D01*
X25979336Y-14972268D01*
X25959054Y-15178201D01*
X25530215Y-15178201D01*
X25509932Y-14972267D01*
X25449864Y-14774247D01*
X25352317Y-14591751D01*
X25264043Y-14484188D01*
X25221042Y-14431790D01*
X25083378Y-14318814D01*
X25061082Y-14300516D01*
X24878586Y-14202969D01*
X24680566Y-14142901D01*
X24680564Y-14142900D01*
X24680566Y-14142900D01*
X24474632Y-14122618D01*
X24268699Y-14142900D01*
X24070675Y-14202970D01*
X23960530Y-14261844D01*
X23888182Y-14300516D01*
X23888180Y-14300517D01*
X23888179Y-14300518D01*
X23728221Y-14431790D01*
X23596949Y-14591748D01*
X23596947Y-14591751D01*
X23570792Y-14640683D01*
X23499401Y-14774244D01*
X23439331Y-14972268D01*
X23419049Y-15178201D01*
X22990210Y-15178201D01*
X22969927Y-14972267D01*
X22909859Y-14774247D01*
X22812312Y-14591751D01*
X22724038Y-14484188D01*
X22681037Y-14431790D01*
X22543373Y-14318814D01*
X22521077Y-14300516D01*
X22338581Y-14202969D01*
X22140561Y-14142901D01*
X22140559Y-14142900D01*
X22140561Y-14142900D01*
X21934627Y-14122618D01*
X21728694Y-14142900D01*
X21530670Y-14202970D01*
X21420525Y-14261844D01*
X21348177Y-14300516D01*
X21348175Y-14300517D01*
X21348174Y-14300518D01*
X21188216Y-14431790D01*
X21056944Y-14591748D01*
X21056942Y-14591751D01*
X21030787Y-14640683D01*
X20959396Y-14774244D01*
X20899326Y-14972268D01*
X20879044Y-15178201D01*
X20450205Y-15178201D01*
X20429922Y-14972267D01*
X20369854Y-14774247D01*
X20272307Y-14591751D01*
X20184033Y-14484188D01*
X20141032Y-14431790D01*
X20003368Y-14318814D01*
X19981072Y-14300516D01*
X19798576Y-14202969D01*
X19600556Y-14142901D01*
X19600554Y-14142900D01*
X19600556Y-14142900D01*
X19394622Y-14122618D01*
X19188689Y-14142900D01*
X18990665Y-14202970D01*
X18880520Y-14261844D01*
X18808172Y-14300516D01*
X18808170Y-14300517D01*
X18808169Y-14300518D01*
X18648211Y-14431790D01*
X18516939Y-14591748D01*
X18516937Y-14591751D01*
X18490782Y-14640683D01*
X18419391Y-14774244D01*
X18359321Y-14972268D01*
X18339039Y-15178201D01*
X17910199Y-15178201D01*
X17889916Y-14972267D01*
X17829848Y-14774247D01*
X17732301Y-14591751D01*
X17644027Y-14484188D01*
X17601026Y-14431790D01*
X17463362Y-14318814D01*
X17441066Y-14300516D01*
X17258570Y-14202969D01*
X17060550Y-14142901D01*
X17060548Y-14142900D01*
X17060550Y-14142900D01*
X16854616Y-14122618D01*
X16648683Y-14142900D01*
X16450659Y-14202970D01*
X16340514Y-14261844D01*
X16268166Y-14300516D01*
X16268164Y-14300517D01*
X16268163Y-14300518D01*
X16108205Y-14431790D01*
X15976933Y-14591748D01*
X15976931Y-14591751D01*
X15950776Y-14640683D01*
X15879385Y-14774244D01*
X15819315Y-14972268D01*
X15799033Y-15178201D01*
X15370194Y-15178201D01*
X15349911Y-14972267D01*
X15289843Y-14774247D01*
X15192296Y-14591751D01*
X15104022Y-14484188D01*
X15061021Y-14431790D01*
X14923357Y-14318814D01*
X14901061Y-14300516D01*
X14718565Y-14202969D01*
X14520545Y-14142901D01*
X14520543Y-14142900D01*
X14520545Y-14142900D01*
X14314611Y-14122618D01*
X14108678Y-14142900D01*
X13910654Y-14202970D01*
X13800509Y-14261844D01*
X13728161Y-14300516D01*
X13728159Y-14300517D01*
X13728158Y-14300518D01*
X13568200Y-14431790D01*
X13436928Y-14591748D01*
X13436926Y-14591751D01*
X13410771Y-14640683D01*
X13339380Y-14774244D01*
X13279310Y-14972268D01*
X13259028Y-15178201D01*
X12830189Y-15178201D01*
X12809906Y-14972267D01*
X12749838Y-14774247D01*
X12652291Y-14591751D01*
X12564017Y-14484188D01*
X12521016Y-14431790D01*
X12383352Y-14318814D01*
X12361056Y-14300516D01*
X12178560Y-14202969D01*
X11980540Y-14142901D01*
X11980538Y-14142900D01*
X11980540Y-14142900D01*
X11774606Y-14122618D01*
X11568673Y-14142900D01*
X11370649Y-14202970D01*
X11260504Y-14261844D01*
X11188156Y-14300516D01*
X11188154Y-14300517D01*
X11188153Y-14300518D01*
X11028195Y-14431790D01*
X10896923Y-14591748D01*
X10896921Y-14591751D01*
X10870766Y-14640683D01*
X10799375Y-14774244D01*
X10739305Y-14972268D01*
X10719023Y-15178201D01*
X10290184Y-15178201D01*
X10269901Y-14972267D01*
X10209833Y-14774247D01*
X10112286Y-14591751D01*
X10024012Y-14484188D01*
X9981011Y-14431790D01*
X9843347Y-14318814D01*
X9821051Y-14300516D01*
X9638555Y-14202969D01*
X9440535Y-14142901D01*
X9440533Y-14142900D01*
X9440535Y-14142900D01*
X9234601Y-14122618D01*
X9028668Y-14142900D01*
X8830644Y-14202970D01*
X8720499Y-14261844D01*
X8648151Y-14300516D01*
X8648149Y-14300517D01*
X8648148Y-14300518D01*
X8488190Y-14431790D01*
X8356918Y-14591748D01*
X8356916Y-14591751D01*
X8330761Y-14640683D01*
X8259370Y-14774244D01*
X8199300Y-14972268D01*
X8179018Y-15178201D01*
X-6049500Y-15178201D01*
X-6049500Y-13390000D01*
X35794659Y-13390000D01*
X35813975Y-13586129D01*
X35813976Y-13586132D01*
X35863712Y-13750090D01*
X35871188Y-13774733D01*
X35964086Y-13948532D01*
X35964090Y-13948539D01*
X36089116Y-14100883D01*
X36241460Y-14225909D01*
X36241467Y-14225913D01*
X36415266Y-14318811D01*
X36415269Y-14318811D01*
X36415273Y-14318814D01*
X36603868Y-14376024D01*
X36800000Y-14395341D01*
X36996132Y-14376024D01*
X37184727Y-14318814D01*
X37218957Y-14300518D01*
X37358532Y-14225913D01*
X37358538Y-14225910D01*
X37510883Y-14100883D01*
X37635910Y-13948538D01*
X37728814Y-13774727D01*
X37786024Y-13586132D01*
X37805341Y-13390000D01*
X38294659Y-13390000D01*
X38313975Y-13586129D01*
X38313976Y-13586132D01*
X38363712Y-13750090D01*
X38371188Y-13774733D01*
X38464086Y-13948532D01*
X38464090Y-13948539D01*
X38589116Y-14100883D01*
X38741460Y-14225909D01*
X38741467Y-14225913D01*
X38915266Y-14318811D01*
X38915269Y-14318811D01*
X38915273Y-14318814D01*
X39103868Y-14376024D01*
X39300000Y-14395341D01*
X39496132Y-14376024D01*
X39684727Y-14318814D01*
X39718957Y-14300518D01*
X39858532Y-14225913D01*
X39858538Y-14225910D01*
X40010883Y-14100883D01*
X40135910Y-13948538D01*
X40148657Y-13924690D01*
X40190642Y-13846143D01*
X40239604Y-13796299D01*
X40307742Y-13780838D01*
X40373421Y-13804670D01*
X40409358Y-13846143D01*
X40464086Y-13948532D01*
X40464090Y-13948539D01*
X40589116Y-14100883D01*
X40741460Y-14225909D01*
X40741467Y-14225913D01*
X40915266Y-14318811D01*
X40915269Y-14318811D01*
X40915273Y-14318814D01*
X41103868Y-14376024D01*
X41300000Y-14395341D01*
X41496132Y-14376024D01*
X41684727Y-14318814D01*
X41718957Y-14300518D01*
X41858532Y-14225913D01*
X41858538Y-14225910D01*
X42010883Y-14100883D01*
X42135910Y-13948538D01*
X42228814Y-13774727D01*
X42286024Y-13586132D01*
X42301671Y-13427256D01*
X42316680Y-13390086D01*
X42316671Y-13390068D01*
X42533473Y-13390068D01*
X42546902Y-13416307D01*
X42548602Y-13428604D01*
X42564287Y-13607884D01*
X42564289Y-13607894D01*
X42620894Y-13819150D01*
X42620898Y-13819159D01*
X42713333Y-14017387D01*
X42756874Y-14079571D01*
X43357861Y-13478584D01*
X43380667Y-13563694D01*
X43439910Y-13666306D01*
X43523694Y-13750090D01*
X43626306Y-13809333D01*
X43711414Y-13832137D01*
X43110427Y-14433124D01*
X43172612Y-14476666D01*
X43370840Y-14569101D01*
X43370849Y-14569105D01*
X43582105Y-14625710D01*
X43582115Y-14625712D01*
X43799999Y-14644775D01*
X43800001Y-14644775D01*
X44017884Y-14625712D01*
X44017894Y-14625710D01*
X44229150Y-14569105D01*
X44229164Y-14569100D01*
X44427383Y-14476669D01*
X44427385Y-14476668D01*
X44489570Y-14433124D01*
X43888585Y-13832137D01*
X43973694Y-13809333D01*
X44076306Y-13750090D01*
X44160090Y-13666306D01*
X44219333Y-13563694D01*
X44242138Y-13478584D01*
X44843124Y-14079570D01*
X44886668Y-14017385D01*
X44886669Y-14017383D01*
X44979100Y-13819164D01*
X44979105Y-13819150D01*
X45035710Y-13607894D01*
X45035712Y-13607884D01*
X45054775Y-13390000D01*
X45054775Y-13389999D01*
X45035712Y-13172115D01*
X45035710Y-13172105D01*
X44979105Y-12960849D01*
X44979101Y-12960840D01*
X44886667Y-12762614D01*
X44886666Y-12762612D01*
X44843124Y-12700428D01*
X44843124Y-12700427D01*
X44242137Y-13301414D01*
X44219333Y-13216306D01*
X44160090Y-13113694D01*
X44076306Y-13029910D01*
X43973694Y-12970667D01*
X43888584Y-12947861D01*
X44489571Y-12346874D01*
X44427387Y-12303333D01*
X44229159Y-12210898D01*
X44229150Y-12210894D01*
X44017894Y-12154289D01*
X44017884Y-12154287D01*
X43800001Y-12135225D01*
X43799999Y-12135225D01*
X43582115Y-12154287D01*
X43582105Y-12154289D01*
X43370849Y-12210894D01*
X43370840Y-12210898D01*
X43172613Y-12303333D01*
X43110428Y-12346874D01*
X43711415Y-12947861D01*
X43626306Y-12970667D01*
X43523694Y-13029910D01*
X43439910Y-13113694D01*
X43380667Y-13216306D01*
X43357861Y-13301415D01*
X42756874Y-12700428D01*
X42713333Y-12762613D01*
X42620898Y-12960840D01*
X42620894Y-12960849D01*
X42564289Y-13172105D01*
X42564287Y-13172115D01*
X42548602Y-13351395D01*
X42533473Y-13390068D01*
X42316671Y-13390068D01*
X42303505Y-13365019D01*
X42301671Y-13352741D01*
X42301538Y-13351395D01*
X42286024Y-13193868D01*
X42228814Y-13005273D01*
X42228811Y-13005269D01*
X42228811Y-13005266D01*
X42135913Y-12831467D01*
X42135909Y-12831460D01*
X42010883Y-12679116D01*
X41858539Y-12554090D01*
X41858532Y-12554086D01*
X41684733Y-12461188D01*
X41684727Y-12461186D01*
X41496132Y-12403976D01*
X41496129Y-12403975D01*
X41300000Y-12384659D01*
X41103870Y-12403975D01*
X40915266Y-12461188D01*
X40741467Y-12554086D01*
X40741460Y-12554090D01*
X40589116Y-12679116D01*
X40464090Y-12831460D01*
X40464085Y-12831467D01*
X40409358Y-12933856D01*
X40360396Y-12983701D01*
X40292258Y-12999161D01*
X40226578Y-12975329D01*
X40190642Y-12933856D01*
X40135914Y-12831467D01*
X40135909Y-12831460D01*
X40010883Y-12679116D01*
X39858539Y-12554090D01*
X39858532Y-12554086D01*
X39684733Y-12461188D01*
X39684727Y-12461186D01*
X39496132Y-12403976D01*
X39496129Y-12403975D01*
X39300000Y-12384659D01*
X39103870Y-12403975D01*
X38915266Y-12461188D01*
X38741467Y-12554086D01*
X38741460Y-12554090D01*
X38589116Y-12679116D01*
X38464090Y-12831460D01*
X38464086Y-12831467D01*
X38371188Y-13005266D01*
X38313975Y-13193870D01*
X38294659Y-13390000D01*
X37805341Y-13390000D01*
X37786024Y-13193868D01*
X37728814Y-13005273D01*
X37728811Y-13005269D01*
X37728811Y-13005266D01*
X37635913Y-12831467D01*
X37635909Y-12831460D01*
X37510883Y-12679116D01*
X37358539Y-12554090D01*
X37358532Y-12554086D01*
X37184733Y-12461188D01*
X37184727Y-12461186D01*
X36996132Y-12403976D01*
X36996129Y-12403975D01*
X36800000Y-12384659D01*
X36603870Y-12403975D01*
X36415266Y-12461188D01*
X36241467Y-12554086D01*
X36241460Y-12554090D01*
X36089116Y-12679116D01*
X35964090Y-12831460D01*
X35964086Y-12831467D01*
X35871188Y-13005266D01*
X35813975Y-13193870D01*
X35794659Y-13390000D01*
X-6049500Y-13390000D01*
X-6049500Y-9950000D01*
X-1055250Y-9950000D01*
X-1040378Y-10062965D01*
X-1036330Y-10093708D01*
X-1036329Y-10093712D01*
X-980863Y-10227622D01*
X-980862Y-10227624D01*
X-980861Y-10227625D01*
X-892621Y-10342621D01*
X-777625Y-10430861D01*
X-777624Y-10430861D01*
X-777623Y-10430862D01*
X-732987Y-10449350D01*
X-643709Y-10486330D01*
X-516720Y-10503048D01*
X-500001Y-10505250D01*
X-500000Y-10505250D01*
X-499999Y-10505250D01*
X-485023Y-10503278D01*
X-356291Y-10486330D01*
X-268581Y-10450000D01*
X2644750Y-10450000D01*
X2663670Y-10593708D01*
X2663671Y-10593712D01*
X2719137Y-10727622D01*
X2719138Y-10727624D01*
X2719139Y-10727625D01*
X2807379Y-10842621D01*
X2922375Y-10930861D01*
X3056291Y-10986330D01*
X3183280Y-11003048D01*
X3199999Y-11005250D01*
X3200000Y-11005250D01*
X3200001Y-11005250D01*
X3214977Y-11003278D01*
X3343709Y-10986330D01*
X3477625Y-10930861D01*
X3592621Y-10842621D01*
X3680861Y-10727625D01*
X3736330Y-10593709D01*
X3755250Y-10450000D01*
X3736330Y-10306291D01*
X3699179Y-10216599D01*
X3680862Y-10172377D01*
X3680861Y-10172376D01*
X3680861Y-10172375D01*
X3592621Y-10057379D01*
X3477625Y-9969139D01*
X3477624Y-9969138D01*
X3477622Y-9969137D01*
X3343712Y-9913671D01*
X3343710Y-9913670D01*
X3343709Y-9913670D01*
X3239877Y-9900000D01*
X3200001Y-9894750D01*
X3199999Y-9894750D01*
X3056291Y-9913670D01*
X3056287Y-9913671D01*
X2922377Y-9969137D01*
X2807379Y-10057379D01*
X2719137Y-10172377D01*
X2663671Y-10306287D01*
X2663670Y-10306291D01*
X2644750Y-10449999D01*
X2644750Y-10450000D01*
X-268581Y-10450000D01*
X-222375Y-10430861D01*
X-107379Y-10342621D01*
X-19139Y-10227625D01*
X36330Y-10093709D01*
X55250Y-9950000D01*
X36330Y-9806291D01*
X-650Y-9717013D01*
X-7697Y-9700000D01*
X33244750Y-9700000D01*
X33252160Y-9756287D01*
X33263670Y-9843708D01*
X33263671Y-9843712D01*
X33319137Y-9977622D01*
X33319138Y-9977624D01*
X33319139Y-9977625D01*
X33407379Y-10092621D01*
X33522375Y-10180861D01*
X33656291Y-10236330D01*
X33783280Y-10253048D01*
X33799999Y-10255250D01*
X33800000Y-10255250D01*
X33800001Y-10255250D01*
X33814977Y-10253278D01*
X33943709Y-10236330D01*
X34077625Y-10180861D01*
X34192621Y-10092621D01*
X34280861Y-9977625D01*
X34313014Y-9900000D01*
X48244750Y-9900000D01*
X48258391Y-10003615D01*
X48263670Y-10043708D01*
X48263671Y-10043712D01*
X48319137Y-10177622D01*
X48319138Y-10177624D01*
X48319139Y-10177625D01*
X48407379Y-10292621D01*
X48522375Y-10380861D01*
X48656291Y-10436330D01*
X48783280Y-10453048D01*
X48799999Y-10455250D01*
X48800000Y-10455250D01*
X48800001Y-10455250D01*
X48814977Y-10453278D01*
X48943709Y-10436330D01*
X48982974Y-10420066D01*
X53437214Y-10420066D01*
X53457253Y-10623532D01*
X53516602Y-10819176D01*
X53612976Y-10999481D01*
X53612978Y-10999484D01*
X53742678Y-11157524D01*
X53900718Y-11287224D01*
X53900721Y-11287226D01*
X54081026Y-11383600D01*
X54081028Y-11383601D01*
X54276673Y-11442950D01*
X54480137Y-11462989D01*
X54683601Y-11442950D01*
X54879246Y-11383601D01*
X55059554Y-11287225D01*
X55217595Y-11157524D01*
X55347296Y-10999483D01*
X55443672Y-10819175D01*
X55503021Y-10623530D01*
X55523060Y-10420066D01*
X55503021Y-10216602D01*
X55443672Y-10020957D01*
X55405745Y-9950000D01*
X55347297Y-9840650D01*
X55347295Y-9840647D01*
X55217595Y-9682607D01*
X55059555Y-9552907D01*
X55059552Y-9552905D01*
X54879247Y-9456531D01*
X54683603Y-9397182D01*
X54480137Y-9377143D01*
X54276670Y-9397182D01*
X54081026Y-9456531D01*
X53900721Y-9552905D01*
X53900718Y-9552907D01*
X53742678Y-9682607D01*
X53612978Y-9840647D01*
X53612976Y-9840650D01*
X53516602Y-10020955D01*
X53457253Y-10216599D01*
X53437214Y-10420066D01*
X48982974Y-10420066D01*
X49077625Y-10380861D01*
X49192621Y-10292621D01*
X49280861Y-10177625D01*
X49336330Y-10043709D01*
X49355250Y-9900000D01*
X49336330Y-9756291D01*
X49280861Y-9622375D01*
X49192621Y-9507379D01*
X49077625Y-9419139D01*
X49077624Y-9419138D01*
X49077622Y-9419137D01*
X48943712Y-9363671D01*
X48943710Y-9363670D01*
X48943709Y-9363670D01*
X48871854Y-9354210D01*
X48800001Y-9344750D01*
X48799999Y-9344750D01*
X48767095Y-9349082D01*
X48698059Y-9338317D01*
X48663243Y-9307416D01*
X48652602Y-9342129D01*
X48599259Y-9387254D01*
X48596544Y-9388417D01*
X48522375Y-9419139D01*
X48407379Y-9507379D01*
X48319137Y-9622377D01*
X48263671Y-9756287D01*
X48263670Y-9756291D01*
X48244750Y-9900000D01*
X34313014Y-9900000D01*
X34336330Y-9843709D01*
X34355250Y-9700000D01*
X34336330Y-9556291D01*
X34286641Y-9436329D01*
X34280862Y-9422377D01*
X34280861Y-9422376D01*
X34280861Y-9422375D01*
X34192621Y-9307379D01*
X34077625Y-9219139D01*
X34077624Y-9219138D01*
X34077622Y-9219137D01*
X33943712Y-9163671D01*
X33943710Y-9163670D01*
X33943709Y-9163670D01*
X33846842Y-9150917D01*
X33800001Y-9144750D01*
X33799999Y-9144750D01*
X33656291Y-9163670D01*
X33656287Y-9163671D01*
X33522377Y-9219137D01*
X33407379Y-9307379D01*
X33319137Y-9422377D01*
X33263671Y-9556287D01*
X33263670Y-9556291D01*
X33244750Y-9700000D01*
X-7697Y-9700000D01*
X-19138Y-9672377D01*
X-19139Y-9672376D01*
X-19139Y-9672375D01*
X-107379Y-9557379D01*
X-222375Y-9469139D01*
X-222376Y-9469138D01*
X-222378Y-9469137D01*
X-356288Y-9413671D01*
X-356290Y-9413670D01*
X-356291Y-9413670D01*
X-481527Y-9397182D01*
X-499999Y-9394750D01*
X-500001Y-9394750D01*
X-643709Y-9413670D01*
X-643713Y-9413671D01*
X-777623Y-9469137D01*
X-892621Y-9557379D01*
X-980863Y-9672377D01*
X-1036329Y-9806287D01*
X-1036330Y-9806291D01*
X-1049620Y-9907240D01*
X-1055250Y-9950000D01*
X-6049500Y-9950000D01*
X-6049500Y-8900000D01*
X-5250Y-8900000D01*
X13670Y-9043708D01*
X13671Y-9043712D01*
X69137Y-9177622D01*
X69138Y-9177624D01*
X69139Y-9177625D01*
X157379Y-9292621D01*
X272375Y-9380861D01*
X272376Y-9380861D01*
X272377Y-9380862D01*
X311778Y-9397182D01*
X406291Y-9436330D01*
X533280Y-9453048D01*
X549999Y-9455250D01*
X550000Y-9455250D01*
X550001Y-9455250D01*
X564977Y-9453278D01*
X693709Y-9436330D01*
X827625Y-9380861D01*
X942621Y-9292621D01*
X1030861Y-9177625D01*
X1086330Y-9043709D01*
X1105250Y-8900000D01*
X1086330Y-8756291D01*
X1030861Y-8622375D01*
X942621Y-8507379D01*
X827625Y-8419139D01*
X827624Y-8419138D01*
X827622Y-8419137D01*
X693712Y-8363671D01*
X693710Y-8363670D01*
X693709Y-8363670D01*
X621854Y-8354210D01*
X550001Y-8344750D01*
X549999Y-8344750D01*
X406291Y-8363670D01*
X406287Y-8363671D01*
X272377Y-8419137D01*
X157379Y-8507379D01*
X69137Y-8622377D01*
X13671Y-8756287D01*
X13670Y-8756291D01*
X-5250Y-8899999D01*
X-5250Y-8900000D01*
X-6049500Y-8900000D01*
X-6049500Y-8250000D01*
X7094750Y-8250000D01*
X7113670Y-8393708D01*
X7113671Y-8393712D01*
X7169137Y-8527622D01*
X7169138Y-8527624D01*
X7169139Y-8527625D01*
X7257379Y-8642621D01*
X7372375Y-8730861D01*
X7372376Y-8730861D01*
X7372377Y-8730862D01*
X7417013Y-8749350D01*
X7506291Y-8786330D01*
X7633280Y-8803048D01*
X7649999Y-8805250D01*
X7650000Y-8805250D01*
X7650001Y-8805250D01*
X7664977Y-8803278D01*
X7793709Y-8786330D01*
X7927625Y-8730861D01*
X8042621Y-8642621D01*
X8130861Y-8527625D01*
X8186330Y-8393709D01*
X8205250Y-8250000D01*
X8203869Y-8239514D01*
X8199639Y-8207379D01*
X8186330Y-8106291D01*
X8143457Y-8002785D01*
X8142303Y-8000000D01*
X13744750Y-8000000D01*
X13757304Y-8095359D01*
X13763670Y-8143708D01*
X13763671Y-8143712D01*
X13819137Y-8277622D01*
X13819138Y-8277624D01*
X13819139Y-8277625D01*
X13907379Y-8392621D01*
X14022375Y-8480861D01*
X14156291Y-8536330D01*
X14283280Y-8553048D01*
X14299999Y-8555250D01*
X14300000Y-8555250D01*
X14300001Y-8555250D01*
X14314977Y-8553278D01*
X14443709Y-8536330D01*
X14577625Y-8480861D01*
X14692621Y-8392621D01*
X14780861Y-8277625D01*
X14836330Y-8143709D01*
X14855250Y-8000000D01*
X14836330Y-7856291D01*
X14780861Y-7722375D01*
X14692621Y-7607379D01*
X14577625Y-7519139D01*
X14577624Y-7519138D01*
X14577622Y-7519137D01*
X14443712Y-7463671D01*
X14443710Y-7463670D01*
X14443709Y-7463670D01*
X14371854Y-7454210D01*
X14300001Y-7444750D01*
X14299999Y-7444750D01*
X14156291Y-7463670D01*
X14156287Y-7463671D01*
X14022377Y-7519137D01*
X13907379Y-7607379D01*
X13819137Y-7722377D01*
X13763671Y-7856287D01*
X13763670Y-7856291D01*
X13744750Y-8000000D01*
X8142303Y-8000000D01*
X8130862Y-7972377D01*
X8130861Y-7972376D01*
X8130861Y-7972375D01*
X8042621Y-7857379D01*
X7927625Y-7769139D01*
X7927624Y-7769138D01*
X7927622Y-7769137D01*
X7793712Y-7713671D01*
X7793710Y-7713670D01*
X7793709Y-7713670D01*
X7689877Y-7700000D01*
X7650001Y-7694750D01*
X7649999Y-7694750D01*
X7506291Y-7713670D01*
X7506287Y-7713671D01*
X7372377Y-7769137D01*
X7257379Y-7857379D01*
X7169137Y-7972377D01*
X7113671Y-8106287D01*
X7113670Y-8106291D01*
X7094750Y-8249999D01*
X7094750Y-8250000D01*
X-6049500Y-8250000D01*
X-6049500Y-6100000D01*
X-4555250Y-6100000D01*
X-4545599Y-6173309D01*
X-4536330Y-6243708D01*
X-4536329Y-6243712D01*
X-4480863Y-6377622D01*
X-4480862Y-6377624D01*
X-4480861Y-6377625D01*
X-4392621Y-6492621D01*
X-4277625Y-6580861D01*
X-4143709Y-6636330D01*
X-4016720Y-6653048D01*
X-4000001Y-6655250D01*
X-4000000Y-6655250D01*
X-3999999Y-6655250D01*
X-3985023Y-6653278D01*
X-3856291Y-6636330D01*
X-3722375Y-6580861D01*
X-3607379Y-6492621D01*
X-3519139Y-6377625D01*
X-3463670Y-6243709D01*
X-3444750Y-6100000D01*
X-3463670Y-5956291D01*
X-3505522Y-5855250D01*
X-3519138Y-5822377D01*
X-3519139Y-5822376D01*
X-3519139Y-5822375D01*
X-3536308Y-5800000D01*
X9244750Y-5800000D01*
X9255414Y-5881003D01*
X9263670Y-5943708D01*
X9263671Y-5943712D01*
X9319137Y-6077622D01*
X9319138Y-6077624D01*
X9319139Y-6077625D01*
X9407379Y-6192621D01*
X9522375Y-6280861D01*
X9656291Y-6336330D01*
X9783280Y-6353048D01*
X9799999Y-6355250D01*
X9800000Y-6355250D01*
X9800001Y-6355250D01*
X9814977Y-6353278D01*
X9943709Y-6336330D01*
X10077625Y-6280861D01*
X10192621Y-6192621D01*
X10207440Y-6173307D01*
X10263866Y-6132105D01*
X10333611Y-6127948D01*
X10394533Y-6162159D01*
X10404191Y-6173306D01*
X10457378Y-6242620D01*
X10457379Y-6242621D01*
X10469113Y-6251625D01*
X10510316Y-6308053D01*
X10514470Y-6377799D01*
X10480257Y-6438719D01*
X10469113Y-6448375D01*
X10457381Y-6457377D01*
X10457380Y-6457378D01*
X10457379Y-6457379D01*
X10417567Y-6509263D01*
X10369137Y-6572377D01*
X10313671Y-6706287D01*
X10313670Y-6706291D01*
X10294750Y-6850000D01*
X10311552Y-6977625D01*
X10313670Y-6993708D01*
X10313671Y-6993712D01*
X10369137Y-7127622D01*
X10369138Y-7127624D01*
X10369139Y-7127625D01*
X10457379Y-7242621D01*
X10572375Y-7330861D01*
X10706291Y-7386330D01*
X10833280Y-7403048D01*
X10849999Y-7405250D01*
X10850000Y-7405250D01*
X10850001Y-7405250D01*
X10864977Y-7403278D01*
X10993709Y-7386330D01*
X11127625Y-7330861D01*
X11242621Y-7242621D01*
X11330861Y-7127625D01*
X11386330Y-6993709D01*
X11405250Y-6850000D01*
X11386330Y-6706291D01*
X11345360Y-6607379D01*
X11330862Y-6572377D01*
X11330861Y-6572376D01*
X11330861Y-6572375D01*
X11242621Y-6457379D01*
X11230886Y-6448374D01*
X11189685Y-6391950D01*
X11185529Y-6322204D01*
X11219740Y-6261283D01*
X11230876Y-6251632D01*
X11242621Y-6242621D01*
X11330861Y-6127625D01*
X11386330Y-5993709D01*
X11389065Y-5972935D01*
X20444827Y-5972935D01*
X20463747Y-6116643D01*
X20463748Y-6116647D01*
X20519214Y-6250557D01*
X20519215Y-6250559D01*
X20519216Y-6250560D01*
X20607456Y-6365556D01*
X20722452Y-6453796D01*
X20722453Y-6453796D01*
X20722454Y-6453797D01*
X20741213Y-6461567D01*
X20856368Y-6509265D01*
X20856374Y-6509265D01*
X20864218Y-6511368D01*
X20863338Y-6514651D01*
X20912846Y-6536544D01*
X20951326Y-6594863D01*
X20952168Y-6664727D01*
X20931155Y-6706715D01*
X20919139Y-6722374D01*
X20919138Y-6722376D01*
X20863671Y-6856287D01*
X20863670Y-6856291D01*
X20845722Y-6992620D01*
X20844750Y-7000000D01*
X20862698Y-7136329D01*
X20863670Y-7143708D01*
X20863671Y-7143712D01*
X20919137Y-7277622D01*
X20919138Y-7277624D01*
X20919139Y-7277625D01*
X21007379Y-7392621D01*
X21122375Y-7480861D01*
X21256291Y-7536330D01*
X21383280Y-7553048D01*
X21399999Y-7555250D01*
X21400000Y-7555250D01*
X21400001Y-7555250D01*
X21414977Y-7553278D01*
X21543709Y-7536330D01*
X21677625Y-7480861D01*
X21792621Y-7392621D01*
X21880861Y-7277625D01*
X21936330Y-7143709D01*
X21955250Y-7000000D01*
X21936330Y-6856291D01*
X21889697Y-6743708D01*
X21880862Y-6722377D01*
X21880861Y-6722376D01*
X21880861Y-6722375D01*
X21863692Y-6700000D01*
X23744750Y-6700000D01*
X23756985Y-6792936D01*
X23763670Y-6843708D01*
X23763671Y-6843712D01*
X23819137Y-6977622D01*
X23819138Y-6977624D01*
X23819139Y-6977625D01*
X23907379Y-7092621D01*
X24022375Y-7180861D01*
X24156291Y-7236330D01*
X24300000Y-7255250D01*
X24313553Y-7253465D01*
X24382585Y-7264229D01*
X24434842Y-7310607D01*
X24452677Y-7360217D01*
X24462698Y-7436329D01*
X24463670Y-7443708D01*
X24463671Y-7443712D01*
X24519137Y-7577622D01*
X24519138Y-7577624D01*
X24519139Y-7577625D01*
X24607379Y-7692621D01*
X24722375Y-7780861D01*
X24856291Y-7836330D01*
X24983280Y-7853048D01*
X24999999Y-7855250D01*
X25000000Y-7855250D01*
X25000001Y-7855250D01*
X25014977Y-7853278D01*
X25143709Y-7836330D01*
X25277625Y-7780861D01*
X25383005Y-7700000D01*
X26444750Y-7700000D01*
X26462698Y-7836329D01*
X26463670Y-7843708D01*
X26463671Y-7843712D01*
X26519137Y-7977622D01*
X26519138Y-7977624D01*
X26519139Y-7977625D01*
X26607379Y-8092621D01*
X26722375Y-8180861D01*
X26856291Y-8236330D01*
X26983280Y-8253048D01*
X26999999Y-8255250D01*
X27000000Y-8255250D01*
X27000001Y-8255250D01*
X27014977Y-8253278D01*
X27143709Y-8236330D01*
X27277625Y-8180861D01*
X27374515Y-8106514D01*
X27439682Y-8081321D01*
X27508127Y-8095359D01*
X27525480Y-8106510D01*
X27622375Y-8180861D01*
X27756291Y-8236330D01*
X27883280Y-8253048D01*
X27899999Y-8255250D01*
X27900000Y-8255250D01*
X27900001Y-8255250D01*
X27914977Y-8253278D01*
X28043709Y-8236330D01*
X28177625Y-8180861D01*
X28292621Y-8092621D01*
X28363692Y-8000000D01*
X46944750Y-8000000D01*
X46957304Y-8095359D01*
X46963670Y-8143708D01*
X46963671Y-8143712D01*
X47019137Y-8277622D01*
X47019138Y-8277624D01*
X47019139Y-8277625D01*
X47107379Y-8392621D01*
X47222375Y-8480861D01*
X47356291Y-8536330D01*
X47483280Y-8553048D01*
X47499999Y-8555250D01*
X47500000Y-8555250D01*
X47500001Y-8555250D01*
X47514977Y-8553278D01*
X47643709Y-8536330D01*
X47773298Y-8482652D01*
X47842767Y-8475184D01*
X47905246Y-8506459D01*
X47940898Y-8566548D01*
X47944750Y-8597214D01*
X47944750Y-8600000D01*
X47961978Y-8730861D01*
X47963670Y-8743708D01*
X47963671Y-8743712D01*
X48019137Y-8877622D01*
X48019138Y-8877624D01*
X48019139Y-8877625D01*
X48107379Y-8992621D01*
X48222375Y-9080861D01*
X48356291Y-9136330D01*
X48500000Y-9155250D01*
X48532905Y-9150917D01*
X48601937Y-9161681D01*
X48636755Y-9192582D01*
X48647399Y-9157867D01*
X48700743Y-9112744D01*
X48703457Y-9111582D01*
X48719041Y-9105126D01*
X48777625Y-9080861D01*
X48830770Y-9040081D01*
X56277194Y-9040081D01*
X56297233Y-9243547D01*
X56356582Y-9439191D01*
X56452956Y-9619496D01*
X56452958Y-9619499D01*
X56582658Y-9777539D01*
X56740698Y-9907239D01*
X56740701Y-9907241D01*
X56872376Y-9977622D01*
X56921008Y-10003616D01*
X57116653Y-10062965D01*
X57320117Y-10083004D01*
X57523581Y-10062965D01*
X57719226Y-10003616D01*
X57899534Y-9907240D01*
X58057575Y-9777539D01*
X58187276Y-9619498D01*
X58283652Y-9439190D01*
X58343001Y-9243545D01*
X58363040Y-9040081D01*
X58343001Y-8836617D01*
X58283652Y-8640972D01*
X58260263Y-8597214D01*
X58187277Y-8460665D01*
X58187275Y-8460662D01*
X58057575Y-8302622D01*
X57899535Y-8172922D01*
X57899532Y-8172920D01*
X57719227Y-8076546D01*
X57523583Y-8017197D01*
X57320117Y-7997158D01*
X57116650Y-8017197D01*
X56921006Y-8076546D01*
X56740701Y-8172920D01*
X56740698Y-8172922D01*
X56582658Y-8302622D01*
X56452958Y-8460662D01*
X56452956Y-8460665D01*
X56356582Y-8640970D01*
X56297233Y-8836614D01*
X56277194Y-9040081D01*
X48830770Y-9040081D01*
X48892621Y-8992621D01*
X48980861Y-8877625D01*
X49036330Y-8743709D01*
X49050736Y-8634284D01*
X49079003Y-8570388D01*
X49137327Y-8531917D01*
X49207192Y-8531086D01*
X49266415Y-8568158D01*
X49288236Y-8603018D01*
X49319137Y-8677622D01*
X49319138Y-8677624D01*
X49319139Y-8677625D01*
X49407379Y-8792621D01*
X49522375Y-8880861D01*
X49656291Y-8936330D01*
X49783280Y-8953048D01*
X49799999Y-8955250D01*
X49800000Y-8955250D01*
X49800001Y-8955250D01*
X49814977Y-8953278D01*
X49943709Y-8936330D01*
X50077625Y-8880861D01*
X50192621Y-8792621D01*
X50280861Y-8677625D01*
X50336330Y-8543709D01*
X50355250Y-8400000D01*
X50354852Y-8396980D01*
X50345030Y-8322375D01*
X50336330Y-8256291D01*
X50280861Y-8122375D01*
X50192621Y-8007379D01*
X50077625Y-7919139D01*
X50077624Y-7919138D01*
X50077622Y-7919137D01*
X49943712Y-7863671D01*
X49943710Y-7863670D01*
X49943709Y-7863670D01*
X49871854Y-7854210D01*
X49800001Y-7844750D01*
X49799999Y-7844750D01*
X49656291Y-7863670D01*
X49656287Y-7863671D01*
X49522377Y-7919137D01*
X49407379Y-8007379D01*
X49319137Y-8122377D01*
X49263671Y-8256287D01*
X49263670Y-8256291D01*
X49249263Y-8365716D01*
X49220996Y-8429612D01*
X49162671Y-8468082D01*
X49092806Y-8468913D01*
X49033583Y-8431840D01*
X49011764Y-8396984D01*
X48980861Y-8322375D01*
X48892621Y-8207379D01*
X48777625Y-8119139D01*
X48777624Y-8119138D01*
X48777622Y-8119137D01*
X48643712Y-8063671D01*
X48643710Y-8063670D01*
X48643709Y-8063670D01*
X48571854Y-8054210D01*
X48500001Y-8044750D01*
X48499999Y-8044750D01*
X48356291Y-8063670D01*
X48356287Y-8063671D01*
X48226702Y-8117346D01*
X48157232Y-8124815D01*
X48094753Y-8093539D01*
X48059102Y-8033450D01*
X48055250Y-8002785D01*
X48055250Y-7999999D01*
X48044604Y-7919139D01*
X48036330Y-7856291D01*
X47980861Y-7722375D01*
X47933073Y-7660097D01*
X53437214Y-7660097D01*
X53457253Y-7863563D01*
X53516602Y-8059207D01*
X53612976Y-8239512D01*
X53612978Y-8239515D01*
X53742678Y-8397555D01*
X53900718Y-8527255D01*
X53900721Y-8527257D01*
X54078676Y-8622375D01*
X54081028Y-8623632D01*
X54276673Y-8682981D01*
X54480137Y-8703020D01*
X54683601Y-8682981D01*
X54879246Y-8623632D01*
X55059554Y-8527256D01*
X55217595Y-8397555D01*
X55347296Y-8239514D01*
X55443672Y-8059206D01*
X55503021Y-7863561D01*
X55523060Y-7660097D01*
X55503021Y-7456633D01*
X55443672Y-7260988D01*
X55440605Y-7255250D01*
X55347297Y-7080681D01*
X55347295Y-7080678D01*
X55217595Y-6922638D01*
X55059555Y-6792938D01*
X55059552Y-6792936D01*
X54879247Y-6696562D01*
X54683603Y-6637213D01*
X54480137Y-6617174D01*
X54276670Y-6637213D01*
X54081026Y-6696562D01*
X53900721Y-6792936D01*
X53900718Y-6792938D01*
X53742678Y-6922638D01*
X53612978Y-7080678D01*
X53612976Y-7080681D01*
X53516602Y-7260986D01*
X53457253Y-7456630D01*
X53437214Y-7660097D01*
X47933073Y-7660097D01*
X47892621Y-7607379D01*
X47777625Y-7519139D01*
X47777624Y-7519138D01*
X47777622Y-7519137D01*
X47643712Y-7463671D01*
X47643710Y-7463670D01*
X47643709Y-7463670D01*
X47571854Y-7454210D01*
X47500001Y-7444750D01*
X47499999Y-7444750D01*
X47356291Y-7463670D01*
X47356287Y-7463671D01*
X47222377Y-7519137D01*
X47107379Y-7607379D01*
X47019137Y-7722377D01*
X46963671Y-7856287D01*
X46963670Y-7856291D01*
X46944750Y-8000000D01*
X28363692Y-8000000D01*
X28380861Y-7977625D01*
X28436330Y-7843709D01*
X28455250Y-7700000D01*
X28436330Y-7556291D01*
X28386641Y-7436329D01*
X28380862Y-7422377D01*
X28380861Y-7422376D01*
X28380861Y-7422375D01*
X28292621Y-7307379D01*
X28177625Y-7219139D01*
X28177624Y-7219138D01*
X28177622Y-7219137D01*
X28043712Y-7163671D01*
X28043710Y-7163670D01*
X28043709Y-7163670D01*
X27971854Y-7154210D01*
X27900001Y-7144750D01*
X27899999Y-7144750D01*
X27756291Y-7163670D01*
X27756287Y-7163671D01*
X27622377Y-7219137D01*
X27599971Y-7236330D01*
X27525484Y-7293485D01*
X27460318Y-7318679D01*
X27391873Y-7304641D01*
X27374519Y-7293489D01*
X27277625Y-7219139D01*
X27277624Y-7219138D01*
X27277622Y-7219137D01*
X27143712Y-7163671D01*
X27143710Y-7163670D01*
X27143709Y-7163670D01*
X27071854Y-7154210D01*
X27000001Y-7144750D01*
X26999999Y-7144750D01*
X26856291Y-7163670D01*
X26856287Y-7163671D01*
X26722377Y-7219137D01*
X26607379Y-7307379D01*
X26519137Y-7422377D01*
X26463671Y-7556287D01*
X26463670Y-7556291D01*
X26445722Y-7692620D01*
X26444750Y-7700000D01*
X25383005Y-7700000D01*
X25392621Y-7692621D01*
X25480861Y-7577625D01*
X25536330Y-7443709D01*
X25555250Y-7300000D01*
X25536330Y-7156291D01*
X25480861Y-7022375D01*
X25392621Y-6907379D01*
X25383005Y-6900000D01*
X33944750Y-6900000D01*
X33957915Y-7000000D01*
X33963670Y-7043708D01*
X33963671Y-7043712D01*
X34019137Y-7177622D01*
X34019138Y-7177624D01*
X34019139Y-7177625D01*
X34107379Y-7292621D01*
X34222375Y-7380861D01*
X34222376Y-7380861D01*
X34222377Y-7380862D01*
X34267013Y-7399350D01*
X34356291Y-7436330D01*
X34483280Y-7453048D01*
X34499999Y-7455250D01*
X34500000Y-7455250D01*
X34500001Y-7455250D01*
X34514977Y-7453278D01*
X34643709Y-7436330D01*
X34777625Y-7380861D01*
X34892621Y-7292621D01*
X34980861Y-7177625D01*
X35036330Y-7043709D01*
X35055250Y-6900000D01*
X35036330Y-6756291D01*
X34986641Y-6636329D01*
X34980862Y-6622377D01*
X34980861Y-6622376D01*
X34980861Y-6622375D01*
X34963692Y-6600000D01*
X38644750Y-6600000D01*
X38660861Y-6722376D01*
X38663670Y-6743708D01*
X38663671Y-6743712D01*
X38719137Y-6877622D01*
X38719138Y-6877624D01*
X38719139Y-6877625D01*
X38807379Y-6992621D01*
X38922375Y-7080861D01*
X38922376Y-7080861D01*
X38922377Y-7080862D01*
X38967013Y-7099350D01*
X39056291Y-7136330D01*
X39183280Y-7153048D01*
X39199999Y-7155250D01*
X39200000Y-7155250D01*
X39200001Y-7155250D01*
X39214977Y-7153278D01*
X39343709Y-7136330D01*
X39477625Y-7080861D01*
X39592621Y-6992621D01*
X39680861Y-6877625D01*
X39736330Y-6743709D01*
X39755250Y-6600000D01*
X39736330Y-6456291D01*
X39694478Y-6355250D01*
X39680862Y-6322377D01*
X39680861Y-6322376D01*
X39680861Y-6322375D01*
X39592621Y-6207379D01*
X39477625Y-6119139D01*
X39477624Y-6119138D01*
X39477622Y-6119137D01*
X39431420Y-6100000D01*
X45044750Y-6100000D01*
X45054401Y-6173309D01*
X45063670Y-6243708D01*
X45063671Y-6243712D01*
X45119137Y-6377622D01*
X45119138Y-6377624D01*
X45119139Y-6377625D01*
X45207379Y-6492621D01*
X45322375Y-6580861D01*
X45456291Y-6636330D01*
X45583280Y-6653048D01*
X45599999Y-6655250D01*
X45600000Y-6655250D01*
X45600001Y-6655250D01*
X45614977Y-6653278D01*
X45743709Y-6636330D01*
X45877625Y-6580861D01*
X45992621Y-6492621D01*
X46080861Y-6377625D01*
X46121252Y-6280112D01*
X56277194Y-6280112D01*
X56297233Y-6483578D01*
X56356582Y-6679222D01*
X56452956Y-6859527D01*
X56452958Y-6859530D01*
X56582658Y-7017570D01*
X56740698Y-7147270D01*
X56740701Y-7147272D01*
X56919088Y-7242621D01*
X56921008Y-7243647D01*
X57116653Y-7302996D01*
X57320117Y-7323035D01*
X57523581Y-7302996D01*
X57719226Y-7243647D01*
X57899534Y-7147271D01*
X58057575Y-7017570D01*
X58187276Y-6859529D01*
X58283652Y-6679221D01*
X58343001Y-6483576D01*
X58363040Y-6280112D01*
X58343001Y-6076648D01*
X58283652Y-5881003D01*
X58259774Y-5836330D01*
X58187277Y-5700696D01*
X58187275Y-5700693D01*
X58057575Y-5542653D01*
X57899535Y-5412953D01*
X57899532Y-5412951D01*
X57719227Y-5316577D01*
X57523583Y-5257228D01*
X57320117Y-5237189D01*
X57116650Y-5257228D01*
X56921006Y-5316577D01*
X56740701Y-5412951D01*
X56740698Y-5412953D01*
X56582658Y-5542653D01*
X56452958Y-5700693D01*
X56452956Y-5700696D01*
X56356582Y-5881001D01*
X56297233Y-6076645D01*
X56277194Y-6280112D01*
X46121252Y-6280112D01*
X46136330Y-6243709D01*
X46155250Y-6100000D01*
X46136330Y-5956291D01*
X46094478Y-5855250D01*
X46080862Y-5822377D01*
X46080861Y-5822376D01*
X46080861Y-5822375D01*
X45992621Y-5707379D01*
X45877625Y-5619139D01*
X45877624Y-5619138D01*
X45877622Y-5619137D01*
X45743712Y-5563671D01*
X45743710Y-5563670D01*
X45743709Y-5563670D01*
X45671854Y-5554210D01*
X45600001Y-5544750D01*
X45599999Y-5544750D01*
X45456291Y-5563670D01*
X45456287Y-5563671D01*
X45322377Y-5619137D01*
X45207379Y-5707379D01*
X45119137Y-5822377D01*
X45063671Y-5956287D01*
X45063670Y-5956291D01*
X45044750Y-6100000D01*
X39431420Y-6100000D01*
X39343712Y-6063671D01*
X39343710Y-6063670D01*
X39343709Y-6063670D01*
X39271854Y-6054210D01*
X39200001Y-6044750D01*
X39199999Y-6044750D01*
X39056291Y-6063670D01*
X39056287Y-6063671D01*
X38922377Y-6119137D01*
X38807379Y-6207379D01*
X38719137Y-6322377D01*
X38663671Y-6456287D01*
X38663670Y-6456291D01*
X38647270Y-6580862D01*
X38644750Y-6600000D01*
X34963692Y-6600000D01*
X34892621Y-6507379D01*
X34777625Y-6419139D01*
X34777624Y-6419138D01*
X34777622Y-6419137D01*
X34643712Y-6363671D01*
X34643710Y-6363670D01*
X34643709Y-6363670D01*
X34539877Y-6350000D01*
X34500001Y-6344750D01*
X34499999Y-6344750D01*
X34356291Y-6363670D01*
X34356287Y-6363671D01*
X34222377Y-6419137D01*
X34107379Y-6507379D01*
X34019137Y-6622377D01*
X33963671Y-6756287D01*
X33963670Y-6756291D01*
X33950505Y-6856291D01*
X33944750Y-6900000D01*
X25383005Y-6900000D01*
X25277625Y-6819139D01*
X25277624Y-6819138D01*
X25277622Y-6819137D01*
X25143712Y-6763671D01*
X25143710Y-6763670D01*
X25143709Y-6763670D01*
X25013551Y-6746534D01*
X25000001Y-6744750D01*
X24999996Y-6744750D01*
X24986444Y-6746534D01*
X24917409Y-6735768D01*
X24865153Y-6689387D01*
X24847322Y-6639783D01*
X24836330Y-6556291D01*
X24780861Y-6422375D01*
X24692621Y-6307379D01*
X24577625Y-6219139D01*
X24577624Y-6219138D01*
X24577622Y-6219137D01*
X24443712Y-6163671D01*
X24443710Y-6163670D01*
X24443709Y-6163670D01*
X24371854Y-6154210D01*
X24300001Y-6144750D01*
X24299999Y-6144750D01*
X24156291Y-6163670D01*
X24156287Y-6163671D01*
X24022377Y-6219137D01*
X23907379Y-6307379D01*
X23819137Y-6422377D01*
X23763671Y-6556287D01*
X23763670Y-6556291D01*
X23747486Y-6679222D01*
X23744750Y-6700000D01*
X21863692Y-6700000D01*
X21792621Y-6607379D01*
X21677625Y-6519139D01*
X21677624Y-6519138D01*
X21677622Y-6519137D01*
X21543712Y-6463671D01*
X21543710Y-6463670D01*
X21543709Y-6463670D01*
X21543707Y-6463669D01*
X21535859Y-6461567D01*
X21536732Y-6458307D01*
X21487106Y-6436285D01*
X21448702Y-6377917D01*
X21447951Y-6308051D01*
X21468919Y-6266222D01*
X21480938Y-6250560D01*
X21536407Y-6116644D01*
X21551764Y-6000000D01*
X32544750Y-6000000D01*
X32561552Y-6127625D01*
X32563670Y-6143708D01*
X32563671Y-6143712D01*
X32619137Y-6277622D01*
X32619138Y-6277624D01*
X32619139Y-6277625D01*
X32707379Y-6392621D01*
X32822375Y-6480861D01*
X32822376Y-6480861D01*
X32822377Y-6480862D01*
X32867013Y-6499350D01*
X32956291Y-6536330D01*
X33083280Y-6553048D01*
X33099999Y-6555250D01*
X33100000Y-6555250D01*
X33100001Y-6555250D01*
X33114977Y-6553278D01*
X33243709Y-6536330D01*
X33377625Y-6480861D01*
X33492621Y-6392621D01*
X33580861Y-6277625D01*
X33636330Y-6143709D01*
X33655250Y-6000000D01*
X33636330Y-5856291D01*
X33580861Y-5722375D01*
X33492621Y-5607379D01*
X33377625Y-5519139D01*
X33377624Y-5519138D01*
X33377622Y-5519137D01*
X33243712Y-5463671D01*
X33243710Y-5463670D01*
X33243709Y-5463670D01*
X33171854Y-5454210D01*
X33100001Y-5444750D01*
X33099999Y-5444750D01*
X32956291Y-5463670D01*
X32956287Y-5463671D01*
X32822377Y-5519137D01*
X32707379Y-5607379D01*
X32619137Y-5722377D01*
X32563671Y-5856287D01*
X32563670Y-5856291D01*
X32550505Y-5956291D01*
X32544750Y-6000000D01*
X21551764Y-6000000D01*
X21555327Y-5972935D01*
X21536407Y-5829226D01*
X21485937Y-5707379D01*
X21480939Y-5695312D01*
X21480938Y-5695311D01*
X21480938Y-5695310D01*
X21392698Y-5580314D01*
X21277702Y-5492074D01*
X21277701Y-5492073D01*
X21277699Y-5492072D01*
X21143789Y-5436606D01*
X21143787Y-5436605D01*
X21143786Y-5436605D01*
X21071931Y-5427145D01*
X21000078Y-5417685D01*
X21000076Y-5417685D01*
X20856368Y-5436605D01*
X20856364Y-5436606D01*
X20722454Y-5492072D01*
X20607456Y-5580314D01*
X20519214Y-5695312D01*
X20463748Y-5829222D01*
X20463747Y-5829226D01*
X20444827Y-5972934D01*
X20444827Y-5972935D01*
X11389065Y-5972935D01*
X11405250Y-5850000D01*
X11386330Y-5706291D01*
X11336641Y-5586329D01*
X11330862Y-5572377D01*
X11330861Y-5572376D01*
X11330861Y-5572375D01*
X11242621Y-5457379D01*
X11127625Y-5369139D01*
X11127624Y-5369138D01*
X11127622Y-5369137D01*
X10993712Y-5313671D01*
X10993710Y-5313670D01*
X10993709Y-5313670D01*
X10889877Y-5300000D01*
X17244750Y-5300000D01*
X17263526Y-5442619D01*
X17263670Y-5443708D01*
X17263671Y-5443712D01*
X17319137Y-5577622D01*
X17319138Y-5577624D01*
X17319139Y-5577625D01*
X17407379Y-5692621D01*
X17522375Y-5780861D01*
X17656291Y-5836330D01*
X17783280Y-5853048D01*
X17799999Y-5855250D01*
X17800000Y-5855250D01*
X17800001Y-5855250D01*
X17814977Y-5853278D01*
X17943709Y-5836330D01*
X18077625Y-5780861D01*
X18192621Y-5692621D01*
X18280861Y-5577625D01*
X18336330Y-5443709D01*
X18355250Y-5300000D01*
X21744750Y-5300000D01*
X21763526Y-5442619D01*
X21763670Y-5443708D01*
X21763671Y-5443712D01*
X21819137Y-5577622D01*
X21819138Y-5577624D01*
X21819139Y-5577625D01*
X21907379Y-5692621D01*
X22022375Y-5780861D01*
X22156291Y-5836330D01*
X22283280Y-5853048D01*
X22299999Y-5855250D01*
X22300000Y-5855250D01*
X22300001Y-5855250D01*
X22314977Y-5853278D01*
X22443709Y-5836330D01*
X22577625Y-5780861D01*
X22692621Y-5692621D01*
X22780861Y-5577625D01*
X22836330Y-5443709D01*
X22855250Y-5300000D01*
X22855149Y-5299236D01*
X22847839Y-5243708D01*
X22836330Y-5156291D01*
X22799350Y-5067013D01*
X22780862Y-5022377D01*
X22780861Y-5022376D01*
X22780861Y-5022375D01*
X22692621Y-4907379D01*
X22577625Y-4819139D01*
X22577624Y-4819138D01*
X22577622Y-4819137D01*
X22443712Y-4763671D01*
X22443710Y-4763670D01*
X22443709Y-4763670D01*
X22371854Y-4754210D01*
X22300001Y-4744750D01*
X22299999Y-4744750D01*
X22156291Y-4763670D01*
X22156287Y-4763671D01*
X22022377Y-4819137D01*
X21907379Y-4907379D01*
X21819137Y-5022377D01*
X21763671Y-5156287D01*
X21763670Y-5156291D01*
X21744851Y-5299236D01*
X21744750Y-5300000D01*
X18355250Y-5300000D01*
X18355149Y-5299236D01*
X18347839Y-5243708D01*
X18336330Y-5156291D01*
X18299350Y-5067013D01*
X18280862Y-5022377D01*
X18280861Y-5022376D01*
X18280861Y-5022375D01*
X18192621Y-4907379D01*
X18077625Y-4819139D01*
X18066570Y-4814560D01*
X18012170Y-4770721D01*
X17990104Y-4704427D01*
X17991234Y-4700000D01*
X24144750Y-4700000D01*
X24159348Y-4810884D01*
X24163670Y-4843708D01*
X24163671Y-4843712D01*
X24219137Y-4977622D01*
X24219138Y-4977624D01*
X24219139Y-4977625D01*
X24307379Y-5092621D01*
X24422375Y-5180861D01*
X24422376Y-5180861D01*
X24422377Y-5180862D01*
X24458586Y-5195860D01*
X24556291Y-5236330D01*
X24683280Y-5253048D01*
X24699999Y-5255250D01*
X24700000Y-5255250D01*
X24700001Y-5255250D01*
X24714977Y-5253278D01*
X24843709Y-5236330D01*
X24977625Y-5180861D01*
X25092621Y-5092621D01*
X25180861Y-4977625D01*
X25236330Y-4843709D01*
X25255250Y-4700000D01*
X25254798Y-4696570D01*
X25249358Y-4655250D01*
X25236330Y-4556291D01*
X25186641Y-4436329D01*
X25180862Y-4422377D01*
X25180861Y-4422376D01*
X25180861Y-4422375D01*
X25092621Y-4307379D01*
X24977625Y-4219139D01*
X24977624Y-4219138D01*
X24977622Y-4219137D01*
X24843712Y-4163671D01*
X24843710Y-4163670D01*
X24843709Y-4163670D01*
X24771854Y-4154210D01*
X24700001Y-4144750D01*
X24699999Y-4144750D01*
X24556291Y-4163670D01*
X24556287Y-4163671D01*
X24422377Y-4219137D01*
X24307379Y-4307379D01*
X24219137Y-4422377D01*
X24163671Y-4556287D01*
X24163670Y-4556291D01*
X24145202Y-4696570D01*
X24144750Y-4700000D01*
X17991234Y-4700000D01*
X18007383Y-4636728D01*
X18058519Y-4589117D01*
X18066558Y-4585445D01*
X18077625Y-4580861D01*
X18192621Y-4492621D01*
X18280861Y-4377625D01*
X18336330Y-4243709D01*
X18355250Y-4100000D01*
X18336330Y-3956291D01*
X18294908Y-3856287D01*
X18280862Y-3822377D01*
X18280861Y-3822376D01*
X18280861Y-3822375D01*
X18192621Y-3707379D01*
X18077625Y-3619139D01*
X18077624Y-3619138D01*
X18077622Y-3619137D01*
X17943712Y-3563671D01*
X17943710Y-3563670D01*
X17943709Y-3563670D01*
X17871854Y-3554210D01*
X17800001Y-3544750D01*
X17799999Y-3544750D01*
X17656291Y-3563670D01*
X17656287Y-3563671D01*
X17522377Y-3619137D01*
X17407379Y-3707379D01*
X17319137Y-3822377D01*
X17263671Y-3956287D01*
X17263670Y-3956291D01*
X17247270Y-4080862D01*
X17244750Y-4100000D01*
X17253132Y-4163670D01*
X17263670Y-4243708D01*
X17263671Y-4243712D01*
X17319137Y-4377622D01*
X17319138Y-4377624D01*
X17319139Y-4377625D01*
X17407379Y-4492621D01*
X17522375Y-4580861D01*
X17533428Y-4585439D01*
X17587831Y-4629281D01*
X17609895Y-4695575D01*
X17592615Y-4763274D01*
X17541478Y-4810884D01*
X17533433Y-4814558D01*
X17522380Y-4819137D01*
X17522375Y-4819139D01*
X17407379Y-4907379D01*
X17319137Y-5022377D01*
X17263671Y-5156287D01*
X17263670Y-5156291D01*
X17244851Y-5299236D01*
X17244750Y-5300000D01*
X10889877Y-5300000D01*
X10850001Y-5294750D01*
X10849999Y-5294750D01*
X10706291Y-5313670D01*
X10706287Y-5313671D01*
X10572377Y-5369137D01*
X10457377Y-5457380D01*
X10442557Y-5476695D01*
X10386128Y-5517896D01*
X10316382Y-5522049D01*
X10255463Y-5487836D01*
X10245808Y-5476693D01*
X10219663Y-5442621D01*
X10192621Y-5407379D01*
X10077625Y-5319139D01*
X10077624Y-5319138D01*
X10077622Y-5319137D01*
X9943712Y-5263671D01*
X9943710Y-5263670D01*
X9943709Y-5263670D01*
X9871854Y-5254210D01*
X9800001Y-5244750D01*
X9799999Y-5244750D01*
X9656291Y-5263670D01*
X9656287Y-5263671D01*
X9522377Y-5319137D01*
X9407379Y-5407379D01*
X9319137Y-5522377D01*
X9263671Y-5656287D01*
X9263670Y-5656291D01*
X9247270Y-5780862D01*
X9244750Y-5800000D01*
X-3536308Y-5800000D01*
X-3607379Y-5707379D01*
X-3722375Y-5619139D01*
X-3722376Y-5619138D01*
X-3722378Y-5619137D01*
X-3856288Y-5563671D01*
X-3856290Y-5563670D01*
X-3856291Y-5563670D01*
X-3928146Y-5554210D01*
X-3999999Y-5544750D01*
X-4000001Y-5544750D01*
X-4143709Y-5563670D01*
X-4143713Y-5563671D01*
X-4277623Y-5619137D01*
X-4392621Y-5707379D01*
X-4480863Y-5822377D01*
X-4536329Y-5956287D01*
X-4536330Y-5956291D01*
X-4555250Y-6100000D01*
X-6049500Y-6100000D01*
X-6049500Y-5100000D01*
X-3255250Y-5100000D01*
X-3237302Y-5236329D01*
X-3236330Y-5243708D01*
X-3236329Y-5243712D01*
X-3180863Y-5377622D01*
X-3180862Y-5377624D01*
X-3180861Y-5377625D01*
X-3092621Y-5492621D01*
X-2977625Y-5580861D01*
X-2977624Y-5580861D01*
X-2977623Y-5580862D01*
X-2932987Y-5599350D01*
X-2843709Y-5636330D01*
X-2716720Y-5653048D01*
X-2700001Y-5655250D01*
X-2700000Y-5655250D01*
X-2699999Y-5655250D01*
X-2685023Y-5653278D01*
X-2556291Y-5636330D01*
X-2422375Y-5580861D01*
X-2307379Y-5492621D01*
X-2219139Y-5377625D01*
X-2163670Y-5243709D01*
X-2144750Y-5100000D01*
X-2163670Y-4956291D01*
X-2219139Y-4822375D01*
X-2307379Y-4707379D01*
X-2316995Y-4700000D01*
X1020250Y-4700000D01*
X1034848Y-4810884D01*
X1039170Y-4843708D01*
X1039171Y-4843712D01*
X1094637Y-4977622D01*
X1094638Y-4977624D01*
X1094639Y-4977625D01*
X1182879Y-5092621D01*
X1297875Y-5180861D01*
X1297876Y-5180861D01*
X1297877Y-5180862D01*
X1334086Y-5195860D01*
X1431791Y-5236330D01*
X1558780Y-5253048D01*
X1575499Y-5255250D01*
X1575500Y-5255250D01*
X1575501Y-5255250D01*
X1590477Y-5253278D01*
X1719209Y-5236330D01*
X1853125Y-5180861D01*
X1968121Y-5092621D01*
X2000825Y-5050000D01*
X2994750Y-5050000D01*
X3011978Y-5180861D01*
X3013670Y-5193708D01*
X3013671Y-5193712D01*
X3069137Y-5327622D01*
X3069138Y-5327624D01*
X3069139Y-5327625D01*
X3157379Y-5442621D01*
X3272375Y-5530861D01*
X3272376Y-5530861D01*
X3272377Y-5530862D01*
X3317013Y-5549350D01*
X3406291Y-5586330D01*
X3533280Y-5603048D01*
X3549999Y-5605250D01*
X3550000Y-5605250D01*
X3550001Y-5605250D01*
X3564977Y-5603278D01*
X3693709Y-5586330D01*
X3827625Y-5530861D01*
X3942621Y-5442621D01*
X4026625Y-5333145D01*
X4083052Y-5291943D01*
X4152798Y-5287788D01*
X4213718Y-5322000D01*
X4223371Y-5333140D01*
X4269451Y-5393193D01*
X4302763Y-5436606D01*
X4307379Y-5442621D01*
X4422375Y-5530861D01*
X4422376Y-5530861D01*
X4422377Y-5530862D01*
X4467013Y-5549350D01*
X4556291Y-5586330D01*
X4683280Y-5603048D01*
X4699999Y-5605250D01*
X4700000Y-5605250D01*
X4700001Y-5605250D01*
X4714977Y-5603278D01*
X4843709Y-5586330D01*
X4977625Y-5530861D01*
X5092621Y-5442621D01*
X5180861Y-5327625D01*
X5235439Y-5195859D01*
X5279279Y-5141456D01*
X5345573Y-5119391D01*
X5413273Y-5136670D01*
X5460884Y-5187807D01*
X5464561Y-5195860D01*
X5519137Y-5327622D01*
X5519138Y-5327624D01*
X5519139Y-5327625D01*
X5607379Y-5442621D01*
X5722375Y-5530861D01*
X5722376Y-5530861D01*
X5722377Y-5530862D01*
X5767013Y-5549350D01*
X5856291Y-5586330D01*
X5983280Y-5603048D01*
X5999999Y-5605250D01*
X6000000Y-5605250D01*
X6000001Y-5605250D01*
X6014977Y-5603278D01*
X6143709Y-5586330D01*
X6277625Y-5530861D01*
X6392621Y-5442621D01*
X6480861Y-5327625D01*
X6536330Y-5193709D01*
X6555250Y-5050000D01*
X6536330Y-4906291D01*
X6495640Y-4808056D01*
X6480862Y-4772377D01*
X6480861Y-4772376D01*
X6480861Y-4772375D01*
X6392621Y-4657379D01*
X6277625Y-4569139D01*
X6277624Y-4569138D01*
X6277622Y-4569137D01*
X6143712Y-4513671D01*
X6143710Y-4513670D01*
X6143709Y-4513670D01*
X6071854Y-4504210D01*
X6000001Y-4494750D01*
X5999999Y-4494750D01*
X5856291Y-4513670D01*
X5856287Y-4513671D01*
X5722377Y-4569137D01*
X5607379Y-4657379D01*
X5519137Y-4772377D01*
X5464561Y-4904139D01*
X5420720Y-4958543D01*
X5354426Y-4980608D01*
X5286727Y-4963329D01*
X5239116Y-4912192D01*
X5235439Y-4904139D01*
X5180862Y-4772377D01*
X5180861Y-4772376D01*
X5180861Y-4772375D01*
X5092621Y-4657379D01*
X4977625Y-4569139D01*
X4977624Y-4569138D01*
X4977622Y-4569137D01*
X4843712Y-4513671D01*
X4843710Y-4513670D01*
X4843709Y-4513670D01*
X4771854Y-4504210D01*
X4700001Y-4494750D01*
X4699999Y-4494750D01*
X4556291Y-4513670D01*
X4556287Y-4513671D01*
X4422377Y-4569137D01*
X4396339Y-4589117D01*
X4307379Y-4657379D01*
X4307378Y-4657380D01*
X4307377Y-4657381D01*
X4223375Y-4766854D01*
X4166947Y-4808056D01*
X4097201Y-4812211D01*
X4036281Y-4777998D01*
X4026625Y-4766854D01*
X3985123Y-4712769D01*
X3942621Y-4657379D01*
X3827625Y-4569139D01*
X3827624Y-4569138D01*
X3827622Y-4569137D01*
X3693712Y-4513671D01*
X3693710Y-4513670D01*
X3693709Y-4513670D01*
X3621854Y-4504210D01*
X3550001Y-4494750D01*
X3549999Y-4494750D01*
X3406291Y-4513670D01*
X3406287Y-4513671D01*
X3272377Y-4569137D01*
X3157379Y-4657379D01*
X3069137Y-4772377D01*
X3013671Y-4906287D01*
X3013670Y-4906291D01*
X3004279Y-4977625D01*
X2994750Y-5050000D01*
X2000825Y-5050000D01*
X2056361Y-4977625D01*
X2111830Y-4843709D01*
X2130750Y-4700000D01*
X2130298Y-4696570D01*
X2124858Y-4655250D01*
X2111830Y-4556291D01*
X2062141Y-4436329D01*
X2056362Y-4422377D01*
X2056361Y-4422376D01*
X2056361Y-4422375D01*
X1968121Y-4307379D01*
X1853125Y-4219139D01*
X1853124Y-4219138D01*
X1853122Y-4219137D01*
X1719212Y-4163671D01*
X1719210Y-4163670D01*
X1719209Y-4163670D01*
X1647354Y-4154210D01*
X1575501Y-4144750D01*
X1575499Y-4144750D01*
X1431791Y-4163670D01*
X1431787Y-4163671D01*
X1297877Y-4219137D01*
X1182879Y-4307379D01*
X1094637Y-4422377D01*
X1039171Y-4556287D01*
X1039170Y-4556291D01*
X1020702Y-4696570D01*
X1020250Y-4700000D01*
X-2316995Y-4700000D01*
X-2422375Y-4619139D01*
X-2422376Y-4619138D01*
X-2422378Y-4619137D01*
X-2556288Y-4563671D01*
X-2556290Y-4563670D01*
X-2556291Y-4563670D01*
X-2628146Y-4554210D01*
X-2699999Y-4544750D01*
X-2700001Y-4544750D01*
X-2843709Y-4563670D01*
X-2843713Y-4563671D01*
X-2977623Y-4619137D01*
X-3092621Y-4707379D01*
X-3180863Y-4822377D01*
X-3236329Y-4956287D01*
X-3236330Y-4956291D01*
X-3254278Y-5092620D01*
X-3255250Y-5100000D01*
X-6049500Y-5100000D01*
X-6049500Y-3850000D01*
X9244750Y-3850000D01*
X9263670Y-3993708D01*
X9263671Y-3993712D01*
X9319137Y-4127622D01*
X9319138Y-4127624D01*
X9319139Y-4127625D01*
X9407379Y-4242621D01*
X9522375Y-4330861D01*
X9522376Y-4330861D01*
X9522377Y-4330862D01*
X9566020Y-4348939D01*
X9656291Y-4386330D01*
X9783280Y-4403048D01*
X9799999Y-4405250D01*
X9800000Y-4405250D01*
X9800001Y-4405250D01*
X9814977Y-4403278D01*
X9943709Y-4386330D01*
X10077625Y-4330861D01*
X10192621Y-4242621D01*
X10280861Y-4127625D01*
X10333724Y-4000000D01*
X11444750Y-4000000D01*
X11462655Y-4136003D01*
X11463670Y-4143708D01*
X11463671Y-4143712D01*
X11519137Y-4277622D01*
X11519138Y-4277624D01*
X11519139Y-4277625D01*
X11607379Y-4392621D01*
X11722375Y-4480861D01*
X11722376Y-4480861D01*
X11722377Y-4480862D01*
X11766196Y-4499012D01*
X11856291Y-4536330D01*
X11983280Y-4553048D01*
X11999999Y-4555250D01*
X12000000Y-4555250D01*
X12000001Y-4555250D01*
X12014977Y-4553278D01*
X12143709Y-4536330D01*
X12277625Y-4480861D01*
X12392621Y-4392621D01*
X12480861Y-4277625D01*
X12536330Y-4143709D01*
X12555250Y-4000000D01*
X12542085Y-3900000D01*
X15844750Y-3900000D01*
X15857915Y-4000000D01*
X15863670Y-4043708D01*
X15863671Y-4043712D01*
X15919137Y-4177622D01*
X15919138Y-4177624D01*
X15919139Y-4177625D01*
X16007379Y-4292621D01*
X16122375Y-4380861D01*
X16122376Y-4380861D01*
X16122377Y-4380862D01*
X16167013Y-4399350D01*
X16256291Y-4436330D01*
X16383280Y-4453048D01*
X16399999Y-4455250D01*
X16400000Y-4455250D01*
X16400001Y-4455250D01*
X16414977Y-4453278D01*
X16543709Y-4436330D01*
X16677625Y-4380861D01*
X16792621Y-4292621D01*
X16880861Y-4177625D01*
X16936330Y-4043709D01*
X16955250Y-3900000D01*
X16936330Y-3756291D01*
X16880861Y-3622375D01*
X16792621Y-3507379D01*
X16677625Y-3419139D01*
X16677624Y-3419138D01*
X16677622Y-3419137D01*
X16631420Y-3400000D01*
X24544750Y-3400000D01*
X24558197Y-3502142D01*
X24563670Y-3543708D01*
X24563671Y-3543712D01*
X24619137Y-3677622D01*
X24619138Y-3677624D01*
X24619139Y-3677625D01*
X24707379Y-3792621D01*
X24822375Y-3880861D01*
X24822376Y-3880861D01*
X24822377Y-3880862D01*
X24867013Y-3899350D01*
X24956291Y-3936330D01*
X25083280Y-3953048D01*
X25099999Y-3955250D01*
X25100000Y-3955250D01*
X25100001Y-3955250D01*
X25114977Y-3953278D01*
X25243709Y-3936330D01*
X25377625Y-3880861D01*
X25492621Y-3792621D01*
X25580861Y-3677625D01*
X25613014Y-3600000D01*
X26644750Y-3600000D01*
X26662698Y-3736329D01*
X26663670Y-3743708D01*
X26663671Y-3743712D01*
X26719137Y-3877622D01*
X26719138Y-3877624D01*
X26719139Y-3877625D01*
X26807379Y-3992621D01*
X26922375Y-4080861D01*
X26922376Y-4080861D01*
X26922377Y-4080862D01*
X27055502Y-4136003D01*
X27109906Y-4179843D01*
X27131971Y-4246137D01*
X27114692Y-4313837D01*
X27083538Y-4348939D01*
X27007380Y-4407378D01*
X26919137Y-4522377D01*
X26863671Y-4656287D01*
X26863670Y-4656291D01*
X26850505Y-4756291D01*
X26844750Y-4800000D01*
X26858460Y-4904139D01*
X26863670Y-4943708D01*
X26863671Y-4943712D01*
X26919137Y-5077622D01*
X26919138Y-5077624D01*
X26919139Y-5077625D01*
X27007379Y-5192621D01*
X27122375Y-5280861D01*
X27122376Y-5280861D01*
X27122377Y-5280862D01*
X27166737Y-5299236D01*
X27256291Y-5336330D01*
X27383280Y-5353048D01*
X27399999Y-5355250D01*
X27400000Y-5355250D01*
X27400001Y-5355250D01*
X27414977Y-5353278D01*
X27543709Y-5336330D01*
X27677625Y-5280861D01*
X27792621Y-5192621D01*
X27880861Y-5077625D01*
X27936330Y-4943709D01*
X27955250Y-4800000D01*
X27941632Y-4696566D01*
X27952397Y-4627534D01*
X27998776Y-4575278D01*
X28066045Y-4556392D01*
X28105526Y-4563342D01*
X28171353Y-4586376D01*
X28171361Y-4586378D01*
X28350497Y-4606562D01*
X28350503Y-4606562D01*
X28535168Y-4585755D01*
X28603990Y-4597809D01*
X28655370Y-4645158D01*
X28672994Y-4712769D01*
X28665354Y-4748327D01*
X28665774Y-4748440D01*
X28663670Y-4756290D01*
X28663670Y-4756291D01*
X28644750Y-4900000D01*
X28655362Y-4980608D01*
X28663670Y-5043708D01*
X28663671Y-5043712D01*
X28719137Y-5177622D01*
X28719138Y-5177624D01*
X28719139Y-5177625D01*
X28807379Y-5292621D01*
X28922375Y-5380861D01*
X29056291Y-5436330D01*
X29183280Y-5453048D01*
X29199999Y-5455250D01*
X29200000Y-5455250D01*
X29200001Y-5455250D01*
X29214977Y-5453278D01*
X29343709Y-5436330D01*
X29477625Y-5380861D01*
X29592621Y-5292621D01*
X29680861Y-5177625D01*
X29736330Y-5043709D01*
X29755250Y-4900000D01*
X29736330Y-4756291D01*
X29733698Y-4749938D01*
X29726230Y-4680470D01*
X29757505Y-4617991D01*
X29807306Y-4585445D01*
X29974805Y-4526834D01*
X29974806Y-4526834D01*
X29988606Y-4518161D01*
X30537392Y-4518161D01*
X30551192Y-4526833D01*
X30551191Y-4526833D01*
X30721361Y-4586378D01*
X30900497Y-4606562D01*
X30900503Y-4606562D01*
X31079638Y-4586378D01*
X31079641Y-4586377D01*
X31249802Y-4526836D01*
X31263840Y-4518015D01*
X31331076Y-4499012D01*
X31397912Y-4519377D01*
X31443128Y-4572643D01*
X31452755Y-4639191D01*
X31445189Y-4696663D01*
X31444750Y-4700000D01*
X31459348Y-4810884D01*
X31463670Y-4843708D01*
X31463671Y-4843712D01*
X31519137Y-4977622D01*
X31519138Y-4977624D01*
X31519139Y-4977625D01*
X31607379Y-5092621D01*
X31722375Y-5180861D01*
X31722376Y-5180861D01*
X31722377Y-5180862D01*
X31758586Y-5195860D01*
X31856291Y-5236330D01*
X31983280Y-5253048D01*
X31999999Y-5255250D01*
X32000000Y-5255250D01*
X32000001Y-5255250D01*
X32014977Y-5253278D01*
X32143709Y-5236330D01*
X32277625Y-5180861D01*
X32383005Y-5100000D01*
X42244750Y-5100000D01*
X42262698Y-5236329D01*
X42263670Y-5243708D01*
X42263671Y-5243712D01*
X42319137Y-5377622D01*
X42319138Y-5377624D01*
X42319139Y-5377625D01*
X42407379Y-5492621D01*
X42522375Y-5580861D01*
X42522376Y-5580861D01*
X42522377Y-5580862D01*
X42567013Y-5599350D01*
X42656291Y-5636330D01*
X42783280Y-5653048D01*
X42799999Y-5655250D01*
X42800000Y-5655250D01*
X42800001Y-5655250D01*
X42814977Y-5653278D01*
X42943709Y-5636330D01*
X43077625Y-5580861D01*
X43192621Y-5492621D01*
X43280861Y-5377625D01*
X43336330Y-5243709D01*
X43355250Y-5100000D01*
X43336330Y-4956291D01*
X43313066Y-4900127D01*
X53437214Y-4900127D01*
X53457253Y-5103593D01*
X53516602Y-5299237D01*
X53612976Y-5479542D01*
X53612978Y-5479545D01*
X53742678Y-5637585D01*
X53900718Y-5767285D01*
X53900721Y-5767287D01*
X54016602Y-5829226D01*
X54081028Y-5863662D01*
X54276673Y-5923011D01*
X54480137Y-5943050D01*
X54683601Y-5923011D01*
X54879246Y-5863662D01*
X55059554Y-5767286D01*
X55217595Y-5637585D01*
X55347296Y-5479544D01*
X55443672Y-5299236D01*
X55503021Y-5103591D01*
X55523060Y-4900127D01*
X55503021Y-4696663D01*
X55443672Y-4501018D01*
X55434403Y-4483676D01*
X55347297Y-4320711D01*
X55347295Y-4320708D01*
X55217595Y-4162668D01*
X55059555Y-4032968D01*
X55059552Y-4032966D01*
X54879247Y-3936592D01*
X54683603Y-3877243D01*
X54480137Y-3857204D01*
X54276670Y-3877243D01*
X54081026Y-3936592D01*
X53900721Y-4032966D01*
X53900718Y-4032968D01*
X53742678Y-4162668D01*
X53612978Y-4320708D01*
X53612976Y-4320711D01*
X53516602Y-4501016D01*
X53457253Y-4696660D01*
X53437214Y-4900127D01*
X43313066Y-4900127D01*
X43280861Y-4822375D01*
X43192621Y-4707379D01*
X43077625Y-4619139D01*
X43077624Y-4619138D01*
X43077622Y-4619137D01*
X42943712Y-4563671D01*
X42943710Y-4563670D01*
X42943709Y-4563670D01*
X42871854Y-4554210D01*
X42800001Y-4544750D01*
X42799999Y-4544750D01*
X42656291Y-4563670D01*
X42656287Y-4563671D01*
X42522377Y-4619137D01*
X42407379Y-4707379D01*
X42319137Y-4822377D01*
X42263671Y-4956287D01*
X42263670Y-4956291D01*
X42245722Y-5092620D01*
X42244750Y-5100000D01*
X32383005Y-5100000D01*
X32392621Y-5092621D01*
X32480861Y-4977625D01*
X32536330Y-4843709D01*
X32555250Y-4700000D01*
X32554798Y-4696570D01*
X32549358Y-4655250D01*
X32536330Y-4556291D01*
X32486641Y-4436329D01*
X32480862Y-4422377D01*
X32480861Y-4422376D01*
X32480861Y-4422375D01*
X32392621Y-4307379D01*
X32277625Y-4219139D01*
X32277624Y-4219138D01*
X32277622Y-4219137D01*
X32143712Y-4163671D01*
X32143710Y-4163670D01*
X32143709Y-4163670D01*
X32071854Y-4154210D01*
X32000001Y-4144750D01*
X31999999Y-4144750D01*
X31856291Y-4163670D01*
X31837523Y-4171444D01*
X31768054Y-4178911D01*
X31705575Y-4147636D01*
X31669923Y-4087546D01*
X31672418Y-4017721D01*
X31673031Y-4015927D01*
X31678604Y-4000000D01*
X36194750Y-4000000D01*
X36212655Y-4136003D01*
X36213670Y-4143708D01*
X36213671Y-4143712D01*
X36269137Y-4277622D01*
X36269138Y-4277624D01*
X36269139Y-4277625D01*
X36357379Y-4392621D01*
X36472375Y-4480861D01*
X36472376Y-4480861D01*
X36472377Y-4480862D01*
X36516196Y-4499012D01*
X36606291Y-4536330D01*
X36733280Y-4553048D01*
X36749999Y-4555250D01*
X36750000Y-4555250D01*
X36750001Y-4555250D01*
X36764977Y-4553278D01*
X36893709Y-4536330D01*
X37027625Y-4480861D01*
X37142621Y-4392621D01*
X37230861Y-4277625D01*
X37286330Y-4143709D01*
X37305250Y-4000000D01*
X37290117Y-3885057D01*
X37300882Y-3816024D01*
X37347262Y-3763768D01*
X37414531Y-3744882D01*
X37429236Y-3745933D01*
X37481038Y-3752753D01*
X37499999Y-3755250D01*
X37500000Y-3755250D01*
X37500001Y-3755250D01*
X37514977Y-3753278D01*
X37643709Y-3736330D01*
X37777625Y-3680861D01*
X37892621Y-3592621D01*
X37948236Y-3520142D01*
X56277194Y-3520142D01*
X56297233Y-3723608D01*
X56356582Y-3919252D01*
X56452956Y-4099557D01*
X56452958Y-4099560D01*
X56582658Y-4257600D01*
X56740698Y-4387300D01*
X56740701Y-4387302D01*
X56915741Y-4480862D01*
X56921008Y-4483677D01*
X57116653Y-4543026D01*
X57320117Y-4563065D01*
X57523581Y-4543026D01*
X57719226Y-4483677D01*
X57899534Y-4387301D01*
X58057575Y-4257600D01*
X58187276Y-4099559D01*
X58283652Y-3919251D01*
X58343001Y-3723606D01*
X58363040Y-3520142D01*
X58343001Y-3316678D01*
X58283652Y-3121033D01*
X58222870Y-3007317D01*
X58187277Y-2940726D01*
X58187275Y-2940723D01*
X58057575Y-2782683D01*
X57899535Y-2652983D01*
X57899532Y-2652981D01*
X57719227Y-2556607D01*
X57523583Y-2497258D01*
X57320117Y-2477219D01*
X57116650Y-2497258D01*
X56921006Y-2556607D01*
X56740701Y-2652981D01*
X56740698Y-2652983D01*
X56582658Y-2782683D01*
X56452958Y-2940723D01*
X56452956Y-2940726D01*
X56356582Y-3121031D01*
X56297233Y-3316675D01*
X56277194Y-3520142D01*
X37948236Y-3520142D01*
X37980861Y-3477625D01*
X38036330Y-3343709D01*
X38055250Y-3200000D01*
X38036330Y-3056291D01*
X37986641Y-2936329D01*
X37980862Y-2922377D01*
X37980861Y-2922376D01*
X37980861Y-2922375D01*
X37892621Y-2807379D01*
X37777625Y-2719139D01*
X37777624Y-2719138D01*
X37777622Y-2719137D01*
X37643712Y-2663671D01*
X37643710Y-2663670D01*
X37643709Y-2663670D01*
X37562535Y-2652983D01*
X37500001Y-2644750D01*
X37499999Y-2644750D01*
X37356291Y-2663670D01*
X37356287Y-2663671D01*
X37222377Y-2719137D01*
X37107379Y-2807379D01*
X37019137Y-2922377D01*
X36963671Y-3056287D01*
X36963670Y-3056291D01*
X36944750Y-3199999D01*
X36944750Y-3200002D01*
X36959882Y-3314941D01*
X36949116Y-3383976D01*
X36902736Y-3436232D01*
X36835467Y-3455117D01*
X36820758Y-3454065D01*
X36750002Y-3444750D01*
X36749999Y-3444750D01*
X36606291Y-3463670D01*
X36606287Y-3463671D01*
X36472377Y-3519137D01*
X36357379Y-3607379D01*
X36269137Y-3722377D01*
X36213671Y-3856287D01*
X36213670Y-3856291D01*
X36195722Y-3992620D01*
X36194750Y-4000000D01*
X31678604Y-4000000D01*
X31685376Y-3980646D01*
X31685378Y-3980638D01*
X31705562Y-3801502D01*
X31705562Y-3801497D01*
X31685378Y-3622361D01*
X31625833Y-3452192D01*
X31617161Y-3438392D01*
X31617160Y-3438392D01*
X30537392Y-4518160D01*
X30537392Y-4518161D01*
X29988606Y-4518161D01*
X29988606Y-4518160D01*
X29359627Y-3889181D01*
X29330757Y-3836310D01*
X29450500Y-3836310D01*
X29477143Y-3900629D01*
X29526371Y-3949857D01*
X29590690Y-3976500D01*
X29660310Y-3976500D01*
X29724629Y-3949857D01*
X29773857Y-3900629D01*
X29800500Y-3836310D01*
X29800500Y-3766690D01*
X29773857Y-3702371D01*
X29724629Y-3653143D01*
X29660310Y-3626500D01*
X29590690Y-3626500D01*
X29526371Y-3653143D01*
X29477143Y-3702371D01*
X29450500Y-3766690D01*
X29450500Y-3836310D01*
X29330757Y-3836310D01*
X29326142Y-3827858D01*
X29331126Y-3758166D01*
X29359627Y-3713819D01*
X29537819Y-3535627D01*
X29599142Y-3502142D01*
X29668834Y-3507126D01*
X29713181Y-3535627D01*
X30263000Y-4085446D01*
X30512136Y-3836310D01*
X30725500Y-3836310D01*
X30752143Y-3900629D01*
X30801371Y-3949857D01*
X30865690Y-3976500D01*
X30935310Y-3976500D01*
X30999629Y-3949857D01*
X31048857Y-3900629D01*
X31075500Y-3836310D01*
X31075500Y-3766690D01*
X31048857Y-3702371D01*
X30999629Y-3653143D01*
X30935310Y-3626500D01*
X30865690Y-3626500D01*
X30801371Y-3653143D01*
X30752143Y-3702371D01*
X30725500Y-3766690D01*
X30725500Y-3836310D01*
X30512136Y-3836310D01*
X30900500Y-3447947D01*
X31184446Y-3164000D01*
X30634627Y-2614181D01*
X30605757Y-2561310D01*
X30725500Y-2561310D01*
X30752143Y-2625629D01*
X30801371Y-2674857D01*
X30865690Y-2701500D01*
X30935310Y-2701500D01*
X30999629Y-2674857D01*
X31048857Y-2625629D01*
X31075500Y-2561310D01*
X31075500Y-2526500D01*
X31254053Y-2526500D01*
X31617160Y-2889606D01*
X31617161Y-2889606D01*
X31625834Y-2875806D01*
X31625834Y-2875805D01*
X31685377Y-2705641D01*
X31685378Y-2705638D01*
X31697281Y-2600000D01*
X46944750Y-2600000D01*
X46953132Y-2663670D01*
X46963670Y-2743708D01*
X46963671Y-2743712D01*
X47019137Y-2877622D01*
X47019138Y-2877624D01*
X47019139Y-2877625D01*
X47107379Y-2992621D01*
X47222375Y-3080861D01*
X47356291Y-3136330D01*
X47483280Y-3153048D01*
X47499999Y-3155250D01*
X47500000Y-3155250D01*
X47500001Y-3155250D01*
X47514977Y-3153278D01*
X47643709Y-3136330D01*
X47777625Y-3080861D01*
X47892621Y-2992621D01*
X47980861Y-2877625D01*
X48036330Y-2743709D01*
X48055250Y-2600000D01*
X48036330Y-2456291D01*
X47980861Y-2322375D01*
X47892621Y-2207379D01*
X47805016Y-2140157D01*
X53437214Y-2140157D01*
X53457253Y-2343623D01*
X53516602Y-2539267D01*
X53612976Y-2719572D01*
X53612978Y-2719575D01*
X53742678Y-2877615D01*
X53900718Y-3007315D01*
X53900721Y-3007317D01*
X54081026Y-3103691D01*
X54081028Y-3103692D01*
X54276673Y-3163041D01*
X54480137Y-3183080D01*
X54683601Y-3163041D01*
X54879246Y-3103692D01*
X55059554Y-3007316D01*
X55217595Y-2877615D01*
X55347296Y-2719574D01*
X55443672Y-2539266D01*
X55503021Y-2343621D01*
X55523060Y-2140157D01*
X55503021Y-1936693D01*
X55443672Y-1741048D01*
X55434827Y-1724500D01*
X55347297Y-1560741D01*
X55347295Y-1560738D01*
X55217595Y-1402698D01*
X55059555Y-1272998D01*
X55059552Y-1272996D01*
X54879247Y-1176622D01*
X54683603Y-1117273D01*
X54480137Y-1097234D01*
X54276670Y-1117273D01*
X54081026Y-1176622D01*
X53900721Y-1272996D01*
X53900718Y-1272998D01*
X53742678Y-1402698D01*
X53612978Y-1560738D01*
X53612976Y-1560741D01*
X53516602Y-1741046D01*
X53457253Y-1936690D01*
X53437214Y-2140157D01*
X47805016Y-2140157D01*
X47777625Y-2119139D01*
X47777624Y-2119138D01*
X47777622Y-2119137D01*
X47643712Y-2063671D01*
X47643710Y-2063670D01*
X47643709Y-2063670D01*
X47571854Y-2054210D01*
X47500001Y-2044750D01*
X47499999Y-2044750D01*
X47356291Y-2063670D01*
X47356287Y-2063671D01*
X47222377Y-2119137D01*
X47107379Y-2207379D01*
X47019137Y-2322377D01*
X46963671Y-2456287D01*
X46963670Y-2456291D01*
X46948722Y-2569834D01*
X46944750Y-2600000D01*
X31697281Y-2600000D01*
X31705562Y-2526502D01*
X31705562Y-2526497D01*
X31685378Y-2347361D01*
X31625833Y-2177192D01*
X31617161Y-2163392D01*
X31617160Y-2163392D01*
X31254053Y-2526500D01*
X31075500Y-2526500D01*
X31075500Y-2491690D01*
X31048857Y-2427371D01*
X30999629Y-2378143D01*
X30935310Y-2351500D01*
X30865690Y-2351500D01*
X30801371Y-2378143D01*
X30752143Y-2427371D01*
X30725500Y-2491690D01*
X30725500Y-2561310D01*
X30605757Y-2561310D01*
X30601142Y-2552858D01*
X30606126Y-2483166D01*
X30634627Y-2438819D01*
X30900500Y-2172947D01*
X31184446Y-1889000D01*
X31184446Y-1888999D01*
X30581757Y-1286310D01*
X30725500Y-1286310D01*
X30752143Y-1350629D01*
X30801371Y-1399857D01*
X30865690Y-1426500D01*
X30935310Y-1426500D01*
X30999629Y-1399857D01*
X31048857Y-1350629D01*
X31075500Y-1286310D01*
X31075500Y-1251500D01*
X31254053Y-1251500D01*
X31617160Y-1614606D01*
X31617161Y-1614606D01*
X31625834Y-1600806D01*
X31625834Y-1600805D01*
X31685377Y-1430641D01*
X31685378Y-1430638D01*
X31705562Y-1251502D01*
X31705562Y-1251497D01*
X31685378Y-1072361D01*
X31625833Y-902192D01*
X31617161Y-888392D01*
X31617160Y-888392D01*
X31254053Y-1251500D01*
X31075500Y-1251500D01*
X31075500Y-1216690D01*
X31048857Y-1152371D01*
X30999629Y-1103143D01*
X30935310Y-1076500D01*
X30865690Y-1076500D01*
X30801371Y-1103143D01*
X30752143Y-1152371D01*
X30725500Y-1216690D01*
X30725500Y-1286310D01*
X30581757Y-1286310D01*
X30263000Y-967553D01*
X29713181Y-1517372D01*
X29651858Y-1550857D01*
X29582166Y-1545873D01*
X29537819Y-1517372D01*
X29306757Y-1286310D01*
X29450500Y-1286310D01*
X29477143Y-1350629D01*
X29526371Y-1399857D01*
X29590690Y-1426500D01*
X29660310Y-1426500D01*
X29724629Y-1399857D01*
X29773857Y-1350629D01*
X29800500Y-1286310D01*
X29800500Y-1216690D01*
X29773857Y-1152371D01*
X29724629Y-1103143D01*
X29660310Y-1076500D01*
X29590690Y-1076500D01*
X29526371Y-1103143D01*
X29477143Y-1152371D01*
X29450500Y-1216690D01*
X29450500Y-1286310D01*
X29306757Y-1286310D01*
X28988000Y-967553D01*
X28066553Y-1889000D01*
X28616372Y-2438819D01*
X28649857Y-2500142D01*
X28644873Y-2569834D01*
X28616372Y-2614181D01*
X28438181Y-2792372D01*
X28376858Y-2825857D01*
X28307166Y-2820873D01*
X28262819Y-2792372D01*
X28031757Y-2561310D01*
X28175500Y-2561310D01*
X28202143Y-2625629D01*
X28251371Y-2674857D01*
X28315690Y-2701500D01*
X28385310Y-2701500D01*
X28449629Y-2674857D01*
X28498857Y-2625629D01*
X28525500Y-2561310D01*
X28525500Y-2491690D01*
X28498857Y-2427371D01*
X28449629Y-2378143D01*
X28385310Y-2351500D01*
X28315690Y-2351500D01*
X28251371Y-2378143D01*
X28202143Y-2427371D01*
X28175500Y-2491690D01*
X28175500Y-2561310D01*
X28031757Y-2561310D01*
X27633838Y-2163391D01*
X27633837Y-2163391D01*
X27625167Y-2177191D01*
X27625162Y-2177201D01*
X27565622Y-2347358D01*
X27565621Y-2347361D01*
X27545438Y-2526497D01*
X27545438Y-2526502D01*
X27565621Y-2705638D01*
X27565622Y-2705641D01*
X27625163Y-2875801D01*
X27690335Y-2979522D01*
X27709335Y-3046759D01*
X27688967Y-3113594D01*
X27635699Y-3158808D01*
X27566443Y-3168045D01*
X27509856Y-3143870D01*
X27477625Y-3119139D01*
X27477624Y-3119138D01*
X27477622Y-3119137D01*
X27343712Y-3063671D01*
X27343710Y-3063670D01*
X27343709Y-3063670D01*
X27215260Y-3046759D01*
X27200001Y-3044750D01*
X27199999Y-3044750D01*
X27056291Y-3063670D01*
X27056287Y-3063671D01*
X26922377Y-3119137D01*
X26807379Y-3207379D01*
X26719137Y-3322377D01*
X26663671Y-3456287D01*
X26663670Y-3456291D01*
X26645722Y-3592620D01*
X26644750Y-3600000D01*
X25613014Y-3600000D01*
X25636330Y-3543709D01*
X25655250Y-3400000D01*
X25636330Y-3256291D01*
X25586641Y-3136329D01*
X25580862Y-3122377D01*
X25580861Y-3122376D01*
X25580861Y-3122375D01*
X25492621Y-3007379D01*
X25377625Y-2919139D01*
X25377624Y-2919138D01*
X25377622Y-2919137D01*
X25243712Y-2863671D01*
X25243710Y-2863670D01*
X25243709Y-2863670D01*
X25171854Y-2854210D01*
X25100001Y-2844750D01*
X25099999Y-2844750D01*
X24956291Y-2863670D01*
X24956287Y-2863671D01*
X24822377Y-2919137D01*
X24707379Y-3007379D01*
X24619137Y-3122377D01*
X24563671Y-3256287D01*
X24563670Y-3256291D01*
X24544750Y-3400000D01*
X16631420Y-3400000D01*
X16543712Y-3363671D01*
X16543710Y-3363670D01*
X16543709Y-3363670D01*
X16471854Y-3354210D01*
X16400001Y-3344750D01*
X16399999Y-3344750D01*
X16256291Y-3363670D01*
X16256287Y-3363671D01*
X16122377Y-3419137D01*
X16007379Y-3507379D01*
X15919137Y-3622377D01*
X15863671Y-3756287D01*
X15863670Y-3756291D01*
X15847270Y-3880862D01*
X15844750Y-3900000D01*
X12542085Y-3900000D01*
X12536330Y-3856291D01*
X12486641Y-3736329D01*
X12480862Y-3722377D01*
X12480861Y-3722376D01*
X12480861Y-3722375D01*
X12392621Y-3607379D01*
X12277625Y-3519139D01*
X12277624Y-3519138D01*
X12277622Y-3519137D01*
X12143712Y-3463671D01*
X12143710Y-3463670D01*
X12143709Y-3463670D01*
X12056527Y-3452192D01*
X12000001Y-3444750D01*
X11999999Y-3444750D01*
X11856291Y-3463670D01*
X11856287Y-3463671D01*
X11722377Y-3519137D01*
X11607379Y-3607379D01*
X11519137Y-3722377D01*
X11463671Y-3856287D01*
X11463670Y-3856291D01*
X11445722Y-3992620D01*
X11444750Y-4000000D01*
X10333724Y-4000000D01*
X10336330Y-3993709D01*
X10355250Y-3850000D01*
X10336330Y-3706291D01*
X10295360Y-3607379D01*
X10280862Y-3572377D01*
X10280861Y-3572376D01*
X10280861Y-3572375D01*
X10192621Y-3457379D01*
X10077625Y-3369139D01*
X10077624Y-3369138D01*
X10077622Y-3369137D01*
X9943712Y-3313671D01*
X9943710Y-3313670D01*
X9943709Y-3313670D01*
X9871854Y-3304210D01*
X9800001Y-3294750D01*
X9799999Y-3294750D01*
X9656291Y-3313670D01*
X9656287Y-3313671D01*
X9522377Y-3369137D01*
X9407379Y-3457379D01*
X9319137Y-3572377D01*
X9263671Y-3706287D01*
X9263670Y-3706291D01*
X9244750Y-3849999D01*
X9244750Y-3850000D01*
X-6049500Y-3850000D01*
X-6049500Y-2400000D01*
X9344750Y-2400000D01*
X9357554Y-2497258D01*
X9363670Y-2543708D01*
X9363671Y-2543712D01*
X9419137Y-2677622D01*
X9419138Y-2677624D01*
X9419139Y-2677625D01*
X9507379Y-2792621D01*
X9622375Y-2880861D01*
X9622376Y-2880861D01*
X9622377Y-2880862D01*
X9667013Y-2899350D01*
X9756291Y-2936330D01*
X9883280Y-2953048D01*
X9899999Y-2955250D01*
X9900000Y-2955250D01*
X9900001Y-2955250D01*
X9914977Y-2953278D01*
X10043709Y-2936330D01*
X10177625Y-2880861D01*
X10292621Y-2792621D01*
X10380861Y-2677625D01*
X10436330Y-2543709D01*
X10455250Y-2400000D01*
X10436330Y-2256291D01*
X10397850Y-2163391D01*
X10380862Y-2122377D01*
X10380861Y-2122376D01*
X10380861Y-2122375D01*
X10292621Y-2007379D01*
X10177625Y-1919139D01*
X10177624Y-1919138D01*
X10177622Y-1919137D01*
X10043712Y-1863671D01*
X10043710Y-1863670D01*
X10043709Y-1863670D01*
X9971854Y-1854210D01*
X9900001Y-1844750D01*
X9899999Y-1844750D01*
X9756291Y-1863670D01*
X9756287Y-1863671D01*
X9622377Y-1919137D01*
X9507379Y-2007379D01*
X9419137Y-2122377D01*
X9363671Y-2256287D01*
X9363670Y-2256291D01*
X9347628Y-2378143D01*
X9344750Y-2400000D01*
X-6049500Y-2400000D01*
X-6049500Y-1700000D01*
X4544750Y-1700000D01*
X4563670Y-1843708D01*
X4563671Y-1843712D01*
X4619137Y-1977622D01*
X4619138Y-1977624D01*
X4619139Y-1977625D01*
X4707379Y-2092621D01*
X4822375Y-2180861D01*
X4956291Y-2236330D01*
X5083280Y-2253048D01*
X5099999Y-2255250D01*
X5100000Y-2255250D01*
X5100001Y-2255250D01*
X5114977Y-2253278D01*
X5243709Y-2236330D01*
X5377625Y-2180861D01*
X5492621Y-2092621D01*
X5580861Y-1977625D01*
X5636330Y-1843709D01*
X5655250Y-1700000D01*
X5636330Y-1556291D01*
X5613014Y-1500000D01*
X16144750Y-1500000D01*
X16159838Y-1614606D01*
X16163670Y-1643708D01*
X16163671Y-1643712D01*
X16219137Y-1777622D01*
X16219138Y-1777624D01*
X16219139Y-1777625D01*
X16307379Y-1892621D01*
X16422375Y-1980861D01*
X16556291Y-2036330D01*
X16683280Y-2053048D01*
X16699999Y-2055250D01*
X16700000Y-2055250D01*
X16700001Y-2055250D01*
X16714977Y-2053278D01*
X16843709Y-2036330D01*
X16977625Y-1980861D01*
X17092621Y-1892621D01*
X17180861Y-1777625D01*
X17236330Y-1643709D01*
X17255250Y-1500000D01*
X17242085Y-1400000D01*
X21344750Y-1400000D01*
X21357915Y-1500000D01*
X21363670Y-1543708D01*
X21363671Y-1543712D01*
X21419137Y-1677622D01*
X21419138Y-1677623D01*
X21419139Y-1677625D01*
X21507379Y-1792621D01*
X21622375Y-1880861D01*
X21687127Y-1907681D01*
X21741529Y-1951521D01*
X21763595Y-2017815D01*
X21746317Y-2085514D01*
X21738052Y-2097726D01*
X21719138Y-2122375D01*
X21719138Y-2122376D01*
X21663671Y-2256287D01*
X21663670Y-2256291D01*
X21647628Y-2378143D01*
X21644750Y-2400000D01*
X21657554Y-2497258D01*
X21663670Y-2543708D01*
X21663671Y-2543712D01*
X21719137Y-2677622D01*
X21719138Y-2677624D01*
X21719139Y-2677625D01*
X21807379Y-2792621D01*
X21922375Y-2880861D01*
X21922376Y-2880861D01*
X21922377Y-2880862D01*
X21967013Y-2899350D01*
X22056291Y-2936330D01*
X22183280Y-2953048D01*
X22199999Y-2955250D01*
X22200000Y-2955250D01*
X22200001Y-2955250D01*
X22214977Y-2953278D01*
X22343709Y-2936330D01*
X22477625Y-2880861D01*
X22592621Y-2792621D01*
X22680861Y-2677625D01*
X22736330Y-2543709D01*
X22755250Y-2400000D01*
X22736330Y-2256291D01*
X22697850Y-2163391D01*
X22680862Y-2122377D01*
X22680861Y-2122376D01*
X22680861Y-2122375D01*
X22592621Y-2007379D01*
X22477625Y-1919139D01*
X22477624Y-1919138D01*
X22477622Y-1919137D01*
X22412873Y-1892318D01*
X22358469Y-1848478D01*
X22336404Y-1782184D01*
X22351127Y-1724500D01*
X22844750Y-1724500D01*
X22863072Y-1863670D01*
X22863670Y-1868208D01*
X22863671Y-1868212D01*
X22919137Y-2002122D01*
X22919138Y-2002124D01*
X22919139Y-2002125D01*
X23007379Y-2117121D01*
X23122375Y-2205361D01*
X23256291Y-2260830D01*
X23383280Y-2277548D01*
X23399999Y-2279750D01*
X23400000Y-2279750D01*
X23400001Y-2279750D01*
X23414977Y-2277778D01*
X23543709Y-2260830D01*
X23677625Y-2205361D01*
X23792621Y-2117121D01*
X23880861Y-2002125D01*
X23931089Y-1880862D01*
X23939440Y-1860701D01*
X23942794Y-1862090D01*
X23970167Y-1816665D01*
X24032858Y-1785816D01*
X24102275Y-1793758D01*
X24129530Y-1809618D01*
X24222373Y-1880860D01*
X24222374Y-1880860D01*
X24222375Y-1880861D01*
X24356291Y-1936330D01*
X24478922Y-1952475D01*
X24499999Y-1955250D01*
X24500000Y-1955250D01*
X24500001Y-1955250D01*
X24514977Y-1953278D01*
X24643709Y-1936330D01*
X24777625Y-1880861D01*
X24892621Y-1792621D01*
X24980861Y-1677625D01*
X25036330Y-1543709D01*
X25055250Y-1400000D01*
X25036330Y-1256291D01*
X25034346Y-1251502D01*
X27545438Y-1251502D01*
X27565621Y-1430638D01*
X27625165Y-1600804D01*
X27633838Y-1614607D01*
X27962136Y-1286310D01*
X28175500Y-1286310D01*
X28202143Y-1350629D01*
X28251371Y-1399857D01*
X28315690Y-1426500D01*
X28385310Y-1426500D01*
X28449629Y-1399857D01*
X28498857Y-1350629D01*
X28525500Y-1286310D01*
X28525500Y-1216690D01*
X28498857Y-1152371D01*
X28449629Y-1103143D01*
X28385310Y-1076500D01*
X28315690Y-1076500D01*
X28251371Y-1103143D01*
X28202143Y-1152371D01*
X28175500Y-1216690D01*
X28175500Y-1286310D01*
X27962136Y-1286310D01*
X27996946Y-1251500D01*
X27996946Y-1251499D01*
X27633838Y-888391D01*
X27633837Y-888391D01*
X27625167Y-902191D01*
X27625162Y-902201D01*
X27565622Y-1072358D01*
X27565621Y-1072361D01*
X27545438Y-1251497D01*
X27545438Y-1251502D01*
X25034346Y-1251502D01*
X24990129Y-1144750D01*
X24980862Y-1122377D01*
X24980861Y-1122376D01*
X24980861Y-1122375D01*
X24892621Y-1007379D01*
X24777625Y-919139D01*
X24777624Y-919138D01*
X24777622Y-919137D01*
X24643712Y-863671D01*
X24643710Y-863670D01*
X24643709Y-863670D01*
X24571854Y-854210D01*
X24500001Y-844750D01*
X24499999Y-844750D01*
X24356291Y-863670D01*
X24356287Y-863671D01*
X24222377Y-919137D01*
X24107379Y-1007379D01*
X24019137Y-1122377D01*
X23960560Y-1263799D01*
X23957332Y-1262462D01*
X23929153Y-1308453D01*
X23866235Y-1338837D01*
X23796879Y-1330381D01*
X23770474Y-1314884D01*
X23677625Y-1243639D01*
X23677624Y-1243638D01*
X23677622Y-1243637D01*
X23543712Y-1188171D01*
X23543710Y-1188170D01*
X23543709Y-1188170D01*
X23455995Y-1176622D01*
X23400001Y-1169250D01*
X23399999Y-1169250D01*
X23256291Y-1188170D01*
X23256287Y-1188171D01*
X23122377Y-1243637D01*
X23007379Y-1331879D01*
X22919137Y-1446877D01*
X22863671Y-1580787D01*
X22863670Y-1580791D01*
X22847976Y-1700000D01*
X22844750Y-1724500D01*
X22351127Y-1724500D01*
X22353683Y-1714484D01*
X22361950Y-1702270D01*
X22363693Y-1699999D01*
X22380861Y-1677625D01*
X22436330Y-1543709D01*
X22455250Y-1400000D01*
X22436330Y-1256291D01*
X22390129Y-1144750D01*
X22380862Y-1122377D01*
X22380861Y-1122376D01*
X22380861Y-1122375D01*
X22292621Y-1007379D01*
X22177625Y-919139D01*
X22177624Y-919138D01*
X22177622Y-919137D01*
X22043712Y-863671D01*
X22043710Y-863670D01*
X22043709Y-863670D01*
X21971854Y-854210D01*
X21900001Y-844750D01*
X21899999Y-844750D01*
X21756291Y-863670D01*
X21756287Y-863671D01*
X21622377Y-919137D01*
X21507379Y-1007379D01*
X21419137Y-1122377D01*
X21363671Y-1256287D01*
X21363670Y-1256291D01*
X21350505Y-1356291D01*
X21344750Y-1400000D01*
X17242085Y-1400000D01*
X17236330Y-1356291D01*
X17180861Y-1222375D01*
X17092621Y-1107379D01*
X16977625Y-1019139D01*
X16977624Y-1019138D01*
X16977622Y-1019137D01*
X16843712Y-963671D01*
X16843710Y-963670D01*
X16843709Y-963670D01*
X16771854Y-954210D01*
X16700001Y-944750D01*
X16699999Y-944750D01*
X16556291Y-963670D01*
X16556287Y-963671D01*
X16422377Y-1019137D01*
X16307379Y-1107379D01*
X16219137Y-1222377D01*
X16163671Y-1356287D01*
X16163670Y-1356291D01*
X16144750Y-1500000D01*
X5613014Y-1500000D01*
X5580861Y-1422375D01*
X5492621Y-1307379D01*
X5377625Y-1219139D01*
X5377624Y-1219138D01*
X5377622Y-1219137D01*
X5243712Y-1163671D01*
X5243710Y-1163670D01*
X5243709Y-1163670D01*
X5157886Y-1152371D01*
X5100001Y-1144750D01*
X5099999Y-1144750D01*
X4956291Y-1163670D01*
X4956287Y-1163671D01*
X4822377Y-1219137D01*
X4707379Y-1307379D01*
X4619137Y-1422377D01*
X4563671Y-1556287D01*
X4563670Y-1556291D01*
X4544750Y-1699999D01*
X4544750Y-1700000D01*
X-6049500Y-1700000D01*
X-6049500Y-650000D01*
X9294750Y-650000D01*
X9313670Y-793708D01*
X9313671Y-793712D01*
X9369137Y-927622D01*
X9369138Y-927624D01*
X9369139Y-927625D01*
X9457379Y-1042621D01*
X9572375Y-1130861D01*
X9572376Y-1130861D01*
X9572377Y-1130862D01*
X9617013Y-1149350D01*
X9706291Y-1186330D01*
X9833280Y-1203048D01*
X9849999Y-1205250D01*
X9850000Y-1205250D01*
X9850001Y-1205250D01*
X9864977Y-1203278D01*
X9993709Y-1186330D01*
X10127625Y-1130861D01*
X10242621Y-1042621D01*
X10330861Y-927625D01*
X10386330Y-793709D01*
X10405250Y-650000D01*
X10386330Y-506291D01*
X10330861Y-372375D01*
X10242621Y-257379D01*
X10167844Y-200000D01*
X14144750Y-200000D01*
X14153792Y-268683D01*
X14163670Y-343708D01*
X14163671Y-343712D01*
X14219137Y-477622D01*
X14219138Y-477624D01*
X14219139Y-477625D01*
X14307379Y-592621D01*
X14422375Y-680861D01*
X14422376Y-680861D01*
X14422377Y-680862D01*
X14467013Y-699350D01*
X14556291Y-736330D01*
X14683280Y-753048D01*
X14699999Y-755250D01*
X14700000Y-755250D01*
X14700001Y-755250D01*
X14714977Y-753278D01*
X14843709Y-736330D01*
X14977625Y-680861D01*
X15092621Y-592621D01*
X15136960Y-534838D01*
X27987391Y-534838D01*
X28350500Y-897946D01*
X28350501Y-897946D01*
X28713607Y-534838D01*
X29262391Y-534838D01*
X29625500Y-897946D01*
X29625501Y-897946D01*
X29988607Y-534838D01*
X30537391Y-534838D01*
X30900500Y-897946D01*
X30900501Y-897946D01*
X31038273Y-760173D01*
X56277194Y-760173D01*
X56297233Y-963639D01*
X56356582Y-1159283D01*
X56452956Y-1339588D01*
X56452958Y-1339591D01*
X56582658Y-1497631D01*
X56740698Y-1627331D01*
X56740701Y-1627333D01*
X56834788Y-1677623D01*
X56921008Y-1723708D01*
X57116653Y-1783057D01*
X57320117Y-1803096D01*
X57523581Y-1783057D01*
X57719226Y-1723708D01*
X57899534Y-1627332D01*
X58057575Y-1497631D01*
X58187276Y-1339590D01*
X58283652Y-1159282D01*
X58343001Y-963637D01*
X58363040Y-760173D01*
X58343001Y-556709D01*
X58283652Y-361064D01*
X58187276Y-180756D01*
X58187275Y-180754D01*
X58057575Y-22714D01*
X57899535Y106986D01*
X57899532Y106988D01*
X57719227Y203362D01*
X57523583Y262711D01*
X57320117Y282750D01*
X57116650Y262711D01*
X56921006Y203362D01*
X56740701Y106988D01*
X56740698Y106986D01*
X56582658Y-22714D01*
X56452958Y-180754D01*
X56452956Y-180757D01*
X56356582Y-361062D01*
X56297233Y-556706D01*
X56277194Y-760173D01*
X31038273Y-760173D01*
X31263607Y-534838D01*
X31249804Y-526165D01*
X31079638Y-466621D01*
X30900503Y-446438D01*
X30900497Y-446438D01*
X30721361Y-466621D01*
X30721358Y-466622D01*
X30551201Y-526162D01*
X30551191Y-526167D01*
X30537391Y-534837D01*
X30537391Y-534838D01*
X29988607Y-534838D01*
X29974804Y-526165D01*
X29804638Y-466621D01*
X29625503Y-446438D01*
X29625497Y-446438D01*
X29446361Y-466621D01*
X29446358Y-466622D01*
X29276201Y-526162D01*
X29276191Y-526167D01*
X29262391Y-534837D01*
X29262391Y-534838D01*
X28713607Y-534838D01*
X28699804Y-526165D01*
X28529638Y-466621D01*
X28350503Y-446438D01*
X28350497Y-446438D01*
X28171361Y-466621D01*
X28171358Y-466622D01*
X28001201Y-526162D01*
X28001191Y-526167D01*
X27987391Y-534837D01*
X27987391Y-534838D01*
X15136960Y-534838D01*
X15180861Y-477625D01*
X15236330Y-343709D01*
X15255250Y-200000D01*
X15236330Y-56291D01*
X15186641Y63671D01*
X15180862Y77623D01*
X15180861Y77624D01*
X15180861Y77625D01*
X15092621Y192621D01*
X14977625Y280861D01*
X14977624Y280862D01*
X14977622Y280863D01*
X14843712Y336329D01*
X14843710Y336330D01*
X14843709Y336330D01*
X14771854Y345790D01*
X14700001Y355250D01*
X14699999Y355250D01*
X14556291Y336330D01*
X14556287Y336329D01*
X14422377Y280863D01*
X14307379Y192621D01*
X14219137Y77623D01*
X14163671Y-56287D01*
X14163670Y-56291D01*
X14147284Y-180756D01*
X14144750Y-200000D01*
X10167844Y-200000D01*
X10127625Y-169139D01*
X10127624Y-169138D01*
X10127622Y-169137D01*
X9993712Y-113671D01*
X9993710Y-113670D01*
X9993709Y-113670D01*
X9921854Y-104210D01*
X9850001Y-94750D01*
X9849999Y-94750D01*
X9706291Y-113670D01*
X9706287Y-113671D01*
X9572377Y-169137D01*
X9457379Y-257379D01*
X9369137Y-372377D01*
X9313671Y-506287D01*
X9313670Y-506291D01*
X9294750Y-649999D01*
X9294750Y-650000D01*
X-6049500Y-650000D01*
X-6049500Y361000D01*
X22070250Y361000D01*
X22080800Y280863D01*
X22089170Y217292D01*
X22089171Y217288D01*
X22144637Y83378D01*
X22144638Y83376D01*
X22144639Y83375D01*
X22232879Y-31621D01*
X22347875Y-119861D01*
X22481791Y-175330D01*
X22608780Y-192048D01*
X22625499Y-194250D01*
X22625500Y-194250D01*
X22625501Y-194250D01*
X22640477Y-192278D01*
X22769209Y-175330D01*
X22830362Y-150000D01*
X45094750Y-150000D01*
X45103362Y-215417D01*
X45113670Y-293708D01*
X45113671Y-293712D01*
X45169137Y-427622D01*
X45169138Y-427624D01*
X45169139Y-427625D01*
X45257379Y-542621D01*
X45372375Y-630861D01*
X45506291Y-686330D01*
X45633280Y-703048D01*
X45649999Y-705250D01*
X45650000Y-705250D01*
X45650001Y-705250D01*
X45664977Y-703278D01*
X45793709Y-686330D01*
X45927625Y-630861D01*
X46003309Y-572786D01*
X46068476Y-547593D01*
X46136921Y-561631D01*
X46154274Y-572782D01*
X46197350Y-605836D01*
X46331266Y-661305D01*
X46458255Y-678023D01*
X46474974Y-680225D01*
X46474975Y-680225D01*
X46474976Y-680225D01*
X46489952Y-678253D01*
X46618684Y-661305D01*
X46752600Y-605836D01*
X46867596Y-517596D01*
X46955836Y-402600D01*
X47011305Y-268684D01*
X47018316Y-215434D01*
X53192735Y-215434D01*
X53199136Y-274962D01*
X53199138Y-274969D01*
X53249380Y-409676D01*
X53249384Y-409683D01*
X53335544Y-524777D01*
X53335547Y-524780D01*
X53450641Y-610940D01*
X53450648Y-610944D01*
X53585355Y-661186D01*
X53585362Y-661188D01*
X53644890Y-667589D01*
X53644907Y-667590D01*
X54230137Y-667590D01*
X54230137Y129050D01*
X54267840Y107282D01*
X54407726Y69799D01*
X54552548Y69799D01*
X54692434Y107282D01*
X54730137Y129050D01*
X54730137Y-667590D01*
X55315367Y-667590D01*
X55315383Y-667589D01*
X55374911Y-661188D01*
X55374918Y-661186D01*
X55509625Y-610944D01*
X55509632Y-610940D01*
X55624726Y-524780D01*
X55624729Y-524777D01*
X55710889Y-409683D01*
X55710893Y-409676D01*
X55761135Y-274969D01*
X55761137Y-274962D01*
X55767538Y-215434D01*
X55767539Y-215417D01*
X55767539Y369812D01*
X54970899Y369812D01*
X54992667Y407515D01*
X55030150Y547401D01*
X55030150Y692223D01*
X54992667Y832109D01*
X54970899Y869812D01*
X55767539Y869812D01*
X55767539Y1455042D01*
X55767538Y1455059D01*
X55761137Y1514587D01*
X55761135Y1514594D01*
X55710893Y1649301D01*
X55710889Y1649308D01*
X55624729Y1764402D01*
X55624726Y1764405D01*
X55509632Y1850565D01*
X55509625Y1850569D01*
X55374918Y1900811D01*
X55374911Y1900813D01*
X55315383Y1907214D01*
X54730137Y1907214D01*
X54730137Y1110575D01*
X54692434Y1132342D01*
X54552548Y1169825D01*
X54407726Y1169825D01*
X54267840Y1132342D01*
X54230137Y1110575D01*
X54230137Y1907214D01*
X53644890Y1907214D01*
X53585362Y1900813D01*
X53585355Y1900811D01*
X53450648Y1850569D01*
X53450641Y1850565D01*
X53335547Y1764405D01*
X53335544Y1764402D01*
X53249384Y1649308D01*
X53249380Y1649301D01*
X53199138Y1514594D01*
X53199136Y1514587D01*
X53192735Y1455059D01*
X53192735Y869812D01*
X53989375Y869812D01*
X53967607Y832109D01*
X53930124Y692223D01*
X53930124Y547401D01*
X53967607Y407515D01*
X53989375Y369812D01*
X53192735Y369812D01*
X53192735Y-215434D01*
X47018316Y-215434D01*
X47030225Y-124975D01*
X47011305Y18734D01*
X46955836Y152650D01*
X46867596Y267646D01*
X46752600Y355886D01*
X46752599Y355887D01*
X46752597Y355888D01*
X46618687Y411354D01*
X46618685Y411355D01*
X46618684Y411355D01*
X46546829Y420815D01*
X46474976Y430275D01*
X46474974Y430275D01*
X46331266Y411355D01*
X46331262Y411354D01*
X46197352Y355888D01*
X46196521Y355250D01*
X46121665Y297812D01*
X46056499Y272618D01*
X45988054Y286656D01*
X45970700Y297808D01*
X45927625Y330861D01*
X45927624Y330862D01*
X45927622Y330863D01*
X45793712Y386329D01*
X45793710Y386330D01*
X45793709Y386330D01*
X45721854Y395790D01*
X45650001Y405250D01*
X45649999Y405250D01*
X45506291Y386330D01*
X45506287Y386329D01*
X45372377Y330863D01*
X45257379Y242621D01*
X45169137Y127623D01*
X45113671Y-6287D01*
X45113670Y-6291D01*
X45094750Y-150000D01*
X22830362Y-150000D01*
X22903125Y-119861D01*
X23018121Y-31621D01*
X23106361Y83375D01*
X23161830Y217291D01*
X23180750Y361000D01*
X23161830Y504709D01*
X23106361Y638625D01*
X23018121Y753621D01*
X22903125Y841861D01*
X22903124Y841862D01*
X22903122Y841863D01*
X22769212Y897329D01*
X22769210Y897330D01*
X22769209Y897330D01*
X22697354Y906790D01*
X22625501Y916250D01*
X22625499Y916250D01*
X22481791Y897330D01*
X22481787Y897329D01*
X22347877Y841863D01*
X22232879Y753621D01*
X22144637Y638623D01*
X22089171Y504713D01*
X22089170Y504709D01*
X22082796Y456291D01*
X22070250Y361000D01*
X-6049500Y361000D01*
X-6049500Y1400000D01*
X6644750Y1400000D01*
X6663670Y1256292D01*
X6663671Y1256288D01*
X6719137Y1122378D01*
X6719138Y1122376D01*
X6719139Y1122375D01*
X6807379Y1007379D01*
X6922375Y919139D01*
X6922376Y919139D01*
X6922377Y919138D01*
X6967013Y900650D01*
X7056291Y863670D01*
X7183280Y846952D01*
X7199999Y844750D01*
X7200000Y844750D01*
X7200001Y844750D01*
X7214977Y846722D01*
X7343709Y863670D01*
X7477625Y919139D01*
X7592621Y1007379D01*
X7680861Y1122375D01*
X7736330Y1256291D01*
X7755250Y1400000D01*
X7736330Y1543709D01*
X7680861Y1677625D01*
X7592621Y1792621D01*
X7477625Y1880861D01*
X7477624Y1880862D01*
X7477622Y1880863D01*
X7343712Y1936329D01*
X7343710Y1936330D01*
X7343709Y1936330D01*
X7271854Y1945790D01*
X7200001Y1955250D01*
X7199999Y1955250D01*
X7056291Y1936330D01*
X7056287Y1936329D01*
X6922377Y1880863D01*
X6807379Y1792621D01*
X6719137Y1677623D01*
X6663671Y1543713D01*
X6663670Y1543709D01*
X6644750Y1400001D01*
X6644750Y1400000D01*
X-6049500Y1400000D01*
X-6049500Y4500000D01*
X11644750Y4500000D01*
X11662698Y4363671D01*
X11663670Y4356292D01*
X11663671Y4356288D01*
X11719137Y4222378D01*
X11719138Y4222376D01*
X11719139Y4222375D01*
X11807379Y4107379D01*
X11922375Y4019139D01*
X12056291Y3963670D01*
X12089834Y3959254D01*
X12153730Y3930987D01*
X12192201Y3872662D01*
X12193032Y3802798D01*
X12155960Y3743574D01*
X12121100Y3721754D01*
X12022377Y3680863D01*
X11907379Y3592621D01*
X11819137Y3477623D01*
X11763671Y3343713D01*
X11763670Y3343709D01*
X11750505Y3243709D01*
X11744750Y3200000D01*
X11757915Y3100000D01*
X11763670Y3056292D01*
X11763671Y3056288D01*
X11819137Y2922378D01*
X11819138Y2922376D01*
X11819139Y2922375D01*
X11907379Y2807379D01*
X12022375Y2719139D01*
X12022376Y2719139D01*
X12022377Y2719138D01*
X12050769Y2707378D01*
X12156291Y2663670D01*
X12283280Y2646952D01*
X12299999Y2644750D01*
X12300000Y2644750D01*
X12300001Y2644750D01*
X12314977Y2646722D01*
X12443709Y2663670D01*
X12577625Y2719139D01*
X12692621Y2807379D01*
X12780861Y2922375D01*
X12836330Y3056291D01*
X12848667Y3150000D01*
X15194750Y3150000D01*
X15213670Y3006292D01*
X15213671Y3006288D01*
X15269137Y2872378D01*
X15269138Y2872376D01*
X15269139Y2872375D01*
X15357379Y2757379D01*
X15472375Y2669139D01*
X15472376Y2669139D01*
X15472377Y2669138D01*
X15517013Y2650650D01*
X15606291Y2613670D01*
X15733280Y2596952D01*
X15749999Y2594750D01*
X15750000Y2594750D01*
X15750001Y2594750D01*
X15764977Y2596722D01*
X15873428Y2611000D01*
X28920250Y2611000D01*
X28933378Y2511281D01*
X28939170Y2467292D01*
X28939171Y2467288D01*
X28994637Y2333378D01*
X28994638Y2333376D01*
X28994639Y2333375D01*
X29082879Y2218379D01*
X29197875Y2130139D01*
X29331791Y2074670D01*
X29458780Y2057952D01*
X29475499Y2055750D01*
X29475500Y2055750D01*
X29475501Y2055750D01*
X29490477Y2057722D01*
X29619209Y2074670D01*
X29753125Y2130139D01*
X29868121Y2218379D01*
X29956361Y2333375D01*
X30011830Y2467291D01*
X30016136Y2500000D01*
X32644750Y2500000D01*
X32663670Y2356292D01*
X32663671Y2356288D01*
X32719137Y2222378D01*
X32719138Y2222376D01*
X32719139Y2222375D01*
X32807379Y2107379D01*
X32922375Y2019139D01*
X33056291Y1963670D01*
X33183280Y1946952D01*
X33199999Y1944750D01*
X33200000Y1944750D01*
X33200001Y1944750D01*
X33214977Y1946722D01*
X33343709Y1963670D01*
X33477625Y2019139D01*
X33592621Y2107379D01*
X33680861Y2222375D01*
X33736330Y2356291D01*
X33755250Y2500000D01*
X33736330Y2643709D01*
X33680861Y2777625D01*
X33592621Y2892621D01*
X33477625Y2980861D01*
X33477624Y2980862D01*
X33477622Y2980863D01*
X33343712Y3036329D01*
X33343710Y3036330D01*
X33343709Y3036330D01*
X33271854Y3045790D01*
X33200001Y3055250D01*
X33199999Y3055250D01*
X33056291Y3036330D01*
X33056287Y3036329D01*
X32922377Y2980863D01*
X32807379Y2892621D01*
X32719137Y2777623D01*
X32663671Y2643713D01*
X32663670Y2643709D01*
X32644750Y2500001D01*
X32644750Y2500000D01*
X30016136Y2500000D01*
X30030750Y2611000D01*
X30030398Y2613670D01*
X30026307Y2644750D01*
X30011830Y2754709D01*
X29956361Y2888625D01*
X29868121Y3003621D01*
X29753125Y3091861D01*
X29753124Y3091862D01*
X29753122Y3091863D01*
X29619212Y3147329D01*
X29619210Y3147330D01*
X29619209Y3147330D01*
X29547354Y3156790D01*
X29475501Y3166250D01*
X29475499Y3166250D01*
X29331791Y3147330D01*
X29331787Y3147329D01*
X29197877Y3091863D01*
X29082879Y3003621D01*
X28994637Y2888623D01*
X28939171Y2754713D01*
X28939170Y2754709D01*
X28920602Y2613670D01*
X28920250Y2611000D01*
X15873428Y2611000D01*
X15893709Y2613670D01*
X16027625Y2669139D01*
X16142621Y2757379D01*
X16230861Y2872375D01*
X16286330Y3006291D01*
X16305250Y3150000D01*
X16286330Y3293709D01*
X16230861Y3427625D01*
X16142621Y3542621D01*
X16027625Y3630861D01*
X16027624Y3630862D01*
X16027622Y3630863D01*
X15893712Y3686329D01*
X15893710Y3686330D01*
X15893709Y3686330D01*
X15821854Y3695790D01*
X15750001Y3705250D01*
X15749999Y3705250D01*
X15606291Y3686330D01*
X15606287Y3686329D01*
X15472377Y3630863D01*
X15357379Y3542621D01*
X15269137Y3427623D01*
X15213671Y3293713D01*
X15213670Y3293709D01*
X15194750Y3150001D01*
X15194750Y3150000D01*
X12848667Y3150000D01*
X12855250Y3200000D01*
X12836330Y3343709D01*
X12786641Y3463671D01*
X12780862Y3477623D01*
X12780861Y3477624D01*
X12780861Y3477625D01*
X12692621Y3592621D01*
X12577625Y3680861D01*
X12577624Y3680862D01*
X12577622Y3680863D01*
X12443712Y3736329D01*
X12443709Y3736330D01*
X12410162Y3740747D01*
X12346267Y3769016D01*
X12307797Y3827341D01*
X12306967Y3897206D01*
X12344041Y3956428D01*
X12378892Y3978244D01*
X12477625Y4019139D01*
X12592621Y4107379D01*
X12663692Y4200000D01*
X16444750Y4200000D01*
X16452160Y4143713D01*
X16463670Y4056292D01*
X16463671Y4056288D01*
X16519137Y3922378D01*
X16519138Y3922376D01*
X16519139Y3922375D01*
X16607379Y3807379D01*
X16722375Y3719139D01*
X16722376Y3719139D01*
X16722377Y3719138D01*
X16767013Y3700650D01*
X16856291Y3663670D01*
X16983280Y3646952D01*
X16999999Y3644750D01*
X17000000Y3644750D01*
X17000001Y3644750D01*
X17014977Y3646722D01*
X17143709Y3663670D01*
X17277625Y3719139D01*
X17392621Y3807379D01*
X17480861Y3922375D01*
X17513014Y4000000D01*
X33444750Y4000000D01*
X33450486Y3956428D01*
X33463670Y3856292D01*
X33463671Y3856288D01*
X33519137Y3722378D01*
X33519138Y3722376D01*
X33519139Y3722375D01*
X33607379Y3607379D01*
X33722375Y3519139D01*
X33856291Y3463670D01*
X33983280Y3446952D01*
X33999999Y3444750D01*
X34000000Y3444750D01*
X34000001Y3444750D01*
X34014977Y3446722D01*
X34143709Y3463670D01*
X34277625Y3519139D01*
X34374515Y3593486D01*
X34439682Y3618679D01*
X34508127Y3604641D01*
X34525480Y3593490D01*
X34622375Y3519139D01*
X34756291Y3463670D01*
X34883280Y3446952D01*
X34899999Y3444750D01*
X34900000Y3444750D01*
X34900001Y3444750D01*
X34951525Y3451534D01*
X35043709Y3463670D01*
X35043709Y3463671D01*
X35051766Y3464731D01*
X35052142Y3461874D01*
X35108078Y3460554D01*
X35165949Y3421403D01*
X35193466Y3357181D01*
X35184907Y3294983D01*
X35163670Y3243709D01*
X35144750Y3100000D01*
X35153132Y3036330D01*
X35163670Y2956292D01*
X35163671Y2956288D01*
X35219137Y2822378D01*
X35219138Y2822376D01*
X35219139Y2822375D01*
X35307379Y2707379D01*
X35316711Y2700218D01*
X35319113Y2698375D01*
X35360316Y2641947D01*
X35364470Y2572201D01*
X35330257Y2511281D01*
X35319113Y2501625D01*
X35307381Y2492623D01*
X35307380Y2492622D01*
X35307379Y2492621D01*
X35287943Y2467291D01*
X35219137Y2377623D01*
X35163671Y2243713D01*
X35163670Y2243709D01*
X35145722Y2107380D01*
X35144750Y2100000D01*
X35162698Y1963671D01*
X35163670Y1956292D01*
X35163671Y1956288D01*
X35219137Y1822378D01*
X35219138Y1822376D01*
X35219139Y1822375D01*
X35307379Y1707379D01*
X35316711Y1700218D01*
X35319113Y1698375D01*
X35360316Y1641947D01*
X35364470Y1572201D01*
X35330257Y1511281D01*
X35319113Y1501625D01*
X35307381Y1492623D01*
X35307380Y1492622D01*
X35307379Y1492621D01*
X35263259Y1435123D01*
X35219137Y1377623D01*
X35163671Y1243713D01*
X35163670Y1243709D01*
X35150505Y1143709D01*
X35144750Y1100000D01*
X35157915Y1000000D01*
X35163670Y956292D01*
X35163671Y956288D01*
X35219137Y822378D01*
X35219138Y822376D01*
X35219139Y822375D01*
X35307379Y707379D01*
X35422375Y619139D01*
X35422376Y619139D01*
X35422377Y619138D01*
X35467013Y600650D01*
X35556291Y563670D01*
X35679864Y547401D01*
X35699999Y544750D01*
X35700000Y544750D01*
X35700001Y544750D01*
X35720136Y547401D01*
X35843709Y563670D01*
X35977625Y619139D01*
X36092621Y707379D01*
X36180861Y822375D01*
X36236330Y956291D01*
X36242085Y1000000D01*
X43144750Y1000000D01*
X43162698Y863671D01*
X43163670Y856292D01*
X43163671Y856288D01*
X43219137Y722378D01*
X43219138Y722376D01*
X43219139Y722375D01*
X43307379Y607379D01*
X43422375Y519139D01*
X43556291Y463670D01*
X43683280Y446952D01*
X43699999Y444750D01*
X43700000Y444750D01*
X43700001Y444750D01*
X43714977Y446722D01*
X43843709Y463670D01*
X43977625Y519139D01*
X44083005Y600000D01*
X49294750Y600000D01*
X49312698Y463671D01*
X49313670Y456292D01*
X49313671Y456288D01*
X49369137Y322378D01*
X49369138Y322376D01*
X49369139Y322375D01*
X49457379Y207379D01*
X49572375Y119139D01*
X49572376Y119139D01*
X49572377Y119138D01*
X49601715Y106986D01*
X49706291Y63670D01*
X49833280Y46952D01*
X49849999Y44750D01*
X49850000Y44750D01*
X49850001Y44750D01*
X49864977Y46722D01*
X49993709Y63670D01*
X50127625Y119139D01*
X50242621Y207379D01*
X50330861Y322375D01*
X50386330Y456291D01*
X50405250Y600000D01*
X50386330Y743709D01*
X50336641Y863671D01*
X50330862Y877623D01*
X50330861Y877624D01*
X50330861Y877625D01*
X50242621Y992621D01*
X50127625Y1080861D01*
X50127624Y1080862D01*
X50127622Y1080863D01*
X49993712Y1136329D01*
X49993710Y1136330D01*
X49993709Y1136330D01*
X49921854Y1145790D01*
X49850001Y1155250D01*
X49849999Y1155250D01*
X49706291Y1136330D01*
X49706287Y1136329D01*
X49572377Y1080863D01*
X49457379Y992621D01*
X49369137Y877623D01*
X49313671Y743713D01*
X49313670Y743709D01*
X49295722Y607380D01*
X49294750Y600000D01*
X44083005Y600000D01*
X44092621Y607379D01*
X44180861Y722375D01*
X44236330Y856291D01*
X44255250Y1000000D01*
X44236330Y1143709D01*
X44180861Y1277625D01*
X44092621Y1392621D01*
X43977625Y1480861D01*
X43977624Y1480862D01*
X43977622Y1480863D01*
X43843712Y1536329D01*
X43843710Y1536330D01*
X43843709Y1536330D01*
X43771854Y1545790D01*
X43700001Y1555250D01*
X43699999Y1555250D01*
X43556291Y1536330D01*
X43556287Y1536329D01*
X43422377Y1480863D01*
X43307379Y1392621D01*
X43219137Y1277623D01*
X43163671Y1143713D01*
X43163670Y1143709D01*
X43145722Y1007380D01*
X43144750Y1000000D01*
X36242085Y1000000D01*
X36255250Y1100000D01*
X36236330Y1243709D01*
X36180861Y1377625D01*
X36092621Y1492621D01*
X36080886Y1501626D01*
X36039685Y1558050D01*
X36035529Y1627796D01*
X36069740Y1688717D01*
X36080876Y1698368D01*
X36092621Y1707379D01*
X36180861Y1822375D01*
X36236330Y1956291D01*
X36255250Y2100000D01*
X36236330Y2243709D01*
X36180861Y2377625D01*
X36092621Y2492621D01*
X36080886Y2501626D01*
X36039685Y2558050D01*
X36035529Y2627796D01*
X36069740Y2688717D01*
X36080876Y2698368D01*
X36092621Y2707379D01*
X36180861Y2822375D01*
X36236330Y2956291D01*
X36255250Y3100000D01*
X36236330Y3243709D01*
X36180861Y3377625D01*
X36092621Y3492621D01*
X35977625Y3580861D01*
X35977624Y3580862D01*
X35977622Y3580863D01*
X35843712Y3636329D01*
X35843710Y3636330D01*
X35843709Y3636330D01*
X35771854Y3645790D01*
X35700001Y3655250D01*
X35699999Y3655250D01*
X35648474Y3648467D01*
X35556291Y3636330D01*
X35556290Y3636330D01*
X35548234Y3635269D01*
X35547859Y3638117D01*
X35491863Y3639466D01*
X35434011Y3678645D01*
X35406526Y3742881D01*
X35415091Y3805016D01*
X35436330Y3856291D01*
X35455250Y4000000D01*
X35436330Y4143709D01*
X35425440Y4170000D01*
X49964699Y4170000D01*
X49983619Y4026292D01*
X49983620Y4026288D01*
X50039086Y3892378D01*
X50039087Y3892376D01*
X50039088Y3892375D01*
X50127328Y3777379D01*
X50242324Y3689139D01*
X50242325Y3689139D01*
X50242326Y3689138D01*
X50249108Y3686329D01*
X50376240Y3633670D01*
X50503229Y3616952D01*
X50519948Y3614750D01*
X50519949Y3614750D01*
X50519950Y3614750D01*
X50534926Y3616722D01*
X50663658Y3633670D01*
X50797574Y3689139D01*
X50912570Y3777379D01*
X51000810Y3892375D01*
X51056279Y4026291D01*
X51075199Y4170000D01*
X51056279Y4313709D01*
X51000810Y4447625D01*
X50912570Y4562621D01*
X50797574Y4650861D01*
X50797573Y4650862D01*
X50797571Y4650863D01*
X50663661Y4706329D01*
X50663659Y4706330D01*
X50663658Y4706330D01*
X50591803Y4715790D01*
X50519950Y4725250D01*
X50519948Y4725250D01*
X50376240Y4706330D01*
X50376236Y4706329D01*
X50242326Y4650863D01*
X50127328Y4562621D01*
X50039086Y4447623D01*
X49983620Y4313713D01*
X49983619Y4313709D01*
X49964699Y4170001D01*
X49964699Y4170000D01*
X35425440Y4170000D01*
X35395356Y4242631D01*
X35387887Y4312100D01*
X35419163Y4374579D01*
X35479252Y4410231D01*
X35549077Y4407737D01*
X35557369Y4404644D01*
X35586396Y4392621D01*
X35656291Y4363670D01*
X35783280Y4346952D01*
X35799999Y4344750D01*
X35800000Y4344750D01*
X35800001Y4344750D01*
X35814977Y4346722D01*
X35943709Y4363670D01*
X36077625Y4419139D01*
X36174515Y4493486D01*
X36239682Y4518679D01*
X36308127Y4504641D01*
X36325480Y4493490D01*
X36422375Y4419139D01*
X36422376Y4419139D01*
X36422377Y4419138D01*
X36467013Y4400650D01*
X36556291Y4363670D01*
X36683280Y4346952D01*
X36699999Y4344750D01*
X36700000Y4344750D01*
X36700001Y4344750D01*
X36714977Y4346722D01*
X36843709Y4363670D01*
X36977625Y4419139D01*
X37092621Y4507379D01*
X37180861Y4622375D01*
X37236330Y4756291D01*
X37255250Y4900000D01*
X37236330Y5043709D01*
X37186641Y5163671D01*
X37180862Y5177623D01*
X37180861Y5177624D01*
X37180861Y5177625D01*
X37092621Y5292621D01*
X36977625Y5380861D01*
X36977624Y5380862D01*
X36977622Y5380863D01*
X36843712Y5436329D01*
X36843710Y5436330D01*
X36843709Y5436330D01*
X36771854Y5445790D01*
X36700001Y5455250D01*
X36699999Y5455250D01*
X36556291Y5436330D01*
X36556287Y5436329D01*
X36422377Y5380863D01*
X36418155Y5377623D01*
X36325484Y5306515D01*
X36260318Y5281321D01*
X36191873Y5295359D01*
X36174519Y5306511D01*
X36077625Y5380861D01*
X36077624Y5380862D01*
X36077622Y5380863D01*
X35943712Y5436329D01*
X35943710Y5436330D01*
X35943709Y5436330D01*
X35871854Y5445790D01*
X35800001Y5455250D01*
X35799999Y5455250D01*
X35656291Y5436330D01*
X35656287Y5436329D01*
X35522377Y5380863D01*
X35518155Y5377623D01*
X35425484Y5306515D01*
X35360318Y5281321D01*
X35291873Y5295359D01*
X35274519Y5306511D01*
X35177625Y5380861D01*
X35177624Y5380862D01*
X35177622Y5380863D01*
X35043712Y5436329D01*
X35043710Y5436330D01*
X35043709Y5436330D01*
X34971854Y5445790D01*
X34900001Y5455250D01*
X34899999Y5455250D01*
X34756291Y5436330D01*
X34756287Y5436329D01*
X34622377Y5380863D01*
X34618155Y5377623D01*
X34525484Y5306515D01*
X34460318Y5281321D01*
X34391873Y5295359D01*
X34374519Y5306511D01*
X34277625Y5380861D01*
X34277624Y5380862D01*
X34277622Y5380863D01*
X34143712Y5436329D01*
X34143710Y5436330D01*
X34143709Y5436330D01*
X34071854Y5445790D01*
X34000001Y5455250D01*
X33999999Y5455250D01*
X33856291Y5436330D01*
X33856287Y5436329D01*
X33722377Y5380863D01*
X33607379Y5292621D01*
X33519137Y5177623D01*
X33463671Y5043713D01*
X33463670Y5043709D01*
X33444750Y4900001D01*
X33444750Y4900000D01*
X33463670Y4756292D01*
X33463671Y4756288D01*
X33519137Y4622378D01*
X33519138Y4622376D01*
X33519139Y4622375D01*
X33593485Y4525485D01*
X33618679Y4460318D01*
X33604641Y4391873D01*
X33593489Y4374520D01*
X33550000Y4317844D01*
X33519137Y4277623D01*
X33463671Y4143713D01*
X33463670Y4143709D01*
X33447270Y4019138D01*
X33444750Y4000000D01*
X17513014Y4000000D01*
X17536330Y4056291D01*
X17555250Y4200000D01*
X17536330Y4343709D01*
X17493287Y4447625D01*
X17480862Y4477623D01*
X17480861Y4477624D01*
X17480861Y4477625D01*
X17392621Y4592621D01*
X17277625Y4680861D01*
X17277624Y4680862D01*
X17277622Y4680863D01*
X17143712Y4736329D01*
X17143710Y4736330D01*
X17143709Y4736330D01*
X17071854Y4745790D01*
X17000001Y4755250D01*
X16999999Y4755250D01*
X16856291Y4736330D01*
X16856287Y4736329D01*
X16722377Y4680863D01*
X16607379Y4592621D01*
X16519137Y4477623D01*
X16463671Y4343713D01*
X16463670Y4343709D01*
X16450363Y4242631D01*
X16444750Y4200000D01*
X12663692Y4200000D01*
X12680861Y4222375D01*
X12736330Y4356291D01*
X12755250Y4500000D01*
X12736330Y4643709D01*
X12680861Y4777625D01*
X12592621Y4892621D01*
X12477625Y4980861D01*
X12477624Y4980862D01*
X12477622Y4980863D01*
X12343712Y5036329D01*
X12343710Y5036330D01*
X12343709Y5036330D01*
X12271854Y5045790D01*
X12200001Y5055250D01*
X12199999Y5055250D01*
X12056291Y5036330D01*
X12056287Y5036329D01*
X11922377Y4980863D01*
X11807379Y4892621D01*
X11719137Y4777623D01*
X11663671Y4643713D01*
X11663670Y4643709D01*
X11645722Y4507380D01*
X11644750Y4500000D01*
X-6049500Y4500000D01*
X-6049500Y5100000D01*
X9144750Y5100000D01*
X9153132Y5036330D01*
X9163670Y4956292D01*
X9163671Y4956288D01*
X9219137Y4822378D01*
X9219138Y4822376D01*
X9219139Y4822375D01*
X9307379Y4707379D01*
X9422375Y4619139D01*
X9556291Y4563670D01*
X9683280Y4546952D01*
X9699999Y4544750D01*
X9700000Y4544750D01*
X9700001Y4544750D01*
X9714977Y4546722D01*
X9843709Y4563670D01*
X9977625Y4619139D01*
X10092621Y4707379D01*
X10180861Y4822375D01*
X10236330Y4956291D01*
X10255250Y5100000D01*
X10236330Y5243709D01*
X10180861Y5377625D01*
X10092621Y5492621D01*
X9977625Y5580861D01*
X9977624Y5580862D01*
X9977622Y5580863D01*
X9845860Y5635439D01*
X9791456Y5679279D01*
X9784559Y5700000D01*
X16644750Y5700000D01*
X16657915Y5600000D01*
X16663670Y5556292D01*
X16663671Y5556288D01*
X16719137Y5422378D01*
X16719138Y5422376D01*
X16719139Y5422375D01*
X16807379Y5307379D01*
X16922375Y5219139D01*
X16922376Y5219139D01*
X16922377Y5219138D01*
X16967013Y5200650D01*
X17056291Y5163670D01*
X17183280Y5146952D01*
X17199999Y5144750D01*
X17200000Y5144750D01*
X17200001Y5144750D01*
X17214977Y5146722D01*
X17343709Y5163670D01*
X17477625Y5219139D01*
X17592621Y5307379D01*
X17677960Y5418596D01*
X17734387Y5459797D01*
X17804133Y5463952D01*
X17865053Y5429740D01*
X17890896Y5390560D01*
X17919137Y5322378D01*
X17919138Y5322376D01*
X17919139Y5322375D01*
X18007379Y5207379D01*
X18122375Y5119139D01*
X18256291Y5063670D01*
X18383280Y5046952D01*
X18399999Y5044750D01*
X18400000Y5044750D01*
X18400001Y5044750D01*
X18414977Y5046722D01*
X18543709Y5063670D01*
X18677625Y5119139D01*
X18792621Y5207379D01*
X18880861Y5322375D01*
X18913014Y5400000D01*
X27844750Y5400000D01*
X27856695Y5309267D01*
X27863670Y5256292D01*
X27863671Y5256288D01*
X27919137Y5122378D01*
X27919138Y5122376D01*
X27919139Y5122375D01*
X28007379Y5007379D01*
X28122375Y4919139D01*
X28256291Y4863670D01*
X28383280Y4846952D01*
X28399999Y4844750D01*
X28400000Y4844750D01*
X28400001Y4844750D01*
X28414977Y4846722D01*
X28543709Y4863670D01*
X28677625Y4919139D01*
X28792621Y5007379D01*
X28880861Y5122375D01*
X28936330Y5256291D01*
X28955250Y5400000D01*
X28936330Y5543709D01*
X28890129Y5655250D01*
X28880862Y5677623D01*
X28880861Y5677624D01*
X28880861Y5677625D01*
X28792621Y5792621D01*
X28677625Y5880861D01*
X28677624Y5880862D01*
X28677622Y5880863D01*
X28543712Y5936329D01*
X28543710Y5936330D01*
X28543709Y5936330D01*
X28471854Y5945790D01*
X28400001Y5955250D01*
X28399999Y5955250D01*
X28256291Y5936330D01*
X28256287Y5936329D01*
X28122377Y5880863D01*
X28007379Y5792621D01*
X27919137Y5677623D01*
X27863671Y5543713D01*
X27863670Y5543709D01*
X27852623Y5459797D01*
X27844750Y5400000D01*
X18913014Y5400000D01*
X18936330Y5456291D01*
X18955250Y5600000D01*
X18936330Y5743709D01*
X18880861Y5877625D01*
X18792621Y5992621D01*
X18677625Y6080861D01*
X18677624Y6080862D01*
X18677622Y6080863D01*
X18543712Y6136329D01*
X18543710Y6136330D01*
X18543709Y6136330D01*
X18471854Y6145790D01*
X18400001Y6155250D01*
X18399999Y6155250D01*
X18256291Y6136330D01*
X18256287Y6136329D01*
X18122377Y6080863D01*
X18007376Y5992619D01*
X17922039Y5881406D01*
X17865611Y5840203D01*
X17795865Y5836049D01*
X17734945Y5870262D01*
X17709104Y5909439D01*
X17680861Y5977625D01*
X17592621Y6092621D01*
X17477625Y6180861D01*
X17477624Y6180862D01*
X17477622Y6180863D01*
X17343712Y6236329D01*
X17343710Y6236330D01*
X17343709Y6236330D01*
X17229775Y6251330D01*
X17200001Y6255250D01*
X17199999Y6255250D01*
X17056291Y6236330D01*
X17056287Y6236329D01*
X16922377Y6180863D01*
X16807379Y6092621D01*
X16719137Y5977623D01*
X16663671Y5843713D01*
X16663670Y5843709D01*
X16650505Y5743709D01*
X16644750Y5700000D01*
X9784559Y5700000D01*
X9769391Y5745573D01*
X9786670Y5813273D01*
X9837807Y5860884D01*
X9845860Y5864561D01*
X9954214Y5909442D01*
X9977625Y5919139D01*
X10092621Y6007379D01*
X10180861Y6122375D01*
X10236330Y6256291D01*
X10255250Y6400000D01*
X10236330Y6543709D01*
X10218813Y6586000D01*
X19522350Y6586000D01*
X19541270Y6442292D01*
X19541271Y6442288D01*
X19596737Y6308378D01*
X19596738Y6308376D01*
X19596739Y6308375D01*
X19684979Y6193379D01*
X19799975Y6105139D01*
X19799976Y6105139D01*
X19799977Y6105138D01*
X19844613Y6086650D01*
X19933891Y6049670D01*
X20060880Y6032952D01*
X20077599Y6030750D01*
X20077600Y6030750D01*
X20077601Y6030750D01*
X20092577Y6032722D01*
X20221309Y6049670D01*
X20355225Y6105139D01*
X20470221Y6193379D01*
X20558461Y6308375D01*
X20613930Y6442291D01*
X20632850Y6586000D01*
X20613930Y6729709D01*
X20558461Y6863625D01*
X20470221Y6978621D01*
X20355225Y7066861D01*
X20355224Y7066862D01*
X20355222Y7066863D01*
X20221312Y7122329D01*
X20221310Y7122330D01*
X20221309Y7122330D01*
X20149454Y7131790D01*
X20077601Y7141250D01*
X20077599Y7141250D01*
X19933891Y7122330D01*
X19933887Y7122329D01*
X19799977Y7066863D01*
X19684979Y6978621D01*
X19596737Y6863623D01*
X19541271Y6729713D01*
X19541270Y6729709D01*
X19522350Y6586001D01*
X19522350Y6586000D01*
X10218813Y6586000D01*
X10180861Y6677625D01*
X10092621Y6792621D01*
X9977625Y6880861D01*
X9977624Y6880862D01*
X9977622Y6880863D01*
X9843712Y6936329D01*
X9843710Y6936330D01*
X9843709Y6936330D01*
X9771854Y6945790D01*
X9700001Y6955250D01*
X9699999Y6955250D01*
X9556291Y6936330D01*
X9556287Y6936329D01*
X9422377Y6880863D01*
X9307379Y6792621D01*
X9219137Y6677623D01*
X9163671Y6543713D01*
X9163670Y6543709D01*
X9144750Y6400000D01*
X9156812Y6308378D01*
X9163670Y6256292D01*
X9163671Y6256288D01*
X9219137Y6122378D01*
X9219138Y6122376D01*
X9219139Y6122375D01*
X9307379Y6007379D01*
X9422375Y5919139D01*
X9422376Y5919139D01*
X9422377Y5919138D01*
X9554139Y5864561D01*
X9608543Y5820720D01*
X9630608Y5754426D01*
X9613329Y5686727D01*
X9562192Y5639116D01*
X9554139Y5635439D01*
X9422377Y5580863D01*
X9307379Y5492621D01*
X9219137Y5377623D01*
X9163671Y5243713D01*
X9163670Y5243709D01*
X9147270Y5119138D01*
X9144750Y5100000D01*
X-6049500Y5100000D01*
X-6049500Y7146200D01*
X4574750Y7146200D01*
X4593026Y7007379D01*
X4593670Y7002492D01*
X4593671Y7002488D01*
X4649137Y6868578D01*
X4649138Y6868576D01*
X4649139Y6868575D01*
X4737379Y6753579D01*
X4852375Y6665339D01*
X4986291Y6609870D01*
X5113280Y6593152D01*
X5129999Y6590950D01*
X5130000Y6590950D01*
X5130001Y6590950D01*
X5144977Y6592922D01*
X5273709Y6609870D01*
X5407625Y6665339D01*
X5522621Y6753579D01*
X5610861Y6868575D01*
X5666330Y7002491D01*
X5685250Y7146200D01*
X5666330Y7289909D01*
X5629350Y7379187D01*
X5610862Y7423823D01*
X5610861Y7423824D01*
X5610861Y7423825D01*
X5552410Y7500000D01*
X16144750Y7500000D01*
X16157915Y7400000D01*
X16163670Y7356292D01*
X16163671Y7356288D01*
X16219137Y7222378D01*
X16219138Y7222376D01*
X16219139Y7222375D01*
X16307379Y7107379D01*
X16422375Y7019139D01*
X16422376Y7019139D01*
X16422377Y7019138D01*
X16462565Y7002492D01*
X16556291Y6963670D01*
X16683280Y6946952D01*
X16699999Y6944750D01*
X16700000Y6944750D01*
X16700001Y6944750D01*
X16714977Y6946722D01*
X16843709Y6963670D01*
X16977625Y7019139D01*
X17092621Y7107379D01*
X17180861Y7222375D01*
X17236330Y7356291D01*
X17242085Y7400000D01*
X37644750Y7400000D01*
X37659243Y7289913D01*
X37663670Y7256292D01*
X37663671Y7256288D01*
X37719137Y7122378D01*
X37719138Y7122376D01*
X37719139Y7122375D01*
X37807379Y7007379D01*
X37922375Y6919139D01*
X38056291Y6863670D01*
X38183280Y6846952D01*
X38199999Y6844750D01*
X38200000Y6844750D01*
X38200001Y6844750D01*
X38214977Y6846722D01*
X38343709Y6863670D01*
X38477625Y6919139D01*
X38592621Y7007379D01*
X38680861Y7122375D01*
X38685439Y7133430D01*
X38729279Y7187830D01*
X38795573Y7209896D01*
X38863272Y7192617D01*
X38910883Y7141481D01*
X38914553Y7133447D01*
X38919139Y7122375D01*
X39007379Y7007379D01*
X39122375Y6919139D01*
X39256291Y6863670D01*
X39383280Y6846952D01*
X39399999Y6844750D01*
X39400000Y6844750D01*
X39400001Y6844750D01*
X39414977Y6846722D01*
X39543709Y6863670D01*
X39677625Y6919139D01*
X39792621Y7007379D01*
X39880861Y7122375D01*
X39936330Y7256291D01*
X39955250Y7400000D01*
X39936330Y7543709D01*
X39913015Y7599997D01*
X52894916Y7599997D01*
X52915235Y7251131D01*
X52915236Y7251120D01*
X52975914Y6906998D01*
X52975916Y6906989D01*
X53076145Y6572200D01*
X53214555Y6251330D01*
X53214561Y6251317D01*
X53389289Y5948678D01*
X53597967Y5668375D01*
X53606148Y5659704D01*
X54587836Y6641392D01*
X54660505Y6541371D01*
X54841371Y6360505D01*
X54941389Y6287838D01*
X53962818Y5309267D01*
X53962819Y5309266D01*
X54105484Y5189555D01*
X54397461Y4997520D01*
X54709739Y4840686D01*
X54709745Y4840684D01*
X55038130Y4721162D01*
X55038133Y4721161D01*
X55378171Y4640571D01*
X55725276Y4600001D01*
X55725277Y4600000D01*
X56074723Y4600000D01*
X56074723Y4600001D01*
X56421827Y4640571D01*
X56421829Y4640571D01*
X56761866Y4721161D01*
X56761869Y4721162D01*
X57090254Y4840684D01*
X57090260Y4840686D01*
X57402538Y4997520D01*
X57694509Y5189551D01*
X57694510Y5189552D01*
X57837179Y5309266D01*
X57837180Y5309267D01*
X56858610Y6287838D01*
X56958629Y6360505D01*
X57139495Y6541371D01*
X57212163Y6641390D01*
X58193850Y5659703D01*
X58193851Y5659704D01*
X58202022Y5668364D01*
X58202033Y5668377D01*
X58410710Y5948678D01*
X58585438Y6251317D01*
X58585444Y6251330D01*
X58723854Y6572200D01*
X58824083Y6906989D01*
X58824085Y6906998D01*
X58884763Y7251120D01*
X58884764Y7251131D01*
X58905084Y7599997D01*
X58905084Y7600004D01*
X58884764Y7948870D01*
X58884763Y7948881D01*
X58824085Y8293003D01*
X58824083Y8293012D01*
X58723854Y8627801D01*
X58585444Y8948671D01*
X58585438Y8948684D01*
X58410710Y9251323D01*
X58202032Y9531626D01*
X58193850Y9540298D01*
X57212162Y8558611D01*
X57139495Y8658629D01*
X56958629Y8839495D01*
X56858609Y8912164D01*
X57837180Y9890735D01*
X57837179Y9890736D01*
X57694519Y10010443D01*
X57402538Y10202481D01*
X57090260Y10359315D01*
X57090254Y10359317D01*
X56761869Y10478839D01*
X56761866Y10478840D01*
X56421828Y10559430D01*
X56074723Y10600000D01*
X55725277Y10600000D01*
X55378172Y10559430D01*
X55378170Y10559430D01*
X55038133Y10478840D01*
X55038130Y10478839D01*
X54709745Y10359317D01*
X54709739Y10359315D01*
X54397461Y10202481D01*
X54105480Y10010443D01*
X53962819Y9890736D01*
X53962818Y9890735D01*
X54941390Y8912164D01*
X54841371Y8839495D01*
X54660505Y8658629D01*
X54587836Y8558611D01*
X53606148Y9540299D01*
X53606147Y9540298D01*
X53597976Y9531637D01*
X53597972Y9531632D01*
X53389289Y9251323D01*
X53214561Y8948684D01*
X53214555Y8948671D01*
X53076145Y8627801D01*
X52975916Y8293012D01*
X52975914Y8293003D01*
X52915236Y7948881D01*
X52915235Y7948870D01*
X52894916Y7600004D01*
X52894916Y7599997D01*
X39913015Y7599997D01*
X39880861Y7677625D01*
X39792621Y7792621D01*
X39677625Y7880861D01*
X39677624Y7880862D01*
X39677622Y7880863D01*
X39543712Y7936329D01*
X39543710Y7936330D01*
X39543709Y7936330D01*
X39448460Y7948870D01*
X39400001Y7955250D01*
X39399999Y7955250D01*
X39256291Y7936330D01*
X39256287Y7936329D01*
X39122377Y7880863D01*
X39007379Y7792621D01*
X38919139Y7677625D01*
X38914561Y7666572D01*
X38870719Y7612169D01*
X38804425Y7590105D01*
X38736726Y7607385D01*
X38689116Y7658522D01*
X38685439Y7666572D01*
X38680861Y7677625D01*
X38592621Y7792621D01*
X38477625Y7880861D01*
X38477624Y7880862D01*
X38477622Y7880863D01*
X38343712Y7936329D01*
X38343710Y7936330D01*
X38343709Y7936330D01*
X38248460Y7948870D01*
X38200001Y7955250D01*
X38199999Y7955250D01*
X38056291Y7936330D01*
X38056287Y7936329D01*
X37922377Y7880863D01*
X37807379Y7792621D01*
X37719137Y7677623D01*
X37663671Y7543713D01*
X37663670Y7543709D01*
X37644750Y7400000D01*
X17242085Y7400000D01*
X17255250Y7500000D01*
X17236330Y7643709D01*
X17186641Y7763671D01*
X17180862Y7777623D01*
X17180861Y7777624D01*
X17180861Y7777625D01*
X17092621Y7892621D01*
X16977625Y7980861D01*
X16977624Y7980862D01*
X16977622Y7980863D01*
X16843712Y8036329D01*
X16843710Y8036330D01*
X16843709Y8036330D01*
X16771854Y8045790D01*
X16700001Y8055250D01*
X16699999Y8055250D01*
X16556291Y8036330D01*
X16556287Y8036329D01*
X16422377Y7980863D01*
X16307379Y7892621D01*
X16219137Y7777623D01*
X16163671Y7643713D01*
X16163670Y7643709D01*
X16150505Y7543709D01*
X16144750Y7500000D01*
X5552410Y7500000D01*
X5522621Y7538821D01*
X5407625Y7627061D01*
X5407624Y7627062D01*
X5407622Y7627063D01*
X5273712Y7682529D01*
X5273710Y7682530D01*
X5273709Y7682530D01*
X5201854Y7691990D01*
X5130001Y7701450D01*
X5129999Y7701450D01*
X4986291Y7682530D01*
X4986287Y7682529D01*
X4852377Y7627063D01*
X4737379Y7538821D01*
X4649137Y7423823D01*
X4593671Y7289913D01*
X4593670Y7289909D01*
X4574750Y7146200D01*
X-6049500Y7146200D01*
X-6049500Y8500000D01*
X3544750Y8500000D01*
X3562698Y8363671D01*
X3563670Y8356292D01*
X3563671Y8356288D01*
X3619137Y8222378D01*
X3619138Y8222376D01*
X3619139Y8222375D01*
X3707379Y8107379D01*
X3822375Y8019139D01*
X3956291Y7963670D01*
X4083280Y7946952D01*
X4099999Y7944750D01*
X4100000Y7944750D01*
X4100001Y7944750D01*
X4114977Y7946722D01*
X4243709Y7963670D01*
X4377625Y8019139D01*
X4492621Y8107379D01*
X4580861Y8222375D01*
X4636330Y8356291D01*
X4655250Y8500000D01*
X4636330Y8643709D01*
X4580861Y8777625D01*
X4563692Y8800000D01*
X14144750Y8800000D01*
X14156460Y8711052D01*
X14163670Y8656292D01*
X14163671Y8656288D01*
X14219137Y8522378D01*
X14219138Y8522376D01*
X14219139Y8522375D01*
X14307379Y8407379D01*
X14422375Y8319139D01*
X14556291Y8263670D01*
X14683280Y8246952D01*
X14699999Y8244750D01*
X14700000Y8244750D01*
X14700001Y8244750D01*
X14714977Y8246722D01*
X14843709Y8263670D01*
X14931419Y8300000D01*
X35844750Y8300000D01*
X35863670Y8156292D01*
X35863671Y8156288D01*
X35919137Y8022378D01*
X35919138Y8022376D01*
X35919139Y8022375D01*
X36007379Y7907379D01*
X36122375Y7819139D01*
X36256291Y7763670D01*
X36383280Y7746952D01*
X36399999Y7744750D01*
X36400000Y7744750D01*
X36400001Y7744750D01*
X36414977Y7746722D01*
X36543709Y7763670D01*
X36677625Y7819139D01*
X36792621Y7907379D01*
X36880861Y8022375D01*
X36936330Y8156291D01*
X36955250Y8300000D01*
X36936330Y8443709D01*
X36880861Y8577625D01*
X36792621Y8692621D01*
X36677625Y8780861D01*
X36677624Y8780862D01*
X36677622Y8780863D01*
X36543712Y8836329D01*
X36543710Y8836330D01*
X36543709Y8836330D01*
X36471854Y8845790D01*
X36400001Y8855250D01*
X36399999Y8855250D01*
X36256291Y8836330D01*
X36256287Y8836329D01*
X36122377Y8780863D01*
X36007379Y8692621D01*
X35919137Y8577623D01*
X35863671Y8443713D01*
X35863670Y8443709D01*
X35844750Y8300001D01*
X35844750Y8300000D01*
X14931419Y8300000D01*
X14977625Y8319139D01*
X15092621Y8407379D01*
X15180861Y8522375D01*
X15236330Y8656291D01*
X15255250Y8800000D01*
X15242085Y8900000D01*
X19644750Y8900000D01*
X19658609Y8794729D01*
X19663670Y8756292D01*
X19663671Y8756288D01*
X19719137Y8622378D01*
X19719138Y8622376D01*
X19719139Y8622375D01*
X19807379Y8507379D01*
X19922375Y8419139D01*
X19922376Y8419139D01*
X19922377Y8419138D01*
X19967013Y8400650D01*
X20056291Y8363670D01*
X20183280Y8346952D01*
X20199999Y8344750D01*
X20200000Y8344750D01*
X20200001Y8344750D01*
X20214977Y8346722D01*
X20343709Y8363670D01*
X20477625Y8419139D01*
X20592621Y8507379D01*
X20680861Y8622375D01*
X20736330Y8756291D01*
X20755250Y8900000D01*
X20736330Y9043709D01*
X20680861Y9177625D01*
X20592621Y9292621D01*
X20477625Y9380861D01*
X20477624Y9380862D01*
X20477622Y9380863D01*
X20343712Y9436329D01*
X20343710Y9436330D01*
X20343709Y9436330D01*
X20271854Y9445790D01*
X20200001Y9455250D01*
X20199999Y9455250D01*
X20056291Y9436330D01*
X20056287Y9436329D01*
X19922377Y9380863D01*
X19807379Y9292621D01*
X19719137Y9177623D01*
X19663671Y9043713D01*
X19663670Y9043709D01*
X19650505Y8943709D01*
X19644750Y8900000D01*
X15242085Y8900000D01*
X15236330Y8943709D01*
X15180861Y9077625D01*
X15092621Y9192621D01*
X14977625Y9280861D01*
X14977624Y9280862D01*
X14977622Y9280863D01*
X14843712Y9336329D01*
X14843710Y9336330D01*
X14843709Y9336330D01*
X14771854Y9345790D01*
X14700001Y9355250D01*
X14699999Y9355250D01*
X14556291Y9336330D01*
X14556287Y9336329D01*
X14422377Y9280863D01*
X14307379Y9192621D01*
X14219137Y9077623D01*
X14163671Y8943713D01*
X14163670Y8943709D01*
X14144750Y8800000D01*
X4563692Y8800000D01*
X4492621Y8892621D01*
X4377625Y8980861D01*
X4377624Y8980862D01*
X4377622Y8980863D01*
X4243712Y9036329D01*
X4243710Y9036330D01*
X4243709Y9036330D01*
X4171854Y9045790D01*
X4100001Y9055250D01*
X4099999Y9055250D01*
X3956291Y9036330D01*
X3956287Y9036329D01*
X3822377Y8980863D01*
X3707379Y8892621D01*
X3619137Y8777623D01*
X3563671Y8643713D01*
X3563670Y8643709D01*
X3545722Y8507380D01*
X3544750Y8500000D01*
X-6049500Y8500000D01*
X-6049500Y9582419D01*
X27985419Y9582419D01*
X28023846Y9389233D01*
X28023849Y9389221D01*
X28099226Y9207243D01*
X28099233Y9207230D01*
X28208667Y9043452D01*
X28208670Y9043448D01*
X28347952Y8904166D01*
X28347956Y8904163D01*
X28511734Y8794729D01*
X28511747Y8794722D01*
X28693727Y8719345D01*
X28735419Y8711052D01*
X28735419Y9513926D01*
X28745359Y9496709D01*
X28801214Y9440854D01*
X28869623Y9401358D01*
X28945923Y9380914D01*
X29024915Y9380914D01*
X29101215Y9401358D01*
X29169624Y9440854D01*
X29225479Y9496709D01*
X29235419Y9513926D01*
X29235419Y8711052D01*
X29277109Y8719345D01*
X29277111Y8719345D01*
X29459090Y8794722D01*
X29459103Y8794729D01*
X29622881Y8904163D01*
X29622885Y8904166D01*
X29762167Y9043448D01*
X29762170Y9043452D01*
X29871604Y9207230D01*
X29871611Y9207243D01*
X29946988Y9389221D01*
X29946991Y9389233D01*
X29985418Y9582419D01*
X29985419Y9582422D01*
X29985419Y10099764D01*
X30005104Y10166803D01*
X30057908Y10212558D01*
X30127066Y10222502D01*
X30171416Y10207153D01*
X30193310Y10194512D01*
X30339677Y10155293D01*
X30339679Y10155293D01*
X30491204Y10155293D01*
X30491207Y10155293D01*
X30637574Y10194512D01*
X30768804Y10270277D01*
X30875952Y10377425D01*
X30951717Y10508655D01*
X30990936Y10655022D01*
X35629889Y10655022D01*
X35669108Y10508655D01*
X35669109Y10508654D01*
X35669111Y10508649D01*
X35744868Y10377432D01*
X35744872Y10377427D01*
X35744873Y10377425D01*
X35852021Y10270277D01*
X35852023Y10270276D01*
X35852027Y10270273D01*
X35944894Y10216657D01*
X35983251Y10194512D01*
X36129618Y10155293D01*
X36129620Y10155293D01*
X36281145Y10155293D01*
X36281148Y10155293D01*
X36427515Y10194512D01*
X36439500Y10201432D01*
X36507398Y10217905D01*
X36573425Y10195054D01*
X36616617Y10140133D01*
X36625500Y10094045D01*
X36625500Y9582419D01*
X36663927Y9389233D01*
X36663930Y9389221D01*
X36739307Y9207243D01*
X36739314Y9207230D01*
X36848748Y9043452D01*
X36848751Y9043448D01*
X36988033Y8904166D01*
X36988037Y8904163D01*
X37151815Y8794729D01*
X37151828Y8794722D01*
X37333808Y8719345D01*
X37375500Y8711052D01*
X37375500Y9513926D01*
X37385440Y9496709D01*
X37441295Y9440854D01*
X37509704Y9401358D01*
X37586004Y9380914D01*
X37664996Y9380914D01*
X37741296Y9401358D01*
X37809705Y9440854D01*
X37865560Y9496709D01*
X37875500Y9513926D01*
X37875500Y8711052D01*
X37917190Y8719345D01*
X37917192Y8719345D01*
X38099171Y8794722D01*
X38099184Y8794729D01*
X38262962Y8904163D01*
X38262966Y8904166D01*
X38402248Y9043448D01*
X38402251Y9043452D01*
X38511685Y9207230D01*
X38511692Y9207243D01*
X38587069Y9389221D01*
X38587072Y9389233D01*
X38625499Y9582419D01*
X38625500Y9582422D01*
X38625500Y9980914D01*
X37925500Y9980914D01*
X37925500Y10480914D01*
X38625500Y10480914D01*
X38625500Y10879406D01*
X38625499Y10879410D01*
X38587072Y11072596D01*
X38587069Y11072608D01*
X38511692Y11254586D01*
X38511685Y11254599D01*
X38402251Y11418377D01*
X38402248Y11418381D01*
X38320629Y11500000D01*
X43269678Y11500000D01*
X43288923Y11292309D01*
X43288923Y11292307D01*
X43288924Y11292304D01*
X43324053Y11168839D01*
X43346007Y11091678D01*
X43396842Y10989588D01*
X43438981Y10904962D01*
X43564682Y10738507D01*
X43718829Y10597984D01*
X43896172Y10488177D01*
X44090673Y10412827D01*
X44295707Y10374500D01*
X44295710Y10374500D01*
X44504290Y10374500D01*
X44504293Y10374500D01*
X44709327Y10412827D01*
X44903828Y10488177D01*
X45081171Y10597984D01*
X45235318Y10738507D01*
X45361019Y10904962D01*
X45453994Y11091681D01*
X45511076Y11292304D01*
X45530322Y11500000D01*
X45511076Y11707696D01*
X45453994Y11908319D01*
X45361019Y12095038D01*
X45235318Y12261493D01*
X45081171Y12402016D01*
X44903828Y12511823D01*
X44903827Y12511824D01*
X44761609Y12566919D01*
X44709327Y12587173D01*
X44504293Y12625500D01*
X44295707Y12625500D01*
X44090673Y12587173D01*
X44090670Y12587173D01*
X44090670Y12587172D01*
X43896172Y12511824D01*
X43896171Y12511823D01*
X43718827Y12402015D01*
X43564683Y12261495D01*
X43438981Y12095039D01*
X43346007Y11908323D01*
X43346006Y11908319D01*
X43302751Y11756291D01*
X43288923Y11707692D01*
X43269678Y11500001D01*
X43269678Y11500000D01*
X38320629Y11500000D01*
X38262966Y11557663D01*
X38262962Y11557666D01*
X38099184Y11667100D01*
X38099171Y11667107D01*
X37917191Y11742485D01*
X37917183Y11742487D01*
X37875500Y11750779D01*
X37875500Y10947903D01*
X37865560Y10965119D01*
X37809705Y11020974D01*
X37741296Y11060470D01*
X37664996Y11080914D01*
X37586004Y11080914D01*
X37509704Y11060470D01*
X37441295Y11020974D01*
X37385440Y10965119D01*
X37375500Y10947903D01*
X37375500Y11750778D01*
X37375499Y11750779D01*
X37333816Y11742487D01*
X37333808Y11742485D01*
X37151828Y11667107D01*
X37151815Y11667100D01*
X36988037Y11557666D01*
X36988033Y11557663D01*
X36848751Y11418381D01*
X36848748Y11418377D01*
X36739314Y11254599D01*
X36739308Y11254588D01*
X36737412Y11250009D01*
X36693568Y11195608D01*
X36627273Y11173546D01*
X36560853Y11190080D01*
X36427517Y11267061D01*
X36427516Y11267062D01*
X36427515Y11267062D01*
X36281148Y11306281D01*
X36129618Y11306281D01*
X35983251Y11267062D01*
X35983249Y11267062D01*
X35983249Y11267061D01*
X35983244Y11267059D01*
X35852027Y11191302D01*
X35852019Y11191296D01*
X35744874Y11084151D01*
X35744868Y11084143D01*
X35669111Y10952926D01*
X35669108Y10952921D01*
X35669108Y10952919D01*
X35629889Y10806552D01*
X35629889Y10655022D01*
X30990936Y10655022D01*
X30990936Y10806552D01*
X30951717Y10952919D01*
X30944673Y10965119D01*
X30875956Y11084143D01*
X30875950Y11084151D01*
X30768805Y11191296D01*
X30768797Y11191302D01*
X30637580Y11267059D01*
X30637577Y11267061D01*
X30637574Y11267062D01*
X30491207Y11306281D01*
X30339677Y11306281D01*
X30193310Y11267062D01*
X30193308Y11267062D01*
X30193308Y11267061D01*
X30193303Y11267059D01*
X30055041Y11187234D01*
X30053767Y11189440D01*
X30000465Y11168839D01*
X29932022Y11182884D01*
X29882037Y11231703D01*
X29875599Y11244958D01*
X29871611Y11254587D01*
X29871604Y11254599D01*
X29762170Y11418377D01*
X29762167Y11418381D01*
X29622885Y11557663D01*
X29622881Y11557666D01*
X29459103Y11667100D01*
X29459090Y11667107D01*
X29277110Y11742485D01*
X29277102Y11742487D01*
X29235419Y11750779D01*
X29235419Y10947903D01*
X29225479Y10965119D01*
X29169624Y11020974D01*
X29101215Y11060470D01*
X29024915Y11080914D01*
X28945923Y11080914D01*
X28869623Y11060470D01*
X28801214Y11020974D01*
X28745359Y10965119D01*
X28735419Y10947903D01*
X28735419Y11750778D01*
X28735418Y11750779D01*
X28693735Y11742487D01*
X28693727Y11742485D01*
X28511747Y11667107D01*
X28511734Y11667100D01*
X28347956Y11557666D01*
X28347952Y11557663D01*
X28208670Y11418381D01*
X28208667Y11418377D01*
X28099233Y11254599D01*
X28099226Y11254586D01*
X28023849Y11072608D01*
X28023846Y11072596D01*
X27985419Y10879410D01*
X27985419Y10480914D01*
X28685419Y10480914D01*
X28685419Y9980914D01*
X27985419Y9980914D01*
X27985419Y9582419D01*
X-6049500Y9582419D01*
X-6049500Y10300000D01*
X6644750Y10300000D01*
X6658637Y10194516D01*
X6663670Y10156292D01*
X6663671Y10156288D01*
X6719137Y10022378D01*
X6719138Y10022376D01*
X6719139Y10022375D01*
X6807379Y9907379D01*
X6922375Y9819139D01*
X7056291Y9763670D01*
X7183280Y9746952D01*
X7199999Y9744750D01*
X7200000Y9744750D01*
X7200001Y9744750D01*
X7214977Y9746722D01*
X7343709Y9763670D01*
X7477625Y9819139D01*
X7592621Y9907379D01*
X7680861Y10022375D01*
X7736330Y10156291D01*
X7755250Y10300000D01*
X9294750Y10300000D01*
X9308637Y10194516D01*
X9313670Y10156292D01*
X9313671Y10156288D01*
X9369137Y10022378D01*
X9369138Y10022376D01*
X9369139Y10022375D01*
X9457379Y9907379D01*
X9572375Y9819139D01*
X9706291Y9763670D01*
X9833280Y9746952D01*
X9849999Y9744750D01*
X9850000Y9744750D01*
X9850001Y9744750D01*
X9864977Y9746722D01*
X9993709Y9763670D01*
X10127625Y9819139D01*
X10242621Y9907379D01*
X10330861Y10022375D01*
X10386330Y10156291D01*
X10405250Y10300000D01*
X10386330Y10443709D01*
X10330861Y10577625D01*
X10242621Y10692621D01*
X10127625Y10780861D01*
X10127624Y10780862D01*
X10127622Y10780863D01*
X9993712Y10836329D01*
X9993710Y10836330D01*
X9993709Y10836330D01*
X9921854Y10845790D01*
X9850001Y10855250D01*
X9849999Y10855250D01*
X9706291Y10836330D01*
X9706287Y10836329D01*
X9572377Y10780863D01*
X9457379Y10692621D01*
X9369137Y10577623D01*
X9313671Y10443713D01*
X9313670Y10443709D01*
X9294750Y10300000D01*
X7755250Y10300000D01*
X7736330Y10443709D01*
X7680861Y10577625D01*
X7592621Y10692621D01*
X7477625Y10780861D01*
X7477624Y10780862D01*
X7477622Y10780863D01*
X7343712Y10836329D01*
X7343710Y10836330D01*
X7343709Y10836330D01*
X7271854Y10845790D01*
X7200001Y10855250D01*
X7199999Y10855250D01*
X7056291Y10836330D01*
X7056287Y10836329D01*
X6922377Y10780863D01*
X6807379Y10692621D01*
X6719137Y10577623D01*
X6663671Y10443713D01*
X6663670Y10443709D01*
X6644750Y10300000D01*
X-6049500Y10300000D01*
X-6049500Y13374038D01*
X-4200500Y13374038D01*
X-4198021Y13358389D01*
X-4161090Y13125215D01*
X-4083240Y12885617D01*
X-3968868Y12661152D01*
X-3820799Y12457351D01*
X-3820795Y12457346D01*
X-3642655Y12279206D01*
X-3642650Y12279202D01*
X-3502840Y12177625D01*
X-3438845Y12131130D01*
X-3325657Y12073458D01*
X-3214384Y12016761D01*
X-3214382Y12016761D01*
X-3214379Y12016759D01*
X-2974785Y11938910D01*
X-2725962Y11899500D01*
X-2725961Y11899500D01*
X-2474039Y11899500D01*
X-2474038Y11899500D01*
X-2470881Y11900000D01*
X12494750Y11900000D01*
X12513670Y11756292D01*
X12513671Y11756288D01*
X12569137Y11622378D01*
X12569138Y11622376D01*
X12569139Y11622375D01*
X12657379Y11507379D01*
X12772375Y11419139D01*
X12772376Y11419139D01*
X12772377Y11419138D01*
X12817013Y11400650D01*
X12906291Y11363670D01*
X13033280Y11346952D01*
X13049999Y11344750D01*
X13050000Y11344750D01*
X13050001Y11344750D01*
X13064977Y11346722D01*
X13193709Y11363670D01*
X13327625Y11419139D01*
X13442621Y11507379D01*
X13530861Y11622375D01*
X13586330Y11756291D01*
X13605250Y11900000D01*
X13586330Y12043709D01*
X13530861Y12177625D01*
X13442621Y12292621D01*
X13327625Y12380861D01*
X13327624Y12380862D01*
X13327622Y12380863D01*
X13193712Y12436329D01*
X13193710Y12436330D01*
X13193709Y12436330D01*
X13121854Y12445790D01*
X13050001Y12455250D01*
X13049999Y12455250D01*
X12906291Y12436330D01*
X12906287Y12436329D01*
X12772377Y12380863D01*
X12657379Y12292621D01*
X12569137Y12177623D01*
X12513671Y12043713D01*
X12513670Y12043709D01*
X12494750Y11900001D01*
X12494750Y11900000D01*
X-2470881Y11900000D01*
X-2225215Y11938910D01*
X-1985621Y12016759D01*
X-1761155Y12131130D01*
X-1557344Y12279207D01*
X-1379207Y12457344D01*
X-1348216Y12500000D01*
X21344750Y12500000D01*
X21353132Y12436330D01*
X21363670Y12356292D01*
X21363671Y12356288D01*
X21419137Y12222378D01*
X21419138Y12222376D01*
X21419139Y12222375D01*
X21507379Y12107379D01*
X21622375Y12019139D01*
X21756291Y11963670D01*
X21883280Y11946952D01*
X21899999Y11944750D01*
X21900000Y11944750D01*
X21900001Y11944750D01*
X21914977Y11946722D01*
X22043709Y11963670D01*
X22177625Y12019139D01*
X22292621Y12107379D01*
X22380861Y12222375D01*
X22436330Y12356291D01*
X22455250Y12500000D01*
X22436330Y12643709D01*
X22396653Y12739500D01*
X22380862Y12777623D01*
X22380861Y12777624D01*
X22380861Y12777625D01*
X22292621Y12892621D01*
X22177625Y12980861D01*
X22177624Y12980862D01*
X22177622Y12980863D01*
X22043712Y13036329D01*
X22043710Y13036330D01*
X22043709Y13036330D01*
X21944199Y13049431D01*
X21900001Y13055250D01*
X21899999Y13055250D01*
X21756291Y13036330D01*
X21756287Y13036329D01*
X21622377Y12980863D01*
X21507379Y12892621D01*
X21419137Y12777623D01*
X21363671Y12643713D01*
X21363670Y12643709D01*
X21346307Y12511823D01*
X21344750Y12500000D01*
X-1348216Y12500000D01*
X-1231130Y12661155D01*
X-1116759Y12885621D01*
X-1038910Y13125215D01*
X-999500Y13374038D01*
X-999500Y13500000D01*
X12494750Y13500000D01*
X12511333Y13374039D01*
X12513670Y13356292D01*
X12513671Y13356288D01*
X12569137Y13222378D01*
X12569138Y13222376D01*
X12569139Y13222375D01*
X12657379Y13107379D01*
X12772375Y13019139D01*
X12906291Y12963670D01*
X13033280Y12946952D01*
X13049999Y12944750D01*
X13050000Y12944750D01*
X13050001Y12944750D01*
X13064977Y12946722D01*
X13193709Y12963670D01*
X13327625Y13019139D01*
X13442621Y13107379D01*
X13530861Y13222375D01*
X13586330Y13356291D01*
X13605250Y13500000D01*
X13592085Y13600000D01*
X22344750Y13600000D01*
X22357915Y13500000D01*
X22363670Y13456292D01*
X22363671Y13456288D01*
X22419137Y13322378D01*
X22419138Y13322376D01*
X22419139Y13322375D01*
X22507379Y13207379D01*
X22622375Y13119139D01*
X22622376Y13119139D01*
X22622377Y13119138D01*
X22667013Y13100650D01*
X22756291Y13063670D01*
X22875056Y13048034D01*
X22899999Y13044750D01*
X22900000Y13044750D01*
X22900001Y13044750D01*
X22914977Y13046722D01*
X23043709Y13063670D01*
X23177625Y13119139D01*
X23292621Y13207379D01*
X23380861Y13322375D01*
X23436330Y13456291D01*
X23455250Y13600000D01*
X23436330Y13743709D01*
X23398178Y13835818D01*
X23380862Y13877623D01*
X23380861Y13877624D01*
X23380861Y13877625D01*
X23354096Y13912505D01*
X27985419Y13912505D01*
X28023846Y13719319D01*
X28023849Y13719307D01*
X28099226Y13537329D01*
X28099233Y13537316D01*
X28208667Y13373538D01*
X28208670Y13373534D01*
X28347952Y13234252D01*
X28347956Y13234249D01*
X28511734Y13124815D01*
X28511747Y13124808D01*
X28693727Y13049431D01*
X28735419Y13041138D01*
X28735419Y13844012D01*
X28745359Y13826795D01*
X28801214Y13770940D01*
X28869623Y13731444D01*
X28945923Y13711000D01*
X29024915Y13711000D01*
X29101215Y13731444D01*
X29169624Y13770940D01*
X29225479Y13826795D01*
X29235419Y13844012D01*
X29235419Y13041138D01*
X29277109Y13049431D01*
X29277111Y13049431D01*
X29459090Y13124808D01*
X29459103Y13124815D01*
X29622881Y13234249D01*
X29622885Y13234252D01*
X29762167Y13373534D01*
X29762170Y13373538D01*
X29871604Y13537316D01*
X29871611Y13537329D01*
X29946988Y13719307D01*
X29946991Y13719319D01*
X29985418Y13912505D01*
X36625500Y13912505D01*
X36663927Y13719319D01*
X36663930Y13719307D01*
X36739307Y13537329D01*
X36739314Y13537316D01*
X36848748Y13373538D01*
X36848751Y13373534D01*
X36988033Y13234252D01*
X36988037Y13234249D01*
X37151815Y13124815D01*
X37151828Y13124808D01*
X37333808Y13049431D01*
X37375500Y13041138D01*
X37375500Y13844012D01*
X37385440Y13826795D01*
X37441295Y13770940D01*
X37509704Y13731444D01*
X37586004Y13711000D01*
X37664996Y13711000D01*
X37741296Y13731444D01*
X37809705Y13770940D01*
X37865560Y13826795D01*
X37875500Y13844012D01*
X37875500Y13041138D01*
X37917190Y13049431D01*
X37917192Y13049431D01*
X38099171Y13124808D01*
X38099184Y13124815D01*
X38262962Y13234249D01*
X38262966Y13234252D01*
X38402248Y13373534D01*
X38402251Y13373538D01*
X38511685Y13537316D01*
X38511692Y13537329D01*
X38587069Y13719307D01*
X38587072Y13719319D01*
X38625499Y13912505D01*
X38625500Y13912508D01*
X38625500Y13937649D01*
X41769500Y13937649D01*
X41801522Y13735466D01*
X41864781Y13540777D01*
X41907829Y13456292D01*
X41953376Y13366901D01*
X41957715Y13358387D01*
X42078028Y13192787D01*
X42222786Y13048029D01*
X42353823Y12952827D01*
X42388390Y12927713D01*
X42498704Y12871505D01*
X42570776Y12834782D01*
X42570778Y12834782D01*
X42570781Y12834780D01*
X42675137Y12800873D01*
X42765465Y12771523D01*
X42866557Y12755512D01*
X42967648Y12739500D01*
X42967649Y12739500D01*
X43172351Y12739500D01*
X43172352Y12739500D01*
X43374534Y12771523D01*
X43569219Y12834780D01*
X43751610Y12927713D01*
X43877447Y13019138D01*
X43917213Y13048029D01*
X43917215Y13048032D01*
X43917219Y13048034D01*
X44061966Y13192781D01*
X44061968Y13192785D01*
X44061971Y13192787D01*
X44180762Y13356291D01*
X44182287Y13358390D01*
X44216698Y13425927D01*
X44264672Y13476722D01*
X44332493Y13493518D01*
X44398628Y13470981D01*
X44440738Y13419443D01*
X44456577Y13383334D01*
X44536874Y13260430D01*
X45030689Y13754244D01*
X45049668Y13708426D01*
X45126274Y13593776D01*
X45223776Y13496274D01*
X45338426Y13419668D01*
X45384242Y13400691D01*
X44889015Y12905464D01*
X44889015Y12905462D01*
X44915360Y12884957D01*
X44915371Y12884950D01*
X45115769Y12776501D01*
X45115780Y12776496D01*
X45331298Y12702508D01*
X45556065Y12665000D01*
X45783935Y12665000D01*
X46008701Y12702508D01*
X46224219Y12776496D01*
X46224230Y12776501D01*
X46424627Y12884950D01*
X46424633Y12884954D01*
X46450983Y12905463D01*
X46450984Y12905464D01*
X45955757Y13400691D01*
X46001574Y13419668D01*
X46116224Y13496274D01*
X46213726Y13593776D01*
X46290332Y13708426D01*
X46309309Y13754243D01*
X46803123Y13260429D01*
X46883419Y13383329D01*
X46962557Y13563746D01*
X47007513Y13617232D01*
X47074249Y13637922D01*
X47141576Y13619248D01*
X47187113Y13569208D01*
X47224803Y13493518D01*
X47248981Y13444962D01*
X47374682Y13278507D01*
X47528829Y13137984D01*
X47706172Y13028177D01*
X47900673Y12952827D01*
X48105707Y12914500D01*
X48105710Y12914500D01*
X48314290Y12914500D01*
X48314293Y12914500D01*
X48519327Y12952827D01*
X48632037Y12996492D01*
X48701660Y13002354D01*
X48763400Y12969645D01*
X48797655Y12908748D01*
X48793550Y12838999D01*
X48752387Y12782543D01*
X48749717Y12780547D01*
X48562488Y12644516D01*
X48395485Y12477513D01*
X48395485Y12477512D01*
X48395483Y12477510D01*
X48365564Y12436330D01*
X48256657Y12286434D01*
X48149431Y12075991D01*
X48148812Y12074086D01*
X48148381Y12073458D01*
X48147571Y12071499D01*
X48147159Y12071670D01*
X48109368Y12016416D01*
X48045006Y11989226D01*
X47976161Y12001148D01*
X47924691Y12048399D01*
X47919895Y12057130D01*
X47901019Y12095038D01*
X47775318Y12261493D01*
X47621171Y12402016D01*
X47443828Y12511823D01*
X47443827Y12511824D01*
X47301609Y12566919D01*
X47249327Y12587173D01*
X47044293Y12625500D01*
X46835707Y12625500D01*
X46630673Y12587173D01*
X46630670Y12587173D01*
X46630670Y12587172D01*
X46436172Y12511824D01*
X46436171Y12511823D01*
X46258827Y12402015D01*
X46104683Y12261495D01*
X45978981Y12095039D01*
X45886007Y11908323D01*
X45886006Y11908319D01*
X45842751Y11756291D01*
X45828923Y11707692D01*
X45809678Y11500001D01*
X45809678Y11500000D01*
X45828923Y11292309D01*
X45828923Y11292307D01*
X45828924Y11292304D01*
X45864053Y11168839D01*
X45886007Y11091678D01*
X45936842Y10989588D01*
X45978981Y10904962D01*
X46104682Y10738507D01*
X46258829Y10597984D01*
X46436172Y10488177D01*
X46630673Y10412827D01*
X46835707Y10374500D01*
X46835710Y10374500D01*
X47044290Y10374500D01*
X47044293Y10374500D01*
X47249327Y10412827D01*
X47443828Y10488177D01*
X47621171Y10597984D01*
X47775318Y10738507D01*
X47901019Y10904962D01*
X47919887Y10942855D01*
X47967387Y10994090D01*
X48035050Y11011512D01*
X48101390Y10989588D01*
X48145346Y10935277D01*
X48148814Y10925909D01*
X48149431Y10924009D01*
X48202218Y10820410D01*
X48256657Y10713567D01*
X48395483Y10522490D01*
X48562490Y10355483D01*
X48753567Y10216657D01*
X48851411Y10166803D01*
X48964003Y10109434D01*
X48964005Y10109434D01*
X48964008Y10109432D01*
X49084412Y10070311D01*
X49188631Y10036447D01*
X49421903Y9999500D01*
X49421908Y9999500D01*
X49658097Y9999500D01*
X49891368Y10036447D01*
X50115992Y10109432D01*
X50326433Y10216657D01*
X50517510Y10355483D01*
X50684517Y10522490D01*
X50823343Y10713567D01*
X50930568Y10924008D01*
X51003553Y11148632D01*
X51040500Y11381903D01*
X51040500Y11618098D01*
X51003553Y11851369D01*
X50941056Y12043713D01*
X50930568Y12075992D01*
X50930566Y12075995D01*
X50930566Y12075997D01*
X50855982Y12222375D01*
X50823343Y12286433D01*
X50684517Y12477510D01*
X50517510Y12644517D01*
X50326433Y12783343D01*
X50115996Y12890567D01*
X49891368Y12963554D01*
X49658097Y13000500D01*
X49658092Y13000500D01*
X49421908Y13000500D01*
X49421903Y13000500D01*
X49188631Y12963554D01*
X48964001Y12890566D01*
X48951894Y12884397D01*
X48883224Y12871505D01*
X48818485Y12897785D01*
X48778231Y12954894D01*
X48775243Y13024699D01*
X48810468Y13085039D01*
X48830316Y13100305D01*
X48891171Y13137984D01*
X49045318Y13278507D01*
X49117460Y13374038D01*
X60299500Y13374038D01*
X60301979Y13358389D01*
X60338910Y13125215D01*
X60416760Y12885617D01*
X60531132Y12661152D01*
X60679201Y12457351D01*
X60679205Y12457346D01*
X60857345Y12279206D01*
X60857350Y12279202D01*
X60997160Y12177625D01*
X61061155Y12131130D01*
X61174343Y12073458D01*
X61285616Y12016761D01*
X61285618Y12016761D01*
X61285621Y12016759D01*
X61525215Y11938910D01*
X61774038Y11899500D01*
X61774039Y11899500D01*
X62025961Y11899500D01*
X62025962Y11899500D01*
X62274785Y11938910D01*
X62514379Y12016759D01*
X62738845Y12131130D01*
X62942656Y12279207D01*
X63120793Y12457344D01*
X63268870Y12661155D01*
X63383241Y12885621D01*
X63461090Y13125215D01*
X63500500Y13374038D01*
X63500500Y13625962D01*
X63461090Y13874785D01*
X63383241Y14114379D01*
X63383239Y14114382D01*
X63383239Y14114384D01*
X63317103Y14244182D01*
X63268870Y14338845D01*
X63245091Y14371574D01*
X63120798Y14542650D01*
X63120794Y14542655D01*
X62942654Y14720795D01*
X62942649Y14720799D01*
X62738848Y14868868D01*
X62738847Y14868869D01*
X62738845Y14868870D01*
X62625159Y14926796D01*
X62514383Y14983240D01*
X62274785Y15061090D01*
X62088745Y15090556D01*
X62025962Y15100500D01*
X61774038Y15100500D01*
X61711255Y15090556D01*
X61525214Y15061090D01*
X61285616Y14983240D01*
X61061151Y14868868D01*
X60857350Y14720799D01*
X60857345Y14720795D01*
X60679205Y14542655D01*
X60679201Y14542650D01*
X60531132Y14338849D01*
X60416760Y14114384D01*
X60338910Y13874786D01*
X60302311Y13643709D01*
X60299500Y13625962D01*
X60299500Y13374038D01*
X49117460Y13374038D01*
X49171019Y13444962D01*
X49263994Y13631681D01*
X49321076Y13832304D01*
X49340322Y14040000D01*
X49321076Y14247696D01*
X49263994Y14448319D01*
X49171019Y14635038D01*
X49045318Y14801493D01*
X48891171Y14942016D01*
X48713828Y15051823D01*
X48713827Y15051824D01*
X48561074Y15111000D01*
X48519327Y15127173D01*
X48314293Y15165500D01*
X48105707Y15165500D01*
X47900673Y15127173D01*
X47900670Y15127173D01*
X47900670Y15127172D01*
X47706172Y15051824D01*
X47706171Y15051823D01*
X47528827Y14942015D01*
X47374683Y14801495D01*
X47248982Y14635041D01*
X47187113Y14510792D01*
X47139609Y14459556D01*
X47071946Y14442135D01*
X47005606Y14464061D01*
X46962557Y14516255D01*
X46883421Y14696667D01*
X46803123Y14819573D01*
X46309309Y14325759D01*
X46290332Y14371574D01*
X46213726Y14486224D01*
X46116224Y14583726D01*
X46001574Y14660332D01*
X45955756Y14679310D01*
X46450983Y15174538D01*
X46424626Y15195052D01*
X46224230Y15303500D01*
X46224219Y15303505D01*
X46008701Y15377493D01*
X45783935Y15415000D01*
X45556065Y15415000D01*
X45331298Y15377493D01*
X45115780Y15303505D01*
X45115769Y15303500D01*
X44915366Y15195048D01*
X44889015Y15174539D01*
X44889015Y15174537D01*
X45384242Y14679310D01*
X45338426Y14660332D01*
X45223776Y14583726D01*
X45126274Y14486224D01*
X45049668Y14371574D01*
X45030690Y14325757D01*
X44536874Y14819573D01*
X44456578Y14696669D01*
X44440738Y14660557D01*
X44395781Y14607072D01*
X44329044Y14586383D01*
X44261717Y14605059D01*
X44216698Y14654074D01*
X44215014Y14657380D01*
X44182287Y14721610D01*
X44182285Y14721613D01*
X44182284Y14721615D01*
X44061971Y14887214D01*
X43917213Y15031972D01*
X43751613Y15152285D01*
X43751612Y15152286D01*
X43751610Y15152287D01*
X43667687Y15195048D01*
X43569223Y15245219D01*
X43374534Y15308478D01*
X43199995Y15336122D01*
X43172352Y15340500D01*
X42967648Y15340500D01*
X42943329Y15336649D01*
X42765465Y15308478D01*
X42570776Y15245219D01*
X42388386Y15152285D01*
X42222786Y15031972D01*
X42078028Y14887214D01*
X41957715Y14721614D01*
X41864781Y14539224D01*
X41801522Y14344535D01*
X41769500Y14142352D01*
X41769500Y13937649D01*
X38625500Y13937649D01*
X38625500Y14161000D01*
X37925500Y14161000D01*
X37925500Y14661000D01*
X38625500Y14661000D01*
X38625500Y14909492D01*
X38625499Y14909496D01*
X38587072Y15102682D01*
X38587069Y15102694D01*
X38511692Y15284672D01*
X38511685Y15284685D01*
X38402251Y15448463D01*
X38402248Y15448467D01*
X38262966Y15587749D01*
X38262962Y15587752D01*
X38099184Y15697186D01*
X38099171Y15697193D01*
X37917191Y15772571D01*
X37917183Y15772573D01*
X37875500Y15780865D01*
X37875500Y14977989D01*
X37865560Y14995205D01*
X37809705Y15051060D01*
X37741296Y15090556D01*
X37664996Y15111000D01*
X37586004Y15111000D01*
X37509704Y15090556D01*
X37441295Y15051060D01*
X37385440Y14995205D01*
X37375500Y14977989D01*
X37375500Y15780864D01*
X37375499Y15780865D01*
X37333816Y15772573D01*
X37333808Y15772571D01*
X37151828Y15697193D01*
X37151815Y15697186D01*
X36988037Y15587752D01*
X36988033Y15587749D01*
X36848751Y15448467D01*
X36848748Y15448463D01*
X36739314Y15284685D01*
X36739307Y15284672D01*
X36663930Y15102694D01*
X36663927Y15102682D01*
X36625500Y14909496D01*
X36625500Y14661000D01*
X37325500Y14661000D01*
X37325500Y14161000D01*
X36625500Y14161000D01*
X36625500Y13912505D01*
X29985418Y13912505D01*
X29985419Y13912508D01*
X29985419Y14161000D01*
X29285419Y14161000D01*
X29285419Y14661000D01*
X29985419Y14661000D01*
X29985419Y14909492D01*
X29985418Y14909496D01*
X29946991Y15102682D01*
X29946988Y15102694D01*
X29871611Y15284672D01*
X29871604Y15284685D01*
X29762170Y15448463D01*
X29762167Y15448467D01*
X29622885Y15587749D01*
X29622881Y15587752D01*
X29459103Y15697186D01*
X29459090Y15697193D01*
X29277110Y15772571D01*
X29277102Y15772573D01*
X29235419Y15780865D01*
X29235419Y14977989D01*
X29225479Y14995205D01*
X29169624Y15051060D01*
X29101215Y15090556D01*
X29024915Y15111000D01*
X28945923Y15111000D01*
X28869623Y15090556D01*
X28801214Y15051060D01*
X28745359Y14995205D01*
X28735419Y14977989D01*
X28735419Y15780864D01*
X28735418Y15780865D01*
X28693735Y15772573D01*
X28693727Y15772571D01*
X28511747Y15697193D01*
X28511734Y15697186D01*
X28347956Y15587752D01*
X28347952Y15587749D01*
X28208670Y15448467D01*
X28208667Y15448463D01*
X28099233Y15284685D01*
X28099226Y15284672D01*
X28023849Y15102694D01*
X28023846Y15102682D01*
X27985419Y14909496D01*
X27985419Y14661000D01*
X28685419Y14661000D01*
X28685419Y14161000D01*
X27985419Y14161000D01*
X27985419Y13912505D01*
X23354096Y13912505D01*
X23292621Y13992621D01*
X23177625Y14080861D01*
X23177624Y14080862D01*
X23177622Y14080863D01*
X23043712Y14136329D01*
X23043710Y14136330D01*
X23043709Y14136330D01*
X22971854Y14145790D01*
X22900001Y14155250D01*
X22899999Y14155250D01*
X22756291Y14136330D01*
X22756287Y14136329D01*
X22622377Y14080863D01*
X22507379Y13992621D01*
X22419137Y13877623D01*
X22363671Y13743713D01*
X22363670Y13743709D01*
X22348921Y13631678D01*
X22344750Y13600000D01*
X13592085Y13600000D01*
X13586330Y13643709D01*
X13530861Y13777625D01*
X13442621Y13892621D01*
X13327625Y13980861D01*
X13327624Y13980862D01*
X13327622Y13980863D01*
X13193712Y14036329D01*
X13193710Y14036330D01*
X13193709Y14036330D01*
X13121854Y14045790D01*
X13050001Y14055250D01*
X13049999Y14055250D01*
X12906291Y14036330D01*
X12906287Y14036329D01*
X12772377Y13980863D01*
X12657379Y13892621D01*
X12569137Y13777623D01*
X12513671Y13643713D01*
X12513670Y13643709D01*
X12499665Y13537329D01*
X12494750Y13500000D01*
X-999500Y13500000D01*
X-999500Y13625962D01*
X-1038910Y13874785D01*
X-1116759Y14114379D01*
X-1116761Y14114382D01*
X-1116761Y14114384D01*
X-1182897Y14244182D01*
X-1231130Y14338845D01*
X-1254909Y14371574D01*
X-1379202Y14542650D01*
X-1379206Y14542655D01*
X-1557346Y14720795D01*
X-1557351Y14720799D01*
X-1761152Y14868868D01*
X-1761153Y14868869D01*
X-1761155Y14868870D01*
X-1874841Y14926796D01*
X-1985617Y14983240D01*
X-2191083Y15050000D01*
X12494750Y15050000D01*
X12510970Y14926796D01*
X12513670Y14906292D01*
X12513671Y14906288D01*
X12569137Y14772378D01*
X12569138Y14772376D01*
X12569139Y14772375D01*
X12657379Y14657379D01*
X12772375Y14569139D01*
X12772376Y14569139D01*
X12772377Y14569138D01*
X12817013Y14550650D01*
X12906291Y14513670D01*
X13033280Y14496952D01*
X13049999Y14494750D01*
X13050000Y14494750D01*
X13050001Y14494750D01*
X13064977Y14496722D01*
X13193709Y14513670D01*
X13327625Y14569139D01*
X13442621Y14657379D01*
X13475325Y14700000D01*
X19644750Y14700000D01*
X19661978Y14569139D01*
X19663670Y14556292D01*
X19663671Y14556288D01*
X19719137Y14422378D01*
X19719138Y14422376D01*
X19719139Y14422375D01*
X19807379Y14307379D01*
X19922375Y14219139D01*
X20056291Y14163670D01*
X20183280Y14146952D01*
X20199999Y14144750D01*
X20200000Y14144750D01*
X20200001Y14144750D01*
X20214977Y14146722D01*
X20343709Y14163670D01*
X20477625Y14219139D01*
X20592621Y14307379D01*
X20680861Y14422375D01*
X20736330Y14556291D01*
X20755250Y14700000D01*
X20736330Y14843709D01*
X20680861Y14977625D01*
X20592621Y15092621D01*
X20477625Y15180861D01*
X20477624Y15180862D01*
X20477622Y15180863D01*
X20343712Y15236329D01*
X20343710Y15236330D01*
X20343709Y15236330D01*
X20271854Y15245790D01*
X20200001Y15255250D01*
X20199999Y15255250D01*
X20056291Y15236330D01*
X20056287Y15236329D01*
X19922377Y15180863D01*
X19807379Y15092621D01*
X19719137Y14977623D01*
X19663671Y14843713D01*
X19663670Y14843709D01*
X19646475Y14713099D01*
X19644750Y14700000D01*
X13475325Y14700000D01*
X13530861Y14772375D01*
X13586330Y14906291D01*
X13605250Y15050000D01*
X13605110Y15051060D01*
X13603048Y15066720D01*
X13586330Y15193709D01*
X13530861Y15327625D01*
X13442621Y15442621D01*
X13327625Y15530861D01*
X13327624Y15530862D01*
X13327622Y15530863D01*
X13193712Y15586329D01*
X13193710Y15586330D01*
X13193709Y15586330D01*
X13121854Y15595790D01*
X13050001Y15605250D01*
X13049999Y15605250D01*
X12906291Y15586330D01*
X12906287Y15586329D01*
X12772377Y15530863D01*
X12657379Y15442621D01*
X12569137Y15327623D01*
X12513671Y15193713D01*
X12513670Y15193709D01*
X12494890Y15051060D01*
X12494750Y15050000D01*
X-2191083Y15050000D01*
X-2225215Y15061090D01*
X-2411255Y15090556D01*
X-2474038Y15100500D01*
X-2725962Y15100500D01*
X-2788745Y15090556D01*
X-2974786Y15061090D01*
X-3214384Y14983240D01*
X-3438849Y14868868D01*
X-3642650Y14720799D01*
X-3642655Y14720795D01*
X-3820795Y14542655D01*
X-3820799Y14542650D01*
X-3968868Y14338849D01*
X-4083240Y14114384D01*
X-4161090Y13874786D01*
X-4197689Y13643709D01*
X-4200500Y13625962D01*
X-4200500Y13374038D01*
X-6049500Y13374038D01*
X-6049500Y16525500D01*
X-6029815Y16592539D01*
X-5977011Y16638294D01*
X-5925500Y16649500D01*
X65225500Y16649500D01*
X65292539Y16629815D01*
G37*
%TD.AperFunction*%
%TD*%
M02*
